<svg xmlns="http://www.w3.org/2000/svg" width="2611.958" height="1834.696" viewBox="0 0 2611.958 1834.696">
  <g id="cloud" transform="translate(463.726 153.881)">
    <g id="c7-2" opacity="0.49">
      <path id="Path_5498" data-name="Path 5498" d="M1922.807,1344.6h-53.191c-17.764,0-29.679,9.988-45.369,9.988-31.795,0-59.534-6.659-89.049-6.659-22.266,0-45.475,13.317-67.206,13.317-64.982,0-128.117-6.427-186.5,11.653-23.609,7.31-62.81-18.311-94.091-18.311-17.7,0-33.656,11.653-57.126,11.653-212.823,0-418.814,24.97-630.066,24.97,18.618,26.215,21.189,13.318,45.364,13.318,15.1,0,22.984,9.987,33.6,9.987,24.53,0,111.754-11.01,124.335-1.663,77.591,5.363,149.744,0,225.142,0,21.766,0,33.745,20.722,53.767,23.306,43.478,5.614,114.391,1.663,161.3,1.663,32.191,0,67.193-1.458,97.451,6.659,45.783,12.287,61.825-19.313,110.892,4.995,16.813,8.328,26.957,29.967-10.083,29.967-52.371,0-84.847,8.691-127.782,8.691-30.174,0-67.6,17.293-55.062,31.276,20.057,22.371,67.52,4.538,71.192,6.3,32.621,15.638,61.132,13.1,83.756,1.3,19.265-10.049,37.294,11.792,59.29,11.792,34.911,0,37.086-25.845,71.1-22.738,29.774,2.721,60.668,14.3,90.729,6.659,27.413-6.966,54.37,15.364,70.571,3.329,11.54-4.157,37.3-8.662,50.4-4.992,9.778,2.737,18.173,10.8,28.562,11.651,7.286.6,22.589,1.011,38.072,2.466Z" fill="#f8e8d1" fill-rule="evenodd" opacity="0.49"/>
    </g>
    <path id="c7-1" d="M1992.352,1309.1a46.883,46.883,0,0,0-26.394,8.1,32.438,32.438,0,0,0-39.163-39.717,41.889,41.889,0,0,0-55.327-48.955,27.164,27.164,0,0,0-26.042-35.957c-.67,0-1.292.156-1.943.2a45.529,45.529,0,0,0-86.05-13.652,48.5,48.5,0,0,0-74.506,30.1,38.639,38.639,0,0,0-62.589,15.86,60.538,60.538,0,0,0-84.11,47.629,54.879,54.879,0,0,0-87.256,40.75,45.856,45.856,0,0,0-80.437,20.768,27.734,27.734,0,1,0-7.766,54.342c.182,0,.359-.05.542-.05a29.8,29.8,0,0,0,58.1,13.143,28.3,28.3,0,0,0,38.473,6.571,36.876,36.876,0,0,0,59.363-4.958,52,52,0,0,0,80.964,22.778,50.142,50.142,0,0,0,82.231-25.848,26,26,0,0,0,44.282-12.664,55.335,55.335,0,0,0,76.962-1.31,36.762,36.762,0,0,0,43.948,7.806,51.657,51.657,0,0,0,97.4,19.715,36.435,36.435,0,0,0,4.47.307,35.6,35.6,0,0,0,28.242-13.929,47.031,47.031,0,1,0,16.61-91.025Z" fill="#0f5f8e"/>
    <g id="c6-2" opacity="0.49">
      <path id="Path_5495" data-name="Path 5495" d="M-17.551,1542.533H20.534c23.089,0,38.755-5.173,62.924-3.33,14.683,1.118,60.324,10.86,75.509,3.33,36.074-2.2,71.515-5.145,105.715-1.665,18.728,1.9,59.055,17.977,78.024,8.323,42.6-21.675,79.352,15.162,118.3,16.647,68.839,2.627,117.368-2.787,188.772,6.66,70.243,3.483,157.492-5.569,221.494,6.659,54.616,10.433,161.088,11.653,161.088,11.653-29.287,46.845-191.873-1.21-279.386,11.653-29.452,4.326-79.236,8.056-108.231,1.664-48.321-10.651-75.519,8.881-110.746,16.647-46.281,0-85.858-6.659-130.882-6.659-40.29,0-83.463,8.324-128.366,8.324-38.26,0,74.82,11.072,154.21,11.072,61.036,0,177.965,3.513,165.6,34.533-12.592,31.588-236.346-11.591-348.624,7.451-67.337,11.42-176.822.986-263.484.434Z" fill="#f8e8d1" fill-rule="evenodd" opacity="0.49"/>
    </g>
    <path id="c6-1" d="M725.441,1237.38a84.573,84.573,0,0,0-47.6,14.606,58.5,58.5,0,0,0-70.629-71.629,75.549,75.549,0,0,0-99.782-88.289,49.11,49.11,0,0,0,2.636-15.243,49.606,49.606,0,0,0-49.6-49.6c-1.21,0-2.332.281-3.505.353a82.113,82.113,0,0,0-155.191-24.622A87.476,87.476,0,0,0,167.4,1057.239a69.686,69.686,0,0,0-112.879,28.6,109.181,109.181,0,0,0-151.692,85.9,98.647,98.647,0,0,0-58.486-19.2,99.121,99.121,0,0,0-98.878,92.7,82.61,82.61,0,0,0-63.781-30.048,82.74,82.74,0,0,0-81.286,67.5,49.6,49.6,0,0,0-14.006-2.237,50.119,50.119,0,0,0-50.115,50.116,50.122,50.122,0,0,0,50.115,50.126c.327,0,.646-.091.977-.091a53.562,53.562,0,0,0-.977,9.715,53.909,53.909,0,0,0,53.906,53.915,53.746,53.746,0,0,0,51.847-39.926,51.1,51.1,0,0,0,40.836,20.53,51.009,51.009,0,0,0,28.548-8.679,66.506,66.506,0,0,0,50.257,22.959,66.545,66.545,0,0,0,56.8-31.9A93.956,93.956,0,0,0-43.4,1468.436,93.492,93.492,0,0,0,14.6,1448.3a90.431,90.431,0,0,0,148.3-46.617,46.9,46.9,0,0,0,79.863-22.84,99.8,99.8,0,0,0,138.8-2.363,66.294,66.294,0,0,0,79.259,14.078,93.162,93.162,0,0,0,175.66,35.556,65.592,65.592,0,0,0,8.061.554,64.188,64.188,0,0,0,50.934-25.121,84.82,84.82,0,1,0,29.957-164.162Z" fill="#2b7aa0"/>
    <path id="c5-2" d="M1084.319,1221.693c0-.04,0-.081,0-.119a68.091,68.091,0,0,0-129.677-29.041,66.4,66.4,0,0,0-109.05,50.9c0,1.171.033,2.338.093,3.494a54.64,54.64,0,1,0,44.543,99.569,33.489,33.489,0,0,0,39.481,6.762,81.084,81.084,0,0,0,131.25-6.115,64.305,64.305,0,1,0,23.358-125.446Z" fill="#2b6d89"/>
    <path id="c5-1" d="M1005.212,1040.237c6.548-58.333-28.638-105.361-94.827-105.361-.43,0-.844.067-1.284.072-7.976-64.137-56.589-113.53-115.533-113.53-58.561,0-106.916,48.769-115.357,112.314a109.53,109.53,0,0,0-122.041-1.8c-1.388-45.348-34.249-81.646-74.706-81.646-.85,0-1.669.112-2.513.145.029-1.306.089-2.606.089-3.917,0-75.017-53.8-135.828-120.16-135.828-48.628,0-90.473,32.665-109.384,79.621C235.961,775.1,217.326,765.7,196.732,765.7c-27.323,0-51.16,16.617-64.222,41.348C108.9,781.449,76.883,765.7,41.6,765.7c-68.028,0-123.982,58.434-130.729,133.312a81.3,81.3,0,0,0-22.589-3.309c-47.275,0-86.148,40.627-90.793,92.678-26.183,9.7-44.269,30.1-44.269,53.785,0,33.045,35.137,59.829,78.477,59.829,2.083,0,4.132-.112,6.165-.235,13.107,14.173,30.853,22.934,50.42,22.934a66.272,66.272,0,0,0,8.121-.536c12.572,28.43,38.5,48.005,68.54,48.005,17,0,32.659-6.333,45.37-16.924,19.345,15.768,43.029,25.16,68.7,25.16,43.169,0,80.793-26.343,101.289-65.5,14.355,20.987,36.78,34.557,62.064,34.557,19.642,0,37.555-8.213,51.318-21.695,8.422,21.054,27.125,35.728,48.889,35.728a48.943,48.943,0,0,0,28.147-9.078c19.518,16.261,43.569,25.992,69.677,25.992,32.554,0,62.019-14.938,83.329-39.082,22.293,29.222,55.258,47.753,92.073,47.753,33.408,0,62.437,4.485,84.408-20.178,15.062,21.667,43.967,47.737,70.223,47.737,26.172,0,41.622-11.869,56.688-33.4,1.954,24.109,16.289,54.081,55.384,54.081s56.688-35.837,57.991-54.081c10.643,9.23,32.4,25.621,52.778,17.593,64.507-25.412,15.6-70.913,43.5-98.809C1057.167,1081.61,1052.375,1040.237,1005.212,1040.237Z" fill="#0f5f8e"/>
    <g id="c4-3">
      <path id="Path_5503" data-name="Path 5503" d="M2148.232,1050.3c0-38.138-18.652-71.318-46.132-88.325a112.737,112.737,0,0,0,12.544-52c0-56.544-40.228-102.375-89.858-102.375-29.357,0-55.353,16.111-71.75,40.932a64.45,64.45,0,0,0-12.089,2.881c.03-1.216.158-2.389.158-3.614,0-65.168-46.359-117.985-103.567-117.985-25.39,0-48.608,10.445-66.617,27.72-25.308-66.945-83.681-113.82-151.706-113.82-50.251,0-95.173,25.65-125.468,66a97.176,97.176,0,0,0-39.675-8.6c-60.289,0-109.162,55.681-109.162,124.368,0,2.355.2,4.648.318,6.968a62.128,62.128,0,0,0-8.131-.586c-36.26,0-65.981,31.687-69.085,72.077-12.93-16.784-31.848-27.436-52.983-27.436-17.117,0-32.8,6.944-45.013,18.5-11.945-11.522-27.381-18.5-44.262-18.5-29.5,0-54.566,21.252-64.256,51.015-12.014-10.953-27.237-17.551-43.831-17.551-30.591,0-56.549,22.329-66.171,53.439a85.723,85.723,0,0,0-46.042-13.558c-52.552,0-95.164,48.548-95.164,108.421,0,59.889,42.612,108.429,95.164,108.429,26.11,0,49.736-11.989,66.936-31.368,9.274,43.589,43.657,76.009,84.778,76.009a77.367,77.367,0,0,0,17.381-1.984c17.162,43.969,55.762,74.673,100.729,74.673,32.476,0,61.568-16.094,81.757-41.537,15.966,48.23,56.746,82.608,104.673,82.608,25.572,0,49.07-9.885,67.927-26.332,16.39,20.691,40.039,33.766,66.429,33.766a79.49,79.49,0,0,0,28.736-5.468c15.723,52.463,59.259,90.231,110.63,90.231,58.358,0,106.611-48.738,115.407-112.4,21.348,19.242,48.275,30.815,77.609,30.815,48.4,0,90.312-31.324,111.16-77.1,3.271.294,6.556.569,9.9.569,59.895,0,110.093-46.676,124.476-109.791C2116.044,1141.762,2148.232,1100.364,2148.232,1050.3Z" fill="#2b7aa0"/>
    </g>
    <path id="c4-2" d="M2022.863,723.939c.015-.6.089-1.177.089-1.777a66.61,66.61,0,0,0-66.611-66.61c-1.4,0-2.793.056-4.174.139a71.867,71.867,0,0,0-62.434-107.483,72.585,72.585,0,0,0-11.175.867,85.57,85.57,0,0,0-116.505-99.467,96.153,96.153,0,0,0-185.7,34.843,72.82,72.82,0,0,0-125.441,67.671,69.965,69.965,0,0,0-128.826,52.31,52.028,52.028,0,0,0-46.539,35.13,74.732,74.732,0,0,0-99.11-26.218,66.48,66.48,0,0,0-125.392-29.436,68.694,68.694,0,0,0-111.046,54.1,69.572,69.572,0,0,0,.375,7.187,52.2,52.2,0,0,0-28.56,52.243H911.6c-.015.6-.089,1.177-.089,1.777a66.609,66.609,0,0,0,66.611,66.61c1.4,0,2.792-.057,4.174-.139a71.866,71.866,0,0,0,62.434,107.482,72.727,72.727,0,0,0,11.175-.866,85.572,85.572,0,0,0,116.505,99.467,96.154,96.154,0,0,0,185.7-34.843,72.821,72.821,0,0,0,125.441-67.671,69.965,69.965,0,0,0,128.826-52.31,52.03,52.03,0,0,0,46.539-35.13,74.732,74.732,0,0,0,99.11,26.218,66.48,66.48,0,0,0,125.391,29.436,68.7,68.7,0,0,0,111.047-54.1,69.3,69.3,0,0,0-.376-7.187,52.188,52.188,0,0,0,28.56-52.243Z" fill="#3f687b"/>
    <path id="c4-1" d="M1197.724,343.716c58.461,19.519,66.845,71.53,78.515,122.593,39.163-63.857,98.379,2.819,81.882,55.956-1.8.629.664.3,1.334-1.518,14.718-40.325,123.306-2.335,125.588,44.139,3.264,66.555-86.4,73.13-129.664,49.062,46.426,93.853-155.984,83.734-138.024,11.193-23,92.925-268.2,98.873-263.749-6.962-1.375,32.708-166.657,64.31-155.481-16.6-130.951,42.617-70.435-132.621-7.383-62.362-30.821-53.258,40.945-70.684,72.685-33.522-57.351-67.154,101.462-137.78,143.022-58.756-25.488-51.372,45.3-72.627,60.271-21.685-9.46-51.832,46.784-81.36,90.387-85.8A96.264,96.264,0,0,1,1197.724,343.716Z" transform="translate(-5.869 14.493)" fill="#2b6d89"/>
    <path id="c3-2" d="M999.726,755.758c0-.114.016-.22.016-.336A138.7,138.7,0,0,0,726.01,723.7a81.268,81.268,0,0,0-69.771-13.207,122.682,122.682,0,0,0-197.668,97.251c0,.895.115,1.755.131,2.657A81.824,81.824,0,0,0,564.549,935.143a76.883,76.883,0,0,0,130.407,67.984,40.622,40.622,0,0,0,48.436-1.116,76.81,76.81,0,0,0,99.769,10.319,97.551,97.551,0,0,0,142.415-52.571c2.51.189,5,.385,7.547.385a102.3,102.3,0,0,0,6.6-204.386Z" fill="#2b6d89"/>
    <path id="c3-1" d="M869.247,645.645a69.532,69.532,0,0,0-39.139,12.009,48.1,48.1,0,0,0-58.073-58.894,62.116,62.116,0,0,0-82.041-72.592,40.381,40.381,0,0,0,2.167-12.533,40.787,40.787,0,0,0-40.783-40.786c-.994,0-1.917.231-2.881.29a67.514,67.514,0,0,0-127.6-20.244,71.924,71.924,0,0,0-110.48,44.636,57.3,57.3,0,0,0-92.81,23.518,89.77,89.77,0,0,0-124.723,70.626A81.377,81.377,0,0,0,63.5,652.1,68,68,0,0,0-55.778,682.9a40.834,40.834,0,0,0-11.516-1.838A41.209,41.209,0,0,0-108.5,722.265a41.21,41.21,0,0,0,41.205,41.213c.27,0,.531-.075.8-.075a44.014,44.014,0,0,0-.8,7.988,44.325,44.325,0,0,0,44.322,44.33,44.191,44.191,0,0,0,42.629-32.828,41.959,41.959,0,0,0,57.049,9.744,54.683,54.683,0,0,0,88.027-7.353A77.107,77.107,0,0,0,284.79,819.061a74.354,74.354,0,0,0,121.936-38.328,38.561,38.561,0,0,0,65.664-18.78,82.052,82.052,0,0,0,114.123-1.943,54.506,54.506,0,0,0,65.167,11.576A76.6,76.6,0,0,0,796.109,800.82a53.942,53.942,0,0,0,6.629.456,52.776,52.776,0,0,0,41.878-20.655,69.74,69.74,0,1,0,24.631-134.976Z" fill="#3f687b"/>
    <g id="c2-2" opacity="0.49">
      <path id="Path_5497" data-name="Path 5497" d="M1906.32,129.631l-57.277,6.348c-17.505,0-41.444,33.616-56.905,33.616-31.331,0-45.63-19.775-74.715-19.775-21.941,0-53.3,15-74.714,15-64.034,0-96.243-40.668-153.774-22.588-23.264,7.309-76.035,27.366-106.859,27.366-17.447,0-85.078-32.689-111.685-33.683-211.495-7.9-490.076-15.139-506.45,43.145-4.025,14.328,14.486,28.493,24.949,28.493,24.173,0,98.466,9.893,113.007,15.334,71.787,26.859,147.56,0,221.858,0,21.448,0,33.253,20.721,52.982,23.3,42.844,5.615,112.722,1.664,158.944,1.664,31.721,0,66.212-1.458,96.028,6.658,45.115,12.288,60.924-19.313,109.275,5,16.567,8.328,102.73,4.724,104.621,14.449-30.444-5-78.058,15.518-114.557,15.518-51.607,0-91.8,13.315-134.107,13.315-29.734,0-62.7-4.993-92.718-4.993-24.522,0-70.394-1.569-54.634,9.988,20.8,15.255,70.76,18.313,97.683,18.313,10.975,0,49.31-9.977,52.979-8.325,24.558,11.068,57.178,21.788,79.472,9.991,18.985-10.048,39.585,0,61.261,0,34.4,0,57.544-4.773,91.06-1.666,29.339,2.721,59.783,14.3,89.405,6.659,27.013-6.966,53.577,15.364,69.541,3.329,11.372-4.157,36.758-8.662,49.669-4.993,9.635,2.738,17.908,10.8,28.145,11.652,7.18.6,22.259,1.011,37.516,2.466Z" fill="#f8e8d1" fill-rule="evenodd" opacity="0.49"/>
    </g>
    <path id="c2-1" d="M1870.612,168.689a40.926,40.926,0,0,0-21.42-36,41.678,41.678,0,0,0-69.212-46.232,33.412,33.412,0,0,0-5.613,1.174c.014-.5.074-.973.074-1.473a48.063,48.063,0,0,0-79.02-36.787,76.619,76.619,0,0,0-128.7-19.49,50.6,50.6,0,0,0-69.107,47.181c0,.959.091,1.894.148,2.84a32.784,32.784,0,0,0-3.776-.239,32.206,32.206,0,0,0-32.077,29.374,32.691,32.691,0,0,0-45.5-3.642,31.8,31.8,0,0,0-50.387,13.252,32.55,32.55,0,0,0-51.075,14.626,44.185,44.185,0,1,0,9.7,70.066,40.523,40.523,0,0,0,47.434,30.169,51.1,51.1,0,0,0,84.731,13.5,51.848,51.848,0,0,0,80.14,22.935,41.338,41.338,0,0,0,44.186,11.532,54.253,54.253,0,0,0,104.952-9.036,58.056,58.056,0,0,0,87.648-18.865c1.519.119,3.044.232,4.6.232a59.753,59.753,0,0,0,57.8-44.745A40.912,40.912,0,0,0,1870.612,168.689Z" fill="#2b7aa0"/>
    <g id="c1-3" opacity="0.49">
      <path id="Path_5496" data-name="Path 5496" d="M-17.551-3.71H20.534c23.089,0,38.755-5.172,62.924-3.329C98.141-5.921,143.782,3.82,158.967-3.71c36.074-2.2,71.515-5.145,105.715-1.665,18.728,1.9,59.055,17.978,78.024,8.324,42.6-21.675,79.352,15.162,118.3,16.647,68.839,2.626,117.368-2.787,188.772,6.66,70.243,3.483,157.492-5.57,221.494,6.658,54.616,10.434,161.088,11.653,161.088,11.653-29.287,46.846-191.873-1.209-279.386,11.653-29.452,4.327-79.236,8.056-108.231,1.665C596.421,47.234,569.223,66.766,534,74.532c-46.281,0-85.858-6.659-130.882-6.659-40.29,0-83.463,8.323-128.366,8.323-38.26,0,74.82,11.072,154.21,11.072,61.036,0,177.965,3.514,165.6,34.534-12.592,31.588-236.346-11.591-348.624,7.45-67.337,11.421-176.822.987-263.484.435Z" fill="#f8e8d1" fill-rule="evenodd" opacity="0.49"/>
    </g>
    <path id="c1-2" d="M1322.47-156.027a31.081,31.081,0,0,0-16.864-27.631,71.786,71.786,0,0,0,6.669-30.275,72,72,0,0,0-71.993-72,71.98,71.98,0,0,0-63.491,38.04,48.844,48.844,0,0,0-35.092-14.835,49,49,0,0,0-49.006,49.008,48.844,48.844,0,0,0,3.28,17.518,39.352,39.352,0,0,0-12.9-2.2,39.542,39.542,0,0,0-39.541,39.539,39.541,39.541,0,0,0,39.541,39.542,39.316,39.316,0,0,0,17.491-4.12c7.34,13.369,22.975,22.628,41.131,22.628a48.892,48.892,0,0,0,32.885-12.236,61.933,61.933,0,0,0,57.336,38.518,61.945,61.945,0,0,0,60.86-50.469A31.074,31.074,0,0,0,1322.47-156.027Z" transform="translate(-11.178 132.049)" fill="#0f5f8e"/>
    <path id="c1-1" d="M627.684,166.589A74.173,74.173,0,0,0,588,178.092a86.814,86.814,0,0,0-101.709-72.281,107.388,107.388,0,1,0-203.7-56.24,62.221,62.221,0,0,0-73.864,11.055A97.826,97.826,0,0,0,32.305,118.881c0,.142.013.277.013.419a89.478,89.478,0,0,0-79.95,74.308,58.61,58.61,0,0,0-14.877-1.978A58.694,58.694,0,0,0-121.2,250.324a58.694,58.694,0,0,0,58.694,58.694,58.41,58.41,0,0,0,36.723-12.944A39.406,39.406,0,0,0-2.952,306.4a47.156,47.156,0,0,0,82.436,21.459,87.613,87.613,0,0,0,145.559.37,102.331,102.331,0,0,0,178.512-7.4,82.963,82.963,0,0,0,142.681-8.1,49.227,49.227,0,0,0,45.775-5.914,74.651,74.651,0,1,0,35.673-140.231Z" fill="#2b7aa0"/>
  </g>
</svg>
