<svg xmlns="http://www.w3.org/2000/svg" viewBox="0 0 1926.78 1834.7"><defs><style>.cls-1,.cls-4{fill:#f8e8d1;isolation:isolate;}.cls-1,.cls-3,.cls-4{opacity:0.49;}.cls-2{fill:#0f5f8e;}.cls-4{fill-rule:evenodd;}.cls-5{fill:#2b7aa0;}.cls-6{fill:#2b6d89;}.cls-7{fill:#3f687b;}</style></defs><g id="圖層_2" data-name="圖層 2"><g id="圖層_1-2" data-name="圖層 1"><g id="clouds"><path id="c7-2" class="cls-1" d="M1590.92,1692.69c-9.27,0-17.82-3.87-26.08-7.62-7.75-3.5-15.06-6.82-22.49-6.82a22.75,22.75,0,0,0-10.72,2.65,83.78,83.78,0,0,1-39.07,9.64,92.38,92.38,0,0,1-21.53-2.61,115.82,115.82,0,0,1-23.16-8.34,2.12,2.12,0,0,0-.83-.12,56.73,56.73,0,0,0-8.11,1.36h0c-1.85.38-4,.8-6.22,1.23a132.68,132.68,0,0,1-23.94,2.6,58.69,58.69,0,0,1-17.57-2.39,35.69,35.69,0,0,1-7.83-3.5,29.18,29.18,0,0,1-6.64-5.49c-2.6-2.9-3.16-6-1.69-9.36,2.4-5.36,10.2-10.9,21.41-15.2a102.71,102.71,0,0,1,35.35-6.71c20.39,0,38.36-2,57.37-4,21.1-2.3,42.92-4.66,70.41-4.66,7.81,0,14-1,18.24-2.87a14.1,14.1,0,0,0,4.65-3.14,8.42,8.42,0,0,0,2.12-3.88,9.91,9.91,0,0,0-.35-5.37,18.65,18.65,0,0,0-3-5.51,33.79,33.79,0,0,0-11.55-9.2,96,96,0,0,0-19.77-7.43,69.79,69.79,0,0,0-16.66-2c-9.14,0-17.12,1.77-25.57,3.63h0l-.4.09c-7.89,1.74-16.84,3.72-26.88,3.72a82.55,82.55,0,0,1-21.6-3,192.19,192.19,0,0,0-34.94-5.62c-12.83-1-25.67-1.14-36.54-1.14-4.38,0-8.8,0-13.07.05h-.1c-4.2,0-8.54,0-12.8,0-13,0-27.84.3-43.52.62-17.43.36-35.46.73-53.09.73-13.15,0-24.44-.21-34.51-.63-11.74-.5-21.61-1.28-30.18-2.39a38.65,38.65,0,0,1-12.84-4.22,119.73,119.73,0,0,1-11.57-7.17,102.57,102.57,0,0,0-13.6-8.18,40.74,40.74,0,0,0-7.48-2.7,33.54,33.54,0,0,0-8.28-1c-25.17,0-50.37.61-74.74,1.2h0c-24.26.58-49.34,1.19-74.27,1.19-28,0-52.89-.78-76.1-2.39-1.78-1.32-5.19-2.3-10.14-2.92a143.85,143.85,0,0,0-17.36-.84c-18.11,0-41.31,1.76-61.78,3.32h0c-14.89,1.13-27.74,2.1-35.06,2.1-4.84,0-9.18-2.1-13.76-4.33a73.08,73.08,0,0,0-8.92-3.84,34.12,34.12,0,0,0-10.92-1.81,74.89,74.89,0,0,0-16.54,2h0a40.83,40.83,0,0,1-8.07,1.18,14.37,14.37,0,0,1-9.12-3.29c-3.33-2.52-7-6.72-11.63-13.2h.19c25.25,0,51-.35,78.66-1.07,24.7-.64,50.38-1.56,78.5-2.82,52.26-2.33,105.26-5.5,156.52-8.56,51.49-3.08,104.73-6.26,157.38-8.6,28.35-1.27,54.24-2.19,79.16-2.84,28-.72,54-1.08,79.66-1.08a77.2,77.2,0,0,0,17.4-2.05c5.38-1.23,10.39-2.83,15.24-4.39,8.36-2.68,16.25-5.21,24.48-5.21,14.18,0,30,5.25,45.21,10.33,14.35,4.78,27.9,9.29,39.36,9.29a31.64,31.64,0,0,0,9.52-1.31,271.14,271.14,0,0,1,52.33-10.34,516.07,516.07,0,0,1,54.33-2.42c13,0,26.36.28,39.29.55,13.24.27,26.94.56,40.55.56a75.28,75.28,0,0,0,16.44-2.06c5.55-1.24,11.25-2.92,16.76-4.54,11.21-3.3,22.81-6.72,34-6.72,14.48,0,28.26,1.57,42.85,3.24,14.75,1.68,30,3.42,46.2,3.42,7.6,0,14.22-2.31,21.24-4.76,7.36-2.57,15-5.23,24.13-5.23h39.61V1688c-4.87-.32-9.46-.55-13.51-.76h0c-4.43-.23-8.25-.43-10.94-.65-6-.5-11.41-3.43-16.65-6.27a59.16,59.16,0,0,0-11.92-5.38,46.68,46.68,0,0,0-12.29-1.36,125.27,125.27,0,0,0-20.81,2,112,112,0,0,0-17.3,4.33,19.58,19.58,0,0,1-12.14,3.63c-6.08,0-12.94-1.81-20.21-3.73l-.1,0-1.57-.41c-8.37-2.2-16.58-4.17-25.07-4.17a46.25,46.25,0,0,0-11.48,1.38,88.17,88.17,0,0,1-21.88,2.57c-13.55,0-27.36-2.52-40.7-5h0c-9.26-1.68-18.85-3.43-28.14-4.28-1.88-.17-3.73-.26-5.49-.26a46.36,46.36,0,0,0-9.47.93,41.24,41.24,0,0,0-7.84,2.46,79,79,0,0,0-13.11,7.54h0C1617.17,1686.56,1607.93,1692.69,1590.92,1692.69Z"/><path id="c7-1" class="cls-2" d="M1914.68,1595.58a51.63,51.63,0,0,1-51.5-47.66,37.5,37.5,0,0,1-8,3,36.76,36.76,0,0,1-35.91-10.83,56,56,0,0,1-8.2,6.77,55.33,55.33,0,0,1-68.76-5.46,25.84,25.84,0,0,1-3.25,8.24,26.05,26.05,0,0,1-22.25,12.49,25.73,25.73,0,0,1-10.38-2.18,26.13,26.13,0,0,1-8.4-5.88,50.14,50.14,0,0,1-48.85,38.62,49.6,49.6,0,0,1-18.18-3.42,50.56,50.56,0,0,1-15.21-9.35,52.35,52.35,0,0,1-14.85,8.2,51.95,51.95,0,0,1-47.33-6.58,52.78,52.78,0,0,1-11.19-10.74,52.25,52.25,0,0,1-7.59-13.66,36.79,36.79,0,0,1-31.5,17.69,36.75,36.75,0,0,1-22.21-7.46,37.12,37.12,0,0,1-5.65-5.27,28.25,28.25,0,0,1-15.83,4.81,27.73,27.73,0,0,1-12.85-3.11,29.18,29.18,0,0,1-9.8-8.27,30,30,0,0,1-10.48,15.84,29.46,29.46,0,0,1-18.26,6.3,29.92,29.92,0,0,1-27.54-18.26,29.64,29.64,0,0,1-2.35-11.64,28.62,28.62,0,0,1,.54-5.38h0l-.26,0-.27,0a27.8,27.8,0,1,1,7.76-54.35,45.83,45.83,0,0,1,45.08-37.43,45.82,45.82,0,0,1,35.36,16.67,54.87,54.87,0,0,1,87.26-40.76,60.54,60.54,0,0,1,84.11-47.63,38.79,38.79,0,0,1,13.9-18.66,38.59,38.59,0,0,1,48.69,2.8,48.1,48.1,0,0,1,6.1-15.24,49,49,0,0,1,10.62-12.16A48.5,48.5,0,0,1,1775,1333a46,46,0,0,1,16.5-18.5,45.54,45.54,0,0,1,69.55,32.15c.28,0,.56-.05.83-.09a8.32,8.32,0,0,1,1.12-.1,27.17,27.17,0,0,1,26,36,41.75,41.75,0,0,1,37.76,4.42v207.33A51.84,51.84,0,0,1,1914.68,1595.58Z"/><g id="c6-2" class="cls-3"><path id="Path_5495" data-name="Path 5495" class="cls-4" d="M0,1696.42H38.09c23.08,0,38.75-5.18,62.92-3.33,14.68,1.12,60.32,10.86,75.51,3.33,36.07-2.2,71.51-5.15,105.71-1.67,18.73,1.9,59.06,18,78,8.32,42.6-21.67,79.35,15.17,118.3,16.65,68.84,2.63,117.36-2.79,188.77,6.66,70.24,3.48,157.49-5.57,221.49,6.66,54.62,10.43,161.09,11.65,161.09,11.65-29.29,46.85-191.87-1.21-279.39,11.66-29.45,4.32-79.23,8.05-108.23,1.66-48.32-10.65-75.52,8.88-110.74,16.65-46.28,0-85.86-6.66-130.88-6.66-40.29,0-83.47,8.32-128.37,8.32-38.26,0,74.82,11.07,154.21,11.07,61,0,178,3.52,165.6,34.54-12.59,31.59-236.35-11.59-348.62,7.45-67.34,11.42-176.83,1-263.49.43Z"/></g><path id="c6-1" class="cls-5" d="M571.26,1630.41a92.81,92.81,0,0,1-63.44-25,93.52,93.52,0,0,1-20.26-27.3,92.58,92.58,0,0,1-9.18-33.72,67.17,67.17,0,0,1-14.51,5.45,65.87,65.87,0,0,1-15.88,1.94,66.5,66.5,0,0,1-48.87-21.47,100.25,100.25,0,0,1-31.78,21.43,99.59,99.59,0,0,1-92.55-7.83,100.83,100.83,0,0,1-14.47-11.24,46.93,46.93,0,0,1-64.72,33.46,47.26,47.26,0,0,1-15.14-10.62,90.49,90.49,0,0,1-120.87,63.49,90.85,90.85,0,0,1-27.43-16.87,94.36,94.36,0,0,1-26.38,14.64V1233.1a110.51,110.51,0,0,1,22.86-2.4,109.15,109.15,0,0,1,43.43,9A69.65,69.65,0,0,1,185,1211.12a87,87,0,0,1,11-27.49,87.88,87.88,0,0,1,19.16-21.93,87.46,87.46,0,0,1,104.21-4.87,82.93,82.93,0,0,1,29.75-33.36,81.9,81.9,0,0,1,98.26,7.56,82.18,82.18,0,0,1,27.18,50.43c.5,0,1-.1,1.47-.17a15.32,15.32,0,0,1,2-.19,49.57,49.57,0,0,1,49.6,49.61A48.8,48.8,0,0,1,525,1246a75.49,75.49,0,0,1,55.6,1.23,75.93,75.93,0,0,1,40.29,40.29,75.11,75.11,0,0,1,3.89,46.77,58.53,58.53,0,0,1,55.34,15.5,58.47,58.47,0,0,1,12.59,18.67,57.92,57.92,0,0,1,2.7,37.46A84.81,84.81,0,0,1,803,1416.12a86,86,0,0,1,10.36,12.56A84.54,84.54,0,0,1,826.12,1459a85.86,85.86,0,0,1,0,34.2,84.54,84.54,0,0,1-12.77,30.34A86,86,0,0,1,803,1536.11a84.57,84.57,0,0,1-90,19.32,65.34,65.34,0,0,1-10,10.36,64.58,64.58,0,0,1-12.09,7.92,63.62,63.62,0,0,1-13.78,5.06,64.67,64.67,0,0,1-15.06,1.78A66,66,0,0,1,654,1580a93.72,93.72,0,0,1-33.69,36.43,92.71,92.71,0,0,1-49.09,14Z"/><path id="c5-2" class="cls-6" d="M1101.87,1375.58v-.12a68.09,68.09,0,0,0-129.68-29,66.4,66.4,0,0,0-109.05,50.9c0,1.17,0,2.33.1,3.49a54.64,54.64,0,0,0,38.48,102.28,53.83,53.83,0,0,0,6.06-2.71,33.49,33.49,0,0,0,39.48,6.76,81.1,81.1,0,0,0,131.25-6.11,64.31,64.31,0,1,0,23.36-125.45Z"/><path id="c5-1" class="cls-2" d="M900.05,1391.18a58.65,58.65,0,0,1-24.87-5.06,47.55,47.55,0,0,1-16.75-12.94,57.66,57.66,0,0,1-9.78-17.46,72.29,72.29,0,0,1-4-18.62,118.32,118.32,0,0,1-11.54,14.3,65.79,65.79,0,0,1-12.64,10.48,53.3,53.3,0,0,1-14.73,6.44,67.47,67.47,0,0,1-17.78,2.19,52.07,52.07,0,0,1-19.93-4.41,93.8,93.8,0,0,1-19.38-11.33,138,138,0,0,1-17.28-15.4,142.68,142.68,0,0,1-13.63-16.6,55.88,55.88,0,0,1-26.88,17,82.26,82.26,0,0,1-15.33,2.81c-4.69.45-9.92.66-16.45.66-4,0-8.08-.07-12.37-.16s-8.83-.16-13.38-.16a108.45,108.45,0,0,1-26.78-3.35,111.66,111.66,0,0,1-24.7-9.57,120.27,120.27,0,0,1-22-15,131.08,131.08,0,0,1-18.61-19.79,123.28,123.28,0,0,1-17.43,16.29,113.85,113.85,0,0,1-20,12.3,107.22,107.22,0,0,1-22.12,7.77,104.63,104.63,0,0,1-61.07-4.18,114.09,114.09,0,0,1-32.37-19.1A51.08,51.08,0,0,1,375,1315a47.57,47.57,0,0,1-14.87,2.39,49,49,0,0,1-29.45-10,56.54,56.54,0,0,1-11.31-11.29,62.23,62.23,0,0,1-8.13-14.47,77.32,77.32,0,0,1-23.46,15.9,70,70,0,0,1-46.21,3.35,72,72,0,0,1-16.78-7,78.17,78.17,0,0,1-14.74-10.9,86.43,86.43,0,0,1-12.2-14.25c-10.24,19.58-24.82,36-42.14,47.44a110.1,110.1,0,0,1-28,13.34,104.68,104.68,0,0,1-67.88-1.94,113.8,113.8,0,0,1-32-18.49,74.07,74.07,0,0,1-22.08,12.8V932.34a120.49,120.49,0,0,1,25.68-9.46A117.85,117.85,0,0,1,109,930.66a126.77,126.77,0,0,1,21.88,13,137.93,137.93,0,0,1,19.2,17.26A81,81,0,0,1,176.82,931a69.67,69.67,0,0,1,17.73-8.41,66.73,66.73,0,0,1,34.76-1.28,68.21,68.21,0,0,1,14,4.9A72.37,72.37,0,0,1,256,933.94,78.44,78.44,0,0,1,267,944.2,139.43,139.43,0,0,1,285.27,912a126.6,126.6,0,0,1,25.32-25.17c19.56-14.52,42.32-22.2,65.83-22.2a107.88,107.88,0,0,1,24.22,2.76,109.76,109.76,0,0,1,22.55,7.91,116.75,116.75,0,0,1,20.42,12.53,125.71,125.71,0,0,1,17.78,16.58,135,135,0,0,1,14.67,20.1,142.28,142.28,0,0,1,11.08,23.08,147.85,147.85,0,0,1,7,25.5,154.07,154.07,0,0,1,2.44,27.37c0,.87,0,1.78-.05,2.57v0c0,.43,0,.88,0,1.32l1-.07h0c.48,0,1-.08,1.48-.08a67,67,0,0,1,28.54,6.38,72.73,72.73,0,0,1,12.51,7.5,78.2,78.2,0,0,1,11,9.94,83.64,83.64,0,0,1,9.12,12.07,88,88,0,0,1,7,13.87,93.31,93.31,0,0,1,6.57,31.89,114,114,0,0,1,28.3-13.06,108.46,108.46,0,0,1,64.25.48,114.14,114.14,0,0,1,29.5,14.38,143.06,143.06,0,0,1,13.35-44.36,134.1,134.1,0,0,1,11.42-19.1,126.26,126.26,0,0,1,14.11-16.52,118.19,118.19,0,0,1,16.47-13.55,111.28,111.28,0,0,1,18.46-10.17,104.55,104.55,0,0,1,83.35.11,111.19,111.19,0,0,1,18.55,10.29A119.76,119.76,0,0,1,888,1008a126.67,126.67,0,0,1,14.13,16.71,134.23,134.23,0,0,1,11.39,19.31,143.2,143.2,0,0,1,13.13,44.8,6.07,6.07,0,0,0,.63,0c.19,0,.43,0,.65,0,15.7,0,30.07,2.64,42.73,7.86a83.42,83.42,0,0,1,30.73,21.53,82,82,0,0,1,11,15.75,89.75,89.75,0,0,1,7.33,18.21,101.88,101.88,0,0,1,3.49,20.22,119.3,119.3,0,0,1-.49,21.79c10.69,0,19.72,2.11,26.85,6.27a33.64,33.64,0,0,1,8.39,6.87,31,31,0,0,1,5.27,8.5,33.22,33.22,0,0,1,2.4,10.35,36.87,36.87,0,0,1-.84,10.68A39.58,39.58,0,0,1,1061,1247a39.09,39.09,0,0,1-6.65,8.9,30.69,30.69,0,0,0-6.29,8.92,34.08,34.08,0,0,0-2.77,9.76c-1,6.73-.34,13.72.3,21.12.92,10.66,1.88,21.69-2.22,31.86a38,38,0,0,1-10.57,14.54,59.44,59.44,0,0,1-9.32,6.59,91.84,91.84,0,0,1-12.63,6,31,31,0,0,1-11.49,2.15c-7.3,0-15.25-2.37-23.64-7A106.55,106.55,0,0,1,958,1337.12a54.38,54.38,0,0,1-4.11,16.15A68.36,68.36,0,0,1,943.22,1371a57.06,57.06,0,0,1-17.8,14.32A55.42,55.42,0,0,1,900.05,1391.18Z"/><path id="c4-3" class="cls-5" d="M1653,1571.18a104,104,0,0,1-36.75-6.72,112,112,0,0,1-31.93-18.72,126.87,126.87,0,0,1-25.25-28.56,140,140,0,0,1-16.7-36.23,79.6,79.6,0,0,1-28.74,5.46,78.68,78.68,0,0,1-19.2-2.36,81.19,81.19,0,0,1-17.76-6.76,87.74,87.74,0,0,1-15.88-10.64,95.63,95.63,0,0,1-13.58-14,108.92,108.92,0,0,1-31.45,19.34,98.86,98.86,0,0,1-70.81.87,106.52,106.52,0,0,1-30-17.09,120.23,120.23,0,0,1-24-26.14,133.19,133.19,0,0,1-16.35-33.25,119.53,119.53,0,0,1-16.73,17.23,107.87,107.87,0,0,1-19.55,13.07,99.76,99.76,0,0,1-21.85,8.32,97.52,97.52,0,0,1-23.63,2.91c-21.74,0-42.76-7.21-60.79-20.85a117.31,117.31,0,0,1-23.29-23.6,129.82,129.82,0,0,1-16.65-30.22,77.48,77.48,0,0,1-46.67-3.76,84.55,84.55,0,0,1-25-15.92,96.65,96.65,0,0,1-19.07-24.08,106.53,106.53,0,0,1-11.38-30.27,99.93,99.93,0,0,1-14,13.08,92.08,92.08,0,0,1-16.09,9.87,85.86,85.86,0,0,1-17.75,6.25,84.71,84.71,0,0,1-38.23,0,86.4,86.4,0,0,1-17.86-6.31,92.43,92.43,0,0,1-16.17-10,100.23,100.23,0,0,1-14.08-13.24,107.14,107.14,0,0,1-11.62-16,113.9,113.9,0,0,1-8.78-18.42,119.62,119.62,0,0,1-5.54-20.35,124.07,124.07,0,0,1,0-43.71,119.62,119.62,0,0,1,5.54-20.35,113.8,113.8,0,0,1,8.78-18.41,107.14,107.14,0,0,1,11.62-16,100.23,100.23,0,0,1,14.08-13.24,92.43,92.43,0,0,1,16.17-10,87,87,0,0,1,17.86-6.32,84.34,84.34,0,0,1,43.35,1.35,88.17,88.17,0,0,1,21.87,10,84.55,84.55,0,0,1,10.1-21.48,76.15,76.15,0,0,1,15.13-16.91,66.85,66.85,0,0,1,19.05-11.07,62.18,62.18,0,0,1,45.53.69,68.28,68.28,0,0,1,20.2,12.88,82,82,0,0,1,10-20.53,73.84,73.84,0,0,1,14.72-16.14,65.38,65.38,0,0,1,18.43-10.56,60.92,60.92,0,0,1,45.11,1.14,67.33,67.33,0,0,1,20.27,13.57,68.71,68.71,0,0,1,20.66-13.58,62.54,62.54,0,0,1,39.73-3,64.58,64.58,0,0,1,14.19,5.5,69.55,69.55,0,0,1,12.65,8.65,76.08,76.08,0,0,1,10.76,11.36c1.51-19.61,9.36-37.8,22.11-51.18A68.64,68.64,0,0,1,1329,991.33a60.67,60.67,0,0,1,33.79-5c0-.62-.07-1.26-.11-1.88v0c-.1-1.64-.21-3.34-.21-5a142.28,142.28,0,0,1,2.22-25.06A137.84,137.84,0,0,1,1371,931a131.43,131.43,0,0,1,10.07-21.12,123.41,123.41,0,0,1,13.33-18.41,114.86,114.86,0,0,1,16.15-15.18,105.69,105.69,0,0,1,18.55-11.47,99.07,99.07,0,0,1,20.49-7.25,96.31,96.31,0,0,1,61.67,6.08,179.2,179.2,0,0,1,25.32-27.34,163.51,163.51,0,0,1,29.93-20.79,150.54,150.54,0,0,1,33.68-13.23,146.19,146.19,0,0,1,36.54-4.64c32.9,0,64.67,11,91.87,31.81a175.39,175.39,0,0,1,35,36,194.38,194.38,0,0,1,24.82,46A101.36,101.36,0,0,1,1819,891.08a92,92,0,0,1,56.4-5.11,94.18,94.18,0,0,1,19,6.52,100.15,100.15,0,0,1,17.25,10.34,108.12,108.12,0,0,1,15.14,13.7v539.33A128.45,128.45,0,0,1,1909.3,1470a118.92,118.92,0,0,1-19.53,10.6,111,111,0,0,1-85.58.79,122,122,0,0,1-35.81-22.62,144.91,144.91,0,0,1-13.53,44.42,136.07,136.07,0,0,1-11.46,19.12,127.86,127.86,0,0,1-14.12,16.53,118.6,118.6,0,0,1-16.45,13.55,111,111,0,0,1-18.43,10.17A103.84,103.84,0,0,1,1653,1571.18Z"/><path id="c4-2" class="cls-7" d="M1279.52,1186.79a96.31,96.31,0,0,1-89.56-61.14,85.12,85.12,0,0,1-16.16,5.06,86.1,86.1,0,0,1-34.59,0,85.34,85.34,0,0,1-30.59-12.87,85.91,85.91,0,0,1-31-37.64,85,85,0,0,1-5-16,86,86,0,0,1,.81-38,73.36,73.36,0,0,1-11.18.86,71.84,71.84,0,0,1-62.43-107.48c-1.6.1-2.93.14-4.17.14a66.16,66.16,0,0,1-25.93-5.23,66.83,66.83,0,0,1-29.31-24.14,66.24,66.24,0,0,1-11.37-37.24c0-.33,0-.67,0-1h0c0-.25,0-.51,0-.78h.21c-.19-1.81-.29-3.64-.3-5.47a52.09,52.09,0,0,1,8-27.82,52.7,52.7,0,0,1,20.84-18.95,68.76,68.76,0,0,1,5-33.93,68.67,68.67,0,0,1,105.65-27.36,66.69,66.69,0,0,1,24-25.8,65.66,65.66,0,0,1,16.45-7.3,66.45,66.45,0,0,1,65,16.43,67.87,67.87,0,0,1,8.12,9.63,67.07,67.07,0,0,1,6.19,11.07,66,66,0,0,1,5.59,25.4,74.7,74.7,0,0,1,99.11,26.22,51.63,51.63,0,0,1,7.06-13.63,51.9,51.9,0,0,1,39.48-21.49,70.67,70.67,0,0,1-2.59-18.85,69.81,69.81,0,0,1,5.5-27.23,70.49,70.49,0,0,1,25.35-30.78,70,70,0,0,1,75.34-1.86,70.42,70.42,0,0,1,25.23,26.4,72.82,72.82,0,0,1,125.44-67.67,97.51,97.51,0,0,1,2-19.35,96.1,96.1,0,0,1,26.24-48.52,96.46,96.46,0,0,1,30.54-20.56,95.54,95.54,0,0,1,18-5.59,96.85,96.85,0,0,1,48.58,2.57,96.51,96.51,0,0,1,60.34,56.62,85.25,85.25,0,0,1,16.15-5.06,86.15,86.15,0,0,1,34.6,0A85.34,85.34,0,0,1,1861,611.28a85.91,85.91,0,0,1,31,37.64,84.28,84.28,0,0,1,5,16.05,86,86,0,0,1-.81,38,74.63,74.63,0,0,1,11.17-.87,72.13,72.13,0,0,1,19.5,2.68V1004a68.3,68.3,0,0,1-13.66-5,69.13,69.13,0,0,1-12.14-7.62,66.91,66.91,0,0,1-24,25.8,66.58,66.58,0,0,1-60.49,4.8,66.75,66.75,0,0,1-21-13.94,66.14,66.14,0,0,1-8.12-9.63,66.05,66.05,0,0,1-11.79-36.46,74.65,74.65,0,0,1-72.48-.65,75.33,75.33,0,0,1-26.63-25.57,52,52,0,0,1-46.53,35.13,70.54,70.54,0,0,1,2.59,18.84,69.72,69.72,0,0,1-12,39.12,70.57,70.57,0,0,1-18.9,18.89,70,70,0,0,1-100.57-24.54,72.65,72.65,0,0,1-9.45,61.38A73,73,0,0,1,1472,1104.2a72.83,72.83,0,0,1-96.32-13.38,96.79,96.79,0,0,1-2,19.35,95.63,95.63,0,0,1-14.49,34.32,96.58,96.58,0,0,1-26,25.91,95.54,95.54,0,0,1-34.35,14.44A96.92,96.92,0,0,1,1279.52,1186.79Z"/><path id="c4-1" class="cls-6" d="M1209.41,512.09c58.46,19.52,66.84,71.53,78.51,122.6,39.16-63.86,98.38,2.82,81.88,55.95-1.8.63.67.3,1.34-1.52,14.71-40.32,123.3-2.33,125.58,44.14,3.27,66.56-86.4,73.13-129.66,49.06,46.43,93.86-156,83.74-138,11.2-23,92.92-268.2,98.87-263.75-7-1.38,32.7-166.66,64.31-155.48-16.6-130.95,42.61-70.44-132.62-7.39-62.37-30.82-53.25,41-70.68,72.69-33.52-57.35-67.15,101.46-137.78,143-58.75-25.49-51.38,45.3-72.63,60.27-21.69-9.46-51.83,46.79-81.36,90.39-85.8A96.28,96.28,0,0,1,1209.41,512.09Z"/><path id="c3-2" class="cls-6" d="M1017.28,909.64c0-.11,0-.22,0-.33a138.7,138.7,0,0,0-273.73-31.73,81.28,81.28,0,0,0-69.77-13.2,122.69,122.69,0,0,0-197.67,97.25c0,.89.12,1.75.13,2.65A81.83,81.83,0,0,0,582.1,1089a76.89,76.89,0,0,0,130.41,68,40.6,40.6,0,0,0,48.43-1.12,76.8,76.8,0,0,0,99.77,10.32,97.56,97.56,0,0,0,142.42-52.57c2.51.19,5,.39,7.54.39a102.3,102.3,0,0,0,6.6-204.39Z"/><path id="c3-2-2" class="cls-7" d="M745.6,996.16a76.59,76.59,0,0,1-76.37-70.69,54.7,54.7,0,0,1-25,6.08,54.42,54.42,0,0,1-31.92-10.33,54.7,54.7,0,0,1-8.25-7.33,82.32,82.32,0,0,1-26.14,17.62,81.59,81.59,0,0,1-15.43,4.79A83,83,0,0,1,545.94,938a81.46,81.46,0,0,1-44.1-12.9,83.05,83.05,0,0,1-11.9-9.23,38.61,38.61,0,0,1-37.82,30.73,37.94,37.94,0,0,1-15.39-3.23,38.72,38.72,0,0,1-12.45-8.72A74.33,74.33,0,0,1,302.34,973a77.76,77.76,0,0,1-22,12.16,77,77,0,0,1-70.2-9.76,77.76,77.76,0,0,1-27.84-36.18,55.22,55.22,0,0,1-19.54,19,54.54,54.54,0,0,1-60.1-3.84,55.86,55.86,0,0,1-8.38-7.81,41.93,41.93,0,0,1-23.47,7.13A41.4,41.4,0,0,1,51.73,949a43.34,43.34,0,0,1-8-5.32,44.43,44.43,0,0,1-6.56-6.94A44.38,44.38,0,0,1,5.79,968.17v-183a68,68,0,0,1,64.77,10.55A69,69,0,0,1,81.05,806a80.88,80.88,0,0,1,7.79-29.85,81.36,81.36,0,0,1,17.68-24.21,81.25,81.25,0,0,1,103.92-6.36,89.12,89.12,0,0,1,9.94-30.77,90.55,90.55,0,0,1,8.75-13.27,89.48,89.48,0,0,1,70.32-34h0a89.55,89.55,0,0,1,35.71,7.42A57.26,57.26,0,0,1,428,651.42a71.92,71.92,0,0,1,110.48-44.64,68.06,68.06,0,0,1,24.47-27.43A67.52,67.52,0,0,1,666.05,627c.41,0,.82-.08,1.22-.14h0a11.37,11.37,0,0,1,1.65-.15,40.27,40.27,0,0,1,38.62,53.32,62,62,0,0,1,45.71,1,62.39,62.39,0,0,1,33.13,33.13,61.86,61.86,0,0,1,4.89,24.23,63,63,0,0,1-1.69,14.22,48.08,48.08,0,0,1,58.07,58.9,69.69,69.69,0,0,1,78.15-.09,70.35,70.35,0,0,1,18.84,18.84,69.69,69.69,0,0,1-82.48,104.22,53.18,53.18,0,0,1-18.16,15,52.22,52.22,0,0,1-11.33,4.16,52.81,52.81,0,0,1-12.39,1.47,54.27,54.27,0,0,1-6.62-.46,77.22,77.22,0,0,1-27.7,30,76,76,0,0,1-40.37,11.48Z"/><path id="c3-1" class="cls-1" d="M1923.87,499.09h0c-9.63-.91-19.11-1.41-26.73-1.81-4.36-.23-8.13-.43-10.78-.65-5.91-.49-11.25-3.43-16.4-6.27a57.77,57.77,0,0,0-11.75-5.38,45.35,45.35,0,0,0-12.11-1.36,121.73,121.73,0,0,0-20.51,2,109,109,0,0,0-17,4.33,19.11,19.11,0,0,1-12,3.63c-6,0-12.75-1.81-19.91-3.73l-1.65-.44c-8.24-2.2-16.33-4.17-24.7-4.17a45,45,0,0,0-11.32,1.38,85.53,85.53,0,0,1-21.55,2.57c-13.36,0-27-2.51-40.11-4.95-9.14-1.68-18.59-3.43-27.74-4.28-7.63-.71-15.2-1.05-23.14-1.05-10.8,0-20.83.62-31.44,1.28-11.33.7-23,1.44-36.48,1.44-7.37,0-14.67-1.17-21.72-2.3s-13.51-2.17-20-2.17a46.84,46.84,0,0,0-9.88,1,36.73,36.73,0,0,0-9.62,3.49,42.62,42.62,0,0,1-11,3.93,57,57,0,0,1-12.08,1.2c-8.48,0-18.17-1.58-28.81-4.7a212.39,212.39,0,0,1-27.59-10.43,4,4,0,0,0-1.42-.19c-3.73,0-13.1,1.88-23,3.87h0c-11.38,2.28-23.15,4.64-28.53,4.64a373.76,373.76,0,0,1-51.13-3.43,183.06,183.06,0,0,1-26.3-5.58c-8.56-2.6-15.37-5.73-20.25-9.3-2.51-1.84-3.56-3.44-3.13-4.76.37-1.11,1.81-2.06,4.29-2.81a50.76,50.76,0,0,1,9.32-1.6c8-.79,18.27-.89,26.34-.89,3.31,0,6.54,0,9.67,0h.1l8,0c15,0,31.08,1.28,46.58,2.51s31.31,2.48,46.14,2.48c20.11,0,39.65-3,60.33-6.16,23-3.51,46.69-7.15,73.78-7.15,16.57,0,35.57-4.26,53.94-8.38,8.73-2,17.75-4,26.2-5.46a141.24,141.24,0,0,1,23.92-2.47,66,66,0,0,1,10.5.79c-.24-1.25-1.84-2.3-4.88-3.24a72.13,72.13,0,0,0-11.66-2.17c-9.56-1.18-21.9-1.87-35-2.6-22.31-1.25-45.37-2.55-53.11-6.44a94.29,94.29,0,0,0-19.48-7.43,67.34,67.34,0,0,0-16.42-2.05c-9,0-16.87,1.77-25.2,3.63l-.4.09c-7.78,1.74-16.59,3.72-26.49,3.72a80.19,80.19,0,0,1-21.29-2.95,187.35,187.35,0,0,0-34.43-5.62c-12.63-1-25.29-1.14-36-1.14-4.35,0-8.74,0-13,.05h0c-4.15,0-8.45.05-12.6.05-12.83,0-27.42.3-42.86.62h-.06c-17.17.36-34.92.73-52.27.73-13,0-24.09-.21-34-.63-11.57-.5-21.3-1.28-29.75-2.39a37.51,37.51,0,0,1-12.64-4.22,116.17,116.17,0,0,1-11.41-7.17,100.8,100.8,0,0,0-13.4-8.18,39.44,39.44,0,0,0-7.37-2.7,33.06,33.06,0,0,0-8.16-1c-24.8,0-50.17,3-74.71,6h0c-12.21,1.47-24.84,3-37.21,4.1-13.89,1.25-26,1.86-37,1.86a241.33,241.33,0,0,1-36.72-2.61c-6.2-1-12.32-2.2-18.17-3.69a175.06,175.06,0,0,1-18-5.64c-6.65-2.49-26.92-6.21-52.89-9.71-12-1.61-23.85-3-34.3-4-11.16-1.07-20.08-1.63-25.81-1.63-3.1,0-6.93-1.23-10.8-3.47a35,35,0,0,1-10.17-8.86,22.86,22.86,0,0,1-4-7.73,15.67,15.67,0,0,1,0-8.43,22.42,22.42,0,0,1,3.35-6.9,33.29,33.29,0,0,1,5.9-6.25c4.64-3.86,11-7.45,18.87-10.67A188.3,188.3,0,0,1,837,300.68c10.15-2.4,21.85-4.55,34.78-6.4,12.34-1.77,26.16-3.32,41.07-4.6,14.15-1.22,29.71-2.23,46.23-3,30.09-1.42,64.92-2.15,103.51-2.15,73.84,0,152,2.54,225.36,5.28,6.41.24,15.8,2.35,28.69,6.46,11.35,3.62,23.81,8.24,35.86,12.71,10.27,3.82,20,7.42,28.21,10.1,9.24,3,15.25,4.42,18.92,4.42,25.21,0,65.11-13.42,91.51-22.3,6-2,11.11-3.74,15.35-5.07a96,96,0,0,1,29.22-4.63c19.3,0,36.4,6,54.51,12.37,10.22,3.59,20.8,7.31,32.28,10.12a157.13,157.13,0,0,0,37.76,4.73,82.59,82.59,0,0,0,17.51-2.32c6.25-1.39,12.94-3.28,19.4-5.11h0c13.15-3.72,26.76-7.57,37.8-7.57a62.17,62.17,0,0,1,10.1.82,67.79,67.79,0,0,1,9.11,2.17,149.66,149.66,0,0,1,16.69,6.62c11.24,5,22.86,10.17,38.82,10.17a15.71,15.71,0,0,0,6-1.36,39.3,39.3,0,0,0,6.55-3.6,169.34,169.34,0,0,0,14.23-11.07c10.39-8.65,21.14-17.59,30.16-17.59l57.28-6.35Z"/><path id="c2-1" class="cls-5" d="M1888.16,322.57a40.92,40.92,0,0,0-21.42-36,41.68,41.68,0,0,0-69.21-46.23,33.48,33.48,0,0,0-5.61,1.17c0-.5.07-1,.07-1.47a48.07,48.07,0,0,0-79-36.79,76.63,76.63,0,0,0-128.7-19.49A50.61,50.61,0,0,0,1515.16,231c0,1,.1,1.89.15,2.84a29.7,29.7,0,0,0-3.77-.24,32.21,32.21,0,0,0-32.08,29.37,32.69,32.69,0,0,0-45.5-3.64,31.81,31.81,0,0,0-50.39,13.25,32.55,32.55,0,0,0-51.07,14.63,44.18,44.18,0,1,0,9.7,70.06,40.52,40.52,0,0,0,47.43,30.17,51.09,51.09,0,0,0,84.73,13.5,51.84,51.84,0,0,0,80.14,22.94,41.34,41.34,0,0,0,44.19,11.53,54.25,54.25,0,0,0,105-9,58.05,58.05,0,0,0,87.65-18.86c1.52.12,3,.23,4.6.23a59.75,59.75,0,0,0,57.8-44.74A40.91,40.91,0,0,0,1888.16,322.57Z"/><path id="c1-3" class="cls-1" d="M180,288.46c-30.36,0-63.36-1.27-95.28-2.49h0c-26.45-1-53.81-2.07-78.85-2.35V150.17h32.3A230.72,230.72,0,0,0,65,148.27a220.89,220.89,0,0,1,25.57-1.82c3.52,0,6.94.13,10.44.4s9,1.06,15.34,2h0c12.88,1.87,28.9,4.19,42,4.19a73.81,73.81,0,0,0,10.3-.64,27,27,0,0,0,7.82-2.19l11.83-.75c19.6-1.24,39.87-2.52,59.37-2.52a337.07,337.07,0,0,1,34.51,1.6c5.66.57,13.46,2.48,21.71,4.5,13.17,3.23,28.09,6.88,40.53,6.88a46.92,46.92,0,0,0,8.53-.7,26.78,26.78,0,0,0,7.25-2.36,63.2,63.2,0,0,1,14.25-5.25A61.07,61.07,0,0,1,388.37,150a73.29,73.29,0,0,1,12,1,103.53,103.53,0,0,1,11.81,2.7c7.83,2.24,15.66,5.25,23.24,8.17h0c7,2.71,14.31,5.51,21.47,7.64a87.43,87.43,0,0,0,21.63,3.92c18.95.73,35.95.82,50.08.82,5.74,0,11.61,0,16.78,0h.42c5.28,0,10.75,0,16.1,0,14.57,0,31.93.12,50.17,1,18.89.9,36.95,2.51,55.23,4.93,11.67.58,24.92.86,40.51.86,13.89,0,28.38-.22,42.39-.43h.18c14.1-.21,28.69-.43,43-.43,19.61,0,35.45.41,49.82,1.3a361.9,361.9,0,0,1,45.6,5.36c12.46,2.38,28.68,4.48,48.21,6.22,15.63,1.4,33.4,2.59,52.82,3.52,32.83,1.58,59.8,1.91,60.06,1.92a31.91,31.91,0,0,1-10.38,10.07A57.94,57.94,0,0,1,1024,215c-11,3-25.11,4.46-43.16,4.46-11.27,0-24.46-.57-40.33-1.76-14.19-1.06-29.27-2.5-43.85-3.9l-1.56-.15c-14-1.34-30-2.86-45.33-4-16.71-1.22-30.8-1.81-43.1-1.81a250.15,250.15,0,0,0-36.18,2.27c-9.76,1.43-20.72,2.66-31.7,3.54-12.78,1-24.9,1.55-36.06,1.55-16.55,0-30.17-1.15-40.48-3.42a125.76,125.76,0,0,0-27.41-3.11,116.9,116.9,0,0,0-15.08,1,137,137,0,0,0-13.95,2.58c-9,2.14-17.65,5-26,7.84h0a272.8,272.8,0,0,1-28.28,8.35c-23.3,0-45.18-1.71-66.34-3.36h0c-20.73-1.62-42.17-3.3-64.53-3.3-19.6,0-39.57,1.94-60.71,4-21.93,2.13-44.6,4.33-67.66,4.33-2.57,0-4.53,0-5.82.15s-1.86.24-1.86.43c0,.55,5.57,1.47,15.68,2.6s24.31,2.38,39.61,3.5c38.11,2.79,77,4.4,106.6,4.4,38.3,0,70.9,1.36,96.9,4,38.55,4,61.33,10.79,67.73,20.23a10.49,10.49,0,0,1,1.83,4.84,11.31,11.31,0,0,1-.86,5.42c-.88,2.2-2.84,4.12-5.83,5.68a43.49,43.49,0,0,1-11.62,3.69c-8.91,1.74-21.25,2.59-37.74,2.59-25.74,0-58.58-2.07-93.35-4.26h0l-8.33-.52c-40.18-2.52-79.28-4.79-115.84-4.79-31,0-55.84,1.66-75.91,5.06a360.59,360.59,0,0,1-38.93,4.15C211.35,288.08,196.76,288.46,180,288.46Z"/><path id="c1-2" class="cls-2" d="M1328.84,129.91A31.09,31.09,0,0,0,1312,102.27,72,72,0,0,0,1183.16,38a49,49,0,0,0-84.09,34.16h0a48.84,48.84,0,0,0,3.28,17.52,39.53,39.53,0,1,0-12.91,76.88h0a39.2,39.2,0,0,0,17.49-4.12c7.34,13.37,23,22.63,41.13,22.63A48.87,48.87,0,0,0,1181,172.88a61.93,61.93,0,0,0,118.2-11.95A31.07,31.07,0,0,0,1328.84,129.91Z"/><path id="c1-1" class="cls-5" d="M329.79,530.87a102.47,102.47,0,0,1-26.65-3.5,101.41,101.41,0,0,1-24-9.91,102.74,102.74,0,0,1-36.52-35.35,88.34,88.34,0,0,1-30.9,28.07,87.55,87.55,0,0,1-83.73-.11A88.08,88.08,0,0,1,97,481.74,47.6,47.6,0,0,1,81.17,494a46.26,46.26,0,0,1-9.7,3.37,47.4,47.4,0,0,1-10.55,1.19,47,47,0,0,1-30.23-11,47.39,47.39,0,0,1-10.33-12.15,46.7,46.7,0,0,1-5.76-15.18,39.27,39.27,0,0,1-8.82-1.93V289.72a88.74,88.74,0,0,1,44.09-16.53V273a1.55,1.55,0,0,1,0-.21,97.56,97.56,0,0,1,7.69-38.08,97.09,97.09,0,0,1,9-16.62A98.06,98.06,0,0,1,93,191.65a97.89,97.89,0,0,1,133.29,22.86A62.69,62.69,0,0,1,246.15,201a61.81,61.81,0,0,1,24.4-5,62.91,62.91,0,0,1,15.51,2,61.74,61.74,0,0,1,14.07,5.53,107.5,107.5,0,0,1,67.27-90.18,106.73,106.73,0,0,1,39.67-7.57,107.4,107.4,0,0,1,89,47.34,106.86,106.86,0,0,1,16.16,38.4,108.28,108.28,0,0,1-.58,45.91,106.53,106.53,0,0,1-7.85,22.33,85.71,85.71,0,0,1,15.58-1.46A87.26,87.26,0,0,1,605.55,332a74.77,74.77,0,0,1,18.68-8.47A74.42,74.42,0,0,1,687,333.22,74.65,74.65,0,0,1,609.56,460.7a49.25,49.25,0,0,1-45.77,5.92,83.06,83.06,0,0,1-94.52,42.29,83.29,83.29,0,0,1-48.16-34.2,102.71,102.71,0,0,1-37,40.57,101.71,101.71,0,0,1-54.29,15.59Z"/></g></g></g></svg>