<svg xmlns="http://www.w3.org/2000/svg" width="2716.668" height="2322.605" viewBox="0 0 2716.668 2322.605">
  <g id="cloud2" transform="translate(446.81 -6025.767)">
    <g id="c16-3" opacity="0.49">
      <path id="Path_5471" data-name="Path 5471" d="M1923.237,8132.793l-57.278,6.348c-17.505,0-41.444,33.616-56.905,33.616-31.331,0-45.63-19.775-74.715-19.775-21.941,0-53.3,15-74.714,15-64.034,0-96.243-40.668-153.774-22.588-23.264,7.309-76.034,27.366-106.859,27.366-17.447,0-85.078-32.689-111.685-33.683-211.495-7.9-490.076-15.139-506.45,43.145-4.025,14.328,14.486,28.493,24.949,28.493,24.173,0,98.466,9.894,113.007,15.334,71.787,26.859,147.56,0,221.858,0,21.448,0,33.253,20.721,52.982,23.3,42.844,5.615,112.722,1.664,158.944,1.664,31.721,0,66.212-1.458,96.028,6.658,45.115,12.288,60.924-19.312,109.275,5,16.567,8.328,102.73,4.724,104.621,14.449-30.444-5-78.058,15.518-114.557,15.518-51.607,0-91.8,13.315-134.107,13.315-29.734,0-62.7-4.993-92.718-4.993-24.522,0-70.394-1.569-54.634,9.988,20.8,15.255,70.76,18.313,97.683,18.313,10.975,0,49.31-9.977,52.98-8.325,24.557,11.068,57.177,21.788,79.471,9.991,18.985-10.048,39.586,0,61.261,0,34.4,0,57.544-4.772,91.06-1.666,29.339,2.722,59.783,14.3,89.405,6.659,27.013-6.966,53.577,15.364,69.541,3.329,11.372-4.157,36.758-8.662,49.669-4.993,9.635,2.738,17.908,10.8,28.145,11.652,7.18.6,22.259,1.011,37.517,2.466Z" fill="#f8e8d1" fill-rule="evenodd" opacity="0.49"/>
    </g>
    <g id="c16-2" opacity="0.49">
      <path id="Path_5473" data-name="Path 5473" d="M1944.233,7794.547h-52.415c-17.505,0-29.246,9.989-44.707,9.989-31.331,0-58.665-6.659-87.75-6.659-21.941,0-44.811,13.317-66.225,13.317-64.034,0-126.248-6.427-183.779,11.653-23.264,7.31-61.893-18.311-92.718-18.311-17.447,0-33.164,11.652-56.292,11.652-209.717,0-412.7,24.971-620.872,24.971,18.346,26.215,20.879,13.317,44.7,13.317,14.884,0,22.649,9.988,33.113,9.988,24.173,0,110.124-11.01,122.521-1.663,76.459,5.363,147.559,0,221.857,0,21.448,0,33.253,20.721,52.983,23.305,42.843,5.615,112.721,1.664,158.943,1.664,31.721,0,66.212-1.458,96.028,6.658,45.116,12.288,60.924-19.313,109.275,5,16.567,8.327,26.564,29.967-9.936,29.967-51.607,0-83.609,8.691-125.918,8.691-29.734,0-66.612,17.293-54.258,31.276,19.764,22.371,66.535,4.538,70.153,6.3,32.145,15.638,60.24,13.1,82.534,1.3,18.984-10.049,36.75,11.792,58.425,11.792,34.4,0,36.544-25.846,70.06-22.738,29.34,2.721,59.783,14.3,89.4,6.659,27.013-6.966,53.577,15.364,69.542,3.329,11.371-4.157,36.757-8.662,49.669-4.993,9.634,2.738,17.907,10.8,28.145,11.652,7.179.6,22.258,1.011,37.516,2.466Z" fill="#f8e8d1" fill-rule="evenodd" opacity="0.49"/>
    </g>
    <path id="c16-1" d="M2009.268,7727.9a46.891,46.891,0,0,0-26.394,8.1,32.44,32.44,0,0,0-39.163-39.717,41.891,41.891,0,0,0-55.327-48.955,27.23,27.23,0,0,0,1.461-8.451,27.506,27.506,0,0,0-27.5-27.506c-.67,0-1.292.156-1.943.2a45.53,45.53,0,0,0-86.05-13.652,48.505,48.505,0,0,0-74.506,30.1,38.639,38.639,0,0,0-62.589,15.86,60.538,60.538,0,0,0-84.11,47.629,54.879,54.879,0,0,0-87.256,40.75,45.857,45.857,0,0,0-80.437,20.768,27.49,27.49,0,0,0-7.766-1.24,27.791,27.791,0,0,0,0,55.582c.182,0,.359-.051.542-.051a29.8,29.8,0,0,0,58.1,13.144,28.3,28.3,0,0,0,38.473,6.571,36.877,36.877,0,0,0,59.363-4.959,52,52,0,0,0,80.964,22.779A50.143,50.143,0,0,0,1697.354,7819a26,26,0,0,0,44.282-12.665,55.336,55.336,0,0,0,76.963-1.31,36.755,36.755,0,0,0,43.947,7.806,51.656,51.656,0,0,0,97.4,19.715,36.219,36.219,0,0,0,4.47.308,35.593,35.593,0,0,0,28.242-13.93,47.031,47.031,0,1,0,16.61-91.025Z" fill="#5d7c7b"/>
    <g id="c15-2" opacity="0.49">
      <path id="Path_5469" data-name="Path 5469" d="M-.635,8003.155H37.45c23.089,0,38.755-5.172,62.924-3.329,14.683,1.118,60.324,10.859,75.509,3.329,36.074-2.2,71.515-5.145,105.715-1.665,18.728,1.9,59.055,17.978,78.024,8.324,42.6-21.675,79.352,15.162,118.3,16.647,68.839,2.626,117.368-2.787,188.773,6.66,70.242,3.483,157.491-5.57,221.493,6.658,54.617,10.434,161.088,11.653,161.088,11.653-29.287,46.846-191.873-1.21-279.386,11.653-29.452,4.327-79.236,8.056-108.231,1.665-48.321-10.651-75.519,8.881-110.746,16.647-46.281,0-85.858-6.659-130.882-6.659-40.29,0-83.463,8.323-128.366,8.323-38.26,0,74.82,11.072,154.21,11.072,61.036,0,177.965,3.513,165.6,34.534-12.592,31.588-236.346-11.591-348.624,7.45-67.336,11.42-176.822.987-263.484.435Z" fill="#f8e8d1" fill-rule="evenodd" opacity="0.49"/>
    </g>
    <path id="c15-1" d="M1260.946,7773.854a92.8,92.8,0,0,0-7.994-18.976c-9.4-28.719-29.075-48.552-51.9-48.552-11.323,0-21.856,4.942-30.776,13.363-15.774-26.268-38.659-42.8-64.127-42.8-25.361,0-48.158,16.382-63.923,42.432-14.219-25.9-35.791-42.432-59.947-42.432-21.641,0-41.2,13.273-55.257,34.647-12.206-21.183-30.239-34.647-50.4-34.647-10.044,0-19.536,3.432-28.082,9.383C844,7622.207,807.75,7572.287,763.7,7572.287c-43.606,0-79.545,48.916-84.674,112.034-6.578-4.716-13.914-7.433-21.694-7.433-26.874,0-48.767,31.516-50.2,71.155a30.137,30.137,0,0,0-11.231-2.274c-10.268,0-19.687,5.352-27.129,14.238-12.488-20.579-30.464-33.59-50.518-33.59-10.179,0-19.8,3.428-28.479,9.4-12.586-59.312-49.7-102.291-93.538-102.291-36.057,0-67.553,29.092-84.607,72.417-12.3-17.949-29.1-29.051-47.649-29.051-13.784,0-26.587,6.163-37.315,16.657-9.482-47.97-39.156-82.982-74.317-82.982-18.484,0-35.446,9.686-48.766,25.828-15.158-38.351-43.076-64.1-75.035-64.1-48.1,0-87.1,58.3-87.1,130.219,0,1.617.04,3.221.08,4.823-26.773,12.9-46.158,50.409-46.158,94.728,0,54.983,29.813,99.547,66.59,99.547,21.974,0,41.4-15.983,53.53-40.514,4.749,4.494,10.363,7.136,16.4,7.136a21.039,21.039,0,0,0,6.3-.972c5.387,39.271,28.632,68.8,56.49,68.8,23.984,0,44.537-21.9,53.231-53.05a20.091,20.091,0,0,0,11.9,4.134,18.8,18.8,0,0,0,6.532-1.221c5.23,6.03,11.488,10.112,18.326,11.6,5.532,19.1,18.245,32.481,33.057,32.481,9.338,0,17.821-5.351,24.219-14.073,7.843,12.154,18.826,19.748,31.016,19.748,20.149,0,37.018-20.689,41.745-48.618a19.5,19.5,0,0,0,11.159-4.663c17.832,27.44,42.762,44.511,70.374,44.511a70.343,70.343,0,0,0,36.131-10.308c4.61,7.847,11.354,12.83,18.892,12.83,10.379,0,19.287-9.4,23.132-22.808,11.866,14.894,27.154,23.9,43.862,23.9,17.437,0,33.3-9.854,45.363-25.939,4.76,5.409,10.678,8.66,17.118,8.66,6.952,0,13.312-3.762,18.245-9.965,6.848,27.506,24.523,47.139,45.311,47.139,15.211,0,28.767-10.5,37.639-26.925a35.152,35.152,0,0,0,17.217,4.7c16.451,0,30.981-12.044,39.979-30.5,9.371,23.576,26.521,39.426,46.2,39.426,12.893,0,24.716-6.795,33.984-18.11a88.031,88.031,0,0,0,108.705-6.893c5.685,29.186,23.676,50.511,45.027,50.511,15.741,0,29.639-11.617,38.15-29.4,7.607,11.817,18.274,19.207,30.112,19.207,14.072,0,26.493-10.427,34.065-26.352a61.528,61.528,0,0,0,30.785,8.491c19.857,0,38.135-10.068,52.708-26.943,9.625,10.822,24.919,17.857,42.195,17.857,25.093,0,46.05-14.78,51.4-34.577a26.759,26.759,0,0,0,6.414.853c21.8,0,39.483-26.432,39.483-59.028C1298.344,7801.178,1281.778,7775.488,1260.946,7773.854Z" fill="#5d7c7b"/>
    <g id="c14-4">
      <path id="Path_5481" data-name="Path 5481" d="M2165.148,7513.97a88.146,88.146,0,0,0-46.132-77.525,89.763,89.763,0,0,0-149.064-99.571,71.977,71.977,0,0,0-12.089,2.528c.03-1.067.158-2.1.158-3.172A103.512,103.512,0,0,0,1787.837,7257a165.016,165.016,0,0,0-277.174-41.976,108.984,108.984,0,0,0-148.837,101.614c0,2.067.2,4.08.318,6.116a70.584,70.584,0,0,0-8.131-.514,69.363,69.363,0,0,0-69.085,63.264,70.406,70.406,0,0,0-97.995-7.843,68.476,68.476,0,0,0-108.519,28.54,70.1,70.1,0,0,0-110,31.5,95.161,95.161,0,1,0,20.893,150.9,87.271,87.271,0,0,0,102.159,64.974,110.061,110.061,0,0,0,182.486,29.084,111.666,111.666,0,0,0,172.6,49.4,89.036,89.036,0,0,0,95.165,24.837,116.846,116.846,0,0,0,226.037-19.462,125.034,125.034,0,0,0,188.769-40.629c3.271.257,6.556.5,9.9.5a128.692,128.692,0,0,0,124.477-96.368A88.112,88.112,0,0,0,2165.148,7513.97Z" fill="#5d8585"/>
    </g>
    <path id="c14-3" d="M1816.325,7480.146c0-30.3-13.789-56.665-34.1-70.177a95.035,95.035,0,0,0,9.274-41.315c0-44.926-29.74-81.342-66.431-81.342-21.7,0-40.922,12.8-53.044,32.523a44.776,44.776,0,0,0-8.937,2.288c.022-.966.117-1.9.117-2.871,0-51.779-34.273-93.745-76.565-93.745-18.771,0-35.935,8.3-49.249,22.024-18.71-53.191-61.864-90.434-112.154-90.434-37.15,0-70.36,20.377-92.757,52.437a67.643,67.643,0,0,0-29.331-6.833c-44.571,0-80.7,44.241-80.7,98.816,0,1.872.146,3.694.235,5.537a42.819,42.819,0,0,0-6.011-.465c-26.806,0-48.779,25.177-51.073,57.27-9.559-13.337-23.545-21.8-39.169-21.8-12.654,0-24.25,5.516-33.277,14.7-8.831-9.155-20.243-14.7-32.723-14.7-21.81,0-40.34,16.885-47.5,40.535-8.881-8.7-20.136-13.947-32.4-13.947-22.615,0-41.806,17.742-48.918,42.46a60.227,60.227,0,0,0-34.039-10.772c-38.851,0-70.353,38.575-70.353,86.146s31.5,86.152,70.353,86.152c19.3,0,36.769-9.525,49.485-24.924,6.856,34.634,32.275,60.394,62.675,60.394a53.417,53.417,0,0,0,12.849-1.576c12.688,34.935,41.224,59.33,74.467,59.33,24.009,0,45.516-12.787,60.442-33,11.8,38.321,41.951,65.635,77.383,65.635,18.905,0,36.277-7.854,50.217-20.922,12.117,16.44,29.6,26.828,49.11,26.828a55.181,55.181,0,0,0,21.244-4.345c11.624,41.685,43.809,71.694,81.787,71.694,43.143,0,78.816-38.725,85.318-89.312,15.782,15.288,35.689,24.485,57.375,24.485,35.779,0,66.766-24.89,82.179-61.264,2.418.233,4.847.452,7.32.452,44.279,0,81.39-37.086,92.024-87.236C1792.529,7552.82,1816.325,7519.928,1816.325,7480.146Z" transform="translate(2400.21 14961.021) rotate(-180)" fill="#5d7c7b"/>
    <path id="c14-2" d="M742.357,7544.581a84.565,84.565,0,0,0-47.6,14.607,58.5,58.5,0,0,0-70.629-71.629,75.549,75.549,0,0,0-99.782-88.29,49.1,49.1,0,0,0,2.636-15.242,49.606,49.606,0,0,0-49.6-49.606c-1.21,0-2.332.281-3.505.354a82.112,82.112,0,0,0-155.191-24.622,87.476,87.476,0,0,0-134.369,54.288,69.684,69.684,0,0,0-112.879,28.6,109.181,109.181,0,0,0-151.692,85.9,98.64,98.64,0,0,0-58.486-19.205,99.121,99.121,0,0,0-98.878,92.7,82.606,82.606,0,0,0-63.781-30.048,82.74,82.74,0,0,0-81.286,67.5,49.635,49.635,0,0,0-14.006-2.236,50.12,50.12,0,0,0-50.115,50.116A50.121,50.121,0,0,0-396.7,7687.9c.328,0,.646-.092.977-.092a53.565,53.565,0,0,0-.977,9.716,53.909,53.909,0,0,0,53.906,53.915,53.747,53.747,0,0,0,51.847-39.927,51.1,51.1,0,0,0,40.837,20.531,51.016,51.016,0,0,0,28.547-8.679,66.5,66.5,0,0,0,50.257,22.958,66.544,66.544,0,0,0,56.8-31.9,93.956,93.956,0,0,0,88.007,61.222,93.486,93.486,0,0,0,58.01-20.142,90.431,90.431,0,0,0,148.3-46.616,46.9,46.9,0,0,0,79.863-22.841,99.794,99.794,0,0,0,138.8-2.362,66.293,66.293,0,0,0,79.259,14.078,93.162,93.162,0,0,0,175.66,35.556,65.57,65.57,0,0,0,8.062.554,64.191,64.191,0,0,0,50.933-25.121,84.82,84.82,0,1,0,29.957-164.163Z" fill="#5d858e"/>
    <path id="c14-1" d="M1022.128,7347.439c6.548-58.333-28.638-105.362-94.827-105.362-.43,0-.844.068-1.284.073-7.976-64.137-56.589-113.53-115.533-113.53-58.561,0-106.916,48.769-115.357,112.313a109.533,109.533,0,0,0-122.041-1.8c-1.387-45.348-34.249-81.646-74.706-81.646-.85,0-1.669.112-2.513.145.03-1.306.089-2.606.089-3.918,0-75.016-53.8-135.827-120.16-135.827-48.628,0-90.473,32.665-109.384,79.62-13.535-15.205-32.17-24.613-52.764-24.613-27.323,0-51.16,16.617-64.222,41.347-23.61-25.594-55.627-41.347-90.911-41.347-68.028,0-123.982,58.434-130.729,133.311A81.341,81.341,0,0,0-94.8,7202.9c-47.275,0-86.148,40.628-90.793,92.678-26.183,9.7-44.269,30.1-44.269,53.785,0,33.045,35.137,59.829,78.477,59.829,2.083,0,4.132-.111,6.166-.234,13.106,14.173,30.852,22.933,50.419,22.933a66.055,66.055,0,0,0,8.121-.536c12.572,28.431,38.5,48.006,68.54,48.006,17,0,32.659-6.334,45.37-16.925,19.345,15.769,43.03,25.161,68.7,25.161,43.169,0,80.793-26.344,101.289-65.5,14.355,20.987,36.781,34.557,62.064,34.557,19.642,0,37.555-8.213,51.318-21.695,8.422,21.053,27.125,35.728,48.89,35.728a48.941,48.941,0,0,0,28.146-9.078c19.519,16.26,43.569,25.992,69.677,25.992,32.554,0,62.019-14.939,83.329-39.083,22.293,29.222,55.258,47.754,92.073,47.754,33.409,0,63.663-15.245,85.634-39.908,15.062,21.667,38.395,35.628,64.651,35.628,26.173,0,49.438-13.866,64.5-35.4,13.032,18.85,33.276,31.009,56.072,31.009,18.783,0,35.818-8.287,48.544-21.729,10.642,9.23,23.921,14.77,38.375,14.77,34.9,0,35.293-43.534,63.189-71.429C1074.083,7388.811,1069.291,7347.439,1022.128,7347.439Z" fill="#4f686e"/>
    <path id="c13-3" d="M2238.3,7265.33c-.918-58.35-42.981-105.361-94.827-105.361-.429,0-.844.067-1.283.072-7.977-64.137-56.59-113.53-115.534-113.53-58.56,0-105.667,39.358-114.108,102.9-18.25-12.365-40.844-10.075-63.659-10.075a110.307,110.307,0,0,0-59.631,17.688c-1.387-45.348-34.249-81.646-74.706-81.646-.849,0-1.669.112-2.513.145.03-1.306.089-2.606.089-3.918,0-75.016-53.8-135.827-120.16-135.827-48.628,0-90.472,32.665-109.384,79.62-13.535-15.205-32.17-24.613-52.764-24.613-27.323,0-51.16,16.617-64.221,41.348-23.611-25.6-55.628-41.348-90.912-41.348-68.028,0-123.981,58.434-130.729,133.311a81.34,81.34,0,0,0-22.589-3.308c-47.275,0-86.148,40.627-90.793,92.677-26.182,9.7-44.269,30.1-44.269,53.785,0,33.045,35.137,59.83,78.478,59.83,2.082,0,4.132-.112,6.165-.235.729,33.062,27.01,41.1,58.54,22.4-1.992,25.868,38.5,48,68.541,48,17,0,32.658-6.333,45.369-16.925,19.346,15.769,43.03,25.161,68.7,25.161,43.169,0,80.794-26.343,101.289-65.5,14.355,20.987,36.781,34.557,62.064,34.557,19.642,0,37.556-8.213,51.318-21.695,8.422,21.054,27.125,35.728,48.89,35.728a48.945,48.945,0,0,0,28.146-9.078c19.519,16.26,43.569,25.992,69.677,25.992,32.555,0,62.02-14.938,83.329-39.083,22.293,29.223,55.258,47.754,92.073,47.754,33.409,0,63.663-15.245,85.635-39.908,15.061,21.667,38.394,35.628,64.651,35.628,26.172,0,49.437-13.866,64.5-35.4,13.032,18.849,33.275,31.008,56.071,31.008,18.783,0,35.818-8.287,48.544-21.729,10.643,9.23,23.921,14.77,38.375,14.77,34.9,0,63.189-31.979,63.189-71.429C2269.858,7300.7,2257.148,7277.69,2238.3,7265.33Z" fill="#4f686e"/>
    <path id="c13-2" d="M2039.779,7016.647c.015-.6.089-1.177.089-1.777a66.61,66.61,0,0,0-66.611-66.61c-1.4,0-2.793.056-4.174.139a71.867,71.867,0,0,0-62.434-107.483,72.662,72.662,0,0,0-11.175.867,85.571,85.571,0,0,0-116.505-99.467,96.153,96.153,0,0,0-185.7,34.843,72.82,72.82,0,0,0-125.441,67.671A69.965,69.965,0,0,0,1339,6897.14a52.028,52.028,0,0,0-46.539,35.13,74.733,74.733,0,0,0-99.11-26.218,66.48,66.48,0,0,0-125.392-29.436,68.695,68.695,0,0,0-111.046,54.1,69.568,69.568,0,0,0,.375,7.187,52.2,52.2,0,0,0-28.56,52.243h-.207c-.015.6-.089,1.177-.089,1.777a66.609,66.609,0,0,0,66.611,66.61c1.4,0,2.793-.056,4.174-.139a71.867,71.867,0,0,0,62.434,107.483,72.742,72.742,0,0,0,11.175-.867,85.572,85.572,0,0,0,116.505,99.467,96.153,96.153,0,0,0,185.7-34.843,72.821,72.821,0,0,0,125.441-67.671,69.965,69.965,0,0,0,128.826-52.31,52.029,52.029,0,0,0,46.539-35.13,74.733,74.733,0,0,0,99.11,26.218,66.48,66.48,0,0,0,125.391,29.436,68.7,68.7,0,0,0,111.047-54.1,69.3,69.3,0,0,0-.376-7.187,52.2,52.2,0,0,0,28.561-52.243Z" transform="translate(-2 14.495)" fill="#3f687b"/>
    <path id="c13-1" d="M1274.956,6556.923c70.76,23.625,80.908,86.578,95.033,148.385,47.4-77.292,119.076,3.411,99.108,67.728-2.18.761.8.368,1.615-1.838,17.814-48.808,149.248-2.826,152.01,53.426,3.951,80.556-104.574,88.515-156.944,59.383,56.194,113.6-188.8,101.35-167.062,13.548-27.842,112.475-324.629,119.674-319.236-8.427-1.665,39.59-201.72,77.841-188.192-20.091-158.5,51.582-85.253-160.523-8.936-75.483-37.306-64.463,49.559-85.555,87.977-40.574-69.417-81.282,122.807-166.767,173.111-71.117-30.851-62.18,54.833-87.907,72.951-26.247-11.45-62.737,56.627-98.477,109.4-103.855A116.511,116.511,0,0,1,1274.956,6556.923Z" transform="translate(-13 34.334)" fill="#2b6d89"/>
    <path id="c12-2" d="M1016.642,7034.584c0-.114.016-.22.016-.336a138.7,138.7,0,0,0-273.732-31.728,81.271,81.271,0,0,0-69.771-13.206,122.682,122.682,0,0,0-197.668,97.251c0,.9.115,1.755.131,2.657a81.824,81.824,0,0,0,105.847,124.747,76.882,76.882,0,0,0,130.407,67.983,40.62,40.62,0,0,0,48.436-1.115,76.81,76.81,0,0,0,99.769,10.319,97.551,97.551,0,0,0,142.416-52.571c2.509.189,4.995.385,7.546.385a102.3,102.3,0,0,0,6.6-204.386Z" transform="translate(0 20.679)" fill="#2b6d89"/>
    <path id="c12-1" d="M886.163,6952.846a69.526,69.526,0,0,0-39.139,12.01,48.1,48.1,0,0,0-58.073-58.894,62.118,62.118,0,0,0-82.041-72.593,40.37,40.37,0,0,0,2.167-12.532,40.788,40.788,0,0,0-40.783-40.787c-.994,0-1.917.232-2.881.291a67.514,67.514,0,0,0-127.6-20.244,71.924,71.924,0,0,0-110.48,44.636,57.295,57.295,0,0,0-92.81,23.518A89.769,89.769,0,0,0,209.8,6898.877a81.1,81.1,0,0,0-48.088-15.79c-43.25,0-82.532,8.968-85.3,51.511-12.48-15.08-44.048-8.958-65.144-8.958-33.289,0-44.241,32.885-50.134,64.458a40.786,40.786,0,0,0-11.516-1.839,41.21,41.21,0,0,0-41.205,41.206,41.211,41.211,0,0,0,41.205,41.214c.27,0,.531-.075.8-.075a44.015,44.015,0,0,0-.8,7.988,44.325,44.325,0,0,0,44.322,44.33A44.19,44.19,0,0,0,36.573,7090.1a41.961,41.961,0,0,0,57.049,9.744,54.683,54.683,0,0,0,88.027-7.353,77.108,77.108,0,0,0,120.057,33.777,74.354,74.354,0,0,0,121.936-38.329,38.561,38.561,0,0,0,65.664-18.779,82.052,82.052,0,0,0,114.123-1.943,54.508,54.508,0,0,0,65.167,11.575,76.6,76.6,0,0,0,144.429,29.235,53.93,53.93,0,0,0,6.629.455,52.779,52.779,0,0,0,41.878-20.654,69.74,69.74,0,1,0,24.631-134.977Z" fill="#3f687b"/>
    <g id="c11-3" opacity="0.49">
      <path id="Path_5472" data-name="Path 5472" d="M1923.237,6436.833l-57.278,6.348c-17.505,0-41.444,33.616-56.905,33.616-31.331,0-45.63-19.775-74.715-19.775-21.941,0-53.3,15-74.714,15-64.034,0-96.243-40.669-153.774-22.588-23.264,7.309-76.034,27.366-106.859,27.366-17.447,0-85.078-32.689-111.685-33.683-211.495-7.9-490.076-15.139-506.45,43.144-4.025,14.329,14.486,28.494,24.949,28.494,24.173,0,98.466,9.893,113.007,15.333,71.787,26.86,147.56,0,221.858,0,21.448,0,33.253,20.722,52.982,23.306,42.844,5.615,112.722,1.664,158.944,1.664,31.721,0,66.212-1.458,96.028,6.658,45.115,12.287,60.924-19.313,109.275,5,16.567,8.327,83.79.885,85.681,10.61-30.444-5-59.118,19.356-95.617,19.356-51.607,0-91.8,13.314-134.107,13.314-29.734,0-62.7-4.992-92.718-4.992-24.522,0-70.394-1.569-54.634,9.988,20.8,15.255,70.76,18.313,97.683,18.313,10.975,0,49.31-9.977,52.98-8.325,24.557,11.068,57.177,21.787,79.471,9.991,18.985-10.049,39.586,0,61.261,0,34.4,0,57.544-4.774,91.06-1.666,29.339,2.721,59.783,14.3,89.405,6.658,27.013-6.965,53.577,15.365,69.541,3.33,11.372-4.157,36.758-8.662,49.669-4.993,9.635,2.738,17.908,10.8,28.145,11.652,7.18.6,22.259,1.011,37.517,2.466Z" fill="#f8e8d1" fill-rule="evenodd" opacity="0.49"/>
    </g>
    <path id="c11-2" d="M1836.67,6462.217c0-15.543-5.66-29.065-18.42-36a41.678,41.678,0,0,0-69.212-46.232,33.41,33.41,0,0,0-5.613,1.174c.014-.5.074-.973.074-1.473a48.063,48.063,0,0,0-79.02-36.787,76.619,76.619,0,0,0-128.695-19.49,50.6,50.6,0,0,0-69.107,47.181c0,.959.091,1.894.148,2.84a32.774,32.774,0,0,0-3.776-.239,32.206,32.206,0,0,0-32.077,29.374,32.692,32.692,0,0,0-45.5-3.642,31.8,31.8,0,0,0-50.387,13.252,32.549,32.549,0,0,0-51.075,14.626,44.184,44.184,0,1,0,9.7,70.066,40.522,40.522,0,0,0,47.434,30.169,51.1,51.1,0,0,0,84.731,13.5,51.848,51.848,0,0,0,80.14,22.935,41.337,41.337,0,0,0,44.186,11.532,54.253,54.253,0,0,0,104.952-9.036,58.055,58.055,0,0,0,87.648-18.865c1.519.12,3.044.232,4.6.232a59.753,59.753,0,0,0,57.8-44.745C1824.725,6499.493,1836.67,6482.622,1836.67,6462.217Z" transform="translate(0 2)" fill="#2b7aa0"/>
    <path id="c11-1" d="M1329.785,6174.78c0-.043.006-.084.006-.128a53.04,53.04,0,0,0-104.679-12.133,31.08,31.08,0,0,0-26.682-5.051,46.915,46.915,0,0,0-75.591,37.19c0,.343.044.672.05,1.017a31.291,31.291,0,0,0,40.478,47.705,29.4,29.4,0,0,0,49.869,26,15.536,15.536,0,0,0,18.523-.427,29.374,29.374,0,0,0,38.153,3.946,37.305,37.305,0,0,0,54.462-20.1c.96.072,1.91.148,2.886.148a39.121,39.121,0,0,0,2.525-78.161Z" transform="translate(-39.219 58.61)" fill="#0f5f8e"/>
    <path id="c10-4" d="M928.431,6391.132v-.054a30.932,30.932,0,0,0-58.908-13.193,30.163,30.163,0,0,0-49.538,23.121q0,.8.043,1.587a24.821,24.821,0,1,0,20.234,45.231A15.211,15.211,0,0,0,858.2,6450.9a36.832,36.832,0,0,0,59.622-2.778,29.212,29.212,0,1,0,10.611-56.985Z" fill="#0f5f8e"/>
    <g id="c10-3" transform="translate(-10.634 -7.285)" opacity="0.49">
      <path id="Path_5470" data-name="Path 5470" d="M-.635,6269.691H37.836c23.323,0,39.148-5.438,63.561-3.5,14.832,1.176,60.935,11.417,76.274,3.5,36.439-2.315,72.239-5.409,106.786-1.75,18.918,2,59.653,18.9,78.814,8.75,43.032-22.788,80.156,15.939,119.5,17.5,69.536,2.762,118.557-2.93,190.685,7,70.953,3.662,159.086-5.854,223.736,7,55.17,10.968,162.72,12.25,162.72,12.25-29.584,49.248-193.816-1.272-282.216,12.25-29.75,4.549-80.039,8.47-109.327,1.75-48.81-11.2-76.284,9.336-111.868,17.5-46.75,0-86.728-7-132.208-7-40.7,0-84.308,8.751-129.666,8.751-38.648,0,75.578,11.639,155.772,11.639,61.654,0,179.767,3.694,167.276,36.306-12.72,33.208-238.74-12.186-352.155,7.833C197.5,6421.479,86.9,6410.51-.635,6409.93Z" fill="#f8e8d1" fill-rule="evenodd" opacity="0.49"/>
    </g>
    <path id="c10-2" d="M644.6,6414.645a74.172,74.172,0,0,0-39.686,11.5,86.812,86.812,0,0,0-101.709-72.28,107.388,107.388,0,1,0-203.7-56.24,62.22,62.22,0,0,0-73.864,11.055,97.826,97.826,0,0,0-176.415,58.255c0,.142.012.276.012.419a89.479,89.479,0,0,0-79.95,74.308,58.606,58.606,0,0,0-14.877-1.978,58.693,58.693,0,0,0-58.694,58.693,58.694,58.694,0,0,0,58.694,58.694A58.415,58.415,0,0,0-8.87,6544.13a39.406,39.406,0,0,0,22.834,10.322A47.157,47.157,0,0,0,96.4,6575.911a87.612,87.612,0,0,0,145.559.37,102.331,102.331,0,0,0,178.512-7.395,82.963,82.963,0,0,0,142.681-8.1,49.227,49.227,0,0,0,45.775-5.914A74.651,74.651,0,1,0,644.6,6414.645Z" fill="#2b7aa0"/>
    <path id="c10-1" d="M872.129,6029.156a33.717,33.717,0,0,0-18.295-29.974A78.1,78.1,0,0,0,714.1,5929.5a53.1,53.1,0,0,0-87.671,56.074,42.889,42.889,0,1,0,4.986,78.933c7.962,14.5,24.923,24.546,44.617,24.546a53.037,53.037,0,0,0,35.674-13.273,67.182,67.182,0,0,0,128.217-12.964A33.71,33.71,0,0,0,872.129,6029.156Z" transform="translate(75.602 137.527)" fill="#0f5f8e"/>
  </g>
</svg>
