<svg xmlns="http://www.w3.org/2000/svg" viewBox="0 0 596.68 180.98"><defs><style>.cls-1{fill:#fefefe;}.cls-2{fill:#fcfc65;}.cls-3{fill:#66ffaf;}.cls-4{fill:aqua;}.cls-5{fill:#fbfcfc;}.cls-6,.cls-8{isolation:isolate;}.cls-7,.cls-8{fill:#fff;}.cls-8{font-size:33.88px;font-family:GillSans, Gill Sans;letter-spacing:0.05em;}</style></defs><g id="圖層_2" data-name="圖層 2"><g id="圖層_1-2" data-name="圖層 1"><path class="cls-1" d="M544,62.35h3.64v8.91h30.48a1,1,0,0,1,1.06,1h0v34.33q-.9,0-1.8.12c-2.53.43-3.08-.88-3.07-3.1.07-8.27,0-16.54,0-24.82V76.08H547.79V92.62c6.31.11,10.57-3.52,14.54-7.83.44.52,1.29,1.49,1.29,1.49s1.24,2.26.15,3.15c-2.53,2.06-5.15,4-7.83,5.82-6,4-12.49,2.92-18.77,1.43-3.58-.84-6.48-3.47-9.2-6.11s-.56-4,.78-5.66c3.57,5.34,8.27,8.34,15.07,7.65V76h-27.3v30.51c-4,.31-4.45-.06-4.45-3.43V75.17c0-3,1-4,4.11-4H544Z"/><path class="cls-2" d="M189.8,27c.85-1.6,1.67-3.21,2.56-4.79.75-1.34,1.54-2.66,2.39-3.94,3.39-5.06,8.44-8,13.6-10.94,6.21-3.53,18.71-3.85,21.59-3.5,6.34.78,12.44,2.16,18.16,5.68,3.68,2.26,5.87,5.59,8.74,8.38,2,1.92,3,4.85,4.37,7.32,1,1.36,1,3,1,4.54a11.13,11.13,0,0,0,.56,3.19,3.64,3.64,0,0,1-.35,3.73,16.4,16.4,0,0,1-6.88,1.67c-4.78.07-9.58.22-14.3.68-7,.69-14,.66-20.94,1.06-7.68.44-15.38.07-23.06.18a48.45,48.45,0,0,1-6.91-.49c-.9-.11-1.81-.22-2.24-1.2-.78-2.45.2-4.75.66-7.09C188.91,29.9,188.26,28.19,189.8,27Z"/><path class="cls-3" d="M514.18,18.64c2.31-5.93,6.5-10.23,11.72-13.7,2.41-1.61,5.09-2.15,7.75-3.07C538.81.08,544,.74,549.25.68c4.57-.05,8.64,1.71,12.78,3.64,4.47,2.08,7.77,5.26,10.86,8.83a16.49,16.49,0,0,1,2,3.73c.78,1.63,1.47,3.28,2.2,4.92a7.34,7.34,0,0,1,1.53,4.62c-.28,2.25,1.06,4.53-.12,6.77a5.24,5.24,0,0,1-3.91,1.37c-15,.28-30,.68-45,.44a97.45,97.45,0,0,1-15.3-1.77,3.73,3.73,0,0,1-2.49-1.36,10.18,10.18,0,0,1,.3-7.85C512.72,22.19,512.65,20.1,514.18,18.64Z"/><path class="cls-2" d="M261.55,41.76a35.44,35.44,0,0,1-5.09,12.66c-2.71,4.26-6.65,7-10.78,9.39-2.78,1.62-6.06,2.41-9.18,3.37a36.33,36.33,0,0,1-14.4,1.34c-5.83-.62-11.8-1.29-16.86-4.53C200,60.64,189.5,53.88,188.18,43.33c.69-.78,4.6,1,5.48,1q14.55.59,29.1,0c7.83-.33,15.57-1.43,23.39-1.5,4.19-.05,8.23-1.33,12.41-1.52C259.62,41.22,260.67,40.93,261.55,41.76Z"/><path class="cls-3" d="M578,37.05c-1.41,3.66-2.39,7.58-4.38,10.9A21.16,21.16,0,0,1,567,55c-4,2.62-8.54,3.84-13,5.13-3.2.93-12.9.57-13.31.7-6.1,0-11.21-2.71-16.17-5.84-5.58-3.52-8.43-9.15-11.28-14.74a15.49,15.49,0,0,1-1.22-3.36c1.86-1.21,4.74.52,6.5,1,3.91,1,7.85.89,11.77,1.07a283.91,283.91,0,0,0,29.75-.53c5.48-.33,11-.73,16.44-1.47C577,36.8,577.54,36.62,578,37.05Z"/><path class="cls-3" d="M261.55,41.76c-2.94.43-5.87.89-8.83,1.27-1.76.23-3.53.39-5.29.47-4.22.19-8.45.21-12.66.5-4.58.3-9.14.83-13.71,1.25-.51,0-1,.06-1.56.06-7.75,0-15.49,0-23.24,0-1.69,0-3.39-.24-5.09-.37-.9-.36-1.81-.67-2.74-.94-2.59-.64-5.34-.86-7.75-1.89-3-1.3-5-3.55-4.82-7.39a6.69,6.69,0,0,1,4.74-6.26c2.86-1,6.1-1,9.17-1.49q-.21,2.24-.45,4.47a11,11,0,0,1-4.8,1.52c-.92.06-1.84.3-2.15,1.28-.37,1.14.57,1.73,1.31,2.32a4.85,4.85,0,0,0,2.68,1,2.78,2.78,0,0,1,2.07.62c.33.3.65.82,1,.85,2.51.23,5,.45,7.55.47,6.87.06,13.73.08,20.6,0,5.57-.06,11.23.24,16.71-.56,7.21-1.05,14.42-.75,21.62-1.26a48.41,48.41,0,0,0,6.54-1.36,2,2,0,0,1,1.72-1.47,4.77,4.77,0,0,0,1.85-.72c.83-.51,1.72-1,1.49-2.2s-1.21-1.1-2.08-1.27c-1.29-.24-2.68-.12-3.8-1l-.45-4.48c1.86,0,3.73,0,5.59,0,3.37.09,6.34,2.14,7.05,4.77s-1.2,6.66-3.82,7.8-5.34,2.18-8,3.31C261.8,41.14,261.7,41.5,261.55,41.76Z"/><path class="cls-1" d="M6.26,123.86H0V12.92H6.26Z"/><path class="cls-4" d="M596.68,122.39c-6.93.37-7.65.33-14.42,1.17-16.83,2.11-33.67.56-50.5.86-6.93.13-13.88-.86-20.81-1.5-3.71-.34-7.56-.5-11-1.68-3.07-1-7.05.23-9.13-3.32l1.63-5.13c2.2.48,4.47,1,6.75,1.46a48.51,48.51,0,0,0,5.87.84c4.07.27,8.23-.08,12.21.64,16.48,3,33.07.85,49.6,1.43a55.2,55.2,0,0,0,12.47-.59c7.34-1.44,8.55-1.43,15.94-1.44.42,0,.84.07,1.4.12Z"/><path class="cls-3" d="M339.16,33.08c8.72,0,12.45,2.8,15,6.89A14.76,14.76,0,0,1,355,54.59c-2.33,5.2-5.85,8.84-11.23,10.4-4.91,1.44-9.52.11-13.44-3-2.12-1.67-4.63-3.66-5.4-6a23.83,23.83,0,0,1-.59-10.24,13.38,13.38,0,0,1,8.22-10.51C335.45,34,337,33.08,339.16,33.08Z"/><path class="cls-2" d="M578,37.05a67.88,67.88,0,0,1-7.86,1.22q-20,.82-40,1.36a73,73,0,0,1-9.35-.45c-2.65-.27-5.27-.88-7.89-1.33a38.89,38.89,0,0,0-3.68-2.16c-3.17-1.39-5-3.74-6.59-6.85s.63-8.18,3.73-8.88c2.57-.59,5.21-.89,7.81-1.32q-.69,2.66-1.41,5.31c-.72.71-1.66.53-2.53.65-1.12.14-2.35.23-2.56,1.67s0,2.66,1.46,3.42a16.64,16.64,0,0,1,2.8,1.83,21.74,21.74,0,0,0,3.61,1.11,121.9,121.9,0,0,0,13.68,1.57c9.88.24,19.77.12,29.65,0,5.59,0,11.18-.24,16.77-.47a10.53,10.53,0,0,0,2.79-.93c1.45-.76,3.19-.74,4.55-1.78.67-.5,1.44-.86,1.36-1.85s-1-1.18-1.64-1.63c-1.43-.95-3.27-.39-4.65-1.4l-1-4.42c4.11-.39,7.75,1.07,11.13,3.11,2.35,1.44,2.41,4.65.36,7.56C586,36.13,582.05,36.71,578,37.05Z"/><path class="cls-1" d="M384.36,48.77H427.6v5.28L414.2,55.4v63.23h-7.27v-63H383.84C382.79,53.2,383.28,51,384.36,48.77Z"/><path class="cls-4" d="M384.36,48.77c-.17,2.26-.35,4.52-.52,6.79-.86,3.81-1.74,7.62-2.57,11.44-.23,1.1-.19,2.24-.44,3.33-1.09,4.66-1.93,9.41-3.45,13.93-2.08,6.16-4.76,12.14-9.17,17-2.68,3-5.55,5.82-8.38,8.66a1.5,1.5,0,0,1-1.37.3c-1.74-1.09-3.4-2.3-5.21-3.56,2.42-2.63,4.76-5,6.95-7.59,3.36-3.92,6.34-8.09,8-13.13,1.26-3.94,3.13-7.7,4.33-11.66.93-3,1.22-6.27,1.89-9.4,2.55-11.87,1.23-23.91,1.52-35.87.05-2,0-3.75,2.22-4.82a53,53,0,0,0,5.67-3.6c1,2.47,1.8,4.95.57,7.59Z"/><path class="cls-5" d="M344.63,5.28c.72,1,1.93,2,1.9,3a5.72,5.72,0,0,1-1.82,3.22c-1.63,1.7-3.47,3.19-5.22,4.77L325,29.42c-2,1.8-3.26,3.72-3.11,6.74.31,6.17.29,12.37,0,18.54a140.2,140.2,0,0,1-2,18.51,56.24,56.24,0,0,1-3.13,11c-2.25,5.67-4.34,11.45-8,16.47-1.76,2.4-2.86,5.27-4.42,7.83-1.29,2.1-4.1,5.87-4.1,5.87l-4.09-4.25a1.15,1.15,0,0,1-.16-1.42c1.71-2.74,7.5-12,9.19-15.06a98.56,98.56,0,0,0,5.52-11.08,58.1,58.1,0,0,0,2.35-9.12c.94-4,2-8,2.63-12a39.37,39.37,0,0,0,.48-6.13c.09-6.55.16-13.11,0-19.66a8.53,8.53,0,0,1,2.59-6.81,225.49,225.49,0,0,1,18.4-17.25Z"/><path class="cls-5" d="M99.54,88.87l-2.29,5.18c-1.47,3.31-2.85,6.69-5.65,9.18a3.75,3.75,0,0,1-1.62.6c-.49-1-2-1.74-1-3.25a39.86,39.86,0,0,0,3.81-6.65,99,99,0,0,0,3.35-12.57c1.17-5.09,1-12,1.39-17,.12-1.7,34.27-1.25,34.19-.67-.35,2.83,0,5.09-.31,7.69,0,.35-.09.92-.11,1.27-.14,3.3-.21,6.6-.44,9.88q-.58,8.13-1.35,16.26a48.92,48.92,0,0,1-.88,5c-.2,1-.65,1.69-1.9,1.53a36.19,36.19,0,0,0-3.72,0c.39-2.25.78-4.35,1.17-6.46a3.43,3.43,0,0,0,.07-.56c.15-3.09.31-6.18.46-9.27a1.43,1.43,0,0,1,.9-.55c.79-.22,1.66-.37,1.79-1.36s-.84-1-1.44-1.34a2.05,2.05,0,0,1-1-1.85,21.93,21.93,0,0,1,.24-4.58c.88-1.54,1.57-1,0-2.6.15-3,.6-4.31,0-7.8-2.46-.67-17.52-.37-19.65-.07-2.71.4-2.7.27-2.74,3a19.44,19.44,0,0,1-.21,4.7c-1.68,1.33-2.14.28-.87,2.16a17.76,17.76,0,0,1-.61,6.12C98.84,85.48,99.8,87.41,99.54,88.87Z"/><path class="cls-2" d="M472.74,27.65c3.4-.09,5.9,1.81,8.06,3.66,1.22,1.05,1.73,3.3,1.94,5.09.43,3.87-.09,7.71-3.48,10.23a11.94,11.94,0,0,1-10.33,2.29A10.12,10.12,0,0,1,462,41.57a18.69,18.69,0,0,1-.74-3C461.23,34.36,462.84,28.32,472.74,27.65Z"/><path class="cls-5" d="M48.05,97.42v-5c2.35-.5,2.86.39,5.78-1.09,1.6-.79,7.28-7.28,1.45-10.18a13.56,13.56,0,0,0-11.65,1.45c-2,1.15-2.82,2.35-3.08.17-.09-.72-1.15-3.66.17-4.53a23,23,0,0,1,12.41-3.87A9.86,9.86,0,0,1,62.22,79a8.91,8.91,0,0,1,1.06,3.56A16.37,16.37,0,0,1,60.57,93c3.87,1.61,5.27,6.5,4.66,10.41a16.91,16.91,0,0,1-4.1,9.14,8.53,8.53,0,0,1-4.81,2.55c-5.7,1.49-7.77,1.49-13,.32-2-.23-3.75-2.46-5.54-3.86-.15-.12.09-1,.35-1.3a26.18,26.18,0,0,1,1.82-2c1.69,1.25,3.19,3.07,5.06,3.59a13.33,13.33,0,0,0,13.15-4.24c2-2.52,2.43-6.85.57-8.36a9.86,9.86,0,0,0-4.57-1.79A41.45,41.45,0,0,0,48.05,97.42Z"/><path class="cls-5" d="M467.45,87.1V81.83c2.46-.52,3,.39,6.11-1.15,1.69-.85,7.7-7.7,1.54-10.78a14.25,14.25,0,0,0-12.32,1.54c-2.07,1.21-3,2.48-3.26.18-.1-.77-1.22-3.88.18-4.8a24.31,24.31,0,0,1,13.11-4.07,10.43,10.43,0,0,1,9.62,4.88,9.53,9.53,0,0,1,1.12,3.76,17.21,17.21,0,0,1-2.87,11c4.1,1.7,5.58,6.87,4.94,11a17.94,17.94,0,0,1-4.34,9.66,9,9,0,0,1-5.09,2.7c-6,1.56-8.22,1.56-13.7.34-2.09-.24-4-2.6-5.88-4.09-.15-.12.1-1,.38-1.37a27,27,0,0,1,1.91-2.09c1.8,1.32,3.39,3.24,5.36,3.79a14.08,14.08,0,0,0,13.9-4.49c2.14-2.66,2.57-7.23.61-8.83a10.41,10.41,0,0,0-4.84-1.9A43.23,43.23,0,0,0,467.45,87.1Z"/><path class="cls-5" d="M97.43,0c-.89,4-1.7,7.61-2.57,11.51h45.71v4.57c-.67,0,.12.12-.62.12-7.67,0-15.33-.06-23,0s-15.14.42-22.7.41c-2.62,0-2.49,2.25-3.2,3.46-3.38,5.7-7.93,10.4-12.36,15.22a15.81,15.81,0,0,1-4.38,3.06,3.86,3.86,0,0,1-2.53,0c-.23-1.3-.63-3.53-.08-3.84,3.88-2.13,6.81-5.31,9.74-8.43a46.19,46.19,0,0,0,4.41-6.31c.57-.84,1-1.77,1.71-3H74.38V11.54c4.21,0,8.37-.07,12.53,0,2.19,0,3.38-.58,3.63-3a51.4,51.4,0,0,1,1.53-7.31A2,2,0,0,1,93.42.08,32.3,32.3,0,0,1,97.43,0Z"/><path class="cls-1" d="M68.29,123c.46-1.74.94-3.61,1.59-6.08,1.63.37,3.42.81,5.22,1.17a10.26,10.26,0,0,0,2.07.15c3.84,0,7.68,0,11.51,0,13.06.15,26.12.39,39.18.48,4.5,0,9-.21,13.5-.54a32.61,32.61,0,0,0,5.41-1.38v6.77c-4.7.31-9.39.72-14.09.91-6.94.26-13.9.53-20.84.51q-17.1,0-34.21-.53C74.68,124.41,71.75,123.6,68.29,123Z"/><path class="cls-5" d="M105,51.05H95.24v-5h14c.06-4.66.67-8.73.3-12.91l-9.35-.43L96.61,32,97,28.93s2.24-.66,2.35-.66h32.1c.62,2.94-.17,3.88-3.45,4-4.27.12-8.53.39-13,.58V46.2h18v4.5C129,50.82,108.94,52,105,51.05Z"/><path class="cls-4" d="M10.33,18.24C9.81,11.21,16.09,7,23.52,6.76c5.48-.16,11.48,5.66,11,11-.57,6.15-5.29,13-10.51,12.74C15.84,30,10.43,26.17,10.33,18.24Z"/><path class="cls-4" d="M23.71,33.46c5.61.13,9.45,3.88,10.81,8.77,1.67,6-2.06,13.26-6.05,14.83-5.63,2.22-12,.88-15.39-5-1.13-2-2.64-4.27-2.52-6.34a12,12,0,0,1,3-7.19C16.05,35.93,18.59,33.34,23.71,33.46Z"/><path class="cls-2" d="M62.4,56.9c-.14,5.55-4,9.44-8.65,9.55-4.88.11-8-4.82-8.34-8.7s3.13-7.87,9.42-8.32A7.71,7.71,0,0,1,62.4,56.9Z"/><path class="cls-5" d="M384.36,28.24l-.57-7.59c3.87-2.74,7.66-5.58,11.61-8.19,2.81-1.85,5.84-3.38,8.77-5.05,1.9-1.08,5.74-3.16,5.74-3.16l4.16,3.38a13.75,13.75,0,0,1-2.15,2.45c-2.9,2-5.88,3.91-8.87,5.76-1.56,1-3.37,1.68-4.87,2.77-3.33,2.39-6.5,5-9.79,7.41A36.56,36.56,0,0,1,384.36,28.24Z"/><path class="cls-3" d="M126.06,84a1.45,1.45,0,0,1,1.07.7c.72,1.21,1.21,3.78-2.45,4.26-6.51.13-13,.3-19.52.35a40.26,40.26,0,0,1-4.65-.36,1.55,1.55,0,0,1-1.29-1l-.43-1.3a1.5,1.5,0,0,1,.9-1.92l.24-.07a24.43,24.43,0,0,1,4-.39c5.64,0,11.28-.06,16.92,0C122.19,84.32,124.5,83.78,126.06,84Z"/><path class="cls-5" d="M200,74.41h3.32a28.37,28.37,0,0,1-3.05,13.89A36.24,36.24,0,0,1,197,94.76,18.54,18.54,0,0,1,192,99c-.56.36-2.35-1.14-3.31-1.38A13.72,13.72,0,0,0,190,96.27c3-3.92,5.66-8,7.09-12.76C198,80.48,199,77.48,200,74.41Z"/><path class="cls-1" d="M227.5,87.94V82.72c4.51,0,19.5-.78,22.48-.08.23,1.48.46,3,.78,5.12Z"/><path class="cls-1" d="M224.23,82.72l-1,5.22H205.06V83.31a30,30,0,0,1,4-.57C214.12,82.67,219.18,82.71,224.23,82.72Z"/><path class="cls-1" d="M229.07,100.46l-1-4.7h19c.65,4.18.19,4.94.19,4.94S233.77,100.46,229.07,100.46Z"/><path class="cls-5" d="M221.63,95.78l-.54,4.69H208.31l.43-3.66c1.42,0,2.81.1,4.18,0C215.82,96.51,218.73,96.12,221.63,95.78Z"/><path class="cls-3" d="M125.56,79.72l-19.79,0c-1.5,0-3,0-4.51,0-.36-.48-.75-.95-1.07-1.45-.76-1.24,0-2.22,2-2.6h23.43a2,2,0,0,1,1,3A9.29,9.29,0,0,1,125.56,79.72Z"/><path class="cls-4" d="M230,97.49s2.9,9.69,6.37,13.51c3.94,4.35,9.14,6.13,14.85,6.88,2.74.36,5.43,1.24,8.36,1.93v4h-70c-.67-3.87-.3-4.47,3.18-4.57,6.49-.19,12.49-2.23,18.21-5a14.05,14.05,0,0,0,6.6-7.4c1.29-3.06,3.42-9.36,3.42-9.36l2-10.43,1-5s0-4.75,0-7.13c0-4.07,0-4.09,4.52-3.55V87.08l.5,6Z"/><g class="cls-6"><path class="cls-7" d="M143.62,150.05h3.09v23.11h-3.33v-18l-7.1,8.94h-.61l-7.19-8.94v18h-3.31V150.05h3.13l7.68,9.49Z"/><path class="cls-7" d="M158.47,150.05h13.1V153h-9.79v7h9.46v3h-9.46v7.18h10.11v2.95H158.47Z"/><path class="cls-7" d="M182.19,150.05h13.1V153H185.5v7H195v3H185.5v7.18h10.1v2.95H182.19Z"/><path class="cls-7" d="M203.94,150h19.3v3h-8.05v20.2h-3.33V153h-7.92Z"/></g><text class="cls-8" transform="translate(230.6 173.16)"> </text><g class="cls-6"><path class="cls-7" d="M258.16,150.05h4l-8.54,10.88v12.23h-3.39V160.93l-8.54-10.88h4l6.19,8Z"/></g><path class="cls-7" d="M280.13,149.71a12.45,12.45,0,0,1,8.92,3.4,11.25,11.25,0,0,1,3.56,8.5,11.05,11.05,0,0,1-3.6,8.46,12.74,12.74,0,0,1-9.06,3.35,12,12,0,0,1-8.71-3.35,11.16,11.16,0,0,1-3.48-8.39,11.43,11.43,0,0,1,3.5-8.57A12.26,12.26,0,0,1,280.13,149.71Zm.13,3.15a8.93,8.93,0,0,0-6.52,2.48,8.47,8.47,0,0,0-2.56,6.34,8.31,8.31,0,0,0,2.57,6.22,9.51,9.51,0,0,0,12.86-.05,8.45,8.45,0,0,0,2.59-6.31,8.26,8.26,0,0,0-2.59-6.18A8.77,8.77,0,0,0,280.26,152.86Z"/><path class="cls-7" d="M319.54,150.05h3.32v13.11a16.18,16.18,0,0,1-.38,4,8.74,8.74,0,0,1-1,2.25,7.19,7.19,0,0,1-1.4,1.62,12.23,12.23,0,0,1-14.43,0,7.24,7.24,0,0,1-1.4-1.63,8.47,8.47,0,0,1-.94-2.2,16.36,16.36,0,0,1-.37-4.11V150.05h3.32v13.11a9.68,9.68,0,0,0,.75,4.54,5.25,5.25,0,0,0,2.26,2,7.94,7.94,0,0,0,3.59.77,7.22,7.22,0,0,0,4.8-1.54,4.8,4.8,0,0,0,1.41-1.95,12,12,0,0,0,.43-3.86Z"/><path class="cls-7" d="M334.32,173.16V150.05h5.79a8.34,8.34,0,0,1,5.57,1.73,5.85,5.85,0,0,1,2.06,4.7,5.79,5.79,0,0,1-3.9,5.69,10.13,10.13,0,0,1,2.16,2,39.89,39.89,0,0,1,3,4.38c.81,1.31,1.45,2.3,1.94,3l1.22,1.66H348.2l-1-1.52-.2-.29-.65-.91-1-1.68L344.22,167a18.24,18.24,0,0,0-1.88-2.27,7,7,0,0,0-1.54-1.21,5.12,5.12,0,0,0-2.31-.37h-.86v10.06Zm4.3-20.3h-1v7.29h1.26a9.24,9.24,0,0,0,3.45-.43,3.23,3.23,0,0,0,1.46-1.3,3.79,3.79,0,0,0,.52-2,3.59,3.59,0,0,0-.58-2,3.1,3.1,0,0,0-1.63-1.25A11.89,11.89,0,0,0,338.62,152.86Z"/><path class="cls-7" d="M383.38,163.47,380.87,162a11.44,11.44,0,0,1-3.37-2.85,5.35,5.35,0,0,1-1-3.21,5.71,5.71,0,0,1,1.89-4.44,7.14,7.14,0,0,1,4.93-1.7,9.33,9.33,0,0,1,5.31,1.62v3.76a7.67,7.67,0,0,0-5.38-2.4,4.43,4.43,0,0,0-2.66.75,2.25,2.25,0,0,0-1,1.91,3,3,0,0,0,.77,2,9.7,9.7,0,0,0,2.47,1.9l2.53,1.5c2.82,1.68,4.23,3.83,4.23,6.43a5.91,5.91,0,0,1-1.86,4.52,6.87,6.87,0,0,1-4.84,1.73,10.16,10.16,0,0,1-6.24-2.1v-4.2c1.79,2.26,3.85,3.39,6.2,3.39a3.93,3.93,0,0,0,2.59-.86,2.72,2.72,0,0,0,1-2.17C386.43,166.07,385.41,164.74,383.38,163.47Z"/><g class="cls-6"><path class="cls-7" d="M398,150h19.31v3h-8.06v20.2h-3.32V153H398Z"/></g><g class="cls-6"><path class="cls-7" d="M431.18,149.91h2.33l10.36,23.25h-3.39l-3.08-6.85h-9.86l-2.88,6.85h-3.41ZM436,163.36,432.32,155l-3.46,8.37Z"/><path class="cls-7" d="M453.28,173.16V150.05h5.79a8.36,8.36,0,0,1,5.57,1.73,5.85,5.85,0,0,1,2.06,4.7,5.78,5.78,0,0,1-3.91,5.69,10.41,10.41,0,0,1,2.17,2,39.89,39.89,0,0,1,3,4.38c.8,1.31,1.45,2.3,1.93,3l1.23,1.66h-3.94l-1-1.52a3.22,3.22,0,0,0-.2-.29l-.64-.91-1-1.68L463.18,167a18.24,18.24,0,0,0-1.88-2.27,7.22,7.22,0,0,0-1.54-1.21,5.18,5.18,0,0,0-2.31-.37h-.86v10.06Zm4.3-20.3h-1v7.29h1.26a9.22,9.22,0,0,0,3.44-.43,3.18,3.18,0,0,0,1.46-1.3,3.69,3.69,0,0,0,.52-2,3.51,3.51,0,0,0-.58-2,3.06,3.06,0,0,0-1.63-1.25A11.86,11.86,0,0,0,457.58,152.86Z"/></g><rect class="cls-7" x="487.48" y="162.88" width="97.03" height="0.39"/><rect class="cls-7" x="8.5" y="162.88" width="97.03" height="0.39"/></g></g></svg>