<?xml version="1.0" encoding="utf-8"?>
<!-- Generator: Adobe Illustrator 25.2.1, SVG Export Plug-In . SVG Version: 6.00 Build 0)  -->
<svg version="1.1" id="圖層_1" xmlns="http://www.w3.org/2000/svg" xmlns:xlink="http://www.w3.org/1999/xlink" x="0px" y="0px"
	 viewBox="0 0 132.1 162.5" style="enable-background:new 0 0 132.1 162.5;" xml:space="preserve">
<style type="text/css">
	.st0{fill:#FFFFFF;}
	.st1{fill:#1A1A1A;stroke:#707070;}
	.st2{fill:#FFFFFF;stroke:#707070;}
</style>
<g id="Group_5818" transform="translate(-1760.184 -817.392)">
	<g id="Group_2943" transform="translate(-2.597 5400)">
		<path id="Path_3627" class="st0" d="M1831.8-4474.2h-3c0-13.2-10.8-24-24-24c-13.2,0-24,10.8-24,24h-3c-8.3,0-15,6.7-15,15
			c0,8.3,6.7,15,15,15h54c8.3,0,15-6.7,15-15C1846.8-4467.4,1840.1-4474.1,1831.8-4474.2z M1804.8-4492.2c9.9,0,18,8.1,18,18h-36
			C1786.8-4484.1,1794.8-4492.1,1804.8-4492.2z M1831.8-4450.2h-54c-5,0-9-4-9-9c0-5,4-9,9-9h54c5,0,9,4,9,9
			C1840.8-4454.2,1836.7-4450.2,1831.8-4450.2z"/>
		<path id="Path_3628" class="st0" d="M1810.8-4459.2c0,3.3-2.7,6-6,6s-6-2.7-6-6s2.7-6,6-6S1810.8-4462.5,1810.8-4459.2z"/>
		<path id="Path_3629" class="st0" d="M1792.8-4459.2c0,3.3-2.7,6-6,6s-6-2.7-6-6s2.7-6,6-6S1792.8-4462.5,1792.8-4459.2z"/>
		<path id="Path_3630" class="st0" d="M1828.8-4459.2c0,3.3-2.7,6-6,6s-6-2.7-6-6s2.7-6,6-6S1828.8-4462.5,1828.8-4459.2z"/>
		<path id="Path_3631" class="st0" d="M1807.8-4435.2v12c0,1.7-1.3,3-3,3s-3-1.3-3-3v-12c0-1.7,1.3-3,3-3
			S1807.8-4436.8,1807.8-4435.2z"/>
		<path id="Path_3632" class="st0" d="M1783.7-4434.4l-3,12c-0.4,1.6-2,2.6-3.6,2.2c0,0,0,0,0,0c-1.6-0.4-2.6-2-2.2-3.6c0,0,0,0,0,0
			l3-12c0.4-1.6,2-2.6,3.6-2.2c0,0,0,0,0,0C1783.1-4437.7,1784.1-4436,1783.7-4434.4z"/>
		<path id="Path_3633" class="st0" d="M1834.7-4423.9c0.4,1.6-0.6,3.2-2.2,3.6c0,0,0,0,0,0c-1.6,0.4-3.2-0.6-3.6-2.2c0,0,0,0,0,0
			l-3-12c-0.4-1.6,0.6-3.2,2.2-3.6c0,0,0,0,0,0c1.6-0.4,3.2,0.6,3.6,2.2L1834.7-4423.9z"/>
		<path id="Path_3634" class="st0" d="M1807.8-4486.2c0,1.7-1.3,3-3,3c-2.2,0-4.3,0.8-5.9,2.2c-1.2,1.1-3.1,1-4.2-0.3c0,0,0,0,0,0
			c-1.1-1.2-1-3.1,0.3-4.2c0,0,0,0,0,0c2.7-2.4,6.3-3.8,9.9-3.8C1806.4-4489.2,1807.8-4487.8,1807.8-4486.2z"/>
	</g>
	<g id="Group_5814" transform="translate(1547.839 788.159)">
		<path id="Path_7123" class="st1" d="M339.7,65.1c-4.9-11.4-17-17.9-29.2-15.5c-0.4-0.7-0.8-1.4-1.2-2.1
			C302.6,32.5,285,25.6,270,32.2c-9.7,4.3-16.4,13.3-17.6,23.8c-0.5,0-1-0.1-1.6-0.1c-12.7,0-22.9,10.2-22.9,22.9
			c0,9.3,5.6,17.7,14.2,21.2c3.6,2.5,7.9,3.9,12.3,3.9H291l-2.4,14.5l5.7-0.4l14.6-14H319c13.8,0,24.9-11.1,24.9-24.9
			C344,74.1,342.5,69.2,339.7,65.1L339.7,65.1z"/>
		<path id="Path_7124" class="st2" d="M315.5,50.6c-2.1,0-4.3,0.3-6.3,0.8c-4.5-15-20.3-23.5-35.4-19c-11.3,3.4-19.4,13.5-20.2,25.3
			c-11.8-1.6-22.6,6.7-24.1,18.4c-1.6,11.8,6.7,22.6,18.4,24.1c0.9,0.1,1.9,0.2,2.9,0.2H293l-2.3,14l14.6-14h10.2
			c13.8,0,24.9-11.2,24.9-24.9S329.3,50.6,315.5,50.6L315.5,50.6z"/>
	</g>
</g>
</svg>
