<svg xmlns="http://www.w3.org/2000/svg" viewBox="0 0 117.11 89.79"><defs><style>.cls-1{fill:#1a1a1a;}.cls-1,.cls-2{stroke:#707070;}.cls-2{fill:#fff;}</style></defs><g id="圖層_2" data-name="圖層 2"><g id="圖層_1-2" data-name="圖層 1"><g id="Group_5814" data-name="Group 5814"><path id="Path_7123" data-name="Path 7123" class="cls-1" d="M112.35,35.9A26.32,26.32,0,0,0,83.13,20.39c-.39-.71-.8-1.4-1.25-2.07A29.81,29.81,0,0,0,25,26.87c-.52,0-1.05-.06-1.57-.06a22.91,22.91,0,0,0-8.7,44.1A21.3,21.3,0,0,0,27,74.77H63.6L61.25,89.24l5.67-.44,14.55-14H91.68A24.92,24.92,0,0,0,112.34,35.9Z"/><path id="Path_7124" data-name="Path 7124" class="cls-2" d="M88.12,21.34a24.6,24.6,0,0,0-6.33.82,28.39,28.39,0,0,0-55.51,6.27A21.48,21.48,0,0,0,20.56,71a21.14,21.14,0,0,0,2.86.19H65.63l-2.28,14,14.56-14H88.12a24.93,24.93,0,1,0,0-49.86Z"/></g></g></g></svg>