<svg xmlns="http://www.w3.org/2000/svg" viewBox="0 0 84 78"><defs><style>.cls-1{fill:#fff;}</style></defs><g id="圖層_2" data-name="圖層 2"><g id="圖層_1-2" data-name="圖層 1"><g id="Group_2943" data-name="Group 2943"><path id="Path_3627" data-name="Path 3627" class="cls-1" d="M69,24H66a24,24,0,0,0-48,0H15a15,15,0,0,0,0,30H69a15,15,0,0,0,0-30ZM42,6A18,18,0,0,1,60,24H24A18,18,0,0,1,42,6ZM69,48H15a9,9,0,0,1,0-18H69a9,9,0,0,1,0,18Z"/><path id="Path_3628" data-name="Path 3628" class="cls-1" d="M48,39a6,6,0,1,1-6-6A6,6,0,0,1,48,39Z"/><path id="Path_3629" data-name="Path 3629" class="cls-1" d="M30,39a6,6,0,1,1-6-6A6,6,0,0,1,30,39Z"/><path id="Path_3630" data-name="Path 3630" class="cls-1" d="M66,39a6,6,0,1,1-6-6A6,6,0,0,1,66,39Z"/><path id="Path_3631" data-name="Path 3631" class="cls-1" d="M45,63V75a3,3,0,0,1-6,0V63a3,3,0,0,1,6,0Z"/><path id="Path_3632" data-name="Path 3632" class="cls-1" d="M20.91,63.73l-3,12a3,3,0,0,1-3.64,2.18h0a3,3,0,0,1-2.18-3.64h0l3-12a3,3,0,0,1,3.64-2.18h0A3,3,0,0,1,20.91,63.73Z"/><path id="Path_3633" data-name="Path 3633" class="cls-1" d="M71.91,74.27a3,3,0,0,1-2.18,3.64h0a3,3,0,0,1-3.64-2.18h0l-3-12a3,3,0,0,1,2.18-3.64h0a3,3,0,0,1,3.64,2.18Z"/><path id="Path_3634" data-name="Path 3634" class="cls-1" d="M45,12a3,3,0,0,1-3,3,9,9,0,0,0-5.94,2.25A3,3,0,0,1,31.82,17h0a3,3,0,0,1,.27-4.23h0A14.94,14.94,0,0,1,42,9,3,3,0,0,1,45,12Z"/></g></g></g></svg>