<svg xmlns="http://www.w3.org/2000/svg" xmlns:xlink="http://www.w3.org/1999/xlink" viewBox="0 0 302.67 385.32"><defs><style>.cls-1{fill:none;}.cls-2{isolation:isolate;}.cls-3{clip-path:url(#clip-path);}.cls-4{fill:#1383a4;}.cls-5{fill:#b0cc8b;}.cls-6{fill:#70c6ce;}.cls-7{fill:#94b720;}.cls-8{fill:#fff;}.cls-9{fill:#1d110c;}.cls-10{fill:#5d2176;opacity:0.2;mix-blend-mode:multiply;}.cls-11{fill:#f8f095;}</style><clipPath id="clip-path" transform="translate(-6.49 -42.24)"><rect class="cls-1" width="161.52" height="479.59"/></clipPath></defs><g class="cls-2"><g id="圖層_2" data-name="圖層 2"><g id="圖層_1-2" data-name="圖層 1"><g class="cls-3"><path class="cls-4" d="M75.31,93S56.16,91.09,44.1,77.4C35.19,67.29,40.49,46,48,42.75S57.45,52.47,62.67,64C68.8,77.53,84.29,86.52,84.29,86.52S84.6,96.79,75.31,93Z" transform="translate(-6.49 -42.24)"/><path class="cls-4" d="M263.78,100.76s18.76,4.31,34.57-4.79c11.68-6.72,13.48-28.58,7.39-34.07s-12.05,6.18-20.68,15.42c-10.15,10.87-27.7,14.41-27.7,14.41S251.44,99.13,263.78,100.76Z" transform="translate(-6.49 -42.24)"/><path class="cls-5" d="M143.78,388.64C139.6,397.94,142,414,140.11,417s-25.42,3.11-25.5-.14,10.23-9.09,10.23-9.09c-1.16-4.58,1.71-24.95,1.71-24.95s5.73-4.29,11.81-1.57S143.78,388.64,143.78,388.64Z" transform="translate(-6.49 -42.24)"/><path class="cls-5" d="M234.56,389.86c-.4,10.19,7.85,24.15,7.21,27.7S219.34,430,218.06,427s6.08-12.25,6.08-12.25c-2.78-3.81-7.74-23.78-7.74-23.78s1.61-4.74,5.84-5.87C228.53,383.38,234.56,389.86,234.56,389.86Z" transform="translate(-6.49 -42.24)"/><path class="cls-5" d="M43.17,202.71s-21.1,1.62-30.23,32.06c-7.12,23.72-7.1,43.57-5.76,46.4s5.94-5.34,5.94-5.34,3.79,7.94,6,7.09.92-9.09.92-9.09,5.61,3.27,7.78.52-7.45-9.13-7.45-9.13.17-44.54,24.17-44.28c0,0,7-6.57,6.57-10.35S43.17,202.71,43.17,202.71Z" transform="translate(-6.49 -42.24)"/><path class="cls-6" d="M258.22,298.11c-3.34-42,47.36-143.73,1.64-203.71C222.17,45,113.52,24.56,65.22,107.18s-7.38,242,53.58,272.19c54.82,27.14,140.06,14.12,150.35-12.92S260.36,325.06,258.22,298.11Z" transform="translate(-6.49 -42.24)"/><path class="cls-7" d="M151.12,173.48c19.63-16,40.74-6.44,44.06-4.76-7.2,4.51-16.78,7.43-28.69,7.35a48.17,48.17,0,0,1-15.4-2.54Z" transform="translate(-6.49 -42.24)"/><path class="cls-8" d="M197.45,130.48c-.36,2.49-2.35,15.82-5.82,15.85-3.25,0-6.89-8.63-8-11.35C188.64,133.07,193.34,131.18,197.45,130.48Z" transform="translate(-6.49 -42.24)"/><path class="cls-9" d="M209.22,135.84c4.78,9.73-.15,24.2-14,32.88-3.32-1.68-24.43-11.22-44.06,4.76l0,.05c-22.84-7.83-30.24-31.48-24.28-36.59,6.62-5.68,13.31,2.07,36.86,2.8,6.57.2,13.49-2.27,20-4.76,1.09,2.72,4.73,11.35,8,11.35,3.47,0,5.46-13.36,5.82-15.85C202.53,129.65,206.68,130.65,209.22,135.84Z" transform="translate(-6.49 -42.24)"/><path class="cls-5" d="M272,201.47s20.35,5.8,23.22,37.45c2.24,24.66-1.75,44.11-3.61,46.62s-4.76-6.42-4.76-6.42-5.3,7-7.33,5.74.91-9.09.91-9.09-6.15,2.09-7.72-1,9.12-7.46,9.12-7.46,8.73-43.67-14.85-48.21C267,219.06,259.77,207.8,272,201.47Z" transform="translate(-6.49 -42.24)"/><path class="cls-10" d="M120.48,131.18a17.05,17.05,0,1,0-16.93,17.17A17.05,17.05,0,0,0,120.48,131.18Z" transform="translate(-6.49 -42.24)"/><path class="cls-8" d="M118.61,131.2a15.18,15.18,0,1,0-15.07,15.28A15.18,15.18,0,0,0,118.61,131.2Z" transform="translate(-6.49 -42.24)"/><path class="cls-9" d="M108.13,131.27a4.7,4.7,0,1,0-4.67,4.73A4.71,4.71,0,0,0,108.13,131.27Z" transform="translate(-6.49 -42.24)"/><path class="cls-10" d="M250.48,132a17,17,0,1,0-16.92,17.17A17,17,0,0,0,250.48,132Z" transform="translate(-6.49 -42.24)"/><path class="cls-8" d="M248.62,132a15.18,15.18,0,1,0-15.07,15.29A15.19,15.19,0,0,0,248.62,132Z" transform="translate(-6.49 -42.24)"/><path class="cls-9" d="M238.14,132.11a4.7,4.7,0,1,0-4.67,4.73A4.71,4.71,0,0,0,238.14,132.11Z" transform="translate(-6.49 -42.24)"/><path class="cls-11" d="M53.39,213.71A60.83,60.83,0,0,0,55,220.18a65.19,65.19,0,0,0,7.6,17.11,30.2,30.2,0,0,0,9.27,9.31,21,21,0,0,0,14.88,2.58c.67-.14,1.39-.26,2-.42l2.1-.59a31.21,31.21,0,0,0,4-1.63,20.39,20.39,0,0,0,7-5.51c4-4.77,5.06-11.85,3.36-18.44a19.74,19.74,0,0,0-4.77-9.05c-1.21-1.16-2.76-2.19-4.36-2l-.3,0c.08-.05-.16.05-.23.06-.22.08-.46.14-.66.22a5.05,5.05,0,0,0-.87.68,7,7,0,0,0-1.42,2.13c-1.43,3.31-1.61,7.21-1.36,11A36.85,36.85,0,0,0,94,236.91a28.47,28.47,0,0,0,6.64,9.81,23.08,23.08,0,0,0,4.92,3.49,23.4,23.4,0,0,0,5.73,2,28.38,28.38,0,0,0,6.12.63l3.1-.19c1.05-.15,2.14-.25,3.17-.44a43.74,43.74,0,0,0,12.05-3.88,37.31,37.31,0,0,0,10.21-7.63,26.48,26.48,0,0,0,6.26-11.09,16.31,16.31,0,0,0,.43-6.28,8.84,8.84,0,0,0-2.7-5.33,8.19,8.19,0,0,0-2.6-1.53,5.89,5.89,0,0,0-1.47-.29,4.16,4.16,0,0,1-.61,0,5.78,5.78,0,0,0-.65.18c-1.81.54-3.18,2.42-4.19,4.28a32.5,32.5,0,0,0-3.12,13,39.88,39.88,0,0,0,1.49,13.45c1.3,4.29,3.59,8.43,7.21,11a15.51,15.51,0,0,0,6.05,2.53,23.93,23.93,0,0,0,6.76,0,39.79,39.79,0,0,0,23.95-12.3,28.48,28.48,0,0,0,6.78-11.65,15,15,0,0,0,.41-6.53,8.61,8.61,0,0,0-3.14-5.31,10.81,10.81,0,0,0-2.74-1.54c-.37-.07-1.09-.34-1.54-.38a5.13,5.13,0,0,0-1.35.05,5.19,5.19,0,0,0-2.55,1.2,9.31,9.31,0,0,0-1.85,2.42c-2,3.76-2.37,8.36-2,12.67.72,8.63,5.12,17.24,12.67,21.25a25.36,25.36,0,0,0,12.11,3,41.58,41.58,0,0,0,6.24-.41l3.13-.57,3-.78a29,29,0,0,0,10.69-5.65,23.48,23.48,0,0,0,6.75-9.56A28.21,28.21,0,0,0,231,235.22a31.77,31.77,0,0,0-2.42-10.88c-1.42-3.29-3.48-6.56-6.37-8a4.16,4.16,0,0,0-1.08-.36l-.55-.11-.54,0h-.27s-.22,0,0,0l-.17,0-.64.19a3.27,3.27,0,0,0-.74.48,6.35,6.35,0,0,0-1.37,4.18,28.86,28.86,0,0,0,1.71,9.68,45.94,45.94,0,0,0,4.07,8.67c3.22,5.3,7.45,9.82,12.47,12a14.21,14.21,0,0,0,7.63,1,17.64,17.64,0,0,0,6.78-2.62,45.26,45.26,0,0,0,10-8.69,24.5,24.5,0,0,0,4.7-9.41,20.39,20.39,0,0,0,.3-7.79,21.86,21.86,0,0,0-1.36-4.67,12,12,0,0,0-.73-1.48.45.45,0,0,1,.14-.6.44.44,0,0,1,.59.14,11.51,11.51,0,0,1,.82,1.57,22.84,22.84,0,0,1,1.54,4.87,21.34,21.34,0,0,1-.13,8.21,25.06,25.06,0,0,1-4.75,10,46.91,46.91,0,0,1-10.24,9.14,19.23,19.23,0,0,1-7.4,2.93,15.86,15.86,0,0,1-8.52-1.07c-5.56-2.3-10-7.05-13.45-12.54a47.27,47.27,0,0,1-4.34-9,28.64,28.64,0,0,1-1.88-10.44,8.19,8.19,0,0,1,2.09-5.56,5.28,5.28,0,0,1,1.54-.91l.65-.18.16,0a1,1,0,0,1,.33-.05h1.22l.79.16a6.19,6.19,0,0,1,1.48.52,12.13,12.13,0,0,1,4.42,3.94,23.3,23.3,0,0,1,2.8,5.11,33.35,33.35,0,0,1,2.37,11.51,29.62,29.62,0,0,1-2,11.92,24.81,24.81,0,0,1-7.13,10.16,30.32,30.32,0,0,1-11.21,6c-1,.27-2.09.58-3.14.83l-3.13.58a44.87,44.87,0,0,1-6.54.48,26.94,26.94,0,0,1-12.9-3.14,24.25,24.25,0,0,1-5.48-4,27.58,27.58,0,0,1-4.17-5.44,32.23,32.23,0,0,1-4.14-13.08c-.42-4.59-.06-9.43,2.21-13.79a11.37,11.37,0,0,1,2.28-3,6.84,6.84,0,0,1,5.65-1.58,14.73,14.73,0,0,1,1.78.5,12.89,12.89,0,0,1,3.18,1.9,10.23,10.23,0,0,1,3.56,6.4,16.39,16.39,0,0,1-.59,7.18,32.49,32.49,0,0,1-7.21,12.12,41.65,41.65,0,0,1-24.71,13,25.78,25.78,0,0,1-7.19.11,17.29,17.29,0,0,1-6.78-2.73c-4.09-2.84-6.53-7.36-7.93-11.88a41.63,41.63,0,0,1-1.62-14.06,34.34,34.34,0,0,1,3.28-13.75,13.63,13.63,0,0,1,2.07-3,10.85,10.85,0,0,1,1.41-1.29,7.27,7.27,0,0,1,1.78-.9c3-.9,5.26.37,7.26,1.93a10.83,10.83,0,0,1,3.46,6.5,18.06,18.06,0,0,1-.37,7.15c-2.43,9.23-9.58,16.33-17.69,20.08A45.49,45.49,0,0,1,123.9,254c-1.09.17-2.14.24-3.21.37s-2.2.09-3.3.12a29.75,29.75,0,0,1-6.46-.81,25.21,25.21,0,0,1-6-2.3,27.32,27.32,0,0,1-5.12-3.78,29.56,29.56,0,0,1-6.94-10.21A38.14,38.14,0,0,1,90,225.72c-.26-3.94-.13-7.95,1.44-11.63a8.39,8.39,0,0,1,1.69-2.52,5.27,5.27,0,0,1,1.37-1c.23-.1.44-.15.66-.23a3.79,3.79,0,0,1,.44-.11l.4,0c2.2-.18,4,1.1,5.37,2.38a21,21,0,0,1,5.17,9.65c1.82,6.91.7,14.49-3.54,19.69s-10.47,7.67-16.06,8.63a22.27,22.27,0,0,1-15.79-2.86,31.19,31.19,0,0,1-9.6-9.76A62.89,62.89,0,0,1,54,220.44a60.75,60.75,0,0,1-1.48-6.59h0a.42.42,0,0,1,.36-.49A.44.44,0,0,1,53.39,213.71Z" transform="translate(-6.49 -42.24)"/><path class="cls-11" d="M69,276.58A50.64,50.64,0,0,0,70.32,282a55.76,55.76,0,0,0,6.35,14.41,26.43,26.43,0,0,0,7.68,7.93,18,18,0,0,0,12.41,2.5c4.57-.76,9.49-2.57,13-6.43s4.76-9.68,3.56-15.27a18.28,18.28,0,0,0-3.54-7.85,6.93,6.93,0,0,0-3.38-2.43,2.94,2.94,0,0,0-3.33,1.5c-1.54,2.5-1.85,5.84-1.79,9a31.65,31.65,0,0,0,1.85,9.58,25.53,25.53,0,0,0,5,8.59,19,19,0,0,0,8.49,5.42,23.28,23.28,0,0,0,10.32.64,31.56,31.56,0,0,0,10.16-3,20.09,20.09,0,0,0,7.9-6.8,16.49,16.49,0,0,0,2.72-10,12.55,12.55,0,0,0-4.44-9.2c-1.35-1-3.14-1.9-4.38-1.41s-2.2,2.18-2.66,3.88a27.94,27.94,0,0,0-.23,11.17,37.81,37.81,0,0,0,3.42,10.87,23.23,23.23,0,0,0,7.1,8.68,15.78,15.78,0,0,0,10.57,2.87A31.46,31.46,0,0,0,177.49,307a25.62,25.62,0,0,0,5.95-9.66c1.18-3.54,1.33-7.65-.69-10.57-1.87-2.8-6.27-4.64-8.41-2.06a9.9,9.9,0,0,0-2.26,4.61,21.3,21.3,0,0,0-.55,5.41c.1,7.29,3,14.67,8.37,19.3a20.43,20.43,0,0,0,9.39,4.5,28.74,28.74,0,0,0,10.42,0c6.84-1.09,13.41-4,17.74-9a23,23,0,0,0,5.36-17.7,16.12,16.12,0,0,0-3.07-8.16,5.28,5.28,0,0,0-3.12-2,2.78,2.78,0,0,0-2.86,1.23c-1.28,2.05-1.23,5.07-.9,7.68a29.17,29.17,0,0,0,2.21,7.66c2.08,4.72,5.35,8.85,9.53,10.54s8.69.28,11.92-1.95a34.46,34.46,0,0,0,8.31-7.39,20.15,20.15,0,0,0,3.9-7.91,17.21,17.21,0,0,0,.19-6.53,18,18,0,0,0-1.14-3.92,11,11,0,0,0-.61-1.24.42.42,0,0,1,.14-.59.43.43,0,0,1,.59.13,12,12,0,0,1,.7,1.34,18,18,0,0,1,1.31,4.1,18.18,18.18,0,0,1,0,7,20.78,20.78,0,0,1-4,8.52,35.83,35.83,0,0,1-8.54,7.81,17.75,17.75,0,0,1-6.13,2.8,12.56,12.56,0,0,1-7.32-.51c-4.84-1.92-8.36-6.4-10.66-11.37a31.5,31.5,0,0,1-2.46-8.15,20.29,20.29,0,0,1-.22-4.5,9.49,9.49,0,0,1,1.42-4.65,4.91,4.91,0,0,1,2.13-1.78,5.36,5.36,0,0,1,.72-.23l.28-.06.2,0h.18a5.32,5.32,0,0,1,1.38,0,7,7,0,0,1,4.36,2.82,18.19,18.19,0,0,1,3.27,9.21,25.08,25.08,0,0,1-6,18.84c-4.6,5.33-11.51,8.36-18.58,9.52a30.61,30.61,0,0,1-11,.11,22,22,0,0,1-10.21-4.77c-5.91-5-9-12.79-9.23-20.59a23.28,23.28,0,0,1,.6-5.91,11.8,11.8,0,0,1,2.78-5.54,5.69,5.69,0,0,1,3-1.65,6.12,6.12,0,0,1,3.34.31,9.76,9.76,0,0,1,4.91,3.88,10.75,10.75,0,0,1,1.62,5.95,19.27,19.27,0,0,1-1.09,5.95,29.09,29.09,0,0,1-6.26,10.12,33.25,33.25,0,0,1-21.12,10.34,17.44,17.44,0,0,1-11.75-3,24.88,24.88,0,0,1-7.7-9.3,39.48,39.48,0,0,1-3.65-11.39,29.82,29.82,0,0,1,.22-12,11.69,11.69,0,0,1,1.22-2.92,5.44,5.44,0,0,1,2.61-2.28,5,5,0,0,1,3.49.11,10.44,10.44,0,0,1,2.79,1.5,14.47,14.47,0,0,1,5.42,10.69,18.68,18.68,0,0,1-3,11.43,21.12,21.12,0,0,1-8.89,7.44,32.52,32.52,0,0,1-10.88,2.77,25.9,25.9,0,0,1-10.94-1.06,21.09,21.09,0,0,1-9-5.9,26.88,26.88,0,0,1-5.32-9,32.55,32.55,0,0,1-2-10c0-3.32.18-6.76,2-9.75a5.06,5.06,0,0,1,2-1.82,4.23,4.23,0,0,1,2.73-.23,8.15,8.15,0,0,1,4.08,2.84,19.58,19.58,0,0,1,3.87,8.42c1.31,5.91,0,12.29-3.81,16.51s-9.08,6.11-13.85,6.86a19.41,19.41,0,0,1-13.31-2.79,27.59,27.59,0,0,1-8-8.38,54,54,0,0,1-6.29-14.79,53,53,0,0,1-1.24-5.56v0a.44.44,0,0,1,.37-.49A.43.43,0,0,1,69,276.58Z" transform="translate(-6.49 -42.24)"/><path class="cls-11" d="M93,335.22a48.05,48.05,0,0,0,1.26,5.17,53,53,0,0,0,6,13.69,25.23,25.23,0,0,0,7.29,7.54A17.08,17.08,0,0,0,119.41,364c4.34-.72,9-2.45,12.3-6.11s4.52-9.18,3.38-14.49a17.43,17.43,0,0,0-3.36-7.45,6.49,6.49,0,0,0-3.19-2.29,2.72,2.72,0,0,0-3.13,1.41c-1.47,2.36-1.76,5.53-1.7,8.54a30,30,0,0,0,1.75,9.1,24.31,24.31,0,0,0,4.8,8.15,18,18,0,0,0,8.06,5.15,22,22,0,0,0,9.8.6,30.33,30.33,0,0,0,9.65-2.82,19.15,19.15,0,0,0,7.48-6.45,15.56,15.56,0,0,0,2.58-9.5,11.94,11.94,0,0,0-4.19-8.72c-1.29-.93-3-1.79-4.12-1.33s-2.07,2-2.51,3.66a26.57,26.57,0,0,0-.21,10.6,35.45,35.45,0,0,0,3.25,10.32,21.92,21.92,0,0,0,6.73,8.24,14.93,14.93,0,0,0,10,2.72,29.84,29.84,0,0,0,19.36-9.18,24.26,24.26,0,0,0,5.65-9.18c1.12-3.35,1.25-7.25-.66-10s-5.94-4.37-7.93-1.94a9.23,9.23,0,0,0-2.14,4.36,20,20,0,0,0-.52,5.13c.1,6.92,2.82,13.93,7.94,18.32a19.31,19.31,0,0,0,8.91,4.27,27.17,27.17,0,0,0,9.89,0c6.51-1,12.75-3.77,16.86-8.51a21.84,21.84,0,0,0,5.08-16.81,15.2,15.2,0,0,0-2.92-7.73,5,5,0,0,0-2.93-1.91,2.61,2.61,0,0,0-2.68,1.15c-1.19,1.93-1.16,4.79-.84,7.27a27.49,27.49,0,0,0,2.09,7.26c2,4.49,5.08,8.41,9,10s8.23.27,11.3-1.85a32.32,32.32,0,0,0,7.89-7,19.11,19.11,0,0,0,3.71-7.51,16.37,16.37,0,0,0-.89-9.92,10,10,0,0,0-.58-1.18.42.42,0,0,1,.14-.59.43.43,0,0,1,.59.13,10.15,10.15,0,0,1,.67,1.27,17.34,17.34,0,0,1,1.24,10.54,19.84,19.84,0,0,1-3.75,8.12,34.15,34.15,0,0,1-8.13,7.43,17,17,0,0,1-5.84,2.68,11.94,11.94,0,0,1-7-.49c-4.62-1.83-8-6.09-10.16-10.83a29.23,29.23,0,0,1-2.35-7.77,19.55,19.55,0,0,1-.21-4.28,9.08,9.08,0,0,1,1.35-4.46,5,5,0,0,1,2.05-1.71,6.85,6.85,0,0,1,.7-.22l.26-.05.2,0h.17a5,5,0,0,1,1.33,0,6.71,6.71,0,0,1,4.17,2.69,17.37,17.37,0,0,1,3.12,8.8,23.94,23.94,0,0,1-5.75,17.94c-4.37,5.08-10.95,8-17.69,9.07a29.5,29.5,0,0,1-10.44.11,21.14,21.14,0,0,1-9.73-4.55c-5.63-4.76-8.59-12.18-8.8-19.61a22.44,22.44,0,0,1,.57-5.63,11.3,11.3,0,0,1,2.65-5.29,5.46,5.46,0,0,1,2.85-1.59,5.91,5.91,0,0,1,3.2.3,9.34,9.34,0,0,1,4.69,3.71,10.33,10.33,0,0,1,1.54,5.68,18.35,18.35,0,0,1-1,5.67,28,28,0,0,1-6,9.64A31.69,31.69,0,0,1,177,374.85a16.54,16.54,0,0,1-11.2-2.83,23.73,23.73,0,0,1-7.35-8.86A37.31,37.31,0,0,1,155,352.32a28.1,28.1,0,0,1,.21-11.4,10.52,10.52,0,0,1,1.16-2.79,5.24,5.24,0,0,1,2.5-2.19,4.76,4.76,0,0,1,3.36.1,10.22,10.22,0,0,1,2.67,1.42A13.87,13.87,0,0,1,170,347.67a17.83,17.83,0,0,1-2.88,10.91,20.18,20.18,0,0,1-8.47,7.09,30.71,30.71,0,0,1-10.37,2.62,24.61,24.61,0,0,1-10.42-1c-6.75-2.2-11.45-8-13.6-14.17a31,31,0,0,1-1.85-9.48c0-3.17.16-6.44,1.88-9.29a4.81,4.81,0,0,1,1.9-1.75,4,4,0,0,1,2.61-.21,7.78,7.78,0,0,1,3.91,2.7,18.75,18.75,0,0,1,3.68,8c1.25,5.62,0,11.7-3.63,15.73s-8.65,5.82-13.19,6.54a18.52,18.52,0,0,1-12.68-2.67,26.18,26.18,0,0,1-7.6-8,51.09,51.09,0,0,1-6-14.08,49,49,0,0,1-1.17-5.29h0a.43.43,0,0,1,.86-.13Z" transform="translate(-6.49 -42.24)"/></g></g></g></g></svg>