<svg xmlns="http://www.w3.org/2000/svg" xmlns:xlink="http://www.w3.org/1999/xlink" viewBox="0 0 302.67 385.32"><defs><style>.cls-1{fill:none;}.cls-2{isolation:isolate;}.cls-3{clip-path:url(#clip-path);}.cls-4{fill:#1383a4;}.cls-5{fill:#b0cc8b;}.cls-6{fill:#70c6ce;}.cls-7{fill:#94b720;}.cls-8{fill:#fff;}.cls-9{fill:#1d110c;}.cls-10{fill:#5d2176;opacity:0.2;mix-blend-mode:multiply;}.cls-11{fill:#f8f095;}</style><clipPath id="clip-path" transform="translate(154.56 -42.24)"><rect class="cls-1" width="161.52" height="479.59"/></clipPath></defs><g class="cls-2"><g id="圖層_2" data-name="圖層 2"><g id="圖層_1-2" data-name="圖層 1"><g class="cls-3"><path class="cls-4" d="M-85.74,93s-19.14-1.93-31.2-15.62C-125.85,67.29-120.55,46-113,42.75s9.43,9.72,14.64,21.24c6.13,13.54,21.62,22.53,21.62,22.53S-76.45,96.79-85.74,93Z" transform="translate(154.56 -42.24)"/><path class="cls-4" d="M102.74,100.76s18.76,4.31,34.57-4.79c11.67-6.72,13.47-28.58,7.38-34.07s-12,6.18-20.68,15.42C113.87,88.19,96.32,91.73,96.32,91.73S90.39,99.13,102.74,100.76Z" transform="translate(154.56 -42.24)"/><path class="cls-5" d="M-17.26,388.64C-21.44,397.94-19,414-20.94,417s-25.42,3.11-25.49-.14,10.22-9.09,10.22-9.09c-1.16-4.58,1.71-24.95,1.71-24.95s5.74-4.29,11.82-1.57S-17.26,388.64-17.26,388.64Z" transform="translate(154.56 -42.24)"/><path class="cls-5" d="M73.51,389.86c-.4,10.19,7.86,24.15,7.21,27.7S58.3,430,57,427s6.09-12.25,6.09-12.25c-2.78-3.81-7.74-23.78-7.74-23.78s1.6-4.74,5.83-5.87C67.48,383.38,73.51,389.86,73.51,389.86Z" transform="translate(154.56 -42.24)"/><path class="cls-5" d="M-117.87,202.71s-21.11,1.62-30.24,32.06c-7.11,23.72-7.09,43.57-5.76,46.4s6-5.34,6-5.34,3.78,7.94,6,7.09.92-9.09.92-9.09,5.61,3.27,7.77.52-7.44-9.13-7.44-9.13.16-44.54,24.17-44.28c0,0,7-6.57,6.56-10.35S-117.87,202.71-117.87,202.71Z" transform="translate(154.56 -42.24)"/><path class="cls-6" d="M97.17,298.11c-3.34-42,47.37-143.73,1.64-203.71C61.13,45-47.53,24.56-95.82,107.18s-7.39,242,53.57,272.19c54.83,27.14,140.07,14.12,150.36-12.92S99.32,325.06,97.17,298.11Z" transform="translate(154.56 -42.24)"/><path class="cls-7" d="M-9.92,173.48c19.62-16,40.73-6.44,44.05-4.76-7.19,4.51-16.78,7.43-28.68,7.35a48.12,48.12,0,0,1-15.4-2.54Z" transform="translate(154.56 -42.24)"/><path class="cls-8" d="M36.4,130.48c-.35,2.49-2.34,15.82-5.81,15.85-3.25,0-6.9-8.63-8-11.35C27.6,133.07,32.3,131.18,36.4,130.48Z" transform="translate(154.56 -42.24)"/><path class="cls-9" d="M48.18,135.84c4.78,9.73-.16,24.2-14,32.88C30.81,167,9.7,157.5-9.92,173.48l0,.05c-22.85-7.83-30.24-31.48-24.28-36.59,6.62-5.68,13.31,2.07,36.86,2.8,6.57.2,13.49-2.27,20-4.76,1.08,2.72,4.73,11.35,8,11.35,3.47,0,5.46-13.36,5.81-15.85C41.48,129.65,45.64,130.65,48.18,135.84Z" transform="translate(154.56 -42.24)"/><path class="cls-5" d="M111,201.47s20.36,5.8,23.23,37.45c2.23,24.66-1.75,44.11-3.62,46.62s-4.75-6.42-4.75-6.42-5.3,7-7.33,5.74.91-9.09.91-9.09-6.15,2.09-7.72-1,9.12-7.46,9.12-7.46,8.73-43.67-14.85-48.21C106,219.06,98.73,207.8,111,201.47Z" transform="translate(154.56 -42.24)"/><path class="cls-10" d="M-40.57,131.18a17,17,0,0,0-17.16-16.92,17,17,0,0,0-16.93,17.16,17,17,0,0,0,17.17,16.93A17.05,17.05,0,0,0-40.57,131.18Z" transform="translate(154.56 -42.24)"/><path class="cls-8" d="M-42.43,131.2a15.19,15.19,0,0,0-15.29-15.08A15.2,15.2,0,0,0-72.8,131.41a15.19,15.19,0,0,0,15.3,15.07A15.18,15.18,0,0,0-42.43,131.2Z" transform="translate(154.56 -42.24)"/><path class="cls-9" d="M-52.91,131.27a4.72,4.72,0,0,0-4.74-4.67,4.7,4.7,0,0,0-4.66,4.73A4.69,4.69,0,0,0-57.58,136,4.71,4.71,0,0,0-52.91,131.27Z" transform="translate(154.56 -42.24)"/><path class="cls-10" d="M89.44,132a17,17,0,1,0-16.92,17.17A17,17,0,0,0,89.44,132Z" transform="translate(154.56 -42.24)"/><path class="cls-8" d="M87.57,132A15.18,15.18,0,1,0,72.5,147.32,15.17,15.17,0,0,0,87.57,132Z" transform="translate(154.56 -42.24)"/><path class="cls-9" d="M77.1,132.11a4.7,4.7,0,1,0-4.67,4.73A4.71,4.71,0,0,0,77.1,132.11Z" transform="translate(154.56 -42.24)"/><path class="cls-11" d="M-107.66,213.71a63.05,63.05,0,0,0,1.57,6.47,65.19,65.19,0,0,0,7.6,17.11,30.09,30.09,0,0,0,9.27,9.31,21,21,0,0,0,14.88,2.58c.67-.14,1.39-.26,2-.42l2.1-.59a31.21,31.21,0,0,0,4-1.63,20.48,20.48,0,0,0,7-5.51c3.94-4.77,5.06-11.85,3.36-18.44a19.93,19.93,0,0,0-4.77-9.05c-1.22-1.16-2.77-2.19-4.36-2l-.3,0c.08-.05-.17.05-.24.06s-.45.14-.65.22a4.7,4.7,0,0,0-.87.68,7.17,7.17,0,0,0-1.43,2.13c-1.43,3.31-1.6,7.21-1.35,11a36.85,36.85,0,0,0,2.73,11.29,28.31,28.31,0,0,0,6.63,9.81,23.34,23.34,0,0,0,4.92,3.49,23.55,23.55,0,0,0,5.73,2,28.47,28.47,0,0,0,6.13.63l3.1-.19c1-.15,2.13-.25,3.17-.44a43.85,43.85,0,0,0,12.05-3.88,37.31,37.31,0,0,0,10.21-7.63,26.57,26.57,0,0,0,6.25-11.09,16.12,16.12,0,0,0,.44-6.28A8.85,8.85,0,0,0-11.14,218a8.19,8.19,0,0,0-2.6-1.53,5.81,5.81,0,0,0-1.47-.29,4,4,0,0,1-.6,0,5.25,5.25,0,0,0-.65.18c-1.81.54-3.18,2.42-4.19,4.28a32.5,32.5,0,0,0-3.12,13,39.88,39.88,0,0,0,1.49,13.45c1.3,4.29,3.58,8.43,7.21,11A15.51,15.51,0,0,0-9,260.64a23.86,23.86,0,0,0,6.75,0,39.82,39.82,0,0,0,24-12.3,28.48,28.48,0,0,0,6.78-11.65,15,15,0,0,0,.4-6.53,8.55,8.55,0,0,0-3.13-5.31A11.17,11.17,0,0,0,23,223.29c-.37-.07-1.09-.34-1.54-.38a5.11,5.11,0,0,0-1.35.05,5.19,5.19,0,0,0-2.55,1.2,9.13,9.13,0,0,0-1.86,2.42c-2,3.76-2.36,8.36-2,12.67.72,8.63,5.11,17.24,12.67,21.25a25.33,25.33,0,0,0,12.11,3,41.67,41.67,0,0,0,6.24-.41l3.13-.57,3-.78a29,29,0,0,0,10.7-5.65,23.45,23.45,0,0,0,6.74-9.56A28,28,0,0,0,70,235.22a31.53,31.53,0,0,0-2.41-10.88c-1.42-3.29-3.49-6.56-6.38-8a4,4,0,0,0-1.08-.36l-.54-.11-.54,0h-.27s-.22,0,0,0l-.16,0-.65.19a3.42,3.42,0,0,0-.73.48,6.35,6.35,0,0,0-1.38,4.18,28.62,28.62,0,0,0,1.72,9.68,45.33,45.33,0,0,0,4.07,8.67c3.22,5.3,7.45,9.82,12.47,12a14.19,14.19,0,0,0,7.62,1,17.63,17.63,0,0,0,6.79-2.62,45.49,45.49,0,0,0,10-8.69,24.5,24.5,0,0,0,4.7-9.41,20.37,20.37,0,0,0,.29-7.79,22,22,0,0,0-1.35-4.67,12,12,0,0,0-.73-1.48.44.44,0,0,1,.13-.6.45.45,0,0,1,.6.14,13.15,13.15,0,0,1,.82,1.57,22.94,22.94,0,0,1,1.53,4.87,21.31,21.31,0,0,1-.12,8.21,25,25,0,0,1-4.76,10,47.07,47.07,0,0,1-10.23,9.14,19.23,19.23,0,0,1-7.4,2.93,15.85,15.85,0,0,1-8.52-1.07c-5.56-2.3-10-7.05-13.45-12.54a46.68,46.68,0,0,1-4.34-9,28.43,28.43,0,0,1-1.88-10.44,8.14,8.14,0,0,1,2.09-5.56,5.28,5.28,0,0,1,1.54-.91L58,214l.16,0a1,1,0,0,1,.33-.05h1.22l.79.16a6.19,6.19,0,0,1,1.48.52,12.21,12.21,0,0,1,4.42,3.94,23.3,23.3,0,0,1,2.8,5.11,33.35,33.35,0,0,1,2.37,11.51,29.79,29.79,0,0,1-2,11.92,25,25,0,0,1-7.13,10.16,30.32,30.32,0,0,1-11.21,6c-1,.27-2.1.58-3.14.83l-3.13.58a44.91,44.91,0,0,1-6.55.48A26.93,26.93,0,0,1,25.55,262a24.53,24.53,0,0,1-5.49-4,28.36,28.36,0,0,1-4.17-5.44,32.06,32.06,0,0,1-4.13-13.08c-.42-4.59-.06-9.43,2.2-13.79a11.41,11.41,0,0,1,2.29-3,6.81,6.81,0,0,1,5.64-1.58,14.23,14.23,0,0,1,1.78.5,12.53,12.53,0,0,1,3.18,1.9,10.25,10.25,0,0,1,3.57,6.4,16.39,16.39,0,0,1-.59,7.18,32.65,32.65,0,0,1-7.22,12.12,41.6,41.6,0,0,1-24.7,13,25.85,25.85,0,0,1-7.2.11,17.35,17.35,0,0,1-6.78-2.73c-4.08-2.84-6.52-7.36-7.92-11.88a41.63,41.63,0,0,1-1.62-14.06,34,34,0,0,1,3.28-13.75,13.58,13.58,0,0,1,2.06-3,11.64,11.64,0,0,1,1.42-1.29,6.93,6.93,0,0,1,1.78-.9c3-.9,5.26.37,7.26,1.93A10.83,10.83,0,0,1-6.35,223a18.06,18.06,0,0,1-.38,7.15c-2.42,9.23-9.58,16.33-17.68,20.08A45.46,45.46,0,0,1-37.15,254c-1.08.17-2.14.24-3.2.37s-2.2.09-3.3.12a29.75,29.75,0,0,1-6.46-.81,24.89,24.89,0,0,1-6-2.3,26.69,26.69,0,0,1-5.12-3.78,29.58,29.58,0,0,1-7-10.21A38.14,38.14,0,0,1-71,225.72c-.25-3.94-.12-7.95,1.45-11.63a8.21,8.21,0,0,1,1.69-2.52,5.22,5.22,0,0,1,1.36-1c.23-.1.45-.15.67-.23a3.46,3.46,0,0,1,.43-.11l.4,0c2.2-.18,4,1.1,5.38,2.38a21.14,21.14,0,0,1,5.17,9.65c1.82,6.91.7,14.49-3.54,19.69s-10.47,7.67-16.07,8.63a22.24,22.24,0,0,1-15.78-2.86A31.34,31.34,0,0,1-99.5,238,62.8,62.8,0,0,1-107,220.44a62.89,62.89,0,0,1-1.49-6.59h0a.43.43,0,0,1,.37-.49A.43.43,0,0,1-107.66,213.71Z" transform="translate(154.56 -42.24)"/><path class="cls-11" d="M-92,276.58A51.71,51.71,0,0,0-90.73,282a55.86,55.86,0,0,0,6.36,14.41,26.31,26.31,0,0,0,7.68,7.93,18,18,0,0,0,12.41,2.5c4.57-.76,9.49-2.57,13-6.43s4.76-9.68,3.57-15.27a18.52,18.52,0,0,0-3.54-7.85,6.93,6.93,0,0,0-3.38-2.43,2.94,2.94,0,0,0-3.33,1.5c-1.54,2.5-1.86,5.84-1.79,9A31.65,31.65,0,0,0-57.95,295a25.53,25.53,0,0,0,5.05,8.59A19,19,0,0,0-44.41,309a23.25,23.25,0,0,0,10.31.64,31.69,31.69,0,0,0,10.17-3,20,20,0,0,0,7.89-6.8,16.36,16.36,0,0,0,2.72-10,12.54,12.54,0,0,0-4.43-9.2c-1.35-1-3.15-1.9-4.38-1.41s-2.2,2.18-2.66,3.88A27.76,27.76,0,0,0-25,294.26a37.81,37.81,0,0,0,3.42,10.87,23.14,23.14,0,0,0,7.1,8.68,15.78,15.78,0,0,0,10.57,2.87A31.46,31.46,0,0,0,16.44,307a25.65,25.65,0,0,0,6-9.66c1.18-3.54,1.32-7.65-.69-10.57s-6.28-4.64-8.41-2.06A10,10,0,0,0,11,289.33a21.75,21.75,0,0,0-.54,5.41c.1,7.29,3,14.67,8.37,19.3a20.33,20.33,0,0,0,9.39,4.5,28.68,28.68,0,0,0,10.41,0c6.85-1.09,13.42-4,17.75-9a23,23,0,0,0,5.35-17.7,16.11,16.11,0,0,0-3.06-8.16,5.31,5.31,0,0,0-3.12-2,2.78,2.78,0,0,0-2.86,1.23c-1.28,2.05-1.23,5.07-.9,7.68a29.15,29.15,0,0,0,2.2,7.66c2.09,4.72,5.36,8.85,9.54,10.54s8.68.28,11.92-1.95a34.4,34.4,0,0,0,8.3-7.39,20,20,0,0,0,3.9-7.91,17,17,0,0,0,.19-6.53,17.53,17.53,0,0,0-1.13-3.92,11,11,0,0,0-.61-1.24.42.42,0,0,1,.13-.59.44.44,0,0,1,.6.13,12,12,0,0,1,.7,1.34,18,18,0,0,1,1.31,4.1,18.18,18.18,0,0,1,0,7,20.91,20.91,0,0,1-4,8.52,36,36,0,0,1-8.54,7.81,17.83,17.83,0,0,1-6.13,2.8,12.56,12.56,0,0,1-7.32-.51c-4.85-1.92-8.37-6.4-10.66-11.37a30.74,30.74,0,0,1-2.46-8.15,20.29,20.29,0,0,1-.22-4.5A9.37,9.37,0,0,1,51,281.72a5,5,0,0,1,2.14-1.78,5.36,5.36,0,0,1,.72-.23l.28-.06.2,0h.17a5.39,5.39,0,0,1,1.39,0,7,7,0,0,1,4.35,2.82,18,18,0,0,1,3.27,9.21,25,25,0,0,1-6,18.84C52.9,315.83,46,318.86,38.91,320a30.6,30.6,0,0,1-11,.11,22,22,0,0,1-10.2-4.77c-5.91-5-9-12.79-9.24-20.59a24.22,24.22,0,0,1,.6-5.91,11.82,11.82,0,0,1,2.79-5.54,5.66,5.66,0,0,1,3-1.65,6.13,6.13,0,0,1,3.34.31,9.76,9.76,0,0,1,4.91,3.88,10.75,10.75,0,0,1,1.62,5.95,19.27,19.27,0,0,1-1.09,5.95,29.24,29.24,0,0,1-6.26,10.12A33.27,33.27,0,0,1-3.75,318.22a17.42,17.42,0,0,1-11.75-3,24.88,24.88,0,0,1-7.7-9.3,39.17,39.17,0,0,1-3.65-11.39,29.82,29.82,0,0,1,.22-12,11.33,11.33,0,0,1,1.22-2.92,5.44,5.44,0,0,1,2.61-2.28,5,5,0,0,1,3.49.11,10.44,10.44,0,0,1,2.79,1.5,14.54,14.54,0,0,1,5.42,10.69,18.68,18.68,0,0,1-3,11.43A21.18,21.18,0,0,1-23,308.55a32.52,32.52,0,0,1-10.88,2.77,25.9,25.9,0,0,1-10.94-1.06,21.18,21.18,0,0,1-9-5.9,26.88,26.88,0,0,1-5.32-9,32.83,32.83,0,0,1-1.94-10c0-3.32.17-6.76,2-9.75a5,5,0,0,1,2-1.82,4.2,4.2,0,0,1,2.72-.23,8.13,8.13,0,0,1,4.09,2.84,19.7,19.7,0,0,1,3.87,8.42c1.3,5.91,0,12.29-3.81,16.51s-9.09,6.11-13.85,6.86a19.41,19.41,0,0,1-13.31-2.79,27.75,27.75,0,0,1-8-8.38,53.87,53.87,0,0,1-6.28-14.79,53,53,0,0,1-1.24-5.56v0a.44.44,0,0,1,.36-.49A.44.44,0,0,1-92,276.58Z" transform="translate(154.56 -42.24)"/><path class="cls-11" d="M-68,335.22a48.05,48.05,0,0,0,1.26,5.17,52.91,52.91,0,0,0,6,13.69,25.23,25.23,0,0,0,7.29,7.54A17.1,17.1,0,0,0-41.64,364c4.35-.72,9-2.45,12.31-6.11s4.51-9.18,3.38-14.49a17.55,17.55,0,0,0-3.36-7.45,6.49,6.49,0,0,0-3.19-2.29,2.74,2.74,0,0,0-3.14,1.41c-1.46,2.36-1.76,5.53-1.69,8.54a30,30,0,0,0,1.75,9.1,24.31,24.31,0,0,0,4.8,8.15A17.92,17.92,0,0,0-22.72,366a22,22,0,0,0,9.8.6,30.28,30.28,0,0,0,9.64-2.82,19.18,19.18,0,0,0,7.49-6.45,15.63,15.63,0,0,0,2.58-9.5A11.94,11.94,0,0,0,2.6,339.1c-1.29-.93-3-1.79-4.13-1.33s-2.06,2-2.5,3.66A26.39,26.39,0,0,0-4.24,352,35.74,35.74,0,0,0-1,362.35a22,22,0,0,0,6.74,8.24,14.93,14.93,0,0,0,10,2.72,29.8,29.8,0,0,0,19.35-9.18A24.16,24.16,0,0,0,40.78,355c1.12-3.35,1.25-7.25-.66-10s-5.94-4.37-7.93-1.94A9.34,9.34,0,0,0,30,347.36a20.94,20.94,0,0,0-.52,5.13c.1,6.92,2.82,13.93,8,18.32a19.31,19.31,0,0,0,8.91,4.27,27.17,27.17,0,0,0,9.89,0c6.51-1,12.74-3.77,16.86-8.51a21.83,21.83,0,0,0,5.07-16.81A15.28,15.28,0,0,0,75.29,342a5,5,0,0,0-2.93-1.91,2.6,2.6,0,0,0-2.68,1.15c-1.2,1.93-1.16,4.79-.84,7.27a27.12,27.12,0,0,0,2.09,7.26c2,4.49,5.08,8.41,9,10s8.24.27,11.31-1.85a32.51,32.51,0,0,0,7.89-7,19.11,19.11,0,0,0,3.71-7.51,16.25,16.25,0,0,0-.9-9.92,9.29,9.29,0,0,0-.57-1.18.42.42,0,0,1,.13-.59.45.45,0,0,1,.6.13,12.2,12.2,0,0,1,.67,1.27,17.27,17.27,0,0,1,1.25,3.91,17.48,17.48,0,0,1,0,6.63,19.74,19.74,0,0,1-3.76,8.12,34.1,34.1,0,0,1-8.12,7.43,17,17,0,0,1-5.85,2.68,11.91,11.91,0,0,1-7-.49c-4.63-1.83-8-6.09-10.17-10.83a30,30,0,0,1-2.35-7.77,20.18,20.18,0,0,1-.21-4.28A9.09,9.09,0,0,1,68,340.07,4.87,4.87,0,0,1,70,338.36a6.85,6.85,0,0,1,.7-.22l.26-.05.2,0h.16a4.94,4.94,0,0,1,1.33,0,6.73,6.73,0,0,1,4.18,2.69,17.36,17.36,0,0,1,3.11,8.8,23.89,23.89,0,0,1-5.74,17.94c-4.37,5.08-11,8-17.69,9.07a29.55,29.55,0,0,1-10.45.11,21.1,21.1,0,0,1-9.72-4.55c-5.64-4.76-8.59-12.18-8.81-19.61a22.91,22.91,0,0,1,.57-5.63,11.32,11.32,0,0,1,2.66-5.29A5.46,5.46,0,0,1,33.62,340a5.87,5.87,0,0,1,3.19.3A9.3,9.3,0,0,1,41.5,344a10.26,10.26,0,0,1,1.55,5.68,18.35,18.35,0,0,1-1,5.67,28,28,0,0,1-6,9.64,31.67,31.67,0,0,1-20.11,9.84A16.55,16.55,0,0,1,4.74,372a23.79,23.79,0,0,1-7.34-8.86,37.31,37.31,0,0,1-3.47-10.84,28.27,28.27,0,0,1,.2-11.4,10.55,10.55,0,0,1,1.17-2.79,5.19,5.19,0,0,1,2.5-2.19,4.76,4.76,0,0,1,3.36.1,10.16,10.16,0,0,1,2.66,1.42A13.88,13.88,0,0,1,9,347.67a17.83,17.83,0,0,1-2.88,10.91,20.24,20.24,0,0,1-8.47,7.09,30.77,30.77,0,0,1-10.37,2.62,24.6,24.6,0,0,1-10.42-1c-6.75-2.2-11.45-8-13.6-14.17a31,31,0,0,1-1.85-9.48c0-3.17.16-6.44,1.88-9.29a4.85,4.85,0,0,1,1.89-1.75,4,4,0,0,1,2.62-.21,7.82,7.82,0,0,1,3.91,2.7,19,19,0,0,1,3.68,8c1.24,5.62,0,11.7-3.63,15.73s-8.65,5.82-13.19,6.54a18.49,18.49,0,0,1-12.68-2.67,26.18,26.18,0,0,1-7.6-8,51.09,51.09,0,0,1-6-14.08,51.22,51.22,0,0,1-1.18-5.29h0a.43.43,0,0,1,.37-.49A.44.44,0,0,1-68,335.22Z" transform="translate(154.56 -42.24)"/></g></g></g></g></svg>