<svg xmlns="http://www.w3.org/2000/svg" xmlns:xlink="http://www.w3.org/1999/xlink" viewBox="0 0 396.22 473.84"><defs><style>.cls-1{fill:none;}.cls-2{clip-path:url(#clip-path);}.cls-3{fill:#7d5234;}.cls-4{fill:#3f2718;}.cls-5{fill:#726755;}.cls-6{fill:#29acb1;}.cls-7{fill:#d79cc4;}.cls-8{fill:#a76da1;opacity:0.5;}.cls-9{fill:#fff;}.cls-10{fill:#221f20;}.cls-11{fill:#94d3df;}.cls-12{fill:#e9b9d5;}</style><clipPath id="clip-path" transform="translate(-15.22 6.12)"><rect class="cls-1" width="210.64" height="467.71"/></clipPath></defs><g id="圖層_2" data-name="圖層 2"><g id="圖層_1-2" data-name="圖層 1"><g class="cls-2"><path class="cls-3" d="M124.81,82.29S105.36,69.53,110.16,52s17.17-20.41,13.31-33S103.79,2.38,94.23,6.62a33.93,33.93,0,0,1,29.52-5.23c16.95,5,17.89,20.78,15.69,30.4s-7.6,19.6,5.52,32C140.75,76.8,124.81,82.29,124.81,82.29Z" transform="translate(-15.22 6.12)"/><path class="cls-4" d="M128.5,93.34s-12.15-9.28-10.09-15.57c1.81-4.47,7,.27,7,.27s-3-6.31-.25-9.1,6.57.4,6.57.4-2.81-6.57.65-8.64,9,2.54,9,2.54-4.83-6.8-1-8.76,13.88,15.79,13.88,15.79Z" transform="translate(-15.22 6.12)"/><path class="cls-3" d="M285.65,77s18.19-14.7,11.81-31.67-19-18.55-16.26-31.43,18.06-18.59,28-15.35A33.73,33.73,0,0,0,279.3-3.59c-16.4,6.76-15.9,22.52-12.83,31.86s9.36,18.73-2.56,32.42C269.28,73.21,285.65,77,285.65,77Z" transform="translate(-15.22 6.12)"/><path class="cls-4" d="M283,88.41s11.24-10.49,8.61-16.53c-2.2-4.26-6.88,1-6.88,1s2.42-6.58-.59-9.07-6.5,1.07-6.5,1.07,2.19-6.83-1.43-8.53-8.69,3.45-8.69,3.45,4.18-7.27.17-8.81-12.37,17.13-12.37,17.13Z" transform="translate(-15.22 6.12)"/><path class="cls-5" d="M93.86,211.88c-1.07,0-49.22-2.89-56.75-25.37s-5.53-59.12-5.53-59.12,13.72-6.72,11.86-8.85-10.32-2.32-10.32-2.32,2.93-18.24-1.2-15.1-5.71,12-5.71,12S19,107.72,15.87,109.7,21.56,124,21.56,124s-2.29,46.73,3.14,63.59c16.44,51.09,69.53,41,69.53,41Z" transform="translate(-15.22 6.12)"/><path class="cls-5" d="M304.41,164.09c1,.41,47.06,15.57,61.53-2.7s24.69-53.33,24.69-53.33S380,96.67,382.43,95.37,392.87,97,392.87,97s3.27-18.17,6.1-13.7,1.38,13.39,1.38,13.39,8.6-2.4,10.82.6-10.05,11.32-10.05,11.32-13.27,44.63-23.92,58.41c-32.26,41.75-78.65,12.55-78.65,12.55Z" transform="translate(-15.22 6.12)"/><path class="cls-5" d="M251.83,331.49s60.64,16.37,86.23,38.09S360.51,433,360.51,433s14.54-13.51,16.63-8.15-4.1,11-4.1,11,13.12.05,11.59,7.65-13.46,9.65-13.46,9.65,8.42,2.16,6,9.2c-1.6,4.6-21.54-1.76-25.77-7.92S343,397.33,327.64,385.3c-14.48-11.32-64.8-28.75-64.8-28.75Z" transform="translate(-15.22 6.12)"/><path class="cls-5" d="M179.73,291.16S142,336,118.5,360.18s-37.92,75.36-37.92,75.36-15.69-12-17.29-6.43,5.08,10.58,5.08,10.58-13.06,1.37-10.85,8.78,14.26,8.24,14.26,8.24-8.19,3-5.12,9.77c2,4.41,21.29-3.93,25-10.49s22.3-69.16,36.05-81.47c13-11.64,45.36-59.58,45.36-59.58Z" transform="translate(-15.22 6.12)"/><path class="cls-6" d="M216.18,58.82C142.91,56.4,116.41,87.71,107.24,102c-13.08,20.39-32,50.94-30.76,76.38,4.17-1.74,7.72-5.24,12-6.19-8.9,20.95-13.27,44.49-23.06,65.4,6.7-.66,12.13-7.08,18.81-8.27-1.09,14.43-11,28.58-10,43.91,5.91-.92,8.13-7.88,14-8.29-3,15.54-9.4,32-9,48.24,5.47-4.82,7.66-15,15-18.09,1.11,19.28,1.26,40.69,1.2,60.13,4.58-6,10.7-18.26,15.94-24.27-.14,12.89,3.23,42.91,11,51.35,3.17-7.6,8-17.68,14.3-22.41.37,5.75,4.89,23.62,8.06,24.73,1.43.5,8.71-11.14,9.6-13.17,0,0,17.8,18.07,28.24,25.26,3.19-5.41,13.56-23.12,16.27-21.75,1,.48,12.86,22.92,22.09,27,2.39-8,9.4-19.26,13.23-17.93,0,0,10.2,23,10.53,31,6-7.51,12-22.17,19.35-29.92,5.42,3.89,8.87,17.1,12.73,23.53,3.12-8.83,12.26-27.65,12.26-27.65,3-.26,13.78,9.83,16.81,17.75a81.6,81.6,0,0,0,4.83-38.45c10.84,2.91,18,6.65,28.34,8.51-3.69-7.36-4.68-15.93-7.87-23.38,6.21,2.82,11.56,9.57,19.06,8.32-3.5-11-13.85-23.46-14.91-35.29,7.49,1.69,14.88,7.46,22,10.59-.18-16.34-11.78-32.41-19.67-45.58a195.39,195.39,0,0,0,20-4.62c-4.05-8.64-17.9-25.57-27-30.62,5.77-1.78,14.56,2.91,21.67,6.52.08-8.73-13.42-32.44-19.9-38.5,7.68.71,8.8,2.54,15.1,4.91-2.31-9.76-7.48-16.23-14-24,9.45,1.74,6.1-1.06,12.53,2.19C346.94,188.68,322.89,62.33,216.18,58.82Z" transform="translate(-15.22 6.12)"/><path class="cls-7" d="M206.67,103.1c-28.76,1.55-64.87,9.53-68.71,44s16.16,59,67.46,57.86,78.68-17.75,78.36-45.62C283.36,122.57,259.73,100.25,206.67,103.1Z" transform="translate(-15.22 6.12)"/><path class="cls-8" d="M136.67,161.39c3.83-34.49,39.94-42.48,68.71-44,47-2.53,70.9,14.7,76,44.24.07-1,.1-2,.09-3.08-.43-36.79-24.06-59.11-77.12-56.26-28.76,1.55-64.87,9.53-68.7,44a63.21,63.21,0,0,0,.62,19.41C136.39,164.28,136.51,162.85,136.67,161.39Z" transform="translate(-15.22 6.12)"/><path class="cls-5" d="M178.52,123.79a12.29,12.29,0,0,0-3.62,1l-1.9-3.67a1.75,1.75,0,0,0-2.44-.76h0a2,2,0,0,0-.71,2.6l2,3.91c-.24.23-.46.46-.67.7l-3-2.49a1.73,1.73,0,0,0-2.53.33,2,2,0,0,0,.31,2.68l3.23,2.68a10.13,10.13,0,0,0-.58,1.93,1.91,1.91,0,0,0,1.45,2.23,1.82,1.82,0,0,0,2.1-1.54,7.64,7.64,0,0,1,6.8-5.85,5.83,5.83,0,0,1,6.29,2.94,1.75,1.75,0,0,0,2.4.89l.08,0a2,2,0,0,0,.76-2.51A9.42,9.42,0,0,0,178.52,123.79Z" transform="translate(-15.22 6.12)"/><path class="cls-5" d="M245.76,123.79a12.29,12.29,0,0,1,3.62,1l1.9-3.67a1.75,1.75,0,0,1,2.44-.76h0a2,2,0,0,1,.71,2.6l-2,3.91c.24.23.46.46.67.7l3-2.49a1.73,1.73,0,0,1,2.53.33,2,2,0,0,1-.31,2.68l-3.23,2.68a10.13,10.13,0,0,1,.58,1.93,1.91,1.91,0,0,1-1.45,2.23,1.81,1.81,0,0,1-2.09-1.54,7.68,7.68,0,0,0-6.81-5.85,5.8,5.8,0,0,0-6.28,2.94,1.76,1.76,0,0,1-2.41.89l-.08,0a2,2,0,0,1-.76-2.51A9.42,9.42,0,0,1,245.76,123.79Z" transform="translate(-15.22 6.12)"/><path class="cls-9" d="M247.32,127.23c-12.1-3.23-21.15,2.86-18.21,12.16,1.75,5.54,20.71,13.49,26.67,8.65C263,142.16,257.12,129.84,247.32,127.23Z" transform="translate(-15.22 6.12)"/><path class="cls-10" d="M251,136.23a6.66,6.66,0,0,1-8.8,4,7.33,7.33,0,0,1-4.1-9.19,6.66,6.66,0,0,1,8.8-4A7.32,7.32,0,0,1,251,136.23Z" transform="translate(-15.22 6.12)"/><path class="cls-9" d="M246,131.62a2.77,2.77,0,0,1-3.67,1.67,3,3,0,0,1-1.71-3.83,2.77,2.77,0,0,1,3.67-1.67A3,3,0,0,1,246,131.62Z" transform="translate(-15.22 6.12)"/><path class="cls-9" d="M177,127.23c12.1-3.23,21.15,2.86,18.21,12.16-1.75,5.54-20.71,13.49-26.67,8.65C161.25,142.16,167.16,129.84,177,127.23Z" transform="translate(-15.22 6.12)"/><path class="cls-10" d="M173.3,136.23a6.66,6.66,0,0,0,8.8,4,7.33,7.33,0,0,0,4.1-9.19,6.66,6.66,0,0,0-8.8-4A7.32,7.32,0,0,0,173.3,136.23Z" transform="translate(-15.22 6.12)"/><path class="cls-9" d="M178.24,131.62a2.77,2.77,0,0,0,3.67,1.67,3,3,0,0,0,1.71-3.83,2.77,2.77,0,0,0-3.67-1.67A3,3,0,0,0,178.24,131.62Z" transform="translate(-15.22 6.12)"/><path class="cls-5" d="M215.67,183.34c-.49,3.54-3.14,6-5.91,5.62s-4.63-3.65-4.14-7.19,3.14-6.05,5.91-5.61S216.16,179.81,215.67,183.34Z" transform="translate(-15.22 6.12)"/><polygon class="cls-11" points="100.02 232.4 98.82 262.22 121.38 240.51 112.61 236.77 105.64 247.01 107.17 233.8 100.02 232.4"/><polygon class="cls-11" points="138.61 257.54 148.72 303.76 167.52 270.83 157.76 267.36 150.47 284.92 146.13 258.27 138.61 257.54"/><polygon class="cls-11" points="234.22 251.59 251.49 277.51 256.22 240.61 247.87 245.1 247.96 262.88 238.4 249.34 234.22 251.59"/><path class="cls-11" d="M301.55,263.59C302.42,265,316,286.38,316,286.38l2.17-32.3-7.63,3.18.68,11.5-5.22-8.6Z" transform="translate(-15.22 6.12)"/><polygon class="cls-11" points="283.99 201.35 303.07 219.53 298.95 187.26 293.31 192.14 297.09 207.8 288.28 197.4 283.99 201.35"/><polygon class="cls-11" points="193.66 318.26 200.84 345.8 213.36 315.13 205.73 316.09 200.75 330.24 197.47 316.67 193.66 318.26"/><path class="cls-11" d="M127.19,317.08c.38,1.57,1.1,22,1.1,22l18-18.81-7-3.09-6.37,8.4-1-8.62Z" transform="translate(-15.22 6.12)"/><polygon class="cls-11" points="84.11 277.35 85.85 301.92 94.75 284.47 91.53 282.01 88.73 287.78 87.31 275.37 84.11 277.35"/><polygon class="cls-11" points="260.54 332.37 270.62 350.22 270.46 321.32 265.55 324.88 266.47 335.21 262.37 329.09 260.54 332.37"/><polygon class="cls-11" points="224.13 368.41 230.43 394.52 242.13 369.09 236.32 366.77 231.46 379.22 229.05 367.07 224.13 368.41"/><polygon class="cls-11" points="87.08 187.51 77.58 209.01 99.96 199.59 94.65 197.14 87.03 200.32 90.55 191.01 87.08 187.51"/><path class="cls-12" d="M166.78,161.64a10.33,10.33,0,0,1-7,12.47,9.63,9.63,0,0,1-11.75-7.38,10.32,10.32,0,0,1,7-12.47A9.63,9.63,0,0,1,166.78,161.64Z" transform="translate(-15.22 6.12)"/><path class="cls-12" d="M269.49,168.8c1.32,5.48-1.8,11.06-7,12.46a9.62,9.62,0,0,1-11.75-7.38c-1.32-5.48,1.79-11.06,7-12.46A9.63,9.63,0,0,1,269.49,168.8Z" transform="translate(-15.22 6.12)"/></g></g></g></svg>