<svg xmlns="http://www.w3.org/2000/svg" xmlns:xlink="http://www.w3.org/1999/xlink" viewBox="0 0 396.22 473.84"><defs><style>.cls-1{fill:none;}.cls-2{clip-path:url(#clip-path);}.cls-3{fill:#7d5234;}.cls-4{fill:#3f2718;}.cls-5{fill:#726755;}.cls-6{fill:#29acb1;}.cls-7{fill:#d79cc4;}.cls-8{fill:#a76da1;opacity:0.5;}.cls-9{fill:#fff;}.cls-10{fill:#221f20;}.cls-11{fill:#94d3df;}.cls-12{fill:#e9b9d5;}</style><clipPath id="clip-path" transform="translate(195.43 -11.79)"><rect class="cls-1" width="210.64" height="485.63"/></clipPath></defs><g id="圖層_2" data-name="圖層 2"><g id="圖層_1-2" data-name="圖層 1"><g class="cls-2"><path class="cls-3" d="M-85.84,100.2s-19.45-12.76-14.65-30.31,17.18-20.41,13.32-32.95-19.68-16.65-29.24-12.4a33.92,33.92,0,0,1,29.52-5.23c16.94,5,17.88,20.77,15.68,30.39s-7.59,19.6,5.52,32C-69.9,94.72-85.84,100.2-85.84,100.2Z" transform="translate(195.43 -11.79)"/><path class="cls-4" d="M-82.15,111.25S-94.29,102-92.23,95.68c1.8-4.46,6.94.27,6.94.27s-3-6.3-.25-9.09,6.57.39,6.57.39-2.8-6.57.65-8.63,9,2.54,9,2.54-4.83-6.81-1-8.76,13.89,15.78,13.89,15.78Z" transform="translate(195.43 -11.79)"/><path class="cls-3" d="M75,94.94S93.2,80.24,86.82,63.27s-19-18.54-16.27-31.43,18.06-18.59,28-15.35a33.74,33.74,0,0,0-29.86-2.17c-16.41,6.76-15.9,22.52-12.83,31.87s9.35,18.72-2.57,32.42C58.64,91.13,75,94.94,75,94.94Z" transform="translate(195.43 -11.79)"/><path class="cls-4" d="M72.35,106.32S83.59,95.84,81,89.79c-2.21-4.26-6.89,1-6.89,1s2.42-6.58-.58-9.07S67,82.76,67,82.76s2.19-6.82-1.44-8.52-8.69,3.45-8.69,3.45,4.19-7.27.18-8.82S44.66,86,44.66,86Z" transform="translate(195.43 -11.79)"/><path class="cls-5" d="M-116.78,229.79c-1.07,0-49.23-2.88-56.76-25.37s-5.53-59.12-5.53-59.12,13.72-6.72,11.87-8.85-10.33-2.32-10.33-2.32,2.93-18.23-1.2-15.09-5.7,12-5.7,12-7.27-5.44-10.34-3.45,5.69,14.33,5.69,14.33-2.29,46.74,3.13,63.6c16.44,51.08,69.54,40.95,69.54,40.95Z" transform="translate(195.43 -11.79)"/><path class="cls-5" d="M93.76,182c1,.42,47.07,15.57,61.54-2.7S180,126,180,126s-10.63-11.38-8.19-12.69,10.43,1.66,10.43,1.66,3.28-18.17,6.11-13.69,1.37,13.39,1.37,13.39,8.6-2.4,10.83.6-10.06,11.32-10.06,11.32S177.2,171.19,166.55,185c-32.25,41.75-78.64,12.54-78.64,12.54Z" transform="translate(195.43 -11.79)"/><path class="cls-5" d="M41.18,349.4s60.64,16.37,86.24,38.09,22.44,63.44,22.44,63.44,14.55-13.52,16.64-8.15-4.11,11-4.11,11,13.13.05,11.59,7.65-13.45,9.64-13.45,9.64,8.42,2.16,6,9.21c-1.6,4.6-21.54-1.76-25.77-7.92s-8.34-57.16-23.73-69.19c-14.47-11.32-64.8-28.74-64.8-28.74Z" transform="translate(195.43 -11.79)"/><path class="cls-5" d="M-30.91,309.07s-37.7,44.82-61.24,69-37.91,75.37-37.91,75.37-15.69-12-17.29-6.44,5.08,10.58,5.08,10.58-13.07,1.37-10.86,8.78,14.26,8.25,14.26,8.25-8.19,3-5.11,9.76c2,4.42,21.28-3.92,24.94-10.48S-96.73,404.74-83,392.44c13-11.65,45.37-59.58,45.37-59.58Z" transform="translate(195.43 -11.79)"/><path class="cls-6" d="M5.54,76.73c-73.28-2.41-99.78,28.89-108.94,43.18-13.09,20.39-32,50.94-30.77,76.38,4.18-1.75,7.73-5.25,12-6.19-8.9,20.94-13.27,44.49-23.07,65.4,6.71-.67,12.14-7.09,18.81-8.27-1.08,14.42-11,28.58-9.95,43.9,5.91-.92,8.13-7.88,14-8.28-3,15.53-9.4,32-9,48.24,5.48-4.82,7.66-15,15-18.09,1.12,19.28,1.27,40.68,1.21,60.13,4.58-6,10.69-18.26,15.93-24.27-.14,12.89,3.23,42.9,11,51.34,3.17-7.59,8-17.67,14.3-22.4.36,5.75,4.89,23.62,8,24.72,1.44.5,8.72-11.14,9.6-13.17,0,0,17.81,18.07,28.25,25.27,3.19-5.42,13.56-23.12,16.27-21.75.94.48,12.85,22.91,22.08,27,2.4-8,9.4-19.27,13.24-17.94,0,0,10.2,23,10.52,31,6-7.5,12-22.17,19.35-29.91,5.42,3.89,8.87,17.1,12.73,23.53,3.13-8.83,12.26-27.65,12.26-27.65,3-.26,13.78,9.83,16.82,17.74A81.58,81.58,0,0,0,100,378.14c10.83,2.9,18,6.65,28.33,8.5-3.69-7.35-4.68-15.92-7.87-23.37,6.22,2.81,11.57,9.56,19.06,8.32-3.5-11-13.85-23.46-14.9-35.3,7.48,1.7,14.88,7.46,22,10.6-.17-16.35-11.77-32.41-19.67-45.59a194.78,194.78,0,0,0,20-4.62c-4-8.63-17.9-25.56-27-30.62,5.76-1.78,14.56,2.92,21.67,6.53.07-8.74-13.43-32.45-19.9-38.51,7.67.72,8.8,2.54,15.1,4.91-2.32-9.76-7.48-16.22-14-24,9.44,1.73,6.1-1.06,12.53,2.19C136.29,206.59,112.25,80.24,5.54,76.73Z" transform="translate(195.43 -11.79)"/><path class="cls-7" d="M-4,121c-28.76,1.54-64.87,9.53-68.7,44s16.16,59.05,67.45,57.86,78.69-17.75,78.37-45.62C72.72,140.49,49.08,118.16-4,121Z" transform="translate(195.43 -11.79)"/><path class="cls-8" d="M-74,179.31c3.84-34.5,40-42.48,68.71-44,47-2.53,70.91,14.71,76.05,44.24.06-1,.09-2,.08-3.07-.42-36.79-24-59.12-77.11-56.27-28.76,1.55-64.87,9.54-68.71,44a63.13,63.13,0,0,0,.63,19.4C-74.25,182.19-74.14,180.76-74,179.31Z" transform="translate(195.43 -11.79)"/><path class="cls-5" d="M-32.12,141.71a12.27,12.27,0,0,0-3.63,1l-1.9-3.68a1.74,1.74,0,0,0-2.44-.75h0a2,2,0,0,0-.71,2.59l2,3.91c-.24.23-.47.47-.68.71l-3-2.5a1.72,1.72,0,0,0-2.52.33,2,2,0,0,0,.3,2.68l3.24,2.69a8.7,8.7,0,0,0-.58,1.93,1.9,1.9,0,0,0,1.45,2.22,1.81,1.81,0,0,0,2.09-1.54,7.66,7.66,0,0,1,6.81-5.84,5.81,5.81,0,0,1,6.28,2.94,1.75,1.75,0,0,0,2.4.89l.08-.05a2,2,0,0,0,.76-2.5A9.39,9.39,0,0,0-32.12,141.71Z" transform="translate(195.43 -11.79)"/><path class="cls-5" d="M35.11,141.71a12.27,12.27,0,0,1,3.63,1l1.9-3.68a1.74,1.74,0,0,1,2.44-.75h0a2,2,0,0,1,.72,2.59l-2,3.91c.24.23.47.47.68.71l3-2.5a1.72,1.72,0,0,1,2.52.33,2,2,0,0,1-.3,2.68l-3.24,2.69a8.7,8.7,0,0,1,.58,1.93,1.9,1.9,0,0,1-1.45,2.22,1.81,1.81,0,0,1-2.09-1.54,7.66,7.66,0,0,0-6.81-5.84,5.81,5.81,0,0,0-6.28,2.94,1.75,1.75,0,0,1-2.4.89l-.08-.05a2,2,0,0,1-.76-2.5A9.39,9.39,0,0,1,35.11,141.71Z" transform="translate(195.43 -11.79)"/><path class="cls-9" d="M36.67,145.14c-12.09-3.22-21.15,2.86-18.21,12.17,1.75,5.53,20.71,13.48,26.68,8.65C52.38,160.08,46.47,147.76,36.67,145.14Z" transform="translate(195.43 -11.79)"/><path class="cls-10" d="M40.33,154.15a6.65,6.65,0,0,1-8.79,4,7.31,7.31,0,0,1-4.1-9.18,6.66,6.66,0,0,1,8.8-4A7.31,7.31,0,0,1,40.33,154.15Z" transform="translate(195.43 -11.79)"/><path class="cls-9" d="M35.4,149.53a2.78,2.78,0,0,1-3.68,1.68A3.06,3.06,0,0,1,30,147.38a2.79,2.79,0,0,1,3.68-1.68A3.06,3.06,0,0,1,35.4,149.53Z" transform="translate(195.43 -11.79)"/><path class="cls-9" d="M-33.68,145.14c12.09-3.22,21.15,2.86,18.21,12.17-1.75,5.53-20.71,13.48-26.68,8.65C-49.39,160.08-43.48,147.76-33.68,145.14Z" transform="translate(195.43 -11.79)"/><path class="cls-10" d="M-37.34,154.15a6.66,6.66,0,0,0,8.8,4A7.31,7.31,0,0,0-24.45,149a6.66,6.66,0,0,0-8.8-4A7.31,7.31,0,0,0-37.34,154.15Z" transform="translate(195.43 -11.79)"/><path class="cls-9" d="M-32.41,149.53a2.78,2.78,0,0,0,3.68,1.68A3.06,3.06,0,0,0-27,147.38a2.79,2.79,0,0,0-3.68-1.68A3.06,3.06,0,0,0-32.41,149.53Z" transform="translate(195.43 -11.79)"/><path class="cls-5" d="M5,201.26c-.49,3.53-3.14,6.05-5.92,5.61s-4.63-3.65-4.14-7.18,3.14-6.05,5.92-5.62S5.52,197.72,5,201.26Z" transform="translate(195.43 -11.79)"/><polygon class="cls-11" points="100.02 232.4 98.82 262.22 121.38 240.51 112.61 236.77 105.64 247.01 107.17 233.8 100.02 232.4"/><polygon class="cls-11" points="138.61 257.54 148.72 303.76 167.52 270.83 157.76 267.36 150.47 284.92 146.13 258.27 138.61 257.54"/><polygon class="cls-11" points="234.22 251.59 251.49 277.51 256.22 240.61 247.87 245.1 247.96 262.88 238.4 249.34 234.22 251.59"/><path class="cls-11" d="M90.91,281.51c.87,1.43,14.42,22.79,14.42,22.79L107.49,272l-7.62,3.19.68,11.5-5.22-8.6Z" transform="translate(195.43 -11.79)"/><polygon class="cls-11" points="283.99 201.35 303.07 219.53 298.95 187.26 293.31 192.14 297.09 207.8 288.28 197.4 283.99 201.35"/><polygon class="cls-11" points="193.66 318.26 200.84 345.8 213.36 315.13 205.73 316.09 200.75 330.24 197.47 316.67 193.66 318.26"/><path class="cls-11" d="M-83.46,335c.38,1.57,1.11,22,1.11,22l18-18.8-7-3.1-6.36,8.41-1-8.62Z" transform="translate(195.43 -11.79)"/><polygon class="cls-11" points="84.11 277.35 85.85 301.92 94.75 284.47 91.53 282.01 88.73 287.78 87.31 275.37 84.11 277.35"/><polygon class="cls-11" points="260.54 332.37 270.62 350.22 270.46 321.32 265.55 324.88 266.47 335.21 262.37 329.09 260.54 332.37"/><polygon class="cls-11" points="224.13 368.41 230.43 394.52 242.13 369.09 236.32 366.77 231.46 379.22 229.05 367.07 224.13 368.41"/><polygon class="cls-11" points="87.08 187.51 77.58 209.01 99.96 199.59 94.65 197.14 87.03 200.32 90.55 191.01 87.08 187.51"/><path class="cls-12" d="M-43.87,179.56a10.29,10.29,0,0,1-7,12.46,9.63,9.63,0,0,1-11.75-7.38c-1.32-5.48,1.8-11.06,7-12.46A9.62,9.62,0,0,1-43.87,179.56Z" transform="translate(195.43 -11.79)"/><path class="cls-12" d="M58.84,186.71a10.32,10.32,0,0,1-7,12.47,9.63,9.63,0,0,1-11.75-7.38,10.33,10.33,0,0,1,7-12.47A9.62,9.62,0,0,1,58.84,186.71Z" transform="translate(195.43 -11.79)"/></g></g></g></svg>