<svg xmlns="http://www.w3.org/2000/svg" xmlns:xlink="http://www.w3.org/1999/xlink" viewBox="0 0 331.84 453.6"><defs><style>.cls-1{fill:none;}.cls-2{clip-path:url(#clip-path);}.cls-3{fill:#f4c43a;}.cls-4{fill:#fff;}.cls-5{fill:#c59829;}.cls-6{fill:#1e2636;}.cls-7{fill:#1d110c;}.cls-8{fill:#e6965e;}</style><clipPath id="clip-path" transform="translate(-57.74 0)"><rect class="cls-1" width="209.26" height="455.79"/></clipPath></defs><g id="圖層_2" data-name="圖層 2"><g id="圖層_1-2" data-name="圖層 1"><g class="cls-2"><path class="cls-3" d="M319.21,191.72C309,129.16,292.12,93.25,263.62,76.36l3.06-15.82c.75.06,1.5.11,2.27.11,15.24,0,38.86-2.21,38.86-17.6S288.91,0,273.67,0s-39.33,22.08-39.33,37.48c0,11.68,14.13,17,24.21,21.11l-3.66,13.35c-12.11-5.2-26.08-7.6-42.22-7.6-20.63,0-37.71,3.89-51.9,12.58l-5-18.33c10.08-4.15,30.72-9.43,30.72-21.11,0-15.4-25.88-32.58-41.12-32.58S103,36.55,103,52s27.14,8.7,42.38,8.7c.77,0,1.52,0,2.27-.11L152,83.2c-22.73,19-36.91,53.41-45.88,108.52C91,285,28.9,407.59,212.67,407.59S334.39,285,319.21,191.72M245.84,35.25c0-9.61,17.58-26.72,27.09-26.72S296.68,29.35,296.68,39,278.46,50.18,269,50.18s-23.11-5.32-23.11-14.93M145.35,50.18c-9.51,0-27.16,2.85-27.16-6.76s17.2-31.55,26.72-31.55S176.08,26.38,176.08,36s-21.22,14.19-30.73,14.19" transform="translate(-57.74 0)"/><ellipse class="cls-4" cx="201.44" cy="159.74" rx="32.16" ry="30.35"/><ellipse class="cls-4" cx="108.67" cy="168.3" rx="30.43" ry="28.72"/><path class="cls-5" d="M291.86,154.74c-4.48-15.48-17.44-26.56-34.05-26.56a30.09,30.09,0,0,0-26.34,14.91c-2.48,4.08-3.54,9.48-4.92,14.25,0,0,18.79-15.85,39.38-16.45C273.18,140.68,291.86,154.74,291.86,154.74Z" transform="translate(-57.74 0)"/><path class="cls-6" d="M179.37,162.82a14.22,14.22,0,1,1-14.21-14.21,14.22,14.22,0,0,1,14.21,14.21" transform="translate(-57.74 0)"/><path class="cls-6" d="M272.39,161.34a12.73,12.73,0,1,1-12.73-12.73,12.73,12.73,0,0,1,12.73,12.73" transform="translate(-57.74 0)"/><path class="cls-6" d="M281.3,34.18a10.75,10.75,0,1,1-10.75-10.75A10.75,10.75,0,0,1,281.3,34.18" transform="translate(-57.74 0)"/><path class="cls-5" d="M197.33,161.28a31.84,31.84,0,0,0-61.06,0Z" transform="translate(-57.74 0)"/><path class="cls-6" d="M132.05,31.48a17,17,0,0,0,32.27-4.92Z" transform="translate(-57.74 0)"/><polygon class="cls-5" points="214.46 88.62 215.69 95.62 222.72 96.61 216.45 99.91 217.68 106.89 212.57 101.94 206.3 105.26 209.41 98.91 204.3 94.01 211.34 95 214.46 88.62"/><polygon class="cls-5" points="184.78 74.23 189.28 76.13 192.47 72.43 192.04 77.28 196.54 79.16 191.78 80.27 191.36 85.14 188.85 80.98 184.12 82.11 187.31 78.41 184.78 74.23"/><polygon class="cls-5" points="195.52 86.73 198.13 87.83 199.99 85.68 199.74 88.5 202.34 89.59 199.58 90.23 199.34 93.06 197.89 90.64 195.14 91.3 196.99 89.15 195.52 86.73"/><polygon class="cls-5" points="139.01 70.99 142.8 70.04 143.06 66.14 145.12 69.45 148.89 68.49 146.38 71.49 148.46 74.8 144.85 73.34 142.37 76.34 142.63 72.44 139.01 70.99"/><polygon class="cls-5" points="136.42 305.53 142.22 304.07 142.62 298.11 145.77 303.17 151.55 301.71 147.71 306.3 150.88 311.36 145.36 309.13 141.56 313.72 141.97 307.76 136.42 305.53"/><polygon class="cls-5" points="107.63 309.91 111.15 303.85 106.47 298.63 113.3 300.12 116.8 294.07 117.52 301.05 124.37 302.53 117.98 305.35 118.73 312.3 114.05 307.07 107.63 309.91"/><polygon class="cls-5" points="233.65 346.07 237.17 340.01 232.49 334.79 239.31 336.28 242.82 330.23 243.53 337.21 250.38 338.69 244 341.5 244.74 348.45 240.06 343.23 233.65 346.07"/><polygon class="cls-5" points="251.76 361.44 251.35 355.94 245.99 354.63 251.09 352.57 250.67 347.08 254.24 351.3 259.34 349.21 256.44 353.88 260.01 358.06 254.66 356.74 251.76 361.44"/><polygon class="cls-5" points="265.07 355.27 264.74 350.77 260.35 349.7 264.52 348.01 264.19 343.52 267.1 346.97 271.28 345.26 268.91 349.08 271.84 352.51 267.45 351.43 265.07 355.27"/><polygon class="cls-5" points="263.61 327.74 263.27 323.24 258.89 322.17 263.06 320.48 262.72 315.99 265.64 319.44 269.82 317.73 267.45 321.55 270.37 324.98 265.99 323.9 263.61 327.74"/><polygon class="cls-5" points="200.62 383.56 199.94 374.5 191.12 372.34 199.51 368.95 198.83 359.92 204.7 366.86 213.1 363.43 208.34 371.11 214.22 377.99 205.39 375.83 200.62 383.56"/><polygon class="cls-5" points="84.11 330.06 90.33 323.44 85.94 315.49 94.12 319.37 100.31 312.76 99.17 321.77 107.38 325.64 98.5 327.33 97.41 336.31 93.03 328.36 84.11 330.06"/><polygon class="cls-5" points="78.76 323.54 77.19 318.72 72.12 318.73 76.21 315.77 74.64 310.96 78.75 313.94 82.84 310.96 81.28 315.76 85.39 318.7 80.32 318.71 78.76 323.54"/><polygon class="cls-5" points="43.13 346.88 47.72 341.99 44.48 336.12 50.52 338.99 55.09 334.11 54.24 340.76 60.31 343.62 53.75 344.86 52.95 351.5 49.71 345.62 43.13 346.88"/><path class="cls-3" d="M116.78,222.61C95,185.17,82.51,115.53,82.51,115.53s-10.79-11.25-7.36-14.84c2.65-2.77,8.11,6.47,8.11,6.47s-3.89-12.13-.81-14,6.43,11.87,6.43,11.87.25-13.65,3.05-13,3.41,14.77,3.41,14.77,4.74-5.16,7.19-3.16c2.81,2.28-4.44,9.82-4.44,9.82,10.48,61.62,29.16,101.11,29.16,101.11Z" transform="translate(-57.74 0)"/><path class="cls-3" d="M161.17,392.53c-57.09,31-78.1,61.4-86.68,61.07-5.74-.21-19.68-24-16.2-28.87s16.18,9.17,16.18,9.17,38.2-37.65,77.13-53.59Z" transform="translate(-57.74 0)"/><path class="cls-3" d="M317.94,210.62c27.12-37.51,47.75-110.26,47.75-110.26s12.67-10.83,9.4-15c-2.52-3.22-9.3,6-9.3,6s5.41-12.48,2.33-14.75S360,88.57,360,88.57s1.19-14.54-1.87-14.12S353,89.8,353,89.8s-4.48-6-7.31-4.13c-3.22,2.13,3.69,10.92,3.69,10.92C331.68,161,307.63,201,307.63,201s-1.29,5.35,2.83,8.29S317.94,210.62,317.94,210.62Z" transform="translate(-57.74 0)"/><path class="cls-3" d="M281.47,383c57.45,18.7,88.49-13.91,96.59-11.06,5.42,1.9,15,26,10.23,29.59s-16.05-10.77-16.05-10.77-28.08,33.06-98.43,11.64a14.83,14.83,0,0,1-.29-12.1C276.82,382,281.47,383,281.47,383Z" transform="translate(-57.74 0)"/><path class="cls-4" d="M172.9,249.19c3.48-.05,10.2,11.74,10.55,12.38a28.11,28.11,0,0,1-16.37-.62l.2-.6S169.31,249.23,172.9,249.19Z" transform="translate(-57.74 0)"/><path class="cls-7" d="M183.45,261.57c-.35-.64-7.07-12.43-10.55-12.38s-5.62,11.16-5.62,11.16l-.2.6c-8.1-2.91-13.87-10.07-7.55-23.07a31.61,31.61,0,0,1,18.35-16.17l.09.25s4.43,13.54,8.37,13.13,6.63-15.8,6.63-15.8l0-.55c6.1-.4,11.48,0,14.67,0A109.62,109.62,0,0,1,229.3,221l-.18.73s-.9,16.45,2.34,17.86,13.46-12.31,13.46-12.31l.42-.77c15.46,8,19.67,20.75,13.88,31.74-6.86,13-16.9,11.44-26.81,8-.56-1.72-4.63-14.08-8-14.39-3.57-.31-9.91,8-9.91,8l-.07.37c-10.38-2.27-21.3-2.16-30,1Z" transform="translate(-57.74 0)"/><path class="cls-4" d="M224.43,251.85c3.35.31,7.42,12.67,8,14.39-3.27-1.15-6.53-2.51-9.65-3.64a69.6,69.6,0,0,0-8.31-2.4l.07-.37S220.86,251.54,224.43,251.85Z" transform="translate(-57.74 0)"/><path class="cls-4" d="M245.34,226.54l-.42.77S234.7,241,231.46,239.62s-2.34-17.86-2.34-17.86l.18-.73A63.18,63.18,0,0,1,245.34,226.54Z" transform="translate(-57.74 0)"/><path class="cls-4" d="M193,218.74l0,.55s-2.71,15.4-6.63,15.8S178,222,178,222l-.09-.25A54.66,54.66,0,0,1,193,218.74Z" transform="translate(-57.74 0)"/><path class="cls-8" d="M244,270.89h0c-5.83,0-11.81-2.32-17.59-4.55-1.48-.58-2.94-1.14-4.37-1.66a64.79,64.79,0,0,0-21.59-3.83,44.22,44.22,0,0,0-15.2,2.45,25.84,25.84,0,0,1-8.78,1.4c-6.82,0-15.55-2.32-19.62-8.82-2.18-3.49-3.83-9.61.72-19,6.74-13.83,20.23-20.56,41.27-20.56,2.28,0,4.36.07,6.12.13,1,0,1.93.07,2.72.08,26.09.34,45.42,7.87,53,20.66a21.88,21.88,0,0,1,.48,22.08C257.05,267.1,251.43,270.89,244,270.89Zm-43.55-14.44a69,69,0,0,1,23.08,4.09c1.46.52,3,1.1,4.47,1.69,5.4,2.09,11,4.25,16,4.25,5.74,0,10-2.93,13.28-9.22a17.62,17.62,0,0,0-.37-17.78C250.1,228,232.13,221.29,207.6,221c-.81,0-1.76,0-2.81-.08-1.72,0-3.74-.12-6-.12-19.18,0-31.38,5.91-37.31,18.08-2.94,6.05-3.26,11-.95,14.69,3.12,5,10.25,6.76,15.89,6.76a21.78,21.78,0,0,0,7.26-1.14A48.58,48.58,0,0,1,200.43,256.45Z" transform="translate(-57.74 0)"/></g></g></g></svg>