<svg xmlns="http://www.w3.org/2000/svg" xmlns:xlink="http://www.w3.org/1999/xlink" viewBox="0 0 331.84 453.6"><defs><style>.cls-1{fill:none;}.cls-2{clip-path:url(#clip-path);}.cls-3{fill:#f4c43a;}.cls-4{fill:#fff;}.cls-5{fill:#c59829;}.cls-6{fill:#1e2636;}.cls-7{fill:#1d110c;}.cls-8{fill:#e6965e;}</style><clipPath id="clip-path" transform="translate(151.53 0)"><rect class="cls-1" width="209.26" height="455.79"/></clipPath></defs><g id="圖層_2" data-name="圖層 2"><g id="圖層_1-2" data-name="圖層 1"><g class="cls-2"><path class="cls-3" d="M110,191.72C99.77,129.16,82.86,93.25,54.36,76.36l3-15.82c.76.06,1.51.11,2.28.11,15.23,0,38.86-2.21,38.86-17.6S79.65,0,64.41,0,25.08,22.08,25.08,37.48c0,11.68,14.13,17,24.21,21.11L45.63,71.94c-12.11-5.2-26.08-7.6-42.23-7.6-20.63,0-37.71,3.89-51.89,12.58l-5-18.33c10.08-4.15,30.72-9.43,30.72-21.11,0-15.4-25.88-32.58-41.11-32.58S-106.29,36.55-106.29,52s27.14,8.7,42.38,8.7c.77,0,1.52,0,2.27-.11l4.38,22.66c-22.73,19-36.91,53.41-45.88,108.52C-118.32,285-180.36,407.59,3.4,407.59S125.13,285,110,191.72M36.58,35.25c0-9.61,17.58-26.72,27.09-26.72S87.42,29.35,87.42,39,69.2,50.18,59.69,50.18,36.58,44.86,36.58,35.25M-63.91,50.18c-9.52,0-27.16,2.85-27.16-6.76s17.2-31.55,26.71-31.55S-33.19,26.38-33.19,36-54.4,50.18-63.91,50.18" transform="translate(151.53 0)"/><ellipse class="cls-4" cx="201.44" cy="159.74" rx="32.16" ry="30.35"/><ellipse class="cls-4" cx="108.67" cy="168.3" rx="30.43" ry="28.72"/><path class="cls-5" d="M82.59,154.74c-4.48-15.48-17.44-26.56-34.05-26.56a30.07,30.07,0,0,0-26.33,14.91c-2.49,4.08-3.55,9.48-4.93,14.25,0,0,18.79-15.85,39.39-16.45C63.91,140.68,82.59,154.74,82.59,154.74Z" transform="translate(151.53 0)"/><path class="cls-6" d="M-29.9,162.82A14.22,14.22,0,0,1-44.11,177a14.22,14.22,0,0,1-14.21-14.22,14.21,14.21,0,0,1,14.21-14.21A14.21,14.21,0,0,1-29.9,162.82" transform="translate(151.53 0)"/><path class="cls-6" d="M63.12,161.34A12.73,12.73,0,1,1,50.4,148.61a12.72,12.72,0,0,1,12.72,12.73" transform="translate(151.53 0)"/><path class="cls-6" d="M72,34.18A10.75,10.75,0,1,1,61.28,23.43,10.74,10.74,0,0,1,72,34.18" transform="translate(151.53 0)"/><path class="cls-5" d="M-11.93,161.28a31.85,31.85,0,0,0-30.53-22.8A31.85,31.85,0,0,0-73,161.28Z" transform="translate(151.53 0)"/><path class="cls-6" d="M-77.22,31.48a17,17,0,0,0,18,9.59,17,17,0,0,0,14.3-14.51Z" transform="translate(151.53 0)"/><polygon class="cls-5" points="214.46 88.62 215.69 95.62 222.72 96.61 216.45 99.91 217.68 106.89 212.57 101.94 206.3 105.26 209.41 98.91 204.3 94.01 211.34 95 214.46 88.62"/><polygon class="cls-5" points="184.78 74.23 189.28 76.13 192.47 72.43 192.04 77.28 196.54 79.16 191.78 80.27 191.36 85.14 188.85 80.98 184.12 82.11 187.31 78.41 184.78 74.23"/><polygon class="cls-5" points="195.52 86.73 198.13 87.83 199.99 85.68 199.74 88.5 202.34 89.59 199.58 90.23 199.34 93.06 197.89 90.64 195.14 91.3 196.99 89.15 195.52 86.73"/><polygon class="cls-5" points="139.01 70.99 142.8 70.04 143.06 66.14 145.12 69.45 148.89 68.49 146.38 71.49 148.46 74.8 144.85 73.34 142.37 76.34 142.63 72.44 139.01 70.99"/><polygon class="cls-5" points="136.42 305.53 142.22 304.07 142.62 298.11 145.77 303.17 151.55 301.71 147.71 306.3 150.88 311.36 145.36 309.13 141.56 313.72 141.97 307.76 136.42 305.53"/><polygon class="cls-5" points="107.63 309.91 111.15 303.85 106.47 298.63 113.3 300.12 116.8 294.07 117.52 301.05 124.37 302.53 117.98 305.35 118.73 312.3 114.05 307.07 107.63 309.91"/><polygon class="cls-5" points="233.65 346.07 237.17 340.01 232.49 334.79 239.31 336.28 242.82 330.23 243.53 337.21 250.38 338.69 244 341.5 244.74 348.45 240.06 343.23 233.65 346.07"/><polygon class="cls-5" points="251.76 361.44 251.35 355.94 245.99 354.63 251.09 352.57 250.67 347.08 254.24 351.3 259.34 349.21 256.44 353.88 260.01 358.06 254.66 356.74 251.76 361.44"/><polygon class="cls-5" points="265.07 355.27 264.74 350.77 260.35 349.7 264.52 348.01 264.19 343.52 267.1 346.97 271.28 345.26 268.91 349.08 271.84 352.51 267.45 351.43 265.07 355.27"/><polygon class="cls-5" points="263.61 327.74 263.27 323.24 258.89 322.17 263.06 320.48 262.72 315.99 265.64 319.44 269.82 317.73 267.45 321.55 270.37 324.98 265.99 323.9 263.61 327.74"/><polygon class="cls-5" points="200.62 383.56 199.94 374.5 191.12 372.34 199.51 368.95 198.83 359.92 204.7 366.86 213.1 363.43 208.34 371.11 214.22 377.99 205.39 375.83 200.62 383.56"/><polygon class="cls-5" points="84.11 330.06 90.33 323.44 85.94 315.49 94.12 319.37 100.31 312.76 99.17 321.77 107.38 325.64 98.5 327.33 97.41 336.31 93.03 328.36 84.11 330.06"/><polygon class="cls-5" points="78.76 323.54 77.19 318.72 72.12 318.73 76.21 315.77 74.64 310.96 78.75 313.94 82.84 310.96 81.28 315.76 85.39 318.7 80.32 318.71 78.76 323.54"/><polygon class="cls-5" points="43.13 346.88 47.72 341.99 44.48 336.12 50.52 338.99 55.09 334.11 54.24 340.76 60.31 343.62 53.75 344.86 52.95 351.5 49.71 345.62 43.13 346.88"/><path class="cls-3" d="M-92.49,222.61c-21.78-37.44-34.26-107.08-34.26-107.08s-10.8-11.25-7.36-14.84c2.64-2.77,8.1,6.47,8.1,6.47s-3.88-12.13-.8-14,6.43,11.87,6.43,11.87.24-13.65,3-13,3.41,14.77,3.41,14.77,4.73-5.16,7.19-3.16c2.8,2.28-4.44,9.82-4.44,9.82C-100.69,175.15-82,214.64-82,214.64Z" transform="translate(151.53 0)"/><path class="cls-3" d="M-48.09,392.53c-57.1,31-78.11,61.4-86.69,61.07-5.74-.21-19.67-24-16.2-28.87s16.19,9.17,16.19,9.17,38.2-37.65,77.13-53.59Z" transform="translate(151.53 0)"/><path class="cls-3" d="M108.67,210.62c27.13-37.51,47.76-110.26,47.76-110.26s12.67-10.83,9.4-15c-2.52-3.22-9.3,6-9.3,6s5.41-12.48,2.33-14.75-8.1,11.94-8.1,11.94S152,74,148.89,74.45,143.7,89.8,143.7,89.8s-4.49-6-7.31-4.13c-3.22,2.13,3.69,10.92,3.69,10.92C122.42,161,98.37,201,98.37,201s-1.3,5.35,2.82,8.29S108.67,210.62,108.67,210.62Z" transform="translate(151.53 0)"/><path class="cls-3" d="M72.21,383c57.44,18.7,88.49-13.91,96.59-11.06,5.42,1.9,15,26,10.22,29.59s-16-10.77-16-10.77S134.9,423.8,64.55,402.38a14.86,14.86,0,0,1-.3-12.1C67.56,382,72.21,383,72.21,383Z" transform="translate(151.53 0)"/><path class="cls-4" d="M-36.36,249.19c3.48-.05,10.2,11.74,10.55,12.38A28.11,28.11,0,0,1-42.18,261l.2-.6S-39.95,249.23-36.36,249.19Z" transform="translate(151.53 0)"/><path class="cls-7" d="M-25.81,261.57c-.35-.64-7.07-12.43-10.55-12.38S-42,260.35-42,260.35l-.2.6c-8.11-2.91-13.88-10.07-7.55-23.07a31.55,31.55,0,0,1,18.35-16.17l.08.25s4.43,13.54,8.38,13.13,6.63-15.8,6.63-15.8l0-.55c6.1-.4,11.47,0,14.67,0A109.7,109.7,0,0,1,20,221l-.18.73s-.9,16.45,2.34,17.86,13.45-12.31,13.45-12.31l.42-.77c15.47,8,19.68,20.75,13.88,31.74-6.85,13-16.89,11.44-26.81,8-.55-1.72-4.62-14.08-8-14.39-3.57-.31-9.92,8-9.92,8l-.06.37c-10.38-2.27-21.31-2.16-30,1Z" transform="translate(151.53 0)"/><path class="cls-4" d="M15.17,251.85c3.35.31,7.42,12.67,8,14.39-3.26-1.15-6.52-2.51-9.65-3.64a68.91,68.91,0,0,0-8.3-2.4l.06-.37S11.6,251.54,15.17,251.85Z" transform="translate(151.53 0)"/><path class="cls-4" d="M36.07,226.54l-.42.77S25.43,241,22.2,239.62s-2.34-17.86-2.34-17.86L20,221A63.1,63.1,0,0,1,36.07,226.54Z" transform="translate(151.53 0)"/><path class="cls-4" d="M-16.31,218.74l0,.55s-2.71,15.4-6.63,15.8S-31.3,222-31.3,222l-.08-.25A54.59,54.59,0,0,1-16.31,218.74Z" transform="translate(151.53 0)"/><path class="cls-8" d="M34.71,270.89h0c-5.83,0-11.8-2.32-17.58-4.55-1.48-.58-2.94-1.14-4.38-1.66a64.75,64.75,0,0,0-21.59-3.83A44.2,44.2,0,0,0-24,263.3a25.88,25.88,0,0,1-8.78,1.4c-6.82,0-15.55-2.32-19.63-8.82-2.18-3.49-3.82-9.61.73-19,6.73-13.83,20.23-20.56,41.26-20.56,2.29,0,4.36.07,6.12.13,1,0,1.94.07,2.72.08,26.1.34,45.43,7.87,53,20.66a21.88,21.88,0,0,1,.48,22.08C47.78,267.1,42.16,270.89,34.71,270.89ZM-8.84,256.45a68.9,68.9,0,0,1,23.08,4.09c1.47.52,3,1.1,4.48,1.69,5.4,2.09,11,4.25,16,4.25,5.74,0,10-2.93,13.29-9.22a17.62,17.62,0,0,0-.37-17.78C40.83,228,22.86,221.29-1.67,221c-.8,0-1.75,0-2.81-.08-1.71,0-3.74-.12-6-.12-19.18,0-31.38,5.91-37.3,18.08-2.94,6.05-3.26,11-1,14.69,3.12,5,10.25,6.76,15.89,6.76a21.82,21.82,0,0,0,7.26-1.14A48.53,48.53,0,0,1-8.84,256.45Z" transform="translate(151.53 0)"/></g></g></g></svg>