<svg xmlns="http://www.w3.org/2000/svg" xmlns:xlink="http://www.w3.org/1999/xlink" viewBox="0 0 248.47 419.59"><defs><style>.cls-1{fill:none;}.cls-2{clip-path:url(#clip-path);}.cls-3{fill:#67ba66;}.cls-4{fill:#4e914d;}.cls-5{fill:#fff;}.cls-6{fill:#221f20;}.cls-7{fill:#3573b8;}.cls-8{fill:#3f89c3;}.cls-9{fill:#235078;}</style><clipPath id="clip-path" transform="translate(-22.49 -28.56)"><rect class="cls-1" width="150.23" height="479.59"/></clipPath></defs><g id="圖層_2" data-name="圖層 2"><g id="圖層_1-2" data-name="圖層 1"><g class="cls-2"><path class="cls-3" d="M254.6,408.43c-.23-8.7,6.89-131.86,4.23-174-3.3-52.21-33.9-130.54-24.15-158.17,4.24-12,9.22-14.88,17.23-15.2,5.66-.23,12.36-.38,15.58-2.12,3-1.62,4.81-9.16-4.07-18.59-8.59-9.12-15.56-13.43-22.28-10.43-6.11,2.72-5.39,12.72-6.9,19.17-.75,3.16-6.51,6.57-15,8.94-11.25,3.14-24.09-1.09-27.35-2.58-13-5.58-29-8.57-48.55-8.35-15.22.16-28.29,2.47-39.5,7.15-2.46.91-20.16,9.7-31.51,6.88C63.77,59,58.89,51.49,58,48.35c-1.73-6.4-1.34-16.42-7.53-19-6.82-2.8-13.64,1.7-21.93,11.06-8.56,9.68-6.5,17.17-3.45,18.7,3.27,1.65,10,1.61,15.65,1.67,8,.09,9.72,8.26,16.73,19,4.36,6.65,4.67,14.3,4.28,19.11C49.26,127.68,43.13,169.5,40.45,226.79c-2.2,47.13,7.2,172.51,7.13,183S30.86,421,31.59,428c.5,4.72,7,3.21,7,3.21s-6.83,5.27-3.32,8.19,13.64-.62,13.64-.62-5.26,4.32.76,8.53c4.73,3.31,22.65-4.28,29.52-11.26C86.86,428.26,89,422,94.75,412c6.45-11.14,23.5-18.08,47.18-19.92,39.17-3.06,58.87,8.32,65.54,19.36,6,9.9,10.6,16.56,18.47,24.26,7,6.86,22.69,13.74,27.36,10.35,5.94-4.31.58-8.54.58-8.54s10.21,3.37,13.66.39-3.49-8.14-3.49-8.14,6.5,1.4,6.89-3.32C271.53,419.38,254.88,418.93,254.6,408.43Z" transform="translate(-22.49 -28.56)"/><path class="cls-4" d="M143.43,146.43c-24.84,0-42.46-9.45-43.21-9.86a1.67,1.67,0,0,1-.67-2.39,2,2,0,0,1,2.59-.61h0a95.49,95.49,0,0,0,42.9,9.35c35.59-.61,51.09-11.72,51.24-11.83a2,2,0,0,1,2.65.27,1.66,1.66,0,0,1-.29,2.45c-.65.49-16.5,12-53.53,12.6Z" transform="translate(-22.49 -28.56)"/><path class="cls-4" d="M62,178c13.06,7.86,41.22,25.59,61.85-7.13,8.22-13,12.44-27.2,14.82-26.85,3.19.46.21,8.53.21,8.53s2.71-1.07,4.48-.2,1.26,5,1.26,5,2.33-1.35,4.06-.43c2.07,1.1.8,4.36-1,8.72S131.39,207,108.57,215.2c-29.26,10.47-52.82,3.62-58.5.14-12.61-7.71-10.34-28.05-7.89-36.21C44.46,171.57,52.37,172.17,62,178Z" transform="translate(-22.49 -28.56)"/><path class="cls-4" d="M247.64,170.7s10.93,40.07,11.19,63.69c.31,29.09-1.64,40.29-10.76,56.87s-17.51,23-21.7,23.06c-2.83.05,3.51-6.93,3.51-6.93s-7.9,6.38-9.78,4.64,5.69-9.58,5.69-9.58-8.81,8.1-10.38,7c-2.67-1.91,8.79-14.81,8.79-14.81s-10-.16-9.06-3.36,1.45-.94,8.06-5.3,13.13-18.92,13.6-34.41c.61-19.94-7.31-25.16-8.26-45.81S247.64,170.7,247.64,170.7Z" transform="translate(-22.49 -28.56)"/><path class="cls-4" d="M94,79.59C82.42,84.26,78.74,94,86.59,99.07c4.67,3,24.58-2.16,26.52-9.17C115.45,81.39,103.44,75.81,94,79.59Z" transform="translate(-22.49 -28.56)"/><path class="cls-5" d="M94.71,81.46C85,85.38,81.88,93.53,88.47,97.81c3.91,2.54,20.62-1.82,22.24-7.7C112.68,83,102.6,78.29,94.71,81.46Z" transform="translate(-22.49 -28.56)"/><path class="cls-6" d="M101.63,85.21A5.36,5.36,0,0,1,97.69,92a6,6,0,0,1-7.3-3.64,5.37,5.37,0,0,1,3.94-6.76A6,6,0,0,1,101.63,85.21Z" transform="translate(-22.49 -28.56)"/><path class="cls-5" d="M96,84.78a2.24,2.24,0,0,1-1.64,2.82,2.48,2.48,0,0,1-3-1.52A2.24,2.24,0,0,1,93,83.26,2.48,2.48,0,0,1,96,84.78Z" transform="translate(-22.49 -28.56)"/><path class="cls-4" d="M198.43,79.31C186,76.93,177,82.9,180.19,91.25c1.91,5,21.42,11.35,27.37,6.66C214.79,92.21,208.47,81.24,198.43,79.31Z" transform="translate(-22.49 -28.56)"/><path class="cls-5" d="M198,81.39c-10.32-2.36-18.12,2.39-15.7,9.49,1.45,4.22,17.59,10.13,22.74,6.36C211.32,92.67,206.39,83.29,198,81.39Z" transform="translate(-22.49 -28.56)"/><path class="cls-6" d="M201.07,88.25a6,6,0,0,1-7.56,3.15,5.31,5.31,0,0,1-3.41-7,6,6,0,0,1,7.56-3.16A5.31,5.31,0,0,1,201.07,88.25Z" transform="translate(-22.49 -28.56)"/><path class="cls-5" d="M196.9,84.76a2.52,2.52,0,0,1-3.16,1.32,2.22,2.22,0,0,1-1.43-2.92,2.52,2.52,0,0,1,3.16-1.32A2.22,2.22,0,0,1,196.9,84.76Z" transform="translate(-22.49 -28.56)"/><path class="cls-4" d="M203.4,132.89h-.13a.89.89,0,0,1-.81-1h0s.09-1.45-2.3-3.28c-1.58-1.22-2.55-1-2.59-1a1,1,0,0,1-1.18-.55A.86.86,0,0,1,197,126c.19-.07,1.94-.55,4.37,1.31,3.22,2.48,3,4.63,3,4.87A.92.92,0,0,1,203.4,132.89Z" transform="translate(-22.49 -28.56)"/><path class="cls-4" d="M95.82,136.6a1,1,0,0,1-.93-.67c-.06-.24-.51-2.36,2.44-5.11,2.21-2.07,4-1.75,4.21-1.71a.87.87,0,0,1,.7,1,.94.94,0,0,1-1.11.65c-.08,0-1-.09-2.46,1.23-2.19,2.05-1.94,3.48-1.94,3.5a.86.86,0,0,1-.7,1A.75.75,0,0,1,95.82,136.6Z" transform="translate(-22.49 -28.56)"/><path class="cls-7" d="M123.68,61.63c-5.16,2.2-6.61,6.4-3.15,10.18s6.92,4.37,10.7,2.91,6.6-6.4,4.09-10.18S127.77,59.89,123.68,61.63Z" transform="translate(-22.49 -28.56)"/><path class="cls-7" d="M151.36,52.33c-4.4-.24-7.86,1.45-7.55,4.36s1.26,9,5.35,9,10.07-1.75,10.7-5.24S156.71,52.62,151.36,52.33Z" transform="translate(-22.49 -28.56)"/><path class="cls-7" d="M162.06,69.2c-3.05-1.62-7.55-.3-8.49,3.49s-1.89,6.1,1.57,7.27,8.5.29,10.38-2.91S166.47,71.52,162.06,69.2Z" transform="translate(-22.49 -28.56)"/><path class="cls-7" d="M172.45,54.07c-2.87,2.36-3.78,8.15,0,9s7.23.87,9.12-2.33,2.83-6.4-1.26-7.27S175.28,51.74,172.45,54.07Z" transform="translate(-22.49 -28.56)"/><path class="cls-7" d="M142.55,83.16c-3.4,1.57-5.34,3.19-3.77,5.81s3.15,5.53,5.66,4.07,7.24-3.78,5.35-6.39S144.44,82.28,142.55,83.16Z" transform="translate(-22.49 -28.56)"/><path class="cls-7" d="M156.08,94.5c-3.37-.7-5,.29-5,2s0,3.49,2.2,4.37,4.72-1.17,5.35-2.62S158.92,95.08,156.08,94.5Z" transform="translate(-22.49 -28.56)"/><path class="cls-7" d="M124.93,82.86c-3.24.5-4.4,1.46-3.77,3.49a3.83,3.83,0,0,0,4.4,2.91c2.21-.29,4.41-2.32,3.78-4.07A3.92,3.92,0,0,0,124.93,82.86Z" transform="translate(-22.49 -28.56)"/><path class="cls-7" d="M139.41,100c-1.55.29-2.2,1.17-1.89,2s1.89,2,2.83,1.74,3.15-.87,2.52-2.61S141,99.73,139.41,100Z" transform="translate(-22.49 -28.56)"/><path class="cls-7" d="M149.79,105c-2.47-.46-4.4,1.45-4.09,2.91s2.52,3.49,3.46,2.91,3.78-1.17,4.09-3.2S151.36,105.26,149.79,105Z" transform="translate(-22.49 -28.56)"/><path class="cls-7" d="M168.36,83.74c-3.41-.63-5.35,1.45-5.67,3.2s.95,4.36,2.83,4.65,4.41.29,5.35-2.33S171.5,84.32,168.36,83.74Z" transform="translate(-22.49 -28.56)"/><path class="cls-7" d="M115,50.43c-.85,3-1.05,4.89,2.59,5.94,4.4,1.27,10.79.32,13.19-3.17,1.44-2.09,1.51-3.79.27-5.45C130.77,47.33,115.22,49.81,115,50.43Z" transform="translate(-22.49 -28.56)"/><path class="cls-7" d="M151.36,216.21c-16.57.34-44.24,5.58-52.38,54.54-8.5,51,.57,83.34,42,86.37,47.67,3.49,72.68-14,63.72-63.25C196.21,247.21,193.84,215.34,151.36,216.21Z" transform="translate(-22.49 -28.56)"/><path class="cls-7" d="M265.92,54.17c-2.14,2.95-9.91.51-15.2-3.91-5.71-4.78-12-14.74-8.17-17.23s10.62.81,15.44,5.91S269.16,49.67,265.92,54.17Z" transform="translate(-22.49 -28.56)"/><path class="cls-8" d="M260.08,52.61c3.25-4.5-3.1-10.11-7.92-15.22a26,26,0,0,0-6.52-5c3.83-.19,8.9,2.7,12.71,6.74,4.83,5.11,11.17,10.73,7.93,15.23-1.46,2-5.54,1.52-9.67-.41A3.93,3.93,0,0,0,260.08,52.61Z" transform="translate(-22.49 -28.56)"/><path class="cls-7" d="M27,55.23c2.22,2.89,9.92.23,15.05-4.35,5.55-4.94,11.47-15.07,7.6-17.44S39,34.54,34.38,39.78,23.57,50.82,27,55.23Z" transform="translate(-22.49 -28.56)"/><path class="cls-9" d="M32.75,53.51c-3.4-4.41,2.76-10.21,7.41-15.45a25.64,25.64,0,0,1,6.35-5.23c-3.84-.08-8.81,3-12.49,7.1-4.65,5.25-10.81,11-7.41,15.45,1.52,2,5.58,1.36,9.65-.68A4,4,0,0,1,32.75,53.51Z" transform="translate(-22.49 -28.56)"/><path class="cls-4" d="M85.55,77.22a1.36,1.36,0,0,1-.89-1.42c.06-.33.76-3.27,6.69-4.94,4.46-1.25,6.81.25,7.07.42A1.16,1.16,0,0,1,98.75,73a1.58,1.58,0,0,1-2,.15c-.12-.07-1.44-.76-4.28,0-4.41,1.24-5,3.2-5,3.22a1.3,1.3,0,0,1-1.65.88A1.7,1.7,0,0,1,85.55,77.22Z" transform="translate(-22.49 -28.56)"/><path class="cls-4" d="M195.85,72.7a1.3,1.3,0,0,1,.22-1.59c.25-.21,2.61-2,8.06.35,4.09,1.74,4.91,4.27,5,4.55a1.13,1.13,0,0,1-.84,1.5,1.5,1.5,0,0,1-1.57-1.08c-.05-.12-.6-1.43-3.21-2.54-4.05-1.72-5.68-.6-5.7-.59A1.26,1.26,0,0,1,196,73,2.11,2.11,0,0,1,195.85,72.7Z" transform="translate(-22.49 -28.56)"/></g></g></g></svg>