<svg xmlns="http://www.w3.org/2000/svg" xmlns:xlink="http://www.w3.org/1999/xlink" viewBox="0 0 248.47 419.59"><defs><style>.cls-1{fill:none;}.cls-2{clip-path:url(#clip-path);}.cls-3{fill:#67ba66;}.cls-4{fill:#4e914d;}.cls-5{fill:#fff;}.cls-6{fill:#221f20;}.cls-7{fill:#3573b8;}.cls-8{fill:#3f89c3;}.cls-9{fill:#235078;}</style><clipPath id="clip-path" transform="translate(127.74 -28.56)"><rect class="cls-1" width="150.23" height="479.59"/></clipPath></defs><g id="圖層_2" data-name="圖層 2"><g id="圖層_1-2" data-name="圖層 1"><g class="cls-2"><path class="cls-3" d="M104.37,408.43c-.23-8.7,6.9-131.86,4.23-174-3.29-52.21-33.9-130.54-24.15-158.17,4.24-12,9.22-14.88,17.23-15.2,5.66-.23,12.37-.38,15.59-2.12,3-1.62,4.8-9.16-4.08-18.59-8.59-9.12-15.56-13.43-22.28-10.43C84.8,32.6,85.53,42.6,84,49.05c-.74,3.16-6.51,6.57-15,8.94-11.25,3.14-24.09-1.09-27.35-2.58-13-5.58-29-8.57-48.55-8.35-15.22.16-28.29,2.47-39.5,7.15-2.46.91-20.15,9.7-31.51,6.88-8.56-2.13-13.43-9.6-14.28-12.74-1.73-6.4-1.34-16.42-7.54-19-6.82-2.8-13.64,1.7-21.92,11.06-8.57,9.68-6.5,17.17-3.46,18.7,3.28,1.65,10,1.61,15.65,1.67,8,.09,9.73,8.26,16.73,19,4.36,6.65,4.67,14.3,4.29,19.11C-101,127.68-107.1,169.5-109.78,226.79c-2.2,47.13,7.2,172.51,7.13,183s-16.71,11.24-16,18.24c.49,4.72,6.95,3.21,6.95,3.21s-6.82,5.27-3.32,8.19,13.65-.62,13.65-.62-5.27,4.32.75,8.53c4.74,3.31,22.66-4.28,29.53-11.26,7.7-7.83,9.81-14.14,15.6-24.14C-49,400.81-32,393.87-8.3,392c39.17-3.06,58.87,8.32,65.55,19.36,6,9.9,10.6,16.56,18.46,24.26,7,6.86,22.7,13.74,27.36,10.35,5.94-4.31.59-8.54.59-8.54s10.2,3.37,13.65.39-3.48-8.14-3.48-8.14,6.49,1.4,6.89-3.32C121.31,419.38,104.65,418.93,104.37,408.43Z" transform="translate(127.74 -28.56)"/><path class="cls-4" d="M-6.79,146.43c-24.85,0-42.46-9.45-43.22-9.86a1.67,1.67,0,0,1-.66-2.39,2,2,0,0,1,2.58-.61h0a95.49,95.49,0,0,0,42.9,9.35c35.59-.61,51.09-11.72,51.24-11.83a2,2,0,0,1,2.66.27,1.66,1.66,0,0,1-.29,2.45c-.66.49-16.51,12-53.54,12.6Z" transform="translate(127.74 -28.56)"/><path class="cls-4" d="M-88.22,178c13.06,7.86,41.22,25.59,61.85-7.13,8.22-13,12.44-27.2,14.81-26.85,3.19.46.21,8.53.21,8.53s2.72-1.07,4.49-.2,1.26,5,1.26,5,2.32-1.35,4.06-.43c2.06,1.1.8,4.36-1,8.72S-18.84,207-41.65,215.2c-29.27,10.47-52.82,3.62-58.51.14-12.6-7.71-10.34-28.05-7.88-36.21C-105.77,171.57-97.85,172.17-88.22,178Z" transform="translate(127.74 -28.56)"/><path class="cls-4" d="M97.41,170.7s10.94,40.07,11.19,63.69c.32,29.09-1.64,40.29-10.76,56.87s-17.51,23-21.69,23.06c-2.84.05,3.51-6.93,3.51-6.93s-7.9,6.38-9.79,4.64,5.7-9.58,5.7-9.58-8.81,8.1-10.39,7c-2.67-1.91,8.8-14.81,8.8-14.81s-10-.16-9.07-3.36,1.45-.94,8.06-5.3S86.11,267,86.58,251.55c.61-19.94-7.32-25.16-8.26-45.81S97.41,170.7,97.41,170.7Z" transform="translate(127.74 -28.56)"/><path class="cls-4" d="M-56.19,79.59C-67.81,84.26-71.48,94-63.63,99.07c4.67,3,24.58-2.16,26.51-9.17C-34.77,81.39-46.79,75.81-56.19,79.59Z" transform="translate(127.74 -28.56)"/><path class="cls-5" d="M-55.52,81.46c-9.74,3.92-12.83,12.07-6.24,16.35,3.92,2.54,20.63-1.82,22.25-7.7C-37.54,83-47.62,78.29-55.52,81.46Z" transform="translate(127.74 -28.56)"/><path class="cls-6" d="M-48.59,85.21A5.38,5.38,0,0,1-52.53,92a6,6,0,0,1-7.31-3.64,5.38,5.38,0,0,1,3.94-6.76A6,6,0,0,1-48.59,85.21Z" transform="translate(127.74 -28.56)"/><path class="cls-5" d="M-54.2,84.78a2.25,2.25,0,0,1-1.65,2.82,2.48,2.48,0,0,1-3-1.52,2.24,2.24,0,0,1,1.65-2.82A2.49,2.49,0,0,1-54.2,84.78Z" transform="translate(127.74 -28.56)"/><path class="cls-4" d="M48.2,79.31C35.8,76.93,26.73,82.9,30,91.25c1.92,5,21.43,11.35,27.38,6.66C64.57,92.21,58.24,81.24,48.2,79.31Z" transform="translate(127.74 -28.56)"/><path class="cls-5" d="M47.81,81.39C37.49,79,29.68,83.78,32.11,90.88,33.55,95.1,49.7,101,54.84,97.24,61.1,92.67,56.16,83.29,47.81,81.39Z" transform="translate(127.74 -28.56)"/><path class="cls-6" d="M50.85,88.25a6,6,0,0,1-7.57,3.15,5.31,5.31,0,0,1-3.41-7,6,6,0,0,1,7.56-3.16A5.32,5.32,0,0,1,50.85,88.25Z" transform="translate(127.74 -28.56)"/><path class="cls-5" d="M46.67,84.76a2.52,2.52,0,0,1-3.16,1.32,2.22,2.22,0,0,1-1.42-2.92,2.51,2.51,0,0,1,3.15-1.32A2.22,2.22,0,0,1,46.67,84.76Z" transform="translate(127.74 -28.56)"/><path class="cls-4" d="M53.17,132.89H53a.89.89,0,0,1-.8-1h0s.09-1.45-2.3-3.28c-1.59-1.22-2.55-1-2.59-1a1,1,0,0,1-1.18-.55.87.87,0,0,1,.6-1.11c.19-.07,1.95-.55,4.37,1.31,3.23,2.48,3,4.63,3,4.87A.93.93,0,0,1,53.17,132.89Z" transform="translate(127.74 -28.56)"/><path class="cls-4" d="M-54.41,136.6a.93.93,0,0,1-.92-.67c-.07-.24-.51-2.36,2.43-5.11,2.22-2.07,4-1.75,4.21-1.71a.87.87,0,0,1,.7,1,.93.93,0,0,1-1.1.65c-.09,0-1-.09-2.47,1.23-2.19,2.05-1.94,3.48-1.93,3.5a.87.87,0,0,1-.7,1A.82.82,0,0,1-54.41,136.6Z" transform="translate(127.74 -28.56)"/><path class="cls-7" d="M-26.55,61.63c-5.15,2.2-6.61,6.4-3.15,10.18s6.92,4.37,10.7,2.91,6.61-6.4,4.09-10.18S-22.46,59.89-26.55,61.63Z" transform="translate(127.74 -28.56)"/><path class="cls-7" d="M1.14,52.33c-4.41-.24-7.87,1.45-7.55,4.36s1.26,9,5.35,9S9,64,9.63,60.47,6.49,52.62,1.14,52.33Z" transform="translate(127.74 -28.56)"/><path class="cls-7" d="M11.84,69.2c-3.06-1.62-7.56-.3-8.5,3.49S1.45,78.79,4.91,80s8.5.29,10.39-2.91S16.24,71.52,11.84,69.2Z" transform="translate(127.74 -28.56)"/><path class="cls-7" d="M22.22,54.07c-2.87,2.36-3.78,8.15,0,9s7.24.87,9.12-2.33,2.84-6.4-1.25-7.27S25.05,51.74,22.22,54.07Z" transform="translate(127.74 -28.56)"/><path class="cls-7" d="M-7.67,83.16c-3.4,1.57-5.35,3.19-3.78,5.81S-8.3,94.5-5.78,93s7.23-3.78,5.35-6.39S-5.78,82.28-7.67,83.16Z" transform="translate(127.74 -28.56)"/><path class="cls-7" d="M5.86,94.5c-3.38-.7-5,.29-5,2S.82,100,3,100.9s4.72-1.17,5.35-2.62S8.69,95.08,5.86,94.5Z" transform="translate(127.74 -28.56)"/><path class="cls-7" d="M-25.29,82.86c-3.24.5-4.41,1.46-3.78,3.49a3.83,3.83,0,0,0,4.41,2.91c2.2-.29,4.4-2.32,3.77-4.07A3.91,3.91,0,0,0-25.29,82.86Z" transform="translate(127.74 -28.56)"/><path class="cls-7" d="M-10.82,100c-1.54.29-2.2,1.17-1.89,2s1.89,2,2.84,1.74,3.14-.87,2.51-2.61S-9.24,99.73-10.82,100Z" transform="translate(127.74 -28.56)"/><path class="cls-7" d="M-.43,105c-2.47-.46-4.41,1.45-4.1,2.91s2.52,3.49,3.47,2.91,3.77-1.17,4.09-3.2S1.14,105.26-.43,105Z" transform="translate(127.74 -28.56)"/><path class="cls-7" d="M18.13,83.74c-3.41-.63-5.35,1.45-5.66,3.2s.94,4.36,2.83,4.65,4.4.29,5.35-2.33S21.28,84.32,18.13,83.74Z" transform="translate(127.74 -28.56)"/><path class="cls-7" d="M-35.18,50.43c-.86,3-1.06,4.89,2.58,5.94,4.4,1.27,10.8.32,13.19-3.17,1.44-2.09,1.52-3.79.27-5.45C-19.45,47.33-35,49.81-35.18,50.43Z" transform="translate(127.74 -28.56)"/><path class="cls-7" d="M1.14,216.21c-16.58.34-44.24,5.58-52.39,54.54-8.5,51,.58,83.34,42,86.37,47.66,3.49,72.68-14,63.71-63.25C46,247.21,43.62,215.34,1.14,216.21Z" transform="translate(127.74 -28.56)"/><path class="cls-7" d="M115.69,54.17c-2.13,2.95-9.91.51-15.2-3.91C94.79,45.48,88.54,35.52,92.32,33s10.62.81,15.45,5.91S118.94,49.67,115.69,54.17Z" transform="translate(127.74 -28.56)"/><path class="cls-8" d="M109.85,52.61c3.25-4.5-3.09-10.11-7.92-15.22a25.86,25.86,0,0,0-6.52-5c3.83-.19,8.9,2.7,12.72,6.74,4.82,5.11,11.17,10.73,7.92,15.23-1.46,2-5.54,1.52-9.66-.41A3.91,3.91,0,0,0,109.85,52.61Z" transform="translate(127.74 -28.56)"/><path class="cls-7" d="M-123.26,55.23c2.23,2.89,9.92.23,15.06-4.35,5.54-4.94,11.46-15.07,7.59-17.44s-10.59,1.1-15.24,6.34S-126.66,50.82-123.26,55.23Z" transform="translate(127.74 -28.56)"/><path class="cls-9" d="M-117.48,53.51c-3.4-4.41,2.76-10.21,7.41-15.45a25.82,25.82,0,0,1,6.35-5.23c-3.83-.08-8.8,3-12.48,7.1-4.65,5.25-10.81,11-7.41,15.45,1.52,2,5.58,1.36,9.64-.68A4,4,0,0,1-117.48,53.51Z" transform="translate(127.74 -28.56)"/><path class="cls-4" d="M-64.68,77.22a1.34,1.34,0,0,1-.88-1.42c.06-.33.76-3.27,6.69-4.94,4.45-1.25,6.81.25,7.06.42A1.16,1.16,0,0,1-51.48,73a1.58,1.58,0,0,1-2,.15c-.12-.07-1.44-.76-4.28,0-4.41,1.24-5,3.2-5,3.22a1.3,1.3,0,0,1-1.65.88A1.8,1.8,0,0,1-64.68,77.22Z" transform="translate(127.74 -28.56)"/><path class="cls-4" d="M45.62,72.7a1.3,1.3,0,0,1,.23-1.59c.25-.21,2.6-2,8,.35,4.1,1.74,4.91,4.27,5,4.55a1.12,1.12,0,0,1-.84,1.5,1.51,1.51,0,0,1-1.57-1.08c0-.12-.6-1.43-3.21-2.54-4.05-1.72-5.68-.6-5.69-.59A1.27,1.27,0,0,1,45.8,73,2.11,2.11,0,0,1,45.62,72.7Z" transform="translate(127.74 -28.56)"/></g></g></g></svg>