<svg xmlns="http://www.w3.org/2000/svg" xmlns:xlink="http://www.w3.org/1999/xlink" width="680" height="700" viewBox="0 0 680 700"><defs><linearGradient id="a" x1="-0.255" y1="1.092" x2="1.758" y2="-0.373" gradientUnits="objectBoundingBox"><stop offset="0" stop-color="#fff"/><stop offset="1" stop-color="gray"/></linearGradient></defs><rect width="627.55" height="646.076" transform="translate(26.864 25.023)" opacity="0.299" fill="url(#a)"/><path d="M764.828,810.135V430.126H690.778l-24.355,23.765H505.295L469.37,430.126H110V637.765l11.848,17.118V924.553L110,948.851v154.341H318.52l14.5-20.945h203.13l14.217,20.542-21.328.4H764.828v-59.478l-6.411-9.265V818.821Zm-3.949,235.941v51.409h-208.6l-14.5-20.945H331.38l-14.5,20.945H113.95V950.659l11.847-24.3V652.52L113.95,635.4V438.37h354.56l35.924,23.764h163.2l24.355-23.764h68.893V807.663l-6.412,8.686v220.463Z" transform="translate(-97.253 -417.451)" fill="url(#a)"/><path d="M109.228,641.587l-7.646-9.94V613.755l-4.893-4.893V812.4l5.2,5.2V804.139l7.34-13.3Z" transform="translate(-91.281 -337.664)" fill="url(#a)"/><path d="M1092.911,426.46l9.251-8.613v59.623l-9.251,12.123Z" transform="translate(-422.163 -411.942)" fill="url(#a)"/><path d="M1101.921,423.262l-6.652,6.193v58.721l6.652-8.716Z" transform="translate(-423.22 -414.372)" fill="url(#a)"/><path d="M1092.911,611.159l9.251-8.613v59.623l-9.251,12.123Z" transform="translate(-422.163 -402.554)" fill="url(#a)"/><path d="M1101.921,607.961l-6.652,6.193v58.721l6.652-8.716Z" transform="translate(-423.22 -404.302)" fill="url(#a)"/><path d="M1101.921,797.1l-6.652,6.193V960.911l6.652-8.716Z" transform="translate(-423.22 -292.297)" fill="url(#a)"/><rect width="1.376" height="60.556" transform="translate(673.367 115.042)" fill="url(#a)"/><rect width="1.376" height="60.556" transform="translate(675.661 115.042)" fill="url(#a)"/><path d="M1083.7,826.719V955l-4.244-4.33V830.7Z" transform="translate(-416.129 -305.585)" fill="url(#a)"/><path d="M655.5,437.475H827.288L826,439.616H658.1Z" transform="translate(-225.942 -420.748)" fill="url(#a)"/><rect width="180.75" height="1.835" transform="translate(245.801 677.253)" fill="url(#a)"/><rect width="186.914" height="1.835" transform="translate(243.473 681.573)" fill="url(#a)"/><rect width="9.381" height="9.381" transform="translate(13.456 0)" fill="url(#a)"/><rect width="9.381" height="9.381" transform="translate(0 0)" fill="url(#a)"/><rect width="9.381" height="9.381" transform="translate(0 13.368)" fill="url(#a)"/><ellipse cx="3.441" cy="3.441" rx="3.441" ry="3.441" transform="translate(42.719 0.518)" fill="url(#a)"/><ellipse cx="3.441" cy="3.441" rx="3.441" ry="3.441" transform="translate(60.305 0.518)" fill="url(#a)"/><ellipse cx="3.441" cy="3.441" rx="3.441" ry="3.441" transform="translate(77.891 0.518)" fill="url(#a)"/><ellipse cx="3.441" cy="3.441" rx="3.441" ry="3.441" transform="translate(95.476 0.518)" fill="url(#a)"/><ellipse cx="3.441" cy="3.441" rx="3.441" ry="3.441" transform="translate(607.937 0.518)" fill="url(#a)"/><ellipse cx="3.441" cy="3.441" rx="3.441" ry="3.441" transform="translate(625.523 0.518)" fill="url(#a)"/><ellipse cx="3.441" cy="3.441" rx="3.441" ry="3.441" transform="translate(643.109 0.518)" fill="url(#a)"/><ellipse cx="3.441" cy="3.441" rx="3.441" ry="3.441" transform="translate(660.694 0.518)" fill="url(#a)"/><path d="M98.491,1091.873v-38.765l-8.181-10.093v57.039h57.039l-9.175-8.181Z" transform="translate(-88.42 -402.615)" fill="url(#a)"/><path d="M219.2,1133.424h4.664l3.747,5.582-4.167,4.167h-2.714l4.052-4.4-1.835-3.9h-3.058Z" transform="translate(-146.238 -443.172)" fill="url(#a)"/><path d="M236.637,1133.424H241.3l3.746,5.582-4.167,4.167h-2.714l4.052-4.4-1.835-3.9h-3.058Z" transform="translate(-154.062 -443.172)" fill="url(#a)"/><path d="M254.941,1133.424H259.6l3.747,5.582-4.167,4.167H256.47l4.052-4.4-1.835-3.9h-3.058Z" transform="translate(-162.273 -443.172)" fill="url(#a)"/><path d="M1080.315,1143.172h-4.664l-3.746-5.582,4.167-4.167h2.714l-4.052,4.4,1.835,3.9h3.058Z" transform="translate(-412.739 -443.172)" fill="url(#a)"/><path d="M1062.875,1143.172h-4.664l-3.747-5.582,4.167-4.167h2.714l-4.052,4.4,1.835,3.9h3.058Z" transform="translate(-404.916 -443.172)" fill="url(#a)"/><path d="M1044.571,1143.172h-4.664l-3.746-5.582,4.167-4.167h2.714l-4.052,4.4,1.835,3.9h3.058Z" transform="translate(-396.705 -443.172)" fill="url(#a)"/><rect width="1.376" height="15.292" transform="translate(429.437 18.557) rotate(-54.287)" fill="url(#a)"/><rect width="1.376" height="15.292" transform="translate(457.207 18.557) rotate(-54.287)" fill="url(#a)"/><rect width="1.376" height="15.292" transform="translate(485.909 18.557) rotate(-54.287)" fill="url(#a)"/><rect width="1.376" height="15.292" transform="translate(514.552 18.557) rotate(-54.287)" fill="url(#a)"/><rect width="1.376" height="15.292" transform="translate(543.253 18.557) rotate(-54.287)" fill="url(#a)"/></svg>