<svg xmlns="http://www.w3.org/2000/svg" xmlns:xlink="http://www.w3.org/1999/xlink" viewBox="0 0 531.34 452.2"><defs><style>.cls-1{fill:none;}.cls-2{isolation:isolate;}.cls-3{clip-path:url(#clip-path);}.cls-4{fill:#854787;}.cls-5{fill:#c596c2;}.cls-6{fill:#422146;}.cls-7{fill:#5d2176;opacity:0.2;mix-blend-mode:multiply;}.cls-8{fill:#fff;}.cls-9{fill:#1d110c;}.cls-10{fill:#6c506d;}</style><clipPath id="clip-path" transform="translate(0 20.3)"><rect class="cls-1" width="288.12" height="431.9"/></clipPath></defs><g class="cls-2"><g id="圖層_2" data-name="圖層 2"><g id="圖層_1-2" data-name="圖層 1"><g class="cls-3"><path class="cls-4" d="M159.56,117.13c-3.08,3.39-6.1,6.93-8.91,10.64-24.75-17.58-62.74,33.17-62.74,33.17-9.74-55.36-59.45-38-59.45-38C32.62,91.82,0,81.14,0,81.14c8.49-25,67.32-66.83,77-69.46S90.86,24.4,107,52.1C129.3,90.44,153.08,111.72,159.56,117.13Z" transform="translate(0 20.3)"/><path class="cls-4" d="M531.34,36.53s-30.61,15.6-21.7,45.65c0,0-51.76-9.46-52.87,46.77,0,0-47-45.9-68.25-22q-5.46-4.11-11.34-7.8l.56-.87s24.47-25.58,43.4-74c11.68-29.85,13.38-45.66,23.4-44.55S519.1,13.17,531.34,36.53Z" transform="translate(0 20.3)"/><path class="cls-5" d="M388.52,107c60.84,45.51,87,123.82,68.25,182.27-27.83,86.83-151.76,116.12-230.45,98-70.5-16.29-122.43-72.35-111.3-165.87,4.43-37.2,16.77-68.92,35.63-93.56,2.81-3.71,5.83-7.25,8.91-10.64C188,86.41,228.09,69.33,276.41,70c39.25.48,73.11,11.58,100.77,29.22Q383.06,102.86,388.52,107Z" transform="translate(0 20.3)"/><path class="cls-5" d="M286,72.49s-30.82-37.15-39-29,4.53,15.41,4.53,15.41-21.75-2.72-22.66,5.44,26.28,6.34,26.28,6.34S238.83,84.28,247,95.15s22.65-10.87,22.65-10.87" transform="translate(0 20.3)"/><path class="cls-6" d="M411.54,47.26A143.79,143.79,0,0,1,422,57.86c2.92,3.38,6.41,7.26,9.71,11.78,1.71,2.22,3.38,4.57,5,7s3.29,4.93,4.88,7.45,2.95,5.22,4.4,7.77,2.62,5.23,3.81,7.78,2.12,5.11,3,7.53l2.17,6.94c.46,2.2.89,4.21,1.27,6a35.82,35.82,0,0,1,.6,4.69c.22,2.61.35,4.1.35,4.1a.43.43,0,0,1-.86.12V129s-.3-1.44-.82-4a36.31,36.31,0,0,0-1-4.5c-.5-1.71-1.07-3.64-1.7-5.74s-1.62-4.28-2.5-6.63-2.19-4.68-3.26-7.2-2.54-5-3.87-7.52c-1.49-2.48-2.9-5-4.48-7.52s-3.05-5-4.72-7.38-3.2-4.76-4.85-7c-3.23-4.46-6.3-8.6-9.05-12.06s-5-6.36-6.74-8.31l-2.62-3.09a.6.6,0,0,1,.06-.83A.62.62,0,0,1,411.54,47.26Z" transform="translate(0 20.3)"/><path class="cls-6" d="M421,28.19a150.24,150.24,0,0,1,16.17,4c4.75,1.54,10.34,3.25,16.1,5.7,2.91,1.15,5.87,2.46,8.85,3.86s6,2.91,8.93,4.45,5.76,3.42,8.59,5.09c2.73,1.86,5.43,3.67,8,5.52s4.84,3.86,7,5.81,4,3.91,5.78,5.71l4.35,5.33A37.48,37.48,0,0,1,507.62,78L510,82a.46.46,0,0,1-.14.61.44.44,0,0,1-.57-.11l0,0-2.76-3.59a35.92,35.92,0,0,0-3.23-4l-4.59-4.87c-1.79-1.68-3.83-3.4-5.91-5.27s-4.64-3.45-7-5.36-5.18-3.47-7.87-5.24c-2.82-1.59-5.6-3.32-8.51-4.82s-5.77-3.14-8.72-4.46S454.85,42,452,40.84c-5.67-2.43-11-4.57-15.67-6.27s-8.54-3.06-11.31-3.89l-4.33-1.36a.58.58,0,0,1,.27-1.13Z" transform="translate(0 20.3)"/><path class="cls-6" d="M120.29,74.78l-2.06,3.44c-1.35,2.17-3.08,5.39-5.26,9.17S108.5,95.74,106,100.6c-1.25,2.42-2.46,5-3.64,7.57s-2.27,5.29-3.45,7.94-2.14,5.39-3.2,8c-.89,2.7-1.77,5.36-2.63,7.94-.65,2.63-1.48,5.13-2.07,7.54s-1,4.73-1.43,6.86-.55,4.12-.78,5.86a35.07,35.07,0,0,0-.3,4.56c-.13,2.54-.19,4-.19,4V161a.44.44,0,0,1-.45.42.44.44,0,0,1-.42-.41s-.1-1.47-.29-4.05a37.33,37.33,0,0,1-.13-4.67c.1-1.81.2-3.85.32-6.07.32-2.2.68-4.59,1-7.11s1.09-5.12,1.75-7.82,1.64-5.4,2.51-8.18c1-2.72,2-5.54,3.09-8.27s2.3-5.44,3.6-8,2.51-5.19,3.82-7.62c2.51-4.93,5.31-9.28,7.62-13a141.83,141.83,0,0,1,8.53-12,.59.59,0,0,1,.82-.09A.6.6,0,0,1,120.29,74.78Z" transform="translate(0 20.3)"/><path class="cls-6" d="M107.44,57.63l-4,1.93c-2.53,1.19-6,3.14-10.29,5.36s-9,5.13-14.13,8.27c-2.56,1.54-5.14,3.24-7.73,5s-5.11,3.71-7.72,5.54-5,3.92-7.46,5.85c-2.32,2.1-4.65,4.11-6.79,6.17s-4.17,4.12-6,6.17-3.43,4-4.9,5.91-2.6,3.75-3.71,5.33a40.78,40.78,0,0,0-2.51,4.34c-1.35,2.45-2.13,3.84-2.13,3.84l0,.06a.44.44,0,0,1-.59.17.45.45,0,0,1-.19-.55l1.73-4.11a39,39,0,0,1,2.18-4.65c1-1.71,2.15-3.64,3.4-5.74s3-4.09,4.71-6.34,3.76-4.35,5.83-6.6,4.5-4.27,6.84-6.46C56.51,85.12,59,83,61.54,81s5.22-3.87,7.93-5.57,5.3-3.45,7.93-5c5.18-3.18,10.31-5.61,14.65-7.77a141.28,141.28,0,0,1,15-6.13.58.58,0,0,1,.73.37A.6.6,0,0,1,107.44,57.63Z" transform="translate(0 20.3)"/><path class="cls-7" d="M244,148.32A25.7,25.7,0,1,0,218.26,174,25.7,25.7,0,0,0,244,148.32Z" transform="translate(0 20.3)"/><path class="cls-7" d="M353.45,140.06a25.7,25.7,0,1,0-25.69,25.7A25.69,25.69,0,0,0,353.45,140.06Z" transform="translate(0 20.3)"/><circle class="cls-8" cx="218.92" cy="167.42" r="23.75"/><path class="cls-8" d="M350.28,139a23.75,23.75,0,1,0-23.75,23.75A23.75,23.75,0,0,0,350.28,139Z" transform="translate(0 20.3)"/><path class="cls-9" d="M223.37,147.11c0,3.16-1.83,5.71-4.08,5.71s-4.08-2.55-4.08-5.71,1.83-5.71,4.08-5.71S223.37,144,223.37,147.11Z" transform="translate(0 20.3)"/><path class="cls-9" d="M330.61,140.06c0,3.16-1.83,5.71-4.08,5.71s-4.08-2.55-4.08-5.71,1.82-5.71,4.08-5.71S330.61,136.91,330.61,140.06Z" transform="translate(0 20.3)"/><path class="cls-8" d="M335.45,175.19l.34.86s-7.8,21.53-8.9,21.53-10.75-16.33-10.75-16.33l0-.2A138.07,138.07,0,0,0,335.45,175.19Z" transform="translate(0 20.3)"/><path class="cls-8" d="M231.9,198.31c-3-.35-14.83-16.67-14.83-16.67l.24-.91a169.33,169.33,0,0,0,19.45,3.54l0,.32S234.89,198.69,231.9,198.31Z" transform="translate(0 20.3)"/><path class="cls-4" d="M251.69,382.73s-.37,22.64,1.48,26.72c7.19,15.81,11.69-8.91,23.38-8.35,4.51.21,11.5,28.39,7.05,30.61s-11.87-16.32-11.87-16.32S267.94,433.13,251,431c-23.38-3-22.27-50.46-22.27-50.46S244.32,376.78,251.69,382.73Z" transform="translate(0 20.3)"/><path class="cls-4" d="M366.73,368.61s3.64,22.35,6.19,26c9.87,14.29,9.92-10.83,21.53-12.35,4.48-.58,16.34,25.91,12.35,28.88s-14.58-14-14.58-14-.58,18.14-17.69,19c-23.54,1.22-30.83-45.73-30.83-45.73S356.84,362.69,366.73,368.61Z" transform="translate(0 20.3)"/><path class="cls-4" d="M196.5,243.53s10.48,22,22.58,17.2c5.18-2.07,7.63-9.56,7.63-9.56s-4.19-7.23-2-10.7,6.22,3.61,6.22,3.61,4.63-13.74,8.1-12.43-1.45,12.87-1.45,12.87,5.79-13.31,8.39-10.7-2.31,12.87-2.31,12.87,6-11.31,7.7-8.27-9.68,42.87-34.27,40.86c-29.4-2.41-32.43-31.73-32.43-31.73S189.24,241.38,196.5,243.53Z" transform="translate(0 20.3)"/><path class="cls-4" d="M361.44,229.39s-5.36,23.8-18.22,21.76c-5.51-.88-9.56-7.64-9.56-7.64s2.5-8-.38-10.89-5.27,4.9-5.27,4.9-7.55-12.37-10.65-10.34,4.26,12.24,4.26,12.24-8.58-11.7-10.55-8.59,5.11,12,5.11,12-8.32-9.71-9.34-6.37,18.9,39.68,42.44,32.28c28.14-8.85,24.63-38.1,24.63-38.1S368,225.68,361.44,229.39Z" transform="translate(0 20.3)"/><path class="cls-10" d="M285.25,73.08c-3.82-4.38-7.82-8.63-11.95-12.7a133.35,133.35,0,0,0-13-11.47,33.86,33.86,0,0,0-7.17-4.29,7.78,7.78,0,0,0-3.52-.69c-1,.1-1.49.59-2.43,1.76a6,6,0,0,0-1.31,3.11,5.77,5.77,0,0,0,.83,3.27,16.31,16.31,0,0,0,5.62,5.38,1.67,1.67,0,0,1,.57,2.3,1.69,1.69,0,0,1-1.61.81,58.22,58.22,0,0,0-13.06-.06,16.31,16.31,0,0,0-5.8,1.64,3.79,3.79,0,0,0-1.65,1.59,2.65,2.65,0,0,0-.23.91v.42s.05,0,.06.08.07.18.11.29a4,4,0,0,0,1.79,1.46,15,15,0,0,0,2.86,1,41.15,41.15,0,0,0,6.39,1,97.78,97.78,0,0,0,13.26.15,1.62,1.62,0,0,1,.48,3.19h0c-4,1-8.28,2.53-11.07,5.18a4.81,4.81,0,0,0-1.61,4.63A7.21,7.21,0,0,0,244,84.61c.12.18.29.46.38.57l.53.64a10.27,10.27,0,0,0,1,1c2.94,2.56,7.39,2.74,11.47,1.77a40.23,40.23,0,0,0,11.8-5.06l0,0a.92.92,0,0,1,1.26.3.91.91,0,0,1-.27,1.24,41.93,41.93,0,0,1-12.27,5.81,20.79,20.79,0,0,1-7,.74,12.22,12.22,0,0,1-6.8-2.67,13.33,13.33,0,0,1-1.38-1.31L242.2,87c-.27-.32-.38-.52-.58-.78A10.17,10.17,0,0,1,240,82.73a7.25,7.25,0,0,1,.16-4.07,9,9,0,0,1,2.1-3.34,20.1,20.1,0,0,1,6-4,36.21,36.21,0,0,1,6.58-2.25l.45,3.19a100.16,100.16,0,0,1-13.75-.07,43.17,43.17,0,0,1-6.95-1.07A18.32,18.32,0,0,1,231,69.93a7.21,7.21,0,0,1-3.29-2.85,4.76,4.76,0,0,1-.48-1.28c-.05-.24-.09-.52-.12-.75v-.42a6,6,0,0,1,.53-2.35,7.23,7.23,0,0,1,3-3.13,18.92,18.92,0,0,1,7.11-2.06,62.18,62.18,0,0,1,13.91.15l-1,3.11a22.25,22.25,0,0,1-3.79-2.88,15.73,15.73,0,0,1-3.05-3.81,8.57,8.57,0,0,1,.84-10,10.23,10.23,0,0,1,1.82-1.88,5.69,5.69,0,0,1,2.82-1,10.66,10.66,0,0,1,5,1,37.34,37.34,0,0,1,7.75,4.83,118.81,118.81,0,0,1,13,12.06q6,6.41,11.6,13.25a.91.91,0,0,1-.13,1.28A.94.94,0,0,1,285.25,73.08Z" transform="translate(0 20.3)"/><path class="cls-9" d="M187.15,166.11l.44.34a11.27,11.27,0,0,0,1.28.9,40.18,40.18,0,0,0,5.09,2.93l3.81,1.9,4.71,1.78c1.71.6,3.45,1.38,5.4,1.93l6.16,1.66c2.15.53,4.34,1.31,6.71,1.69l7.34,1.23c2.52.4,5.1.89,7.75,1.25l8.2.65c5.56.41,11.29,1.11,17.18.85l17.74-.1c6-.45,12.1-.59,17.82-1.41,5.79-.55,11.46-1.63,16.93-2.63l8-1.86c2.59-.66,5.07-1.47,7.52-2.17a111.46,111.46,0,0,0,13.3-5.22A96.51,96.51,0,0,0,353,164a61.33,61.33,0,0,0,7.26-5.69,36.58,36.58,0,0,0,4-4.29,14.89,14.89,0,0,0,1.14-1.6,1.37,1.37,0,0,1,2.42,1.28,17.26,17.26,0,0,1-1.26,2,38.15,38.15,0,0,1-4.09,4.85,64.39,64.39,0,0,1-7.39,6.4,81.23,81.23,0,0,1-10.76,6.57,116.75,116.75,0,0,1-13.68,5.8c-2.5.79-5.06,1.7-7.71,2.46l-8.19,2.06c-5.62,1.08-11.41,2.24-17.43,2.87-6,.91-12,1.07-18,1.58h-18.2c-6,.21-11.85-.56-17.54-1l-8.37-.76c-2.71-.45-5.35-1-7.93-1.51l-7.49-1.47c-2.42-.47-4.68-1.34-6.88-2l-6.3-1.91c-2-.68-3.78-1.58-5.5-2.29l-4.8-2.1-3.89-2.2a42.25,42.25,0,0,1-5.33-3.46,11.53,11.53,0,0,1-1.29-1l-.42-.36a1.37,1.37,0,0,1,1.73-2.12Z" transform="translate(0 20.3)"/></g></g></g></g></svg>