<svg xmlns="http://www.w3.org/2000/svg" xmlns:xlink="http://www.w3.org/1999/xlink" viewBox="0 0 460.78 460.52"><defs><style>.cls-1{fill:none;}.cls-2{clip-path:url(#clip-path);}.cls-3{fill:#f4a027;}.cls-4{fill:#975039;}.cls-5{fill:#fff;}.cls-6{fill:#ed7223;}.cls-7{fill:#3573b8;}.cls-8{fill:#8d4623;fill-rule:evenodd;}</style><clipPath id="clip-path" transform="translate(270.43 0)"><rect class="cls-1" width="197.42" height="476.33"/></clipPath></defs><g id="圖層_2" data-name="圖層 2"><g id="圖層_1-2" data-name="圖層 1"><g class="cls-2"><path class="cls-3" d="M21.17,55.46c-46.8-6.3-106.35-10.6-143.82,97.65-33.5,96.78-34.76,248.42-34.76,248.42L78.6,405s-13-58.09-2.83-134.89,25-125.84,19.43-151.75S69.29,61.93,21.17,55.46Z" transform="translate(270.43 0)"/><path class="cls-3" d="M-151.4,348.09s-6.48,49.5-8.33,68-2.77,23.13,7.41,25.91,18.5,5.55,20.82,2.78-.47-5.36-.47-5.36,7,3.69,10.58.28c3.18-3-1-7.06-1-7.06s5.7,3.54,8,.77.28-4.6-1.25-5.88c-3.39-2.84-12.69-5.89-10.83-11.44s21.28-28.68,21.28-28.68Z" transform="translate(270.43 0)"/><path class="cls-3" d="M17,350.58s14.67,34.09,24.08,58.69c6.64,17.37,9.71,29,20.16,30.43s19.07,3.16,21,.11-1.14-5.25-1.14-5.25,7.42,2.77,10.53-1.07c2.76-3.43-1.86-6.88-1.86-6.88s6.11,2.78,8-.26-.3-4.6-2-5.67c-3.72-2.38-10.36-4.42-12.2-10-6.55-19.68-13-55.52-13-55.52Z" transform="translate(270.43 0)"/><path class="cls-3" d="M-99.07,128.82c-8.42.71-80.58,57.78-123.5,124.21-29.47,45.61-49.75,142.16-47.72,165.6,1.41,16.14,9.83,24.56,15.44,24.56s10.53-16.14,10.53-16.14,4.92,16.41,16.14,14.73c14-2.1,10.52-16.14,10.52-16.14s9.12,14,18.95,9.83,5.61-17.55.7-35.79-7.75-55.45,14-113.67c38.6-103.15,86.31-128.42,86.31-128.42Z" transform="translate(270.43 0)"/><path class="cls-3" d="M56.6,111.61c8.16,1.8,71.34,67.26,104.63,138,22.86,48.59,36,133.16,24.89,168.61-4.8,15.28-12.87,22.77-18.37,22s-8.18-17.21-8.18-17.21-7,15.44-17.77,12.31c-13.47-3.92-8.18-17.21-8.18-17.21s-10.8,12.55-19.87,7.13S109,408,119.54,392.53c11.8-17.35,17.82-55.95,4.16-115.89-24.2-106.2-72.28-137-72.28-137Z" transform="translate(270.43 0)"/><path class="cls-3" d="M-48.4,64.29s2.77-8.24,1.39-22.21c-2-20.17-12.47-26.34-12.47-26.34S-56.77,2.44-43.14.32c17.89-2.77,20.05,13.27,20.05,13.27a33.71,33.71,0,0,0-7.27,16.69c-1.82,13.23,0,28.45,0,28.45Z" transform="translate(270.43 0)"/><path class="cls-4" d="M-50.9,16.29h-.27A2.09,2.09,0,0,1-53.08,14c.22-2.76,2.73-8.14,10.69-8.8,12.86-1.07,14.28,7,14.33,7.33a1.75,1.75,0,0,1-1.64,1.77,2.38,2.38,0,0,1-2.47-1.12c0-.14-1-4.56-9.87-3.83-6.23.51-6.84,4.55-6.89,5A2.08,2.08,0,0,1-50.9,16.29Z" transform="translate(270.43 0)"/><path class="cls-3" d="M49.36,78.65s7.51-4.36,15.71-15.76c11.83-16.45,8-28,8-28s10.83-8.19,22.46-.78c15.26,9.74,6.29,23.2,6.29,23.2A33.83,33.83,0,0,0,85.36,65C75.26,73.76,66.57,86.4,66.57,86.4Z" transform="translate(270.43 0)"/><path class="cls-4" d="M79.19,41,79,40.78a2.1,2.1,0,0,1,.06-3c2-1.92,7.43-4.3,13.84.46C103.24,46,99,53,98.8,53.25a1.76,1.76,0,0,1-2.41.24A2.38,2.38,0,0,1,95.28,51c.07-.13,2.23-4.11-4.88-9.4-5-3.72-8.14-1.1-8.48-.79A2.06,2.06,0,0,1,79.19,41Z" transform="translate(270.43 0)"/><path class="cls-5" d="M73.74,99.24c-6.91-11.83-31.92,7.64-66.23,1.07C-15,96-37.12,67.86-49,77s.07,47.25,36.63,58C47.37,152.68,85.39,119.19,73.74,99.24Z" transform="translate(270.43 0)"/><path class="cls-4" d="M73.74,99.34c-2.23-3.82-6.35-4.37-12.06-3.6.89,3.08,2.08,10.06-5.11,10.88-7,.8-6.94-5.44-6.5-8.53-4.59,1-9.72,2.13-15.32,2.86.5,3,.57,9.17-6.56,10.29s-6.89-5.78-6.31-9.45a79.36,79.36,0,0,1-14.37-1.38c-.9-.18-1.81-.39-2.71-.64-1.17,2-6.19,9.9-12.39,5.41-5.38-3.9-2.42-8.86-.67-11-4.76-2.66-9.4-5.77-13.8-8.69-1.51,1.42-9,7.88-14.21,2.3-4.1-4.36-1-8.18,1.3-10.08-5.5-2.63-10.29-3.47-14.05-.58-6.14,4.73-5.92,17.15.75,29.56.93-1.79,3.08-4,7.57-1.44,5.42,3.08,2.2,10.18.67,12.93a59.54,59.54,0,0,0,13.58,10.91c.68-2.77,3-8.57,9.92-4.92,5.91,3.11,5,7.92,3.62,10.83l.52.16a121.68,121.68,0,0,0,20.78,4.28c.13-2.62,1.42-7.41,9.31-6.87,7.54.51,8.61,4.81,8.57,7.36a81,81,0,0,0,20-3.75c-1.09-2.7-1.6-7,3.65-10.69,6.67-4.67,9.67,1.4,10.59,4C73.82,120.83,79.16,108.62,73.74,99.34Z" transform="translate(270.43 0)"/><path class="cls-4" d="M-56.55,89.92a.93.93,0,0,1-.93-.85c0-.55-.87-13.41,7.25-17.11,8.43-3.83,17.67,3.05,18.06,3.35A.91.91,0,0,1-32,76.6a.92.92,0,0,1-1.29.18c-.09-.06-8.77-6.5-16.18-3.13-7,3.17-6.18,15.16-6.17,15.28a.92.92,0,0,1-.86,1Z" transform="translate(270.43 0)"/><path class="cls-4" d="M77.15,117.45a.94.94,0,0,1-.5-.15.92.92,0,0,1-.27-1.28c.06-.08,5.6-8.84.48-16.32-2.43-3.53-7.09-4.94-7.14-5A.93.93,0,0,1,70.24,93c.22.06,5.34,1.6,8.14,5.68,5.84,8.51-.19,18-.45,18.38A.93.93,0,0,1,77.15,117.45Z" transform="translate(270.43 0)"/><path class="cls-6" d="M-139.33,216.06s20.84-7.43,25.7,3,11.1,32.61,1.39,41.64-34.7,5.55-34.7,5.55,1.33-13.75,3.47-25.68C-141.39,229-139.33,216.06-139.33,216.06Z" transform="translate(270.43 0)"/><path class="cls-6" d="M-87.95,271.78c-13.88,4.16-21.52,3.47-16,16s17.34,22.9,22.9,20.82,20.12-18,18-25.68S-81,269.7-87.95,271.78Z" transform="translate(270.43 0)"/><path class="cls-6" d="M-134.45,300.23c11.76-2.94,18.74-6.24,27.76,2.78s18.74,19.43,7.63,31.92-27.06,18-35.39,13.18-15.27-29.14-11.8-35.39S-137.22,300.93-134.45,300.23Z" transform="translate(270.43 0)"/><path class="cls-6" d="M72,340.46c-2.78,0-21.85,0-26.7,7.65s-11.11,19.43-4.86,24.29,22.86,13,28.45,13.19c3.57.13,8.12-.1,8.12-.1a143.21,143.21,0,0,1-3.16-19.67C72.78,354.91,72,340.46,72,340.46Z" transform="translate(270.43 0)"/><path class="cls-6" d="M34.18,268.31c-12.23,1.22-18,6.94-13.88,16s9.72,16,16,15.27,18.05-2.08,19.44-11.8S41.12,267.62,34.18,268.31Z" transform="translate(270.43 0)"/><path class="cls-6" d="M43.2,310c-14-2.81-18,4.85-14.57,11.1s6.94,10.41,13.19,9,19.43-2.77,18-9.71S50.14,311.33,43.2,310Z" transform="translate(270.43 0)"/><path class="cls-6" d="M74,286.17s-24.54-10.92-23.15-24.8,8.33-25.68,14.57-27.06,15.14,2.89,15.14,2.89-1,9-2.93,20.52C75.38,271.13,74,286.17,74,286.17Z" transform="translate(270.43 0)"/><path class="cls-6" d="M-86.57,237.78c-7.85,2-13.18,8.32-8.32,13.18s11.79,8.33,16,5.55,11.8-9,6.24-14.57S-81,236.39-86.57,237.78Z" transform="translate(270.43 0)"/><path class="cls-6" d="M-156.74,377.35s9.8-12.58,16.05-5,10.41,16.66,5.55,24.29-23.41,8.65-23.41,8.65Z" transform="translate(270.43 0)"/><path class="cls-6" d="M-112.4,132.26s-2.62,17.38,9.18,19.46,25-4.85,26.37-9.71-4.86-27.76-9.72-30.53-16-2.78-16-2.78a91.15,91.15,0,0,0-5.19,9.25A57.53,57.53,0,0,0-112.4,132.26Z" transform="translate(270.43 0)"/><path class="cls-6" d="M89.42,185.62c-5.55-3.47-10.82-4.75-13.6-3.36s-11.1,5.55-8.33,13.18,15.76,21.62,16.76,18.94C85.18,211.91,89.42,185.62,89.42,185.62Z" transform="translate(270.43 0)"/><path class="cls-6" d="M-251.94,322s.91,17.08,13.4,15.69,25.67-7.63,24.29-15.26-10.41-25.68-16-25.68-16.68,9.53-16.68,9.53Z" transform="translate(270.43 0)"/><path class="cls-6" d="M-214.25,282.88c-.88,7.87,8.32,11.8,10.41,11.11s11.79-7.64,11.79-11.8-4.16-11.11-11.79-11.11S-213.56,276.64-214.25,282.88Z" transform="translate(270.43 0)"/><path class="cls-6" d="M-206.62,235.69c-1,4.81,0,7.64,4.86,9.72s11.1,1.39,13.18-3.47,3.47-10.41-.69-13.88S-205.93,232.22-206.62,235.69Z" transform="translate(270.43 0)"/><path class="cls-6" d="M129.86,361.88c2.08,6.25,8.42,18.16,16,16.07s20.82-11.79,19.43-18.73-7.63-20.82-16.65-19.43-17.43,11.65-17.43,11.65Z" transform="translate(270.43 0)"/><path class="cls-6" d="M157.71,285.66c-4.81,2.19-12.49,16-12.49,20.82s12.49,19.43,18.73,19.43,18.89-7.58,18.89-7.58-1.3-7.22-4.08-17.83c-2.93-11.21-5.09-18-5.09-18A39.46,39.46,0,0,0,157.71,285.66Z" transform="translate(270.43 0)"/><path class="cls-6" d="M134.81,259.29c6.24,6.94,25,11.1,23.59,2.77s-4.16-14.57-9-16S128.56,252.35,134.81,259.29Z" transform="translate(270.43 0)"/><path class="cls-6" d="M189.84,396.27c-4.86-2.08-7.84-8.6-8.54-14.15s7-26,7-26a156.58,156.58,0,0,1,1.79,16.94A191.73,191.73,0,0,1,189.84,396.27Z" transform="translate(270.43 0)"/><path class="cls-6" d="M50.14,210.71c-9.22-2.88-12.49.69-9,6.94s6.25,11.1,11.8,9S61.25,214.18,50.14,210.71Z" transform="translate(270.43 0)"/><path class="cls-7" d="M-259.82,439s7.95,22.14,9.76,21.51-.36-22.5-.36-22.5-.91-3.16-5.15-2.08S-259.82,439-259.82,439Z" transform="translate(270.43 0)"/><path class="cls-7" d="M-233.44,435.53s7.95,22.13,9.76,21.5-.36-22.5-.36-22.5-.91-3.16-5.15-2.07S-233.44,435.53-233.44,435.53Z" transform="translate(270.43 0)"/><path class="cls-7" d="M-205,430.2s7.95,22.13,9.76,21.5-.36-22.49-.36-22.49-.9-3.16-5.15-2.08S-205,430.2-205,430.2Z" transform="translate(270.43 0)"/><path class="cls-7" d="M174,439s-11.05,20.76-12.75,19.88,3.6-22.21,3.6-22.21,1.35-3,5.39-1.32S174,439,174,439Z" transform="translate(270.43 0)"/><path class="cls-7" d="M148.37,431.74s-11.06,20.75-12.75,19.87,3.59-22.21,3.59-22.21,1.35-3,5.4-1.32S148.37,431.74,148.37,431.74Z" transform="translate(270.43 0)"/><path class="cls-7" d="M121,422.37s-11.06,20.75-12.75,19.87S111.81,420,111.81,420s1.35-3,5.4-1.31S121,422.37,121,422.37Z" transform="translate(270.43 0)"/><path class="cls-8" d="M36.36,41.16c2.31-7.44,1.16-14.47-3.48-16-2.57-.84-5.89,0-6.58,1.59a41.17,41.17,0,0,0-1.39,6.66s-7.21-7.95-11.29-8.31-5.9.75-5.93,3.29S9.53,35.8,9.53,35.8c-6.26-7.6-19.35-7.92-16.68-.64C-19.39,26-17.08,40.8-15.5,43.24-4,60.85,18.6,64.93,37.59,60c14.82.12,14.68-8.2,4.92-7.6,0,0,4.85-4.23,4.57-9.45S39.73,39,36.36,41.16Z" transform="translate(270.43 0)"/></g></g></g></svg>