<svg xmlns="http://www.w3.org/2000/svg" xmlns:xlink="http://www.w3.org/1999/xlink" viewBox="0 0 460.78 460.52"><defs><style>.cls-1{fill:none;}.cls-2{clip-path:url(#clip-path);}.cls-3{fill:#f4a027;}.cls-4{fill:#975039;}.cls-5{fill:#fff;}.cls-6{fill:#ed7223;}.cls-7{fill:#3573b8;}.cls-8{fill:#8d4623;fill-rule:evenodd;}</style><clipPath id="clip-path" transform="translate(0 0)"><rect class="cls-1" width="270.43" height="476.33"/></clipPath></defs><g id="圖層_2" data-name="圖層 2"><g id="圖層_1-2" data-name="圖層 1"><g class="cls-2"><path class="cls-3" d="M291.6,55.46c-46.8-6.3-106.35-10.6-143.82,97.65C114.28,249.89,113,401.53,113,401.53L349,405s-13-58.09-2.82-134.89,25-125.84,19.43-151.75S339.72,61.93,291.6,55.46Z" transform="translate(0 0)"/><path class="cls-3" d="M119,348.09s-6.48,49.5-8.33,68-2.77,23.13,7.4,25.91,18.51,5.55,20.82,2.78-.46-5.36-.46-5.36,7,3.69,10.58.28c3.18-3-1-7.06-1-7.06s5.71,3.54,8,.77.28-4.6-1.25-5.88c-3.39-2.84-12.69-5.89-10.84-11.44s21.29-28.68,21.29-28.68Z" transform="translate(0 0)"/><path class="cls-3" d="M287.4,350.58s14.67,34.09,24.08,58.69c6.64,17.37,9.71,29,20.16,30.43s19.06,3.16,21,.11-1.14-5.25-1.14-5.25,7.43,2.77,10.53-1.07c2.77-3.43-1.85-6.88-1.85-6.88s6.11,2.78,8.05-.26-.3-4.6-2-5.67c-3.72-2.38-10.36-4.42-12.21-10-6.54-19.68-13-55.52-13-55.52Z" transform="translate(0 0)"/><path class="cls-3" d="M171.36,128.82c-8.42.71-80.58,57.78-123.5,124.21C18.38,298.64-1.9,395.19.14,418.63c1.4,16.14,9.82,24.56,15.44,24.56S26.1,427.05,26.1,427.05,31,443.46,42.24,441.78c14-2.1,10.53-16.14,10.53-16.14s9.12,14,18.94,9.83,5.62-17.55.71-35.79-7.76-55.45,14-113.67C125,182.86,172.76,157.59,172.76,157.59Z" transform="translate(0 0)"/><path class="cls-3" d="M327,111.61c8.16,1.8,71.35,67.26,104.64,138,22.86,48.59,36,133.16,24.89,168.61-4.8,15.28-12.87,22.77-18.37,22S430,423.08,430,423.08s-7,15.44-17.76,12.31c-13.48-3.92-8.18-17.21-8.18-17.21s-10.8,12.55-19.87,7.13S379.46,408,390,392.53c11.79-17.35,17.82-55.95,4.16-115.89-24.2-106.2-72.28-137-72.28-137Z" transform="translate(0 0)"/><path class="cls-3" d="M222,64.29s2.76-8.24,1.39-22.21c-2-20.17-12.48-26.34-12.48-26.34S213.66,2.44,227.29.32c17.89-2.77,20.05,13.27,20.05,13.27a33.71,33.71,0,0,0-7.27,16.69c-1.82,13.23,0,28.45,0,28.45Z" transform="translate(0 0)"/><path class="cls-4" d="M219.53,16.29h-.27A2.09,2.09,0,0,1,217.35,14c.21-2.76,2.73-8.14,10.69-8.8,12.86-1.07,14.28,7,14.33,7.33a1.75,1.75,0,0,1-1.64,1.77,2.38,2.38,0,0,1-2.47-1.12c0-.14-1-4.56-9.88-3.83-6.22.51-6.84,4.55-6.89,5A2.06,2.06,0,0,1,219.53,16.29Z" transform="translate(0 0)"/><path class="cls-3" d="M319.78,78.65s7.52-4.36,15.71-15.76c11.83-16.45,8-28,8-28s10.83-8.19,22.46-.78c15.26,9.74,6.29,23.2,6.29,23.2A33.83,33.83,0,0,0,355.79,65C345.69,73.76,337,86.4,337,86.4Z" transform="translate(0 0)"/><path class="cls-4" d="M349.61,41l-.2-.18a2.1,2.1,0,0,1,.06-3c2-1.92,7.43-4.3,13.84.46,10.35,7.69,6.1,14.67,5.92,15a1.76,1.76,0,0,1-2.41.24A2.38,2.38,0,0,1,365.71,51c.07-.13,2.23-4.11-4.89-9.4-5-3.72-8.13-1.1-8.47-.79A2.08,2.08,0,0,1,349.61,41Z" transform="translate(0 0)"/><path class="cls-5" d="M344.17,99.24c-6.91-11.83-31.93,7.64-66.23,1.07C255.45,96,233.31,67.86,221.41,77s.07,47.25,36.62,58C317.8,152.68,355.82,119.19,344.17,99.24Z" transform="translate(0 0)"/><path class="cls-4" d="M344.17,99.34c-2.23-3.82-6.35-4.37-12.06-3.6.89,3.08,2.07,10.06-5.11,10.88-7,.8-6.94-5.44-6.5-8.53-4.59,1-9.73,2.13-15.32,2.86.5,3,.56,9.17-6.56,10.29s-6.89-5.78-6.32-9.45a79.34,79.34,0,0,1-14.36-1.38c-.91-.18-1.81-.39-2.71-.64-1.17,2-6.19,9.9-12.39,5.41-5.38-3.9-2.42-8.86-.68-11-4.76-2.66-9.39-5.77-13.79-8.69-1.51,1.42-9,7.88-14.21,2.3-4.1-4.36-1-8.18,1.3-10.08-5.5-2.63-10.29-3.47-14.05-.58-6.14,4.73-5.93,17.15.74,29.56.94-1.79,3.09-4,7.58-1.44,5.42,3.08,2.19,10.18.67,12.93A59.54,59.54,0,0,0,244,129.07c.67-2.77,3-8.57,9.92-4.92,5.9,3.11,5,7.92,3.62,10.83l.51.16a122,122,0,0,0,20.79,4.28c.12-2.62,1.42-7.41,9.31-6.87,7.53.51,8.61,4.81,8.57,7.36a81,81,0,0,0,20-3.75c-1.1-2.7-1.6-7,3.64-10.69,6.68-4.67,9.67,1.4,10.6,4C344.25,120.83,349.59,108.62,344.17,99.34Z" transform="translate(0 0)"/><path class="cls-4" d="M213.87,89.92a.93.93,0,0,1-.92-.85c0-.55-.88-13.41,7.25-17.11,8.42-3.83,17.67,3.05,18.06,3.35a.91.91,0,0,1,.18,1.29.93.93,0,0,1-1.3.18c-.08-.06-8.76-6.5-16.17-3.13-7,3.17-6.18,15.16-6.17,15.28a.93.93,0,0,1-.86,1Z" transform="translate(0 0)"/><path class="cls-4" d="M347.58,117.45a.94.94,0,0,1-.5-.15.92.92,0,0,1-.27-1.28c.05-.08,5.6-8.84.47-16.32-2.42-3.53-7.08-4.94-7.13-5a.93.93,0,0,1,.52-1.78c.22.06,5.34,1.6,8.14,5.68,5.83,8.51-.19,18-.45,18.38A.93.93,0,0,1,347.58,117.45Z" transform="translate(0 0)"/><path class="cls-6" d="M131.1,216.06s20.84-7.43,25.7,3,11.1,32.61,1.39,41.64-34.7,5.55-34.7,5.55,1.32-13.75,3.47-25.68C129,229,131.1,216.06,131.1,216.06Z" transform="translate(0 0)"/><path class="cls-6" d="M182.47,271.78c-13.87,4.16-21.51,3.47-16,16s17.35,22.9,22.9,20.82,20.13-18,18.05-25.68S189.41,269.7,182.47,271.78Z" transform="translate(0 0)"/><path class="cls-6" d="M136,300.23c11.76-2.94,18.74-6.24,27.76,2.78s18.73,19.43,7.63,31.92S144.31,353,136,348.11s-15.27-29.14-11.8-35.39S133.2,300.93,136,300.23Z" transform="translate(0 0)"/><path class="cls-6" d="M342.42,340.46c-2.78,0-21.85,0-26.71,7.65s-11.1,19.43-4.85,24.29,22.86,13,28.45,13.19c3.57.13,8.12-.1,8.12-.1a141.34,141.34,0,0,1-3.16-19.67C343.2,354.91,342.42,340.46,342.42,340.46Z" transform="translate(0 0)"/><path class="cls-6" d="M304.61,268.31c-12.24,1.22-18,6.94-13.88,16s9.72,16,16,15.27,18.05-2.08,19.43-11.8S311.55,267.62,304.61,268.31Z" transform="translate(0 0)"/><path class="cls-6" d="M313.63,310c-14-2.81-18,4.85-14.57,11.1s6.94,10.41,13.18,9,19.43-2.77,18.05-9.71S320.57,311.33,313.63,310Z" transform="translate(0 0)"/><path class="cls-6" d="M344.42,286.17s-24.54-10.92-23.15-24.8,8.32-25.68,14.57-27.06S351,237.2,351,237.2s-1,9-2.93,20.52C345.81,271.13,344.42,286.17,344.42,286.17Z" transform="translate(0 0)"/><path class="cls-6" d="M183.86,237.78c-7.85,2-13.18,8.32-8.33,13.18s11.8,8.33,16,5.55,11.79-9,6.24-14.57S189.41,236.39,183.86,237.78Z" transform="translate(0 0)"/><path class="cls-6" d="M113.68,377.35s9.81-12.58,16-5,10.41,16.66,5.56,24.29-23.42,8.65-23.42,8.65Z" transform="translate(0 0)"/><path class="cls-6" d="M158,132.26s-2.62,17.38,9.18,19.46,25-4.85,26.37-9.71-4.86-27.76-9.72-30.53-16-2.78-16-2.78a91.15,91.15,0,0,0-5.19,9.25A57.05,57.05,0,0,0,158,132.26Z" transform="translate(0 0)"/><path class="cls-6" d="M359.84,185.62c-5.55-3.47-10.82-4.75-13.59-3.36s-11.11,5.55-8.33,13.18,15.75,21.62,16.76,18.94C355.6,211.91,359.84,185.62,359.84,185.62Z" transform="translate(0 0)"/><path class="cls-6" d="M18.49,322s.9,17.08,13.4,15.69,25.67-7.63,24.28-15.26-10.4-25.68-16-25.68-16.67,9.53-16.67,9.53Z" transform="translate(0 0)"/><path class="cls-6" d="M56.17,282.88c-.87,7.87,8.33,11.8,10.41,11.11s11.8-7.64,11.8-11.8-4.16-11.11-11.8-11.11S56.87,276.64,56.17,282.88Z" transform="translate(0 0)"/><path class="cls-6" d="M63.81,235.69c-1,4.81,0,7.64,4.86,9.72s11.1,1.39,13.18-3.47,3.47-10.41-.69-13.88S64.5,232.22,63.81,235.69Z" transform="translate(0 0)"/><path class="cls-6" d="M400.28,361.88c2.09,6.25,8.42,18.16,16.06,16.07s20.82-11.79,19.43-18.73-7.64-20.82-16.66-19.43-17.43,11.65-17.43,11.65Z" transform="translate(0 0)"/><path class="cls-6" d="M428.13,285.66c-4.81,2.19-12.49,16-12.49,20.82s12.49,19.43,18.74,19.43,18.88-7.58,18.88-7.58-1.3-7.22-4.07-17.83c-2.93-11.21-5.1-18-5.1-18A39.49,39.49,0,0,0,428.13,285.66Z" transform="translate(0 0)"/><path class="cls-6" d="M405.23,259.29c6.25,6.94,25,11.1,23.6,2.77s-4.17-14.57-9-16S399,252.35,405.23,259.29Z" transform="translate(0 0)"/><path class="cls-6" d="M460.27,396.27c-4.86-2.08-7.85-8.6-8.54-14.15s7-26,7-26a155.42,155.42,0,0,1,1.78,16.94A190.51,190.51,0,0,1,460.27,396.27Z" transform="translate(0 0)"/><path class="cls-6" d="M320.57,210.71c-9.22-2.88-12.49.69-9,6.94s6.25,11.1,11.8,9S331.67,214.18,320.57,210.71Z" transform="translate(0 0)"/><path class="cls-7" d="M10.61,439s8,22.14,9.75,21.51S20,438,20,438s-.9-3.16-5.15-2.08S10.61,439,10.61,439Z" transform="translate(0 0)"/><path class="cls-7" d="M37,435.53s7.95,22.13,9.76,21.5-.37-22.5-.37-22.5-.9-3.16-5.14-2.07S37,435.53,37,435.53Z" transform="translate(0 0)"/><path class="cls-7" d="M65.45,430.2s8,22.13,9.76,21.5-.36-22.49-.36-22.49-.91-3.16-5.15-2.08S65.45,430.2,65.45,430.2Z" transform="translate(0 0)"/><path class="cls-7" d="M444.4,439s-11,20.76-12.75,19.88,3.6-22.21,3.6-22.21,1.35-3,5.39-1.32S444.4,439,444.4,439Z" transform="translate(0 0)"/><path class="cls-7" d="M418.79,431.74S407.74,452.49,406,451.61s3.6-22.21,3.6-22.21,1.35-3,5.4-1.32S418.79,431.74,418.79,431.74Z" transform="translate(0 0)"/><path class="cls-7" d="M391.4,422.37s-11.06,20.75-12.76,19.87,3.6-22.21,3.6-22.21,1.35-3,5.4-1.31S391.4,422.37,391.4,422.37Z" transform="translate(0 0)"/><path class="cls-8" d="M306.79,41.16c2.3-7.44,1.16-14.47-3.49-16-2.56-.84-5.89,0-6.58,1.59a42.31,42.31,0,0,0-1.39,6.66s-7.2-7.95-11.29-8.31-5.89.75-5.92,3.29S280,35.8,280,35.8c-6.26-7.6-19.35-7.92-16.68-.64C251,26,253.35,40.8,254.93,43.24,266.38,60.85,289,64.93,308,60c14.83.12,14.69-8.2,4.93-7.6,0,0,4.85-4.23,4.57-9.45S310.16,39,306.79,41.16Z" transform="translate(0 0)"/></g></g></g></svg>