<svg xmlns="http://www.w3.org/2000/svg" xmlns:xlink="http://www.w3.org/1999/xlink" viewBox="0 0 402.76 409.8"><defs><style>.cls-1{fill:none;}.cls-2{clip-path:url(#clip-path);}.cls-3{fill:#db9a16;}.cls-4{clip-path:url(#clip-path-2);}.cls-5{fill:#043b41;}.cls-6{fill:#032b2b;}.cls-7{fill:#0f5d61;}.cls-8{clip-path:url(#clip-path-3);}.cls-9{fill:#f1a919;}.cls-10{fill:#e85b27;}.cls-11{fill:#fff;}.cls-12{fill:#0d1111;}.cls-13{fill:#eeeee6;}.cls-14{fill:#e0971a;}</style><clipPath id="clip-path" transform="translate(192.15 -13.22)"><rect class="cls-1" width="192.26" height="429.31"/></clipPath><clipPath id="clip-path-2" transform="translate(192.15 -13.22)"><path class="cls-1" d="M-93.58,71.76c-11.15-.28-19.15-1.73-28.54-8-7.88-5.25-15.34-11.12-18.24-20.52a2.36,2.36,0,0,0-4.26-.54c-12.41,18.51,6.08,53.42,27.46,55.82,1.69.18,2.23-2.06,1.26-3.09l20.44-20.73a19.49,19.49,0,0,0,2.41-1C-92.08,73.22-92.6,71.79-93.58,71.76Z"/></clipPath><clipPath id="clip-path-3" transform="translate(192.15 -13.22)"><path class="cls-1" d="M93.53,71.3c11.14-.34,19.14-1.84,28.49-8.13,7.86-5.29,15.29-11.2,18.14-20.61a2.36,2.36,0,0,1,4.26-.56c12.51,18.44-5.82,53.44-27.19,56-1.68.2-2.23-2-1.26-3.08L95.42,74.24a18,18,0,0,1-2.41-1A1.05,1.05,0,0,1,93.53,71.3Z"/></clipPath></defs><g id="圖層_2" data-name="圖層 2"><g id="圖層_1-2" data-name="圖層 1"><g class="cls-2"><path class="cls-3" d="M72.5,380.79s.28,16.78-1.1,19.8c-5.33,11.72-8.66-6.6-17.33-6.19-3.34.16-8.52,21.05-5.22,22.69s8.8-12.1,8.8-12.1,2.8,13.15,15.4,11.55c17.33-2.19,16.51-37.4,16.51-37.4S78,376.37,72.5,380.79Z" transform="translate(192.15 -13.22)"/><path class="cls-3" d="M-43.11,387.7s-2.7,16.57-4.58,19.3c-7.32,10.6-7.36-8-16-9.15-3.32-.43-12.11,19.21-9.15,21.41S-62,408.9-62,408.9s.44,13.45,13.12,14.1c17.45.9,22.85-33.91,22.85-33.91S-35.78,383.32-43.11,387.7Z" transform="translate(192.15 -13.22)"/><g class="cls-4"><path class="cls-5" d="M-93.58,71.76c-11.15-.28-19.15-1.73-28.54-8-7.88-5.25-15.34-11.12-18.24-20.52a2.36,2.36,0,0,0-4.26-.54c-12.41,18.51,6.08,53.42,27.46,55.82,1.69.18,2.23-2.06,1.26-3.09l20.44-20.73a19.49,19.49,0,0,0,2.41-1C-92.08,73.22-92.6,71.79-93.58,71.76Z" transform="translate(192.15 -13.22)"/><path class="cls-6" d="M-142.95,31.77a37.19,37.19,0,0,0-1.31,21.67C-141.43,65.15-133,74.86-123,81.65s21.36,11,32.65,15.23c-.38,6.08-6,10.78-11.94,12.14s-12.13.13-18.09-1.1c-6.34-1.3-13-2.74-18-6.85A31.25,31.25,0,0,1-146,90.77a73,73,0,0,1,1.06-67" transform="translate(192.15 -13.22)"/></g><path class="cls-7" d="M-143,45.69c3.18,11.75,11.76,23.11,23.1,28,.54.23,1.24-.44.69-.9-9.52-8-17.19-16.23-22.92-27.45-.25-.49-1-.14-.87.37Z" transform="translate(192.15 -13.22)"/><g class="cls-8"><path class="cls-5" d="M93.53,71.3c11.14-.34,19.14-1.84,28.49-8.13,7.86-5.29,15.29-11.2,18.14-20.61a2.36,2.36,0,0,1,4.26-.56c12.51,18.44-5.82,53.44-27.19,56-1.68.2-2.23-2-1.26-3.08L95.42,74.24a18,18,0,0,1-2.41-1A1.05,1.05,0,0,1,93.53,71.3Z" transform="translate(192.15 -13.22)"/><path class="cls-6" d="M142.69,31.06a37.17,37.17,0,0,1,1.43,21.66C141.34,64.44,132.92,74.19,123,81S101.7,92.19,90.43,96.43c.41,6.08,6.06,10.75,12,12.08s12.12.07,18.08-1.19c6.33-1.34,12.93-2.8,17.91-6.94A31.23,31.23,0,0,0,146,90a73,73,0,0,0-1.39-67" transform="translate(192.15 -13.22)"/></g><path class="cls-7" d="M142,44.61c-5.68,11.25-13.31,19.47-22.79,27.56-.54.46.15,1.14.69.9,11.33-4.92,19.85-16.32,23-28.09.13-.51-.62-.86-.87-.37Z" transform="translate(192.15 -13.22)"/><path class="cls-9" d="M136.22,109.77C105.9,66.63,54.13,47.36,3.38,46.08-24.2,45.37-54,50.81-78.73,63.66-89.55,69.27-99,78.21-108,86.4S-124.8,103-130.39,114c-13.88,27.06-22,58.58-27.48,88.46-2.53,13.8-5,28-5.24,42.08a391.09,391.09,0,0,0,7.73,115.35c1.54,7.12,11.19,9.44,15.94,4.26a109.8,109.8,0,0,0,8.4-10.35,192,192,0,0,1,5.65,30.17c.94,9.09,13.08,14.36,18.09,5Q-101,377-94.65,365.15l11.4,18.79a9.61,9.61,0,0,0,16.6,0l10.12-16.38c2.3,5.28,4.65,10.54,7.19,15.67,3.7,7.49,9.89,13.54,18.7,12.3,7.61-1.06,13.37-7.35,16.46-14.19a20.35,20.35,0,0,0,1.41-5.12A107,107,0,0,0-.74,392c5.37,5.85,13.2,2,15.75-4.3a155.19,155.19,0,0,0,5.53-16.14c1.25,3,2.55,5.92,3.94,8.85,3.56,7.52,15.1,5.22,17-2.32l5.64-22.25,5.49,8.78c3.43,5.47,12.88,6.74,15.94,0,0-.06,0-.12.07-.17L72,377.08c1.94,7.39,13.26,9.63,16.77,2.2a141.92,141.92,0,0,0,8.2-21.7l4.38,12.27c2.55,7.15,13.37,10.31,17.26,2.27,1.39-2.89,2.66-5.82,3.86-8.75.57,1.59,1.15,3.19,1.78,4.78,1.93,4.78,6.25,8.32,11.64,6.72,18.75-5.59,27.47-23,31.21-41.43,5.06-24.82,5.63-51.1,5.7-76.37C172.89,207.34,165.36,151.22,136.22,109.77Z" transform="translate(192.15 -13.22)"/><path class="cls-10" d="M-88.51,221a15.45,15.45,0,0,1-15.41,15.49,15.45,15.45,0,0,1-15.48-15.41A15.44,15.44,0,0,1-104,205.6,15.45,15.45,0,0,1-88.51,221Z" transform="translate(192.15 -13.22)"/><path class="cls-10" d="M127.51,220.46A15.45,15.45,0,1,1,112,205.06,15.44,15.44,0,0,1,127.51,220.46Z" transform="translate(192.15 -13.22)"/><path class="cls-11" d="M-147,277.85c-4.07,4.08-1.54,11.74,3.91,13.18,6.71,1.79,11.83-6,10.15-12a1.21,1.21,0,0,0-2.34.65c1.17,4.14-2.25,10.21-7.17,9-3.69-.94-5.58-6.34-2.83-9.11a1.22,1.22,0,0,0-1.72-1.72Z" transform="translate(192.15 -13.22)"/><path class="cls-11" d="M58,313.55c-.33,4.9.59,13.21,7.51,12.6,6.45-.58,6.9-10.94,6.5-15.59-.13-1.55-2.56-1.56-2.43,0,.29,3.49.4,10.7-3.19,12.68-2.53,1.4-4.9-1-5.65-3.28a17.32,17.32,0,0,1-.31-6.42c.11-1.57-2.33-1.55-2.43,0Z" transform="translate(192.15 -13.22)"/><path class="cls-11" d="M96.83,339.12c-.33,4.89.59,13.21,7.51,12.59,6.45-.58,6.9-10.93,6.51-15.58-.13-1.56-2.57-1.56-2.44,0,.29,3.5.4,10.7-3.19,12.68-2.53,1.4-4.9-1-5.65-3.27a17.38,17.38,0,0,1-.31-6.43c.11-1.56-2.33-1.55-2.43,0Z" transform="translate(192.15 -13.22)"/><path class="cls-11" d="M135.28,348.56c-.68,3.11-1.43,6.67,0,9.68a6.79,6.79,0,0,0,5.88,4c6.29-.09,8.09-9.94,8.38-14.64.09-1.56-2.34-1.55-2.44,0-.22,3.48-1.15,9.73-4.52,11.64-2.49,1.42-4.79-.7-5.45-3.12-.62-2.26,0-4.73.47-7,.33-1.53-2-2.18-2.35-.65Z" transform="translate(192.15 -13.22)"/><path class="cls-11" d="M-122.21,352.23c.47,4.91,2.41,12.69,9.09,11.47s5.38-12.05,4.24-16.63c-.38-1.52-2.73-.87-2.35.66.81,3.22,2.19,11.14-1.52,13.19-5,2.8-6.73-5.56-7-8.7-.15-1.54-2.59-1.55-2.43,0Z" transform="translate(192.15 -13.22)"/><path class="cls-11" d="M-64,344.49c.48,4.92,2.42,12.7,9.1,11.48s5.38-12.05,4.24-16.63A1.22,1.22,0,0,0-53,340c.81,3.22,2.18,11.14-1.53,13.2-5.05,2.8-6.72-5.57-7-8.7-.15-1.55-2.59-1.56-2.44,0Z" transform="translate(192.15 -13.22)"/><path class="cls-11" d="M-12.14,319.85c-.31,4.9.64,13.21,7.56,12.57,6.46-.6,6.86-10.95,6.45-15.6-.14-1.55-2.57-1.56-2.44,0,.31,3.49.44,10.7-3.13,12.7-2.53,1.41-4.91-.94-5.67-3.25a17.33,17.33,0,0,1-.33-6.42c.1-1.57-2.34-1.56-2.44,0Z" transform="translate(192.15 -13.22)"/><path class="cls-11" d="M151.88,270.62c.39,5.58,2.89,13.06,10.06,10.67,7.92-2.63,7.11-11.91,5.86-18.43-.29-1.53-2.64-.88-2.34.66.93,4.88,2.13,11.63-2.89,14.78-5.88,3.69-7.95-3.27-8.26-7.69-.1-1.55-2.54-1.56-2.43,0Z" transform="translate(192.15 -13.22)"/><path class="cls-11" d="M133.35,174c1.21,5.26,4.65,12,11.21,9,7.7-3.56,5.6-12.82,3.34-19.11-.52-1.47-2.88-.83-2.34.65,1.65,4.61,3.95,10.94-.17,14.94-5.21,5.08-8.65-1.62-9.7-6.15-.35-1.52-2.7-.87-2.34.66Z" transform="translate(192.15 -13.22)"/><path class="cls-11" d="M40.87,112c.72,5.52,3.58,12.93,10.62,10.15,7.76-3.06,6.47-12.24,4.84-18.7a1.22,1.22,0,0,0-2.35.66c1.19,4.7,2.77,10.91-1.46,14.6-1.93,1.68-4.87,2.25-6.83.25-1.7-1.75-2.08-4.66-2.38-7-.2-1.53-2.64-1.55-2.44,0Z" transform="translate(192.15 -13.22)"/><path class="cls-11" d="M-128,171.7a15.32,15.32,0,0,1-2.09,5.74c-2,2.74-5.21,2.74-7.58.46-4.14-4-1.87-10.32-.23-14.94.52-1.48-1.83-2.11-2.35-.64-2.23,6.29-4.28,15.57,3.43,19.09,6.58,3,10-3.8,11.17-9.07.35-1.53-2-2.17-2.35-.64Z" transform="translate(192.15 -13.22)"/><path class="cls-11" d="M-12.43,118.82c.22,2.3.57,5.07-.55,7.2-1.35,2.6-4.29,3-6.76,1.73-5.13-2.53-4.94-9.17-4.82-14a1.22,1.22,0,0,0-2.43,0c-.17,6.59.55,15.43,8.5,17,7.5,1.51,9-6.3,8.5-11.92-.15-1.55-2.59-1.56-2.44,0Z" transform="translate(192.15 -13.22)"/><path class="cls-11" d="M104.14,120.13c1.84,5.41,6.39,12.1,12.73,7.53,6.6-4.77,3.56-13.11.71-19.09-.68-1.41-2.77-.17-2.1,1.24,2,4.19,4.73,9.87,1.57,14.19-1.82,2.48-5,3.71-7.54,1.32-1.61-1.48-2.34-3.84-3-5.85-.5-1.47-2.85-.83-2.35.66Z" transform="translate(192.15 -13.22)"/><path class="cls-11" d="M-99.62,309.51c.24,6.08,1.93,15.4,10.06,14.82,7-.49,6.39-8.89,5.1-13.69a1.22,1.22,0,0,0-2.35.66c.91,3.39,2.13,10.95-3.59,10.59-6-.38-6.61-7.84-6.78-12.38-.07-1.57-2.5-1.57-2.44,0Z" transform="translate(192.15 -13.22)"/><path class="cls-11" d="M-88.46,121c-1.09,5.92-1.51,15.76,6.68,16.74,6.79.82,8-7.22,7.85-12.2-.06-1.56-2.49-1.56-2.43,0,.13,3.43,0,10.25-5.1,9.74-6.49-.64-5.45-9.3-4.65-13.65.28-1.53-2.07-2.18-2.35-.64Z" transform="translate(192.15 -13.22)"/><path class="cls-11" d="M26.76,260.52c-1.83,5.39,2.21,12.15,8.22,12s9.58-6.86,7.29-12c-.64-1.43-2.73-.18-2.1,1.24,1.69,3.81-1.8,8.81-6,8.28s-6.29-5.24-5-8.88c.5-1.48-1.85-2.12-2.35-.64Z" transform="translate(192.15 -13.22)"/><path class="cls-11" d="M-12.73,68.25c-1.83,5.39,2.22,12.15,8.22,12s9.58-6.86,7.29-12c-.63-1.42-2.73-.18-2.1,1.24,1.7,3.81-1.8,8.81-6,8.27s-6.29-5.23-5.05-8.87c.51-1.49-1.85-2.12-2.35-.64Z" transform="translate(192.15 -13.22)"/><path class="cls-11" d="M26.5,159c-1.83,5.38,2.22,12.14,8.22,12s9.58-6.86,7.3-12c-.64-1.43-2.74-.19-2.1,1.23,1.69,3.82-1.81,8.81-6,8.28s-6.28-5.23-5-8.87c.51-1.49-1.84-2.12-2.35-.64Z" transform="translate(192.15 -13.22)"/><path class="cls-11" d="M132,303.36c-1.83,5.39,2.22,12.15,8.22,12s9.58-6.86,7.3-12c-.64-1.43-2.73-.19-2.1,1.23,1.69,3.82-1.81,8.81-6,8.28s-6.28-5.23-5-8.87c.5-1.49-1.85-2.12-2.36-.65Z" transform="translate(192.15 -13.22)"/><path class="cls-9" d="M-46.88,181.79a25.91,25.91,0,0,1-25.85,26,25.91,25.91,0,0,1-26-25.85,25.91,25.91,0,0,1,25.85-26A25.91,25.91,0,0,1-46.88,181.79Z" transform="translate(192.15 -13.22)"/><path class="cls-12" d="M60.36,226.67c-.06-23.77-19-14.95-32.1-4.77a45.21,45.21,0,0,1-24.18,9.71A45.17,45.17,0,0,1-20.14,222C-33.32,211.9-52.28,203.18-52.22,227c0,22.18,9.78,55.8,51.73,60.07l0,.48c1.62,0,3.19-.05,4.73-.13,1.54.08,3.12.11,4.74.11l0-.49C50.86,282.52,60.42,248.85,60.36,226.67Z" transform="translate(192.15 -13.22)"/><path class="cls-13" d="M4.08,231.61c-.75-.05-1.76-.14-3-.32h0s-.93,17.29,18.51,15.93,10.22-26.5,10.22-26.51c-.54.39-1.07.79-1.58,1.19A45.21,45.21,0,0,1,4.08,231.61Z" transform="translate(192.15 -13.22)"/><path class="cls-13" d="M-28.67,216.3s-8,28.42,12.82,31.08c15.53,2,16.4-10,15.84-16.27A46.75,46.75,0,0,1-20.14,222,76.91,76.91,0,0,0-28.67,216.3Z" transform="translate(192.15 -13.22)"/><path class="cls-12" d="M-88.11,161.32c-.9,5.3,1.51,12.57,3.73,17.33s6.28,8.55,11.86,8.34c14.1-.53,13-19.82,8.87-29.2-.42-.94-1.71-.35-1.77.48-.51,6.78,3,26.18-8.6,24.48-8.74-1.28-10.29-14.95-13-21.43-.19-.45-1-.62-1.11,0Z" transform="translate(192.15 -13.22)"/><path class="cls-12" d="M94.82,160.87c-2.67,6.5-4.15,20.16-12.88,21.49-11.59,1.76-8.18-17.67-8.72-24.43-.07-.84-1.36-1.43-1.78-.48-4.11,9.42-5.08,28.7,9,29.16,5.59.18,9.6-3.6,11.82-8.4s4.58-12,3.64-17.35c-.11-.62-.92-.45-1.1,0Z" transform="translate(192.15 -13.22)"/><path class="cls-9" d="M-16.64,67.9A75,75,0,0,1,5.55,16.19,84.1,84.1,0,0,0,.06,58.46" transform="translate(192.15 -13.22)"/><path class="cls-9" d="M-13.59,67.9A73.85,73.85,0,0,1,7.71,18.34l-5.1-2.95A91.43,91.43,0,0,0-3,58.46c.41,3.86,6.51,3.89,6.09,0A87.71,87.71,0,0,1,8.49,17c1.12-2.94-3.1-5-5.1-2.95A80.43,80.43,0,0,0-19.68,67.91c-.15,3.92,5.94,3.9,6.09,0Z" transform="translate(192.15 -13.22)"/><path class="cls-9" d="M2.75,52.79C5.5,37.56,19,24.93,34.42,23.23,20.23,31.82,13.64,51.11,19.6,66.58" transform="translate(192.15 -13.22)"/><path class="cls-9" d="M5.68,53.59A34.86,34.86,0,0,1,35.23,26.17c-.79-1.86-1.57-3.71-2.36-5.56A40.34,40.34,0,0,0,16.67,67.4c1.26,3.69,7.14,2.09,5.87-1.63A34.15,34.15,0,0,1,36,25.86c3-2,1-6.06-2.36-5.56A40.73,40.73,0,0,0-.19,52c-.84,3.82,5,5.44,5.87,1.6Z" transform="translate(192.15 -13.22)"/><path class="cls-9" d="M-11.15,47.47c-9.44-17.06-30.48-26.83-49.61-23,21.55,3.8,38.2,25.87,35.92,47.64" transform="translate(192.15 -13.22)"/><path class="cls-9" d="M-8.52,45.93A51.49,51.49,0,0,0-61.58,21.5c-3,.49-2.81,5.27,0,5.88a42.72,42.72,0,0,1,33.68,44.7c-.27,3.92,5.82,3.88,6.09,0A48.74,48.74,0,0,0-60,21.5c0,2,0,3.92,0,5.87A45.18,45.18,0,0,1-13.77,49c2,3.36,7.26.29,5.25-3.09Z" transform="translate(192.15 -13.22)"/><path class="cls-14" d="M-90.82,82.05a39.41,39.41,0,0,0-7.63,5.24,13.15,13.15,0,0,0-4.3,8c4.19.27,8.32-1.4,11.73-3.84a55.16,55.16,0,0,0,9-8.77,2.08,2.08,0,0,0,.72-1.54c-.11-.72-.91-1.1-1.62-1.27a13.52,13.52,0,0,0-10.63,2.26,23.92,23.92,0,0,0-7.19,8.43" transform="translate(192.15 -13.22)"/><path class="cls-14" d="M-92.36,79.43c-6,3.49-12.11,7.69-13.33,15a3.1,3.1,0,0,0,3,3.85c6.14.09,11.47-2.52,16.07-6.47,2.59-2.22,9.36-7.43,8.28-11.55-1.26-4.84-8.69-4.13-12.23-3-5.8,1.86-9.84,6.61-12.78,11.71-2,3.41,3.31,6.46,5.27,3.06,3-5.18,8.69-11.65,15.42-8.85l-1.82-1.4.58.84c-.1-.78-.2-1.56-.31-2.34-.57,2.61-5.5,6.28-7.52,7.86a17,17,0,0,1-11,4c1,1.28,2,2.56,3,3.85,1-5.83,5.81-8.68,10.54-11.41,3.39-2,.31-7.22-3.09-5.25Z" transform="translate(192.15 -13.22)"/><path class="cls-14" d="M-72.08,75c-1.34-.28-1.86,1.67-1.75,3a8.61,8.61,0,0,0,8.54-6.74,1.63,1.63,0,0,0-.32-1.62c-.56-.46-1.39-.11-2,.29a13.86,13.86,0,0,0-4.14,4.38" transform="translate(192.15 -13.22)"/><path class="cls-14" d="M-72.09,72c-3.33-.22-4.88,3.25-4.79,6.09a3.1,3.1,0,0,0,3,3c5.32.06,10.59-3.84,11.51-9.21.6-3.48-2.11-6.41-5.66-5.1-2.71,1-4.9,3.66-6.38,6-2.08,3.33,3.19,6.38,5.26,3.06a11.53,11.53,0,0,1,1.75-2.19,8.93,8.93,0,0,1,.85-.78l.45-.32c.48-.28.51-.3.08,0l-1.53-.41v0c-.27-.44-.53-.89-.79-1.34.08-.4.09-.43,0-.09a5.23,5.23,0,0,1-.18.68,4.17,4.17,0,0,1-.26.57,5.69,5.69,0,0,1-1.44,1.76A5.55,5.55,0,0,1-73.84,75l3,3c0-1.71.4.14-1.29,0,3.91.26,3.88-5.83,0-6.1Z" transform="translate(192.15 -13.22)"/><path class="cls-14" d="M-110.24,105.36a10.63,10.63,0,0,0-5.12,6.19c-.4,1.29-.26,3.11,1,3.43a2.62,2.62,0,0,0,2.15-.79,14.5,14.5,0,0,0,5-8.58,1.52,1.52,0,0,0-.24-1.39,1.39,1.39,0,0,0-1.07-.25c-3.78.37-5.67,4.67-6.77,8.3" transform="translate(192.15 -13.22)"/><path class="cls-14" d="M-111.79,102.74c-3.89,2.22-8.11,7.38-6.47,12.17a4.63,4.63,0,0,0,6.26,2.72c2.35-1,4.26-3.36,5.56-5.47A14.46,14.46,0,0,0-104,105.1c0-3.17-3-4.66-5.78-4-4.8,1.16-7,6.08-8.34,10.35-1.18,3.75,4.7,5.34,5.87,1.61a13,13,0,0,1,2.49-5.13c.25-.27.6-.44.84-.7.67-.7,1.7.64-.2-1.2-1.33-1.28-.91-1-1.22.07a10.19,10.19,0,0,1-.66,1.8,11.85,11.85,0,0,1-1.8,2.73c-.32.36-1,.72-1.15,1.12-.4.78,1,1.17,1.49.8s.86-1.94,1.31-2.52a8.28,8.28,0,0,1,2.5-2.06c3.41-1.94.33-7.2-3.09-5.25Z" transform="translate(192.15 -13.22)"/><path class="cls-14" d="M-93.35,102.54a4.68,4.68,0,0,0-4.52,5,1.6,1.6,0,0,0,.49,1.06,1.63,1.63,0,0,0,1.19.21,6.27,6.27,0,0,0,5.31-6.77,1.45,1.45,0,0,0-.39-.94,1.46,1.46,0,0,0-1.18-.2,6.51,6.51,0,0,0-5.34,5.25" transform="translate(192.15 -13.22)"/><path class="cls-14" d="M-93.36,99.49c-4.41.17-8.45,4.32-7.44,8.91,1.2,5.48,8,3.53,10.63.45,2.48-2.88,4.25-10.48-1.46-10.93-4.31-.34-8.28,3.43-9.1,7.48a3.11,3.11,0,0,0,2.13,3.74A3.07,3.07,0,0,0-94.86,107c.31-1.51,1.49-3.21,3.24-3l-1.53-.41-.06,0-.79-1.34a2.61,2.61,0,0,1-.57,2.41,3.37,3.37,0,0,1-.75.71,3.28,3.28,0,0,1-.64.34c-1.06.4-.29-.39.48.49l.78,1.35a1.48,1.48,0,0,1,1.36-2c3.91-.15,3.91-6.24,0-6.09Z" transform="translate(192.15 -13.22)"/><path class="cls-14" d="M-74.55,87.93c-1,1-2,2.1-3,3.19A6.33,6.33,0,0,0-79.2,94a2.31,2.31,0,0,0,1.44,2.7,2.84,2.84,0,0,0,2.54-1.06,8.08,8.08,0,0,0,1.82-8.08Q-75.84,90.44-78,93.5" transform="translate(192.15 -13.22)"/><path class="cls-14" d="M-76.71,85.78c-2,2-4.81,4.49-5.43,7.42-.56,2.62.79,5.76,3.57,6.44,3.13.77,5.86-1.64,7.25-4.22a11.34,11.34,0,0,0,.85-8.67c-.61-2-3.55-3.15-5.09-1.33-1.79,2.12-3.5,4.31-5.13,6.55a3.08,3.08,0,0,0,1.11,4.17A3.12,3.12,0,0,0-75.42,95c1.33-1.83,2.72-3.59,4.18-5.32l-5.1-1.33a5.25,5.25,0,0,1,.13,2.94,4.68,4.68,0,0,1-.64,1.51c-.18.26-.8.71-.83.92.37-2.53,1.63.63,1.47.73.24-.14.64-.94.86-1.21.92-1.11,1.95-2.16,3-3.2,2.74-2.8-1.57-7.1-4.32-4.29Z" transform="translate(192.15 -13.22)"/><path class="cls-9" d="M-86.32,71.48A27.31,27.31,0,0,0-103.88,76l4.11,2.76a16.82,16.82,0,0,0-9.65,1.52,5.36,5.36,0,0,0-2.52,2.12,2.29,2.29,0,0,0,.61,3c1,.59,2.85.71,2.54,1.82a19.53,19.53,0,0,0-13.06,11.14,2.63,2.63,0,0,0-.22,2.11c.67,1.44,2.87.77,4.12-.21,4.53-3.52,7.84-8.37,12.18-12.12C-99.9,83-92,79.69-88.7,72.66" transform="translate(192.15 -13.22)"/><path class="cls-9" d="M-86.32,71a30,30,0,0,0-17.89,4.44.66.66,0,0,0,0,1.12c3.19,2.16,1.76.74-.69,1.54-2,.65-4.78.87-6.45,2.42-2.44,2.28-.9,2.9-.7,5.27,0,.45,1.22.6,1.14,1.17s-4.68,2.42-5.44,3c-2.19,1.7-6.71,6-6.65,9.2.14,7,8.59-.92,10.13-2.52A113,113,0,0,1-97.42,83c3.81-2.75,7.35-5.64,9.36-10a.74.74,0,0,0-1.28-.74c-4.47,7.18-11.89,10.49-17.94,16-2.28,2.1-6.43,9-9.39,9.71L-120.25,97a18.61,18.61,0,0,1,3.5-4.48A20.2,20.2,0,0,1-108.57,88a.84.84,0,0,0,.58-1s-1.25-2-1.22-1.58a5.89,5.89,0,0,0-.63-.29q-1.47-.57,1.41-2.52c2.1-3.45,4.76-3.36,8.67-3.14.71,0,.86-.93.34-1.27-7.21-4.76,10.24-6.28,13.1-6.17.65,0,.64-1,0-1Z" transform="translate(192.15 -13.22)"/><path class="cls-9" d="M91.66,71.76A30.74,30.74,0,0,1,113.79,82.4a20.84,20.84,0,0,1-6.05,1.15,28.19,28.19,0,0,1,16.49,5.59,5.24,5.24,0,0,1,2,2.4c.91,2.83-2.57,5-5.39,5.89,5.22,3.37,10.64,7.18,13,12.93a7.18,7.18,0,0,1,.32,5.54c-.77,1.73-3,2.86-4.67,1.89" transform="translate(192.15 -13.22)"/><path class="cls-9" d="M91.57,72.08a43,43,0,0,1,10.62,3c2.42,1.07,14.84,6.58,5.55,7.63a.87.87,0,0,0,0,1.74,27.14,27.14,0,0,1,8.45,1.48q9.14,1.3,4.43,10.63a1,1,0,0,0-.22,1.71,46.77,46.77,0,0,1,7.34,5.46c1.48,1.46,11.36,12.6,1.75,13.26-.75.05-1.23,1.18-.42,1.55,4,1.84,6.93-1.13,6.69-5.37-.16-2.77-2.2-5.79-3.83-7.86-.94-1.18-8.23-6.16-8.38-7.58,0,0,3.36-3.26,3.54-3.93.45-1.79-.08-2.81-1-4.21-1.76-2.67-6.53-4.4-9.42-5.38-1.82-.61-4.16-.62-5.86-1.3,2.84,1.14-6.09,2.86,3.22.35a.87.87,0,0,0,.38-1.44c-6.14-6.51-13.66-10.47-22.74-10.36-.36,0-.47.58-.09.65Z" transform="translate(192.15 -13.22)"/><path class="cls-3" d="M-156.73,238.74s-20.38,1.56-29.2,30.95c-6.87,22.9-6.84,42.06-5.56,44.8s5.74-5.16,5.74-5.16,3.66,7.67,5.83,6.85.88-8.78.88-8.78,5.42,3.16,7.51.5-7.19-8.81-7.19-8.81.16-43,23.34-42.75c0,0,6.74-6.35,6.33-10S-156.73,238.74-156.73,238.74Z" transform="translate(192.15 -13.22)"/><path class="cls-3" d="M165.27,234.93s20.39-1.36,33.3,26.47c10.06,21.69,12.77,40.66,11.88,43.55s-6.41-4.28-6.41-4.28-2.53,8.11-4.79,7.6-2.13-8.56-2.13-8.56-4.91,3.9-7.36,1.57,5.86-9.75,5.86-9.75-6.28-42.54-29.19-39C166.43,252.54,156.19,244.66,165.27,234.93Z" transform="translate(192.15 -13.22)"/></g></g></g></svg>