<svg xmlns="http://www.w3.org/2000/svg" xmlns:xlink="http://www.w3.org/1999/xlink" viewBox="0 0 354.95 473.36"><defs><style>.cls-1{fill:none;}.cls-2{isolation:isolate;}.cls-3{clip-path:url(#clip-path);}.cls-4{fill:#f5db6c;}.cls-5{fill:#e67e76;}.cls-6{fill:#fcfbe8;}.cls-7{fill:#5d2176;opacity:0.2;mix-blend-mode:multiply;}.cls-8{fill:#fff;}.cls-9{fill:#1d110c;}.cls-10{fill:#cc516b;}</style><clipPath id="clip-path" transform="translate(214.01)"><rect class="cls-1" width="239.74" height="473.36"/></clipPath></defs><g class="cls-2"><g id="圖層_2" data-name="圖層 2"><g id="圖層_1-2" data-name="圖層 1"><g class="cls-3"><path class="cls-4" d="M105.56,158.78s39.12-8.26,15.45-83.54c0,0-14.71-.87-16.22-6.08s9.15-2.5,9.15-2.5-9.34-15-6.52-16.11c2.33-.87,12.91,10.54,12.91,10.54s-4.94-15-.91-15.48,7.17,15.16,7.17,15.16,6-12.35,8.08-8.34-3.22,15.41-3.22,15.41,31,77.77-22.64,99.68" transform="translate(214.01)"/><path class="cls-4" d="M108.81,168.24a.71.71,0,0,1-.66-.45.73.73,0,0,1,.39-.94c52.38-21.38,22.55-98,22.24-98.75a.73.73,0,0,1,0-.56c1.44-3.09,4.82-11.75,3.23-14.78-.22-.41-.37-.39-.45-.42-1.32,0-4.32,4.56-6.34,8.74a.72.72,0,0,1-1.35-.17c-1.25-6.21-4-14.89-6.39-14.58a.66.66,0,0,0-.52.35c-1.27,2,.57,9.75,2,14.19a.71.71,0,0,1-.31.84.72.72,0,0,1-.89-.13c-5.48-5.91-11-10.66-12.14-10.35-.77.87,2.44,7.9,6.88,15.05a.72.72,0,0,1-.79,1.07c-2.49-.63-6.9-1.18-8.09.06-.12.12-.49.5-.19,1.55,1.12,3.88,11.62,5.33,15.57,5.57a.71.71,0,0,1,.64.5c9.83,31.25,10.24,54.92,1.23,70.34-6.91,11.82-16.79,14-17.21,14.11a.72.72,0,0,1-.3-1.4c.1,0,9.73-2.2,16.3-13.48,6-10.31,10.65-30.59-1.24-68.67-2.92-.22-14.88-1.42-16.37-6.57a2.83,2.83,0,0,1,.54-3c1.58-1.63,5.52-1.22,7.82-.8-2.24-3.74-7-12.21-6.17-14.79a1.47,1.47,0,0,1,.88-.94c2-.79,7.82,4.63,11.61,8.53-1.06-3.82-2.49-10.19-1-12.5a2.09,2.09,0,0,1,1.57-1c3.8-.4,6.45,9.12,7.52,13.75,1.54-2.87,4.45-7.7,6.7-7.74a1.92,1.92,0,0,1,1.74,1.18c2.09,4-2.13,13.71-3.07,15.77,2,5.27,28.87,79.08-23.14,100.32A.71.71,0,0,1,108.81,168.24Z" transform="translate(214.01)"/><path class="cls-4" d="M-75.92,381.78s2.7,47.53-3.79,73.45c0,0,20,9.18,19.45,13.5s-25.38-3.24-28.08-7.56c-4.26-6.81,4.32-4.86,4.32-81C-84,380.16-81.32,376.38-75.92,381.78Z" transform="translate(214.01)"/><path class="cls-4" d="M-63.38,470.74c-7,0-23.2-5.41-25.57-9.19-1.78-2.84-1.49-4.35-.55-9.35,1.55-8.15,4.76-25.1,4.76-72a.74.74,0,0,1,.13-.41,4.22,4.22,0,0,1,3.34-1.59c1.82,0,3.79,1,5.86,3.12a.72.72,0,0,1,.2.46c0,.47,2.6,47.23-3.66,73.09,4.37,2,19.87,9.59,19.32,14C-59.71,470.09-61,470.74-63.38,470.74Zm-19.93-90.31c0,46.87-3.23,63.86-4.78,72-.91,4.82-1.13,6,.35,8.33,1.94,3.1,17.42,8.51,24.36,8.51,1.72,0,2.37-.36,2.41-.66.32-2.62-10.93-9-19-12.76a.72.72,0,0,1-.4-.83c6.13-24.5,4-69,3.78-72.95-1.7-1.64-3.3-2.51-4.65-2.51A2.86,2.86,0,0,0-83.31,380.43Z" transform="translate(214.01)"/><path class="cls-4" d="M28.81,385.83s7,47.09,2.81,73.49c0,0,20.73,7.35,20.58,11.7s-25.57-.95-28.65-5c-4.85-6.4,3.87-5.23-3-81.07C20.59,384.94,22.94,380.93,28.81,385.83Z" transform="translate(214.01)"/><path class="cls-4" d="M47.64,473.36c-7.66,0-22.22-3.71-24.66-6.92-2-2.67-1.88-4.2-1.38-9.26.81-8.26,2.48-25.43-1.73-72.17a.72.72,0,0,1,.1-.43,4.22,4.22,0,0,1,3.61-1.9c1.71,0,3.62.87,5.68,2.6a.66.66,0,0,1,.25.44c.07.47,6.82,46.81,2.91,73.12,4.53,1.64,20.65,7.77,20.5,12.2C52.84,473.36,48.93,473.36,47.64,473.36ZM21.33,385.14c4.19,46.68,2.51,63.89,1.7,72.17-.48,4.88-.59,6,1.09,8.27,2,2.61,15.83,6.35,23.52,6.35,3,0,3.83-.61,3.84-.94.09-2.64-11.69-8-20.09-11a.7.7,0,0,1-.47-.78c3.9-25-2.23-69.11-2.78-73a7.76,7.76,0,0,0-4.56-2.1A2.84,2.84,0,0,0,21.33,385.14Z" transform="translate(214.01)"/><path class="cls-5" d="M106.51,282.53c11-2.94,16.32-.95,15.21,18.25C118.51,356.94,36.39,399.05,6.15,407.7c-26.93,7.71-175-36.71-182.51-124.19S-56.49,70.73-4.65,70.73c37.95,0,136.1,82.08,128.55,126.37-1.45,8.46-6.56,14.59-14.11,18.94a62.24,62.24,0,0,1-18.94,6.7,140.46,140.46,0,0,1-27,2.49c-.07-.28-.1-.44-.1-.44s-.06.16-.19.44a257.56,257.56,0,0,1-31.41-1.8c-9-1-17.55-2.43-25.1-3.91-10.32-2.06-18.72-4.33-23.58-6.22a23.77,23.77,0,0,0-6.75-1.64v0c-20.46-1.83-21.85,31,1.38,52.1,1.36,1.23,2.78,2.43,4.3,3.56,15.81,11.87,30.43,18.94,43.78,22.79a98.58,98.58,0,0,0,28.73,4c.13.38.19.6.19.6s.1-.22.26-.63a107.19,107.19,0,0,0,25.69-3.63C91.48,287.74,100,284.27,106.51,282.53Z" transform="translate(214.01)"/><path class="cls-6" d="M-5.19,258.66c5.78,1.42,5.59,18,5.59,18S12.27,270,18.05,270s8.27,19.6,8.27,19.6l-.13.47c-13.35-3.85-28-10.92-43.78-22.79-1.52-1.13-2.94-2.33-4.3-3.56l.7-.76S-10.93,257.21-5.19,258.66Z" transform="translate(214.01)"/><path class="cls-6" d="M54.92,294.05a98.58,98.58,0,0,1-28.73-4l.13-.47s6.47-15.12,14.4-15.12C47.82,274.48,53.75,290.71,54.92,294.05Z" transform="translate(214.01)"/><path class="cls-6" d="M81,290.33l0,.06A107.19,107.19,0,0,1,55.37,294c1.35-3.22,7.54-17.52,12-18.81C72.41,273.79,81,290.33,81,290.33Z" transform="translate(214.01)"/><path class="cls-6" d="M89.68,270.88c5.65-1.23,14.65,9.06,16.83,11.65-6.54,1.74-15,5.21-25.45,7.86l0-.06S83.21,272.33,89.68,270.88Z" transform="translate(214.01)"/><path class="cls-6" d="M109.85,216.17s6.48,18.72,1.42,22.32-20.14-14.4-20.14-14.4l-.28-1.35a62.24,62.24,0,0,0,18.94-6.7Z" transform="translate(214.01)"/><path class="cls-6" d="M90.85,222.74l.28,1.35s-8.65,23-15.84,24.47c-6.63,1.33-10.83-20-11.43-23.33A140.46,140.46,0,0,0,90.85,222.74Z" transform="translate(214.01)"/><path class="cls-6" d="M32.16,223.43a257.56,257.56,0,0,0,31.41,1.8c-1.29,3-9,20.59-14.2,21.91-5.78,1.42-17.3-23-17.3-23Z" transform="translate(214.01)"/><path class="cls-6" d="M32.16,223.43l-.09.66s-5,18.73-12.95,18.73S6.87,220.5,6.87,220.5l.19-1C14.61,221,23.16,222.39,32.16,223.43Z" transform="translate(214.01)"/><path class="cls-6" d="M-16.52,213.3c4.86,1.89,13.26,4.16,23.58,6.22l-.19,1s-12.24,18.72-18,18.72S-23.37,213.3-23.37,213.3l.1-1.64A23.77,23.77,0,0,1-16.52,213.3Z" transform="translate(214.01)"/><path class="cls-7" d="M-15.07,179a31.82,31.82,0,0,0-31.8-31.85A31.83,31.83,0,0,0-78.67,179a31.83,31.83,0,0,0,31.8,31.86A31.82,31.82,0,0,0-15.07,179Z" transform="translate(214.01)"/><path class="cls-7" d="M2.24,125.39c0-14.62-12.15-26.48-27.15-26.48S-52,110.77-52,125.39s12.15,26.49,27.14,26.49S2.24,140,2.24,125.39Z" transform="translate(214.01)"/><path class="cls-7" d="M54.84,144.49a26.75,26.75,0,1,0-26.75,26.75A26.74,26.74,0,0,0,54.84,144.49Z" transform="translate(214.01)"/><path class="cls-7" d="M101.69,178.87a26.62,26.62,0,1,0-26.62,26.62A26.62,26.62,0,0,0,101.69,178.87Z" transform="translate(214.01)"/><path class="cls-8" d="M-17.61,178.18A29.16,29.16,0,0,0-46.77,149a29.17,29.17,0,0,0-29.16,29.16,29.17,29.17,0,0,0,29.16,29.17A29.16,29.16,0,0,0-17.61,178.18Z" transform="translate(214.01)"/><path class="cls-8" d="M0,124.45A24.89,24.89,0,0,0-24.89,99.56a24.89,24.89,0,0,0-24.89,24.89,24.89,24.89,0,0,0,24.89,24.89A24.89,24.89,0,0,0,0,124.45Z" transform="translate(214.01)"/><path class="cls-8" d="M52.76,144.16a24.89,24.89,0,1,0-24.89,24.89A24.88,24.88,0,0,0,52.76,144.16Z" transform="translate(214.01)"/><path class="cls-8" d="M99.37,178.46a24.89,24.89,0,1,0-24.89,24.88A24.89,24.89,0,0,0,99.37,178.46Z" transform="translate(214.01)"/><path class="cls-9" d="M-38.66,178.18a8.11,8.11,0,0,0-8.11-8.1,8.1,8.1,0,0,0-8.09,8.1,8.09,8.09,0,0,0,8.09,8.1A8.1,8.1,0,0,0-38.66,178.18Z" transform="translate(214.01)"/><path class="cls-9" d="M-18,124.45a6.91,6.91,0,0,0-6.92-6.91,6.91,6.91,0,0,0-6.91,6.91,6.91,6.91,0,0,0,6.91,6.92A6.92,6.92,0,0,0-18,124.45Z" transform="translate(214.01)"/><path class="cls-9" d="M34.78,144.16a6.92,6.92,0,1,0-6.91,6.92A6.91,6.91,0,0,0,34.78,144.16Z" transform="translate(214.01)"/><path class="cls-9" d="M81.39,178.46a6.92,6.92,0,1,0-6.91,6.91A6.91,6.91,0,0,0,81.39,178.46Z" transform="translate(214.01)"/><path class="cls-10" d="M-129.86,261.11c-7.9-6.36-43.5,10.39-70.63,22-10.08,4.32-20.1,54.2-7.92,58.33C-161.45,357.37-100.64,284.64-129.86,261.11Z" transform="translate(214.01)"/><path class="cls-4" d="M-128.31,224.63s-40-1.08-30.24-79.39c0,0,14.31-3.51,14.85-8.91s-9.45-.81-9.45-.81,6.48-16.47,3.51-17c-2.45-.44-10.8,12.69-10.8,12.69s2.16-15.66-1.89-15.39-4.32,16.2-4.32,16.2-8.1-11.07-9.45-6.75,5.94,14.58,5.94,14.58-16.47,82.09,40.23,94C-129.93,233.81-120.79,230.25-128.31,224.63Z" transform="translate(214.01)"/><path class="cls-10" d="M-3.21,76s2.05-1.59,5.43-4.61C3.93,69.89,5.88,68,8,65.72a63,63,0,0,0,6.46-8,28.3,28.3,0,0,0,4.55-10.49,16.41,16.41,0,0,0-2.45-12,13.5,13.5,0,0,0-4.42-4.44A11.76,11.76,0,0,0,6,29.33,16.3,16.3,0,0,0-.61,31a13.25,13.25,0,0,0-5.12,4.13,2.14,2.14,0,0,0-.46,1.72,2.52,2.52,0,0,0,1.75,1.06,5.59,5.59,0,0,0,2.7-.44,14.56,14.56,0,0,0,3-1.75,28.13,28.13,0,0,0,8.57-11.5,21.64,21.64,0,0,0,1.52-6.64,12.58,12.58,0,0,0-1.13-6C8.57,8.13,5.05,6.19,1.79,5.25A25.78,25.78,0,0,0-.95,4.58a17.68,17.68,0,0,0-2.29-.19,10.64,10.64,0,0,0-4.21.78,12.53,12.53,0,0,0-5.61,4.38,20.41,20.41,0,0,0-2.51,4.27,16.91,16.91,0,0,0-.65,1.59v0a1.42,1.42,0,0,1-1.78.91,1.4,1.4,0,0,1-1-1.57,18.68,18.68,0,0,1,.49-2,23.23,23.23,0,0,1,2.39-5.28,16.34,16.34,0,0,1,7-6.21A15.17,15.17,0,0,1-3.29,0,21.69,21.69,0,0,1,0,.24C1.08.37,1.89.67,2.9.88A18.1,18.1,0,0,1,9.21,3.94a13.79,13.79,0,0,1,4.58,6.12,16,16,0,0,1,.82,7.75,26.75,26.75,0,0,1-2,7.49A35.17,35.17,0,0,1,3.4,38.37c-2.22,1.7-4.6,3.68-8.6,3.37a6.27,6.27,0,0,1-4.7-3,6.17,6.17,0,0,1,.42-5.83,16.38,16.38,0,0,1,6.84-6,20.69,20.69,0,0,1,8.51-2.27,16.42,16.42,0,0,1,8.71,2,18.32,18.32,0,0,1,6.24,6.07,25.15,25.15,0,0,1,3.28,7.41,22.7,22.7,0,0,1,.45,7.93,28.73,28.73,0,0,1-5.29,13,48.23,48.23,0,0,1-7.64,8.45,67.29,67.29,0,0,1-6.85,5.23,50.17,50.17,0,0,1-6.51,3.73h0a1.43,1.43,0,0,1-1.87-.73A1.43,1.43,0,0,1-3.21,76Z" transform="translate(214.01)"/><path class="cls-10" d="M-9.5,15.09a5.94,5.94,0,0,0-5.94-5.94,5.94,5.94,0,0,0-5.94,5.94A5.94,5.94,0,0,0-15.44,21,5.94,5.94,0,0,0-9.5,15.09Z" transform="translate(214.01)"/><path class="cls-8" d="M-85.23,238.79c-6.29,0-13.81-1.79-17.18-5.64-1.72-2-3.13-5.28-.09-10a1.13,1.13,0,0,1,1.57-.33,1.13,1.13,0,0,1,.34,1.57c-1.85,2.85-1.89,5.22-.12,7.24,4.32,4.93,17.65,6,22.37,3.76a1.13,1.13,0,0,1,1.51.54,1.13,1.13,0,0,1-.54,1.51A19.48,19.48,0,0,1-85.23,238.79Z" transform="translate(214.01)"/><path class="cls-8" d="M-78.08,276.78a20,20,0,0,1-5.81-.86,13.12,13.12,0,0,1-6.73-4.39,8.17,8.17,0,0,1-1.17-8.18,1.13,1.13,0,0,1,1.5-.57,1.15,1.15,0,0,1,.56,1.51,6,6,0,0,0,.92,5.87,11.07,11.07,0,0,0,5.59,3.58,17.8,17.8,0,0,0,12.62-.87,1.13,1.13,0,0,1,1.51.54,1.14,1.14,0,0,1-.55,1.51A20,20,0,0,1-78.08,276.78Z" transform="translate(214.01)"/><path class="cls-8" d="M-95.66,322.4a19.71,19.71,0,0,1-5.81-.87,13.05,13.05,0,0,1-6.73-4.38,8.19,8.19,0,0,1-1.17-8.19,1.13,1.13,0,0,1,1.5-.56,1.13,1.13,0,0,1,.56,1.51,6,6,0,0,0,.92,5.87,11.11,11.11,0,0,0,5.59,3.58,17.75,17.75,0,0,0,12.62-.88,1.14,1.14,0,0,1,1.51.55,1.13,1.13,0,0,1-.55,1.51A19.94,19.94,0,0,1-95.66,322.4Z" transform="translate(214.01)"/><path class="cls-8" d="M-64.66,310.57a19.64,19.64,0,0,1-5.8-.87,13.12,13.12,0,0,1-6.74-4.38,8.19,8.19,0,0,1-1.17-8.19,1.14,1.14,0,0,1,1.51-.56,1.14,1.14,0,0,1,.56,1.51,6,6,0,0,0,.92,5.87,11.07,11.07,0,0,0,5.59,3.58,17.72,17.72,0,0,0,12.61-.88,1.14,1.14,0,0,1,1.51.55,1.13,1.13,0,0,1-.54,1.51A20,20,0,0,1-64.66,310.57Z" transform="translate(214.01)"/><path class="cls-8" d="M-41.7,338.51a19.64,19.64,0,0,1-5.8-.86,13.18,13.18,0,0,1-6.74-4.38,8.19,8.19,0,0,1-1.17-8.19,1.14,1.14,0,0,1,1.51-.56,1.13,1.13,0,0,1,.56,1.5,6,6,0,0,0,.91,5.88,11.14,11.14,0,0,0,5.6,3.58,17.72,17.72,0,0,0,12.61-.88,1.13,1.13,0,0,1,1.51.55,1.14,1.14,0,0,1-.54,1.51A20,20,0,0,1-41.7,338.51Z" transform="translate(214.01)"/><path class="cls-8" d="M-43.24,294.7a15.19,15.19,0,0,1-6.64-1.29c-3.46-1.66-6.1-6.11-4.35-9.82a1.14,1.14,0,0,1,1.51-.54,1.14,1.14,0,0,1,.55,1.51c-1.15,2.44.78,5.6,3.27,6.81,2.69,1.29,5.85,1.15,9.4.85s6.56-.67,8.91-2.41a1.13,1.13,0,0,1,1.59.24,1.14,1.14,0,0,1-.23,1.59c-2.83,2.09-6.39,2.54-10.09,2.85C-40.49,294.59-41.83,294.7-43.24,294.7Z" transform="translate(214.01)"/></g></g></g></g></svg>