<svg xmlns="http://www.w3.org/2000/svg" xmlns:xlink="http://www.w3.org/1999/xlink" viewBox="0 0 354.95 473.36"><defs><style>.cls-1{fill:none;}.cls-2{isolation:isolate;}.cls-3{clip-path:url(#clip-path);}.cls-4{fill:#f5db6c;}.cls-5{fill:#e67e76;}.cls-6{fill:#fcfbe8;}.cls-7{fill:#5d2176;opacity:0.2;mix-blend-mode:multiply;}.cls-8{fill:#fff;}.cls-9{fill:#1d110c;}.cls-10{fill:#cc516b;}</style><clipPath id="clip-path" transform="translate(-25.73 66.43)"><rect class="cls-1" width="239.74" height="418.38"/></clipPath></defs><g class="cls-2"><g id="圖層_2" data-name="圖層 2"><g id="圖層_1-2" data-name="圖層 1"><g class="cls-3"><path class="cls-4" d="M345.3,92.35s39.12-8.26,15.45-83.54c0,0-14.72-.87-16.22-6.08s9.15-2.5,9.15-2.5-9.34-15-6.52-16.11c2.33-.88,12.91,10.54,12.91,10.54s-4.94-15-.91-15.48,7.17,15.16,7.17,15.16,6-12.35,8.08-8.34-3.22,15.41-3.22,15.41,31,77.77-22.64,99.68" transform="translate(-25.73 66.43)"/><path class="cls-4" d="M348.55,101.81a.71.71,0,0,1-.66-.45.73.73,0,0,1,.39-.94c52.38-21.39,22.55-98,22.24-98.75a.73.73,0,0,1,0-.56C372-2,375.36-10.64,373.77-13.67c-.22-.41-.37-.39-.45-.42C372-14.06,369-9.53,367-5.35a.73.73,0,0,1-.74.4.72.72,0,0,1-.61-.57c-1.25-6.21-4.05-14.89-6.39-14.58a.66.66,0,0,0-.52.35c-1.27,2,.57,9.75,2,14.19a.71.71,0,0,1-.31.84.72.72,0,0,1-.89-.13c-5.48-5.91-11-10.66-12.14-10.35-.77.87,2.44,7.9,6.88,15.05a.73.73,0,0,1,0,.8.74.74,0,0,1-.76.27C351,.29,346.6-.26,345.41,1c-.12.12-.49.5-.19,1.55,1.12,3.88,11.62,5.33,15.57,5.57a.71.71,0,0,1,.64.5c9.83,31.25,10.24,54.92,1.23,70.34-6.91,11.82-16.79,14-17.21,14.11a.72.72,0,1,1-.3-1.4c.1,0,9.72-2.2,16.3-13.48,6-10.31,10.65-30.59-1.24-68.67-2.92-.22-14.88-1.42-16.37-6.57A2.83,2.83,0,0,1,344.38,0c1.58-1.63,5.52-1.22,7.82-.8C350-4.56,345.16-13,346-15.61a1.47,1.47,0,0,1,.88-.94c2-.79,7.82,4.63,11.61,8.53-1.06-3.82-2.49-10.19-1-12.5a2.09,2.09,0,0,1,1.57-1c3.8-.4,6.45,9.12,7.52,13.75,1.54-2.87,4.45-7.7,6.69-7.74A1.92,1.92,0,0,1,375-14.34c2.09,4-2.13,13.71-3.07,15.77,2,5.26,28.87,79.08-23.14,100.32A.71.71,0,0,1,348.55,101.81Z" transform="translate(-25.73 66.43)"/><path class="cls-4" d="M163.82,315.35s2.7,47.53-3.79,73.45c0,0,20,9.18,19.45,13.5s-25.38-3.24-28.08-7.56c-4.26-6.81,4.32-4.86,4.32-81C155.72,313.73,158.42,310,163.82,315.35Z" transform="translate(-25.73 66.43)"/><path class="cls-4" d="M176.36,404.31c-7,0-23.2-5.41-25.57-9.19-1.78-2.85-1.49-4.35-.55-9.35,1.55-8.15,4.76-25.1,4.76-72a.72.72,0,0,1,.13-.42,4.26,4.26,0,0,1,3.34-1.58c1.82,0,3.79,1,5.86,3.12a.72.72,0,0,1,.2.46c0,.47,2.6,47.23-3.66,73.09,4.37,2,19.87,9.59,19.32,14C180,403.66,178.74,404.31,176.36,404.31ZM156.43,314c0,46.87-3.23,63.86-4.78,72-.91,4.82-1.13,6,.35,8.33,1.94,3.1,17.42,8.51,24.36,8.51,1.71,0,2.37-.36,2.41-.66.32-2.62-10.94-9-19-12.76a.72.72,0,0,1-.4-.83c6.13-24.5,4-69,3.78-72.95-1.7-1.64-3.3-2.51-4.65-2.51A2.86,2.86,0,0,0,156.43,314Z" transform="translate(-25.73 66.43)"/><path class="cls-4" d="M268.54,319.4s7,47.09,2.82,73.49c0,0,20.73,7.35,20.58,11.7s-25.57-.95-28.65-5c-4.85-6.4,3.87-5.23-3-81.07C260.33,318.51,262.68,314.5,268.54,319.4Z" transform="translate(-25.73 66.43)"/><path class="cls-4" d="M287.38,406.93c-7.66,0-22.23-3.71-24.66-6.92-2-2.67-1.88-4.2-1.38-9.27.81-8.25,2.48-25.42-1.73-72.16a.72.72,0,0,1,.1-.43,4.22,4.22,0,0,1,3.61-1.9c1.71,0,3.62.87,5.68,2.6a.66.66,0,0,1,.25.44c.07.47,6.82,46.81,2.91,73.12,4.53,1.64,20.65,7.77,20.5,12.2C292.58,406.93,288.67,406.93,287.38,406.93Zm-26.31-88.22c4.19,46.68,2.51,63.89,1.7,72.17-.48,4.88-.59,6,1.09,8.26,2,2.62,15.83,6.36,23.52,6.36,3,0,3.83-.61,3.84-.94.09-2.64-11.7-8-20.1-11a.7.7,0,0,1-.46-.78c3.9-25-2.23-69.11-2.79-73a7.71,7.71,0,0,0-4.55-2.1A2.82,2.82,0,0,0,261.07,318.71Z" transform="translate(-25.73 66.43)"/><path class="cls-5" d="M346.25,216.1c11.05-2.94,16.32-.95,15.21,18.25-3.22,56.16-85.33,98.27-115.57,106.92C219,349,70.93,304.56,63.38,217.08S183.25,4.3,235.09,4.3c38,0,136.1,82.08,128.55,126.37-1.45,8.46-6.56,14.59-14.11,18.94a62.24,62.24,0,0,1-18.94,6.7,140.46,140.46,0,0,1-27,2.49c-.07-.28-.1-.44-.1-.44s-.06.16-.19.44A257.56,257.56,0,0,1,271.9,157c-9-1-17.55-2.43-25.1-3.91-10.32-2.06-18.72-4.33-23.58-6.22a24.13,24.13,0,0,0-6.76-1.65v0c-20.45-1.83-21.84,31,1.39,52.1,1.36,1.23,2.78,2.43,4.3,3.56,15.81,11.87,30.43,18.94,43.78,22.79a98.58,98.58,0,0,0,28.73,4c.13.38.19.6.19.6s.1-.22.26-.63A107.19,107.19,0,0,0,320.8,224C331.22,221.31,339.71,217.84,346.25,216.1Z" transform="translate(-25.73 66.43)"/><path class="cls-6" d="M234.55,192.23c5.78,1.42,5.59,18,5.59,18s11.87-6.66,17.65-6.66,8.27,19.6,8.27,19.6l-.13.47c-13.35-3.85-28-10.92-43.78-22.79-1.52-1.13-2.94-2.33-4.3-3.56l.7-.76S228.81,190.78,234.55,192.23Z" transform="translate(-25.73 66.43)"/><path class="cls-6" d="M294.66,227.62a98.58,98.58,0,0,1-28.73-4l.13-.47s6.47-15.12,14.4-15.12C287.56,208.05,293.49,224.28,294.66,227.62Z" transform="translate(-25.73 66.43)"/><path class="cls-6" d="M320.77,223.9l0,.06a107.19,107.19,0,0,1-25.69,3.63c1.35-3.22,7.54-17.52,12-18.81C312.15,207.36,320.77,223.9,320.77,223.9Z" transform="translate(-25.73 66.43)"/><path class="cls-6" d="M329.42,204.45c5.65-1.23,14.65,9.06,16.83,11.65-6.54,1.74-15,5.21-25.45,7.86l0-.06S323,205.9,329.42,204.45Z" transform="translate(-25.73 66.43)"/><path class="cls-6" d="M349.59,149.74s6.48,18.72,1.42,22.32-20.14-14.4-20.14-14.4l-.28-1.35a62.24,62.24,0,0,0,18.94-6.7Z" transform="translate(-25.73 66.43)"/><path class="cls-6" d="M330.59,156.31l.28,1.35s-8.65,23.05-15.85,24.47c-6.62,1.33-10.82-20-11.42-23.33A140.46,140.46,0,0,0,330.59,156.31Z" transform="translate(-25.73 66.43)"/><path class="cls-6" d="M271.9,157a257.56,257.56,0,0,0,31.41,1.8c-1.29,3-9,20.58-14.2,21.91-5.78,1.42-17.3-23.05-17.3-23.05Z" transform="translate(-25.73 66.43)"/><path class="cls-6" d="M271.9,157l-.09.66s-5,18.72-12.95,18.72-12.25-22.31-12.25-22.31l.19-1C254.35,154.57,262.9,156,271.9,157Z" transform="translate(-25.73 66.43)"/><path class="cls-6" d="M223.22,146.87c4.86,1.89,13.26,4.16,23.58,6.22l-.19,1s-12.25,18.72-18,18.72-12.25-25.92-12.25-25.92l.09-1.65A24.13,24.13,0,0,1,223.22,146.87Z" transform="translate(-25.73 66.43)"/><path class="cls-7" d="M224.67,112.61a31.8,31.8,0,1,0-31.8,31.86A31.82,31.82,0,0,0,224.67,112.61Z" transform="translate(-25.73 66.43)"/><path class="cls-7" d="M242,59c0-14.62-12.15-26.48-27.15-26.48S187.69,44.34,187.69,59s12.15,26.49,27.14,26.49S242,73.59,242,59Z" transform="translate(-25.73 66.43)"/><path class="cls-7" d="M294.58,78.06a26.75,26.75,0,1,0-26.75,26.75A26.74,26.74,0,0,0,294.58,78.06Z" transform="translate(-25.73 66.43)"/><path class="cls-7" d="M341.43,112.44a26.62,26.62,0,1,0-26.62,26.62A26.62,26.62,0,0,0,341.43,112.44Z" transform="translate(-25.73 66.43)"/><path class="cls-8" d="M222.13,111.75A29.16,29.16,0,1,0,193,140.92,29.16,29.16,0,0,0,222.13,111.75Z" transform="translate(-25.73 66.43)"/><path class="cls-8" d="M239.74,58a24.89,24.89,0,1,0-24.89,24.89A24.89,24.89,0,0,0,239.74,58Z" transform="translate(-25.73 66.43)"/><path class="cls-8" d="M292.5,77.73a24.89,24.89,0,1,0-24.89,24.89A24.88,24.88,0,0,0,292.5,77.73Z" transform="translate(-25.73 66.43)"/><path class="cls-8" d="M339.11,112a24.89,24.89,0,1,0-24.89,24.88A24.89,24.89,0,0,0,339.11,112Z" transform="translate(-25.73 66.43)"/><path class="cls-9" d="M201.08,111.75a8.1,8.1,0,1,0-8.11,8.1A8.11,8.11,0,0,0,201.08,111.75Z" transform="translate(-25.73 66.43)"/><path class="cls-9" d="M221.77,58a6.92,6.92,0,1,0-6.92,6.91A6.91,6.91,0,0,0,221.77,58Z" transform="translate(-25.73 66.43)"/><path class="cls-9" d="M274.52,77.73a6.92,6.92,0,1,0-6.91,6.92A6.91,6.91,0,0,0,274.52,77.73Z" transform="translate(-25.73 66.43)"/><path class="cls-9" d="M321.13,112a6.92,6.92,0,1,0-6.91,6.91A6.91,6.91,0,0,0,321.13,112Z" transform="translate(-25.73 66.43)"/><path class="cls-10" d="M109.88,194.68c-7.9-6.36-43.5,10.39-70.63,22C29.17,221,19.15,270.9,31.33,275,78.29,290.94,139.1,218.21,109.88,194.68Z" transform="translate(-25.73 66.43)"/><path class="cls-4" d="M111.43,158.2s-40-1.08-30.24-79.39c0,0,14.31-3.51,14.85-8.91s-9.45-.81-9.45-.81,6.48-16.47,3.51-17c-2.45-.44-10.8,12.69-10.8,12.69s2.16-15.66-1.89-15.39-4.32,16.2-4.32,16.2S65,54.51,63.64,58.83s5.94,14.58,5.94,14.58-16.47,82.09,40.23,94C109.81,167.38,119,163.82,111.43,158.2Z" transform="translate(-25.73 66.43)"/><path class="cls-10" d="M236.53,9.56S238.58,8,242,4.94c1.71-1.48,3.66-3.41,5.82-5.65a63,63,0,0,0,6.46-8,28.3,28.3,0,0,0,4.55-10.49,16.41,16.41,0,0,0-2.45-12,13.5,13.5,0,0,0-4.42-4.44,11.76,11.76,0,0,0-6.17-1.52,16.1,16.1,0,0,0-6.62,1.63A13.17,13.17,0,0,0,234-31.34a2.14,2.14,0,0,0-.46,1.72,2.52,2.52,0,0,0,1.75,1.06A5.59,5.59,0,0,0,238-29a14.56,14.56,0,0,0,3-1.75,28.13,28.13,0,0,0,8.57-11.5,21.64,21.64,0,0,0,1.52-6.64,12.65,12.65,0,0,0-1.13-6c-1.64-3.43-5.16-5.37-8.42-6.31a25.78,25.78,0,0,0-2.74-.67A17.68,17.68,0,0,0,236.5-62a10.64,10.64,0,0,0-4.21.78,12.53,12.53,0,0,0-5.61,4.38,20.64,20.64,0,0,0-2.51,4.26c-.48,1.07-.65,1.6-.65,1.6v0a1.42,1.42,0,0,1-1.78.91,1.4,1.4,0,0,1-1-1.57,18.68,18.68,0,0,1,.49-2A23.23,23.23,0,0,1,223.65-59a16.34,16.34,0,0,1,7-6.21,15.17,15.17,0,0,1,5.79-1.23,21.69,21.69,0,0,1,3.26.22,29.29,29.29,0,0,1,2.92.64A18.06,18.06,0,0,1,249-62.49a13.79,13.79,0,0,1,4.58,6.12,16,16,0,0,1,.82,7.75,26.75,26.75,0,0,1-2,7.49,35.17,35.17,0,0,1-9.18,13.07c-2.22,1.7-4.6,3.67-8.6,3.37a6.3,6.3,0,0,1-4.7-3,6.17,6.17,0,0,1,.42-5.83,16.47,16.47,0,0,1,6.84-6,20.83,20.83,0,0,1,8.51-2.26,16.42,16.42,0,0,1,8.71,2,18.39,18.39,0,0,1,6.24,6.06,25.32,25.32,0,0,1,3.28,7.42,22.7,22.7,0,0,1,.45,7.93,28.73,28.73,0,0,1-5.29,13A48.23,48.23,0,0,1,251.36,3a67.29,67.29,0,0,1-6.85,5.23A50.17,50.17,0,0,1,238,12h0a1.42,1.42,0,0,1-1.44-2.43Z" transform="translate(-25.73 66.43)"/><path class="cls-10" d="M230.24-51.34a5.94,5.94,0,0,0-5.94-5.94,5.94,5.94,0,0,0-5.94,5.94,5.94,5.94,0,0,0,5.94,5.94A5.94,5.94,0,0,0,230.24-51.34Z" transform="translate(-25.73 66.43)"/><path class="cls-8" d="M154.51,172.36c-6.29,0-13.81-1.79-17.19-5.64-1.71-2-3.12-5.28-.08-10a1.14,1.14,0,0,1,1.91,1.24c-1.85,2.85-1.89,5.22-.12,7.24,4.32,4.93,17.65,6,22.37,3.76a1.13,1.13,0,1,1,1,2.05A19.48,19.48,0,0,1,154.51,172.36Z" transform="translate(-25.73 66.43)"/><path class="cls-8" d="M161.66,210.35a19.71,19.71,0,0,1-5.81-.87,13.12,13.12,0,0,1-6.74-4.38,8.22,8.22,0,0,1-1.17-8.18,1.14,1.14,0,1,1,2.07.94,6,6,0,0,0,.92,5.87,11.07,11.07,0,0,0,5.59,3.58,17.75,17.75,0,0,0,12.62-.88,1.14,1.14,0,1,1,1,2.06A20,20,0,0,1,161.66,210.35Z" transform="translate(-25.73 66.43)"/><path class="cls-8" d="M144.08,256a19.71,19.71,0,0,1-5.81-.87,13.05,13.05,0,0,1-6.73-4.38,8.19,8.19,0,0,1-1.17-8.19,1.13,1.13,0,1,1,2.06.95,6,6,0,0,0,.92,5.87,11.11,11.11,0,0,0,5.59,3.58,17.75,17.75,0,0,0,12.62-.88,1.14,1.14,0,0,1,1,2.06A19.94,19.94,0,0,1,144.08,256Z" transform="translate(-25.73 66.43)"/><path class="cls-8" d="M175.08,244.14a19.64,19.64,0,0,1-5.8-.87,13.12,13.12,0,0,1-6.74-4.38,8.19,8.19,0,0,1-1.17-8.19,1.14,1.14,0,0,1,2.07,1,6,6,0,0,0,.91,5.87,11.14,11.14,0,0,0,5.6,3.58,17.72,17.72,0,0,0,12.61-.88,1.14,1.14,0,0,1,1,2.06A20,20,0,0,1,175.08,244.14Z" transform="translate(-25.73 66.43)"/><path class="cls-8" d="M198,272.08a19.64,19.64,0,0,1-5.8-.86,13.09,13.09,0,0,1-6.74-4.39,8.17,8.17,0,0,1-1.17-8.18,1.14,1.14,0,0,1,2.07.94,6,6,0,0,0,.91,5.88,11.11,11.11,0,0,0,5.59,3.58,17.75,17.75,0,0,0,12.62-.88,1.14,1.14,0,0,1,1,2.06A20,20,0,0,1,198,272.08Z" transform="translate(-25.73 66.43)"/><path class="cls-8" d="M196.5,228.27a15.19,15.19,0,0,1-6.64-1.29c-3.46-1.66-6.1-6.11-4.35-9.82a1.14,1.14,0,0,1,2.06,1c-1.15,2.44.78,5.6,3.27,6.81,2.69,1.29,5.85,1.15,9.4.85s6.56-.67,8.91-2.41a1.14,1.14,0,0,1,1.36,1.83c-2.83,2.09-6.39,2.54-10.09,2.85C199.25,228.16,197.91,228.27,196.5,228.27Z" transform="translate(-25.73 66.43)"/></g></g></g></g></svg>