<svg xmlns="http://www.w3.org/2000/svg" xmlns:xlink="http://www.w3.org/1999/xlink" viewBox="0 0 448.79 419.11"><defs><style>.cls-1{fill:none;}.cls-2{clip-path:url(#clip-path);}.cls-3{fill:#3573b8;}.cls-4{fill:#ab4c98;}.cls-5{fill:#7acce8;}.cls-6{fill:#ba69a7;}.cls-7{fill:#c076ae;}.cls-8{fill:#fff;}</style><clipPath id="clip-path" transform="translate(-21.86 3.31)"><rect class="cls-1" width="223.97" height="427.94"/></clipPath></defs><g id="圖層_2" data-name="圖層 2"><g id="圖層_1-2" data-name="圖層 1"><g class="cls-2"><path class="cls-3" d="M368.17,166.53s44-7.93,56.87-28.31c16.25-25.79,13.27-30.49,13.27-38.48S424.41,86,426.3,81.6s15.17,3.63,15.17,3.63,5-31.22,8.21-30.49S452,72.43,452,72.43s8.14-23.56,11.79-21.62c3.89,2.06-3.65,24.52-3.65,24.52S468.05,62.38,470.22,64c3.37,2.58-14.22,29.9-18,37.16-8.54,16.35-10.35,33.5-22.15,48.34C405.64,180.26,366.27,189,366.27,189Z" transform="translate(-21.86 3.31)"/><path class="cls-3" d="M303,229.41s-6.35,51.35-10.35,88.43-10,65.49-8.07,69.09,23,20,18.63,26.58-36.05-2.36-39.3-10.3,4.43-55.24,2.33-73.36-16.76-84.69-16.76-84.69.32-28.32,13-27S303,229.41,303,229.41Z" transform="translate(-21.86 3.31)"/><path class="cls-3" d="M132.35,226.51s5.05,52.09,9.48,89.11,10.74,65.33,8.84,69-22.74,20.33-18.32,26.86,36-2.9,39.18-10.89-5.06-55.17-3.16-73.32,15.79-84.93,15.79-84.93-.63-28.31-13.27-26.86S132.35,226.51,132.35,226.51Z" transform="translate(-21.86 3.31)"/><path class="cls-4" d="M111.56,56.38S100.87,41.17,87.35,33s-24-14-24-14L59,27.49S66.57,29.2,76,41.1,93.37,72,93.37,72l18.19-15.58Z" transform="translate(-21.86 3.31)"/><path class="cls-3" d="M46.88,30.07C50.61,39.79,60.5,44.19,69,39.9s12.29-15.65,8.55-25.37S63.89.41,55.43,4.7,43.14,20.35,46.88,30.07Z" transform="translate(-21.86 3.31)"/><path class="cls-5" d="M71.88,22c-2.68-7-9.76-10.11-15.82-7a12.61,12.61,0,0,0-5.5,5.64C50.39,15.1,53.08,9.82,57.7,7.48c6.06-3.07,13.14.08,15.82,7a15.58,15.58,0,0,1-.63,12.54A15.62,15.62,0,0,0,71.88,22Z" transform="translate(-21.86 3.31)"/><path class="cls-4" d="M303.78,56.46s9.05-16.55,21.63-26.55,22.43-17.15,22.43-17.15L353,20.65s-7.34,2.73-15.46,15.82-14.1,33-14.1,33l-19.66-13Z" transform="translate(-21.86 3.31)"/><path class="cls-3" d="M365.31,21.58c-2.71,10.15-12.08,15.86-20.92,12.75s-13.81-13.88-11.1-24S345.37-5.57,354.21-2.46,368,11.42,365.31,21.58Z" transform="translate(-21.86 3.31)"/><path class="cls-5" d="M339.66,16.92c1.94-7.28,8.65-11.37,15-9.14a12.13,12.13,0,0,1,6,4.86c-.4-5.45-3.61-10.33-8.43-12-6.34-2.23-13.05,1.86-15,9.13a15.41,15.41,0,0,0,1.91,12.36A15.55,15.55,0,0,1,339.66,16.92Z" transform="translate(-21.86 3.31)"/><path class="cls-4" d="M184.78,60.37c-15-10-34.83-20.19-53-20.21-19.23,0-56.81,10.14-73,23.44,9.6,8.12,34.4,11.36,45.58,17.21C84.61,86.14,45,108.89,32,154.54c11.82,2.17,25.12-7,37.34-7.12C46.2,162,26.94,214.2,21.86,243.11,40.8,226,58.24,217.79,85.45,221.65c-17.6,9.56-25.79,26.93-27.8,60.5,15.2-5.62,28.15-20,44.23-22.75-27.15,27.5-23.21,51.1-20.55,82.45,12.55-14.69,36.79-25.24,50.11-34-1.33,18.86,1.75,37.4,10.38,47.21,6.11-12.8,15.31-33.16,25.27-41.8,1.77,23.62,5.31,44.84,20.73,59.91,7-17.71,26.54-59.52,29.07-59,0,0,44.66,28.07,56.45,50.82.51-17.23.69-48.33-5-62.92,13.22-.72,21.85,7.61,33.28,14.52,10.28,6.22,20.64,18.87,27.8,29.52,1-21.38.69-49-10.53-64.85,21.85-.27,38.76,6.29,57.72,20.33-7.17-27.59-20.61-48.63-40-52.27,24.52-5,43.81-1,68.66,18.39-1.83-27.15-27.8-60-59.51-63.14,10.67-6.9,35.92-9.46,55.72.22-11.79-23.23-33.7-34.36-51.86-35.43,21-6,43.44-2.32,64.08,6.39-7.58-60-68.25-61.46-90.56-55.77,14-9.12,33.76-12.09,49.76-11.61,10.95.33,15.1,1.56,27.32,6.4-26.63-42-69.93-52.75-120.12-38.27,8.93-5.7,19.09-10.3,28.49-15C283,44.52,259,56.62,248.14,65.12c-.44.55-.42.59.07.11C254.46,53.43,259.86,44,271.83,33,219.42,25.16,184.78,60.37,184.78,60.37Z" transform="translate(-21.86 3.31)"/><path class="cls-6" d="M174.15,58c-16-7.76-36.76-15-54.77-12.41-19.09,2.75-55.26,18.25-69.83,33.77C60,86,84.92,85.69,96.65,89.89,77.59,98,40.78,126.3,32.84,173.47,44.79,173.92,57,162.94,69.1,161c-21.33,17.8-34.74,72.35-36.62,101.77,16.92-19.7,33.33-30.37,60.74-30.46-16.42,12-22.64,30.44-21,64,14.48-7.77,25.75-23.92,41.41-28.95-23.94,31.2-17.45,54-11.39,84.76,10.84-16.38,33.75-30.34,46-41,.74,18.91,5.82,36.85,15.45,45.34,4.67-13.58,11.57-35.1,20.5-45.11,4.35,23.17,10.17,43.72,27.12,56.45,5-18.58,19.83-62.88,22.39-62.77,0,0,47.37,21.41,61.56,42.28-1.38-17.16-4.6-48-11.89-61.69,13-2.62,22.51,4.4,34.6,9.61,10.89,4.69,22.54,15.75,30.81,25.28-1.34-21.36-4.68-48.76-17.53-62.82,21.65-3.42,39.14.65,59.48,11.84-10.12-26.33-25.75-45.27-45.42-46.08,23.79-8.46,43.37-7.28,70.14,8.35-4.78-26.68-34.14-55.54-65.94-54.07,9.83-8.38,34.61-14.56,55.31-7.81-14.24-21.34-37.19-29.23-55.33-27.68,20.18-8.93,42.84-8.55,64.28-2.89C399.71,81,339.36,88.28,317.85,97.15,330.73,86.08,350,80.28,366,78.45c10.9-1.24,15.15-.62,27.8,2.42C362.74,43,318.61,38.61,270.4,60.21c8.23-6.94,17.82-13,26.63-19-27.13-13.13-49.64,2.33-59.5,12.34-.37.61-.35.64.08.1,4.91-12.61,9.25-22.71,19.92-35.38C204.67,18.09,174.15,58,174.15,58Z" transform="translate(-21.86 3.31)"/><path class="cls-7" d="M209.79,58.23c-11.24-12.39-26.6-26.11-42.42-30.57-16.76-4.72-51.38-5.05-67.91,2.58,6.86,9.42,27.86,18.32,36.52,26.15-18.24-.21-57,9.93-76.77,46.52,9.89,4.78,23.17.08,33.85,2.93-22.84,7-49.29,47.81-59.08,71.77,19.67-10.28,36.39-13.17,59.38-3.15-17.1,4-27.46,17.16-35.43,45.91,14.29-1.18,28.24-10.56,42.75-9C71.93,228.68,71,250.21,67.5,278.18c13.66-9.74,36.74-13,50-17.41-4.66,16.11-5.4,33,.29,43.67,7.7-9.66,19.49-25.14,29.76-30.24-2.82,21-3.68,40.37,7,57.28,9.36-13.73,34.15-45.38,36.27-44.34,0,0,33.7,35.38,39.76,58.08,3.64-14.88,9.56-41.93,7.26-56.05,11.65,2.61,17.63,12,26.31,20.79,7.81,7.93,14.48,21.49,18.75,32.52,4.84-18.38,9.68-42.57,2.84-59.08,19.09,5.11,32.6,15,46.52,31.82-1.13-25.78-8.94-47.4-25.18-55.32,22.28,1.67,38.35,9.87,56.42,32.81,3.43-24.1-13.11-59.08-40.15-69.56,10.57-3.4,33,.54,48.5,13.82-6-23.13-23-38.18-38.62-43.56,19.4,0,38.28,8.61,54.65,21.25,4.51-54.15-48.07-70.25-68.57-70.74,13.88-4.53,31.66-2.29,45.51,2.05,9.47,3,12.86,5.05,22.61,12.26C372,115.12,336.22,95.16,289.81,95.5c8.83-2.78,18.54-4.3,27.59-6.06-19.06-21-42.23-16.33-53.28-11.57-.49.37-.47.4,0,.11,7.63-8.76,14.08-15.62,26.55-22.3C246.5,36,209.79,58.23,209.79,58.23Z" transform="translate(-21.86 3.31)"/><ellipse class="cls-4" cx="128.75" cy="144.05" rx="20.64" ry="23.63"/><ellipse class="cls-8" cx="128.47" cy="144.14" rx="17.27" ry="19.84"/><ellipse class="cls-3" cx="128.47" cy="144.14" rx="10.11" ry="11.62"/><path class="cls-8" d="M151.59,138.25c0,2.58-1.82,4.68-4.07,4.68s-4.07-2.1-4.07-4.68,1.82-4.68,4.07-4.68S151.59,135.66,151.59,138.25Z" transform="translate(-21.86 3.31)"/><ellipse class="cls-4" cx="248.38" cy="142.85" rx="20.64" ry="23.63"/><path class="cls-8" d="M287.24,139.62c0,11-7.74,19.84-17.28,19.84s-17.27-8.88-17.27-19.84,7.74-19.84,17.27-19.84S287.24,128.66,287.24,139.62Z" transform="translate(-21.86 3.31)"/><path class="cls-3" d="M280.08,139.62c0,6.41-4.53,11.61-10.12,11.61s-10.11-5.2-10.11-11.61S264.38,128,270,128,280.08,133.2,280.08,139.62Z" transform="translate(-21.86 3.31)"/><path class="cls-8" d="M271.23,137c0,2.58-1.82,4.68-4.07,4.68s-4.08-2.1-4.08-4.68,1.83-4.68,4.08-4.68S271.23,134.45,271.23,137Z" transform="translate(-21.86 3.31)"/><path class="cls-4" d="M113.92,106.86c2.38,1.13,5.64,1.91,7.66,3.49-2.9,2.38-4.91,5.85-6.61,9.37,3.46-.25,5.65-4.36,9-5-1.78,3.74-2.65,5.07-3.42,9.5,4.28-3.17,6.48-5,10.84-8.53a37.75,37.75,0,0,0,4.19,2.83c.28-2.26,1.51-4.2,2.07-6.3.06-.22,3.22,5.54,5.86,5.29-.35-1.65.93-6,1.46-7.36a16.8,16.8,0,0,0,6.94,5.23c.5-2.65.68-4.24,1.34-6.83,2.26,2.08,3.41,2.34,6.38,3.39-.26-2.33-.65-3.4-.22-5.56,2.13,2.65,5.89,3,8.85,1.87-2.2-.58-3.53-3.69-4.55-6.47,3.54-.73,5.48-1,8.41-3.34-4.24-1.77-6.44-2.71-10.87-2.11.9-1.27,1.41-3.52,1.74-5.87-4.56.7-4.69,1.21-8.64,3.7-.26-2.79-1.5-3.58-1.1-5.93-3.28,1.11-4.79,4.41-6.37,7.32-.32-2.71-2.17-3.71-2.8-6.48-3.58.91-3.94,9.2-3.94,9.2-.38.12-5.36-5.24-8.65-5,.39,3,1.36,5.86,1.74,8.74-1.79-.71-8.93-6.21-9.26-6s1,7.53.72,9.31C124.72,105.33,117.39,105,113.92,106.86Z" transform="translate(-21.86 3.31)"/><path class="cls-4" d="M252.81,91.77c1.63,2.3,4.17,4.77,5.29,7.26-3.54.51-6.74,2.46-9.7,4.62,3.15,1.68,6.78-.74,10,.57-3.11,2.32-4.43,3-6.95,6.48,5.09-.44,7.79-.88,13.08-1.56a45,45,0,0,0,2.51,4.77c1.18-1.82,3.07-2.86,4.43-4.4.15-.16.54,6.63,3,7.85.38-1.64,3.3-4.76,4.33-5.67a20.64,20.64,0,0,0,3.94,8.4c1.54-2.06,2.36-3.36,4-5.27,1.12,3.06,2,3.92,4.2,6.47.74-2.2.84-3.35,2.12-5a8.89,8.89,0,0,0,7,6.49c-1.69-1.71-1.57-5.18-1.32-8.17,3.42,1.29,5.26,2.07,8.78,1.65-3-3.87-4.54-5.9-8.68-7.79,1.31-.63,2.7-2.33,4-4.21-4.3-1.89-4.62-1.5-9.12-1.48.92-2.59.15-4,1.48-5.82-3.34-.82-6,1.26-8.64,3,.84-2.55-.36-4.44.23-7.22-3.52-1.16-7.28,5.93-7.28,5.93-.39-.1-2.54-7.53-5.51-9.17-.9,2.84-1.23,5.91-2.09,8.65-1.29-1.61-5.29-10.35-5.67-10.33S264,95,263,96.34C263,96.34,256.66,92,252.81,91.77Z" transform="translate(-21.86 3.31)"/><path class="cls-4" d="M213.75,215.06c-24.82,0-39.93-11.32-40.58-11.81a3.19,3.19,0,0,1-.7-4,2.33,2.33,0,0,1,3.5-.81h0c.15.11,15.36,11.43,39.74,10.82,32.2-.81,42.86-13.17,43-13.3a2.32,2.32,0,0,1,3.57-.11,3.21,3.21,0,0,1,.13,4.08c-.47.58-11.9,14.26-46.55,15.14Z" transform="translate(-21.86 3.31)"/><path class="cls-3" d="M65.59,168.05s-6.09,36.64,6.17,57.49c15.51,26.38,20.38,24.77,26.91,27.51s16-10.27,19-6.73-8.17,15.12-8.17,15.12,23.79,16.16,22.11,19.32-15.24-3.6-15.24-3.6S132.8,294,130,297.3c-3,3.48-18.8-12.35-18.8-12.35s7.87,13,5.77,14.79c-3.27,2.75-19.58-25.6-24.21-32.18-10.45-14.83-23.85-22.66-31.94-40.48C44,190.2,50.36,169.77,50.36,169.77Z" transform="translate(-21.86 3.31)"/></g></g></g></svg>