<svg xmlns="http://www.w3.org/2000/svg" xmlns:xlink="http://www.w3.org/1999/xlink" viewBox="0 0 448.79 419.11"><defs><style>.cls-1{fill:none;}.cls-2{clip-path:url(#clip-path);}.cls-3{fill:#3573b8;}.cls-4{fill:#ab4c98;}.cls-5{fill:#7acce8;}.cls-6{fill:#ba69a7;}.cls-7{fill:#c076ae;}.cls-8{fill:#fff;}</style><clipPath id="clip-path" transform="translate(202.7 3.31)"><rect class="cls-1" width="223.97" height="427.94"/></clipPath></defs><g id="圖層_2" data-name="圖層 2"><g id="圖層_1-2" data-name="圖層 1"><g class="cls-2"><path class="cls-3" d="M143.6,166.53s44-7.93,56.87-28.31c16.26-25.79,13.27-30.49,13.27-38.48s-13.9-13.79-12-18.14,15.16,3.63,15.16,3.63S222,54,225.12,54.74s2.28,17.69,2.28,17.69,8.15-23.56,11.8-21.62c3.88,2.06-3.65,24.52-3.65,24.52S243.49,62.38,245.66,64c3.37,2.58-14.23,29.9-18,37.16-8.54,16.35-10.35,33.5-22.15,48.34C181.08,180.26,141.71,189,141.71,189Z" transform="translate(202.7 3.31)"/><path class="cls-3" d="M78.39,229.41S72,280.76,68,317.84,58,383.33,60,386.93s23,20,18.63,26.58-36-2.36-39.3-10.3,4.44-55.24,2.33-73.36-16.75-84.69-16.75-84.69.31-28.32,13-27S78.39,229.41,78.39,229.41Z" transform="translate(202.7 3.31)"/><path class="cls-3" d="M-92.22,226.51s5.06,52.09,9.48,89.11,10.74,65.33,8.85,69-22.75,20.33-18.33,26.86,36-2.9,39.18-10.89-5.06-55.17-3.16-73.32,15.8-84.93,15.8-84.93S-41,214-53.67,215.44-92.22,226.51-92.22,226.51Z" transform="translate(202.7 3.31)"/><path class="cls-4" d="M-113,56.38S-123.69,41.17-137.21,33s-24-14-24-14l-4.32,8.54s7.57,1.71,17,13.61S-131.2,72-131.2,72L-113,56.38Z" transform="translate(202.7 3.31)"/><path class="cls-3" d="M-177.69,30.07c3.74,9.72,13.62,14.12,22.08,9.83s12.29-15.65,8.56-25.37S-160.67.41-169.13,4.7-181.42,20.35-177.69,30.07Z" transform="translate(202.7 3.31)"/><path class="cls-5" d="M-152.69,22c-2.68-7-9.76-10.11-15.82-7a12.66,12.66,0,0,0-5.5,5.64c-.16-5.47,2.53-10.75,7.14-13.09,6.07-3.07,13.15.08,15.82,7a15.58,15.58,0,0,1-.63,12.54A15.36,15.36,0,0,0-152.69,22Z" transform="translate(202.7 3.31)"/><path class="cls-4" d="M79.22,56.46s9-16.55,21.62-26.55,22.43-17.15,22.43-17.15l5.16,7.89S121.1,23.38,113,36.47s-14.1,33-14.1,33l-19.66-13Z" transform="translate(202.7 3.31)"/><path class="cls-3" d="M140.75,21.58C138,31.73,128.67,37.44,119.83,34.33s-13.81-13.88-11.1-24S120.81-5.57,129.65-2.46,143.46,11.42,140.75,21.58Z" transform="translate(202.7 3.31)"/><path class="cls-5" d="M115.09,16.92c1.94-7.28,8.65-11.37,15-9.14a12.15,12.15,0,0,1,6.05,4.86c-.4-5.45-3.61-10.33-8.44-12-6.33-2.23-13,1.86-15,9.13A15.45,15.45,0,0,0,114.6,22.1,15.81,15.81,0,0,1,115.09,16.92Z" transform="translate(202.7 3.31)"/><path class="cls-4" d="M-39.78,60.37c-15-10-34.84-20.19-53-20.21-19.24,0-56.81,10.14-73,23.44,9.6,8.12,34.39,11.36,45.57,17.21-19.8,5.33-59.4,28.08-72.43,73.73,11.81,2.17,25.12-7,37.34-7.12-23.11,14.59-42.38,66.78-47.45,95.69,18.93-17.1,36.37-25.32,63.58-21.46-17.6,9.56-25.79,26.93-27.8,60.5,15.21-5.62,28.15-20,44.23-22.75-27.15,27.5-23.2,51.1-20.54,82.45,12.54-14.69,36.79-25.24,50.1-34-1.33,18.86,1.76,37.4,10.38,47.21,6.12-12.8,15.31-33.16,25.27-41.8,1.78,23.62,5.31,44.84,20.74,59.91,7-17.71,26.54-59.52,29.06-59,0,0,44.66,28.07,56.46,50.82.5-17.23.68-48.33-5.06-62.92,13.22-.72,21.86,7.61,33.28,14.52,10.29,6.22,20.65,18.87,27.81,29.52,1-21.38.68-49-10.54-64.85,21.85-.27,38.76,6.29,57.72,20.33-7.16-27.59-20.6-48.63-40-52.27,24.52-5,43.81-1,68.67,18.39-1.84-27.15-27.81-60-59.51-63.14,10.66-6.9,35.92-9.46,55.72.22-11.8-23.23-33.71-34.36-51.87-35.43,21-6,43.44-2.32,64.08,6.39-7.58-60-68.24-61.46-90.55-55.77,14-9.12,33.76-12.09,49.76-11.61,10.94.33,15.1,1.56,27.31,6.4C149,72.69,105.65,61.94,55.46,76.42c8.93-5.7,19.09-10.3,28.5-15-25.49-16.94-49.51-4.84-60.38,3.66-.44.55-.42.59.07.11C29.89,53.43,35.3,44,47.27,33-5.15,25.16-39.78,60.37-39.78,60.37Z" transform="translate(202.7 3.31)"/><path class="cls-6" d="M-50.41,58c-16-7.76-36.77-15-54.78-12.41-19.09,2.75-55.25,18.25-69.82,33.77,10.41,6.66,35.36,6.31,47.09,10.51C-147,98-183.78,126.3-191.73,173.47c12,.45,24.16-10.53,36.27-12.44-21.34,17.8-34.75,72.35-36.63,101.77,16.92-19.7,33.33-30.37,60.75-30.46-16.42,12-22.65,30.44-21,64,14.47-7.77,25.74-23.92,41.4-28.95-23.94,31.2-17.45,54-11.38,84.76,10.84-16.38,33.74-30.34,46-41,.74,18.91,5.83,36.85,15.45,45.34,4.67-13.58,11.57-35.1,20.51-45.11,4.34,23.17,10.16,43.72,27.11,56.45,5-18.58,19.83-62.88,22.39-62.77,0,0,47.37,21.41,61.56,42.28-1.38-17.16-4.6-48-11.89-61.69,13-2.62,22.52,4.4,34.61,9.61,10.88,4.69,22.54,15.75,30.81,25.28-1.34-21.36-4.68-48.76-17.54-62.82,21.65-3.42,39.14.65,59.48,11.84-10.12-26.33-25.75-45.27-45.41-46.08,23.78-8.46,43.36-7.28,70.13,8.35-4.78-26.68-34.14-55.54-65.93-54.07,9.82-8.38,34.6-14.56,55.3-7.81C166,148.65,143.08,140.76,125,142.31c20.17-8.93,42.84-8.55,64.27-2.89C175.14,81,114.8,88.28,93.29,97.15c12.88-11.07,32.17-16.87,48.1-18.7,10.89-1.24,15.15-.62,27.8,2.42C138.17,43,94,38.61,45.83,60.21c8.24-6.94,17.82-13,26.64-19C45.33,28.13,22.83,43.59,13,53.6c-.38.61-.35.64.08.1C18,41.09,22.29,31,33,18.32-19.9,18.09-50.41,58-50.41,58Z" transform="translate(202.7 3.31)"/><path class="cls-7" d="M-14.77,58.23C-26,45.84-41.38,32.12-57.2,27.66c-16.75-4.72-51.37-5.05-67.91,2.58,6.87,9.42,27.87,18.32,36.52,26.15-18.24-.21-56.95,9.93-76.77,46.52,9.89,4.78,23.17.08,33.85,2.93-22.84,7-49.29,47.81-59.07,71.77,19.66-10.28,36.39-13.17,59.38-3.15-17.11,4-27.46,17.16-35.44,45.91,14.29-1.18,28.24-10.56,42.76-9-28.76,17.31-29.69,38.84-33.18,66.81,13.65-9.74,36.73-13,50-17.41-4.65,16.11-5.4,33,.29,43.67C-99.1,294.78-87.32,279.3-77,274.2c-2.83,21-3.68,40.37,7,57.28,9.36-13.73,34.16-45.38,36.27-44.34,0,0,33.71,35.38,39.77,58.08,3.63-14.88,9.55-41.93,7.25-56.05,11.65,2.61,17.63,12,26.31,20.79,7.81,7.93,14.49,21.49,18.75,32.52,4.84-18.38,9.69-42.57,2.85-59.08,19.08,5.11,32.6,15,46.51,31.82-1.12-25.78-8.94-47.4-25.18-55.32,22.29,1.67,38.35,9.87,56.42,32.81,3.44-24.1-13.1-59.08-40.15-69.56,10.57-3.4,33.05.54,48.51,13.82-6-23.13-23-38.18-38.62-43.56,19.39,0,38.27,8.61,54.64,21.25,4.52-54.15-48.07-70.25-68.56-70.74,13.87-4.53,31.65-2.29,45.5,2.05,9.48,3,12.87,5.05,22.62,12.26-15.43-43.11-51.16-63.07-97.57-62.73,8.84-2.78,18.54-4.3,27.6-6.06-19.07-21-42.23-16.33-53.29-11.57-.48.37-.47.4,0,.11,7.63-8.76,14.08-15.62,26.56-22.3C21.93,36-14.77,58.23-14.77,58.23Z" transform="translate(202.7 3.31)"/><ellipse class="cls-4" cx="128.75" cy="144.05" rx="20.64" ry="23.63"/><ellipse class="cls-8" cx="128.47" cy="144.14" rx="17.27" ry="19.84"/><ellipse class="cls-3" cx="128.47" cy="144.14" rx="10.11" ry="11.62"/><path class="cls-8" d="M-73,138.25c0,2.58-1.83,4.68-4.08,4.68s-4.07-2.1-4.07-4.68,1.82-4.68,4.07-4.68S-73,135.66-73,138.25Z" transform="translate(202.7 3.31)"/><ellipse class="cls-4" cx="248.38" cy="142.85" rx="20.64" ry="23.63"/><path class="cls-8" d="M62.67,139.62c0,11-7.73,19.84-17.27,19.84s-17.27-8.88-17.27-19.84,7.73-19.84,17.27-19.84S62.67,128.66,62.67,139.62Z" transform="translate(202.7 3.31)"/><path class="cls-3" d="M55.51,139.62c0,6.41-4.53,11.61-10.11,11.61S35.29,146,35.29,139.62,39.81,128,45.4,128,55.51,133.2,55.51,139.62Z" transform="translate(202.7 3.31)"/><path class="cls-8" d="M46.66,137c0,2.58-1.82,4.68-4.07,4.68s-4.07-2.1-4.07-4.68,1.82-4.68,4.07-4.68S46.66,134.45,46.66,137Z" transform="translate(202.7 3.31)"/><path class="cls-4" d="M-110.65,106.86c2.39,1.13,5.65,1.91,7.66,3.49-2.89,2.38-4.9,5.85-6.61,9.37,3.47-.25,5.65-4.36,9-5-1.78,3.74-2.65,5.07-3.42,9.5,4.29-3.17,6.48-5,10.85-8.53A36.87,36.87,0,0,0-89,118.55c.29-2.26,1.52-4.2,2.08-6.3.06-.22,3.22,5.54,5.85,5.29-.34-1.65.93-6,1.46-7.36a16.86,16.86,0,0,0,6.94,5.23c.51-2.65.68-4.24,1.34-6.83,2.26,2.08,3.41,2.34,6.38,3.39-.26-2.33-.65-3.4-.22-5.56,2.13,2.65,5.9,3,8.85,1.87-2.19-.58-3.53-3.69-4.55-6.47,3.54-.73,5.49-1,8.41-3.34-4.24-1.77-6.44-2.71-10.86-2.11.89-1.27,1.4-3.52,1.73-5.87-4.56.7-4.68,1.21-8.63,3.7-.27-2.79-1.51-3.58-1.11-5.93-3.28,1.11-4.79,4.41-6.37,7.32-.32-2.71-2.16-3.71-2.79-6.48-3.58.91-4,9.2-4,9.2-.38.12-5.35-5.24-8.65-5,.39,3,1.37,5.86,1.75,8.74-1.8-.71-8.94-6.21-9.27-6s1,7.53.73,9.31C-99.84,105.33-107.18,105-110.65,106.86Z" transform="translate(202.7 3.31)"/><path class="cls-4" d="M28.25,91.77c1.62,2.3,4.16,4.77,5.28,7.26-3.53.51-6.74,2.46-9.7,4.62,3.16,1.68,6.78-.74,10,.57-3.12,2.32-4.43,3-7,6.48,5.08-.44,7.79-.88,13.07-1.56a45,45,0,0,0,2.51,4.77c1.19-1.82,3.07-2.86,4.44-4.4.14-.16.53,6.63,3,7.85.38-1.64,3.3-4.76,4.34-5.67a20.5,20.5,0,0,0,3.93,8.4c1.54-2.06,2.36-3.36,4-5.27,1.13,3.06,2,3.92,4.2,6.47.75-2.2.85-3.35,2.12-5a8.89,8.89,0,0,0,7,6.49c-1.69-1.71-1.57-5.18-1.32-8.17,3.42,1.29,5.26,2.07,8.78,1.65-3-3.87-4.54-5.9-8.68-7.79,1.32-.63,2.7-2.33,4-4.21-4.3-1.89-4.61-1.5-9.12-1.48.92-2.59.16-4,1.49-5.82-3.35-.82-6,1.26-8.64,3,.84-2.55-.37-4.44.23-7.22-3.53-1.16-7.29,5.93-7.29,5.93-.38-.1-2.53-7.53-5.51-9.17-.89,2.84-1.23,5.91-2.09,8.65C46,96.47,42,87.73,41.6,87.75s-2.2,7.2-3.22,8.59C38.38,96.34,32.09,92,28.25,91.77Z" transform="translate(202.7 3.31)"/><path class="cls-4" d="M-10.81,215.06c-24.83,0-39.94-11.32-40.58-11.81a3.18,3.18,0,0,1-.71-4,2.33,2.33,0,0,1,3.5-.81h0c.15.11,15.36,11.43,39.75,10.82,32.19-.81,42.85-13.17,43-13.3a2.31,2.31,0,0,1,3.56-.11,3.2,3.2,0,0,1,.13,4.08c-.47.58-11.9,14.26-46.54,15.14Z" transform="translate(202.7 3.31)"/><path class="cls-3" d="M-159,168.05s-6.09,36.64,6.17,57.49c15.51,26.38,20.39,24.77,26.91,27.51s16.05-10.27,19-6.73-8.17,15.12-8.17,15.12S-91.31,277.6-93,280.76s-15.25-3.6-15.25-3.6S-91.77,294-94.61,297.3c-3,3.48-18.8-12.35-18.8-12.35s7.87,13,5.77,14.79c-3.26,2.75-19.57-25.6-24.21-32.18-10.44-14.83-23.84-22.66-31.93-40.48-16.75-36.88-10.43-57.31-10.43-57.31Z" transform="translate(202.7 3.31)"/></g></g></g></svg>