<svg xmlns="http://www.w3.org/2000/svg" xmlns:xlink="http://www.w3.org/1999/xlink" viewBox="0 0 396.01 417.9"><defs><style>.cls-1{fill:none;}.cls-2{clip-path:url(#clip-path);}.cls-3{fill:#b2ddd9;}.cls-4{fill:#8656a0;}.cls-5{fill:#b594c3;}.cls-6{fill:#6fc7d4;}.cls-7{fill:#459eaa;}.cls-8{fill:#94d2d9;}.cls-9{fill:#1d110c;}.cls-10{fill:#fff;}.cls-11{fill:#f0c21c;}.cls-12{fill:#e290a9;}</style><clipPath id="clip-path" transform="translate(205.04 -15.31)"><rect class="cls-1" width="205.04" height="433.21"/></clipPath></defs><g id="圖層_2" data-name="圖層 2"><g id="圖層_1-2" data-name="圖層 1"><g class="cls-2"><path class="cls-3" d="M104,321.7a93.11,93.11,0,0,0,4.42-28.39A93.77,93.77,0,0,0,107,277.14a129.14,129.14,0,0,0,26.77-78.86C133.81,126.27,75,67.9,2.35,67.9s-131.47,58.37-131.47,130.38A129.19,129.19,0,0,0-97.8,282.73a92.62,92.62,0,0,0-.61,10.58,93.34,93.34,0,0,0,2.67,22.18c-25.06,8-57.58,25.81-49.83,63.26L-75.27,355c.66.77,1.33,1.54,2,2.29-.1,1.61-.16,3.24-.16,4.87a75.37,75.37,0,0,0,49,70.49c4.74-3.05,9.69-9.84,12.83-24.11,8.19-37.3,25-11.48,25.41-7.79.24,2.18,6.21,20.53,13.67,32.47A75.39,75.39,0,0,0,78.1,362.57q1.56-1.49,3.06-3L138,378.75C144.18,348.93,124.83,331.58,104,321.7Z" transform="translate(205.04 -15.31)"/><path class="cls-4" d="M-83.72,100.49S-56,40-11.75,38.89s48.08-12,48.08-12L24.43,50S87.29,67.5,101.89,37.41s-18.15,105.19-67,111.33S-83.72,100.49-83.72,100.49Z" transform="translate(205.04 -15.31)"/><path class="cls-5" d="M-73.86,98.3s21.72-29.09,54.09-33.19,35.27-9,35.27-9S11.76,73.3,2.35,77.2s51,17.82,67.08,0-14.61,49.38-46.17,47.33S-73.86,98.3-73.86,98.3Z" transform="translate(205.04 -15.31)"/><path class="cls-6" d="M-113.4,92.19l-.13.42s-37.4,9.48-61.25,64.61l0,.08C-190.61,145.56-204.31,128.62-205,105a86,86,0,0,1,1-15.79c33.6-33.43,55.82-22.38,55.82-22.38C-147.28,79.48-130.18,87.42-113.4,92.19Z" transform="translate(205.04 -15.31)"/><path class="cls-7" d="M-82.06,98.3l-1.58,1.34c-18.49,16.06-32.44,45.5-42.64,80.39l-.24-.06s-26.18-6.21-48.3-22.67l0-.08c23.85-55.13,61.25-64.61,61.25-64.61l.13-.42A211.88,211.88,0,0,0-82.06,98.3Z" transform="translate(205.04 -15.31)"/><path class="cls-8" d="M-140.73,15.65c10.95,4.24-8.75,31.89-7.43,51.15,0,0-22.22-11-55.82,22.38C-196.48,41.51-150.61,11.79-140.73,15.65Z" transform="translate(205.04 -15.31)"/><path class="cls-8" d="M188.83,86.47c-35.78-31.07-57.22-18.55-57.22-18.55,0-19.31-21.5-45.53-10.88-50.53C130.35,12.87,178.11,39.41,188.83,86.47Z" transform="translate(205.04 -15.31)"/><path class="cls-6" d="M190.93,102.18c.91,23.62-11.63,41.45-26.55,54.23l0-.06C136.78,102.93,98.84,96,98.84,96l-.15-.42c16.41-5.87,32.92-15,32.92-27.67,0,0,21.44-12.52,57.22,18.55A85.49,85.49,0,0,1,190.93,102.18Z" transform="translate(205.04 -15.31)"/><path class="cls-7" d="M164.33,156.35l0,.06a140.74,140.74,0,0,1-32,20.08l-1.06.37c-11-32.23-26.17-59.69-47-76.8,4.47-1.2,9.4-2.68,14.37-4.47l.15.42S136.78,102.93,164.33,156.35Z" transform="translate(205.04 -15.31)"/><path class="cls-9" d="M-70.75,209.5s-.06-.24-.15-.69a18.86,18.86,0,0,1-.31-2,31.61,31.61,0,0,1,0-7.1,24.67,24.67,0,0,1,1-4.78,18.94,18.94,0,0,1,2.41-5.11l.85-1.26,1-1.17a12.41,12.41,0,0,1,2.38-2.12,14.59,14.59,0,0,1,2.76-1.67,13.85,13.85,0,0,1,3-1.17l.77-.23.38-.12.1,0,.33-.06.17,0,1.37-.2a16,16,0,0,1,3.27-.1,17.15,17.15,0,0,1,6.15,1.69,21.15,21.15,0,0,1,4.65,3.23,23.84,23.84,0,0,1,3.28,3.59,27.08,27.08,0,0,1,2.21,3.36c.6,1,1.05,2,1.41,2.72a19,19,0,0,1,.76,1.83l.25.69a1.54,1.54,0,0,1-.93,2,1.54,1.54,0,0,1-1.83-.62l-.07-.11-.33-.5c-.22-.34-.57-.84-1-1.47a37,37,0,0,0-4-4.84,24.12,24.12,0,0,0-3-2.68,19,19,0,0,0-3.67-2.17c-.67-.25-1.35-.48-2-.67a14.5,14.5,0,0,0-2.06-.26,7.61,7.61,0,0,0-2.17.09l-1.36.21-.9.3A12.79,12.79,0,0,0-60.14,190a9,9,0,0,0-1.67,1.39l-.78.76-.65.87a17.57,17.57,0,0,0-2.1,3.72,28.3,28.3,0,0,0-1.25,3.82,37.42,37.42,0,0,0-1,6.19c0,.76-.08,1.36-.1,1.76s0,.62,0,.62v.09a1.55,1.55,0,0,1-1.58,1.52A1.54,1.54,0,0,1-70.75,209.5Z" transform="translate(205.04 -15.31)"/><path class="cls-9" d="M37.28,187s0-.25,0-.71-.05-1.14,0-2a31.47,31.47,0,0,1,1.06-7,24.36,24.36,0,0,1,1.74-4.57A19.16,19.16,0,0,1,43.22,168l1-1.12,1.21-1a12.89,12.89,0,0,1,2.68-1.72,14.16,14.16,0,0,1,3-1.23,14.25,14.25,0,0,1,3.14-.7l.79-.11.39-.06h.62l1.38,0a16,16,0,0,1,3.25.41,17.14,17.14,0,0,1,5.81,2.61A20.42,20.42,0,0,1,70.6,169,22.9,22.9,0,0,1,73.29,173,25.37,25.37,0,0,1,75,176.69c.44,1.11.74,2.09,1,2.91s.37,1.47.47,1.92l.14.72a1.55,1.55,0,0,1-2.94.91l0-.12s-.08-.19-.24-.54l-.77-1.61a36.69,36.69,0,0,0-3.22-5.4,25,25,0,0,0-2.57-3.12,19.37,19.37,0,0,0-3.31-2.71c-.61-.34-1.25-.67-1.9-1a16.77,16.77,0,0,0-2-.58,8,8,0,0,0-2.16-.24H56l-.94.16a12.84,12.84,0,0,0-4.31,1.27,9.6,9.6,0,0,0-1.87,1.13L48,171l-.77.77a17,17,0,0,0-2.65,3.35,29,29,0,0,0-1.83,3.59,36.82,36.82,0,0,0-1.91,6c-.16.74-.29,1.33-.37,1.72s-.11.62-.11.62l0,.08a1.55,1.55,0,0,1-3.08-.18Z" transform="translate(205.04 -15.31)"/><path class="cls-10" d="M-33.65,213.12c6.32.3,13.74,2.5,23.58,3.41l-.07.63s.26,19.36-14.54,17.87c-11.43-1.16-9-21.72-9-21.72Z" transform="translate(205.04 -15.31)"/><path class="cls-10" d="M56.48,195.07S62.76,215.74,50,221.2c-12.07,5.15-17.45-12.13-17.45-12.13l-.17-.3c10-5.46,17.25-12.07,24.06-13.88Z" transform="translate(205.04 -15.31)"/><path class="cls-9" d="M50,221.2c12.76-5.46,6.48-26.13,6.48-26.13l0-.18c5.07-1.38,9.88-.08,15.39,6.25C79.53,210,82,239.55,60.18,259l-.52-.56c-45.75-29-72.52,13.82-74.36,17-42.77-7.59-44.76-43.43-36.43-53.92,5.61-7,10.94-8.68,17.48-8.33l0,.19s-2.44,20.56,9,21.72c14.8,1.49,14.54-17.87,14.54-17.87l.07-.63a90.72,90.72,0,0,0,20.17-.29,60.4,60.4,0,0,0,22.28-7.47l.17.3S37.93,226.35,50,221.2Z" transform="translate(205.04 -15.31)"/><path class="cls-11" d="M59.66,258.4l.52.56c-10,8.86-24.91,15.59-46.74,17.35a111.36,111.36,0,0,1-28.14-.94C-12.86,272.22,13.91,229.39,59.66,258.4Z" transform="translate(205.04 -15.31)"/><path class="cls-12" d="M2.54,280.45c-38.13,0-52.23-17.46-57.24-27.86-6.34-13.18-4.37-27.05.71-33.41,5.39-6.76,11.2-9.77,18.83-9.77A71.81,71.81,0,0,1-22.64,211a113.77,113.77,0,0,0,21.3,2.31,91.22,91.22,0,0,0,11-.68c13.63-1.68,23.08-8,31.43-13.54,6.71-4.47,12.51-8.33,18.85-8.33,5.17,0,10,2.62,14.65,8,6.63,7.63,9.34,25.73,2.37,42.81-5.25,12.87-20.45,35-63.22,38.44C9.89,280.29,6.12,280.45,2.54,280.45Zm-37.7-63.71c-4.5,0-8.46,1.19-13.1,7-3.07,3.84-5.13,14.65.17,25.65,4.26,8.86,16.51,23.71,50.63,23.71,3.39,0,7-.14,10.61-.44,36.91-3,51.38-20.08,57-33.9,6.15-15.08,3.3-30.15-1.12-35.23-4.27-4.91-7.25-5.48-9.11-5.48-4.12,0-9.06,3.29-14.79,7.11-8.57,5.71-19.24,12.81-34.6,14.7a97.69,97.69,0,0,1-11.89.74,120.51,120.51,0,0,1-22.6-2.43A67.69,67.69,0,0,0-35.16,216.74Z" transform="translate(205.04 -15.31)"/></g></g></g></svg>