<svg xmlns="http://www.w3.org/2000/svg" xmlns:xlink="http://www.w3.org/1999/xlink" viewBox="0 0 396.01 417.9"><defs><style>.cls-1{fill:none;}.cls-2{clip-path:url(#clip-path);}.cls-3{fill:#b2ddd9;}.cls-4{fill:#8656a0;}.cls-5{fill:#b594c3;}.cls-6{fill:#6fc7d4;}.cls-7{fill:#459eaa;}.cls-8{fill:#94d2d9;}.cls-9{fill:#1d110c;}.cls-10{fill:#fff;}.cls-11{fill:#f0c21c;}.cls-12{fill:#e290a9;}</style><clipPath id="clip-path" transform="translate(0 -15.31)"><rect class="cls-1" width="205.04" height="433.21"/></clipPath></defs><g id="圖層_2" data-name="圖層 2"><g id="圖層_1-2" data-name="圖層 1"><g class="cls-2"><path class="cls-3" d="M309.06,321.7a93,93,0,0,0,3-44.56,129.08,129.08,0,0,0,26.77-78.86c0-72-58.85-130.38-131.46-130.38S75.92,126.27,75.92,198.28a129.23,129.23,0,0,0,31.31,84.45,95,95,0,0,0-.6,10.58,92.83,92.83,0,0,0,2.67,22.18c-25.07,8-57.59,25.81-49.83,63.26L129.76,355c.67.77,1.34,1.54,2,2.29-.11,1.61-.17,3.24-.17,4.87a75.37,75.37,0,0,0,49,70.49c4.73-3.05,9.69-9.84,12.82-24.11,8.2-37.3,25-11.48,25.41-7.79.24,2.18,6.21,20.53,13.67,32.47a75.36,75.36,0,0,0,50.59-70.64q1.58-1.49,3.07-3L343,378.75C349.22,348.93,329.86,331.58,309.06,321.7Z" transform="translate(0 -15.31)"/><path class="cls-4" d="M121.31,100.49S149,40,193.28,38.89s48.09-12,48.09-12L229.46,50s62.87,17.54,77.47-12.55-18.16,105.19-67,111.33S121.31,100.49,121.31,100.49Z" transform="translate(0 -15.31)"/><path class="cls-5" d="M131.17,98.3s21.72-29.09,54.1-33.19,35.26-9,35.26-9S216.79,73.3,207.38,77.2s51,17.82,67.09,0-14.62,49.38-46.17,47.33S131.17,98.3,131.17,98.3Z" transform="translate(0 -15.31)"/><path class="cls-6" d="M91.63,92.19l-.12.42s-37.4,9.48-61.26,64.61l0,.08C14.42,145.56.73,128.62,0,105a86.86,86.86,0,0,1,1-15.79C34.66,55.75,56.88,66.8,56.88,66.8,57.76,79.48,74.86,87.42,91.63,92.19Z" transform="translate(0 -15.31)"/><path class="cls-7" d="M123,98.3c-.55.45-1.06.89-1.58,1.34C102.9,115.7,89,145.14,78.76,180l-.24-.06s-26.18-6.21-48.31-22.67l0-.08c23.86-55.13,61.26-64.61,61.26-64.61l.12-.42A211.94,211.94,0,0,0,123,98.3Z" transform="translate(0 -15.31)"/><path class="cls-8" d="M64.3,15.65c11,4.24-8.74,31.89-7.42,51.15,0,0-22.22-11-55.83,22.38C8.55,41.51,54.43,11.79,64.3,15.65Z" transform="translate(0 -15.31)"/><path class="cls-8" d="M393.86,86.47c-35.78-31.07-57.21-18.55-57.21-18.55,0-19.31-21.5-45.53-10.88-50.53C335.39,12.87,383.15,39.41,393.86,86.47Z" transform="translate(0 -15.31)"/><path class="cls-6" d="M396,102.18c.91,23.62-11.63,41.45-26.55,54.23l-.06-.06C341.82,102.93,303.87,96,303.87,96l-.15-.42c16.41-5.87,32.92-15,32.93-27.67,0,0,21.43-12.52,57.21,18.55A86.35,86.35,0,0,1,396,102.18Z" transform="translate(0 -15.31)"/><path class="cls-7" d="M369.36,156.35l.06.06a141,141,0,0,1-32.05,20.08l-1.06.37c-11-32.23-26.18-59.69-47-76.8,4.48-1.2,9.4-2.68,14.37-4.47l.15.42S341.82,102.93,369.36,156.35Z" transform="translate(0 -15.31)"/><path class="cls-9" d="M134.28,209.5l-.15-.69a19.35,19.35,0,0,1-.3-2,31.5,31.5,0,0,1,0-7.1,24.67,24.67,0,0,1,1-4.78,18.68,18.68,0,0,1,2.42-5.11l.85-1.26,1-1.17a12.47,12.47,0,0,1,2.39-2.12,14.29,14.29,0,0,1,2.76-1.67,13.65,13.65,0,0,1,3-1.17l.76-.23.39-.12.09,0,.34-.06.17,0,1.36-.2a16.1,16.1,0,0,1,3.28-.1,17.1,17.1,0,0,1,6.14,1.69,20.91,20.91,0,0,1,4.65,3.23,23.84,23.84,0,0,1,3.28,3.59,25,25,0,0,1,2.21,3.36c.6,1,1,2,1.42,2.72a18.46,18.46,0,0,1,.75,1.83c.17.45.25.69.25.69a1.54,1.54,0,0,1-2.75,1.35l-.08-.11-.32-.5-1-1.47a37,37,0,0,0-4-4.84,24.12,24.12,0,0,0-3-2.68,19,19,0,0,0-3.68-2.17c-.67-.25-1.34-.48-2-.67a14.68,14.68,0,0,0-2.06-.26,7.6,7.6,0,0,0-2.17.09l-1.37.21-.89.3a12.85,12.85,0,0,0-4.07,1.93,9.71,9.71,0,0,0-1.67,1.39l-.78.76-.64.87a17.57,17.57,0,0,0-2.1,3.72,28.39,28.39,0,0,0-1.26,3.82,37.23,37.23,0,0,0-1,6.19c-.05.76-.08,1.36-.11,1.76s0,.62,0,.62v.09a1.55,1.55,0,0,1-3.07.29Z" transform="translate(0 -15.31)"/><path class="cls-9" d="M242.32,187s0-.25,0-.71a18.5,18.5,0,0,1,0-2,31.59,31.59,0,0,1,1.07-7,24.36,24.36,0,0,1,1.74-4.57,18.83,18.83,0,0,1,3.16-4.68l1-1.12,1.21-1a12.39,12.39,0,0,1,2.68-1.72,13.94,13.94,0,0,1,3-1.23,14.16,14.16,0,0,1,3.13-.7l.79-.11.4-.06h.61l1.38,0a15.8,15.8,0,0,1,3.25.41,17.2,17.2,0,0,1,5.82,2.61,20.69,20.69,0,0,1,4.09,3.91,22.9,22.9,0,0,1,2.69,4.05,25.37,25.37,0,0,1,1.67,3.66c.43,1.11.73,2.09,1,2.91a18.27,18.27,0,0,1,.47,1.92c.1.47.14.72.14.72a1.54,1.54,0,0,1-2.93.91l-.06-.12-.24-.54c-.17-.38-.43-.92-.76-1.61a37.61,37.61,0,0,0-3.22-5.4,24.22,24.22,0,0,0-2.58-3.12,18.92,18.92,0,0,0-3.3-2.71c-.62-.34-1.26-.67-1.91-1a16.13,16.13,0,0,0-2-.58,8,8,0,0,0-2.16-.24h-1.38l-.93.16a12.84,12.84,0,0,0-4.31,1.27,9.31,9.31,0,0,0-1.87,1.13l-.88.62-.78.77a16.94,16.94,0,0,0-2.64,3.35,26.46,26.46,0,0,0-1.83,3.59,37,37,0,0,0-1.92,6c-.16.74-.28,1.33-.37,1.72l-.11.62v.08a1.55,1.55,0,0,1-3.08-.18Z" transform="translate(0 -15.31)"/><path class="cls-10" d="M171.39,213.12c6.31.3,13.74,2.5,23.57,3.41l-.06.63s.26,19.36-14.55,17.87c-11.42-1.16-9-21.72-9-21.72Z" transform="translate(0 -15.31)"/><path class="cls-10" d="M261.51,195.07s6.29,20.67-6.47,26.13c-12.07,5.15-17.46-12.13-17.46-12.13l-.17-.3c10-5.46,17.26-12.07,24.06-13.88Z" transform="translate(0 -15.31)"/><path class="cls-9" d="M255,221.2c12.76-5.46,6.47-26.13,6.47-26.13l0-.18c5.07-1.38,9.89-.08,15.39,6.25,7.7,8.86,10.22,38.41-11.65,57.82l-.52-.56c-45.75-29-72.51,13.82-74.35,17-42.77-7.59-44.77-43.43-36.44-53.92,5.62-7,10.95-8.68,17.49-8.33l0,.19s-2.44,20.56,9,21.72c14.81,1.49,14.55-17.87,14.55-17.87l.06-.63a90.71,90.71,0,0,0,20.17-.29,60.4,60.4,0,0,0,22.28-7.47l.17.3S243,226.35,255,221.2Z" transform="translate(0 -15.31)"/><path class="cls-11" d="M264.69,258.4l.52.56c-9.95,8.86-24.91,15.59-46.74,17.35a111.28,111.28,0,0,1-28.13-.94C192.18,272.22,218.94,229.39,264.69,258.4Z" transform="translate(0 -15.31)"/><path class="cls-12" d="M207.57,280.45c-38.13,0-52.22-17.46-57.23-27.86-6.35-13.18-4.37-27.05.7-33.41,5.39-6.76,11.2-9.77,18.84-9.77A71.81,71.81,0,0,1,182.4,211a113.67,113.67,0,0,0,21.3,2.31,91.35,91.35,0,0,0,11-.68c13.62-1.68,23.08-8,31.43-13.54,6.71-4.47,12.51-8.33,18.85-8.33,5.17,0,10,2.62,14.64,8,6.64,7.63,9.34,25.73,2.37,42.81-5.25,12.87-20.44,35-63.21,38.44C214.93,280.29,211.16,280.45,207.57,280.45Zm-37.69-63.71c-4.51,0-8.46,1.19-13.11,7-3.06,3.84-5.13,14.65.17,25.65,4.27,8.86,16.51,23.71,50.63,23.71,3.39,0,7-.14,10.62-.44,36.91-3,51.38-20.08,57-33.9,6.14-15.08,3.3-30.15-1.12-35.23-4.27-4.91-7.25-5.48-9.11-5.48-4.12,0-9.07,3.29-14.79,7.11-8.58,5.71-19.25,12.81-34.6,14.7a97.93,97.93,0,0,1-11.89.74,120.51,120.51,0,0,1-22.6-2.43A68,68,0,0,0,169.88,216.74Z" transform="translate(0 -15.31)"/></g></g></g></svg>