<svg xmlns="http://www.w3.org/2000/svg" xmlns:xlink="http://www.w3.org/1999/xlink" viewBox="0 0 570.72 476.29"><defs><style>.cls-1{fill:none;}.cls-2{clip-path:url(#clip-path);}.cls-3{fill:#ef8268;}.cls-4{fill:#ab4c98;}.cls-5{fill:#f2a5b3;}.cls-6{fill:#975039;}.cls-7{fill:#fff;}.cls-8{fill:#3573b8;}</style><clipPath id="clip-path" transform="translate(0 48.31)"><rect class="cls-1" width="231.79" height="441.92"/></clipPath></defs><g id="圖層_2" data-name="圖層 2"><g id="圖層_1-2" data-name="圖層 1"><g class="cls-2"><path class="cls-3" d="M342.57,294.79S430.28,310.32,450.06,336s-14.19,54.37-1.33,68.21,122,13.19,122,13.19l-1,6.62S437.19,432,426.31,416.12s-4.62-24.39-2.64-36.92c2.59-16.38-6.94-29.05-27.69-36.27-19.62-6.83-51.44-14.51-51.44-14.51Z" transform="translate(0 48.31)"/><path class="cls-3" d="M311.35,54.11s-3.07-22,3.52-26.38,21.54,0,29.45-7S339.91-1.44,349.6-9.19c11-8.8,27.25,1.76,34.29-6.16s7-11.43,7-11.43l7.48,6.16A40.8,40.8,0,0,1,387.84-6.56c-7,5.72-22.41-2.19-28.13,7-4.09,6.61,10.55,19.34,2.2,28.57s-22,4.84-28.58,13.63,7.48,13.19,1.76,22.42-8.79,15.39-8.79,15.39Z" transform="translate(0 48.31)"/><path class="cls-4" d="M329.05,44.22a3.28,3.28,0,0,1-2.12-.77l-12.2-10.22A3.3,3.3,0,0,1,319,28.17l12.2,10.22a3.3,3.3,0,0,1-2.12,5.83Z" transform="translate(0 48.31)"/><path class="cls-4" d="M349.63,33.92a3.05,3.05,0,0,1-2.84-.71L341,27.86a3,3,0,0,1-.14-4.27,3.05,3.05,0,0,1,4.29-.16l5.8,5.35a3,3,0,0,1,.15,4.27A3.11,3.11,0,0,1,349.63,33.92Z" transform="translate(0 48.31)"/><path class="cls-4" d="M359.47,15a3,3,0,0,1-2.91.24L349.35,12a3,3,0,0,1-1.51-4,3.07,3.07,0,0,1,4-1.53l7.21,3.21a3,3,0,0,1,1.51,4A3,3,0,0,1,359.47,15Z" transform="translate(0 48.31)"/><path class="cls-4" d="M409.72-18.15c2.38-.44,10.53-5.39,10.53-5.39s-8.87-1.59-11.09-1.7c1.74-2.78,6.18-5.3,7.26-8.44-3.75-.22-8.05,1.86-11.65,1.41,1.26-3.17,2.58-7,2.57-10.49-3.39.88-5.44,4.33-8.7,5.22-.71-3.47-2.17-7.22-2.24-10.77-3.74,3.4-8.09,6.73-11.45,10.43-2.05-2.14-3.38-5.34-5.3-7.8-.54,6.16-1.33,11.44-1.3,18,0,9,4.26,13.53,8,16.74,9.47,8.17,24.94,5.85,35.05,1.54C417.33-11.75,413-15.91,409.72-18.15Z" transform="translate(0 48.31)"/><path class="cls-3" d="M131.18,68.88S125.33,47.47,117.54,46s-19.79,8.5-29.84,5.16S83,29.11,71.06,25.8c-13.57-3.74-24.35,12.37-33.94,7.88s-11-7.73-11-7.73l-4.44,8.61A40.94,40.94,0,0,0,37,43.32c8.72,2.47,19.73-10.87,28.63-4.64C72,43.14,63.52,60.62,74.84,65.8S97,61.57,106.47,67.05s-1.66,15.07,7.23,21.3S127.85,99,127.85,99Z" transform="translate(0 48.31)"/><path class="cls-4" d="M111,66.77a3.23,3.23,0,0,0,1.64-1.54L119.84,51a3.3,3.3,0,0,0-5.89-3l-7.18,14.21a3.31,3.31,0,0,0,1.46,4.43A3.25,3.25,0,0,0,111,66.77Z" transform="translate(0 48.31)"/><path class="cls-4" d="M88,65.43a3,3,0,0,0,2.33-1.77l3.22-7.2a3,3,0,0,0-1.55-4A3.06,3.06,0,0,0,88,54l-3.22,7.21a3,3,0,0,0,1.55,4A3.17,3.17,0,0,0,88,65.43Z" transform="translate(0 48.31)"/><path class="cls-4" d="M71.52,51.9A3.06,3.06,0,0,0,74.3,51l5.35-5.79a3,3,0,0,0-.19-4.27,3,3,0,0,0-4.29.18l-5.36,5.79A3,3,0,0,0,70,51.15,2.92,2.92,0,0,0,71.52,51.9Z" transform="translate(0 48.31)"/><path class="cls-4" d="M12.28,41.3c-2.36.53-11.8-.81-11.8-.81S8,35.54,10,34.56c-2.69-1.87-7.77-2.43-10-4.89,3.36-1.68,8.13-1.46,11.26-3.3C8.85,24,6.11,20.93,4.76,17.74c3.46-.52,6.7,1.83,10.06,1.37-.73-3.47-.86-7.49-2.2-10.79,4.78,1.66,10.1,3,14.64,5.08,1-2.78,1-6.25,1.79-9.26,2.93,5.44,5.74,10,8.28,16,3.49,8.24,1.44,14.11-.71,18.52C31.14,49.91,16,53.87,5,53.9,7.82,50.18,10.13,44.66,12.28,41.3Z" transform="translate(0 48.31)"/><path class="cls-5" d="M370.26,369.31s0-101.55-9.23-204.42S321.45,28.35,221.23,26.41C119,24.44,85.4,118.73,86.72,166.21s0,200.46,0,200.46h.66a122,122,0,0,0,0,14.18c.62,9.26,8,28.64,20.77,35.6,20.27,11.05,48.28,12,50.34,8,1.64-2.58.6-3.39-.74-5.25,5.33,2,10.95-5.35,4-8.79a4.81,4.81,0,0,0,5.91-6.46c-1.44-3.75-7-3.49-10.41-4.62-7.72-2.57-9.6-5.39-8.51-13.58.8-6,5.1-12.23,10.92-18.44l143.94,1.34c4.8,5.06,7.86,10.32,7.35,15.78-.75,8.23-4.34,13.61-12.17,15.79-3.43.95-9,.4-10.63,4.08a4.8,4.8,0,0,0,5.57,6.75c-7.16,3.09-1.92,10.74,3.51,9-1.44,1.79-2.52,2.55-1,5.2,1.86,4,29.87,4.54,50.68-5.46,13.13-6.3,21.47-25.28,22.56-34.5a133.77,133.77,0,0,0,.72-16Z" transform="translate(0 48.31)"/><path class="cls-6" d="M304.78,109.15a23.42,23.42,0,1,1-23.42-23.34A23.37,23.37,0,0,1,304.78,109.15Z" transform="translate(0 48.31)"/><path class="cls-7" d="M300.64,109.23a19.6,19.6,0,1,1-19.59-19.6A19.59,19.59,0,0,1,300.64,109.23Z" transform="translate(0 48.31)"/><path class="cls-8" d="M292.51,109.23a11.47,11.47,0,1,1-11.46-11.47A11.47,11.47,0,0,1,292.51,109.23Z" transform="translate(0 48.31)"/><path class="cls-7" d="M282.48,106.68a4.62,4.62,0,1,1-4.62-4.62A4.62,4.62,0,0,1,282.48,106.68Z" transform="translate(0 48.31)"/><path class="cls-3" d="M344.63,178.45c-11.67,1.38-27.34,7.7-40.84-2.95s-25.28-42-28.86-48.59c-3.88-7.15-7.68-10.39-11.19-8.46s-3.11,6.82-3.11,6.82-5-11.47-12.91-7.7c-7.48,3.55-4.1,12.53-4.1,12.53s-3.72-4.56-8.58-1.37c-3.7,2.43,1.41,20,8.42,42.71,6.33,20.52,22.12,73.3,56.54,73.84s65-12.48,66-29.6S360.73,176.55,344.63,178.45Z" transform="translate(0 48.31)"/><path class="cls-6" d="M191.68,111.79a23.42,23.42,0,1,1-23.41-23.34A23.37,23.37,0,0,1,191.68,111.79Z" transform="translate(0 48.31)"/><path class="cls-7" d="M187.54,111.87A19.59,19.59,0,1,1,168,92.28,19.59,19.59,0,0,1,187.54,111.87Z" transform="translate(0 48.31)"/><path class="cls-8" d="M179.42,111.87A11.47,11.47,0,1,1,168,100.4,11.48,11.48,0,0,1,179.42,111.87Z" transform="translate(0 48.31)"/><path class="cls-7" d="M169.38,109.32a4.62,4.62,0,1,1-4.62-4.62A4.62,4.62,0,0,1,169.38,109.32Z" transform="translate(0 48.31)"/><path class="cls-3" d="M96,185.11c11.47-2.55,28.35-1.76,37.58-16.26s10-48,11.21-55.39c1.3-8,3.82-12.34,7.78-11.68s5.18,5.41,5.18,5.41.94-12.47,9.65-11.53c8.23.89,8,10.47,8,10.47s2-5.53,7.65-4.12c4.29,1.08,5.26,19.36,6.14,43.1.8,21.45,3.3,76.49-29,88.36s-65.5,9.67-72.1-6.16S80.12,188.63,96,185.11Z" transform="translate(0 48.31)"/><path class="cls-3" d="M155.07,57.6c1.37,3.72,7.64,4.22,15.33.93s12.44-6.92,11.53-9.4-3.75-8.92-13.76-4.3S153.55,53.48,155.07,57.6Z" transform="translate(0 48.31)"/><path class="cls-3" d="M294.68,57.22c-1.42,3.69-7.7,4.1-15.34.68S267,50.8,268,48.33s3.89-8.86,13.83-4.09S296.26,53.11,294.68,57.22Z" transform="translate(0 48.31)"/><ellipse class="cls-6" cx="231.79" cy="211.67" rx="6.59" ry="8.57"/><polygon class="cls-3" points="160.57 302.88 171.12 323.99 182.99 304.2 174.42 302.88 171.12 309.48 167.82 301.57 160.57 302.88"/><polygon class="cls-3" points="210.03 304.86 223.21 325.3 241.68 302.88 231.13 302.23 221.23 312.77 218.6 303.54 210.03 304.86"/><polygon class="cls-3" points="275.96 304.2 287.18 322.01 300.36 301.57 289.15 302.23 286.52 310.14 281.24 302.23 275.96 304.2"/><polygon class="cls-3" points="186.29 336.51 195.52 354.98 210.03 333.22 200.13 331.9 194.86 342.45 191.56 331.24 186.29 336.51"/><polygon class="cls-3" points="250.25 333.88 257.5 354.98 271.35 331.9 260.8 331.9 257.5 339.81 255.52 329.92 250.25 333.88"/><polygon class="cls-3" points="217.94 359.59 227.17 383.33 241.68 360.25 232.44 358.93 226.51 369.48 225.19 358.93 217.94 359.59"/></g></g></g></svg>