<svg xmlns="http://www.w3.org/2000/svg" xmlns:xlink="http://www.w3.org/1999/xlink" viewBox="0 0 570.72 476.29"><defs><style>.cls-1{fill:none;}.cls-2{clip-path:url(#clip-path);}.cls-3{fill:#ef8268;}.cls-4{fill:#ab4c98;}.cls-5{fill:#f2a5b3;}.cls-6{fill:#975039;}.cls-7{fill:#fff;}.cls-8{fill:#3573b8;}</style><clipPath id="clip-path" transform="translate(231.68 -9.84)"><rect class="cls-1" width="339.04" height="500.08"/></clipPath></defs><g id="圖層_2" data-name="圖層 2"><g id="圖層_1-2" data-name="圖層 1"><g class="cls-2"><path class="cls-3" d="M110.89,353s87.71,15.53,107.49,41.25-14.19,54.36-1.33,68.21S339,475.6,339,475.6l-1,6.62s-132.55,7.89-143.43-7.94S190,449.88,192,437.35c2.59-16.37-6.94-29-27.69-36.26-19.62-6.83-51.43-14.51-51.43-14.51Z" transform="translate(231.68 -9.84)"/><path class="cls-3" d="M79.68,112.27s-3.08-22,3.51-26.38,21.54,0,29.46-7-4.42-22.14,5.27-29.9c11-8.79,27.26,1.76,34.29-6.15s7-11.43,7-11.43l7.48,6.15A40.84,40.84,0,0,1,156.17,51.6c-7,5.72-22.42-2.2-28.14,7-4.09,6.61,10.55,19.34,2.2,28.57s-22,4.84-28.57,13.63,7.47,13.19,1.75,22.42-8.79,15.38-8.79,15.38Z" transform="translate(231.68 -9.84)"/><path class="cls-4" d="M97.37,102.38a3.34,3.34,0,0,1-2.12-.77L83.05,91.39a3.3,3.3,0,1,1,4.24-5.06l12.2,10.22a3.3,3.3,0,0,1-2.12,5.83Z" transform="translate(231.68 -9.84)"/><path class="cls-4" d="M118,92.07a3,3,0,0,1-2.84-.7L109.32,86a3,3,0,0,1-.15-4.27,3.07,3.07,0,0,1,4.3-.16l5.79,5.35a3,3,0,0,1,.15,4.27A3.09,3.09,0,0,1,118,92.07Z" transform="translate(231.68 -9.84)"/><path class="cls-4" d="M127.79,73.13a3,3,0,0,1-2.91.24l-7.21-3.21a3,3,0,0,1-1.51-4,3.06,3.06,0,0,1,4-1.53l7.21,3.2a3,3,0,0,1,1.51,4A3.11,3.11,0,0,1,127.79,73.13Z" transform="translate(231.68 -9.84)"/><path class="cls-4" d="M178,40c2.38-.45,10.53-5.39,10.53-5.39s-8.87-1.59-11.09-1.7c1.74-2.79,6.18-5.3,7.26-8.44-3.75-.22-8,1.86-11.64,1.41,1.25-3.17,2.58-7,2.56-10.49-3.39.88-5.44,4.32-8.7,5.22-.7-3.48-2.17-7.22-2.24-10.78-3.74,3.41-8.09,6.74-11.45,10.44-2-2.14-3.38-5.35-5.3-7.8-.54,6.15-1.33,11.44-1.29,18,0,9,4.25,13.53,8,16.73,9.47,8.18,24.94,5.85,35.05,1.55C185.65,46.41,181.34,42.25,178,40Z" transform="translate(231.68 -9.84)"/><path class="cls-3" d="M-100.5,127s-5.84-21.41-13.64-22.85-19.79,8.5-29.84,5.16S-148.65,87.26-160.62,84c-13.57-3.74-24.35,12.37-33.93,7.88s-11-7.73-11-7.73l-4.44,8.6a40.89,40.89,0,0,0,15.25,8.77C-186,104-175,90.61-166.09,96.84c6.37,4.46-2.07,21.93,9.25,27.12s22.11-4.23,31.63,1.25-1.66,15.07,7.24,21.29,14.14,10.67,14.14,10.67Z" transform="translate(231.68 -9.84)"/><path class="cls-4" d="M-120.66,124.93a3.23,3.23,0,0,0,1.64-1.54l7.18-14.21a3.3,3.3,0,0,0-1.46-4.43,3.31,3.31,0,0,0-4.43,1.46l-7.17,14.2a3.3,3.3,0,0,0,1.45,4.43A3.29,3.29,0,0,0-120.66,124.93Z" transform="translate(231.68 -9.84)"/><path class="cls-4" d="M-143.63,123.58a3,3,0,0,0,2.33-1.76l3.21-7.21a3,3,0,0,0-1.55-4,3,3,0,0,0-4,1.54l-3.22,7.2a3,3,0,0,0,1.55,4A3,3,0,0,0-143.63,123.58Z" transform="translate(231.68 -9.84)"/><path class="cls-4" d="M-160.16,110.06a3,3,0,0,0,2.78-.93l5.35-5.79a3,3,0,0,0-.19-4.26,3,3,0,0,0-4.29.18l-5.36,5.79a3,3,0,0,0,.19,4.26A3.07,3.07,0,0,0-160.16,110.06Z" transform="translate(231.68 -9.84)"/><path class="cls-4" d="M-219.4,99.46c-2.36.52-11.8-.81-11.8-.81s7.53-5,9.52-5.93c-2.69-1.88-7.77-2.43-10-4.89,3.36-1.68,8.13-1.47,11.26-3.3-2.41-2.42-5.14-5.44-6.5-8.63,3.46-.52,6.7,1.83,10.06,1.37-.73-3.48-.86-7.5-2.2-10.79,4.78,1.65,10.1,3,14.64,5.07,1-2.77,1-6.25,1.79-9.25,2.93,5.43,5.74,10,8.28,16,3.49,8.25,1.44,14.11-.71,18.52-5.48,11.25-20.61,15.22-31.6,15.25C-223.86,108.34-221.55,102.81-219.4,99.46Z" transform="translate(231.68 -9.84)"/><path class="cls-5" d="M138.58,427.46s0-101.55-9.23-204.41S89.77,86.51-10.44,84.57c-102.21-2-135.84,92.32-134.52,139.8s0,200.46,0,200.46h.66a126.37,126.37,0,0,0,0,14.17c.62,9.27,8,28.64,20.77,35.61,20.28,11.05,48.28,12,50.34,8,1.64-2.57.6-3.39-.74-5.24,5.33,2,11-5.35,4-8.8a4.8,4.8,0,0,0,5.91-6.45c-1.44-3.76-7-3.49-10.41-4.62C-82.19,455-84.07,452.14-83,444c.8-6,5.1-12.23,10.92-18.45l143.94,1.34c4.8,5.06,7.86,10.32,7.36,15.79-.76,8.23-4.35,13.61-12.18,15.79-3.43.95-9,.4-10.63,4.08A4.8,4.8,0,0,0,62,469.25c-7.16,3.08-1.92,10.73,3.51,9-1.43,1.79-2.51,2.55-1,5.2,1.86,4,29.87,4.54,50.69-5.46,13.12-6.31,21.46-25.28,22.55-34.5a133.94,133.94,0,0,0,.72-16Z" transform="translate(231.68 -9.84)"/><path class="cls-6" d="M73.1,167.3A23.42,23.42,0,1,1,49.69,144,23.37,23.37,0,0,1,73.1,167.3Z" transform="translate(231.68 -9.84)"/><path class="cls-7" d="M69,167.38a19.6,19.6,0,1,1-19.59-19.59A19.59,19.59,0,0,1,69,167.38Z" transform="translate(231.68 -9.84)"/><path class="cls-8" d="M60.84,167.38a11.47,11.47,0,1,1-11.47-11.47A11.47,11.47,0,0,1,60.84,167.38Z" transform="translate(231.68 -9.84)"/><path class="cls-7" d="M50.8,164.84a4.62,4.62,0,1,1-4.62-4.62A4.61,4.61,0,0,1,50.8,164.84Z" transform="translate(231.68 -9.84)"/><path class="cls-3" d="M113,236.61c-11.68,1.38-27.35,7.7-40.85-3s-25.28-42-28.86-48.59c-3.88-7.15-7.68-10.39-11.19-8.46s-3.1,6.82-3.1,6.82S24,172,16,175.72c-7.48,3.56-4.1,12.53-4.1,12.53s-3.72-4.56-8.58-1.36c-3.7,2.43,1.42,20,8.42,42.71,6.33,20.51,22.13,73.29,56.54,73.84s65-12.49,66-29.6S129.06,234.71,113,236.61Z" transform="translate(231.68 -9.84)"/><path class="cls-6" d="M-40,170a23.38,23.38,0,0,1-23.42,23.33A23.38,23.38,0,0,1-86.83,170a23.38,23.38,0,0,1,23.42-23.34A23.38,23.38,0,0,1-40,170Z" transform="translate(231.68 -9.84)"/><path class="cls-7" d="M-44.14,170a19.59,19.59,0,0,1-19.59,19.59A19.59,19.59,0,0,1-83.32,170a19.59,19.59,0,0,1,19.59-19.6A19.59,19.59,0,0,1-44.14,170Z" transform="translate(231.68 -9.84)"/><path class="cls-8" d="M-52.26,170a11.47,11.47,0,0,1-11.47,11.46A11.47,11.47,0,0,1-75.2,170a11.47,11.47,0,0,1,11.47-11.47A11.47,11.47,0,0,1-52.26,170Z" transform="translate(231.68 -9.84)"/><path class="cls-7" d="M-62.3,167.48a4.62,4.62,0,0,1-4.62,4.62,4.62,4.62,0,0,1-4.62-4.62,4.62,4.62,0,0,1,4.62-4.62A4.62,4.62,0,0,1-62.3,167.48Z" transform="translate(231.68 -9.84)"/><path class="cls-3" d="M-135.73,243.27c11.48-2.55,28.35-1.76,37.59-16.27s10-48,11.21-55.39c1.29-8,3.81-12.33,7.77-11.67s5.18,5.41,5.18,5.41.94-12.48,9.65-11.54c8.23.9,8,10.48,8,10.48s2-5.53,7.65-4.12c4.29,1.07,5.27,19.36,6.15,43.1.79,21.45,3.29,76.49-29,88.36s-65.5,9.67-72.09-6.16S-151.56,246.79-135.73,243.27Z" transform="translate(231.68 -9.84)"/><path class="cls-3" d="M-76.61,115.76c1.37,3.71,7.64,4.22,15.33.92s12.45-6.91,11.53-9.39-3.74-8.92-13.76-4.31S-78.12,111.63-76.61,115.76Z" transform="translate(231.68 -9.84)"/><path class="cls-3" d="M63,115.37c-1.42,3.7-7.7,4.1-15.34.69S35.32,109,36.27,106.49s3.89-8.87,13.83-4.09S64.58,111.27,63,115.37Z" transform="translate(231.68 -9.84)"/><ellipse class="cls-6" cx="231.79" cy="211.67" rx="6.59" ry="8.57"/><polygon class="cls-3" points="160.57 302.88 171.12 323.99 182.99 304.2 174.42 302.88 171.12 309.48 167.82 301.57 160.57 302.88"/><polygon class="cls-3" points="210.03 304.86 223.21 325.3 241.68 302.88 231.13 302.23 221.23 312.77 218.6 303.54 210.03 304.86"/><polygon class="cls-3" points="275.96 304.2 287.18 322.01 300.36 301.57 289.15 302.23 286.52 310.14 281.24 302.23 275.96 304.2"/><polygon class="cls-3" points="186.29 336.51 195.52 354.98 210.03 333.22 200.13 331.9 194.86 342.45 191.56 331.24 186.29 336.51"/><polygon class="cls-3" points="250.25 333.88 257.5 354.98 271.35 331.9 260.8 331.9 257.5 339.81 255.52 329.92 250.25 333.88"/><polygon class="cls-3" points="217.94 359.59 227.17 383.33 241.68 360.25 232.44 358.93 226.51 369.48 225.19 358.93 217.94 359.59"/></g></g></g></svg>