<svg id="圖層_1" data-name="圖層 1" xmlns="http://www.w3.org/2000/svg" viewBox="0 0 2611.96 1834.7"><defs><style>.cls-1,.cls-2{opacity:0.49;}.cls-2{fill:#f8e8d1;fill-rule:evenodd;isolation:isolate;}.cls-3{fill:#0f5f8e;}</style></defs><g id="c7-2" class="cls-1"><path id="Path_5498" data-name="Path 5498" class="cls-2" d="M2386.53,1498.48h-53.19c-17.76,0-29.68,10-45.37,10-31.79,0-59.53-6.66-89-6.66-22.26,0-45.47,13.32-67.2,13.32-65,0-128.12-6.43-186.5,11.65-23.61,7.31-62.81-18.31-94.09-18.31-17.7,0-33.66,11.65-57.13,11.65-212.82,0-418.81,25-630.07,25,18.62,26.22,21.19,13.32,45.37,13.32,15.1,0,23,10,33.6,10,24.53,0,111.75-11,124.33-1.67,77.59,5.37,149.75,0,225.15,0,21.76,0,33.74,20.73,53.76,23.31,43.48,5.61,114.39,1.66,161.3,1.66,32.19,0,67.2-1.46,97.45,6.66,45.79,12.29,61.83-19.31,110.9,5,16.81,8.32,27,30-10.09,30-52.37,0-84.84,8.7-127.78,8.7-30.17,0-67.6,17.29-55.06,31.27,20.06,22.37,67.52,4.54,71.19,6.3,32.62,15.64,61.13,13.1,83.76,1.3,19.26-10.05,37.29,11.79,59.29,11.79,34.91,0,37.08-25.84,71.1-22.73,29.77,2.72,60.66,14.3,90.73,6.65,27.41-7,54.37,15.37,70.57,3.33,11.54-4.15,37.3-8.66,50.4-5,9.77,2.74,18.17,10.8,28.56,11.65,7.29.6,22.59,1,38.07,2.47Z"/></g><path id="c7-1" class="cls-3" d="M2456.08,1463a46.9,46.9,0,0,0-26.4,8.1,32.45,32.45,0,0,0-39.16-39.72,41.89,41.89,0,0,0-55.33-48.95,27.16,27.16,0,0,0-26-36c-.67,0-1.29.16-1.94.2a45.53,45.53,0,0,0-86.05-13.65,48.5,48.5,0,0,0-74.51,30.1,38.64,38.64,0,0,0-62.59,15.86,60.57,60.57,0,0,0-84.11,47.63,54.88,54.88,0,0,0-87.25,40.75,45.86,45.86,0,0,0-80.44,20.77,27.73,27.73,0,1,0-7.76,54.34c.18,0,.35,0,.54,0a29.8,29.8,0,0,0,58.1,13.14,28.29,28.29,0,0,0,38.47,6.57,36.85,36.85,0,0,0,59.36-5,52,52,0,0,0,81,22.78,50.14,50.14,0,0,0,82.23-25.85,26,26,0,0,0,44.28-12.66,55.33,55.33,0,0,0,77-1.31,36.77,36.77,0,0,0,44,7.81,51.66,51.66,0,0,0,97.4,19.71,35.21,35.21,0,0,0,4.47.31,35.6,35.6,0,0,0,28.24-13.93,47,47,0,1,0,16.61-91Z"/></svg>