<svg xmlns="http://www.w3.org/2000/svg" width="1049.91" height="142.009" viewBox="0 0 1049.91 142.009">
  <g id="Group_4403" data-name="Group 4403" transform="translate(17.551 7.436)" opacity="0.49">
    <path id="Path_5496" data-name="Path 5496" d="M-17.551-3.71H20.534c23.089,0,38.755-5.172,62.924-3.329C98.141-5.921,143.782,3.82,158.967-3.71c36.074-2.2,71.515-5.145,105.715-1.665,18.728,1.9,59.055,17.978,78.024,8.324,42.6-21.675,79.352,15.162,118.3,16.647,68.839,2.626,117.368-2.787,188.772,6.66,70.243,3.483,157.492-5.57,221.494,6.658,54.616,10.434,161.088,11.653,161.088,11.653-29.287,46.846-191.873-1.209-279.386,11.653-29.452,4.327-79.236,8.056-108.231,1.665C596.421,47.234,569.223,66.766,534,74.532c-46.281,0-85.858-6.659-130.882-6.659-40.29,0-83.463,8.323-128.366,8.323-38.26,0,74.82,11.072,154.21,11.072,61.036,0,177.965,3.514,165.6,34.534-12.592,31.588-236.346-11.591-348.624,7.45-67.337,11.421-176.822.987-263.484.435Z" fill="#f8e8d1" fill-rule="evenodd" opacity="0.49"/>
  </g>
</svg>
