<svg id="圖層_1" data-name="圖層 1" xmlns="http://www.w3.org/2000/svg" viewBox="0 0 2611.96 1834.7"><defs><style>.cls-1,.cls-2{opacity:0.49;}.cls-2{fill:#f8e8d1;fill-rule:evenodd;isolation:isolate;}.cls-3{fill:#2b7aa0;}</style></defs><g id="c2-2" class="cls-1"><path id="Path_5497" data-name="Path 5497" class="cls-2" d="M2370.05,283.51l-57.28,6.35c-17.51,0-41.44,33.62-56.91,33.62-31.33,0-45.63-19.78-74.71-19.78-21.94,0-53.3,15-74.72,15-64,0-96.24-40.67-153.77-22.59-23.26,7.31-76,27.37-106.86,27.37-17.45,0-85.08-32.69-111.68-33.68-211.5-7.9-490.08-15.14-506.45,43.14-4,14.33,14.48,28.49,24.95,28.49,24.17,0,98.46,9.9,113,15.34,71.79,26.86,147.56,0,221.86,0,21.45,0,33.25,20.72,53,23.3,42.85,5.61,112.72,1.66,159,1.66,31.72,0,66.21-1.46,96,6.66,45.12,12.29,60.93-19.31,109.28,5,16.57,8.33,102.73,4.72,104.62,14.45-30.44-5-78.06,15.52-114.56,15.52-51.6,0-91.8,13.31-134.1,13.31-29.74,0-62.7-5-92.72-5-24.52,0-70.4-1.57-54.64,10,20.8,15.25,70.76,18.31,97.69,18.31,11,0,49.31-10,53-8.33,24.55,11.07,57.17,21.79,79.47,10,19-10,39.58,0,61.26,0,34.4,0,57.54-4.78,91.06-1.67,29.34,2.72,59.78,14.3,89.4,6.66,27-7,53.58,15.36,69.55,3.33,11.37-4.16,36.75-8.66,49.66-5,9.64,2.73,17.91,10.79,28.15,11.65,7.18.6,22.26,1,37.52,2.46Z"/></g><path id="c2-1" class="cls-3" d="M2334.34,322.57a40.94,40.94,0,0,0-21.42-36,41.68,41.68,0,0,0-69.21-46.23,33.6,33.6,0,0,0-5.62,1.17c0-.5.08-1,.08-1.47a48.06,48.06,0,0,0-79-36.79,76.62,76.62,0,0,0-128.7-19.49,50.61,50.61,0,0,0-69.11,47.18c0,1,.09,1.9.15,2.84a34.25,34.25,0,0,0-3.78-.24,32.21,32.21,0,0,0-32.08,29.38,32.68,32.68,0,0,0-45.5-3.64,31.8,31.8,0,0,0-50.38,13.25,32.56,32.56,0,0,0-51.08,14.62,44.18,44.18,0,1,0,9.7,70.07,40.53,40.53,0,0,0,47.44,30.17,51.09,51.09,0,0,0,84.73,13.5,51.84,51.84,0,0,0,80.14,22.93,41.35,41.35,0,0,0,44.18,11.54,54.26,54.26,0,0,0,105-9,58.05,58.05,0,0,0,81.56-9.44,58.69,58.69,0,0,0,6.08-9.42c1.52.11,3.05.23,4.6.23a59.75,59.75,0,0,0,57.8-44.75A40.91,40.91,0,0,0,2334.34,322.57Z"/></svg>