<svg xmlns="http://www.w3.org/2000/svg" width="1511.929" height="970.126" viewBox="0 0 1511.929 970.126">
  <g id="Group_5823" data-name="Group 5823" transform="translate(463.726 -710.689)">
    <g id="Group_4402" data-name="Group 4402" opacity="0.49">
      <path id="Path_5495" data-name="Path 5495" d="M-17.551,1542.533H20.534c23.089,0,38.755-5.173,62.924-3.33,14.683,1.118,60.324,10.86,75.509,3.33,36.074-2.2,71.515-5.145,105.715-1.665,18.728,1.9,59.055,17.977,78.024,8.323,42.6-21.675,79.352,15.162,118.3,16.647,68.839,2.627,117.368-2.787,188.772,6.66,70.243,3.483,157.492-5.569,221.494,6.659,54.616,10.433,161.088,11.653,161.088,11.653-29.287,46.845-191.873-1.21-279.386,11.653-29.452,4.326-79.236,8.056-108.231,1.664-48.321-10.651-75.519,8.881-110.746,16.647-46.281,0-85.858-6.659-130.882-6.659-40.29,0-83.463,8.324-128.366,8.324-38.26,0,74.82,11.072,154.21,11.072,61.036,0,177.965,3.513,165.6,34.533-12.592,31.588-236.346-11.591-348.624,7.451-67.337,11.42-176.822.986-263.484.434Z" fill="#f8e8d1" fill-rule="evenodd" opacity="0.49"/>
    </g>
    <path id="Path_5502" data-name="Path 5502" d="M1005.212,1040.237c6.548-58.333-28.638-105.361-94.827-105.361-.43,0-.844.067-1.284.072-7.976-64.137-56.589-113.53-115.533-113.53-58.561,0-106.916,48.769-115.357,112.314a109.53,109.53,0,0,0-122.041-1.8c-1.388-45.348-34.249-81.646-74.706-81.646-.85,0-1.669.112-2.513.145.029-1.306.089-2.606.089-3.917,0-75.017-53.8-135.828-120.16-135.828-48.628,0-90.473,32.665-109.384,79.621C235.961,775.1,217.326,765.7,196.732,765.7c-27.323,0-51.16,16.617-64.222,41.348C108.9,781.449,76.883,765.7,41.6,765.7c-68.028,0-123.982,58.434-130.729,133.312a81.3,81.3,0,0,0-22.589-3.309c-47.275,0-86.148,40.627-90.793,92.678-26.183,9.7-44.269,30.1-44.269,53.785,0,33.045,35.137,59.829,78.477,59.829,2.083,0,4.132-.112,6.165-.235,13.107,14.173,30.853,22.934,50.42,22.934a66.272,66.272,0,0,0,8.121-.536c12.572,28.43,38.5,48.005,68.54,48.005,17,0,32.659-6.333,45.37-16.924,19.345,15.768,43.029,25.16,68.7,25.16,43.169,0,80.793-26.343,101.289-65.5,14.355,20.987,36.78,34.557,62.064,34.557,19.642,0,37.555-8.213,51.318-21.695,8.422,21.054,27.125,35.728,48.889,35.728a48.943,48.943,0,0,0,28.147-9.078c19.518,16.261,43.569,25.992,69.677,25.992,32.554,0,62.019-14.938,83.329-39.082,22.293,29.222,55.258,47.753,92.073,47.753,33.408,0,62.437,4.485,84.408-20.178,15.062,21.667,43.967,47.737,70.223,47.737,26.172,0,41.622-11.869,56.688-33.4,1.954,24.109,16.289,54.081,55.384,54.081s56.688-35.837,57.991-54.081c10.643,9.23,32.4,25.621,52.778,17.593,64.507-25.412,15.6-70.913,43.5-98.809C1057.167,1081.61,1052.375,1040.237,1005.212,1040.237Z" fill="#0f5f8e"/>
    <path id="Path_5505" data-name="Path 5505" d="M725.441,1237.38a84.573,84.573,0,0,0-47.6,14.606,58.5,58.5,0,0,0-70.629-71.629,75.549,75.549,0,0,0-99.782-88.289,49.11,49.11,0,0,0,2.636-15.243,49.606,49.606,0,0,0-49.6-49.6c-1.21,0-2.332.281-3.505.353a82.113,82.113,0,0,0-155.191-24.622A87.476,87.476,0,0,0,167.4,1057.239a69.686,69.686,0,0,0-112.879,28.6,109.181,109.181,0,0,0-151.692,85.9,98.647,98.647,0,0,0-58.486-19.2,99.121,99.121,0,0,0-98.878,92.7,82.61,82.61,0,0,0-63.781-30.048,82.74,82.74,0,0,0-81.286,67.5,49.6,49.6,0,0,0-14.006-2.237,50.119,50.119,0,0,0-50.115,50.116,50.122,50.122,0,0,0,50.115,50.126c.327,0,.646-.091.977-.091a53.562,53.562,0,0,0-.977,9.715,53.909,53.909,0,0,0,53.906,53.915,53.746,53.746,0,0,0,51.847-39.926,51.1,51.1,0,0,0,40.836,20.53,51.009,51.009,0,0,0,28.548-8.679,66.506,66.506,0,0,0,50.257,22.959,66.545,66.545,0,0,0,56.8-31.9A93.956,93.956,0,0,0-43.4,1468.436,93.492,93.492,0,0,0,14.6,1448.3a90.431,90.431,0,0,0,148.3-46.617,46.9,46.9,0,0,0,79.863-22.84,99.8,99.8,0,0,0,138.8-2.363,66.294,66.294,0,0,0,79.259,14.078,93.162,93.162,0,0,0,175.66,35.556,65.592,65.592,0,0,0,8.061.554,64.188,64.188,0,0,0,50.934-25.121,84.82,84.82,0,1,0,29.957-164.162Z" fill="#2b7aa0"/>
  </g>
</svg>
