<svg xmlns="http://www.w3.org/2000/svg" width="1052.018" height="599.277" viewBox="0 0 1052.018 599.277">
  <g id="Group_5825" data-name="Group 5825" transform="translate(104.287 -6025.767)">
    <path id="Path_5476" data-name="Path 5476" d="M644.6,6414.645a74.172,74.172,0,0,0-39.686,11.5,86.812,86.812,0,0,0-101.709-72.28,107.388,107.388,0,1,0-203.7-56.24,62.22,62.22,0,0,0-73.864,11.055,97.826,97.826,0,0,0-176.415,58.255c0,.142.012.276.012.419a89.479,89.479,0,0,0-79.95,74.308,58.606,58.606,0,0,0-14.877-1.978,58.693,58.693,0,0,0-58.694,58.693,58.694,58.694,0,0,0,58.694,58.694A58.415,58.415,0,0,0-8.87,6544.13a39.406,39.406,0,0,0,22.834,10.322A47.157,47.157,0,0,0,96.4,6575.911a87.612,87.612,0,0,0,145.559.37,102.331,102.331,0,0,0,178.512-7.395,82.963,82.963,0,0,0,142.681-8.1,49.227,49.227,0,0,0,45.775-5.914A74.651,74.651,0,1,0,644.6,6414.645Z" fill="#2b7aa0"/>
    <path id="Path_5482" data-name="Path 5482" d="M872.129,6029.156a33.717,33.717,0,0,0-18.295-29.974A78.1,78.1,0,0,0,714.1,5929.5a53.1,53.1,0,0,0-87.671,56.074,42.889,42.889,0,1,0,4.986,78.933c7.962,14.5,24.923,24.546,44.617,24.546a53.037,53.037,0,0,0,35.674-13.273,67.182,67.182,0,0,0,128.217-12.964A33.71,33.71,0,0,0,872.129,6029.156Z" transform="translate(75.602 137.527)" fill="#0f5f8e"/>
  </g>
</svg>
