<svg xmlns="http://www.w3.org/2000/svg" width="1432.495" height="530.869" viewBox="0 0 1432.495 530.869">
  <g id="Group_5819" data-name="Group 5819" transform="translate(121.203 153.881)">
    <path id="Path_5499" data-name="Path 5499" d="M627.684,166.589A74.173,74.173,0,0,0,588,178.092a86.814,86.814,0,0,0-101.709-72.281,107.388,107.388,0,1,0-203.7-56.24,62.221,62.221,0,0,0-73.864,11.055A97.826,97.826,0,0,0,32.305,118.881c0,.142.013.277.013.419a89.478,89.478,0,0,0-79.95,74.308,58.61,58.61,0,0,0-14.877-1.978A58.694,58.694,0,0,0-121.2,250.324a58.694,58.694,0,0,0,58.694,58.694,58.41,58.41,0,0,0,36.723-12.944A39.406,39.406,0,0,0-2.952,306.4a47.156,47.156,0,0,0,82.436,21.459,87.613,87.613,0,0,0,145.559.37,102.331,102.331,0,0,0,178.512-7.4,82.963,82.963,0,0,0,142.681-8.1,49.227,49.227,0,0,0,45.775-5.914,74.651,74.651,0,1,0,35.673-140.231Z" fill="#2b7aa0"/>
    <path id="Path_5504" data-name="Path 5504" d="M1322.47-156.027a31.081,31.081,0,0,0-16.864-27.631,71.786,71.786,0,0,0,6.669-30.275,72,72,0,0,0-71.993-72,71.98,71.98,0,0,0-63.491,38.04,48.844,48.844,0,0,0-35.092-14.835,49,49,0,0,0-49.006,49.008,48.844,48.844,0,0,0,3.28,17.518,39.352,39.352,0,0,0-12.9-2.2,39.542,39.542,0,0,0-39.541,39.539,39.541,39.541,0,0,0,39.541,39.542,39.316,39.316,0,0,0,17.491-4.12c7.34,13.369,22.975,22.628,41.131,22.628a48.892,48.892,0,0,0,32.885-12.236,61.933,61.933,0,0,0,57.336,38.518,61.945,61.945,0,0,0,60.86-50.469A31.074,31.074,0,0,0,1322.47-156.027Z" transform="translate(-11.178 132.049)" fill="#0f5f8e"/>
  </g>
</svg>
