<svg xmlns="http://www.w3.org/2000/svg" width="1489.564" height="977.326" viewBox="0 0 1489.564 977.326">
  <g id="Group_5829" data-name="Group 5829" transform="translate(-780.294 -6436.833)">
    <path id="Path_5477" data-name="Path 5477" d="M2039.779,7016.647c.015-.6.089-1.177.089-1.777a66.61,66.61,0,0,0-66.611-66.61c-1.4,0-2.793.056-4.174.139a71.867,71.867,0,0,0-62.434-107.483,72.662,72.662,0,0,0-11.175.867,85.571,85.571,0,0,0-116.505-99.467,96.153,96.153,0,0,0-185.7,34.843,72.82,72.82,0,0,0-125.441,67.671A69.965,69.965,0,0,0,1339,6897.14a52.028,52.028,0,0,0-46.539,35.13,74.733,74.733,0,0,0-99.11-26.218,66.48,66.48,0,0,0-125.392-29.436,68.695,68.695,0,0,0-111.046,54.1,69.568,69.568,0,0,0,.375,7.187,52.2,52.2,0,0,0-28.56,52.243h-.207c-.015.6-.089,1.177-.089,1.777a66.609,66.609,0,0,0,66.611,66.61c1.4,0,2.793-.056,4.174-.139a71.867,71.867,0,0,0,62.434,107.483,72.742,72.742,0,0,0,11.175-.867,85.572,85.572,0,0,0,116.505,99.467,96.153,96.153,0,0,0,185.7-34.843,72.821,72.821,0,0,0,125.441-67.671,69.965,69.965,0,0,0,128.826-52.31,52.029,52.029,0,0,0,46.539-35.13,74.733,74.733,0,0,0,99.11,26.218,66.48,66.48,0,0,0,125.391,29.436,68.7,68.7,0,0,0,111.047-54.1,69.3,69.3,0,0,0-.376-7.187,52.2,52.2,0,0,0,28.561-52.243Z" transform="translate(-2 14.495)" fill="#3f687b"/>
    <path id="Path_5479" data-name="Path 5479" d="M2238.3,7265.33c-.918-58.35-42.981-105.361-94.827-105.361-.429,0-.844.067-1.283.072-7.977-64.137-56.59-113.53-115.534-113.53-58.56,0-105.667,39.358-114.108,102.9-18.25-12.365-40.844-10.075-63.659-10.075a110.307,110.307,0,0,0-59.631,17.688c-1.387-45.348-34.249-81.646-74.706-81.646-.849,0-1.669.112-2.513.145.03-1.306.089-2.606.089-3.918,0-75.016-53.8-135.827-120.16-135.827-48.628,0-90.472,32.665-109.384,79.62-13.535-15.205-32.17-24.613-52.764-24.613-27.323,0-51.16,16.617-64.221,41.348-23.611-25.6-55.628-41.348-90.912-41.348-68.028,0-123.981,58.434-130.729,133.311a81.34,81.34,0,0,0-22.589-3.308c-47.275,0-86.148,40.627-90.793,92.677-26.182,9.7-44.269,30.1-44.269,53.785,0,33.045,35.137,59.83,78.478,59.83,2.082,0,4.132-.112,6.165-.235.729,33.062,27.01,41.1,58.54,22.4-1.992,25.868,38.5,48,68.541,48,17,0,32.658-6.333,45.369-16.925,19.346,15.769,43.03,25.161,68.7,25.161,43.169,0,80.794-26.343,101.289-65.5,14.355,20.987,36.781,34.557,62.064,34.557,19.642,0,37.556-8.213,51.318-21.695,8.422,21.054,27.125,35.728,48.89,35.728a48.945,48.945,0,0,0,28.146-9.078c19.519,16.26,43.569,25.992,69.677,25.992,32.555,0,62.02-14.938,83.329-39.083,22.293,29.223,55.258,47.754,92.073,47.754,33.409,0,63.663-15.245,85.635-39.908,15.061,21.667,38.394,35.628,64.651,35.628,26.172,0,49.437-13.866,64.5-35.4,13.032,18.849,33.275,31.008,56.071,31.008,18.783,0,35.818-8.287,48.544-21.729,10.643,9.23,23.921,14.77,38.375,14.77,34.9,0,63.189-31.979,63.189-71.429C2269.858,7300.7,2257.148,7277.69,2238.3,7265.33Z" fill="#4f686e"/>
    <g id="Group_4399" data-name="Group 4399" opacity="0.49">
      <path id="Path_5472" data-name="Path 5472" d="M1923.237,6436.833l-57.278,6.348c-17.505,0-41.444,33.616-56.905,33.616-31.331,0-45.63-19.775-74.715-19.775-21.941,0-53.3,15-74.714,15-64.034,0-96.243-40.669-153.774-22.588-23.264,7.309-76.034,27.366-106.859,27.366-17.447,0-85.078-32.689-111.685-33.683-211.495-7.9-490.076-15.139-506.45,43.144-4.025,14.329,14.486,28.494,24.949,28.494,24.173,0,98.466,9.893,113.007,15.333,71.787,26.86,147.56,0,221.858,0,21.448,0,33.253,20.722,52.982,23.306,42.844,5.615,112.722,1.664,158.944,1.664,31.721,0,66.212-1.458,96.028,6.658,45.115,12.287,60.924-19.313,109.275,5,16.567,8.327,83.79.885,85.681,10.61-30.444-5-59.118,19.356-95.617,19.356-51.607,0-91.8,13.314-134.107,13.314-29.734,0-62.7-4.992-92.718-4.992-24.522,0-70.394-1.569-54.634,9.988,20.8,15.255,70.76,18.313,97.683,18.313,10.975,0,49.31-9.977,52.98-8.325,24.557,11.068,57.177,21.787,79.471,9.991,18.985-10.049,39.586,0,61.261,0,34.4,0,57.544-4.774,91.06-1.666,29.339,2.721,59.783,14.3,89.405,6.658,27.013-6.965,53.577,15.365,69.541,3.33,11.372-4.157,36.758-8.662,49.669-4.993,9.635,2.738,17.908,10.8,28.145,11.652,7.18.6,22.259,1.011,37.517,2.466Z" fill="#f8e8d1" fill-rule="evenodd" opacity="0.49"/>
    </g>
  </g>
</svg>
