<svg xmlns="http://www.w3.org/2000/svg" width="1316.841" height="776.085" viewBox="0 0 1316.841 776.085">
  <g id="Group_5834" data-name="Group 5834" transform="translate(-739.475 -7572.287)">
    <g id="Group_4398" data-name="Group 4398" opacity="0.49">
      <path id="Path_5471" data-name="Path 5471" d="M1923.237,8132.793l-57.278,6.348c-17.505,0-41.444,33.616-56.905,33.616-31.331,0-45.63-19.775-74.715-19.775-21.941,0-53.3,15-74.714,15-64.034,0-96.243-40.668-153.774-22.588-23.264,7.309-76.034,27.366-106.859,27.366-17.447,0-85.078-32.689-111.685-33.683-211.495-7.9-490.076-15.139-506.45,43.145-4.025,14.328,14.486,28.493,24.949,28.493,24.173,0,98.466,9.894,113.007,15.334,71.787,26.859,147.56,0,221.858,0,21.448,0,33.253,20.721,52.982,23.3,42.844,5.615,112.722,1.664,158.944,1.664,31.721,0,66.212-1.458,96.028,6.658,45.115,12.288,60.924-19.312,109.275,5,16.567,8.328,102.73,4.724,104.621,14.449-30.444-5-78.058,15.518-114.557,15.518-51.607,0-91.8,13.315-134.107,13.315-29.734,0-62.7-4.993-92.718-4.993-24.522,0-70.394-1.569-54.634,9.988,20.8,15.255,70.76,18.313,97.683,18.313,10.975,0,49.31-9.977,52.98-8.325,24.557,11.068,57.177,21.788,79.471,9.991,18.985-10.048,39.586,0,61.261,0,34.4,0,57.544-4.772,91.06-1.666,29.339,2.722,59.783,14.3,89.405,6.659,27.013-6.966,53.577,15.364,69.541,3.329,11.372-4.157,36.758-8.662,49.669-4.993,9.635,2.738,17.908,10.8,28.145,11.652,7.18.6,22.259,1.011,37.517,2.466Z" fill="#f8e8d1" fill-rule="evenodd" opacity="0.49"/>
    </g>
    <g id="Group_4400" data-name="Group 4400" opacity="0.49">
      <path id="Path_5473" data-name="Path 5473" d="M1944.233,7794.547h-52.415c-17.505,0-29.246,9.989-44.707,9.989-31.331,0-58.665-6.659-87.75-6.659-21.941,0-44.811,13.317-66.225,13.317-64.034,0-126.248-6.427-183.779,11.653-23.264,7.31-61.893-18.311-92.718-18.311-17.447,0-33.164,11.652-56.292,11.652-209.717,0-412.7,24.971-620.872,24.971,18.346,26.215,20.879,13.317,44.7,13.317,14.884,0,22.649,9.988,33.113,9.988,24.173,0,110.124-11.01,122.521-1.663,76.459,5.363,147.559,0,221.857,0,21.448,0,33.253,20.721,52.983,23.305,42.843,5.615,112.721,1.664,158.943,1.664,31.721,0,66.212-1.458,96.028,6.658,45.116,12.288,60.924-19.313,109.275,5,16.567,8.327,26.564,29.967-9.936,29.967-51.607,0-83.609,8.691-125.918,8.691-29.734,0-66.612,17.293-54.258,31.276,19.764,22.371,66.535,4.538,70.153,6.3,32.145,15.638,60.24,13.1,82.534,1.3,18.984-10.049,36.75,11.792,58.425,11.792,34.4,0,36.544-25.846,70.06-22.738,29.34,2.721,59.783,14.3,89.4,6.659,27.013-6.966,53.577,15.364,69.542,3.329,11.371-4.157,36.757-8.662,49.669-4.993,9.634,2.738,17.907,10.8,28.145,11.652,7.179.6,22.258,1.011,37.516,2.466Z" fill="#f8e8d1" fill-rule="evenodd" opacity="0.49"/>
    </g>
    <path id="Path_5484" data-name="Path 5484" d="M2009.268,7727.9a46.891,46.891,0,0,0-26.394,8.1,32.44,32.44,0,0,0-39.163-39.717,41.891,41.891,0,0,0-55.327-48.955,27.23,27.23,0,0,0,1.461-8.451,27.506,27.506,0,0,0-27.5-27.506c-.67,0-1.292.156-1.943.2a45.53,45.53,0,0,0-86.05-13.652,48.505,48.505,0,0,0-74.506,30.1,38.639,38.639,0,0,0-62.589,15.86,60.538,60.538,0,0,0-84.11,47.629,54.879,54.879,0,0,0-87.256,40.75,45.857,45.857,0,0,0-80.437,20.768,27.49,27.49,0,0,0-7.766-1.24,27.791,27.791,0,0,0,0,55.582c.182,0,.359-.051.542-.051a29.8,29.8,0,0,0,58.1,13.144,28.3,28.3,0,0,0,38.473,6.571,36.877,36.877,0,0,0,59.363-4.959,52,52,0,0,0,80.964,22.779A50.143,50.143,0,0,0,1697.354,7819a26,26,0,0,0,44.282-12.665,55.336,55.336,0,0,0,76.963-1.31,36.755,36.755,0,0,0,43.947,7.806,51.656,51.656,0,0,0,97.4,19.715,36.219,36.219,0,0,0,4.47.308,35.593,35.593,0,0,0,28.242-13.93,47.031,47.031,0,1,0,16.61-91.025Z" fill="#5d7c7b"/>
  </g>
</svg>
