<svg xmlns="http://www.w3.org/2000/svg" width="1253.345" height="968.919" viewBox="0 0 1253.345 968.919">
  <g id="Group_5822" data-name="Group 5822" transform="translate(108.499 -414.888)">
    <path id="Path_5508" data-name="Path 5508" d="M1084.319,1221.693c0-.04,0-.081,0-.119a68.091,68.091,0,0,0-129.677-29.041,66.4,66.4,0,0,0-109.05,50.9c0,1.171.033,2.338.093,3.494a54.64,54.64,0,1,0,44.543,99.569,33.489,33.489,0,0,0,39.481,6.762,81.084,81.084,0,0,0,131.25-6.115,64.305,64.305,0,1,0,23.358-125.446Z" fill="#2b6d89"/>
    <path id="Path_5509" data-name="Path 5509" d="M999.726,755.758c0-.114.016-.22.016-.336A138.7,138.7,0,0,0,726.01,723.7a81.268,81.268,0,0,0-69.771-13.207,122.682,122.682,0,0,0-197.668,97.251c0,.895.115,1.755.131,2.657A81.824,81.824,0,0,0,564.549,935.143a76.883,76.883,0,0,0,130.407,67.984,40.622,40.622,0,0,0,48.436-1.116,76.81,76.81,0,0,0,99.769,10.319,97.551,97.551,0,0,0,142.415-52.571c2.51.189,5,.385,7.547.385a102.3,102.3,0,0,0,6.6-204.386Z" fill="#2b6d89"/>
    <path id="Path_5510" data-name="Path 5510" d="M869.247,645.645a69.532,69.532,0,0,0-39.139,12.009,48.1,48.1,0,0,0-58.073-58.894,62.116,62.116,0,0,0-82.041-72.592,40.381,40.381,0,0,0,2.167-12.533,40.787,40.787,0,0,0-40.783-40.786c-.994,0-1.917.231-2.881.29a67.514,67.514,0,0,0-127.6-20.244,71.924,71.924,0,0,0-110.48,44.636,57.3,57.3,0,0,0-92.81,23.518,89.77,89.77,0,0,0-124.723,70.626A81.377,81.377,0,0,0,63.5,652.1,68,68,0,0,0-55.778,682.9a40.834,40.834,0,0,0-11.516-1.838A41.209,41.209,0,0,0-108.5,722.265a41.21,41.21,0,0,0,41.205,41.213c.27,0,.531-.075.8-.075a44.014,44.014,0,0,0-.8,7.988,44.325,44.325,0,0,0,44.322,44.33,44.191,44.191,0,0,0,42.629-32.828,41.959,41.959,0,0,0,57.049,9.744,54.683,54.683,0,0,0,88.027-7.353A77.107,77.107,0,0,0,284.79,819.061a74.354,74.354,0,0,0,121.936-38.328,38.561,38.561,0,0,0,65.664-18.78,82.052,82.052,0,0,0,114.123-1.943,54.506,54.506,0,0,0,65.167,11.576A76.6,76.6,0,0,0,796.109,800.82a53.942,53.942,0,0,0,6.629.456,52.776,52.776,0,0,0,41.878-20.655,69.74,69.74,0,1,0,24.631-134.976Z" fill="#3f687b"/>
  </g>
</svg>
