<svg id="圖層_1" data-name="圖層 1" xmlns="http://www.w3.org/2000/svg" viewBox="0 0 2611.96 1834.7"><defs><style>.cls-1{fill:#2b6d89;}.cls-2{fill:#0f5f8e;}</style></defs><path id="c5-2" class="cls-1" d="M1548,1375.57v-.12a68.09,68.09,0,0,0-129.67-29,66.41,66.41,0,0,0-109,50.9c0,1.17,0,2.34.09,3.5a54.64,54.64,0,1,0,38.49,102.28,55.54,55.54,0,0,0,6-2.71,33.51,33.51,0,0,0,39.49,6.76,81.06,81.06,0,0,0,131.24-6.12A64.3,64.3,0,1,0,1548,1375.58Z"/><path id="c5-1" class="cls-2" d="M1468.94,1194.12c6.55-58.33-28.64-105.36-94.83-105.36-.43,0-.84.06-1.28.07-8-64.14-56.59-113.53-115.54-113.53-58.56,0-106.91,48.77-115.35,112.31a109.53,109.53,0,0,0-122-1.8c-1.39-45.34-34.25-81.64-74.71-81.64-.85,0-1.67.11-2.51.14,0-1.3.09-2.6.09-3.91,0-75-53.8-135.83-120.16-135.83-48.63,0-90.48,32.66-109.39,79.62-13.53-15.21-32.17-24.61-52.76-24.61-27.32,0-51.16,16.62-64.22,41.35-23.61-25.6-55.63-41.35-90.91-41.35-68,0-124,58.44-130.73,133.31a81.5,81.5,0,0,0-22.59-3.31c-47.28,0-86.15,40.63-90.79,92.68C235,1152,217,1172.36,217,1196.05c0,33,35.13,59.83,78.47,59.83,2.09,0,4.14-.12,6.17-.24,13.1,14.17,30.85,22.93,50.42,22.93a66.82,66.82,0,0,0,8.12-.53c12.57,28.43,38.5,48,68.54,48,17,0,32.66-6.33,45.37-16.92,19.34,15.77,43,25.16,68.7,25.16,43.17,0,80.79-26.34,101.29-65.5,14.35,21,36.78,34.56,62.06,34.56,19.64,0,37.56-8.22,51.32-21.7,8.42,21.06,27.13,35.73,48.89,35.73a49,49,0,0,0,28.15-9.08c19.51,16.26,43.57,26,69.67,26,32.56,0,62-14.93,83.33-39.08,22.3,29.22,55.26,47.76,92.08,47.76,33.4,0,62.43,4.48,84.4-20.18,15.07,21.66,44,47.73,70.23,47.73s41.62-11.86,56.68-33.4c2,24.11,16.29,54.09,55.39,54.09s56.69-35.84,58-54.09c10.64,9.23,32.4,25.62,52.78,17.6,64.5-25.41,15.6-70.92,43.5-98.81C1520.89,1235.49,1516.1,1194.12,1468.94,1194.12Z"/></svg>