<svg xmlns="http://www.w3.org/2000/svg" width="1511.929" height="765.835" viewBox="0 0 1511.929 765.835">
  <g id="Group_5831" data-name="Group 5831" transform="translate(446.81 -7017.891)">
    <path id="Path_5480" data-name="Path 5480" d="M1022.128,7347.439c6.548-58.333-28.638-105.362-94.827-105.362-.43,0-.844.068-1.284.073-7.976-64.137-56.589-113.53-115.533-113.53-58.561,0-106.916,48.769-115.357,112.313a109.533,109.533,0,0,0-122.041-1.8c-1.387-45.348-34.249-81.646-74.706-81.646-.85,0-1.669.112-2.513.145.03-1.306.089-2.606.089-3.918,0-75.016-53.8-135.827-120.16-135.827-48.628,0-90.473,32.665-109.384,79.62-13.535-15.205-32.17-24.613-52.764-24.613-27.323,0-51.16,16.617-64.222,41.347-23.61-25.594-55.627-41.347-90.911-41.347-68.028,0-123.982,58.434-130.729,133.311A81.341,81.341,0,0,0-94.8,7202.9c-47.275,0-86.148,40.628-90.793,92.678-26.183,9.7-44.269,30.1-44.269,53.785,0,33.045,35.137,59.829,78.477,59.829,2.083,0,4.132-.111,6.166-.234,13.106,14.173,30.852,22.933,50.419,22.933a66.055,66.055,0,0,0,8.121-.536c12.572,28.431,38.5,48.006,68.54,48.006,17,0,32.659-6.334,45.37-16.925,19.345,15.769,43.03,25.161,68.7,25.161,43.169,0,80.793-26.344,101.289-65.5,14.355,20.987,36.781,34.557,62.064,34.557,19.642,0,37.555-8.213,51.318-21.695,8.422,21.053,27.125,35.728,48.89,35.728a48.941,48.941,0,0,0,28.146-9.078c19.519,16.26,43.569,25.992,69.677,25.992,32.554,0,62.019-14.939,83.329-39.083,22.293,29.222,55.258,47.754,92.073,47.754,33.409,0,63.663-15.245,85.634-39.908,15.062,21.667,38.395,35.628,64.651,35.628,26.173,0,49.438-13.866,64.5-35.4,13.032,18.85,33.276,31.009,56.072,31.009,18.783,0,35.818-8.287,48.544-21.729,10.642,9.23,23.921,14.77,38.375,14.77,34.9,0,35.293-43.534,63.189-71.429C1074.083,7388.811,1069.291,7347.439,1022.128,7347.439Z" fill="#4f686e"/>
    <path id="Path_5483" data-name="Path 5483" d="M742.357,7544.581a84.565,84.565,0,0,0-47.6,14.607,58.5,58.5,0,0,0-70.629-71.629,75.549,75.549,0,0,0-99.782-88.29,49.1,49.1,0,0,0,2.636-15.242,49.606,49.606,0,0,0-49.6-49.606c-1.21,0-2.332.281-3.505.354a82.112,82.112,0,0,0-155.191-24.622,87.476,87.476,0,0,0-134.369,54.288,69.684,69.684,0,0,0-112.879,28.6,109.181,109.181,0,0,0-151.692,85.9,98.64,98.64,0,0,0-58.486-19.205,99.121,99.121,0,0,0-98.878,92.7,82.606,82.606,0,0,0-63.781-30.048,82.74,82.74,0,0,0-81.286,67.5,49.635,49.635,0,0,0-14.006-2.236,50.12,50.12,0,0,0-50.115,50.116A50.121,50.121,0,0,0-396.7,7687.9c.328,0,.646-.092.977-.092a53.565,53.565,0,0,0-.977,9.716,53.909,53.909,0,0,0,53.906,53.915,53.747,53.747,0,0,0,51.847-39.927,51.1,51.1,0,0,0,40.837,20.531,51.016,51.016,0,0,0,28.547-8.679,66.5,66.5,0,0,0,50.257,22.958,66.544,66.544,0,0,0,56.8-31.9,93.956,93.956,0,0,0,88.007,61.222,93.486,93.486,0,0,0,58.01-20.142,90.431,90.431,0,0,0,148.3-46.616,46.9,46.9,0,0,0,79.863-22.841,99.794,99.794,0,0,0,138.8-2.362,66.293,66.293,0,0,0,79.259,14.078,93.162,93.162,0,0,0,175.66,35.556,65.57,65.57,0,0,0,8.062.554,64.191,64.191,0,0,0,50.933-25.121,84.82,84.82,0,1,0,29.957-164.163Z" fill="#5d858e"/>
  </g>
</svg>
