<svg xmlns="http://www.w3.org/2000/svg" width="1581.263" height="678.998" viewBox="0 0 1581.263 678.998">
  <g id="Group_5832" data-name="Group 5832" transform="translate(-583.885 -7157.098)">
    <path id="Path_7128" data-name="Path 7128" d="M1816.325,7480.146c0-30.3-13.789-56.665-34.1-70.177a95.035,95.035,0,0,0,9.274-41.315c0-44.926-29.74-81.342-66.431-81.342-21.7,0-40.922,12.8-53.044,32.523a44.776,44.776,0,0,0-8.937,2.288c.022-.966.117-1.9.117-2.871,0-51.779-34.273-93.745-76.565-93.745-18.771,0-35.935,8.3-49.249,22.024-18.71-53.191-61.864-90.434-112.154-90.434-37.15,0-70.36,20.377-92.757,52.437a67.643,67.643,0,0,0-29.331-6.833c-44.571,0-80.7,44.241-80.7,98.816,0,1.872.146,3.694.235,5.537a42.819,42.819,0,0,0-6.011-.465c-26.806,0-48.779,25.177-51.073,57.27-9.559-13.337-23.545-21.8-39.169-21.8-12.654,0-24.25,5.516-33.277,14.7-8.831-9.155-20.243-14.7-32.723-14.7-21.81,0-40.34,16.885-47.5,40.535-8.881-8.7-20.136-13.947-32.4-13.947-22.615,0-41.806,17.742-48.918,42.46a60.227,60.227,0,0,0-34.039-10.772c-38.851,0-70.353,38.575-70.353,86.146s31.5,86.152,70.353,86.152c19.3,0,36.769-9.525,49.485-24.924,6.856,34.634,32.275,60.394,62.675,60.394a53.417,53.417,0,0,0,12.849-1.576c12.688,34.935,41.224,59.33,74.467,59.33,24.009,0,45.516-12.787,60.442-33,11.8,38.321,41.951,65.635,77.383,65.635,18.905,0,36.277-7.854,50.217-20.922,12.117,16.44,29.6,26.828,49.11,26.828a55.181,55.181,0,0,0,21.244-4.345c11.624,41.685,43.809,71.694,81.787,71.694,43.143,0,78.816-38.725,85.318-89.312,15.782,15.288,35.689,24.485,57.375,24.485,35.779,0,66.766-24.89,82.179-61.264,2.418.233,4.847.452,7.32.452,44.279,0,81.39-37.086,92.024-87.236C1792.529,7552.82,1816.325,7519.928,1816.325,7480.146Z" transform="translate(2400.21 14961.02) rotate(-180)" fill="#5d7c7b"/>
    <path id="Path_5481" data-name="Path 5481" d="M2165.148,7513.97a88.146,88.146,0,0,0-46.132-77.525,89.763,89.763,0,0,0-149.064-99.571,71.977,71.977,0,0,0-12.089,2.528c.03-1.067.158-2.1.158-3.172A103.512,103.512,0,0,0,1787.837,7257a165.016,165.016,0,0,0-277.174-41.976,108.984,108.984,0,0,0-148.837,101.614c0,2.067.2,4.08.318,6.116a70.584,70.584,0,0,0-8.131-.514,69.363,69.363,0,0,0-69.085,63.264,70.406,70.406,0,0,0-97.995-7.843,68.476,68.476,0,0,0-108.519,28.54,70.1,70.1,0,0,0-110,31.5,95.161,95.161,0,1,0,20.893,150.9,87.271,87.271,0,0,0,102.159,64.974,110.061,110.061,0,0,0,182.486,29.084,111.666,111.666,0,0,0,172.6,49.4,89.036,89.036,0,0,0,95.165,24.837,116.846,116.846,0,0,0,226.037-19.462,125.034,125.034,0,0,0,188.769-40.629c3.271.257,6.556.5,9.9.5a128.692,128.692,0,0,0,124.477-96.368A88.112,88.112,0,0,0,2165.148,7513.97Z" fill="#5d8585"/>
  </g>
</svg>
