<svg xmlns="http://www.w3.org/2000/svg" width="1203.983" height="603.526" viewBox="0 0 1203.983 603.526">
  <g id="Group_5830" data-name="Group 5830" transform="translate(91.583 -6722.09)">
    <path id="Path_5488" data-name="Path 5488" d="M1016.642,7034.584c0-.114.016-.22.016-.336a138.7,138.7,0,0,0-273.732-31.728,81.271,81.271,0,0,0-69.771-13.206,122.682,122.682,0,0,0-197.668,97.251c0,.9.115,1.755.131,2.657a81.824,81.824,0,0,0,105.847,124.747,76.882,76.882,0,0,0,130.407,67.983,40.62,40.62,0,0,0,48.436-1.115,76.81,76.81,0,0,0,99.769,10.319,97.551,97.551,0,0,0,142.416-52.571c2.509.189,4.995.385,7.546.385a102.3,102.3,0,0,0,6.6-204.386Z" transform="translate(0 20.679)" fill="#2b6d89"/>
    <path id="Path_5489" data-name="Path 5489" d="M886.163,6952.846a69.526,69.526,0,0,0-39.139,12.01,48.1,48.1,0,0,0-58.073-58.894,62.118,62.118,0,0,0-82.041-72.593,40.37,40.37,0,0,0,2.167-12.532,40.788,40.788,0,0,0-40.783-40.787c-.994,0-1.917.232-2.881.291a67.514,67.514,0,0,0-127.6-20.244,71.924,71.924,0,0,0-110.48,44.636,57.295,57.295,0,0,0-92.81,23.518A89.769,89.769,0,0,0,209.8,6898.877a81.1,81.1,0,0,0-48.088-15.79c-43.25,0-82.532,8.968-85.3,51.511-12.48-15.08-44.048-8.958-65.144-8.958-33.289,0-44.241,32.885-50.134,64.458a40.786,40.786,0,0,0-11.516-1.839,41.21,41.21,0,0,0-41.205,41.206,41.211,41.211,0,0,0,41.205,41.214c.27,0,.531-.075.8-.075a44.015,44.015,0,0,0-.8,7.988,44.325,44.325,0,0,0,44.322,44.33A44.19,44.19,0,0,0,36.573,7090.1a41.961,41.961,0,0,0,57.049,9.744,54.683,54.683,0,0,0,88.027-7.353,77.108,77.108,0,0,0,120.057,33.777,74.354,74.354,0,0,0,121.936-38.329,38.561,38.561,0,0,0,65.664-18.779,82.052,82.052,0,0,0,114.123-1.943,54.508,54.508,0,0,0,65.167,11.575,76.6,76.6,0,0,0,144.429,29.235,53.93,53.93,0,0,0,6.629.455,52.779,52.779,0,0,0,41.878-20.654,69.74,69.74,0,1,0,24.631-134.977Z" fill="#3f687b"/>
  </g>
</svg>
