<svg xmlns="http://www.w3.org/2000/svg" width="1402.984" height="569.15" viewBox="0 0 1402.984 569.15">
  <g id="Group_5833" data-name="Group 5833" transform="translate(104.64 -7572.287)">
    <g id="Group_4396" data-name="Group 4396" opacity="0.49">
      <path id="Path_5469" data-name="Path 5469" d="M-.635,8003.155H37.45c23.089,0,38.755-5.172,62.924-3.329,14.683,1.118,60.324,10.859,75.509,3.329,36.074-2.2,71.515-5.145,105.715-1.665,18.728,1.9,59.055,17.978,78.024,8.324,42.6-21.675,79.352,15.162,118.3,16.647,68.839,2.626,117.368-2.787,188.773,6.66,70.242,3.483,157.491-5.57,221.493,6.658,54.617,10.434,161.088,11.653,161.088,11.653-29.287,46.846-191.873-1.21-279.386,11.653-29.452,4.327-79.236,8.056-108.231,1.665-48.321-10.651-75.519,8.881-110.746,16.647-46.281,0-85.858-6.659-130.882-6.659-40.29,0-83.463,8.323-128.366,8.323-38.26,0,74.82,11.072,154.21,11.072,61.036,0,177.965,3.513,165.6,34.534-12.592,31.588-236.346-11.591-348.624,7.45-67.336,11.42-176.822.987-263.484.435Z" fill="#f8e8d1" fill-rule="evenodd" opacity="0.49"/>
    </g>
    <path id="Path_5475" data-name="Path 5475" d="M1260.946,7773.854a92.8,92.8,0,0,0-7.994-18.976c-9.4-28.719-29.075-48.552-51.9-48.552-11.323,0-21.856,4.942-30.776,13.363-15.774-26.268-38.659-42.8-64.127-42.8-25.361,0-48.158,16.382-63.923,42.432-14.219-25.9-35.791-42.432-59.947-42.432-21.641,0-41.2,13.273-55.257,34.647-12.206-21.183-30.239-34.647-50.4-34.647-10.044,0-19.536,3.432-28.082,9.383C844,7622.207,807.75,7572.287,763.7,7572.287c-43.606,0-79.545,48.916-84.674,112.034-6.578-4.716-13.914-7.433-21.694-7.433-26.874,0-48.767,31.516-50.2,71.155a30.137,30.137,0,0,0-11.231-2.274c-10.268,0-19.687,5.352-27.129,14.238-12.488-20.579-30.464-33.59-50.518-33.59-10.179,0-19.8,3.428-28.479,9.4-12.586-59.312-49.7-102.291-93.538-102.291-36.057,0-67.553,29.092-84.607,72.417-12.3-17.949-29.1-29.051-47.649-29.051-13.784,0-26.587,6.163-37.315,16.657-9.482-47.97-39.156-82.982-74.317-82.982-18.484,0-35.446,9.686-48.766,25.828-15.158-38.351-43.076-64.1-75.035-64.1-48.1,0-87.1,58.3-87.1,130.219,0,1.617.04,3.221.08,4.823-26.773,12.9-46.158,50.409-46.158,94.728,0,54.983,29.813,99.547,66.59,99.547,21.974,0,41.4-15.983,53.53-40.514,4.749,4.494,10.363,7.136,16.4,7.136a21.039,21.039,0,0,0,6.3-.972c5.387,39.271,28.632,68.8,56.49,68.8,23.984,0,44.537-21.9,53.231-53.05a20.091,20.091,0,0,0,11.9,4.134,18.8,18.8,0,0,0,6.532-1.221c5.23,6.03,11.488,10.112,18.326,11.6,5.532,19.1,18.245,32.481,33.057,32.481,9.338,0,17.821-5.351,24.219-14.073,7.843,12.154,18.826,19.748,31.016,19.748,20.149,0,37.018-20.689,41.745-48.618a19.5,19.5,0,0,0,11.159-4.663c17.832,27.44,42.762,44.511,70.374,44.511a70.343,70.343,0,0,0,36.131-10.308c4.61,7.847,11.354,12.83,18.892,12.83,10.379,0,19.287-9.4,23.132-22.808,11.866,14.894,27.154,23.9,43.862,23.9,17.437,0,33.3-9.854,45.363-25.939,4.76,5.409,10.678,8.66,17.118,8.66,6.952,0,13.312-3.762,18.245-9.965,6.848,27.506,24.523,47.139,45.311,47.139,15.211,0,28.767-10.5,37.639-26.925a35.152,35.152,0,0,0,17.217,4.7c16.451,0,30.981-12.044,39.979-30.5,9.371,23.576,26.521,39.426,46.2,39.426,12.893,0,24.716-6.795,33.984-18.11a88.031,88.031,0,0,0,108.705-6.893c5.685,29.186,23.676,50.511,45.027,50.511,15.741,0,29.639-11.617,38.15-29.4,7.607,11.817,18.274,19.207,30.112,19.207,14.072,0,26.493-10.427,34.065-26.352a61.528,61.528,0,0,0,30.785,8.491c19.857,0,38.135-10.068,52.708-26.943,9.625,10.822,24.919,17.857,42.195,17.857,25.093,0,46.05-14.78,51.4-34.577a26.759,26.759,0,0,0,6.414.853c21.8,0,39.483-26.432,39.483-59.028C1298.344,7801.178,1281.778,7775.488,1260.946,7773.854Z" fill="#5d7c7b"/>
  </g>
</svg>
