<svg xmlns="http://www.w3.org/2000/svg" width="1152.491" height="837.693" viewBox="0 0 1152.491 837.693">
  <g id="Group_5827" data-name="Group 5827" transform="translate(-684.179 -6180.199)">
    <path id="Path_5478" data-name="Path 5478" d="M1836.67,6462.217c0-15.543-5.66-29.065-18.42-36a41.678,41.678,0,0,0-69.212-46.232,33.41,33.41,0,0,0-5.613,1.174c.014-.5.074-.973.074-1.473a48.063,48.063,0,0,0-79.02-36.787,76.619,76.619,0,0,0-128.695-19.49,50.6,50.6,0,0,0-69.107,47.181c0,.959.091,1.894.148,2.84a32.774,32.774,0,0,0-3.776-.239,32.206,32.206,0,0,0-32.077,29.374,32.692,32.692,0,0,0-45.5-3.642,31.8,31.8,0,0,0-50.387,13.252,32.549,32.549,0,0,0-51.075,14.626,44.184,44.184,0,1,0,9.7,70.066,40.522,40.522,0,0,0,47.434,30.169,51.1,51.1,0,0,0,84.731,13.5,51.848,51.848,0,0,0,80.14,22.935,41.337,41.337,0,0,0,44.186,11.532,54.253,54.253,0,0,0,104.952-9.036,58.055,58.055,0,0,0,87.648-18.865c1.519.12,3.044.232,4.6.232a59.753,59.753,0,0,0,57.8-44.745C1824.725,6499.493,1836.67,6482.622,1836.67,6462.217Z" transform="translate(0 2)" fill="#2b7aa0"/>
    <path id="Path_5485" data-name="Path 5485" d="M1274.956,6556.923c70.76,23.625,80.908,86.578,95.033,148.385,47.4-77.292,119.076,3.411,99.108,67.728-2.18.761.8.368,1.615-1.838,17.814-48.808,149.248-2.826,152.01,53.426,3.951,80.556-104.574,88.515-156.944,59.383,56.194,113.6-188.8,101.35-167.062,13.548-27.842,112.475-324.629,119.674-319.236-8.427-1.665,39.59-201.72,77.841-188.192-20.091-158.5,51.582-85.253-160.523-8.936-75.483-37.306-64.463,49.559-85.555,87.977-40.574-69.417-81.282,122.807-166.767,173.111-71.117-30.851-62.18,54.833-87.907,72.951-26.247-11.45-62.737,56.627-98.477,109.4-103.855A116.511,116.511,0,0,1,1274.956,6556.923Z" transform="translate(-13 34.334)" fill="#2b6d89"/>
    <path id="Path_5487" data-name="Path 5487" d="M1329.785,6174.78c0-.043.006-.084.006-.128a53.04,53.04,0,0,0-104.679-12.133,31.08,31.08,0,0,0-26.682-5.051,46.915,46.915,0,0,0-75.591,37.19c0,.343.044.672.05,1.017a31.291,31.291,0,0,0,40.478,47.705,29.4,29.4,0,0,0,49.869,26,15.536,15.536,0,0,0,18.523-.427,29.374,29.374,0,0,0,38.153,3.946,37.305,37.305,0,0,0,54.462-20.1c.96.072,1.91.148,2.886.148a39.121,39.121,0,0,0,2.525-78.161Z" transform="translate(-39.219 58.61)" fill="#0f5f8e"/>
  </g>
</svg>
