<svg id="圖層_1" data-name="圖層 1" xmlns="http://www.w3.org/2000/svg" viewBox="0 0 2611.96 1834.7"><defs><style>.cls-1,.cls-2{opacity:0.49;}.cls-2{fill:#f8e8d1;fill-rule:evenodd;isolation:isolate;}.cls-3{fill:#2b7aa0;}</style></defs><g id="c6-2" class="cls-1"><path id="Path_5495" data-name="Path 5495" class="cls-2" d="M446.18,1690.41h38.08c23.09,0,38.76-5.17,62.92-3.33,14.69,1.12,60.33,10.86,75.51,3.33,36.08-2.2,71.52-5.14,105.72-1.66,18.73,1.9,59.05,18,78,8.32,42.6-21.67,79.35,15.16,118.3,16.65,68.84,2.63,117.37-2.79,188.77,6.66,70.25,3.48,157.5-5.57,221.5,6.66,54.61,10.43,161.09,11.65,161.09,11.65-29.29,46.85-191.88-1.21-279.39,11.65-29.45,4.33-79.24,8.06-108.23,1.67-48.32-10.65-75.52,8.88-110.75,16.64-46.28,0-85.86-6.65-130.88-6.65-40.29,0-83.46,8.32-128.37,8.32-38.26,0,74.82,11.07,154.21,11.07,61,0,178,3.51,165.6,34.53-12.59,31.59-236.34-11.59-348.62,7.46-67.34,11.42-176.82,1-263.48.43Z"/></g><path id="c6-1" class="cls-3" d="M1189.17,1391.26a84.5,84.5,0,0,0-47.6,14.61,58.5,58.5,0,0,0-70.63-71.63A75.55,75.55,0,0,0,971.16,1246a49,49,0,0,0-47-64.84c-1.21,0-2.33.28-3.5.35a82.11,82.11,0,0,0-155.19-24.62,87.47,87.47,0,0,0-134.37,54.28,69.67,69.67,0,0,0-112.88,28.6,109.18,109.18,0,0,0-151.69,85.9,99,99,0,0,0-157.37,73.5,82.7,82.7,0,0,0-145.07,37.45,50,50,0,0,0-14-2.24,50.13,50.13,0,0,0,0,100.25c.32,0,.64-.09,1-.09A53.48,53.48,0,0,0,104,1598.12h0a53.75,53.75,0,0,0,51.85-39.93A51,51,0,0,0,225.25,1570a66.51,66.51,0,0,0,107.06-8.94,93.79,93.79,0,0,0,146,41.08,90.43,90.43,0,0,0,148.3-46.62,46.9,46.9,0,0,0,79.86-22.84,99.8,99.8,0,0,0,138.8-2.36,66.3,66.3,0,0,0,79.26,14.08A93.16,93.16,0,0,0,1100.21,1580a65.73,65.73,0,0,0,8.06.55,64.18,64.18,0,0,0,50.93-25.12,84.82,84.82,0,1,0,30-164.16Z"/></svg>