<svg id="圖層_1" data-name="圖層 1" xmlns="http://www.w3.org/2000/svg" viewBox="0 0 2611.96 1834.7"><defs><style>.cls-1{fill:#2b6d89;}.cls-2{fill:#3f687b;}</style></defs><path id="c3-2" class="cls-1" d="M1463.45,909.64c0-.12,0-.22,0-.34a138.7,138.7,0,0,0-273.73-31.72A81.29,81.29,0,0,0,1120,864.37,122.68,122.68,0,0,0,922.3,961.63c0,.89.11,1.75.13,2.65A81.82,81.82,0,0,0,1028.28,1089a76.88,76.88,0,0,0,130.4,68,40.63,40.63,0,0,0,48.44-1.12,76.8,76.8,0,0,0,99.77,10.32,97.55,97.55,0,0,0,142.41-52.57c2.51.19,5,.38,7.55.38a102.3,102.3,0,0,0,6.6-204.38Z"/><path id="c3-1" class="cls-2" d="M1333,799.53a69.52,69.52,0,0,0-39.14,12,48.1,48.1,0,0,0-58.07-58.89,62.11,62.11,0,0,0-82-72.59,40.27,40.27,0,0,0-38.62-53.32c-1,0-1.91.23-2.88.29a67.51,67.51,0,0,0-127.6-20.24,71.93,71.93,0,0,0-110.48,44.63,57.31,57.31,0,0,0-92.81,23.52,89.75,89.75,0,0,0-124.72,70.63A81.37,81.37,0,0,0,527.23,806,68,68,0,0,0,408,836.78a41.12,41.12,0,1,0-11.52,80.58c.27,0,.53-.08.8-.08a43.82,43.82,0,0,0-.8,8,44.33,44.33,0,0,0,44.32,44.33h0a44.19,44.19,0,0,0,42.63-32.83,42,42,0,0,0,57,9.75,54.68,54.68,0,0,0,88-7.36,77.1,77.1,0,0,0,120.06,33.78,74.34,74.34,0,0,0,121.93-38.33,38.56,38.56,0,0,0,65.67-18.78,82,82,0,0,0,114.12-1.94,54.51,54.51,0,0,0,65.17,11.58,76.6,76.6,0,0,0,144.43,29.23,54.27,54.27,0,0,0,6.62.46,52.78,52.78,0,0,0,41.88-20.66,69.74,69.74,0,1,0,24.63-135Z"/></svg>