<svg xmlns="http://www.w3.org/2000/svg" width="1339.19" height="385.321" viewBox="0 0 1339.19 385.321">
  <g id="Group_5824" data-name="Group 5824" transform="translate(-700.209 -1153.485)">
    <g id="Group_4405" data-name="Group 4405" opacity="0.49">
      <path id="Path_5498" data-name="Path 5498" d="M1922.807,1344.6h-53.191c-17.764,0-29.679,9.988-45.369,9.988-31.795,0-59.534-6.659-89.049-6.659-22.266,0-45.475,13.317-67.206,13.317-64.982,0-128.117-6.427-186.5,11.653-23.609,7.31-62.81-18.311-94.091-18.311-17.7,0-33.656,11.653-57.126,11.653-212.823,0-418.814,24.97-630.066,24.97,18.618,26.215,21.189,13.318,45.364,13.318,15.1,0,22.984,9.987,33.6,9.987,24.53,0,111.754-11.01,124.335-1.663,77.591,5.363,149.744,0,225.142,0,21.766,0,33.745,20.722,53.767,23.306,43.478,5.614,114.391,1.663,161.3,1.663,32.191,0,67.193-1.458,97.451,6.659,45.783,12.287,61.825-19.313,110.892,4.995,16.813,8.328,26.957,29.967-10.083,29.967-52.371,0-84.847,8.691-127.782,8.691-30.174,0-67.6,17.293-55.062,31.276,20.057,22.371,67.52,4.538,71.192,6.3,32.621,15.638,61.132,13.1,83.756,1.3,19.265-10.049,37.294,11.792,59.29,11.792,34.911,0,37.086-25.845,71.1-22.738,29.774,2.721,60.668,14.3,90.729,6.659,27.413-6.966,54.37,15.364,70.571,3.329,11.54-4.157,37.3-8.662,50.4-4.992,9.778,2.737,18.173,10.8,28.562,11.651,7.286.6,22.589,1.011,38.072,2.466Z" fill="#f8e8d1" fill-rule="evenodd" opacity="0.49"/>
    </g>
    <path id="Path_5506" data-name="Path 5506" d="M1992.352,1309.1a46.883,46.883,0,0,0-26.394,8.1,32.438,32.438,0,0,0-39.163-39.717,41.889,41.889,0,0,0-55.327-48.955,27.164,27.164,0,0,0-26.042-35.957c-.67,0-1.292.156-1.943.2a45.529,45.529,0,0,0-86.05-13.652,48.5,48.5,0,0,0-74.506,30.1,38.639,38.639,0,0,0-62.589,15.86,60.538,60.538,0,0,0-84.11,47.629,54.879,54.879,0,0,0-87.256,40.75,45.856,45.856,0,0,0-80.437,20.768,27.734,27.734,0,1,0-7.766,54.342c.182,0,.359-.05.542-.05a29.8,29.8,0,0,0,58.1,13.143,28.3,28.3,0,0,0,38.473,6.571,36.876,36.876,0,0,0,59.363-4.958,52,52,0,0,0,80.964,22.778,50.142,50.142,0,0,0,82.231-25.848,26,26,0,0,0,44.282-12.664,55.335,55.335,0,0,0,76.962-1.31,36.762,36.762,0,0,0,43.948,7.806,51.657,51.657,0,0,0,97.4,19.715,36.435,36.435,0,0,0,4.47.307,35.6,35.6,0,0,0,28.242-13.929,47.031,47.031,0,1,0,16.61-91.025Z" fill="#0f5f8e"/>
  </g>
</svg>
