<svg id="圖層_1" data-name="圖層 1" xmlns="http://www.w3.org/2000/svg" viewBox="0 0 2611.96 1834.7"><defs><style>.cls-1{fill:#2b7aa0;}.cls-2{fill:#3f687b;}.cls-3{fill:#2b6d89;}</style></defs><g id="c4-3"><path id="Path_5503" data-name="Path 5503" class="cls-1" d="M2612,1204.18c0-38.14-18.65-71.32-46.13-88.32a112.81,112.81,0,0,0,12.54-52c0-56.55-40.23-102.38-89.86-102.38-29.36,0-55.35,16.11-71.75,40.93a65.26,65.26,0,0,0-12.09,2.88c0-1.21.16-2.38.16-3.61,0-65.17-46.36-118-103.57-118-25.39,0-48.6,10.44-66.61,27.71-25.31-66.94-83.68-113.82-151.71-113.82-50.25,0-95.17,25.65-125.47,66a97.43,97.43,0,0,0-39.67-8.6c-60.29,0-109.16,55.69-109.16,124.37,0,2.36.2,4.65.31,7a63.12,63.12,0,0,0-8.13-.59c-36.26,0-66,31.69-69.08,72.08-12.93-16.78-31.85-27.43-53-27.43-17.11,0-32.8,6.94-45,18.5-11.94-11.53-27.38-18.5-44.26-18.5-29.5,0-54.57,21.25-64.26,51-12-11-27.23-17.55-43.83-17.55-30.59,0-56.55,22.33-66.17,53.44a85.68,85.68,0,0,0-46-13.56c-52.55,0-95.16,48.55-95.16,108.42s42.61,108.43,95.16,108.43c26.11,0,49.74-12,66.94-31.37,9.27,43.59,43.65,76,84.77,76a77.6,77.6,0,0,0,17.38-2c17.17,44,55.77,74.67,100.73,74.67,32.48,0,61.57-16.09,81.76-41.54,16,48.23,56.75,82.61,104.67,82.61,25.58,0,49.07-9.88,67.93-26.33,16.39,20.69,40,33.77,66.43,33.77a79.65,79.65,0,0,0,28.74-5.47c15.72,52.46,59.25,90.23,110.63,90.23,58.35,0,106.61-48.74,115.4-112.4,21.35,19.24,48.28,30.81,77.61,30.81,48.4,0,90.31-31.32,111.16-77.1,3.27.3,6.56.57,9.9.57,59.9,0,110.09-46.67,124.48-109.79C2579.77,1295.64,2612,1254.24,2612,1204.18Z"/></g><path id="c4-2" class="cls-2" d="M2486.59,877.82c0-.6.09-1.18.09-1.78a66.61,66.61,0,0,0-66.61-66.61h0c-1.4,0-2.8.06-4.18.14A71.89,71.89,0,0,0,2342.28,703a85.56,85.56,0,0,0-116.5-99.47,96.15,96.15,0,0,0-185.7,34.84A72.82,72.82,0,0,0,1914.64,706a70,70,0,0,0-128.83,52.31,52,52,0,0,0-46.54,35.13,74.74,74.74,0,0,0-99.11-26.22,66.48,66.48,0,0,0-125.39-29.43,68.73,68.73,0,0,0-110.67,61.29,52.19,52.19,0,0,0-28.56,52.24h-.21c0,.6-.09,1.18-.09,1.78a66.61,66.61,0,0,0,66.61,66.61h0c1.4,0,2.79-.06,4.17-.14a71.89,71.89,0,0,0,73.61,106.61,85.57,85.57,0,0,0,116.51,99.47,96.15,96.15,0,0,0,185.7-34.84,72.82,72.82,0,0,0,125.44-67.67,70,70,0,0,0,128.82-52.31,52,52,0,0,0,46.54-35.13,74.73,74.73,0,0,0,99.11,26.21,66.48,66.48,0,0,0,125.39,29.44,68.69,68.69,0,0,0,110.67-61.29,52.16,52.16,0,0,0,28.56-52.24Z"/><path id="c4-1" class="cls-3" d="M1655.58,512.09c58.46,19.52,66.85,71.53,78.52,122.59,39.16-63.85,98.38,2.82,81.88,56-1.8.63.66.3,1.33-1.52,14.72-40.32,123.31-2.33,125.59,44.14,3.26,66.55-86.4,73.13-129.66,49.06,46.42,93.86-156,83.74-138,11.19-23,92.93-268.2,98.88-263.75-7-1.37,32.71-166.65,64.31-155.48-16.6-131,42.62-70.43-132.62-7.38-62.36-30.82-53.26,40.94-70.68,72.68-33.52-57.35-67.15,101.47-137.78,143-58.76-25.49-51.37,45.3-72.62,60.27-21.68-9.46-51.83,46.78-81.36,90.38-85.8A96.28,96.28,0,0,1,1655.58,512.09Z"/></svg>