<svg xmlns="http://www.w3.org/2000/svg" width="1259.574" height="903.275" viewBox="0 0 1259.574 903.275">
  <g id="Group_5821" data-name="Group 5821" transform="translate(-763.378 -129.631)">
    <g id="Group_4404" data-name="Group 4404" opacity="0.49">
      <path id="Path_5497" data-name="Path 5497" d="M1906.32,129.631l-57.277,6.348c-17.505,0-41.444,33.616-56.905,33.616-31.331,0-45.63-19.775-74.715-19.775-21.941,0-53.3,15-74.714,15-64.034,0-96.243-40.668-153.774-22.588-23.264,7.309-76.035,27.366-106.859,27.366-17.447,0-85.078-32.689-111.685-33.683-211.495-7.9-490.076-15.139-506.45,43.145-4.025,14.328,14.486,28.493,24.949,28.493,24.173,0,98.466,9.893,113.007,15.334,71.787,26.859,147.56,0,221.858,0,21.448,0,33.253,20.721,52.982,23.3,42.844,5.615,112.722,1.664,158.944,1.664,31.721,0,66.212-1.458,96.028,6.658,45.115,12.288,60.924-19.313,109.275,5,16.567,8.328,102.73,4.724,104.621,14.449-30.444-5-78.058,15.518-114.557,15.518-51.607,0-91.8,13.315-134.107,13.315-29.734,0-62.7-4.993-92.718-4.993-24.522,0-70.394-1.569-54.634,9.988,20.8,15.255,70.76,18.313,97.683,18.313,10.975,0,49.31-9.977,52.979-8.325,24.558,11.068,57.178,21.788,79.472,9.991,18.985-10.048,39.585,0,61.261,0,34.4,0,57.544-4.773,91.06-1.666,29.339,2.721,59.783,14.3,89.405,6.659,27.013-6.966,53.577,15.364,69.541,3.329,11.372-4.157,36.758-8.662,49.669-4.993,9.635,2.738,17.908,10.8,28.145,11.652,7.18.6,22.259,1.011,37.516,2.466Z" fill="#f8e8d1" fill-rule="evenodd" opacity="0.49"/>
    </g>
    <path id="Path_5500" data-name="Path 5500" d="M2022.863,723.939c.015-.6.089-1.177.089-1.777a66.61,66.61,0,0,0-66.611-66.61c-1.4,0-2.793.056-4.174.139a71.867,71.867,0,0,0-62.434-107.483,72.585,72.585,0,0,0-11.175.867,85.57,85.57,0,0,0-116.505-99.467,96.153,96.153,0,0,0-185.7,34.843,72.82,72.82,0,0,0-125.441,67.671,69.965,69.965,0,0,0-128.826,52.31,52.028,52.028,0,0,0-46.539,35.13,74.732,74.732,0,0,0-99.11-26.218,66.48,66.48,0,0,0-125.392-29.436,68.694,68.694,0,0,0-111.046,54.1,69.572,69.572,0,0,0,.375,7.187,52.2,52.2,0,0,0-28.56,52.243H911.6c-.015.6-.089,1.177-.089,1.777a66.609,66.609,0,0,0,66.611,66.61c1.4,0,2.792-.057,4.174-.139a71.866,71.866,0,0,0,62.434,107.482,72.727,72.727,0,0,0,11.175-.866,85.572,85.572,0,0,0,116.505,99.467,96.154,96.154,0,0,0,185.7-34.843,72.821,72.821,0,0,0,125.441-67.671,69.965,69.965,0,0,0,128.826-52.31,52.03,52.03,0,0,0,46.539-35.13,74.732,74.732,0,0,0,99.11,26.218,66.48,66.48,0,0,0,125.391,29.436,68.7,68.7,0,0,0,111.047-54.1,69.3,69.3,0,0,0-.376-7.187,52.188,52.188,0,0,0,28.56-52.243Z" fill="#3f687b"/>
  </g>
</svg>
