<svg xmlns="http://www.w3.org/2000/svg" width="1156.108" height="707.7" viewBox="0 0 1156.108 707.7">
  <g id="Group_5820" data-name="Group 5820" transform="translate(-714.505 -2.989)">
    <path id="Path_5501" data-name="Path 5501" d="M1870.612,168.689a40.926,40.926,0,0,0-21.42-36,41.678,41.678,0,0,0-69.212-46.232,33.412,33.412,0,0,0-5.613,1.174c.014-.5.074-.973.074-1.473a48.063,48.063,0,0,0-79.02-36.787,76.619,76.619,0,0,0-128.7-19.49,50.6,50.6,0,0,0-69.107,47.181c0,.959.091,1.894.148,2.84a32.784,32.784,0,0,0-3.776-.239,32.206,32.206,0,0,0-32.077,29.374,32.691,32.691,0,0,0-45.5-3.642,31.8,31.8,0,0,0-50.387,13.252,32.55,32.55,0,0,0-51.075,14.626,44.185,44.185,0,1,0,9.7,70.066,40.523,40.523,0,0,0,47.434,30.169,51.1,51.1,0,0,0,84.731,13.5,51.848,51.848,0,0,0,80.14,22.935,41.338,41.338,0,0,0,44.186,11.532,54.253,54.253,0,0,0,104.952-9.036,58.056,58.056,0,0,0,87.648-18.865c1.519.119,3.044.232,4.6.232a59.753,59.753,0,0,0,57.8-44.745A40.912,40.912,0,0,0,1870.612,168.689Z" fill="#2b7aa0"/>
    <path id="Path_5507" data-name="Path 5507" d="M1197.724,343.716c58.461,19.519,66.845,71.53,78.515,122.593,39.163-63.857,98.379,2.819,81.882,55.956-1.8.629.664.3,1.334-1.518,14.718-40.325,123.306-2.335,125.588,44.139,3.264,66.555-86.4,73.13-129.664,49.062,46.426,93.853-155.984,83.734-138.024,11.193-23,92.925-268.2,98.873-263.749-6.962-1.375,32.708-166.657,64.31-155.481-16.6-130.951,42.617-70.435-132.621-7.383-62.362-30.821-53.258,40.945-70.684,72.685-33.522-57.351-67.154,101.462-137.78,143.022-58.756-25.488-51.372,45.3-72.627,60.271-21.685-9.46-51.832,46.784-81.36,90.387-85.8A96.264,96.264,0,0,1,1197.724,343.716Z" transform="translate(-5.869 14.493)" fill="#2b6d89"/>
  </g>
</svg>
