<svg xmlns="http://www.w3.org/2000/svg" width="1337.942" height="773.581" viewBox="0 0 1337.942 773.581">
  <path id="Path_5503" data-name="Path 5503" d="M2148.232,1050.3c0-38.138-18.652-71.318-46.132-88.325a112.737,112.737,0,0,0,12.544-52c0-56.544-40.228-102.375-89.858-102.375-29.357,0-55.353,16.111-71.75,40.932a64.45,64.45,0,0,0-12.089,2.881c.03-1.216.158-2.389.158-3.614,0-65.168-46.359-117.985-103.567-117.985-25.39,0-48.608,10.445-66.617,27.72-25.308-66.945-83.681-113.82-151.706-113.82-50.251,0-95.173,25.65-125.468,66a97.176,97.176,0,0,0-39.675-8.6c-60.289,0-109.162,55.681-109.162,124.368,0,2.355.2,4.648.318,6.968a62.128,62.128,0,0,0-8.131-.586c-36.26,0-65.981,31.687-69.085,72.077-12.93-16.784-31.848-27.436-52.983-27.436-17.117,0-32.8,6.944-45.013,18.5-11.945-11.522-27.381-18.5-44.262-18.5-29.5,0-54.566,21.252-64.256,51.015-12.014-10.953-27.237-17.551-43.831-17.551-30.591,0-56.549,22.329-66.171,53.439a85.723,85.723,0,0,0-46.042-13.558c-52.552,0-95.164,48.548-95.164,108.421,0,59.889,42.612,108.429,95.164,108.429,26.11,0,49.736-11.989,66.936-31.368,9.274,43.589,43.657,76.009,84.778,76.009a77.367,77.367,0,0,0,17.381-1.984c17.162,43.969,55.762,74.673,100.729,74.673,32.476,0,61.568-16.094,81.757-41.537,15.966,48.23,56.746,82.608,104.673,82.608,25.572,0,49.07-9.885,67.927-26.332,16.39,20.691,40.039,33.766,66.429,33.766a79.49,79.49,0,0,0,28.736-5.468c15.723,52.463,59.259,90.231,110.63,90.231,58.358,0,106.611-48.738,115.407-112.4,21.348,19.242,48.275,30.815,77.609,30.815,48.4,0,90.312-31.324,111.16-77.1,3.271.294,6.556.569,9.9.569,59.895,0,110.093-46.676,124.476-109.791C2116.044,1141.762,2148.232,1100.364,2148.232,1050.3Z" transform="translate(-810.29 -643.713)" fill="#2b7aa0"/>
</svg>
