<svg id="圖層_1" data-name="圖層 1" xmlns="http://www.w3.org/2000/svg" viewBox="0 0 2611.96 1834.7"><defs><style>.cls-1,.cls-2{opacity:0.49;}.cls-2{fill:#f8e8d1;fill-rule:evenodd;isolation:isolate;}.cls-3{fill:#0f5f8e;}.cls-4{fill:#2b7aa0;}</style></defs><g id="c1-3" class="cls-1"><path id="Path_5496" data-name="Path 5496" class="cls-2" d="M446.18,150.17h38.08c23.09,0,38.76-5.17,62.92-3.33,14.69,1.12,60.33,10.86,75.51,3.33,36.08-2.2,71.52-5.14,105.72-1.66,18.73,1.9,59.05,18,78,8.32,42.6-21.68,79.35,15.16,118.3,16.65,68.84,2.62,117.37-2.79,188.77,6.66,70.25,3.48,157.5-5.57,221.5,6.65,54.61,10.44,161.09,11.66,161.09,11.66-29.29,46.84-191.88-1.21-279.39,11.65-29.45,4.33-79.24,8.06-108.23,1.67-48.32-10.66-75.52,8.88-110.74,16.64-46.28,0-85.86-6.66-130.89-6.66-40.29,0-83.46,8.33-128.36,8.33-38.26,0,74.82,11.07,154.21,11.07,61,0,178,3.51,165.6,34.53-12.59,31.59-236.35-11.59-348.63,7.45-67.33,11.42-176.82,1-263.48.44Z"/></g><path id="c1-2" class="cls-3" d="M1775,129.9a31.07,31.07,0,0,0-16.87-27.63A72,72,0,0,0,1629.34,38a49,49,0,0,0-84.1,34.16h0a48.84,48.84,0,0,0,3.28,17.52,39.52,39.52,0,1,0-12.9,76.88h0a39.44,39.44,0,0,0,17.49-4.12c7.34,13.37,23,22.63,41.13,22.63a48.89,48.89,0,0,0,32.89-12.24,61.93,61.93,0,0,0,118.19-11.95A31.08,31.08,0,0,0,1775,129.9Z"/><path id="c1-1" class="cls-4" d="M1091.41,320.47a74.22,74.22,0,0,0-39.68,11.5,86.82,86.82,0,0,0-98.9-72.75c-.94.14-1.88.3-2.81.47a107.39,107.39,0,1,0-203.7-56.24,62.23,62.23,0,0,0-73.87,11.06A97.82,97.82,0,0,0,496,272.76c0,.14,0,.28,0,.42a89.49,89.49,0,0,0-80,74.31A58.67,58.67,0,1,0,401.22,462.9h0A58.41,58.41,0,0,0,437.94,450a39.42,39.42,0,0,0,22.83,10.33,47.16,47.16,0,0,0,82.44,21.46,87.62,87.62,0,0,0,145.56.37,102.33,102.33,0,0,0,178.51-7.4,83,83,0,0,0,142.68-8.1,49.24,49.24,0,0,0,45.78-5.91,74.65,74.65,0,1,0,35.67-140.24Z"/></svg>