<svg xmlns="http://www.w3.org/2000/svg" width="1060.544" height="206.287" viewBox="0 0 1060.544 206.287">
  <g id="Group_5828" data-name="Group 5828" transform="translate(11.269 -6258.488)">
    <g id="Group_4397" data-name="Group 4397" transform="translate(-10.634 -7.285)" opacity="0.49">
      <path id="Path_5470" data-name="Path 5470" d="M-.635,6269.691H37.836c23.323,0,39.148-5.438,63.561-3.5,14.832,1.176,60.935,11.417,76.274,3.5,36.439-2.315,72.239-5.409,106.786-1.75,18.918,2,59.653,18.9,78.814,8.75,43.032-22.788,80.156,15.939,119.5,17.5,69.536,2.762,118.557-2.93,190.685,7,70.953,3.662,159.086-5.854,223.736,7,55.17,10.968,162.72,12.25,162.72,12.25-29.584,49.248-193.816-1.272-282.216,12.25-29.75,4.549-80.039,8.47-109.327,1.75-48.81-11.2-76.284,9.336-111.868,17.5-46.75,0-86.728-7-132.208-7-40.7,0-84.308,8.751-129.666,8.751-38.648,0,75.578,11.639,155.772,11.639,61.654,0,179.767,3.694,167.276,36.306-12.72,33.208-238.74-12.186-352.155,7.833C197.5,6421.479,86.9,6410.51-.635,6409.93Z" fill="#f8e8d1" fill-rule="evenodd" opacity="0.49"/>
    </g>
    <path id="Path_5486" data-name="Path 5486" d="M928.431,6391.132v-.054a30.932,30.932,0,0,0-58.908-13.193,30.163,30.163,0,0,0-49.538,23.121q0,.8.043,1.587a24.821,24.821,0,1,0,20.234,45.231A15.211,15.211,0,0,0,858.2,6450.9a36.832,36.832,0,0,0,59.622-2.778,29.212,29.212,0,1,0,10.611-56.985Z" fill="#0f5f8e"/>
  </g>
</svg>
