<svg xmlns="http://www.w3.org/2000/svg" width="162.859" height="96.285" viewBox="0 0 162.859 96.285">
  <g id="Group_4412" data-name="Group 4412" transform="translate(-381.474 693.324)">
    <circle id="Ellipse_145" data-name="Ellipse 145" cx="32.979" cy="32.979" r="32.979" transform="translate(381.474 -662.998)" fill="#546e7a"/>
    <circle id="Ellipse_146" data-name="Ellipse 146" cx="6.596" cy="6.596" r="6.596" transform="translate(392.123 -624.133)" fill="#37474f"/>
    <circle id="Ellipse_147" data-name="Ellipse 147" cx="3.298" cy="3.298" r="3.298" transform="translate(409.261 -616.595)" fill="#78909c"/>
    <circle id="Ellipse_148" data-name="Ellipse 148" cx="1.649" cy="1.649" r="1.649" transform="translate(419.272 -623.12)" fill="#37474f"/>
    <circle id="Ellipse_149" data-name="Ellipse 149" cx="1.649" cy="1.649" r="1.649" transform="translate(402.404 -630.967)" fill="#78909c"/>
    <circle id="Ellipse_150" data-name="Ellipse 150" cx="1.649" cy="1.649" r="1.649" transform="translate(411.371 -652.067)" fill="#78909c"/>
    <path id="Path_5511" data-name="Path 5511" d="M537.146-688.035l-50.208,26.658-.1.05a4.891,4.891,0,0,1-6.611-2.041,4.892,4.892,0,0,1,2.012-6.62l26.566-14.105a4.893,4.893,0,0,0,2.012-6.62,4.893,4.893,0,0,0-6.611-2.042l-52.239,27.736-.118.01a4.893,4.893,0,0,1-6.611-2.042,4.892,4.892,0,0,1,2.012-6.62l4.312-2.289a4.893,4.893,0,0,0,2.012-6.62,4.893,4.893,0,0,0-6.611-2.042l-34.493,18.314a4.894,4.894,0,0,0-2.013,6.621,4.894,4.894,0,0,0,6.612,2.041l12.935-6.868a4.893,4.893,0,0,1,6.611,2.042,4.892,4.892,0,0,1-2.013,6.62l-4.311,2.289a4.839,4.839,0,0,0-1.525,1.269,4.9,4.9,0,0,0-.567,5.446,4.893,4.893,0,0,0,6.611,2.042l15.618-8.292a4.892,4.892,0,0,1,6.611,2.041,4.892,4.892,0,0,1-2.012,6.62l-8.528,4.528a4.679,4.679,0,0,0-2.226,6.217c.034.064.076.126.114.188s.063.144.1.215a4.892,4.892,0,0,0,6.611,2.041l2.779-1.475c2.381-1.264,4.818-1.336,5.97.834a4.68,4.68,0,0,1-2.227,6.217l-18.492,9.819a4.68,4.68,0,0,0-2.226,6.217h0A4.68,4.68,0,0,0,443.3-608l57.489-30.524a4.679,4.679,0,0,0,2.226-6.217h0a4.678,4.678,0,0,0-6.4-1.639l-7.187,3.815a4.679,4.679,0,0,1-6.4-1.639c-1.152-2.169.272-4.147,2.654-5.412l56.052-29.76a4.894,4.894,0,0,0,2.012-6.621A4.893,4.893,0,0,0,537.146-688.035Z" fill="#ff9800"/>
    <path id="Path_5512" data-name="Path 5512" d="M529.864-684.169l-50.208,26.658-.1.051a4.892,4.892,0,0,1-6.611-2.042,4.892,4.892,0,0,1,2.012-6.62l26.565-14.1a4.892,4.892,0,0,0,2.013-6.62,4.892,4.892,0,0,0-6.611-2.041L444.69-661.152l-.118.009a4.893,4.893,0,0,1-6.611-2.042,4.893,4.893,0,0,1,2.012-6.62l4.312-2.289a4.892,4.892,0,0,0,2.012-6.62,4.892,4.892,0,0,0-6.611-2.041l-34.493,18.314a4.892,4.892,0,0,0-2.013,6.62,4.892,4.892,0,0,0,6.611,2.041l12.936-6.867a4.892,4.892,0,0,1,6.611,2.041,4.892,4.892,0,0,1-2.013,6.62l-4.311,2.289a4.853,4.853,0,0,0-1.525,1.269,4.9,4.9,0,0,0-.567,5.447,4.892,4.892,0,0,0,6.611,2.041l15.618-8.292a4.893,4.893,0,0,1,6.611,2.042,4.893,4.893,0,0,1-2.012,6.62l-8.528,4.527A4.681,4.681,0,0,0,437-629.825c.034.064.076.125.113.188s.064.144.1.214a4.893,4.893,0,0,0,6.611,2.042l2.779-1.475c2.381-1.265,4.818-1.336,5.969.833a4.68,4.68,0,0,1-2.226,6.218l-18.492,9.818a4.679,4.679,0,0,0-2.226,6.217h0a4.679,4.679,0,0,0,6.4,1.639l57.49-30.523a4.681,4.681,0,0,0,2.226-6.218h0a4.681,4.681,0,0,0-6.4-1.639l-7.186,3.816a4.68,4.68,0,0,1-6.4-1.639c-1.152-2.17.272-4.148,2.654-5.412l56.052-29.761a4.892,4.892,0,0,0,2.012-6.62A4.893,4.893,0,0,0,529.864-684.169Z" fill="#ff7043"/>
    <path id="Path_5513" data-name="Path 5513" d="M522.582-680.3l-50.208,26.657-.1.051a4.894,4.894,0,0,1-6.612-2.041,4.892,4.892,0,0,1,2.013-6.62l26.565-14.1a4.892,4.892,0,0,0,2.013-6.62,4.893,4.893,0,0,0-6.611-2.042l-52.239,27.736-.118.009a4.892,4.892,0,0,1-6.611-2.041,4.892,4.892,0,0,1,2.012-6.62L437-668.227a4.893,4.893,0,0,0,2.012-6.62,4.893,4.893,0,0,0-6.611-2.042l-34.493,18.314a4.892,4.892,0,0,0-2.013,6.62,4.893,4.893,0,0,0,6.611,2.042l12.935-6.868a4.894,4.894,0,0,1,6.612,2.041,4.893,4.893,0,0,1-2.013,6.621l-4.311,2.289a4.85,4.85,0,0,0-1.525,1.268,4.9,4.9,0,0,0-.567,5.447,4.893,4.893,0,0,0,6.611,2.042l15.618-8.293a4.893,4.893,0,0,1,6.611,2.042,4.892,4.892,0,0,1-2.012,6.62l-8.528,4.528a4.68,4.68,0,0,0-2.226,6.217c.034.064.076.125.113.188s.063.144.1.215a4.892,4.892,0,0,0,6.611,2.041l2.779-1.475c2.381-1.264,4.817-1.336,5.969.834a4.679,4.679,0,0,1-2.226,6.217l-18.492,9.818a4.681,4.681,0,0,0-2.226,6.218h0a4.68,4.68,0,0,0,6.4,1.639l57.49-30.524a4.679,4.679,0,0,0,2.226-6.217h0a4.679,4.679,0,0,0-6.4-1.639l-7.186,3.815a4.679,4.679,0,0,1-6.4-1.639c-1.152-2.169.272-4.148,2.654-5.412l56.052-29.761a4.892,4.892,0,0,0,2.012-6.62A4.892,4.892,0,0,0,522.582-680.3Z" fill="#ff5722"/>
  </g>
</svg>
