<svg xmlns="http://www.w3.org/2000/svg" width="302.865" height="172.794" viewBox="0 0 302.865 172.794">
  <g id="Group_4413" data-name="Group 4413" transform="translate(-1092.305 497.204)">
    <circle id="Ellipse_151" data-name="Ellipse 151" cx="53.643" cy="53.643" r="53.643" transform="translate(1092.305 -431.694)" fill="#c62954"/>
    <circle id="Ellipse_152" data-name="Ellipse 152" cx="10.729" cy="10.729" r="10.729" transform="translate(1109.625 -368.479)" fill="#37474f"/>
    <circle id="Ellipse_153" data-name="Ellipse 153" cx="5.364" cy="5.364" r="5.364" transform="translate(1137.502 -356.217)" fill="#78909c"/>
    <circle id="Ellipse_154" data-name="Ellipse 154" cx="2.682" cy="2.682" r="2.682" transform="translate(1153.785 -366.831)" fill="#37474f"/>
    <circle id="Ellipse_155" data-name="Ellipse 155" cx="2.682" cy="2.682" r="2.682" transform="translate(1126.348 -379.595)" fill="#78909c"/>
    <circle id="Ellipse_156" data-name="Ellipse 156" cx="2.682" cy="2.682" r="2.682" transform="translate(1140.932 -413.915)" fill="#78909c"/>
    <path id="Path_5514" data-name="Path 5514" d="M1382.341-491.973l-96.43,51.2-.184.1c-4.574,2.429-9.956,1.243-12.021-2.647s-.033-9.013,4.541-11.441l51.023-27.091c4.573-2.428,6.606-7.55,4.541-11.441s-7.448-5.075-12.021-2.647l-100.332,53.271-.22.03c-4.573,2.428-9.956,1.243-12.021-2.647s-.033-9.013,4.541-11.441l8.281-4.4c4.574-2.429,6.607-7.551,4.541-11.441s-7.448-5.076-12.021-2.648l-66.25,35.175c-4.573,2.429-6.606,7.551-4.541,11.441s7.448,5.076,12.022,2.648l24.843-13.191c4.574-2.428,9.956-1.243,12.021,2.647s.033,9.013-4.541,11.441l-8.281,4.4a10.755,10.755,0,0,0-2.985,2.332c-2.482,2.656-3.285,6.323-1.715,9.28,2.066,3.891,7.448,5.076,12.021,2.648l30-15.927c4.573-2.428,9.955-1.243,12.021,2.648s.032,9.012-4.541,11.441l-16.378,8.7c-4.574,2.428-6.763,7.257-4.889,10.786.055.1.125.2.187.3.054.117.1.236.16.351,2.066,3.89,7.448,5.075,12.022,2.647l5.336-2.833c4.574-2.429,9.1-2.846,10.979.682s-.316,8.358-4.889,10.786l-35.517,18.858c-4.574,2.428-6.763,7.258-4.889,10.786h0c1.874,3.529,7.1,4.421,11.674,1.993L1308.842-403.8c4.573-2.429,6.762-7.258,4.889-10.787h0c-1.874-3.528-7.1-4.421-11.674-1.992l-13.8,7.328c-4.574,2.428-9.8,1.536-11.674-1.992s1.011-7.049,5.585-9.477l107.655-57.159c4.574-2.429,6.607-7.551,4.541-11.441S1386.915-494.4,1382.341-491.973Z" fill="#ff5722"/>
    <path id="Path_5515" data-name="Path 5515" d="M1368.355-484.547l-96.43,51.2-.184.1c-4.574,2.429-9.956,1.243-12.022-2.647s-.032-9.013,4.541-11.441l51.024-27.091c4.573-2.428,6.606-7.55,4.541-11.441s-7.448-5.075-12.022-2.647l-100.332,53.271-.219.03c-4.574,2.428-9.956,1.243-12.021-2.647s-.033-9.013,4.541-11.441l8.281-4.4c4.573-2.429,6.607-7.551,4.541-11.441s-7.448-5.076-12.021-2.648l-66.25,35.175c-4.574,2.429-6.607,7.551-4.541,11.441s7.448,5.076,12.021,2.648l24.844-13.191c4.573-2.428,9.956-1.243,12.021,2.647s.033,9.013-4.541,11.441l-8.281,4.4a10.758,10.758,0,0,0-2.985,2.332c-2.482,2.656-3.285,6.323-1.715,9.28,2.066,3.891,7.448,5.076,12.021,2.648l30-15.927c4.574-2.428,9.956-1.243,12.021,2.648s.033,9.012-4.54,11.441l-16.379,8.7c-4.573,2.428-6.762,7.257-4.889,10.786.056.1.126.2.188.3.054.117.1.236.16.351,2.066,3.89,7.448,5.075,12.021,2.647l5.337-2.833c4.574-2.429,9.1-2.847,10.978.682s-.315,8.358-4.889,10.786l-35.516,18.858c-4.574,2.428-6.763,7.257-4.889,10.786h0c1.873,3.529,7.1,4.421,11.673,1.993l110.416-58.626c4.574-2.428,6.763-7.257,4.889-10.786h0c-1.873-3.528-7.1-4.421-11.673-1.992l-13.8,7.328c-4.574,2.428-9.8,1.536-11.674-1.992s1.011-7.049,5.584-9.477l107.656-57.159c4.574-2.429,6.607-7.551,4.541-11.442S1372.929-486.975,1368.355-484.547Z" fill="#ff7043"/>
    <path id="Path_5516" data-name="Path 5516" d="M1354.369-477.121l-96.431,51.2-.184.1c-4.573,2.428-9.955,1.243-12.021-2.647s-.032-9.013,4.541-11.441L1301.3-467c4.574-2.428,6.607-7.55,4.541-11.441s-7.447-5.075-12.021-2.647L1193.485-427.82l-.219.03c-4.574,2.428-9.956,1.243-12.022-2.647s-.032-9.013,4.541-11.442l8.282-4.4c4.573-2.429,6.606-7.551,4.541-11.441s-7.448-5.076-12.021-2.648l-66.25,35.175c-4.574,2.429-6.607,7.551-4.541,11.441s7.447,5.076,12.021,2.648l24.844-13.191c4.573-2.428,9.955-1.243,12.021,2.647s.032,9.013-4.541,11.441l-8.281,4.4a10.742,10.742,0,0,0-2.985,2.332c-2.482,2.656-3.286,6.323-1.715,9.28,2.065,3.891,7.448,5.076,12.021,2.648l21.384-11.713c4.573-2.428,9.955-1.243,12.021,2.648s.032,9.012-4.541,11.441l-7.766,4.482c-4.574,2.428-6.762,7.257-4.889,10.786.055.1.125.2.188.3.053.117.1.236.16.351,2.065,3.89,7.448,5.075,12.021,2.647l-3.276,1.381c4.574-2.429,9.1-2.847,10.979.682s-.315,8.358-4.889,10.786l-26.905,14.644c-4.573,2.428-6.762,7.257-4.889,10.786h0c1.873,3.529,7.1,4.421,11.673,1.993l110.416-58.626c4.574-2.428,6.763-7.257,4.889-10.786h0c-1.874-3.528-7.1-4.421-11.674-1.992l-13.8,7.328c-4.574,2.428-9.8,1.536-11.674-1.993s1.01-7.048,5.584-9.476l107.656-57.159c4.573-2.429,6.607-7.551,4.541-11.442S1358.942-479.549,1354.369-477.121Z" fill="#ff9800"/>
  </g>
</svg>
