<svg xmlns="http://www.w3.org/2000/svg" viewBox="0 0 70 70"><defs><style>.cls-1{fill:#bdedef;}.cls-1,.cls-2,.cls-3,.cls-4,.cls-5,.cls-6,.cls-7{fill-rule:evenodd;}.cls-2{fill:#78a0c1;}.cls-3{fill:#97bce1;}.cls-4{fill:#5888a8;}.cls-5{fill:#f9e9ce;}.cls-6{fill:#54b9c3;}.cls-7{fill:#f9e9bd;}</style></defs><g id="圖層_2" data-name="圖層 2"><g id="圖層_1-2" data-name="圖層 1"><g id="Group_158" data-name="Group 158"><path id="Path_587" data-name="Path 587" class="cls-1" d="M25,1.46A35,35,0,1,0,68.54,25,35,35,0,0,0,25,1.46Z"/><path id="Path_588" data-name="Path 588" class="cls-2" d="M64,28.59A33.31,33.31,0,0,1,1.24,44.24,35,35,0,1,0,56.06,7.05,33.19,33.19,0,0,1,64,28.59Z"/><path id="Path_589" data-name="Path 589" class="cls-3" d="M51.56,65.83c1.51-1.26,4-2.76,4-3.87,0-1.43-.11-3.63,1.58-4.78s3.63-1.78,3.63-3.33-.15-3.1.7-4.67,1.31-1.2,1.31-2.49S62.46,45,61.6,45a1.43,1.43,0,0,1-1.22-.87c-1-2.28-2.47-.85-4.17-2.28s-3-4.42-5.25-4.42-2.34.13-3.11-.43a7.76,7.76,0,0,1-1.55-1.83c-.55-.68-.89-.7-2.32-.7s-1.54-1.27-2.39-1.27H39.37c-1.22,0-1.4.31-2.42,1.38s-1.88,1.55-2.74,1.32-1.46-.76-1.46-1.54V32.38c0-1.28-.29-1.49-1-1.88s-1.31-.94-.49-1.78,1.38-1.8.89-1.8H29.66c-1.12,0-1.63.08-2.13.6s-1,1.32-1.37,1.23a1,1,0,0,1-.53-1.1C25.75,27.32,26.7,24,28,23a2.26,2.26,0,0,1,3,0c.53.51.6,2.41,2.34,1.88s2.32-4.44,3.47-5.5S41.22,19,43.3,16s3.16-5.33,4.49-5.33h3.59c2.13,0,2.85-.56,2.85-2.53,0-1,.65-1.32,1.26-1.53A35.32,35.32,0,0,0,51.43,4.1a2.66,2.66,0,0,0-1.11.8c-1,1.1-1.89,1.75-2.65,1.41s-.85-.68-1.74-.68a2,2,0,0,0-1.85,1.14c-.33.65-1,1.69-1.72,1.69s-.89-.29-.89-.61V6.33c0-.63-.22-1.43-1.52-1.43s-2.25-.29-1.62-1.16S39.58,1.11,41.15.55A35,35,0,0,0,6.81,14.28a21.58,21.58,0,0,0,2.81,4.27c1.74,1.29,3,3.06,5.28,3.06S19,21.86,19,24.08s-.9,2.22-.9,3.93S19,30.15,20,30.15h4.26c2.52,0,2.11,1.4,4,1.4s1.78,1.53,2.38,2.68S32,37,34,37s1.62,1.65.54,3.36-2.66,3.47-2.66,5.25-.08,3,2.24,3,.62,3,3.44,3,2.58,1.89,2.58,4.09,1.2,1.93,1.2,3.4v3.86c0,1.93,0,3,1.24,4.13a4.05,4.05,0,0,1,1,1.93c.49-.12,1-.26,1.48-.4A35,35,0,0,0,51.56,65.83Z"/><path id="Path_590" data-name="Path 590" class="cls-4" d="M51.56,65.83c1.51-1.27,4-2.76,4-3.87,0-1.43-.11-3.63,1.58-4.78s3.63-1.78,3.63-3.33-.15-3.1.7-4.67,1.31-1.2,1.31-2.49S62.46,45,61.6,45a1.43,1.43,0,0,1-1.22-.87l-.12-.24a33.42,33.42,0,0,1-19,16.32v2.72c0,1.93,0,3,1.23,4.14a4,4,0,0,1,1,1.92c.49-.12,1-.26,1.48-.4a35.15,35.15,0,0,0,5.61-2.21l.1,0,.4-.2Z"/><path id="Path_591" data-name="Path 591" class="cls-5" d="M23.41,64a2.82,2.82,0,1,0-2.81-2.82h0A2.81,2.81,0,0,0,23.41,64Z"/><path id="Path_592" data-name="Path 592" class="cls-5" d="M16.75,49.9c.77-2,.08-1.32-1.34-1.87s-3.05-2.12-3.82-.12-.24,4.07,1.18,4.62S16,51.89,16.75,49.9Z"/><path id="Path_593" data-name="Path 593" class="cls-6" d="M31.52,59.47a1.06,1.06,0,1,0-1.06-1.06h0A1.06,1.06,0,0,0,31.52,59.47Z"/><path id="Path_594" data-name="Path 594" class="cls-5" d="M62,39a1.4,1.4,0,1,0-1.4-1.4h0A1.39,1.39,0,0,0,62,39Z"/><path id="Path_595" data-name="Path 595" class="cls-5" d="M49.84,29.48a4.58,4.58,0,1,0-4.58-4.58h0A4.58,4.58,0,0,0,49.84,29.48Z"/><path id="Path_596" data-name="Path 596" class="cls-7" d="M17.14,45.93c3.31,0,6.08-2.9,6.08-5.35s-4.79-8.34-8.1-8.34-2.58,5-2.58,7.44S13.83,45.93,17.14,45.93Z"/></g></g></g></svg>