<svg xmlns="http://www.w3.org/2000/svg" viewBox="0 0 70 70"><defs><style>.cls-1{fill:#b1dbca;}.cls-2{fill:#449ca9;}.cls-3{fill:#6ec5d3;}.cls-4{fill:#ffe1f4;}.cls-5{opacity:0.2;}.cls-6{fill:#fff;}</style></defs><g id="圖層_2" data-name="圖層 2"><g id="圖層_1-2" data-name="圖層 1"><g id="Group_170" data-name="Group 170"><g id="Group_168" data-name="Group 168"><path id="Path_604" data-name="Path 604" class="cls-1" d="M.1,32.38A34.93,34.93,0,0,1,37.5.1h0c.94.07,1.86.17,2.77.31A35,35,0,1,1,0,34.67C0,33.91,0,33.15.1,32.38Z"/><path id="Path_605" data-name="Path 605" class="cls-2" d="M29.45,16.37c2.17-2.32,5.29-3.47,8.32-4.43a11,11,0,0,0,3.1-1.35,3.48,3.48,0,0,0,1.56-2.86c-.08-1.59-1.56-2.7-2.16-4.17a4.21,4.21,0,0,1,0-3.14A34.91,34.91,0,0,1,66.15,19.28a126.53,126.53,0,0,0-25,6.43,23.88,23.88,0,0,1-6.69,1.82,7.12,7.12,0,0,1-6.2-2.46C26.38,22.52,27.27,18.69,29.45,16.37Z"/><path id="Path_606" data-name="Path 606" class="cls-2" d="M3.07,46.45l33.72-8.39a11.55,11.55,0,0,1,4.74-.49A3.46,3.46,0,0,1,43.16,44a11.32,11.32,0,0,1-3.63,1.59L28.32,49c-2,.61-4.09,1.27-5.57,2.76s-2.06,4.09-.71,5.69A4.57,4.57,0,0,0,26,58.78a24.58,24.58,0,0,0,4.16-1,6.78,6.78,0,0,1,4.13-.1,3,3,0,0,1,2,3.27c-.45,1.81-2.7,2.31-4.48,2.87a13.23,13.23,0,0,0-6.53,4.8v0A35,35,0,0,1,2,46.67C2.37,46.61,2.72,46.53,3.07,46.45Z"/><path id="Path_607" data-name="Path 607" class="cls-3" d="M0,34.67a7.54,7.54,0,0,0,3.17-.2,14.09,14.09,0,0,1,4.32-.73,3.32,3.32,0,0,1,3.18,2.53c.21,1.63-1.34,3-2.92,3.45A18,18,0,0,1,3,40.08a11.4,11.4,0,0,0-2.6.3A35.22,35.22,0,0,1,0,34.67Z"/><path id="Path_608" data-name="Path 608" class="cls-3" d="M57.83,30.76l11.07-4A35.16,35.16,0,0,1,65,52.75c-5.27,2.17-15.28,6.85-16.83,4s5.72-7.55,9-8.58c6.11-1.93,6.43-7.76,5.19-9.32-1-1.26-2.86-1.24-4.46-1.18s-3.52-.13-4.28-1.53a3.11,3.11,0,0,1,.8-3.55A9,9,0,0,1,57.83,30.76Z"/><g id="Group_160" data-name="Group 160"><path id="Path_609" data-name="Path 609" class="cls-4" d="M53.69,34.78a1.59,1.59,0,1,0,1.42,1.75.31.31,0,0,1,0-.1A1.59,1.59,0,0,0,53.69,34.78Z"/></g><g id="Group_161" data-name="Group 161"><path id="Path_610" data-name="Path 610" class="cls-4" d="M13.05,52.16a1.8,1.8,0,0,0-.47,3.56l.2,0a1.8,1.8,0,1,0,.55-3.55h-.07Z"/></g><g id="Group_162" data-name="Group 162"><path id="Path_611" data-name="Path 611" class="cls-4" d="M41.31,26.4a1.06,1.06,0,1,0,.94,1.16V27.5A1.05,1.05,0,0,0,41.31,26.4Z"/></g><g id="Group_163" data-name="Group 163"><path id="Path_612" data-name="Path 612" class="cls-4" d="M55.1,25.09a.63.63,0,0,0-.69.57.63.63,0,1,0,1.26.12v0A.64.64,0,0,0,55.1,25.09Z"/></g><g id="Group_164" data-name="Group 164"><path id="Path_613" data-name="Path 613" class="cls-4" d="M33,41.42a.72.72,0,0,0-.81.63.73.73,0,1,0,1.44.17.15.15,0,0,0,0-.07A.72.72,0,0,0,33,41.42Z"/></g><g id="Group_165" data-name="Group 165"><path id="Path_614" data-name="Path 614" class="cls-4" d="M23.88,6.21a.47.47,0,0,0-.5.44.46.46,0,0,0,.43.5.47.47,0,0,0,.51-.43.48.48,0,0,0-.44-.51Z"/></g><g id="Group_166" data-name="Group 166"><path id="Path_615" data-name="Path 615" class="cls-3" d="M14,11.18c-5.8-.44-2.69,5.76,3.11,6.2s10.58-7.57,4.77-8Z"/></g><g id="Group_167" data-name="Group 167"><path id="Path_616" data-name="Path 616" class="cls-4" d="M38,7a.75.75,0,0,0-.81.67.74.74,0,0,0,.66.81.75.75,0,0,0,.82-.66v0A.74.74,0,0,0,38,7Z"/></g></g><path id="Path_617" data-name="Path 617" class="cls-2" d="M.1,32.38s11.78-1.59,16.1-1,7.38-1.37,7.63-2.59c.33-1.63-.53-3.8-4-3.74s-5.17.47-9.92.73-4.29-2.1-4.29-2.1c-.23-.91,3.36-1.29,3.85-2.3a1.1,1.1,0,0,0-.59-1.33c-2.06-.44-7.13,3.64-7.13,3.64S-.18,29.81.1,32.38Z"/><g id="Group_169" data-name="Group 169" class="cls-5"><path id="Path_618" data-name="Path 618" class="cls-6" d="M65.22,32.35c1.56-1.53.74-6.48-1.82-11s-5.93-7-7.49-5.5-.75,6.49,1.82,11.06S63.65,33.89,65.22,32.35Z"/><path id="Path_619" data-name="Path 619" class="cls-6" d="M55.41,12.91a2.06,2.06,0,0,0,1.3-2.28C56.61,9.56,55.85,8.83,55,9a2.06,2.06,0,0,0-1.31,2.28C53.83,12.38,54.58,13.09,55.41,12.91Z"/><path id="Path_620" data-name="Path 620" class="cls-4" d="M65,37a1.06,1.06,0,0,0,.67-1.18c0-.56-.45-.94-.88-.84a1.06,1.06,0,0,0-.67,1.18C64.14,36.67,64.53,37,65,37Z"/><path id="Path_621" data-name="Path 621" class="cls-4" d="M69,37.65A1.5,1.5,0,0,0,70,36c-.08-.78-.63-1.3-1.23-1.17a1.48,1.48,0,0,0-.94,1.65C67.88,37.26,68.43,37.78,69,37.65Z"/></g></g></g></g></svg>