<svg xmlns="http://www.w3.org/2000/svg" viewBox="0 0 70 70"><defs><style>.cls-1{fill:#f1a4b2;}.cls-2{fill:#ee8168;}.cls-3{fill:#ffe1f4;}.cls-4{fill:#b6545a;}.cls-5{fill:#c1b49a;opacity:0.5;isolation:isolate;}</style></defs><g id="圖層_2" data-name="圖層 2"><g id="圖層_1-2" data-name="圖層 1"><g id="Group_159" data-name="Group 159"><circle id="Ellipse_15" data-name="Ellipse 15" class="cls-1" cx="35" cy="35" r="35"/><path id="Path_597" data-name="Path 597" class="cls-2" d="M40.54,12.25c-8-.68-15.91-2.79-24-3.29a47.31,47.31,0,0,0-4.91-.05A35.06,35.06,0,0,0,2.72,21.45a47.59,47.59,0,0,0,7.14-.91c6.33-1.05,12.38-4.58,18.78-4.1,8.3.63,16.89,5.78,25.21,5.82a39,39,0,0,0,12.9-2A35,35,0,0,0,60.45,11,67.89,67.89,0,0,1,40.54,12.25Z"/><path id="Path_598" data-name="Path 598" class="cls-3" d="M46.29,31.44c-8.14-.53-9.6-6.68-17.65-8C21.61,22.38,7.86,26,.88,27.18A34.77,34.77,0,0,0,0,35c0,3,.16,4.73.34,4.73,2-1.21,2.57-5.21,8.09-6.74,7.23-2,16.41.91,19.91,2.14,5.2,1.84,15-.3,25.26,5.87,4.54,2.73,10.64,1.09,15.84.23a35.39,35.39,0,0,0,.07-12.06A72.44,72.44,0,0,1,46.29,31.44Z"/><path id="Path_599" data-name="Path 599" class="cls-4" d="M28.91,49.35a26.21,26.21,0,0,0-10.72,2.23,2.36,2.36,0,0,0-.78,3.26h0l.12.18,0,0a4.35,4.35,0,0,0,2.17,1.06c3.05.76,5.45-1.5,8.62-1.68.81,0,9.83-.13,10.1-1.22C38.82,51.7,30,49.37,28.91,49.35Z"/><path id="Path_600" data-name="Path 600" class="cls-4" d="M22.52,38.81c-7.18.49-14,4.71-20.55,7.77a36.36,36.36,0,0,0,2,4.67L16.85,47C22.19,45.2,27.6,44.31,33,45.8c4.21,1.17,8.42,6.4,12.17,8.63C50.68,57.68,56.62,56.16,63,56a34.53,34.53,0,0,0,4-6.82c-7.48-1.88-12.49-4.5-20-6.38C39.78,41,30,38.29,22.52,38.81Z"/><path id="Path_601" data-name="Path 601" class="cls-3" d="M41.51,57.79c-4.2.32-7.78,3.68-11.95,4.29-5,.73-10.2-2.18-15.19-3.07a24.74,24.74,0,0,0-5.23-.43,35,35,0,0,0,47,4.31C51.6,60,46.67,57.4,41.51,57.79Z"/><path id="Path_602" data-name="Path 602" class="cls-5" d="M52.55,4.75A33.83,33.83,0,0,1,6.74,54.54c-.69-.63-1.35-1.3-2-2a35,35,0,1,0,47.8-47.8Z"/><path id="Path_603" data-name="Path 603" class="cls-2" d="M32.33,3.82a.41.41,0,0,1,.11-.24.8.8,0,0,1,.24-.13,17.57,17.57,0,0,1,4.2-.52c1-.06,2-.09,3-.11a11.88,11.88,0,0,1,2,.07l.2,0c1.69.62,7,3.05,5,5.37-2.23,2.62-8.51,1-11.08-.33A8.21,8.21,0,0,1,33.61,6.2,5.88,5.88,0,0,1,32.77,5a3.13,3.13,0,0,1-.44-1A.28.28,0,0,1,32.33,3.82Z"/></g></g></g></svg>