<svg xmlns="http://www.w3.org/2000/svg" viewBox="0 0 188.46 284.12"><defs><style>.cls-1{fill:#b1dce0;}.cls-2{fill:#3d88c2;}.cls-3{fill:#97bce1;}.cls-4,.cls-8{fill:#fff;}.cls-5{fill:#221e1f;}.cls-6{fill:#bdedef;}.cls-7,.cls-8{isolation:isolate;}.cls-8{font-size:25px;font-family:STXihei, STHeiti;letter-spacing:0.2em;}</style></defs><g id="圖層_2" data-name="圖層 2"><g id="圖層_1-2" data-name="圖層 1"><g id="Group_53" data-name="Group 53"><g id="Group_4407" data-name="Group 4407"><g id="Group_4406" data-name="Group 4406"><path id="Path_322" data-name="Path 322" class="cls-1" d="M132.33,268.11c-.09-3.5,2.78-53.07,1.7-70.05-1.32-21-13.64-52.55-9.72-63.66,1.71-4.84,3.71-6,6.94-6.12a18.29,18.29,0,0,0,6.27-.86c1.2-.65,1.92-3.68-1.64-7.47s-6.27-5.41-9-4.2c-2.46,1.09-2.17,5.12-2.78,7.71-.3,1.28-2.62,2.66-6,3.6a18.46,18.46,0,0,1-11-1,47.75,47.75,0,0,0-19.53-3.36,42.2,42.2,0,0,0-15.9,2.87c-1,.37-8.11,3.91-12.68,2.77a8.5,8.5,0,0,1-5.75-5.12c-.7-2.58-.54-6.62-3-7.64-2.75-1.13-5.49.69-8.83,4.45s-2.61,6.91-1.39,7.53a18.14,18.14,0,0,0,6.3.67c3.23,0,3.92,3.33,6.74,7.63a12.34,12.34,0,0,1,1.72,7.69c-5,11.6-7.51,28.43-8.59,51.49C45.26,214,49,264.44,49,268.67s-6.73,4.53-6.43,7.35c.2,1.89,2.8,1.28,2.8,1.28s-2.75,2.13-1.34,3.3,5.49-.24,5.49-.24a2,2,0,0,0-.47,2.79,2.1,2.1,0,0,0,.77.65c1.9,1.33,9.12-1.73,11.88-4.54A39.37,39.37,0,0,0,68,269.55c2.6-4.49,9.46-7.28,19-8,15.77-1.23,23.69,3.35,26.38,7.79a44.5,44.5,0,0,0,7.43,9.77c2.83,2.76,9.14,5.53,11,4.16a2,2,0,0,0,.9-2.68,2.07,2.07,0,0,0-.66-.75s4.1,1.35,5.5.15-1.4-3.27-1.4-3.27,2.61.56,2.77-1.34C139.15,272.51,132.44,272.33,132.33,268.11Z"/><g id="Group_45" data-name="Group 45"><path id="Path_323" data-name="Path 323" class="cls-2" d="M87.59,162.65a39.28,39.28,0,0,1-17.4-4,.68.68,0,0,1-.3-.9l0-.06a.79.79,0,0,1,1-.24h0a38.29,38.29,0,0,0,17.26,3.76c14.33-.24,20.57-4.71,20.63-4.76a.81.81,0,0,1,1.07.11.68.68,0,0,1-.06.95l-.06,0c-.26.2-6.64,4.82-21.55,5.06Z"/></g><path id="Path_324" data-name="Path 324" class="cls-3" d="M54.81,175.34c5.26,3.17,16.59,10.3,24.9-2.86,3.31-5.25,5-10.95,6-10.81,1.29.18.09,3.43.09,3.43a2.71,2.71,0,0,1,1.8-.08c.72.35.51,2,.51,2a2,2,0,0,1,1.64-.17c.83.44.31,1.75-.4,3.51s-6.57,16.67-15.75,20c-11.78,4.21-21.26,1.44-23.55.06-5.06-3.1-4.16-11.3-3.17-14.58C47.75,172.77,50.94,173,54.81,175.34Z"/><path id="Path_325" data-name="Path 325" class="cls-3" d="M129.53,172.42s4.4,16.13,4.5,25.63c.13,11.71-.66,16.22-4.34,22.89s-7,9.26-8.73,9.29c-1.14,0,1.41-2.79,1.41-2.79s-3.18,2.56-3.94,1.86,2.3-3.85,2.3-3.85-3.55,3.26-4.18,2.8c-1.08-.76,3.54-5.95,3.54-5.95s-4-.07-3.65-1.36.58-.38,3.24-2.13,5.29-7.62,5.48-13.85c.24-8-3-10.13-3.33-18.44S129.53,172.42,129.53,172.42Z"/><path id="Path_326" data-name="Path 326" class="cls-2" d="M67.7,135.75c-4.67,1.87-6.15,5.78-3,7.84,1.88,1.22,9.88-.87,10.67-3.69C76.33,136.47,71.49,134.23,67.7,135.75Z"/><g id="Group_47" data-name="Group 47"><g id="Group_46" data-name="Group 46"><path id="Path_327" data-name="Path 327" class="cls-4" d="M68,136.5c-3.92,1.58-5.16,4.86-2.51,6.58,1.58,1,8.3-.72,9-3.1C75.21,137.11,71.15,135.22,68,136.5Z"/><path id="Path_328" data-name="Path 328" class="cls-5" d="M70.76,138a2.16,2.16,0,0,1-1.47,2.69l-.11,0a2.41,2.41,0,0,1-2.94-1.47,2.16,2.16,0,0,1,1.47-2.69h0l.11,0A2.41,2.41,0,0,1,70.76,138Z"/></g><path id="Path_329" data-name="Path 329" class="cls-4" d="M68.5,137.83a.91.91,0,0,1-.6,1.13h-.06a1,1,0,0,1-1.23-.61.9.9,0,0,1,.61-1.12h0l.06,0A1,1,0,0,1,68.5,137.83Z"/></g><path id="Path_330" data-name="Path 330" class="cls-2" d="M109.72,135.63c-5-1-8.64,1.45-7.34,4.81.77,2,8.62,4.57,11,2.68C116.31,140.83,113.76,136.41,109.72,135.63Z"/><g id="Group_49" data-name="Group 49"><g id="Group_48" data-name="Group 48"><path id="Path_331" data-name="Path 331" class="cls-4" d="M109.56,136.47c-4.15-.95-7.3,1-6.32,3.82.59,1.7,7.09,4.07,9.16,2.56C114.91,141,112.93,137.24,109.56,136.47Z"/><path id="Path_332" data-name="Path 332" class="cls-5" d="M110.79,139.23a2.41,2.41,0,0,1-3.05,1.27,2.13,2.13,0,0,1-1.42-2.67.58.58,0,0,1,.05-.14,2.41,2.41,0,0,1,3-1.27,2.13,2.13,0,0,1,1.43,2.66h0A.88.88,0,0,0,110.79,139.23Z"/></g><path id="Path_333" data-name="Path 333" class="cls-4" d="M109.1,137.83a1,1,0,0,1-1.27.53.9.9,0,0,1-.59-1.12h0a.14.14,0,0,1,0-.06,1,1,0,0,1,1.27-.53.89.89,0,0,1,.59,1.11h0A.14.14,0,0,1,109.1,137.83Z"/></g><g id="Group_50" data-name="Group 50"><path id="Path_334" data-name="Path 334" class="cls-2" d="M111.72,157.2h0a.36.36,0,0,1-.32-.38h0v0h0s0-.58-.93-1.32a1.44,1.44,0,0,0-1-.4.37.37,0,0,1-.48-.22.34.34,0,0,1,.22-.44h0a2,2,0,0,1,1.75.53c1.3,1,1.2,1.87,1.2,2A.37.37,0,0,1,111.72,157.2Z"/></g><g id="Group_51" data-name="Group 51"><path id="Path_335" data-name="Path 335" class="cls-2" d="M68.43,158.7a.39.39,0,0,1-.38-.28c0-.09-.2-.94,1-2a2,2,0,0,1,1.68-.69.35.35,0,0,1,.29.41h0a.38.38,0,0,1-.45.26,1.47,1.47,0,0,0-1,.5c-.88.83-.78,1.4-.78,1.41a.34.34,0,0,1-.26.42h-.1Z"/></g><path id="Path_336" data-name="Path 336" class="cls-3" d="M79.64,128.52c-2.08.88-2.66,2.57-1.27,4.1a3.57,3.57,0,0,0,4.3,1.17,2.9,2.9,0,0,0,1.82-3.69h0a3.42,3.42,0,0,0-.17-.4A3.79,3.79,0,0,0,79.64,128.52Z"/><path id="Path_337" data-name="Path 337" class="cls-3" d="M90.78,124.77c-1.77-.1-3.17.59-3,1.76s.51,3.63,2.15,3.63,4.06-.7,4.31-2.11S92.93,124.89,90.78,124.77Z"/><path id="Path_338" data-name="Path 338" class="cls-3" d="M95.09,131.56a2.41,2.41,0,0,0-3.25,1,3.25,3.25,0,0,0-.18.43c-.37,1.52-.75,2.46.64,2.92a3.71,3.71,0,0,0,4.18-1.17C97.24,133.44,96.86,132.5,95.09,131.56Z"/><path id="Path_339" data-name="Path 339" class="cls-3" d="M99.26,125.48c-1.15,1-1.52,3.27,0,3.62s2.92.36,3.68-.93,1.14-2.58-.51-2.93S100.4,124.54,99.26,125.48Z"/><path id="Path_340" data-name="Path 340" class="cls-3" d="M87.23,137.18c-1.37.63-2.15,1.29-1.52,2.34S87,141.75,88,141.16s2.91-1.52,2.15-2.57S88,136.83,87.23,137.18Z"/><path id="Path_341" data-name="Path 341" class="cls-3" d="M92.68,141.75c-1.36-.28-2,.11-2,.82s0,1.4.89,1.75a1.9,1.9,0,0,0,2.15-1C94,142.68,93.82,142,92.68,141.75Z"/><path id="Path_342" data-name="Path 342" class="cls-3" d="M80.14,137.07c-1.3.2-1.77.58-1.52,1.4a1.55,1.55,0,0,0,1.77,1.17c.89-.12,1.78-.94,1.52-1.64A1.55,1.55,0,0,0,80.14,137.07Z"/><path id="Path_343" data-name="Path 343" class="cls-3" d="M86,144c-.62.12-.89.47-.76.82s.76.82,1.14.7,1.26-.35,1-1.05S86.6,143.85,86,144Z"/><path id="Path_344" data-name="Path 344" class="cls-3" d="M90.15,146c-1-.18-1.78.59-1.65,1.17s1,1.4,1.39,1.17,1.52-.47,1.65-1.29S90.78,146.08,90.15,146Z"/><path id="Path_345" data-name="Path 345" class="cls-3" d="M97.62,137.42a1.81,1.81,0,0,0-2.26,1.22h0l0,.06a1.71,1.71,0,0,0,1.14,1.88c.76.11,1.77.11,2.15-.94S98.89,137.65,97.62,137.42Z"/><path id="Path_346" data-name="Path 346" class="cls-3" d="M76.16,124c-.35,1.21-.42,2,1,2.39a5.22,5.22,0,0,0,5.3-1.28,1.7,1.7,0,0,0,.11-2.19A33.56,33.56,0,0,0,76.16,124Z"/><path id="Path_347" data-name="Path 347" class="cls-3" d="M90.78,190.74c-6.67.14-17.81,2.24-21.09,21.94-3.42,20.54.24,33.54,16.91,34.76,19.19,1.4,29.25-5.61,25.65-25.46C108.83,203.21,107.88,190.39,90.78,190.74Z"/><path id="Path_348" data-name="Path 348" class="cls-3" d="M136.89,125.52c-.86,1.18-4,.2-6.12-1.58C128.47,122,126,118,127.49,117s4.27.32,6.21,2.38S138.19,123.7,136.89,125.52Z"/><path id="Path_349" data-name="Path 349" class="cls-2" d="M134.54,124.89c1.31-1.81-1.25-4.08-3.19-6.13a10.53,10.53,0,0,0-2.62-2,7.64,7.64,0,0,1,5.11,2.71c1.93,2.06,4.5,4.32,3.19,6.13-.58.81-2.23.61-3.89-.16A1.61,1.61,0,0,0,134.54,124.89Z"/><g id="Group_52" data-name="Group 52"><path id="Path_350" data-name="Path 350" class="cls-3" d="M40.7,125.94c.9,1.16,4,.09,6.06-1.75,2.24-2,4.62-6.07,3.06-7s-4.26.44-6.13,2.55S39.34,124.17,40.7,125.94Z"/><path id="Path_351" data-name="Path 351" class="cls-2" d="M43,125.25c-1.37-1.78,1.11-4.1,3-6.22a10.32,10.32,0,0,1,2.55-2.1,7.57,7.57,0,0,0-5,2.86c-1.87,2.11-4.34,4.44-3,6.21.61.8,2.24.55,3.88-.27A1.61,1.61,0,0,1,43,125.25Z"/></g><path id="Path_352" data-name="Path 352" class="cls-2" d="M64.29,134.79a.55.55,0,0,1-.36-.57c0-.13.31-1.31,2.69-2a3.46,3.46,0,0,1,2.85.17.47.47,0,0,1,.18.63.18.18,0,0,1-.05.07.64.64,0,0,1-.8.07,2.28,2.28,0,0,0-1.72,0c-1.78.5-2,1.28-2,1.29a.52.52,0,0,1-.65.36h0Z"/><path id="Path_353" data-name="Path 353" class="cls-2" d="M108.68,133a.53.53,0,0,1,.09-.64c.1-.08,1-.79,3.25.14a3.28,3.28,0,0,1,2,1.83.46.46,0,0,1-.26.59h0l-.07,0a.6.6,0,0,1-.63-.44s-.24-.57-1.3-1c-1.63-.69-2.28-.24-2.29-.24a.51.51,0,0,1-.71-.12h0Z"/></g></g></g><g id="Group_5939" data-name="Group 5939"><g id="Group_5807" data-name="Group 5807"><path id="Path_5537" data-name="Path 5537" class="cls-6" d="M185.87,73.46c-1,5.66-5.08,9.89-9.9,9.89H52.11l2.21,17.07L52.73,110.7,30.11,83.35H10.17C4.56,83.35,0,77.62,0,70.58V15.67C0,9.62,3.37,4.56,7.88,3.25A7.87,7.87,0,0,1,14,0h165.8c4.77,0,8.63,4.85,8.63,10.83V65.74A12.25,12.25,0,0,1,185.87,73.46Z"/><path id="Path_5538" data-name="Path 5538" class="cls-3" d="M10.17,4.84H176c4.77,0,8.63,4.85,8.63,10.83V70.58c0,6-3.86,10.83-8.63,10.83H47.37l3.09,23.86L30.74,81.41H10.18c-4.77,0-8.63-4.85-8.63-10.83V15.67C1.55,9.69,5.41,4.84,10.17,4.84Z"/></g><g id="點我進入_星座探索" data-name="點我進入 星座探索" class="cls-7"><text class="cls-8" transform="translate(35.69 37.9)">點我進入</text><text class="cls-8" transform="translate(35.69 65.71)">星座探索</text></g></g></g></g></svg>