<svg xmlns="http://www.w3.org/2000/svg" width="74.207" height="74.068" viewBox="0 0 74.207 74.068">
  <g id="Group_170" data-name="Group 170" transform="translate(-948.539 -2084.443)">
    <g id="Group_168" data-name="Group 168">
      <path id="Path_604" data-name="Path 604" d="M948.644,2118.713a37.009,37.009,0,0,1,39.647-34.167l.036,0q1.486.111,2.938.336a37.045,37.045,0,1,1-42.719,36.262Q948.552,2119.937,948.644,2118.713Z" fill="#b1dbca"/>
      <path id="Path_605" data-name="Path 605" d="M979.754,2101.767c2.3-2.456,5.611-3.667,8.821-4.689a11.337,11.337,0,0,0,3.288-1.43,3.674,3.674,0,0,0,1.661-3.026c-.094-1.675-1.664-2.86-2.3-4.413a4.476,4.476,0,0,1,.04-3.325,37.021,37.021,0,0,1,27.4,19.97,133.794,133.794,0,0,0-26.471,6.8,25.146,25.146,0,0,1-7.088,1.928,7.581,7.581,0,0,1-6.581-2.6C976.507,2108.284,977.449,2104.223,979.754,2101.767Z" fill="#449ca9"/>
      <path id="Path_606" data-name="Path 606" d="M951.789,2133.608l35.752-8.873a12.115,12.115,0,0,1,5.029-.518,3.663,3.663,0,0,1,1.726,6.825,12.083,12.083,0,0,1-3.856,1.683q-5.937,1.806-11.874,3.609c-2.124.646-4.343,1.346-5.907,2.922s-2.192,4.323-.757,6.018a4.829,4.829,0,0,0,4.156,1.387,25.821,25.821,0,0,0,4.415-1.1,7.177,7.177,0,0,1,4.375-.1,3.172,3.172,0,0,1,2.147,3.454c-.471,1.916-2.859,2.445-4.74,3.041a13.952,13.952,0,0,0-6.923,5.086l-.013.018a37.084,37.084,0,0,1-24.659-23.214C951.048,2133.779,951.427,2133.7,951.789,2133.608Z" fill="#449ca9"/>
      <path id="Path_607" data-name="Path 607" d="M948.541,2121.143a8.067,8.067,0,0,0,3.353-.216,15.019,15.019,0,0,1,4.58-.768c1.55.119,3.178,1.131,3.378,2.673.223,1.728-1.421,3.177-3.1,3.658a19.326,19.326,0,0,1-5.021.382,12.38,12.38,0,0,0-2.76.314A36.813,36.813,0,0,1,948.541,2121.143Z" fill="#6ec5d3"/>
      <path id="Path_608" data-name="Path 608" d="M1009.845,2117q5.867-2.091,11.733-4.177a37.181,37.181,0,0,1-4.113,27.462c-5.584,2.292-16.193,7.245-17.842,4.2-1.727-3.188,6.07-7.992,9.527-9.083,6.473-2.044,6.816-8.212,5.5-9.871-1.058-1.328-3.037-1.31-4.733-1.246s-3.726-.132-4.539-1.623a3.284,3.284,0,0,1,.85-3.75A9.6,9.6,0,0,1,1009.845,2117Z" fill="#6ec5d3"/>
      <g id="Group_160" data-name="Group 160">
        <path id="Path_609" data-name="Path 609" d="M1005.46,2121.254a1.686,1.686,0,1,0,1.507,1.75A1.686,1.686,0,0,0,1005.46,2121.254Z" fill="#ffe1f4"/>
      </g>
      <g id="Group_161" data-name="Group 161">
        <path id="Path_610" data-name="Path 610" d="M962.371,2139.66a1.9,1.9,0,0,0-.5,3.767,1.837,1.837,0,0,0,.22.016,1.9,1.9,0,1,0,.5-3.766A2.086,2.086,0,0,0,962.371,2139.66Z" fill="#ffe1f4"/>
      </g>
      <g id="Group_162" data-name="Group 162">
        <path id="Path_611" data-name="Path 611" d="M992.329,2112.389a1.115,1.115,0,1,0,1,1.163A1.115,1.115,0,0,0,992.329,2112.389Z" fill="#ffe1f4"/>
      </g>
      <g id="Group_163" data-name="Group 163">
        <path id="Path_612" data-name="Path 612" d="M1006.946,2111a.672.672,0,1,0,.608.706A.672.672,0,0,0,1006.946,2111Z" fill="#ffe1f4"/>
      </g>
      <g id="Group_164" data-name="Group 164">
        <path id="Path_613" data-name="Path 613" d="M983.524,2128.282a.768.768,0,1,0,.674.783A.769.769,0,0,0,983.524,2128.282Z" fill="#ffe1f4"/>
      </g>
      <g id="Group_165" data-name="Group 165">
        <path id="Path_614" data-name="Path 614" d="M973.855,2091.017a.5.5,0,1,0,.462.538A.5.5,0,0,0,973.855,2091.017Z" fill="#ffe1f4"/>
      </g>
      <g id="Group_166" data-name="Group 166">
        <path id="Path_615" data-name="Path 615" d="M963.412,2096.273c-6.149-.46-2.857,6.106,3.3,6.567s11.217-8.01,5.057-8.47Z" fill="#6ec5d3"/>
      </g>
      <g id="Group_167" data-name="Group 167">
        <path id="Path_616" data-name="Path 616" d="M988.806,2091.854a.788.788,0,1,0,.706.82A.789.789,0,0,0,988.806,2091.854Z" fill="#ffe1f4"/>
      </g>
    </g>
    <path id="Path_617" data-name="Path 617" d="M948.644,2118.713s12.486-1.673,17.07-1.055,7.823-1.447,8.087-2.735c.354-1.731-.561-4.028-4.219-3.969s-5.48.5-10.521.774-4.539-2.216-4.539-2.216c-.244-.966,3.555-1.373,4.074-2.441a1.16,1.16,0,0,0-.626-1.409c-2.18-.459-7.557,3.859-7.557,3.859S948.348,2116,948.644,2118.713Z" fill="#449ca9"/>
    <g id="Group_169" data-name="Group 169" opacity="0.2">
      <path id="Path_618" data-name="Path 618" d="M1017.675,2118.69c1.658-1.625.793-6.865-1.931-11.7s-6.276-7.445-7.934-5.82-.792,6.865,1.932,11.705S1016.018,2120.316,1017.675,2118.69Z" fill="#fff"/>
      <path id="Path_619" data-name="Path 619" d="M1007.282,2098.108a2.177,2.177,0,0,0,1.379-2.414c-.115-1.136-.92-1.9-1.8-1.7a2.177,2.177,0,0,0-1.379,2.414C1005.6,2097.542,1006.4,2098.3,1007.282,2098.108Z" fill="#fff"/>
      <path id="Path_620" data-name="Path 620" d="M1017.4,2123.554a1.13,1.13,0,0,0,.716-1.253c-.06-.59-.478-.985-.933-.883a1.13,1.13,0,0,0-.715,1.253C1016.529,2123.254,1016.946,2123.654,1017.4,2123.554Z" fill="#ffe1f4"/>
      <path id="Path_621" data-name="Path 621" d="M1021.722,2124.294a1.576,1.576,0,0,0,1-1.749c-.083-.823-.666-1.375-1.3-1.233a1.578,1.578,0,0,0-1,1.749C1020.5,2123.884,1021.082,2124.436,1021.722,2124.294Z" fill="#ffe1f4"/>
    </g>
  </g>
</svg>
