<svg xmlns="http://www.w3.org/2000/svg" width="71.847" height="71.852" viewBox="0 0 71.847 71.852">
  <g id="Group_158" data-name="Group 158" transform="translate(-1271.772 -1921.688)">
    <path id="Path_587" data-name="Path 587" d="M1297.468,1923.184a35.914,35.914,0,1,0,44.655,24.2,35.914,35.914,0,0,0-44.655-24.2Z" fill="#bdedef" fill-rule="evenodd"/>
    <path id="Path_588" data-name="Path 588" d="M1337.416,1951.031a34.19,34.19,0,0,1-64.369,16.064,35.919,35.919,0,1,0,56.261-38.17A34.049,34.049,0,0,1,1337.416,1951.031Z" fill="#78a0c1" fill-rule="evenodd"/>
    <path id="Path_589" data-name="Path 589" d="M1324.692,1989.258c1.548-1.3,4.159-2.838,4.159-3.972,0-1.467-.119-3.726,1.624-4.915s3.725-1.822,3.725-3.408-.159-3.19.713-4.8,1.348-1.229,1.348-2.556-.377-1.764-1.268-1.784a1.479,1.479,0,0,1-1.249-.891c-1.03-2.339-2.536-.873-4.28-2.339s-3.029-4.537-5.391-4.537-2.4.135-3.192-.445a8,8,0,0,1-1.588-1.877c-.56-.7-.911-.717-2.385-.717s-1.572-1.3-2.452-1.3h-2.279c-1.251,0-1.436.31-2.477,1.412s-1.929,1.587-2.811,1.35-1.5-.78-1.5-1.572v-1.982c0-1.312-.3-1.535-1.028-1.931s-1.35-.967-.508-1.833,1.424-1.846.917-1.846h-2.551c-1.152,0-1.672.088-2.192.62s-1.041,1.349-1.4,1.263a1.055,1.055,0,0,1-.544-1.127c.123-.347,1.089-3.74,2.377-4.755a2.317,2.317,0,0,1,3.1,0c.544.52.619,2.476,2.4,1.931s2.378-4.557,3.567-5.647,4.558-.446,6.688-3.468,3.245-5.474,4.607-5.474h3.69c2.18,0,2.923-.569,2.923-2.6,0-1.067.663-1.348,1.292-1.565a36.244,36.244,0,0,0-4.164-2.593,2.662,2.662,0,0,0-1.14.814c-.979,1.127-1.945,1.8-2.725,1.448s-.867-.7-1.784-.7a2.07,2.07,0,0,0-1.895,1.177c-.346.668-1.065,1.733-1.77,1.733s-.917-.3-.917-.632v-1.56c0-.644-.223-1.461-1.56-1.461s-2.3-.3-1.659-1.19c.546-.755,1.288-2.706,2.891-3.28a35.937,35.937,0,0,0-35.244,14.091,21.72,21.72,0,0,0,2.891,4.387c1.782,1.321,3.07,3.137,5.415,3.137s4.2.265,4.2,2.543-.924,2.279-.924,4.03.891,2.2,1.981,2.2h4.375c2.577,0,2.164,1.437,4.079,1.437s1.833,1.569,2.444,2.742,1.382,2.794,3.4,2.794,1.665,1.7.556,3.448-2.736,3.566-2.736,5.389-.078,3.052,2.3,3.052.634,3.091,3.527,3.091,2.655,1.942,2.655,4.2,1.229,1.981,1.229,3.487v3.963c0,1.981.04,3.092,1.268,4.241a4.126,4.126,0,0,1,.989,1.975c.508-.127,1.015-.263,1.52-.414A35.968,35.968,0,0,0,1324.692,1989.258Z" fill="#97bce1" fill-rule="evenodd"/>
    <path id="Path_590" data-name="Path 590" d="M1324.695,1989.254c1.548-1.3,4.156-2.835,4.156-3.968,0-1.467-.119-3.726,1.624-4.915s3.725-1.822,3.725-3.408-.159-3.19.713-4.8,1.348-1.229,1.348-2.556-.377-1.764-1.268-1.784a1.479,1.479,0,0,1-1.249-.891c-.038-.088-.078-.17-.118-.248a34.292,34.292,0,0,1-19.478,16.747v2.8c0,1.981.04,3.092,1.268,4.241a4.107,4.107,0,0,1,.989,1.975c.508-.127,1.015-.263,1.52-.414a36.029,36.029,0,0,0,5.765-2.264l.1-.05c.137-.068.271-.137.406-.206C1324.364,1989.431,1324.526,1989.344,1324.695,1989.254Z" fill="#5888a8" fill-rule="evenodd"/>
    <path id="Path_591" data-name="Path 591" d="M1295.805,1987.345a2.892,2.892,0,1,0-2.892-2.892A2.892,2.892,0,0,0,1295.805,1987.345Z" fill="#f9e9ce" fill-rule="evenodd"/>
    <path id="Path_592" data-name="Path 592" d="M1288.964,1972.9c.79-2.051.087-1.351-1.371-1.913s-3.136-2.177-3.925-.127-.245,4.183,1.214,4.744S1288.174,1974.948,1288.964,1972.9Z" fill="#f9e9ce" fill-rule="evenodd"/>
    <path id="Path_593" data-name="Path 593" d="M1304.119,1982.723a1.087,1.087,0,1,0-1.087-1.087h0A1.089,1.089,0,0,0,1304.119,1982.723Z" fill="#54b9c3" fill-rule="evenodd"/>
    <path id="Path_594" data-name="Path 594" d="M1335.354,1961.75a1.439,1.439,0,1,0-1.439-1.439A1.439,1.439,0,0,0,1335.354,1961.75Z" fill="#f9e9ce" fill-rule="evenodd"/>
    <path id="Path_595" data-name="Path 595" d="M1322.926,1951.948a4.7,4.7,0,1,0-4.7-4.7A4.7,4.7,0,0,0,1322.926,1951.948Z" fill="#f9e9ce" fill-rule="evenodd"/>
    <path id="Path_596" data-name="Path 596" d="M1289.367,1968.826c3.4,0,6.235-2.975,6.235-5.489s-4.914-8.562-8.313-8.562-2.645,5.124-2.645,7.638S1285.967,1968.826,1289.367,1968.826Z" fill="#f9e9bd" fill-rule="evenodd"/>
  </g>
</svg>
