<svg xmlns="http://www.w3.org/2000/svg" width="223.015" height="72.016" viewBox="0 0 223.015 72.016">
  <g id="Group_5855" data-name="Group 5855" transform="translate(-851.493 -2386.321)">
    <g id="處女" transform="translate(0 -0.179)">
      <g id="Group_4408" data-name="Group 4408">
        <text id="處女座" transform="translate(938.508 2436.5)" fill="#fff" font-size="40" font-family="STXihei, STHeiti" letter-spacing="0.2em" style="isolation: isolate"><tspan x="0" y="0">處女座</tspan></text>
      </g>
    </g>
    <g id="Group_159" data-name="Group 159" transform="translate(-7.111 8.014)">
      <circle id="Ellipse_15" data-name="Ellipse 15" cx="36.004" cy="36.004" r="36.004" transform="translate(858.604 2378.308)" fill="#f1a4b2"/>
      <path id="Path_597" data-name="Path 597" d="M900.316,2390.914c-8.27-.7-16.373-2.873-24.657-3.384a49.436,49.436,0,0,0-5.047-.058,36.1,36.1,0,0,0-9.21,12.9,48.166,48.166,0,0,0,7.344-.936c6.513-1.079,12.743-4.71,19.325-4.213,8.533.644,17.373,5.949,25.93,5.987a40.044,40.044,0,0,0,13.276-2.05,36.059,36.059,0,0,0-6.478-9.554A70,70,0,0,1,900.316,2390.914Z" fill="#ee8168"/>
      <path id="Path_598" data-name="Path 598" d="M906.223,2410.651c-8.369-.546-9.868-6.869-18.152-8.178-7.23-1.143-21.381,2.585-28.566,3.8a36.2,36.2,0,0,0-.9,8.034c0,3.09.16,4.863.353,4.866,2.081-1.246,2.643-5.36,8.315-6.936,7.444-2.067,16.888.937,20.483,2.206,5.357,1.891,15.441-.315,25.988,6.033,4.67,2.81,10.946,1.121,16.3.235a36.285,36.285,0,0,0,.067-12.4A74.424,74.424,0,0,1,906.223,2410.651Z" fill="#ffe1f4"/>
      <path id="Path_599" data-name="Path 599" d="M888.343,2429.083a26.915,26.915,0,0,0-11.023,2.287,2.443,2.443,0,0,0-.807,3.36c.04.064.082.126.127.186l.019.02a4.443,4.443,0,0,0,2.231,1.083c3.138.785,5.613-1.534,8.866-1.719.836-.047,10.121-.141,10.4-1.26C898.54,2431.493,889.495,2429.1,888.343,2429.083Z" fill="#b6545a"/>
      <path id="Path_600" data-name="Path 600" d="M881.769,2418.231c-7.38.51-14.4,4.849-21.143,8a35.838,35.838,0,0,0,2.088,4.8l13.23-4.4c5.486-1.825,11.052-2.737,16.624-1.2,4.326,1.2,8.659,6.581,12.52,8.87,5.653,3.351,11.768,1.789,18.334,1.6a35.991,35.991,0,0,0,4.116-7.015c-7.7-1.935-12.857-4.628-20.559-6.563C899.53,2420.454,889.43,2417.7,881.769,2418.231Z" fill="#b6545a"/>
      <path id="Path_601" data-name="Path 601" d="M901.306,2437.766c-4.314.327-8,3.787-12.289,4.412-5.153.751-10.5-2.241-15.629-3.165a25.924,25.924,0,0,0-5.377-.436,36,36,0,0,0,48.333,4.437C911.691,2440.031,906.622,2437.364,901.306,2437.766Z" fill="#ffe1f4"/>
      <path id="Path_602" data-name="Path 602" d="M912.666,2383.2a34.8,34.8,0,0,1-47.124,51.22q-1.066-.981-2.048-2.048a35.983,35.983,0,1,0,49.172-49.172Z" fill="#c1b49a" opacity="0.5" style="isolation: isolate"/>
      <path id="Path_603" data-name="Path 603" d="M891.863,2382.241a.41.41,0,0,1,.118-.252.64.64,0,0,1,.249-.128,17.505,17.505,0,0,1,4.318-.537q1.531-.093,3.068-.11a11.907,11.907,0,0,1,2.035.07,1.149,1.149,0,0,1,.207.046c1.739.644,7.147,3.138,5.115,5.525-2.3,2.7-8.761,1.085-11.408-.332a8.578,8.578,0,0,1-2.378-1.833,6.277,6.277,0,0,1-.871-1.242,3.2,3.2,0,0,1-.454-1.076A.636.636,0,0,1,891.863,2382.241Z" fill="#ee8168"/>
    </g>
  </g>
</svg>
