<svg xmlns="http://www.w3.org/2000/svg" viewBox="0 0 188.51 285.45"><defs><style>.cls-1{fill:#bdedef;}.cls-2{fill:#6ec5d3;}.cls-3{isolation:isolate;font-size:23.18px;font-family:STXihei, STHeiti;letter-spacing:0.17em;}.cls-3,.cls-8{fill:#fff;}.cls-4{fill:#b1dbca;}.cls-5{fill:#449ca9;}.cls-6{fill:#93d1d8;}.cls-7{fill:#1d110b;}.cls-9{fill:#e18fa8;}</style></defs><g id="圖層_2" data-name="圖層 2"><g id="圖層_1-2" data-name="圖層 1"><g id="Group_5815" data-name="Group 5815"><g id="Group_5807" data-name="Group 5807"><path id="Path_5537" data-name="Path 5537" class="cls-1" d="M185.9,73.4c-1,5.7-5.1,9.9-9.9,9.9H52.2l2.2,17.1-1.6,10.3L30.2,83.3h-20C4.6,83.3,0,77.6,0,70.5V15.6C0,9.6,3.4,4.5,7.9,3.2A7.54,7.54,0,0,1,14.1,0H179.9c4.8,0,8.6,4.8,8.6,10.8V65.7A12.35,12.35,0,0,1,185.9,73.4Z"/><path id="Path_5538" data-name="Path 5538" class="cls-2" d="M10.2,4.7H176c4.8,0,8.6,4.8,8.6,10.8V70.4c0,6-3.9,10.8-8.6,10.8H47.4l3.1,23.9L30.8,81.2H10.2c-4.8,0-8.6-4.8-8.6-10.8V15.5C1.6,9.6,5.5,4.7,10.2,4.7Z"/></g><text class="cls-3" transform="translate(40.75 37.79)">點我進入</text><text class="cls-3" transform="translate(40.75 65.6)">星座探索</text></g><g id="Group_6253" data-name="Group 6253"><path id="Path_8306" data-name="Path 8306" class="cls-4" d="M137.55,238.32a38.41,38.41,0,0,0,1.2-17.8A52.33,52.33,0,1,0,44.45,189,51.68,51.68,0,0,0,57,222.82a29.54,29.54,0,0,0-.2,4.2,37.53,37.53,0,0,0,1.1,8.9c-8.1,2.6-20.7,9.1-22.5,19-.2,1.1,3.4,0,3.4,1.3s-.2,2.3,1.1,3c.9.5,3.5-.7,3.5-.7s.6,3,1.3,3.2c5.5,1.5,21.4-10,21.4-10,.3.3.5.6.8.9,0,.6-.1,1.3-.1,1.9,0,9.2,3.39,17.6,10,23.1,1.1.9,2.8,7.2,4.8,7.5.9.1,1.7-2.1,2.5-1.7,1,.5,1.2,1.5,2.4,1.4,2.19-.2,3.39-6.1,5.1-11.7,4-13.5,10.1-4.1,10.2-2.6.1.9,2.39,11.9,5.39,14.6.9.7,1.2-.8,2.2-1.3.8-.4,2.3,1.9,3.11,1.6,1.5-.5,1.89-5.9,2.6-6.4,7.7-5.4,12.2-14.2,12.2-24.3l1.2-1.2,17.39,5.8s1,2.5,1.8,2.6c.5,0,1.31-1.6,1.31-1.6s1.89,1.6,2.3,1.3c.6-.4.39-1.9-.2-2.6-.2-.3,1.4-.2,2-.2.3,0,.5-.4.5-.6C153.64,248.62,144.85,241.82,137.55,238.32Z"/><path id="Path_8307" data-name="Path 8307" class="cls-5" d="M62.45,149.92s11.1-24.2,28.8-24.6,19.2-4.8,19.2-4.8l-4.81,9.2s25.11,7,31-5-7.3,42-26.8,44.5S62.45,149.92,62.45,149.92Z"/><path id="Path_8308" data-name="Path 8308" class="cls-2" d="M66.45,149.12s8.69-11.6,21.6-13.3,14.1-3.6,14.1-3.6-1.5,6.9-5.3,8.4,20.4,7.1,26.8,0-5.8,19.7-18.5,18.9C92.64,158.72,66.45,149.12,66.45,149.12Z"/><g id="Group_6165" data-name="Group 6165"><path id="Path_8309" data-name="Path 8309" class="cls-2" d="M50.59,146.61v.2s-14.9,3.8-24.5,25.8h0c-6.3-4.7-11.8-11.5-12.1-20.9a33.35,33.35,0,0,1,.4-6.3c13.4-13.4,22.3-8.9,22.3-8.9C37.09,141.51,43.89,144.71,50.59,146.61Z"/><path id="Path_8310" data-name="Path 8310" class="cls-5" d="M63.09,149.11a2.65,2.65,0,0,1-.6.5c-7.4,6.4-13,18.2-17,32.1h-.1a58,58,0,0,1-19.3-9.1h0c9.5-22,24.5-25.8,24.5-25.8v-.2A76.85,76.85,0,0,0,63.09,149.11Z"/><path id="Path_8311" data-name="Path 8311" class="cls-6" d="M39.69,116c4.4,1.7-3.5,12.7-3,20.4,0,0-8.9-4.4-22.3,8.9C17.39,126.41,35.79,114.51,39.69,116Z"/></g><g id="Group_6166" data-name="Group 6166"><path id="Path_8312" data-name="Path 8312" class="cls-6" d="M171.43,144.34c-14.3-12.4-22.9-7.4-22.9-7.4,0-7.7-8.6-18.2-4.3-20.2C148,114.94,167.13,125.54,171.43,144.34Z"/><path id="Path_8313" data-name="Path 8313" class="cls-2" d="M172.23,150.64c.4,9.4-4.6,16.6-10.6,21.7h0c-11-21.39-26.2-24.1-26.2-24.1l-.1-.2c6.6-2.3,13.2-6,13.2-11.1,0,0,8.6-5,22.9,7.4A45.23,45.23,0,0,1,172.23,150.64Z"/><path id="Path_8314" data-name="Path 8314" class="cls-5" d="M161.63,172.24h0a55.35,55.35,0,0,1-12.8,8.1l-.4.11c-4.4-12.9-10.5-23.9-18.8-30.71,1.8-.5,3.8-1.1,5.7-1.79l.1.2S150.63,150.94,161.63,172.24Z"/></g><path id="Path_8315" data-name="Path 8315" class="cls-7" d="M67.64,193.52l-.1-.3a2.2,2.2,0,0,1-.1-.8,13.1,13.1,0,0,1,0-2.8,12.86,12.86,0,0,1,.4-1.9,5.38,5.38,0,0,1,1-2l.3-.5.4-.5a3.92,3.92,0,0,1,1-.8,4.13,4.13,0,0,1,1.1-.7,6.12,6.12,0,0,1,1.2-.5l.3-.1h.4l.5-.1a2.85,2.85,0,0,1,1.3,0,7.17,7.17,0,0,1,2.5.7,8,8,0,0,1,1.9,1.3,8.64,8.64,0,0,1,1.3,1.4c.3.4.6.9.9,1.3a10.91,10.91,0,0,0,.6,1.1c.1.2.2.5.3.7l.11.3a.69.69,0,0,1-.4.8.57.57,0,0,1-.7-.2h0l-.1-.2-.4-.6a14.62,14.62,0,0,0-1.6-1.9c-.4-.4-.8-.7-1.2-1.1s-.9-.6-1.5-.9c-.3-.1-.5-.2-.8-.3a2.2,2.2,0,0,0-.8-.1h-.9l-.5.1-.4.1a4.81,4.81,0,0,0-1.6.8c-.2.2-.5.3-.7.6l-.3.3-.3.3a9.94,9.94,0,0,0-.8,1.5,8.8,8.8,0,0,0-.5,1.5,17.19,17.19,0,0,0-.4,2.5v.9h0a.65.65,0,0,1-.6.6.73.73,0,0,1-.81-.5Z"/><path id="Path_8316" data-name="Path 8316" class="cls-7" d="M110.85,184.52v-1.1a13.51,13.51,0,0,1,.4-2.8,12.14,12.14,0,0,1,.7-1.8,8,8,0,0,1,1.3-1.9l.39-.4.5-.4a4.19,4.19,0,0,1,1.11-.7,5.88,5.88,0,0,1,1.2-.5c.39-.1.8-.2,1.3-.3h1.3a5.85,5.85,0,0,1,1.3.2,9.43,9.43,0,0,1,2.3,1,6.09,6.09,0,0,1,1.6,1.6,9.06,9.06,0,0,1,1.1,1.6,10.09,10.09,0,0,1,.7,1.5,5.64,5.64,0,0,1,.4,1.2,4.54,4.54,0,0,0,.2.8l.1.3a.59.59,0,0,1-.5.7.57.57,0,0,1-.7-.4h0a.31.31,0,0,0-.1-.2l-.3-.6a15.92,15.92,0,0,0-1.3-2.2,12.7,12.7,0,0,0-1-1.2,6.89,6.89,0,0,0-1.3-1.1,5.94,5.94,0,0,0-.8-.4,2.35,2.35,0,0,0-.8-.2,2.77,2.77,0,0,0-.9-.1h-.6l-.4.1a4.8,4.8,0,0,0-1.7.5,4.35,4.35,0,0,0-.7.4l-.4.2-.3.3a12.67,12.67,0,0,0-1.1,1.3,9.14,9.14,0,0,0-.7,1.4,22.5,22.5,0,0,0-.8,2.4l-.1.7v.2h0c-.1.3-.4.6-.7.5-.5-.1-.7-.3-.7-.6Z"/><g id="Group_6167" data-name="Group 6167"><path id="Path_8317" data-name="Path 8317" class="cls-8" d="M82.44,195c2.5.1,5.5,1,9.4,1.4v.2s.1,7.7-5.8,7.1c-4.5-.4-3.6-8.6-3.6-8.7Z"/><path id="Path_8318" data-name="Path 8318" class="cls-8" d="M118.54,187.79s2.5,8.3-2.6,10.4c-4.8,2.1-7-4.8-7-4.8l-.1-.1c4-2.2,6.9-4.9,9.7-5.5Z"/><path id="Path_8319" data-name="Path 8319" class="cls-7" d="M115.94,198.19c5.1-2.2,2.6-10.4,2.6-10.4v-.1c2-.6,4,0,6.2,2.5,3.1,3.5,4.1,15.3-4.7,23.1l-.2-.2c-18.3-11.6-29,5.5-29.7,6.8-17.1-3-17.9-17.4-14.6-21.5,2.2-2.8,4.4-3.5,7-3.3v.1s-1,8.2,3.6,8.7c5.9.6,5.8-7.1,5.8-7.1v-.2a36.57,36.57,0,0,0,8.1-.1,23.48,23.48,0,0,0,8.9-3l.1.1C108.94,193.39,111.14,200.29,115.94,198.19Z"/><path id="Path_8320" data-name="Path 8320" class="cls-9" d="M119.74,213.09l.2.2c-4,3.5-10,6.2-18.7,6.9a42.08,42.08,0,0,1-11.2-.4C90.84,218.59,101.54,201.49,119.74,213.09Z"/></g><path id="Path_8321" data-name="Path 8321" class="cls-2" d="M97,221.92c-15.2,0-20.9-7-22.9-11.1-2.5-5.3-1.7-10.8.3-13.4,2.2-2.7,4.5-3.9,7.5-3.9a40.19,40.19,0,0,1,5,.6,40.93,40.93,0,0,0,8.5.9,32.53,32.53,0,0,0,4.4-.3c5.39-.7,9.2-3.2,12.6-5.4,2.7-1.8,5-3.3,7.5-3.3,2.1,0,4,1,5.9,3.2,2.7,3,3.7,10.3.89,17.1-2.1,5.1-8.19,14-25.3,15.4C99.85,221.82,98.35,221.92,97,221.92Zm-15.1-25.5c-1.8,0-3.4.5-5.2,2.8-1.2,1.5-2.1,5.9.1,10.3,1.7,3.5,6.6,9.5,20.2,9.5,1.4,0,2.8-.1,4.2-.2,14.8-1.2,20.5-8,22.8-13.6,2.5-6,1.3-12-.4-14.1s-2.9-2.2-3.6-2.2c-1.6,0-3.6,1.3-5.9,2.8-3.4,2.3-7.7,5.1-13.8,5.9a38.66,38.66,0,0,1-4.8.3,45.12,45.12,0,0,1-9-1C84.85,196.72,83.35,196.52,81.85,196.42Z"/></g></g></g></svg>