<svg xmlns="http://www.w3.org/2000/svg" viewBox="0 0 209.34 283.37"><defs><style>.cls-1{fill:#f9e9bd;}.cls-2{fill:#f1a4b2;}.cls-3{isolation:isolate;font-size:23.18px;font-family:STXihei, STHeiti;letter-spacing:0.17em;}.cls-3,.cls-7{fill:#fff;}.cls-4{fill:#ee8168;}.cls-5{fill:#aa4c97;}.cls-6{fill:#954f39;}.cls-8{fill:#3472b6;}</style></defs><g id="圖層_2" data-name="圖層 2"><g id="圖層_1-2" data-name="圖層 1"><g id="Group_5815" data-name="Group 5815"><g id="Group_5807" data-name="Group 5807"><path id="Path_5537" data-name="Path 5537" class="cls-1" d="M185.8,73.4c-1,5.7-5.1,9.9-9.9,9.9H52.1l2.2,17.1-1.6,10.3L30.1,83.3H10.2C4.6,83.3,0,77.6,0,70.5V15.6C0,9.6,3.4,4.5,7.9,3.2A7.54,7.54,0,0,1,14.1,0H179.9c4.8,0,8.6,4.8,8.6,10.8V65.7A12.87,12.87,0,0,1,185.8,73.4Z"/><path id="Path_5538" data-name="Path 5538" class="cls-2" d="M10.1,4.7H175.9c4.8,0,8.6,4.8,8.6,10.8V70.4c0,6-3.9,10.8-8.6,10.8H47.3l3.1,23.9L30.7,81.2H10.1c-4.8,0-8.6-4.8-8.6-10.8V15.5C1.5,9.6,5.4,4.7,10.1,4.7Z"/></g><text class="cls-3" transform="translate(40.65 37.79)">點我進入</text><text class="cls-3" transform="translate(40.65 65.61)">星座探索</text></g><g id="Group_6252" data-name="Group 6252"><path id="Path_8093" data-name="Path 8093" class="cls-4" d="M128.54,236.22s31.1,5.5,38.1,14.6-5,19.3-.5,24.2,43.2,4.7,43.2,4.7L209,282s-46.9,2.8-50.8-2.8-1.6-8.6-.9-13.1c.9-5.8-2.5-10.3-9.8-12.8-6.9-2.4-18.2-5.1-18.2-5.1Z"/><g id="Group_6067" data-name="Group 6067"><path id="Path_8094" data-name="Path 8094" class="cls-4" d="M117.54,151.06s-1.1-7.8,1.19-9.3,7.6,0,10.4-2.5-1.59-7.8,1.91-10.6c3.9-3.1,9.69.6,12.09-2.2s2.5-4,2.5-4l2.6,2.2a15.27,15.27,0,0,1-3.69,5c-2.5,2-7.91-.8-10,2.5-1.5,2.3,3.69,6.8.8,10.1s-7.8,1.7-10.1,4.8,2.6,4.7.6,7.9-3.1,5.4-3.1,5.4Z"/><g id="Group_6064" data-name="Group 6064"><path id="Path_8095" data-name="Path 8095" class="cls-5" d="M123.77,147.57a.91.91,0,0,1-.7-.3l-4.3-3.6a1.13,1.13,0,1,1,1.5-1.7l4.3,3.6a1,1,0,0,1,.1,1.6,1.49,1.49,0,0,1-.9.4Z"/></g><g id="Group_6065" data-name="Group 6065"><path id="Path_8096" data-name="Path 8096" class="cls-5" d="M131,143.88a1.16,1.16,0,0,1-1-.2l-2.1-1.9a1.09,1.09,0,0,1-.1-1.5h0a1.09,1.09,0,0,1,1.5-.1l2.1,1.9a1.09,1.09,0,0,1,.1,1.5h0A.85.85,0,0,1,131,143.88Z"/></g><g id="Group_6066" data-name="Group 6066"><path id="Path_8097" data-name="Path 8097" class="cls-5" d="M134.52,137.17a1.19,1.19,0,0,1-1,.1l-2.6-1.1a1,1,0,0,1-.5-1.4h0a1,1,0,0,1,1.4-.5l2.6,1.1a1,1,0,0,1,.5,1.4h0A1.68,1.68,0,0,1,134.52,137.17Z"/></g><path id="Path_8098" data-name="Path 8098" class="cls-5" d="M152.34,125.46a25.83,25.83,0,0,0,3.7-1.9s-3.1-.6-3.91-.6c.6-1,2.2-1.9,2.6-3-1.3-.1-2.8.7-4.1.5a11.81,11.81,0,0,0,.91-3.7c-1.2.3-1.91,1.5-3.1,1.8a24.38,24.38,0,0,1-.81-3.8c-1.3,1.2-2.9,2.4-4.09,3.7-.7-.8-1.2-1.9-1.91-2.8-.19,2.2-.5,4.1-.5,6.4a7.17,7.17,0,0,0,2.81,5.9c3.4,2.9,8.8,2.1,12.4.5C155,127.76,153.54,126.26,152.34,125.46Z"/></g><g id="Group_6071" data-name="Group 6071"><path id="Path_8099" data-name="Path 8099" class="cls-4" d="M53.73,156.23s-2.1-7.6-4.8-8.1-7,3-10.6,1.8-1.7-7.8-5.9-9c-4.8-1.3-8.6,4.4-12,2.8s-3.9-2.7-3.9-2.7l-1.6,3a14.64,14.64,0,0,0,5.4,3.1c3.1.9,7-3.8,10.1-1.6,2.3,1.6-.7,7.8,3.3,9.6s7.8-1.5,11.2.4-.6,5.3,2.6,7.5a56,56,0,0,1,5,3.8Z"/><g id="Group_6068" data-name="Group 6068"><path id="Path_8100" data-name="Path 8100" class="cls-5" d="M46.52,155.54a1,1,0,0,0,.6-.5l2.5-5a1.19,1.19,0,0,0-2.1-1.1l-2.5,5a1.17,1.17,0,0,0,.5,1.6,1.7,1.7,0,0,0,1,0Z"/></g><g id="Group_6069" data-name="Group 6069"><path id="Path_8101" data-name="Path 8101" class="cls-5" d="M38.37,155.06a1,1,0,0,0,.8-.6l1.1-2.6a1.11,1.11,0,0,0-.5-1.4h0a1.11,1.11,0,0,0-1.4.5l-1.1,2.6a1.11,1.11,0,0,0,.5,1.4h0A1.27,1.27,0,0,0,38.37,155.06Z"/></g><g id="Group_6070" data-name="Group 6070"><path id="Path_8102" data-name="Path 8102" class="cls-5" d="M32.57,150.28a1.21,1.21,0,0,0,1-.3l1.9-2a1,1,0,0,0-.1-1.5h0a1,1,0,0,0-1.5.1l-1.9,2.1a1,1,0,0,0,.1,1.5h0A1.09,1.09,0,0,1,32.57,150.28Z"/></g><path id="Path_8103" data-name="Path 8103" class="cls-5" d="M11.63,146.53a29.66,29.66,0,0,1-4.2-.3s2.7-1.8,3.4-2.1c-1-.7-2.8-.9-3.5-1.7,1.2-.6,2.9-.5,4-1.2a11.91,11.91,0,0,1-2.3-3.1c1.2-.2,2.4.6,3.6.5a16.06,16.06,0,0,0-.8-3.8c1.7.6,3.6,1.1,5.2,1.8a17.51,17.51,0,0,0,.6-3.3,60.55,60.55,0,0,1,2.9,5.7,7,7,0,0,1-.3,6.6c-1.9,4-7.3,5.4-11.2,5.4C10,149.63,10.83,147.73,11.63,146.53Z"/></g><path id="Path_8104" data-name="Path 8104" class="cls-2" d="M138.34,262.62s0-36-3.3-72.4-14-48.3-49.5-49c-36.2-.7-48.1,32.7-47.6,49.5s0,71,0,71h.2a41.7,41.7,0,0,0,0,5c.2,3.3,2.8,10.1,7.4,12.6,7.2,3.9,17.1,4.2,17.8,2.8.6-.9.2-1.2-.3-1.9,1.9.7,3.9-1.9,1.4-3.1a1.61,1.61,0,0,0,2.1-1.1,1.67,1.67,0,0,0-.1-1.2c-.5-1.3-2.5-1.2-3.7-1.6-2.7-.9-3.4-1.9-3-4.8.3-2.1,1.8-4.3,3.9-6.5l51,.5c1.7,1.8,2.8,3.7,2.6,5.6-.3,2.9-1.5,4.8-4.3,5.6-1.2.3-3.2.1-3.8,1.4a1.71,1.71,0,0,0,.8,2.3,1.67,1.67,0,0,0,1.2.1c-2.5,1.1-.7,3.8,1.2,3.2-.5.6-.9.9-.4,1.8.7,1.4,10.6,1.6,17.9-1.9,4.6-2.2,7.6-9,8-12.2a27.46,27.46,0,0,0,.5-5.7Z"/><g id="Group_6072" data-name="Group 6072"><path id="Path_8105" data-name="Path 8105" class="cls-6" d="M115.18,170.55a8.3,8.3,0,1,1-8.3-8.29h0A8.26,8.26,0,0,1,115.18,170.55Z"/><path id="Path_8106" data-name="Path 8106" class="cls-7" d="M113.68,170.55a6.9,6.9,0,1,1-6.9-6.89h0a6.9,6.9,0,0,1,6.9,6.89Z"/><path id="Path_8107" data-name="Path 8107" class="cls-8" d="M110.78,170.55a4.1,4.1,0,1,1-4.1-4.1A4.12,4.12,0,0,1,110.78,170.55Z"/><path id="Path_8108" data-name="Path 8108" class="cls-7" d="M107.28,169.65a1.6,1.6,0,1,1-1.6-1.6A1.58,1.58,0,0,1,107.28,169.65Z"/></g><path id="Path_8109" data-name="Path 8109" class="cls-4" d="M129.24,195c-4.1.5-9.7,2.7-14.5-1s-9-14.9-10.2-17.2c-1.4-2.5-2.7-3.7-4-3a2.64,2.64,0,0,0-1.1,2.4s-1.8-4.1-4.6-2.7c-2.6,1.3-1.5,4.4-1.5,4.4a2.32,2.32,0,0,0-3-.5c-1.3.9.5,7.1,3,15.1,2.2,7.3,7.8,26,20,26.1s23-4.4,23.4-10.5S134.94,194.42,129.24,195Z"/><g id="Group_6073" data-name="Group 6073"><path id="Path_8110" data-name="Path 8110" class="cls-6" d="M75.13,171.49a8.3,8.3,0,1,1-8.3-8.3h0a8.28,8.28,0,0,1,8.3,8.3Z"/><path id="Path_8111" data-name="Path 8111" class="cls-7" d="M73.63,171.49a6.9,6.9,0,1,1-6.9-6.9h0a6.91,6.91,0,0,1,6.9,6.9Z"/><path id="Path_8112" data-name="Path 8112" class="cls-8" d="M70.73,171.49a4.1,4.1,0,1,1-4.1-4.1,4.12,4.12,0,0,1,4.1,4.1Z"/><path id="Path_8113" data-name="Path 8113" class="cls-7" d="M67.23,170.59a1.6,1.6,0,1,1-1.6-1.6A1.58,1.58,0,0,1,67.23,170.59Z"/></g><path id="Path_8114" data-name="Path 8114" class="cls-4" d="M41.24,197.42c4.1-.9,10-.6,13.3-5.8s3.5-17,4-19.6c.5-2.8,1.4-4.4,2.8-4.1a2.68,2.68,0,0,1,1.8,1.9s.3-4.4,3.4-4.1c2.9.3,2.8,3.7,2.8,3.7a2.43,2.43,0,0,1,2.7-1.5c1.5.4,1.9,6.9,2.2,15.3.3,7.6,1.2,27.1-10.3,31.3s-23.2,3.4-25.5-2.2S35.64,198.72,41.24,197.42Z"/><path id="Path_8115" data-name="Path 8115" class="cls-4" d="M62.14,152.32c.5,1.3,2.7,1.5,5.4.3s4.4-2.5,4.1-3.3-1.3-3.2-4.9-1.5S61.64,150.82,62.14,152.32Z"/><path id="Path_8116" data-name="Path 8116" class="cls-4" d="M111.54,152.12c-.5,1.3-2.7,1.5-5.4.2s-4.4-2.5-4-3.4,1.4-3.1,4.9-1.5S112.14,150.72,111.54,152.12Z"/><ellipse id="Ellipse_222" data-name="Ellipse 222" class="cls-6" cx="89.34" cy="189.72" rx="2.3" ry="3"/><path id="Path_8117" data-name="Path 8117" class="cls-4" d="M64.14,222l3.7,7.5,4.2-7-3-.5-1.2,2.3-1.2-2.8Z"/><path id="Path_8118" data-name="Path 8118" class="cls-4" d="M81.64,222.72l4.7,7.2,6.5-7.9-3.7-.2-3.5,3.7-.9-3.3Z"/><path id="Path_8119" data-name="Path 8119" class="cls-4" d="M104.94,222.52l4,6.3,4.7-7.2-4,.2-.9,2.8-1.9-2.8Z"/><path id="Path_8120" data-name="Path 8120" class="cls-4" d="M73.24,233.92l3.3,6.5,5.1-7.7-3.5-.5-1.9,3.7-1.2-4Z"/><path id="Path_8121" data-name="Path 8121" class="cls-4" d="M95.84,233l2.6,7.5,4.9-8.2h-3.7l-1.2,2.8-.7-3.5Z"/><path id="Path_8122" data-name="Path 8122" class="cls-4" d="M84.44,242.12l3.3,8.4,5.1-8.2-3.3-.5-2.1,3.7-.5-3.7Z"/></g></g></g></svg>