<svg xmlns="http://www.w3.org/2000/svg" xmlns:xlink="http://www.w3.org/1999/xlink" width="191.894" height="96.598" viewBox="0 0 191.894 96.598">
  <defs>
    <clipPath id="clip-path">
      <path id="Path_126" data-name="Path 126" d="M1195.862,661.322a40.882,40.882,0,0,0-1.19-6.682c-.409-1.482-1.245-1.139-2.409-.929a8.828,8.828,0,0,1-5.6-.989,41.168,41.168,0,0,0-33.308-16.936c-.339,0-.674.018-1.011.026a11.084,11.084,0,0,1-6.634-5.656c-.563-1.267-.779-2.3-2.484-1.724a47.867,47.867,0,0,0-7.258,3.239,1.7,1.7,0,0,0-.823.966.7.7,0,0,0-.118.228c-.723,2.449.494,5.238-.669,7.562a41.4,41.4,0,0,0-14.119,12.025,12.884,12.884,0,0,0-3.826-.8.6.6,0,0,0-.213.053,1.445,1.445,0,0,0-.967.489,40.834,40.834,0,0,0-4.146,5.374c-.821,1.3-.005,1.687.933,2.407a8.268,8.268,0,0,1,2.478,3.239,41.237,41.237,0,0,0,54.011,52.162,10.556,10.556,0,0,1,6.4,3.486c.881,1.069,1.366,2.009,2.855,1a47.872,47.872,0,0,0,6.126-5.064,1.69,1.69,0,0,0,.535-1.15.689.689,0,0,0,.053-.252c.043-2.716-2.129-5.216-1.251-7.956a41.247,41.247,0,0,0,9.461-40.823,10.491,10.491,0,0,0,2.785-2.052.583.583,0,0,0,.1-.193A1.445,1.445,0,0,0,1195.862,661.322Z" fill="none"/>
    </clipPath>
  </defs>
  <g id="Group_5946" data-name="Group 5946" transform="translate(-1330.239 -777.269)">
    <g id="Group_5917" data-name="Group 5917" transform="translate(267.859 149.001)">
      <circle id="Ellipse_4" data-name="Ellipse 4" cx="4.266" cy="4.266" r="4.266" transform="translate(1200.06 716.11)" fill="#ffc940"/>
      <g id="Group_9" data-name="Group 9">
        <path id="Path_103" data-name="Path 103" d="M1192.08,665.264c.163.4.326.789.477,1.19,35.212,2.566,60.524,9.168,60.524,14.839,0,7.489-38.075,15.508-94.754,15.508s-94.754-8.019-94.754-15.508c0-5.671,21.846-11.643,57.058-14.209.151-.4.314-.795.477-1.189-32.545,2.34-58.728,7.74-58.728,15.4,0,10.454,48.784,16.7,95.947,16.7s95.947-6.247,95.947-16.7C1254.274,673.635,1224.625,667.6,1192.08,665.264Z" fill="#ffc940"/>
        <path id="Path_104" data-name="Path 104" d="M1219.79,639.2c-2.937-4.289-17.729,1.154-35.868,10.992.312.258.612.529.916.8,14.724-7.958,25.789-12.155,30.991-12.155,1.49,0,2.5.344,2.977,1.041,3.242,4.735-17.587,26.447-53.763,51.222s-63.952,36.345-67.195,31.612c-2.144-3.131,6.245-13.688,22.63-27.643q-.209-.572-.4-1.15c-15.728,13.356-26.15,25.179-23.213,29.468.692,1.01,2.042,1.481,3.939,1.481,10.782,0,39.221-15.19,64.912-32.783C1195.928,671.392,1224.414,645.955,1219.79,639.2Z" fill="#ffc940"/>
        <circle id="Ellipse_5" data-name="Ellipse 5" cx="8.717" cy="8.717" r="8.717" transform="translate(1068.924 681.786)" fill="#ffc940"/>
        <g id="Group_8" data-name="Group 8">
          <g id="Group_7" data-name="Group 7" clip-path="url(#clip-path)">
            <path id="Path_105" data-name="Path 105" d="M1195.862,661.322a40.882,40.882,0,0,0-1.19-6.682c-.409-1.482-1.245-1.139-2.409-.929a8.828,8.828,0,0,1-5.6-.989,41.168,41.168,0,0,0-33.308-16.936c-.339,0-.674.018-1.011.026a11.084,11.084,0,0,1-6.634-5.656c-.563-1.267-.779-2.3-2.484-1.724a47.867,47.867,0,0,0-7.258,3.239,1.7,1.7,0,0,0-.823.966.7.7,0,0,0-.118.228c-.723,2.449.494,5.238-.669,7.562a41.4,41.4,0,0,0-14.119,12.025,12.884,12.884,0,0,0-3.826-.8.6.6,0,0,0-.213.053,1.445,1.445,0,0,0-.967.489,40.834,40.834,0,0,0-4.146,5.374c-.821,1.3-.005,1.687.933,2.407a8.268,8.268,0,0,1,2.478,3.239,41.237,41.237,0,0,0,54.011,52.162,10.556,10.556,0,0,1,6.4,3.486c.881,1.069,1.366,2.009,2.855,1a47.872,47.872,0,0,0,6.126-5.064,1.69,1.69,0,0,0,.535-1.15.689.689,0,0,0,.053-.252c.043-2.716-2.129-5.216-1.251-7.956a41.247,41.247,0,0,0,9.461-40.823,10.491,10.491,0,0,0,2.785-2.052.583.583,0,0,0,.1-.193A1.445,1.445,0,0,0,1195.862,661.322Z" fill="#ffcc80"/>
            <path id="Path_106" data-name="Path 106" d="M1123.911,640.2c1.257,22.207,31.426,14.665,38.13,32.682,4.19,10.894,2.095,19.693,15.922,21.369,11.313,1.257,12.989,7.123,19.694,15.5" fill="none" stroke="#fffab9" stroke-miterlimit="10" stroke-width="1"/>
            <path id="Path_107" data-name="Path 107" d="M1127.263,641.452c4.609,5.028,8.38,9.217,15.085,11.731,8.38,2.1,15.5,2.934,22.207,8.381,7.542,5.866,7.123,13.408,11.732,20.95,4.609,7.123,12.57,6.7,19.274,10.056" fill="none" stroke="#fffab9" stroke-miterlimit="10" stroke-width="1"/>
            <path id="Path_108" data-name="Path 108" d="M1148.233,626.107c3.591,5.8,6.515,10.618,12.634,14.337,7.842,3.621,14.684,5.772,20.255,12.374,6.317,7.168,4.5,14.5,7.622,22.77,3.2,7.857,11.1,8.929,17.062,13.472" fill="none" stroke="#fffab9" stroke-miterlimit="10" stroke-width="1"/>
            <path id="Path_109" data-name="Path 109" d="M1094.724,676.85c4.95,4.693,9.005,8.608,15.87,10.646,8.506,1.5,15.67,1.84,22.739,6.8,7.935,5.323,8.046,12.876,13.172,20.077,5.1,6.782,13.009,5.807,19.932,8.68" fill="none" stroke="#fffab9" stroke-miterlimit="10" stroke-width="1"/>
            <path id="Path_110" data-name="Path 110" d="M1137.814,690.532a4.252,4.252,0,1,0,5.5-1.23A4,4,0,0,0,1137.814,690.532Z" fill="#a18f46" opacity="0.7"/>
            <path id="Path_111" data-name="Path 111" d="M1117.115,679.871a3.327,3.327,0,1,0,4.3-.962A3.131,3.131,0,0,0,1117.115,679.871Z" fill="#a18f46"/>
            <path id="Path_112" data-name="Path 112" d="M1137.87,673.841a3.327,3.327,0,1,0,4.3-.962A3.13,3.13,0,0,0,1137.87,673.841Z" fill="#a18f46" opacity="0.3"/>
            <path id="Path_113" data-name="Path 113" d="M1122.27,694.828a3.327,3.327,0,1,0,4.3-.963A3.129,3.129,0,0,0,1122.27,694.828Z" fill="#a18f46" opacity="0.3"/>
            <path id="Path_114" data-name="Path 114" d="M1145.263,703.875c-.886,3,1.149,6.252,4.543,7.254s6.869-.621,7.755-3.624-1.145-6.252-4.542-7.255S1146.15,700.87,1145.263,703.875Z" fill="#a18f46"/>
            <path id="Path_115" data-name="Path 115" d="M1138.785,636.633a8,8,0,0,1-2.514,6.7" fill="none" stroke="#fffab9" stroke-miterlimit="10" stroke-width="1"/>
            <path id="Path_116" data-name="Path 116" d="M1141.509,633.7a22.348,22.348,0,0,0,3.352,5.656" fill="none" stroke="#fffab9" stroke-miterlimit="10" stroke-width="1"/>
            <path id="Path_117" data-name="Path 117" d="M1145.49,634.957a5.793,5.793,0,0,0,4.189,2.724" fill="none" stroke="#fffab9" stroke-miterlimit="10" stroke-width="1"/>
            <path id="Path_118" data-name="Path 118" d="M1115.006,658.526a4.866,4.866,0,0,1,2.671,4.871" fill="none" stroke="#fffab9" stroke-miterlimit="10" stroke-width="1"/>
            <path id="Path_119" data-name="Path 119" d="M1115.321,655.855c1.885,1.257,3.928,2.2,5.813,3.456" fill="none" stroke="#fffab9" stroke-miterlimit="10" stroke-width="1"/>
            <path id="Path_120" data-name="Path 120" d="M1118.463,654.6l2.357.471" fill="none" stroke="#fffab9" stroke-miterlimit="10" stroke-width="1"/>
            <path id="Path_121" data-name="Path 121" d="M1186.185,656.012c1.414.628,2.985,1.257,4.557.785" fill="none" stroke="#fffab9" stroke-miterlimit="10" stroke-width="1"/>
            <path id="Path_122" data-name="Path 122" d="M1188.7,660.1a38.317,38.317,0,0,0,4.085-.943" fill="none" stroke="#fffab9" stroke-miterlimit="10" stroke-width="1"/>
            <path id="Path_123" data-name="Path 123" d="M1177.019,711.425c-1.152-1.361-2.1-2.933-3.247-4.19" fill="none" stroke="#fffab9" stroke-miterlimit="10" stroke-width="1"/>
            <path id="Path_124" data-name="Path 124" d="M1181.1,711.425a29.184,29.184,0,0,1-1.467-3.876" fill="none" stroke="#fffab9" stroke-miterlimit="10" stroke-width="1"/>
            <path id="Path_125" data-name="Path 125" d="M1075.716,748.589H1154.3l-3.667-30.512s-26.471-9.453-26.471-41.911c0-28.361,29.307-40.336,29.307-40.336l.831-15.457h-78.581Z" fill="#ffcc80" style="mix-blend-mode: multiply;isolation: isolate"/>
          </g>
        </g>
      </g>
    </g>
  </g>
</svg>
