<svg id="Group_3034" data-name="Group 3034" xmlns="http://www.w3.org/2000/svg" width="161.232" height="210" viewBox="0 0 161.232 210">
  <g id="Group_133" data-name="Group 133" transform="translate(0 0)">
    <g id="Group_128" data-name="Group 128" transform="translate(144.424 14.823)">
      <path id="Path_467" data-name="Path 467" d="M610.358,237.341s17.769-3.754,7.014-37.945c0,0-6.682-.4-7.365-2.764s4.154-1.137,4.154-1.137-4.242-6.829-2.96-7.313c1.058-.4,5.866,4.786,5.866,4.786s-2.247-6.821-.413-7.033,3.256,6.886,3.256,6.886,2.71-5.61,3.667-3.79-1.461,7-1.461,7,14.082,35.33-10.284,45.28" transform="translate(-609.616 -185.608)" fill="#f4da6b"/>
      <path id="Path_468" data-name="Path 468" d="M612.037,241.841a.322.322,0,0,1-.3-.2.325.325,0,0,1,.177-.424c23.792-9.715,10.243-44.507,10.1-44.855a.318.318,0,0,1,.008-.258c.653-1.4,2.19-5.338,1.466-6.712-.1-.188-.169-.18-.207-.19-.6.011-1.962,2.068-2.881,3.969a.325.325,0,0,1-.612-.076c-.568-2.824-1.836-6.763-2.9-6.625a.3.3,0,0,0-.239.16c-.574.9.264,4.429.925,6.445a.325.325,0,0,1-.547.321c-2.487-2.683-5.006-4.84-5.515-4.7-.348.395,1.11,3.591,3.126,6.837a.325.325,0,0,1-.356.487c-1.135-.288-3.137-.539-3.678.027-.054.054-.22.226-.084.7.509,1.763,5.278,2.424,7.071,2.53a.331.331,0,0,1,.294.229c4.464,14.2,4.652,24.946.555,31.954-3.137,5.365-7.626,6.369-7.814,6.41a.327.327,0,0,1-.136-.639,12.664,12.664,0,0,0,7.4-6.121c2.729-4.685,4.837-13.9-.56-31.195-1.325-.1-6.761-.642-7.436-2.985a1.291,1.291,0,0,1,.242-1.339c.718-.743,2.511-.552,3.556-.365-1.02-1.7-3.2-5.545-2.8-6.717a.665.665,0,0,1,.4-.424c.933-.359,3.553,2.1,5.275,3.871-.482-1.736-1.132-4.628-.46-5.678a.958.958,0,0,1,.716-.457c1.725-.185,2.927,4.144,3.417,6.247.7-1.306,2.021-3.5,3.039-3.518a.878.878,0,0,1,.794.536c.949,1.8-.969,6.228-1.4,7.166.906,2.389,13.114,35.918-10.513,45.568A.332.332,0,0,1,612.037,241.841Z" transform="translate(-609.822 -185.812)" fill="#f4da6b"/>
    </g>
    <g id="Group_129" data-name="Group 129" transform="translate(56.218 166.753)">
      <path id="Path_469" data-name="Path 469" d="M583.7,242.894s1.224,21.588-1.719,33.363c0,0,9.079,4.171,8.834,6.132s-11.53-1.472-12.757-3.433c-1.934-3.093,1.962-2.209,1.962-36.8C580.021,242.16,581.248,240.443,583.7,242.894Z" transform="translate(-577.193 -241.248)" fill="#f4da6b"/>
      <path id="Path_470" data-name="Path 470" d="M589.6,283.508c-3.18,0-10.54-2.454-11.614-4.173-.808-1.292-.677-1.978-.248-4.247.7-3.7,2.16-11.4,2.16-32.721a.337.337,0,0,1,.06-.19,1.923,1.923,0,0,1,1.518-.721,3.974,3.974,0,0,1,2.658,1.417.32.32,0,0,1,.1.209c.014.215,1.178,21.455-1.662,33.2,1.983.925,9.024,4.356,8.774,6.355C591.274,283.214,590.687,283.508,589.6,283.508Zm-9.049-41.022c-.005,21.289-1.469,29.008-2.171,32.721-.416,2.187-.514,2.707.158,3.782.881,1.409,7.912,3.866,11.062,3.866.781,0,1.077-.16,1.1-.3.147-1.189-4.968-4.106-8.646-5.795a.324.324,0,0,1-.18-.375c2.783-11.13,1.809-31.355,1.714-33.14a3.32,3.32,0,0,0-2.108-1.137A1.279,1.279,0,0,0,580.555,242.486Z" transform="translate(-577.4 -241.455)" fill="#f4da6b"/>
    </g>
    <g id="Group_130" data-name="Group 130" transform="translate(106.24 168.807)">
      <path id="Path_471" data-name="Path 471" d="M599.639,243.435s3.159,21.39,1.281,33.38c0,0,9.413,3.341,9.345,5.316s-11.615-.433-13.013-2.275c-2.2-2.908,1.757-2.375-1.347-36.824C595.906,243.033,596.972,241.21,599.639,243.435Z" transform="translate(-595.581 -242.004)" fill="#f4da6b"/>
      <path id="Path_472" data-name="Path 472" d="M608.4,283.4c-3.482,0-10.1-1.687-11.2-3.145-.922-1.213-.854-1.91-.629-4.209.367-3.749,1.129-11.549-.784-32.784a.327.327,0,0,1,.043-.193,1.925,1.925,0,0,1,1.641-.862,4.227,4.227,0,0,1,2.582,1.181.334.334,0,0,1,.114.2c.03.212,3.1,21.262,1.32,33.214,2.059.743,9.378,3.529,9.31,5.542C610.762,283.4,608.986,283.4,608.4,283.4Zm-11.954-40.075c1.9,21.2,1.143,29.024.773,32.784-.215,2.215-.266,2.742.5,3.752.9,1.189,7.188,2.887,10.681,2.887,1.369,0,1.741-.278,1.747-.424.041-1.2-5.316-3.643-9.131-5a.324.324,0,0,1-.212-.356c1.774-11.334-1.012-31.391-1.265-33.159a3.509,3.509,0,0,0-2.068-.952A1.3,1.3,0,0,0,596.446,243.328Z" transform="translate(-595.787 -242.21)" fill="#f4da6b"/>
    </g>
    <g id="Group_131" data-name="Group 131" transform="translate(16.958 26.56)">
      <path id="Path_473" data-name="Path 473" d="M691.6,286.677c5.02-1.338,7.417-.431,6.913,8.316-1.461,25.6-38.761,44.8-52.5,48.744-12.232,3.511-79.475-16.737-82.9-56.615-3.442-39.892,54.451-97,78-97,17.235,0,61.821,37.416,58.393,57.609-.658,3.855-2.984,6.648-6.412,8.633a28.389,28.389,0,0,1-8.6,3.052,63.768,63.768,0,0,1-12.262,1.136c-.027-.128-.041-.2-.041-.2s-.03.074-.087.2a116.626,116.626,0,0,1-14.27-.822c-4.086-.472-7.971-1.106-11.4-1.783a70.421,70.421,0,0,1-10.711-2.837,10.975,10.975,0,0,0-3.069-.748v-.014c-9.294-.833-9.925,14.148.629,23.745.618.562,1.262,1.108,1.953,1.627a61.661,61.661,0,0,0,19.888,10.389,44.767,44.767,0,0,0,13.051,1.816c.057.172.084.273.084.273s.044-.1.117-.289a48.74,48.74,0,0,0,11.672-1.655C684.781,289.053,688.639,287.469,691.6,286.677Z" transform="translate(-562.97 -190.126)" fill="#e57d75"/>
      <path id="Path_474" data-name="Path 474" d="M596.4,221.571c2.623.645,2.538,8.173,2.538,8.173s5.392-3.025,8.018-3.025c2.609,0,3.755,8.9,3.755,8.9l-.057.215a61.74,61.74,0,0,1-19.888-10.352c-.691-.517-1.336-1.061-1.953-1.621l.318-.343S593.793,220.913,596.4,221.571Z" transform="translate(-518.502 -135.869)" fill="#f4f3e1"/>
      <path id="Path_475" data-name="Path 475" d="M609.893,233.036a44.916,44.916,0,0,1-13.051-1.809l.057-.215s2.941-6.867,6.541-6.867C606.666,224.145,609.362,231.515,609.893,233.036Z" transform="translate(-504.688 -131.243)" fill="#f4f3e1"/>
      <path id="Path_476" data-name="Path 476" d="M613.371,231.158l.014.03a48.9,48.9,0,0,1-11.672,1.649c.615-1.461,3.428-7.958,5.449-8.546C609.456,223.646,613.371,231.158,613.371,231.158Z" transform="translate(-496.307 -131.059)" fill="#f4f3e1"/>
      <path id="Path_477" data-name="Path 477" d="M609.927,223.573c2.568-.56,6.655,4.114,7.642,5.292-2.965.789-6.823,2.367-11.557,3.57L606,232.4S606.988,224.232,609.927,223.573Z" transform="translate(-488.934 -132.313)" fill="#f4f3e1"/>
      <path id="Path_478" data-name="Path 478" d="M616.27,214.445s2.941,8.5.645,10.14c-2.28,1.635-9.147-6.54-9.147-6.54l-.13-.615a28.455,28.455,0,0,0,8.6-3.042Z" transform="translate(-486.114 -148.129)" fill="#f4f3e1"/>
      <path id="Path_479" data-name="Path 479" d="M615.392,215.506l.13.615s-3.931,10.469-7.2,11.114c-3.012.6-4.919-9.092-5.194-10.6A63.986,63.986,0,0,0,615.392,215.506Z" transform="translate(-493.869 -146.191)" fill="#f4f3e1"/>
      <path id="Path_480" data-name="Path 480" d="M597.864,215.621a117.041,117.041,0,0,0,14.27.819c-.588,1.377-4.073,9.351-6.453,9.952-2.623.645-7.857-10.469-7.857-10.469Z" transform="translate(-503 -145.994)" fill="#f4f3e1"/>
      <path id="Path_481" data-name="Path 481" d="M605.1,216.745l-.041.3s-2.28,8.5-5.879,8.5-5.564-10.14-5.564-10.14l.084-.443C597.129,215.643,601.014,216.274,605.1,216.745Z" transform="translate(-510.237 -147.124)" fill="#f4f3e1"/>
      <path id="Path_482" data-name="Path 482" d="M591.679,214.4a70.614,70.614,0,0,0,10.711,2.827l-.084.443s-5.566,8.5-8.176,8.5c-2.625,0-5.564-11.775-5.564-11.775l.043-.745A11.007,11.007,0,0,1,591.679,214.4Z" transform="translate(-518.927 -149.394)" fill="#f4f3e1"/>
    </g>
    <path id="Path_483" data-name="Path 483" d="M608.225,217.36a14.445,14.445,0,1,0-14.444,14.471A14.456,14.456,0,0,0,608.225,217.36Z" transform="translate(-517.855 -141.415)" fill="#5c2176" opacity="0.2" style="mix-blend-mode: multiply;isolation: isolate"/>
    <path id="Path_484" data-name="Path 484" d="M608.441,206.863a12.335,12.335,0,1,0-12.333,12.031A12.186,12.186,0,0,0,608.441,206.863Z" transform="translate(-510.209 -155.356)" fill="#5c2176" opacity="0.2" style="mix-blend-mode: multiply;isolation: isolate"/>
    <path id="Path_485" data-name="Path 485" d="M617,210.125a12.152,12.152,0,1,0-12.153,12.15A12.151,12.151,0,0,0,617,210.125Z" transform="translate(-494.869 -149.919)" fill="#5c2176" opacity="0.2" style="mix-blend-mode: multiply;isolation: isolate"/>
    <path id="Path_486" data-name="Path 486" d="M624.742,215.829a12.092,12.092,0,1,0-12.093,12.091A12.091,12.091,0,0,0,624.742,215.829Z" transform="translate(-481.337 -139.957)" fill="#5c2176" opacity="0.2" style="mix-blend-mode: multiply;isolation: isolate"/>
    <path id="Path_487" data-name="Path 487" d="M606.283,216.445a13.245,13.245,0,1,0-13.244,13.247A13.247,13.247,0,0,0,606.283,216.445Z" transform="translate(-517.067 -140.888)" fill="#fff"/>
    <path id="Path_488" data-name="Path 488" d="M606.769,206.247a11.306,11.306,0,1,0-11.307,11.3A11.306,11.306,0,0,0,606.769,206.247Z" transform="translate(-509.555 -155.167)" fill="#fff"/>
    <path id="Path_489" data-name="Path 489" d="M615.58,209.536a11.307,11.307,0,1,0-11.307,11.3A11.306,11.306,0,0,0,615.58,209.536Z" transform="translate(-494.4 -149.476)" fill="#fff"/>
    <path id="Path_490" data-name="Path 490" d="M623.359,215.261a11.306,11.306,0,1,0-11.3,11.307A11.3,11.3,0,0,0,623.359,215.261Z" transform="translate(-481.01 -139.58)" fill="#fff"/>
    <path id="Path_491" data-name="Path 491" d="M590.667,210.4a3.68,3.68,0,1,0-3.678,3.678A3.681,3.681,0,0,0,590.667,210.4Z" transform="translate(-511.018 -134.83)" fill="#1d110b"/>
    <path id="Path_492" data-name="Path 492" d="M593.441,201.083a3.141,3.141,0,1,0-3.142,3.14A3.142,3.142,0,0,0,593.441,201.083Z" transform="translate(-504.391 -149.991)" fill="#1d110b"/>
    <path id="Path_493" data-name="Path 493" d="M602.249,204.373a3.141,3.141,0,1,0-3.14,3.14A3.137,3.137,0,0,0,602.249,204.373Z" transform="translate(-489.236 -144.302)" fill="#1d110b"/>
    <path id="Path_494" data-name="Path 494" d="M610.031,210.1a3.141,3.141,0,1,0-3.14,3.142A3.139,3.139,0,0,0,610.031,210.1Z" transform="translate(-475.846 -134.41)" fill="#1d110b"/>
    <path id="Path_495" data-name="Path 495" d="M594.965,222.313c-3.591-2.889-19.763,4.723-32.087,10-4.579,1.964-9.128,24.622-3.6,26.5C580.613,266.04,608.236,233,594.965,222.313Z" transform="translate(-556.737 -108.917)" fill="#cb506b"/>
    <path id="Path_496" data-name="Path 496" d="M584.823,247.085s-18.152-.492-13.737-36.062c0,0,6.5-1.594,6.745-4.048s-4.293-.367-4.293-.367,2.944-7.482,1.6-7.727c-1.115-.2-4.905,5.765-4.905,5.765s.979-7.115-.86-6.992-1.964,7.359-1.964,7.359-3.678-5.028-4.29-3.066,2.7,6.622,2.7,6.622-7.482,37.289,18.277,42.684C584.089,251.253,588.238,249.637,584.823,247.085Z" transform="translate(-545.893 -150.451)" fill="#f4da6b"/>
    <g id="Group_132" data-name="Group 132" transform="translate(94.6)">
      <path id="Path_497" data-name="Path 497" d="M592.055,211.383s1.165-.182,3.172-.642c1-.215,2.206-.55,3.556-.966a28.516,28.516,0,0,0,4.32-1.749,12.883,12.883,0,0,0,4.119-3.167,7.461,7.461,0,0,0,1.657-5.294,6.131,6.131,0,0,0-.778-2.74,5.348,5.348,0,0,0-2.119-1.959,7.309,7.309,0,0,0-2.99-.808,6.01,6.01,0,0,0-2.944.514c-.389.215-.547.452-.56.582a1.134,1.134,0,0,0,.465.805,2.544,2.544,0,0,0,1.167.422,6.664,6.664,0,0,0,1.573-.041,12.762,12.762,0,0,0,5.937-2.683,9.968,9.968,0,0,0,2.068-2.3,5.736,5.736,0,0,0,.863-2.625,5.91,5.91,0,0,0-1.956-4.361,11.542,11.542,0,0,0-.944-.868,7.153,7.153,0,0,0-.865-.577,4.857,4.857,0,0,0-1.845-.62,5.687,5.687,0,0,0-3.194.506,9.177,9.177,0,0,0-1.934,1.145c-.424.316-.612.49-.612.49l-.008.008a.643.643,0,0,1-.947-.865,8.908,8.908,0,0,1,.645-.7,10.405,10.405,0,0,1,2.111-1.575,7.436,7.436,0,0,1,4.152-.925,6.8,6.8,0,0,1,2.571.786,9.191,9.191,0,0,1,1.249.8,13.5,13.5,0,0,1,1.023.9,8.293,8.293,0,0,1,1.836,2.6,6.307,6.307,0,0,1,.476,3.442,7.332,7.332,0,0,1-1.382,3.262,12.289,12.289,0,0,1-2.454,2.53,15.971,15.971,0,0,1-6.524,3.172,5.322,5.322,0,0,1-4.16-.552,2.851,2.851,0,0,1-1.2-2.236,2.791,2.791,0,0,1,1.45-2.225,7.463,7.463,0,0,1,4.037-.882,9.417,9.417,0,0,1,3.88.971,7.474,7.474,0,0,1,3.014,2.723,8.317,8.317,0,0,1,1.148,3.782,11.459,11.459,0,0,1-.329,3.67,10.148,10.148,0,0,1-1.564,3.246,13.037,13.037,0,0,1-4.949,3.989,21.783,21.783,0,0,1-4.894,1.676,31.217,31.217,0,0,1-3.877.571,22.685,22.685,0,0,1-3.406.049l-.011,0a.644.644,0,0,1-.041-1.279Z" transform="translate(-591.508 -180.363)" fill="#cb506b"/>
      <path id="Path_498" data-name="Path 498" d="M598.913,184.893a2.7,2.7,0,1,0-3.667,1.056A2.7,2.7,0,0,0,598.913,184.893Z" transform="translate(-587.47 -179.461)" fill="#cb506b"/>
    </g>
  </g>
  <path id="Path_499" data-name="Path 499" d="M583.712,222.822c-2.854,0-6.274-.813-7.805-2.563-.781-.89-1.42-2.4-.038-4.533a.515.515,0,0,1,.865.56c-.838,1.3-.854,2.375-.049,3.292,1.961,2.239,8.018,2.721,10.156,1.706a.517.517,0,0,1,.444.933A8.9,8.9,0,0,1,583.712,222.822Z" transform="translate(-525.215 -119.663)" fill="#fff"/>
  <path id="Path_500" data-name="Path 500" d="M583.551,228.579a8.952,8.952,0,0,1-2.639-.395,5.943,5.943,0,0,1-3.058-1.992,3.718,3.718,0,0,1-.533-3.716.516.516,0,1,1,.939.427,2.73,2.73,0,0,0,.416,2.669,5.068,5.068,0,0,0,2.541,1.627,8.073,8.073,0,0,0,5.733-.4.515.515,0,0,1,.438.933A9.065,9.065,0,0,1,583.551,228.579Z" transform="translate(-521.806 -108.116)" fill="#fff"/>
  <path id="Path_501" data-name="Path 501" d="M580.615,236.2a9.007,9.007,0,0,1-2.636-.392,5.973,5.973,0,0,1-3.061-1.992,3.722,3.722,0,0,1-.531-3.719.516.516,0,1,1,.939.43,2.712,2.712,0,0,0,.416,2.666,5.032,5.032,0,0,0,2.538,1.627,8.055,8.055,0,0,0,5.732-.4.517.517,0,0,1,.438.936A9.062,9.062,0,0,1,580.615,236.2Z" transform="translate(-526.855 -94.956)" fill="#fff"/>
  <path id="Path_502" data-name="Path 502" d="M585.793,234.22a9.013,9.013,0,0,1-2.639-.392,5.986,5.986,0,0,1-3.061-1.991,3.729,3.729,0,0,1-.531-3.719.516.516,0,1,1,.939.43,2.717,2.717,0,0,0,.416,2.666,5.037,5.037,0,0,0,2.541,1.627,8.063,8.063,0,0,0,5.73-.4.515.515,0,1,1,.438.933A9.042,9.042,0,0,1,585.793,234.22Z" transform="translate(-517.948 -98.368)" fill="#fff"/>
  <path id="Path_503" data-name="Path 503" d="M589.626,238.886a9.041,9.041,0,0,1-2.639-.392,5.976,5.976,0,0,1-3.058-1.991,3.723,3.723,0,0,1-.533-3.719.516.516,0,1,1,.939.43,2.725,2.725,0,0,0,.416,2.666,5.037,5.037,0,0,0,2.541,1.627,8.07,8.07,0,0,0,5.732-.4.517.517,0,0,1,.438.936A9.063,9.063,0,0,1,589.626,238.886Z" transform="translate(-511.353 -90.306)" fill="#fff"/>
  <path id="Path_504" data-name="Path 504" d="M588.564,230.9a6.954,6.954,0,0,1-3.017-.582c-1.57-.759-2.767-2.775-1.973-4.462a.516.516,0,0,1,.933.441c-.522,1.107.354,2.544,1.488,3.091a8.2,8.2,0,0,0,4.266.389,7.713,7.713,0,0,0,4.051-1.1.516.516,0,0,1,.615.83,8.641,8.641,0,0,1-4.579,1.295C589.816,230.847,589.2,230.9,588.564,230.9Z" transform="translate(-510.993 -102.272)" fill="#fff"/>
</svg>
