<svg id="Group_3035" data-name="Group 3035" xmlns="http://www.w3.org/2000/svg" width="150.735" height="205" viewBox="0 0 150.735 205">
  <path id="Path_242" data-name="Path 242" d="M467.024,266.6c-4.625-28.259-12.306-44.477-25.253-52.106l1.39-7.147c.34.03.683.054,1.031.054,6.921,0,17.654-1,17.654-7.953s-8.586-19.443-15.508-19.443-17.866,9.974-17.866,16.927c0,5.275,6.418,7.661,11,9.536l-1.662,6.027c-5.5-2.345-11.846-3.43-19.181-3.43-9.37,0-17.129,1.756-23.572,5.681l-2.283-8.278c4.579-1.875,13.954-4.261,13.954-9.536,0-6.953-11.756-14.714-18.677-14.714s-19.249,14.3-19.249,21.253,12.327,3.931,19.249,3.931c.348,0,.691-.024,1.031-.054l1.992,10.237c-10.328,8.568-16.767,24.123-20.84,49.017-6.9,42.137-35.08,97.5,48.395,97.5s55.292-55.366,48.4-97.5M433.7,195.928c0-4.339,7.985-12.066,12.305-12.066s10.787,9.4,10.787,13.743-8.276,5.067-12.6,5.067-10.5-2.4-10.5-6.744m-45.647,6.744c-4.323,0-12.338,1.285-12.338-3.057s7.816-14.246,12.137-14.246,14.158,6.555,14.158,10.894-9.636,6.409-13.957,6.409" transform="translate(-348.25 -180.008)" fill="#f3c239"/>
  <ellipse id="Ellipse_8" data-name="Ellipse 8" cx="14.61" cy="13.786" rx="14.61" ry="13.786" transform="translate(76.896 58.43)" fill="#fff"/>
  <ellipse id="Ellipse_9" data-name="Ellipse 9" cx="13.823" cy="13.044" rx="13.823" ry="13.044" transform="translate(35.54 63.038)" fill="#fff"/>
  <path id="Path_243" data-name="Path 243" d="M413.591,213.475c-2.035-7.036-7.922-12.066-15.467-12.066a13.661,13.661,0,0,0-11.963,6.772c-1.129,1.853-1.611,4.3-2.239,6.472,0,0,8.537-7.2,17.891-7.471C405.1,207.087,413.591,213.475,413.591,213.475Z" transform="translate(-307.242 -143.501)" fill="#c49728"/>
  <path id="Path_244" data-name="Path 244" d="M384.211,211.276a6.456,6.456,0,1,1-6.456-6.456,6.455,6.455,0,0,1,6.456,6.456" transform="translate(-328.962 -137.681)" fill="#1d2536"/>
  <path id="Path_245" data-name="Path 245" d="M398.889,210.6a5.781,5.781,0,1,1-5.779-5.781,5.779,5.779,0,0,1,5.779,5.781" transform="translate(-301.385 -137.679)" fill="#1d2536"/>
  <path id="Path_246" data-name="Path 246" d="M399.238,188.8a4.882,4.882,0,1,1-4.881-4.884,4.88,4.88,0,0,1,4.881,4.884" transform="translate(-297.69 -173.279)" fill="#1d2536"/>
  <path id="Path_247" data-name="Path 247" d="M396.587,213.484a14.465,14.465,0,0,0-27.737,0Z" transform="translate(-333.176 -140.561)" fill="#c49728"/>
  <path id="Path_248" data-name="Path 248" d="M368.145,186.677a7.733,7.733,0,0,0,14.659-2.234Z" transform="translate(-334.389 -172.377)" fill="#1d2536"/>
  <path id="Path_249" data-name="Path 249" d="M394.462,194.8l.558,3.18,3.2.452-2.849,1.5.559,3.171-2.32-2.248-2.851,1.511,1.415-2.885-2.323-2.228,3.2.453Z" transform="translate(-297.046 -154.764)" fill="#c49728"/>
  <path id="Path_250" data-name="Path 250" d="M386.779,192.92l2.046.86,1.45-1.68-.195,2.2,2.041.856-2.163.505-.187,2.21-1.141-1.891-2.151.514,1.45-1.68Z" transform="translate(-302.844 -159.201)" fill="#c49728"/>
  <path id="Path_251" data-name="Path 251" d="M388.493,194.789l1.186.5.841-.974-.113,1.278,1.184.5-1.254.293-.109,1.282-.662-1.1-1.248.3.841-.974Z" transform="translate(-299.677 -155.594)" fill="#c49728"/>
  <path id="Path_252" data-name="Path 252" d="M378.947,193.253l1.721-.433.12-1.77.934,1.5,1.716-.433-1.14,1.362.942,1.5-1.638-.661-1.129,1.362.121-1.771Z" transform="translate(-315.803 -161.008)" fill="#c49728"/>
  <path id="Path_253" data-name="Path 253" d="M378.515,233.151l2.633-.662.184-2.708,1.428,2.3,2.625-.663-1.744,2.083,1.441,2.3-2.505-1.011-1.727,2.083.185-2.709Z" transform="translate(-316.545 -95.079)" fill="#c49728"/>
  <path id="Path_254" data-name="Path 254" d="M374.043,236.3l1.6-2.756-2.127-2.372,3.1.68,1.592-2.75.324,3.172,3.113.67-2.9,1.279.338,3.158-2.126-2.373Z" transform="translate(-325.15 -96.234)" fill="#c49728"/>
  <path id="Path_255" data-name="Path 255" d="M395.083,242.34l1.6-2.756-2.127-2.372,3.1.68,1.592-2.75.324,3.172,3.113.67-2.9,1.279.338,3.158L398,241.05Z" transform="translate(-288.949 -85.933)" fill="#c49728"/>
  <path id="Path_256" data-name="Path 256" d="M399.429,244.477l-.186-2.5-2.434-.595,2.315-.936-.188-2.491,1.619,1.915,2.318-.947-1.314,2.118,1.622,1.9-2.434-.6Z" transform="translate(-285.069 -81.125)" fill="#c49728"/>
  <path id="Path_257" data-name="Path 257" d="M401.352,242.7l-.152-2.046-1.993-.487,1.9-.766-.154-2.04,1.325,1.568,1.9-.776-1.076,1.735,1.328,1.555-1.993-.488Z" transform="translate(-280.943 -82.135)" fill="#c49728"/>
  <path id="Path_258" data-name="Path 258" d="M401.107,238.105l-.153-2.046-1.993-.487,1.9-.766-.154-2.04,1.325,1.568,1.9-.776-1.076,1.735,1.328,1.555-1.993-.488Z" transform="translate(-281.364 -89.979)" fill="#c49728"/>
  <path id="Path_259" data-name="Path 259" d="M391.962,250.838l-.307-4.114-4.008-.979,3.813-1.541-.31-4.1,2.665,3.153,3.817-1.56-2.164,3.488,2.671,3.127-4.008-.981Z" transform="translate(-300.833 -77.486)" fill="#c49728"/>
  <path id="Path_260" data-name="Path 260" d="M369.781,240.088l2.822-3.009-1.99-3.614,3.714,1.765,2.812-3-.519,4.1,3.731,1.755-4.033.766-.5,4.082-1.989-3.615Z" transform="translate(-331.573 -90.92)" fill="#c49728"/>
  <path id="Path_261" data-name="Path 261" d="M370.8,237.64l-.715-2.189-2.3,0,1.861-1.344-.715-2.183,1.866,1.354,1.861-1.355-.708,2.18,1.865,1.339-2.3,0Z" transform="translate(-335.02 -91.414)" fill="#c49728"/>
  <path id="Path_262" data-name="Path 262" d="M362.939,241.594l2.083-2.221-1.469-2.668,2.742,1.3,2.076-2.217-.383,3.023,2.754,1.3-2.977.566-.366,3.014-1.468-2.668Z" transform="translate(-343.347 -84.827)" fill="#c49728"/>
  <path id="Path_263" data-name="Path 263" d="M377.747,254.674c-9.895-17-15.565-48.637-15.565-48.637s-4.9-5.112-3.344-6.745c1.2-1.257,3.681,2.941,3.681,2.941s-1.763-5.509-.365-6.334,2.922,5.39,2.922,5.39.112-6.2,1.385-5.9,1.548,6.712,1.548,6.712,2.152-2.345,3.268-1.437c1.273,1.037-2.019,4.462-2.019,4.462,4.761,27.99,13.247,45.93,13.247,45.93Z" transform="translate(-350.929 -153.856)" fill="#f3c239"/>
  <path id="Path_264" data-name="Path 264" d="M402.721,249.053c-25.933,14.1-35.477,27.889-39.376,27.742-2.606-.1-8.935-10.9-7.359-13.114s7.354,4.165,7.354,4.165,17.352-17.1,35.034-24.342Z" transform="translate(-355.738 -71.797)" fill="#f3c239"/>
  <path id="Path_265" data-name="Path 265" d="M402.2,254.3c12.322-17.039,21.694-50.082,21.694-50.082s5.754-4.922,4.269-6.821c-1.145-1.464-4.225,2.737-4.225,2.737s2.459-5.67,1.058-6.7-3.678,5.425-3.678,5.425.539-6.606-.849-6.418-2.359,6.973-2.359,6.973-2.038-2.723-3.319-1.875c-1.464.971,1.676,4.962,1.676,4.962-8.023,29.263-18.947,47.445-18.947,47.445a3.765,3.765,0,0,0,1.281,3.768A3.433,3.433,0,0,0,402.2,254.3Z" transform="translate(-284.003 -158.87)" fill="#f3c239"/>
  <path id="Path_266" data-name="Path 266" d="M395.7,247.179c26.094,8.5,40.2-6.317,43.876-5.025,2.462.868,6.8,11.8,4.644,13.443s-7.289-4.892-7.289-4.892-12.754,15.021-44.711,5.286a6.745,6.745,0,0,1-.133-5.493C393.591,246.746,395.7,247.179,395.7,247.179Z" transform="translate(-294.072 -74.262)" fill="#f3c239"/>
  <g id="Group_29" data-name="Group 29" transform="translate(45.016 98.712)">
    <path id="Path_267" data-name="Path 267" d="M376.637,221.612c1.581-.019,4.633,5.335,4.794,5.624a12.757,12.757,0,0,1-7.436-.28l.09-.269S375,221.634,376.637,221.612Z" transform="translate(-369.34 -207.701)" fill="#fff"/>
    <path id="Path_268" data-name="Path 268" d="M384.375,236.033c-.161-.288-3.213-5.643-4.794-5.624-1.632.022-2.552,5.074-2.552,5.074l-.09.269c-3.684-1.319-6.306-4.573-3.433-10.477a14.349,14.349,0,0,1,8.336-7.346l.041.112s2.01,6.154,3.8,5.964,3.014-7.174,3.014-7.174l-.011-.25c2.772-.18,5.213-.011,6.666.011a49.53,49.53,0,0,1,9.846,1.028l-.079.332s-.411,7.474,1.061,8.116,6.113-5.594,6.113-5.594l.19-.351c7.025,3.621,8.935,9.427,6.3,14.419-3.112,5.9-7.675,5.194-12.178,3.613-.25-.781-2.1-6.394-3.624-6.535-1.622-.139-4.5,3.624-4.5,3.624l-.03.169a25.134,25.134,0,0,0-13.62.471C384.685,235.935,384.532,235.984,384.375,236.033Z" transform="translate(-372.284 -216.499)" fill="#1d110b"/>
    <path id="Path_269" data-name="Path 269" d="M386.436,222.059c1.521.141,3.374,5.754,3.624,6.535-1.483-.52-2.963-1.14-4.383-1.651a31.651,31.651,0,0,0-3.774-1.091l.03-.169S384.814,221.921,386.436,222.059Z" transform="translate(-355.733 -206.938)" fill="#fff"/>
    <path id="Path_270" data-name="Path 270" d="M391.751,219.414l-.19.351s-4.644,6.225-6.113,5.594-1.061-8.116-1.061-8.116l.079-.332A28.686,28.686,0,0,1,391.751,219.414Z" transform="translate(-351.551 -215.79)" fill="#fff"/>
    <path id="Path_271" data-name="Path 271" d="M382.642,216.529l.011.25s-1.232,6.995-3.014,7.174-3.8-5.964-3.8-5.964l-.041-.112A24.828,24.828,0,0,1,382.642,216.529Z" transform="translate(-366.239 -216.447)" fill="#fff"/>
  </g>
  <path id="Path_272" data-name="Path 272" d="M412.495,240.9h0c-2.65,0-5.362-1.053-7.988-2.068-.672-.261-1.336-.517-1.986-.751a29.321,29.321,0,0,0-9.808-1.741,20.067,20.067,0,0,0-6.905,1.113,11.767,11.767,0,0,1-3.986.637c-3.1,0-7.065-1.053-8.915-4.01-.99-1.583-1.739-4.364.329-8.608,3.058-6.285,9.19-9.34,18.745-9.34,1.037,0,1.981.033,2.781.06.463.014.879.03,1.233.033,11.857.155,20.636,3.578,24.089,9.389a9.935,9.935,0,0,1,.218,10.028C418.431,239.181,415.876,240.9,412.495,240.9Zm-19.782-6.56A31.42,31.42,0,0,1,403.2,236.2c.667.239,1.347.5,2.035.77,2.451.95,4.99,1.932,7.264,1.932,2.606,0,4.524-1.33,6.034-4.19a8,8,0,0,0-.169-8.075c-3.088-5.2-11.25-8.263-22.391-8.407-.367-.005-.8-.019-1.276-.035-.781-.027-1.7-.06-2.713-.06-8.711,0-14.253,2.688-16.944,8.214-1.339,2.751-1.483,5-.433,6.674,1.415,2.264,4.655,3.072,7.218,3.072a9.9,9.9,0,0,0,3.3-.517A22.03,22.03,0,0,1,392.713,234.341Z" transform="translate(-327.895 -118.419)" fill="#ea5f4c"/>
</svg>
