<svg xmlns="http://www.w3.org/2000/svg" width="154.34" height="196.49" viewBox="0 0 154.34 196.49">
  <g id="Group_4443" data-name="Group 4443" transform="translate(-860.32 -192.42)">
    <g id="Group_32" data-name="Group 32" transform="translate(860.32 192.42)">
      <path id="Path_273" data-name="Path 273" d="M884.11,218.308s-9.761-.98-15.912-7.962c-4.544-5.156-1.842-16.007,2-17.666s4.807,4.954,7.467,10.83c3.124,6.9,11.026,11.484,11.026,11.484S888.851,220.232,884.11,218.308Z" transform="translate(-849.02 -192.42)" fill="#0f82a2"/>
      <path id="Path_274" data-name="Path 274" d="M905.969,216.007s9.565,2.2,17.629-2.443c5.953-3.43,6.869-14.575,3.766-17.378s-6.142,3.155-10.546,7.868c-5.174,5.54-14.126,7.345-14.126,7.345S899.674,215.176,905.969,216.007Z" transform="translate(-774.765 -186.166)" fill="#0f82a2"/>
      <path id="Path_275" data-name="Path 275" d="M893.246,253.09c-2.132,4.74-.889,12.922-1.872,14.474s-12.965,1.585-13-.07,5.214-4.636,5.214-4.636c-.593-2.333.873-12.721.873-12.721s2.923-2.19,6.026-.8S893.246,253.09,893.246,253.09Z" transform="translate(-823.237 -76.45)" fill="#afcb89"/>
      <path id="Path_276" data-name="Path 276" d="M904.624,252.2c-.2,5.2,4.007,12.318,3.677,14.126s-11.435,6.316-12.089,4.8,3.1-6.252,3.1-6.252c-1.417-1.942-3.949-12.122-3.949-12.122a4.925,4.925,0,0,1,2.975-3C901.552,248.9,904.624,252.2,904.624,252.2Z" transform="translate(-788.326 -74.94)" fill="#afcb89"/>
      <path id="Path_277" data-name="Path 277" d="M879.024,219.211s-10.763.825-15.417,16.346c-3.628,12.1-3.616,22.219-2.935,23.664s3.03-2.724,3.03-2.724,1.93,4.053,3.076,3.616.467-4.633.467-4.633,2.862,1.665,3.967.263-3.8-4.655-3.8-4.655.085-22.711,12.327-22.58c0,0,3.561-3.35,3.347-5.278S879.024,219.211,879.024,219.211Z" transform="translate(-860.32 -137.385)" fill="#afcb89"/>
      <path id="Path_278" data-name="Path 278" d="M975.831,319.812c-1.7-21.419,24.153-73.295.834-103.879-19.217-25.206-74.623-35.612-99.249,6.518s-3.766,123.414,27.32,138.8c27.955,13.842,71.422,7.2,76.672-6.591S976.924,333.553,975.831,319.812Z" transform="translate(-847.465 -189.338)" fill="#6fc5cd"/>
      <g id="Group_31" data-name="Group 31" transform="translate(60.35 44.86)">
        <path id="Path_279" data-name="Path 279" d="M884.479,217.458c10.009-8.149,20.771-3.286,22.466-2.428a26.93,26.93,0,0,1-14.627,3.747,24.468,24.468,0,0,1-7.855-1.295Z" transform="translate(-871.075 -195.396)" fill="#92b620"/>
        <path id="Path_280" data-name="Path 280" d="M896.933,207.151c-.18,1.271-1.194,8.069-2.966,8.081-1.655,0-3.515-4.4-4.068-5.785A40.566,40.566,0,0,1,896.933,207.151Z" transform="translate(-859.908 -207.018)" fill="#fff"/>
        <path id="Path_281" data-name="Path 281" d="M923.109,209.974c2.437,4.963-.076,12.342-7.159,16.768-1.695-.858-12.458-5.72-22.466,2.428l-.015.024c-11.649-3.992-15.424-16.053-12.382-18.655,3.375-2.9,6.786,1.051,18.8,1.423,3.347.1,6.878-1.154,10.186-2.425.553,1.384,2.413,5.785,4.068,5.785,1.771-.012,2.785-6.811,2.966-8.081C919.7,206.816,921.814,207.329,923.109,209.974Z" transform="translate(-880.08 -207.108)" fill="#1d110b"/>
      </g>
      <path id="Path_282" data-name="Path 282" d="M907.1,219.005s10.378,2.953,11.841,19.092c1.142,12.577-.889,22.494-1.842,23.774s-2.425-3.274-2.425-3.274-2.7,3.586-3.738,2.929.464-4.633.464-4.633-3.134,1.063-3.937-.534,4.649-3.8,4.649-3.8,4.453-22.274-7.572-24.586C904.542,227.972,900.855,222.227,907.1,219.005Z" transform="translate(-771.698 -137.808)" fill="#afcb89"/>
      <path id="Path_283" data-name="Path 283" d="M891.046,213.074a8.694,8.694,0,1,0-8.628,8.753A8.688,8.688,0,0,0,891.046,213.074Z" transform="translate(-832.92 -167.721)" fill="#5c2176" opacity="0.2" style="mix-blend-mode: multiply;isolation: isolate"/>
      <path id="Path_284" data-name="Path 284" d="M889.452,212.442a7.741,7.741,0,1,0-7.684,7.794A7.738,7.738,0,0,0,889.452,212.442Z" transform="translate(-832.279 -167.082)" fill="#fff"/>
      <path id="Path_285" data-name="Path 285" d="M880.513,208.883a2.4,2.4,0,1,0-2.382,2.416A2.4,2.4,0,0,0,880.513,208.883Z" transform="translate(-828.683 -163.487)" fill="#1d110b"/>
      <path id="Path_286" data-name="Path 286" d="M912.75,213.216a8.692,8.692,0,1,0-8.628,8.753A8.692,8.692,0,0,0,912.75,213.216Z" transform="translate(-788.33 -167.436)" fill="#5c2176" opacity="0.2" style="mix-blend-mode: multiply;isolation: isolate"/>
      <path id="Path_287" data-name="Path 287" d="M911.159,212.582a7.741,7.741,0,1,0-7.684,7.794A7.741,7.741,0,0,0,911.159,212.582Z" transform="translate(-787.689 -166.795)" fill="#fff"/>
      <path id="Path_288" data-name="Path 288" d="M902.222,209.023a2.4,2.4,0,1,0-2.382,2.416A2.4,2.4,0,0,0,902.222,209.023Z" transform="translate(-784.094 -163.2)" fill="#1d110b"/>
    </g>
    <path id="Path_289" data-name="Path 289" d="M868.444,222.247a31.518,31.518,0,0,0,.8,3.3,33.305,33.305,0,0,0,3.876,8.726,15.308,15.308,0,0,0,4.728,4.746,10.661,10.661,0,0,0,7.587,1.313c.342-.07.708-.128,1.036-.211.354-.1.712-.2,1.072-.305a15.3,15.3,0,0,0,2.044-.828,10.457,10.457,0,0,0,3.583-2.81,10.715,10.715,0,0,0,1.71-9.4,10.129,10.129,0,0,0-2.431-4.615,3.029,3.029,0,0,0-2.227-1.032l-.15.009c.04-.028-.085.024-.119.031-.11.037-.232.07-.336.113a2.275,2.275,0,0,0-.443.345,3.554,3.554,0,0,0-.727,1.087,12.263,12.263,0,0,0-.693,5.607,18.924,18.924,0,0,0,1.393,5.757,14.529,14.529,0,0,0,3.384,5.006,12.01,12.01,0,0,0,2.511,1.774,11.8,11.8,0,0,0,2.92,1.038,14.411,14.411,0,0,0,3.125.321l1.579-.1c.538-.073,1.09-.128,1.619-.223a22.351,22.351,0,0,0,6.142-1.979,18.918,18.918,0,0,0,5.208-3.891,13.525,13.525,0,0,0,3.192-5.656,8.242,8.242,0,0,0,.22-3.2,4.506,4.506,0,0,0-1.377-2.718,4.167,4.167,0,0,0-1.326-.782,3.075,3.075,0,0,0-.748-.144,2.607,2.607,0,0,1-.308.012,3.094,3.094,0,0,0-.336.095,4.182,4.182,0,0,0-2.135,2.181,16.623,16.623,0,0,0-1.592,6.609,20.3,20.3,0,0,0,.764,6.857,10.446,10.446,0,0,0,3.671,5.608,7.9,7.9,0,0,0,3.088,1.292,12.173,12.173,0,0,0,3.445-.012A20.281,20.281,0,0,0,934.4,239.9a14.5,14.5,0,0,0,3.457-5.943,7.644,7.644,0,0,0,.2-3.326,4.374,4.374,0,0,0-1.6-2.709,5.6,5.6,0,0,0-1.4-.785c-.186-.037-.556-.171-.785-.192a2.5,2.5,0,0,0-.69.021,2.676,2.676,0,0,0-1.3.614,4.841,4.841,0,0,0-.947,1.237,11.9,11.9,0,0,0-1.026,6.457c.366,4.4,2.608,8.793,6.46,10.836a12.9,12.9,0,0,0,6.175,1.552,21.124,21.124,0,0,0,3.183-.208l1.6-.293,1.521-.4a14.742,14.742,0,0,0,5.452-2.88A11.952,11.952,0,0,0,958.151,239a14.363,14.363,0,0,0,.861-5.785,16.164,16.164,0,0,0-1.231-5.546,7.882,7.882,0,0,0-3.25-4.071,2.174,2.174,0,0,0-.553-.183l-.278-.058-.275.012-.137,0c.006-.006-.113.009,0-.009l-.083.024-.33.095a1.668,1.668,0,0,0-.376.244,3.231,3.231,0,0,0-.7,2.132,14.666,14.666,0,0,0,.877,4.936,23.1,23.1,0,0,0,2.074,4.423,14.658,14.658,0,0,0,6.359,6.093,7.267,7.267,0,0,0,3.888.531,9.041,9.041,0,0,0,3.46-1.335,23.246,23.246,0,0,0,5.085-4.438,12.465,12.465,0,0,0,2.395-4.8,10.307,10.307,0,0,0,.152-3.967,11.256,11.256,0,0,0-.693-2.385,6.222,6.222,0,0,0-.37-.754.219.219,0,1,1,.37-.235,6.585,6.585,0,0,1,.421.8,11.6,11.6,0,0,1,.782,2.48,10.869,10.869,0,0,1-.064,4.19,12.793,12.793,0,0,1-2.425,5.116,24.139,24.139,0,0,1-5.219,4.658,9.863,9.863,0,0,1-3.772,1.5,8.136,8.136,0,0,1-4.346-.547,15.561,15.561,0,0,1-6.86-6.4,24.128,24.128,0,0,1-2.211-4.6,14.511,14.511,0,0,1-.959-5.323,4.171,4.171,0,0,1,1.066-2.837,2.82,2.82,0,0,1,.785-.464l.33-.092.086-.024a.418.418,0,0,1,.165-.021l.208-.006.415-.006.4.083a2.9,2.9,0,0,1,.754.263,6.21,6.21,0,0,1,2.254,2.01,11.94,11.94,0,0,1,1.429,2.605,17.007,17.007,0,0,1,1.207,5.87,15.15,15.15,0,0,1-1.008,6.078,12.794,12.794,0,0,1-3.634,5.183,15.515,15.515,0,0,1-5.718,3.051c-.531.14-1.069.3-1.6.421l-1.594.3a22.711,22.711,0,0,1-3.338.241,13.726,13.726,0,0,1-6.576-1.6,12.424,12.424,0,0,1-2.8-2.059,14.317,14.317,0,0,1-2.126-2.773,16.379,16.379,0,0,1-2.107-6.67,12.61,12.61,0,0,1,1.121-7.037,5.818,5.818,0,0,1,1.167-1.515,3.495,3.495,0,0,1,2.88-.809,9.2,9.2,0,0,1,.907.253,6.555,6.555,0,0,1,1.622.971,5.227,5.227,0,0,1,1.817,3.265,8.384,8.384,0,0,1-.3,3.659,16.6,16.6,0,0,1-3.68,6.182,21.23,21.23,0,0,1-12.6,6.609,13.143,13.143,0,0,1-3.668.055,8.776,8.776,0,0,1-3.457-1.393,11.223,11.223,0,0,1-4.041-6.056,21.137,21.137,0,0,1-.828-7.171,17.456,17.456,0,0,1,1.674-7.009,6.93,6.93,0,0,1,1.054-1.551,6.169,6.169,0,0,1,.718-.66,3.79,3.79,0,0,1,.91-.455,3.915,3.915,0,0,1,3.7.98A5.54,5.54,0,0,1,920.1,227a9.2,9.2,0,0,1-.193,3.647,16.177,16.177,0,0,1-9.019,10.241A23.244,23.244,0,0,1,904.4,242.8c-.553.086-1.09.122-1.634.186-.58.037-1.124.049-1.683.064a15.228,15.228,0,0,1-3.292-.415,12.8,12.8,0,0,1-3.073-1.173,13.912,13.912,0,0,1-2.612-1.924,15.146,15.146,0,0,1-3.54-5.21,19.491,19.491,0,0,1-1.453-5.95,12.868,12.868,0,0,1,.736-5.931,4.259,4.259,0,0,1,.865-1.286,2.631,2.631,0,0,1,.7-.5c.116-.046.226-.073.339-.113a.99.99,0,0,1,.22-.055l.2-.015a3.662,3.662,0,0,1,2.74,1.209,10.8,10.8,0,0,1,2.639,4.92,11.451,11.451,0,0,1-1.8,10.042,13.153,13.153,0,0,1-8.194,4.4,11.374,11.374,0,0,1-8.051-1.46,15.961,15.961,0,0,1-4.9-4.975,35.581,35.581,0,0,1-4.594-12.29v-.006a.221.221,0,0,1,.186-.25A.226.226,0,0,1,868.444,222.247Z" transform="translate(15.792 57.607)" fill="#f7ef93"/>
    <path id="Path_290" data-name="Path 290" d="M871.051,232.6a25.772,25.772,0,0,0,.675,2.776,28.4,28.4,0,0,0,3.241,7.345,13.42,13.42,0,0,0,3.912,4.044,9.166,9.166,0,0,0,6.328,1.274,11.186,11.186,0,0,0,6.609-3.28,8.885,8.885,0,0,0,1.818-7.785,9.417,9.417,0,0,0-1.805-4,3.553,3.553,0,0,0-1.723-1.237,1.49,1.49,0,0,0-1.7.764,8.559,8.559,0,0,0-.913,4.591,16.1,16.1,0,0,0,.941,4.884,13.021,13.021,0,0,0,2.578,4.38,9.681,9.681,0,0,0,4.328,2.764,11.881,11.881,0,0,0,5.262.33,16.271,16.271,0,0,0,5.183-1.512,10.243,10.243,0,0,0,4.025-3.467,8.387,8.387,0,0,0,1.387-5.113,6.4,6.4,0,0,0-2.26-4.694c-.69-.5-1.606-.965-2.235-.718a2.78,2.78,0,0,0-1.356,1.979,14.2,14.2,0,0,0-.116,5.693,19.217,19.217,0,0,0,1.744,5.543,11.8,11.8,0,0,0,3.619,4.426,8.03,8.03,0,0,0,5.391,1.463,16.028,16.028,0,0,0,10.39-4.929,13.042,13.042,0,0,0,3.036-4.926,6.219,6.219,0,0,0-.351-5.391c-.956-1.429-3.2-2.364-4.288-1.048a5.055,5.055,0,0,0-1.157,2.349,11.124,11.124,0,0,0-.278,2.761,13.268,13.268,0,0,0,4.27,9.841A10.39,10.39,0,0,0,932.395,254a14.643,14.643,0,0,0,5.311-.012,15.019,15.019,0,0,0,9.046-4.569,11.733,11.733,0,0,0,2.734-9.028,8.241,8.241,0,0,0-1.567-4.163,2.7,2.7,0,0,0-1.588-1.032,1.418,1.418,0,0,0-1.46.629,6.229,6.229,0,0,0-.455,3.915,14.724,14.724,0,0,0,1.121,3.9c1.066,2.41,2.731,4.517,4.862,5.378a6.454,6.454,0,0,0,6.081-1,17.529,17.529,0,0,0,4.233-3.769,10.2,10.2,0,0,0,1.988-4.029,8.716,8.716,0,0,0,.1-3.332,9.022,9.022,0,0,0-.58-2,4.86,4.86,0,0,0-.311-.629.218.218,0,0,1,.07-.3.221.221,0,0,1,.3.067,5.762,5.762,0,0,1,.36.678,9.466,9.466,0,0,1,.666,2.1,9.242,9.242,0,0,1-.006,3.549,10.639,10.639,0,0,1-2.013,4.346,18.4,18.4,0,0,1-4.355,3.98A9.143,9.143,0,0,1,953.8,250.1a6.353,6.353,0,0,1-3.729-.263c-2.474-.977-4.267-3.259-5.437-5.8a15.832,15.832,0,0,1-1.255-4.157,10.515,10.515,0,0,1-.113-2.291,4.806,4.806,0,0,1,.724-2.376,2.546,2.546,0,0,1,1.087-.907,3.426,3.426,0,0,1,.37-.119l.137-.027.107-.018.086-.009a2.752,2.752,0,0,1,.708.018,3.567,3.567,0,0,1,2.22,1.435,9.266,9.266,0,0,1,1.668,4.7,12.779,12.779,0,0,1-3.073,9.605,17.711,17.711,0,0,1-15.067,4.911,11.222,11.222,0,0,1-5.2-2.431,14.27,14.27,0,0,1-4.713-10.5,12.185,12.185,0,0,1,.305-3.015,6.037,6.037,0,0,1,1.42-2.825,2.886,2.886,0,0,1,1.512-.843,3.117,3.117,0,0,1,1.7.162,4.96,4.96,0,0,1,2.5,1.976,5.487,5.487,0,0,1,.824,3.036,9.731,9.731,0,0,1-.556,3.03,14.927,14.927,0,0,1-3.188,5.165,16.97,16.97,0,0,1-10.772,5.268,8.858,8.858,0,0,1-5.992-1.518,12.7,12.7,0,0,1-3.928-4.743,20.021,20.021,0,0,1-1.857-5.806,15.059,15.059,0,0,1,.11-6.1,5.77,5.77,0,0,1,.623-1.49,2.766,2.766,0,0,1,1.329-1.161,2.507,2.507,0,0,1,1.784.055,5.535,5.535,0,0,1,1.42.76,7.412,7.412,0,0,1,2.764,5.452,9.53,9.53,0,0,1-1.542,5.83,10.813,10.813,0,0,1-4.532,3.8,16.649,16.649,0,0,1-5.546,1.408,13.182,13.182,0,0,1-5.58-.537,10.789,10.789,0,0,1-4.569-3.008,13.659,13.659,0,0,1-2.715-4.581,16.656,16.656,0,0,1-.99-5.079,9.089,9.089,0,0,1,1.008-4.969,2.544,2.544,0,0,1,1.008-.932,2.155,2.155,0,0,1,1.393-.113,4.144,4.144,0,0,1,2.083,1.448,10.051,10.051,0,0,1,1.973,4.291,9.61,9.61,0,0,1-1.946,8.42,11.62,11.62,0,0,1-7.061,3.5,9.892,9.892,0,0,1-6.786-1.426,14.1,14.1,0,0,1-4.071-4.273,27.446,27.446,0,0,1-3.207-7.544,26.369,26.369,0,0,1-.629-2.834l0-.006a.221.221,0,0,1,.437-.067Z" transform="translate(21.143 79.313)" fill="#f7ef93"/>
    <path id="Path_291" data-name="Path 291" d="M875.064,242.352a24.91,24.91,0,0,0,.642,2.636,26.941,26.941,0,0,0,3.085,6.982,12.78,12.78,0,0,0,3.717,3.842,8.707,8.707,0,0,0,6.007,1.206,10.637,10.637,0,0,0,6.273-3.115,8.437,8.437,0,0,0,1.726-7.388,8.918,8.918,0,0,0-1.713-3.8,3.334,3.334,0,0,0-1.631-1.17,1.4,1.4,0,0,0-1.6.718,8.092,8.092,0,0,0-.865,4.355,15.217,15.217,0,0,0,.9,4.639,12.412,12.412,0,0,0,2.446,4.163,9.212,9.212,0,0,0,4.111,2.624,11.235,11.235,0,0,0,5,.305,15.315,15.315,0,0,0,4.92-1.442,9.706,9.706,0,0,0,3.815-3.289,7.9,7.9,0,0,0,1.313-4.844,6.063,6.063,0,0,0-2.135-4.444c-.657-.473-1.524-.913-2.1-.681a2.621,2.621,0,0,0-1.273,1.866,13.449,13.449,0,0,0-.11,5.406,18.142,18.142,0,0,0,1.655,5.265,11.234,11.234,0,0,0,3.436,4.2,7.612,7.612,0,0,0,5.113,1.387,15.208,15.208,0,0,0,9.871-4.679,12.442,12.442,0,0,0,2.883-4.682,5.885,5.885,0,0,0-.339-5.11c-.907-1.35-3.027-2.227-4.044-.99a4.809,4.809,0,0,0-1.093,2.227,10.716,10.716,0,0,0-.266,2.617,12.625,12.625,0,0,0,4.053,9.343,9.89,9.89,0,0,0,4.545,2.178,13.922,13.922,0,0,0,5.042-.012,14.274,14.274,0,0,0,8.6-4.337,11.142,11.142,0,0,0,2.587-8.573,7.8,7.8,0,0,0-1.484-3.946,2.555,2.555,0,0,0-1.5-.971,1.33,1.33,0,0,0-1.365.586,5.965,5.965,0,0,0-.431,3.708,14.078,14.078,0,0,0,1.069,3.7,9.411,9.411,0,0,0,4.606,5.1,6.127,6.127,0,0,0,5.766-.944,16.751,16.751,0,0,0,4.026-3.579,9.79,9.79,0,0,0,1.89-3.824,8.314,8.314,0,0,0-.458-5.064,5.322,5.322,0,0,0-.293-.6.221.221,0,0,1,.067-.3.224.224,0,0,1,.3.067,5.563,5.563,0,0,1,.345.648,9.053,9.053,0,0,1,.638,1.994,8.924,8.924,0,0,1-.006,3.381,10.137,10.137,0,0,1-1.915,4.142,17.416,17.416,0,0,1-4.144,3.79,8.692,8.692,0,0,1-2.978,1.362,6.073,6.073,0,0,1-3.564-.25,10.3,10.3,0,0,1-5.183-5.522,15.158,15.158,0,0,1-1.2-3.961,10.1,10.1,0,0,1-.11-2.184,4.622,4.622,0,0,1,.693-2.269,2.459,2.459,0,0,1,1.048-.873,2.577,2.577,0,0,1,.354-.113l.134-.028.1-.018.082-.009a2.525,2.525,0,0,1,.678.018,3.414,3.414,0,0,1,2.129,1.374,8.813,8.813,0,0,1,1.588,4.484,12.193,12.193,0,0,1-2.929,9.15,16.877,16.877,0,0,1-14.345,4.679,10.706,10.706,0,0,1-4.957-2.318,13.589,13.589,0,0,1-4.493-10,11.609,11.609,0,0,1,.29-2.871,5.742,5.742,0,0,1,1.356-2.7,2.765,2.765,0,0,1,1.451-.809,3.005,3.005,0,0,1,1.631.153,4.734,4.734,0,0,1,2.391,1.891,5.248,5.248,0,0,1,.788,2.9,9.31,9.31,0,0,1-.531,2.889,14.259,14.259,0,0,1-3.036,4.917,16.169,16.169,0,0,1-10.256,5.018,8.445,8.445,0,0,1-5.711-1.445,12.1,12.1,0,0,1-3.745-4.517,19.091,19.091,0,0,1-1.768-5.528,14.339,14.339,0,0,1,.1-5.812,5.465,5.465,0,0,1,.592-1.426,2.689,2.689,0,0,1,1.277-1.115,2.424,2.424,0,0,1,1.71.052,5.109,5.109,0,0,1,1.359.727,7.068,7.068,0,0,1,2.642,5.2,9.1,9.1,0,0,1-1.469,5.565,10.283,10.283,0,0,1-4.319,3.616,15.74,15.74,0,0,1-5.287,1.338,12.534,12.534,0,0,1-5.314-.516,11.442,11.442,0,0,1-6.936-7.226,15.845,15.845,0,0,1-.943-4.835,8.657,8.657,0,0,1,.959-4.737,2.438,2.438,0,0,1,.965-.892,2.085,2.085,0,0,1,1.335-.11,3.965,3.965,0,0,1,1.991,1.38,9.554,9.554,0,0,1,1.878,4.093,9.147,9.147,0,0,1-1.851,8.02,11.071,11.071,0,0,1-6.725,3.335,9.431,9.431,0,0,1-6.466-1.359,13.415,13.415,0,0,1-3.876-4.068,29.1,29.1,0,0,1-3.65-9.877v-.009a.221.221,0,0,1,.437-.064Z" transform="translate(29.386 99.465)" fill="#f7ef93"/>
  </g>
</svg>
