<svg xmlns="http://www.w3.org/2000/svg" width="220" height="190" viewBox="0 0 220 190">
  <g id="Group_3038" data-name="Group 3038" transform="translate(-1289.934 -1894.25)">
    <g id="Group_3037" data-name="Group 3037" transform="translate(1289.934 1894.25)">
      <g id="Group_24" data-name="Group 24" transform="translate(0 0)">
        <path id="Path_179" data-name="Path 179" d="M501.271,228.559c-1.282,1.414-2.537,2.883-3.7,4.424-10.29-7.3-26.082,13.791-26.082,13.791-4.048-23.012-24.713-15.807-24.713-15.807C448.5,218.04,434.942,213.6,434.942,213.6c3.53-10.39,27.984-27.783,32.018-28.878,4.051-1.1,5.751,5.288,12.451,16.8C488.69,217.465,498.577,226.314,501.271,228.559Z" transform="translate(-434.942 -171.433)" fill="#844686"/>
        <path id="Path_180" data-name="Path 180" d="M562,202.939s-12.725,6.483-9.02,18.977c0,0-21.514-3.931-21.977,19.44,0,0-19.539-19.079-28.373-9.135q-2.267-1.71-4.711-3.244l.232-.359s10.173-10.634,18.04-30.765c4.855-12.406,5.562-18.977,9.725-18.516S556.909,193.227,562,202.939Z" transform="translate(-341.998 -179.314)" fill="#844686"/>
        <path id="Path_181" data-name="Path 181" d="M568.211,209.776c25.291,18.919,36.153,51.472,28.373,75.765-11.57,36.1-63.084,48.273-95.794,40.722-29.309-6.772-50.895-30.071-46.269-68.95,1.845-15.461,6.974-28.647,14.814-38.892,1.165-1.541,2.42-3.01,3.7-4.424,11.8-12.765,28.487-19.868,48.574-19.609A78.794,78.794,0,0,1,563.5,206.532Q565.943,208.067,568.211,209.776Z" transform="translate(-407.581 -154.843)" fill="#c394c1"/>
      </g>
      <path id="Path_182" data-name="Path 182" d="M496.891,202.31s-12.807-15.444-16.2-12.053,1.885,6.4,1.885,6.4-9.04-1.133-9.419,2.261,10.925,2.637,10.925,2.637-6.779,5.652-3.391,10.17,9.419-4.519,9.419-4.519" transform="translate(-378.444 -163.736)" fill="#c394c1"/>
      <path id="Path_183" data-name="Path 183" d="M503.895,190.631a59.555,59.555,0,0,1,4.347,4.4c1.21,1.4,2.664,3.02,4.036,4.9.707.921,1.4,1.9,2.094,2.908.712.991,1.364,2.049,2.029,3.1.647,1.061,1.225,2.166,1.828,3.229.545,1.1,1.09,2.174,1.583,3.232.451,1.078.879,2.124,1.24,3.135.319,1.021.62,1.989.9,2.881.192.914.371,1.753.528,2.5a15.932,15.932,0,0,1,.251,1.949c.092,1.083.145,1.7.145,1.7a.179.179,0,0,1-.164.2.182.182,0,0,1-.194-.144l-.005-.02s-.122-.6-.339-1.651a14.814,14.814,0,0,0-.421-1.872c-.209-.71-.446-1.511-.7-2.385-.324-.854-.675-1.778-1.043-2.754-.4-.966-.909-1.947-1.352-3-.505-1.023-1.061-2.064-1.613-3.127-.615-1.028-1.2-2.1-1.857-3.122s-1.27-2.086-1.962-3.067c-.665-1-1.334-1.979-2.017-2.9-1.344-1.855-2.622-3.573-3.762-5.014-1.163-1.424-2.1-2.639-2.8-3.451l-1.088-1.287a.241.241,0,0,1,.025-.341A.245.245,0,0,1,503.895,190.631Z" transform="translate(-333.694 -162.544)" fill="#412046"/>
      <path id="Path_184" data-name="Path 184" d="M505.4,187.412a62.022,62.022,0,0,1,6.72,1.661c1.974.64,4.3,1.349,6.695,2.368,1.21.478,2.44,1.023,3.677,1.6,1.252.55,2.477,1.212,3.712,1.852,1.222.662,2.4,1.422,3.573,2.116,1.133.774,2.258,1.524,3.311,2.293,1.021.822,2.014,1.606,2.9,2.415.854.844,1.678,1.623,2.4,2.375.662.812,1.27,1.556,1.81,2.213a16.337,16.337,0,0,1,1.225,1.825l1,1.628a.184.184,0,0,1-.06.249.179.179,0,0,1-.239-.045l-.015-.02s-.416-.543-1.148-1.491a15.265,15.265,0,0,0-1.339-1.676c-.57-.6-1.21-1.285-1.91-2.027-.747-.695-1.591-1.412-2.46-2.188-.894-.749-1.925-1.434-2.918-2.228-1.043-.734-2.156-1.444-3.274-2.178-1.17-.657-2.325-1.379-3.538-2s-2.4-1.3-3.625-1.852c-1.208-.588-2.41-1.143-3.6-1.631-2.355-1.011-4.581-1.9-6.513-2.607-1.939-.67-3.55-1.27-4.7-1.616s-1.8-.565-1.8-.565a.24.24,0,0,1-.162-.3A.243.243,0,0,1,505.4,187.412Z" transform="translate(-331.279 -167.255)" fill="#412046"/>
      <path id="Path_185" data-name="Path 185" d="M463.305,195.409l-.856,1.429c-.56.9-1.277,2.241-2.186,3.814-.886,1.586-1.857,3.468-2.88,5.492-.52,1.006-1.021,2.064-1.511,3.145-.523,1.068-.946,2.2-1.437,3.3s-.886,2.238-1.33,3.341c-.371,1.125-.737,2.231-1.093,3.3-.271,1.091-.617,2.129-.859,3.132-.212,1.011-.413,1.967-.6,2.851-.117.891-.227,1.713-.324,2.437a14.719,14.719,0,0,0-.125,1.895l-.08,1.663,0,.022a.181.181,0,0,1-.189.172.184.184,0,0,1-.172-.169s-.045-.612-.12-1.683a15.09,15.09,0,0,1-.055-1.942c.04-.752.082-1.6.129-2.525.137-.916.284-1.9.441-2.953.2-1.041.451-2.129.724-3.252.324-1.108.68-2.246,1.046-3.4.426-1.133.814-2.3,1.282-3.436s.958-2.266,1.5-3.346c.515-1.093,1.043-2.156,1.586-3.167,1.046-2.049,2.211-3.857,3.169-5.418a58.774,58.774,0,0,1,3.545-4.987.242.242,0,0,1,.341-.035A.248.248,0,0,1,463.305,195.409Z" transform="translate(-413.454 -155.362)" fill="#412046"/>
      <path id="Path_186" data-name="Path 186" d="M472.313,192.6s-.6.291-1.643.8c-1.056.5-2.515,1.3-4.28,2.226-1.75.956-3.757,2.131-5.871,3.438-1.068.64-2.139,1.349-3.214,2.086-1.1.7-2.126,1.541-3.209,2.3-1.068.777-2.076,1.633-3.1,2.435-.961.869-1.932,1.708-2.821,2.567-.837.906-1.733,1.708-2.477,2.562-.72.871-1.427,1.678-2.039,2.457-.563.812-1.081,1.556-1.539,2.216a15.416,15.416,0,0,0-1.043,1.8c-.565,1.018-.886,1.6-.886,1.6l-.012.022a.181.181,0,0,1-.326-.157s.261-.622.719-1.71a16.293,16.293,0,0,1,.906-1.932c.421-.71.9-1.511,1.412-2.388.583-.832,1.262-1.7,1.957-2.634.727-.909,1.569-1.805,2.427-2.741.9-.9,1.87-1.775,2.841-2.689,1.031-.837,2.047-1.735,3.125-2.549,1.091-.792,2.169-1.608,3.294-2.315,1.105-.734,2.206-1.437,3.3-2.069,2.151-1.322,4.285-2.335,6.087-3.232a59.251,59.251,0,0,1,6.217-2.547.242.242,0,0,1,.306.154A.245.245,0,0,1,472.313,192.6Z" transform="translate(-427.652 -159.803)" fill="#412046"/>
      <path id="Path_187" data-name="Path 187" d="M488.458,213.858a10.682,10.682,0,1,0-10.683,10.681A10.684,10.684,0,0,0,488.458,213.858Z" transform="translate(-387.395 -143.042)" fill="#5c2176" opacity="0.2" style="mix-blend-mode: multiply;isolation: isolate"/>
      <path id="Path_188" data-name="Path 188" d="M506.739,212.477a10.682,10.682,0,1,0-10.681,10.683A10.68,10.68,0,0,0,506.739,212.477Z" transform="translate(-360.36 -145.137)" fill="#5c2176" opacity="0.2" style="mix-blend-mode: multiply;isolation: isolate"/>
      <circle id="Ellipse_7" data-name="Ellipse 7" cx="9.872" cy="9.872" r="9.872" transform="translate(80.778 60.441)" fill="#fff"/>
      <path id="Path_189" data-name="Path 189" d="M505.241,211.812a9.873,9.873,0,1,0-9.874,9.872A9.874,9.874,0,0,0,505.241,211.812Z" transform="translate(-360.179 -144.932)" fill="#fff"/>
      <path id="Path_190" data-name="Path 190" d="M474.266,208.687c0,1.312-.759,2.373-1.7,2.373s-1.7-1.061-1.7-2.373.757-2.375,1.7-2.375S474.266,207.375,474.266,208.687Z" transform="translate(-381.771 -138.351)" fill="#1d110b"/>
      <path id="Path_191" data-name="Path 191" d="M492.17,207.509c0,1.312-.759,2.375-1.7,2.375s-1.7-1.063-1.7-2.375.759-2.373,1.7-2.373S492.17,206.2,492.17,207.509Z" transform="translate(-355.278 -140.135)" fill="#1d110b"/>
      <g id="Group_25" data-name="Group 25" transform="translate(89.776 82.188)">
        <path id="Path_192" data-name="Path 192" d="M495.762,211.954l.142.359s-3.242,8.95-3.7,8.95-4.466-6.789-4.466-6.789l-.015-.085A57.857,57.857,0,0,0,495.762,211.954Z" transform="translate(-446.553 -211.954)" fill="#fff"/>
        <path id="Path_193" data-name="Path 193" d="M477.352,220.186c-1.24-.144-6.167-6.931-6.167-6.931l.1-.376a70.556,70.556,0,0,0,8.084,1.471l-.015.132S478.592,220.346,477.352,220.186Z" transform="translate(-471.185 -210.576)" fill="#fff"/>
      </g>
      <path id="Path_194" data-name="Path 194" d="M482.689,247.447s-.154,9.409.615,11.107c2.993,6.57,4.86-3.7,9.72-3.471,1.875.087,4.78,11.8,2.928,12.722s-4.935-6.787-4.935-6.787-1.573,7.377-8.637,6.481c-9.717-1.235-9.254-20.978-9.254-20.978S479.624,244.97,482.689,247.447Z" transform="translate(-378.484 -77.883)" fill="#844686"/>
      <path id="Path_195" data-name="Path 195" d="M501.9,244.8s1.511,9.292,2.569,10.825c4.106,5.94,4.128-4.5,8.953-5.134,1.86-.244,6.79,10.771,5.131,12.005s-6.057-5.808-6.057-5.808-.244,7.539-7.357,7.9c-9.782.505-12.815-19.014-12.815-19.014S497.789,242.34,501.9,244.8Z" transform="translate(-350.096 -81.106)" fill="#844686"/>
      <path id="Path_196" data-name="Path 196" d="M470.7,226.341s4.357,9.16,9.384,7.15c2.154-.861,3.172-3.974,3.172-3.974s-1.74-3.008-.842-4.449,2.587,1.5,2.587,1.5,1.922-5.714,3.366-5.171-.6,5.35-.6,5.35,2.405-5.53,3.486-4.449-.961,5.35-.961,5.35,2.482-4.7,3.2-3.433-4.021,17.819-14.244,16.98c-12.222-1-13.482-13.186-13.482-13.186A4.737,4.737,0,0,1,470.7,226.341Z" transform="translate(-389.365 -115.407)" fill="#844686"/>
      <path id="Path_197" data-name="Path 197" d="M508.879,221.605s-2.226,9.9-7.574,9.048c-2.288-.366-3.971-3.177-3.971-3.177s1.036-3.316-.162-4.524-2.191,2.037-2.191,2.037-3.135-5.144-4.424-4.3,1.77,5.084,1.77,5.084-3.568-4.862-4.384-3.568,2.121,5.007,2.121,5.007-3.458-4.036-3.881-2.644,7.858,16.492,17.645,13.415c11.7-3.675,10.235-15.837,10.235-15.837A4.743,4.743,0,0,0,508.879,221.605Z" transform="translate(-359.209 -116.59)" fill="#844686"/>
      <path id="Path_198" data-name="Path 198" d="M497.021,202.944c-1.589-1.817-3.252-3.585-4.969-5.281a55.292,55.292,0,0,0-5.393-4.768,14.223,14.223,0,0,0-2.98-1.783,3.206,3.206,0,0,0-1.459-.286c-.426.042-.62.246-1.013.732a2.493,2.493,0,0,0-.545,1.295,2.416,2.416,0,0,0,.346,1.357,6.765,6.765,0,0,0,2.335,2.238.694.694,0,0,1,.239.956.7.7,0,0,1-.67.336,24.305,24.305,0,0,0-5.43-.025,6.877,6.877,0,0,0-2.412.682,1.6,1.6,0,0,0-.685.66,1.032,1.032,0,0,0-.092.378l0,.177c.01.017.02.022.022.032s.032.072.05.122a1.677,1.677,0,0,0,.745.605,6.256,6.256,0,0,0,1.185.416,17.024,17.024,0,0,0,2.659.423,41.5,41.5,0,0,0,5.51.065.674.674,0,0,1,.2,1.327l-.01,0a10.532,10.532,0,0,0-4.6,2.151,2,2,0,0,0-.67,1.927,3,3,0,0,0,.478,1.053c.052.075.125.194.159.237l.219.266a4.283,4.283,0,0,0,.413.411,5.373,5.373,0,0,0,4.77.739,16.707,16.707,0,0,0,4.9-2.1l.017-.012a.379.379,0,0,1,.411.637,17.449,17.449,0,0,1-5.1,2.415,8.537,8.537,0,0,1-2.9.309,5.049,5.049,0,0,1-2.826-1.108,5.461,5.461,0,0,1-.573-.548l-.224-.264a3.723,3.723,0,0,1-.237-.326,4.179,4.179,0,0,1-.675-1.432,3.029,3.029,0,0,1,.065-1.7,3.755,3.755,0,0,1,.874-1.384,8.276,8.276,0,0,1,2.477-1.651,14.946,14.946,0,0,1,2.734-.939l.189,1.329a42.123,42.123,0,0,1-5.716-.03,18.27,18.27,0,0,1-2.888-.443,7.46,7.46,0,0,1-1.461-.51,3,3,0,0,1-1.364-1.183,1.9,1.9,0,0,1-.2-.533c-.02-.1-.04-.214-.05-.311v-.174a2.461,2.461,0,0,1,.222-.978,3,3,0,0,1,1.26-1.3,7.852,7.852,0,0,1,2.953-.859,25.927,25.927,0,0,1,5.781.065l-.431,1.292a9.552,9.552,0,0,1-1.576-1.2,6.58,6.58,0,0,1-1.265-1.583,3.761,3.761,0,0,1-.5-2.131,3.818,3.818,0,0,1,.844-2.017,4.158,4.158,0,0,1,.757-.779,2.329,2.329,0,0,1,1.17-.426,4.4,4.4,0,0,1,2.079.411,15.423,15.423,0,0,1,3.224,2.007,49.086,49.086,0,0,1,5.393,5.012c1.678,1.78,3.284,3.61,4.825,5.507a.382.382,0,0,1-.055.535A.387.387,0,0,1,497.021,202.944Z" transform="translate(-378.863 -164.127)" fill="#6b4f6d"/>
      <path id="Path_199" data-name="Path 199" d="M466.747,214.021s.062.05.184.142a4.79,4.79,0,0,0,.533.378,17.14,17.14,0,0,0,2.114,1.215q.717.355,1.583.789.907.344,1.962.739c.707.249,1.432.573,2.241.8s1.668.448,2.559.69c.9.219,1.805.545,2.793.7l3.05.508c1.048.167,2.119.368,3.222.52,1.113.087,2.251.179,3.408.269a59.309,59.309,0,0,0,7.143.354c2.432-.012,4.9-.027,7.375-.042,2.485-.187,5.029-.242,7.4-.585,2.41-.227,4.765-.675,7.041-1.091q1.688-.4,3.314-.774c1.073-.276,2.106-.612,3.122-.9a46.37,46.37,0,0,0,5.527-2.169,39.731,39.731,0,0,0,4.367-2.43,24.958,24.958,0,0,0,3.015-2.363,14.846,14.846,0,0,0,1.663-1.785,6.206,6.206,0,0,0,.473-.662.573.573,0,0,1,.774-.229.581.581,0,0,1,.234.762,7.377,7.377,0,0,1-.528.829,15.916,15.916,0,0,1-1.7,2.019,26.888,26.888,0,0,1-3.07,2.657,33.727,33.727,0,0,1-4.474,2.731,47.794,47.794,0,0,1-5.687,2.413c-1.041.329-2.1.707-3.207,1.021l-3.4.859c-2.338.448-4.745.929-7.245,1.19-2.5.378-4.972.448-7.477.657-2.535,0-5.069,0-7.564,0a60.682,60.682,0,0,1-7.29-.431q-1.774-.161-3.481-.319c-1.128-.187-2.226-.426-3.3-.627s-2.109-.413-3.115-.612-1.945-.555-2.861-.809l-2.619-.794c-.822-.281-1.568-.657-2.286-.951q-1.068-.467-1.992-.874c-.59-.331-1.133-.637-1.621-.914a17.7,17.7,0,0,1-2.216-1.437,5.1,5.1,0,0,1-.535-.426l-.174-.149a.57.57,0,0,1,.72-.884Z" transform="translate(-389.414 -135.694)" fill="#1d110b"/>
    </g>
  </g>
</svg>
