<svg xmlns="http://www.w3.org/2000/svg" width="264.251" height="321.799" viewBox="0 0 264.251 321.799">
  <g id="Group_3033" data-name="Group 3033" transform="matrix(0.545, 0.839, -0.839, 0.545, 160.004, -12.977)">
    <path id="Path_292" data-name="Path 292" d="M1002.89,690.623s39.844,7.055,48.827,18.737-6.445,24.7-.6,30.985,55.414,5.991,55.414,5.991l-.446,3.009s-60.211,3.58-65.151-3.608-2.1-11.084-1.2-16.773c1.175-7.441-3.15-13.2-12.58-16.476-8.91-3.1-23.362-6.589-23.362-6.589Z" transform="translate(-847.28 -534.768)" fill="#ee8168"/>
    <g id="Group_37" data-name="Group 37" transform="translate(141.105 0)">
      <path id="Path_293" data-name="Path 293" d="M997.884,673.675s-1.4-9.982,1.6-11.982,9.786,0,13.38-3.194-2.005-10.058,2.4-13.579c4.992-3.994,12.379.8,15.576-2.794s3.194-5.194,3.194-5.194l3.4,2.8a18.536,18.536,0,0,1-4.794,6.388c-3.194,2.6-10.183-1-12.779,3.2-1.861,3,4.791,8.785,1,12.98s-9.985,2.2-12.98,6.19,3.4,5.991.8,10.183-3.994,6.989-3.994,6.989Z" transform="translate(-997.558 -627.15)" fill="#ee8168"/>
      <g id="Group_34" data-name="Group 34" transform="translate(1.323 34.396)">
        <path id="Path_294" data-name="Path 294" d="M1005.083,653.618a1.48,1.48,0,0,1-.96-.351l-5.542-4.641a1.5,1.5,0,0,1,1.923-2.3l5.542,4.642a1.5,1.5,0,0,1-.963,2.647Z" transform="translate(-998.045 -645.979)" fill="#aa4c97"/>
      </g>
      <g id="Group_35" data-name="Group 35" transform="translate(13.351 32.225)">
        <path id="Path_295" data-name="Path 295" d="M1006.827,650.311a1.382,1.382,0,0,1-1.29-.321l-2.633-2.429a1.365,1.365,0,0,1-.065-1.94,1.388,1.388,0,0,1,1.951-.073l2.631,2.43a1.365,1.365,0,0,1,.068,1.94A1.388,1.388,0,0,1,1006.827,650.311Z" transform="translate(-1002.466 -645.182)" fill="#aa4c97"/>
      </g>
      <g id="Group_36" data-name="Group 36" transform="translate(16.778 24.773)">
        <path id="Path_296" data-name="Path 296" d="M1009.13,646.419a1.381,1.381,0,0,1-1.322.109l-3.273-1.455a1.364,1.364,0,0,1-.686-1.815,1.387,1.387,0,0,1,1.823-.7l3.273,1.455a1.364,1.364,0,0,1,.686,1.815A1.393,1.393,0,0,1,1009.13,646.419Z" transform="translate(-1003.726 -642.442)" fill="#aa4c97"/>
      </g>
      <path id="Path_297" data-name="Path 297" d="M1023.113,647.041a30.3,30.3,0,0,0,4.78-2.451s-4.029-.718-5.036-.767c.789-1.268,2.81-2.411,3.3-3.836-1.7-.1-3.654.846-5.289.639a13.564,13.564,0,0,0,1.165-4.764c-1.537.4-2.468,1.964-3.95,2.372a28.6,28.6,0,0,1-1.018-4.9c-1.7,1.548-3.678,3.061-5.2,4.742-.928-.971-1.537-2.43-2.408-3.542-.245,2.794-.6,5.2-.588,8.162a9.328,9.328,0,0,0,3.616,7.6c4.3,3.714,11.332,2.658,15.924.7C1026.569,649.947,1024.612,648.056,1023.113,647.041Z" transform="translate(-978.104 -633.337)" fill="#aa4c97"/>
    </g>
    <g id="Group_41" data-name="Group 41" transform="translate(0 23.827)">
      <path id="Path_298" data-name="Path 298" d="M999.044,665.445s-2.656-9.726-6.2-10.379-8.992,3.86-13.554,2.342-2.125-10.034-7.561-11.533c-6.162-1.7-11.059,5.621-15.415,3.578s-4.984-3.51-4.984-3.51l-2.016,3.907a18.574,18.574,0,0,0,6.924,3.983c3.961,1.123,8.964-4.938,13-2.109,2.895,2.027-.936,9.966,4.2,12.322s10.042-1.921,14.371.566-.757,6.845,3.284,9.672,6.429,4.848,6.429,4.848Z" transform="translate(-939.457 -636.034)" fill="#ee8168"/>
      <g id="Group_38" data-name="Group 38" transform="translate(48.34 19.126)">
        <path id="Path_299" data-name="Path 299" d="M965.552,658.452a1.5,1.5,0,0,0,.746-.7l3.259-6.451a1.5,1.5,0,1,0-2.672-1.352l-3.262,6.453a1.5,1.5,0,0,0,1.929,2.051Z" transform="translate(-963.462 -649.125)" fill="#aa4c97"/>
      </g>
      <g id="Group_39" data-name="Group 39" transform="translate(38.407 21.842)">
        <path id="Path_300" data-name="Path 300" d="M961.4,656.122a1.385,1.385,0,0,0,1.058-.8l1.458-3.273a1.363,1.363,0,0,0-.7-1.807,1.389,1.389,0,0,0-1.823.7l-1.461,3.273a1.367,1.367,0,0,0,.7,1.807A1.386,1.386,0,0,0,961.4,656.122Z" transform="translate(-959.811 -650.123)" fill="#aa4c97"/>
      </g>
      <g id="Group_40" data-name="Group 40" transform="translate(31.348 16.346)">
        <path id="Path_301" data-name="Path 301" d="M958.356,653.454a1.387,1.387,0,0,0,1.262-.422l2.432-2.628a1.367,1.367,0,0,0-.087-1.94,1.388,1.388,0,0,0-1.951.082l-2.432,2.631a1.362,1.362,0,0,0,.084,1.937A1.39,1.39,0,0,0,958.356,653.454Z" transform="translate(-957.216 -648.103)" fill="#aa4c97"/>
      </g>
      <path id="Path_302" data-name="Path 302" d="M951.274,658.974a29.988,29.988,0,0,1-5.36-.365s3.417-2.253,4.323-2.693c-1.224-.851-3.531-1.1-4.544-2.223,1.527-.764,3.692-.667,5.112-1.5a13.64,13.64,0,0,1-2.949-3.92c1.573-.237,3.044.832,4.565.623a28.444,28.444,0,0,0-1-4.9c2.171.751,4.587,1.36,6.652,2.3.468-1.26.452-2.84.813-4.206,1.328,2.47,2.6,4.536,3.76,7.267a9.327,9.327,0,0,1-.324,8.412c-2.49,5.109-9.362,6.913-14.354,6.927C949.245,663.009,950.3,660.5,951.274,658.974Z" transform="translate(-945.694 -642.095)" fill="#aa4c97"/>
    </g>
    <path id="Path_303" data-name="Path 303" d="M1088.981,801.58s0-46.129-4.193-92.856-17.978-62.02-63.5-62.9c-46.428-.9-61.7,41.936-61.106,63.5s0,91.057,0,91.057l.3,0a56.454,56.454,0,0,0,0,6.437c.283,4.209,3.626,13.01,9.435,16.174,9.212,5.017,21.934,5.433,22.87,3.648.743-1.167.269-1.54-.337-2.383,2.419.922,4.973-2.427,1.8-3.994a2.179,2.179,0,0,0,2.683-2.933c-.653-1.706-3.2-1.586-4.726-2.1-3.5-1.17-4.361-2.448-3.866-6.168.362-2.71,2.315-5.556,4.96-8.38l65.385.609c2.179,2.3,3.57,4.688,3.341,7.169-.343,3.738-1.972,6.184-5.531,7.172-1.556.433-4.089.185-4.829,1.853a2.18,2.18,0,0,0,2.53,3.066c-3.251,1.4-.871,4.878,1.594,4.081-.65.813-1.143,1.159-.457,2.364.844,1.828,13.568,2.062,23.022-2.481,5.964-2.865,9.751-11.484,10.246-15.674a61.452,61.452,0,0,0,.329-7.27Z" transform="translate(-920.793 -611.877)" fill="#f1a4b2"/>
    <g id="Group_42" data-name="Group 42" transform="translate(117.17 60.926)">
      <path id="Path_304" data-name="Path 304" d="M1010.036,666.331a10.638,10.638,0,1,1-10.638-10.6A10.621,10.621,0,0,1,1010.036,666.331Z" transform="translate(-988.761 -655.731)" fill="#954f39"/>
      <path id="Path_305" data-name="Path 305" d="M1007.147,665.271a8.9,8.9,0,1,1-8.9-8.9A8.9,8.9,0,0,1,1007.147,665.271Z" transform="translate(-987.754 -654.633)" fill="#fff"/>
      <path id="Path_306" data-name="Path 306" d="M1001.123,662.936a5.21,5.21,0,1,1-5.21-5.21A5.212,5.212,0,0,1,1001.123,662.936Z" transform="translate(-985.419 -652.298)" fill="#3472b6"/>
      <path id="Path_307" data-name="Path 307" d="M995.51,660.542a2.1,2.1,0,1,1-2.1-2.1A2.1,2.1,0,0,1,995.51,660.542Z" transform="translate(-984.366 -651.063)" fill="#fff"/>
    </g>
    <path id="Path_308" data-name="Path 308" d="M1035.076,688.908c-5.3.626-12.422,3.5-18.555-1.341s-11.484-19.069-13.111-22.073c-1.76-3.246-3.485-4.718-5.082-3.842s-1.409,3.1-1.409,3.1-2.274-5.21-5.869-3.5c-3.4,1.616-1.861,5.692-1.861,5.692a2.94,2.94,0,0,0-3.9-.618c-1.679,1.1.645,9.087,3.825,19.4,2.876,9.318,10.05,33.3,25.686,33.54s29.535-5.67,29.992-13.445S1042.389,688.043,1035.076,688.908Z" transform="translate(-878.527 -585.899)" fill="#ee8168"/>
    <g id="Group_43" data-name="Group 43" transform="translate(65.799 62.126)">
      <path id="Path_309" data-name="Path 309" d="M991.152,666.774a10.636,10.636,0,1,1-10.638-10.6A10.619,10.619,0,0,1,991.152,666.774Z" transform="translate(-969.879 -656.172)" fill="#954f39"/>
      <path id="Path_310" data-name="Path 310" d="M988.262,665.71a8.9,8.9,0,1,1-8.9-8.9A8.9,8.9,0,0,1,988.262,665.71Z" transform="translate(-968.873 -655.073)" fill="#fff"/>
      <path id="Path_311" data-name="Path 311" d="M982.24,663.377a5.21,5.21,0,1,1-5.21-5.21A5.211,5.211,0,0,1,982.24,663.377Z" transform="translate(-966.539 -652.739)" fill="#3472b6"/>
      <path id="Path_312" data-name="Path 312" d="M976.627,660.983a2.1,2.1,0,1,1-2.1-2.1A2.1,2.1,0,0,1,976.627,660.983Z" transform="translate(-965.486 -651.504)" fill="#fff"/>
    </g>
    <path id="Path_313" data-name="Path 313" d="M965.318,698.025c5.215-1.159,12.882-.8,17.075-7.389s4.546-21.79,5.093-25.161c.59-3.648,1.733-5.6,3.529-5.305s2.353,2.46,2.353,2.46.427-5.667,4.386-5.24c3.738.405,3.635,4.759,3.635,4.759a2.937,2.937,0,0,1,3.474-1.869c1.951.487,2.392,8.79,2.792,19.575.359,9.745,1.5,34.745-13.179,40.135s-29.756,4.394-32.751-2.794S958.13,699.622,965.318,698.025Z" transform="translate(-921.736 -591.99)" fill="#ee8168"/>
    <path id="Path_314" data-name="Path 314" d="M971.666,655.157c.62,1.687,3.469,1.918,6.962.422s5.653-3.142,5.24-4.266-1.7-4.056-6.252-1.959S970.978,653.283,971.666,655.157Z" transform="translate(-901.226 -607.045)" fill="#ee8168"/>
    <path id="Path_315" data-name="Path 315" d="M1002.608,655.179c-.645,1.676-3.5,1.861-6.968.313s-5.6-3.229-5.175-4.348,1.766-4.026,6.282-1.861S1003.326,653.316,1002.608,655.179Z" transform="translate(-868.752 -607.242)" fill="#ee8168"/>
    <ellipse id="Ellipse_10" data-name="Ellipse 10" cx="2.995" cy="3.894" rx="2.995" ry="3.894" transform="translate(102.292 92.255)" fill="#954f39"/>
    <path id="Path_316" data-name="Path 316" d="M972.5,684.286l4.792,9.585,5.392-8.986-3.894-.6-1.5,3-1.5-3.594Z" transform="translate(-899.565 -546.702)" fill="#ee8168"/>
    <path id="Path_317" data-name="Path 317" d="M980.76,685l5.991,9.286,8.387-10.184-4.792-.3-4.493,4.792-1.2-4.193Z" transform="translate(-885.357 -546.512)" fill="#ee8168"/>
    <path id="Path_318" data-name="Path 318" d="M991.77,684.885l5.092,8.087,5.99-9.285-5.092.3-1.2,3.594-2.4-3.594Z" transform="translate(-866.414 -546.702)" fill="#ee8168"/>
    <path id="Path_319" data-name="Path 319" d="M976.8,691.038l4.194,8.387,6.59-9.885-4.493-.6-2.4,4.793-1.5-5.092Z" transform="translate(-892.177 -538.177)" fill="#ee8168"/>
    <path id="Path_320" data-name="Path 320" d="M987.476,690.219l3.295,9.585,6.29-10.484h-4.792l-1.5,3.594-.9-4.493Z" transform="translate(-873.802 -538.556)" fill="#ee8168"/>
    <path id="Path_321" data-name="Path 321" d="M982.081,693.565l4.193,10.783,6.59-10.484-4.193-.6-2.7,4.792-.6-4.792Z" transform="translate(-883.084 -530.221)" fill="#ee8168"/>
  </g>
</svg>
