<svg xmlns="http://www.w3.org/2000/svg" xmlns:xlink="http://www.w3.org/1999/xlink" width="202.473" height="202.972" viewBox="0 0 202.473 202.972">
  <defs>
    <clipPath id="clip-path">
      <path id="Path_411" data-name="Path 411" d="M780.757,204.5c-4.407-.111-7.57-.686-11.276-3.158-3.115-2.074-6.064-4.393-7.21-8.107a.935.935,0,0,0-1.685-.215c-4.9,7.316,2.4,21.111,10.855,22.061.665.073.88-.812.495-1.219l8.081-8.195a7.683,7.683,0,0,0,.952-.4A.418.418,0,0,0,780.757,204.5Z" transform="translate(-759.004 -192.582)" fill="none"/>
    </clipPath>
    <clipPath id="clip-path-2">
      <path id="Path_415" data-name="Path 415" d="M799.672,204.477c4.4-.133,7.565-.724,11.262-3.212,3.1-2.09,6.041-4.426,7.167-8.143a.933.933,0,0,1,1.683-.225c4.942,7.29-2.3,21.123-10.744,22.113-.663.078-.883-.8-.5-1.217l-8.119-8.152a7.568,7.568,0,0,1-.954-.393A.417.417,0,0,1,799.672,204.477Z" transform="translate(-799.26 -192.463)" fill="none"/>
    </clipPath>
  </defs>
  <g id="Group_3039" data-name="Group 3039" transform="translate(-707.351 441.437) rotate(-41)">
    <path id="Path_407" data-name="Path 407" d="M801.563,249.783s.111,6.632-.433,7.828c-2.107,4.632-3.425-2.608-6.848-2.445-1.323.062-3.371,8.315-2.066,8.966s3.479-4.784,3.479-4.784,1.108,5.2,6.086,4.566c6.85-.869,6.523-14.782,6.523-14.782S803.724,248.039,801.563,249.783Z" transform="translate(60.021 91.369)" fill="#da9914"/>
    <path id="Path_408" data-name="Path 408" d="M783.534,250.742s-1.063,6.547-1.811,7.629c-2.892,4.187-2.909-3.174-6.308-3.619-1.311-.17-4.786,7.591-3.617,8.462s4.268-4.093,4.268-4.093.173,5.312,5.186,5.57c6.893.355,9.03-13.4,9.03-13.4S786.434,249.009,783.534,250.742Z" transform="translate(29.745 93.144)" fill="#da9914"/>
    <g id="Group_126" data-name="Group 126" transform="translate(762.693 187.842)">
      <g id="Group_74" data-name="Group 74" transform="translate(6.246 11.22)">
        <g id="Group_72" data-name="Group 72">
          <g id="Group_71" data-name="Group 71" clip-path="url(#clip-path)">
            <path id="Path_409" data-name="Path 409" d="M780.757,204.5c-4.407-.111-7.57-.686-11.276-3.158-3.115-2.074-6.064-4.393-7.21-8.107a.935.935,0,0,0-1.685-.215c-4.9,7.316,2.4,21.111,10.855,22.061.665.073.88-.812.495-1.219l8.081-8.195a7.683,7.683,0,0,0,.952-.4A.418.418,0,0,0,780.757,204.5Z" transform="translate(-759.004 -192.582)" fill="#023b41"/>
            <path id="Path_410" data-name="Path 410" d="M762.375,192.758a14.7,14.7,0,0,0-.518,8.566c1.12,4.625,4.469,8.462,8.4,11.149s8.443,4.365,12.9,6.019c-.149,2.4-2.374,4.261-4.722,4.8s-4.788.052-7.146-.433c-2.5-.516-5.12-1.082-7.094-2.706a12.431,12.431,0,0,1-3.013-4.071,28.861,28.861,0,0,1,.421-26.47" transform="translate(-760.133 -196.648)" fill="#022a2a"/>
          </g>
        </g>
        <g id="Group_73" data-name="Group 73" transform="translate(2.207 1.375)">
          <path id="Path_412" data-name="Path 412" d="M759.943,193.4c1.257,4.644,4.646,9.134,9.132,11.056.213.092.488-.173.272-.355a34.478,34.478,0,0,1-9.061-10.848c-.1-.192-.4-.057-.343.147Z" transform="translate(-759.936 -193.163)" fill="#0c5d61"/>
        </g>
      </g>
      <g id="Group_78" data-name="Group 78" transform="translate(109.442 10.939)">
        <g id="Group_76" data-name="Group 76">
          <g id="Group_75" data-name="Group 75" clip-path="url(#clip-path-2)">
            <path id="Path_413" data-name="Path 413" d="M799.672,204.477c4.4-.133,7.565-.724,11.262-3.212,3.1-2.09,6.041-4.426,7.167-8.143a.933.933,0,0,1,1.683-.225c4.942,7.29-2.3,21.123-10.744,22.113-.663.078-.883-.8-.5-1.217l-8.119-8.152a7.568,7.568,0,0,1-.954-.393A.417.417,0,0,1,799.672,204.477Z" transform="translate(-799.26 -192.463)" fill="#023b41"/>
            <path id="Path_414" data-name="Path 414" d="M819.573,192.642a14.694,14.694,0,0,1,.563,8.564c-1.1,4.63-4.426,8.486-8.344,11.189s-8.422,4.41-12.877,6.086c.163,2.4,2.4,4.249,4.746,4.772s4.791.028,7.146-.469c2.5-.528,5.113-1.108,7.08-2.743a12.375,12.375,0,0,0,2.994-4.085,28.865,28.865,0,0,0-.554-26.468" transform="translate(-799.73 -196.532)" fill="#022a2a"/>
          </g>
        </g>
        <g id="Group_77" data-name="Group 77" transform="translate(10.472 1.374)">
          <path id="Path_416" data-name="Path 416" d="M812.768,193.139a34.516,34.516,0,0,1-9.007,10.893c-.213.18.059.445.275.353,4.474-1.946,7.842-6.45,9.075-11.1.052-.2-.246-.341-.343-.144Z" transform="translate(-803.684 -193.044)" fill="#0c5d61"/>
        </g>
      </g>
      <path id="Path_417" data-name="Path 417" d="M882.236,219.982c-12.7-18.043-34.368-26.1-55.616-26.639-11.547-.293-24.019,1.979-34.378,7.354-4.526,2.347-8.5,6.084-12.261,9.508a40.834,40.834,0,0,0-9.366,11.525c-5.81,11.317-9.207,24.5-11.5,36.994a107.034,107.034,0,0,0-2.194,17.6,163.375,163.375,0,0,0,3.237,48.243,3.985,3.985,0,0,0,6.67,1.781,44.906,44.906,0,0,0,3.518-4.328,80.1,80.1,0,0,1,2.365,12.619c.4,3.8,5.481,6.007,7.575,2.077q2.648-4.963,5.293-9.929l4.777,7.86a4.025,4.025,0,0,0,6.948-.015q2.121-3.427,4.238-6.853c.963,2.209,1.948,4.406,3.011,6.555,1.55,3.131,4.137,5.661,7.828,5.145,3.187-.446,5.6-3.079,6.888-5.937a8.629,8.629,0,0,0,.592-2.139,44.563,44.563,0,0,0,5.038,6.63c2.249,2.445,5.524.824,6.592-1.8a65.012,65.012,0,0,0,2.315-6.753c.524,1.242,1.068,2.477,1.65,3.7,1.49,3.144,6.324,2.184,7.124-.969q1.177-4.655,2.36-9.306,1.151,1.834,2.3,3.67c1.434,2.289,5.389,2.818,6.673-.018l.03-.07q.7,2.641,1.389,5.283c.813,3.088,5.557,4.03,7.026.922a60.106,60.106,0,0,0,3.433-9.075q.914,2.566,1.83,5.132c1.068,2.988,5.6,4.308,7.224.947.587-1.21,1.113-2.432,1.617-3.66.241.669.481,1.338.747,2,.807,2,2.618,3.482,4.872,2.81,7.851-2.335,11.5-9.631,13.066-17.324,2.116-10.383,2.359-21.374,2.387-31.939C897.587,260.789,894.435,237.316,882.236,219.982Z" transform="translate(-756.365 -180.356)" fill="#f0a818"/>
      <g id="Group_79" data-name="Group 79" transform="translate(17.793 80.213)">
        <path id="Path_418" data-name="Path 418" d="M776.091,226.052a6.1,6.1,0,1,1-6.119-6.09A6.1,6.1,0,0,1,776.091,226.052Z" transform="translate(-763.882 -219.749)" fill="#e75a27"/>
        <path id="Path_419" data-name="Path 419" d="M812.159,225.962a6.1,6.1,0,1,1-6.119-6.09A6.1,6.1,0,0,1,812.159,225.962Z" transform="translate(-706.668 -219.872)" fill="#e75a27"/>
      </g>
      <g id="Group_80" data-name="Group 80" transform="translate(6.087 110.21)">
        <path id="Path_420" data-name="Path 420" d="M759.728,232.108c-1.607,1.612-.606,4.637,1.546,5.207,2.653.708,4.677-2.393,4.012-4.727a.481.481,0,0,0-.925.258c.464,1.636-.89,4.036-2.833,3.541a2.285,2.285,0,0,1-1.117-3.6.481.481,0,0,0-.682-.679Z" transform="translate(-758.936 -231.966)" fill="#fff"/>
      </g>
      <g id="Group_81" data-name="Group 81" transform="translate(93.316 123.569)">
        <path id="Path_421" data-name="Path 421" d="M793.511,238.936c-.13,1.934.234,5.222,2.968,4.975,2.549-.227,2.727-4.32,2.573-6.159-.052-.611-1.015-.615-.963,0,.116,1.38.159,4.225-1.259,5.011-1,.552-1.939-.381-2.234-1.295a6.783,6.783,0,0,1-.121-2.54c.042-.618-.921-.613-.964,0Z" transform="translate(-793.488 -237.293)" fill="#fff"/>
      </g>
      <g id="Group_82" data-name="Group 82" transform="translate(109.622 135.201)">
        <path id="Path_422" data-name="Path 422" d="M800,243.2c-.13,1.934.234,5.222,2.968,4.975,2.549-.227,2.727-4.32,2.571-6.157-.05-.613-1.013-.618-.961,0,.116,1.38.159,4.227-1.262,5.011-1,.554-1.936-.381-2.232-1.295a6.782,6.782,0,0,1-.121-2.54c.04-.618-.923-.613-.964,0Z" transform="translate(-799.975 -241.561)" fill="#fff"/>
      </g>
      <g id="Group_83" data-name="Group 83" transform="translate(126.034 139.747)">
        <path id="Path_423" data-name="Path 423" d="M806.59,244.311a5.908,5.908,0,0,0,.012,3.823,2.684,2.684,0,0,0,2.325,1.6c2.485-.035,3.2-3.929,3.309-5.785.04-.618-.923-.615-.961,0-.085,1.378-.454,3.846-1.787,4.6-.987.559-1.894-.279-2.156-1.233a5.9,5.9,0,0,1,.187-2.75c.133-.6-.8-.859-.928-.253Z" transform="translate(-806.27 -243.482)" fill="#fff"/>
      </g>
      <g id="Group_84" data-name="Group 84" transform="translate(16.68 139.644)">
        <path id="Path_424" data-name="Path 424" d="M763.414,245.819c.187,1.941.954,5.018,3.593,4.535,2.658-.485,2.13-4.762,1.676-6.573-.149-.6-1.077-.343-.928.258.32,1.273.864,4.4-.6,5.217-2,1.105-2.658-2.2-2.776-3.439-.059-.611-1.023-.613-.963,0Z" transform="translate(-763.412 -243.438)" fill="#fff"/>
      </g>
      <g id="Group_85" data-name="Group 85" transform="translate(42.147 136.587)">
        <path id="Path_425" data-name="Path 425" d="M773.134,244.528c.187,1.941.954,5.016,3.6,4.533,2.658-.485,2.128-4.762,1.676-6.573a.483.483,0,0,0-.93.258c.32,1.273.864,4.405-.6,5.217-2,1.105-2.658-2.2-2.777-3.437-.059-.613-1.023-.615-.963,0Z" transform="translate(-773.132 -242.147)" fill="#fff"/>
      </g>
      <g id="Group_86" data-name="Group 86" transform="translate(63.893 126.18)">
        <path id="Path_426" data-name="Path 426" d="M781.8,240c-.123,1.934.253,5.217,2.985,4.966,2.552-.237,2.713-4.329,2.552-6.166-.054-.613-1.018-.615-.963,0,.121,1.375.173,4.225-1.24,5.016-1,.559-1.939-.369-2.239-1.283a6.777,6.777,0,0,1-.13-2.537c.038-.62-.923-.615-.963,0Z" transform="translate(-781.783 -238.337)" fill="#fff"/>
      </g>
      <g id="Group_87" data-name="Group 87" transform="translate(132.912 103.835)">
        <path id="Path_427" data-name="Path 427" d="M809.177,232.787c.154,2.206,1.143,5.16,3.979,4.218,3.127-1.042,2.807-4.706,2.315-7.281-.116-.608-1.044-.348-.928.258.369,1.929.845,4.6-1.139,5.842-2.327,1.458-3.143-1.292-3.264-3.039-.043-.615-1.006-.615-.963,0Z" transform="translate(-809.176 -229.378)" fill="#fff"/>
      </g>
      <g id="Group_88" data-name="Group 88" transform="translate(125.575 62.56)">
        <path id="Path_428" data-name="Path 428" d="M806.09,217.182c.48,2.081,1.839,4.76,4.434,3.562,3.042-1.408,2.213-5.068,1.321-7.553-.208-.58-1.139-.327-.928.258.653,1.823,1.56,4.32-.066,5.9-2.062,2.01-3.418-.639-3.832-2.431-.14-.6-1.068-.346-.928.26Z" transform="translate(-806.076 -212.863)" fill="#fff"/>
      </g>
      <g id="Group_89" data-name="Group 89" transform="translate(86.195 37.315)">
        <path id="Path_429" data-name="Path 429" d="M790.645,206.487c.284,2.182,1.413,5.106,4.2,4.01,3.065-1.21,2.559-4.838,1.913-7.387a.482.482,0,0,0-.928.258c.471,1.856,1.1,4.313-.575,5.768a1.943,1.943,0,0,1-2.7.1,4.836,4.836,0,0,1-.944-2.75c-.08-.606-1.044-.611-.963,0Z" transform="translate(-790.64 -202.767)" fill="#fff"/>
      </g>
      <g id="Group_90" data-name="Group 90" transform="translate(8.745 61.893)">
        <path id="Path_430" data-name="Path 430" d="M765.7,216.633a6.076,6.076,0,0,1-.826,2.272,1.882,1.882,0,0,1-2.994.178c-1.636-1.576-.741-4.076-.095-5.9.208-.585-.722-.833-.928-.253-.88,2.488-1.69,6.154,1.359,7.546,2.6,1.186,3.943-1.5,4.414-3.584.135-.6-.793-.859-.93-.256Z" transform="translate(-760.059 -212.597)" fill="#fff"/>
      </g>
      <g id="Group_91" data-name="Group 91" transform="translate(57.704 41.443)">
        <path id="Path_431" data-name="Path 431" d="M785.071,206.911a5.2,5.2,0,0,1-.215,2.845,1.908,1.908,0,0,1-2.672.684c-2.028-1-1.953-3.624-1.9-5.553a.482.482,0,0,0-.963,0c-.066,2.6.218,6.1,3.359,6.732,2.963.6,3.572-2.488,3.359-4.713-.059-.611-1.023-.615-.964,0Z" transform="translate(-779.309 -204.423)" fill="#fff"/>
      </g>
      <g id="Group_92" data-name="Group 92" transform="translate(112.738 39.549)">
        <path id="Path_432" data-name="Path 432" d="M801.222,208.471c.729,2.14,2.526,4.784,5.03,2.975,2.608-1.884,1.406-5.179.282-7.541-.268-.559-1.1-.069-.831.488.791,1.659,1.872,3.9.62,5.607a1.93,1.93,0,0,1-2.978.525,5.433,5.433,0,0,1-1.193-2.313c-.2-.585-1.129-.331-.93.258Z" transform="translate(-801.194 -203.659)" fill="#fff"/>
      </g>
      <g id="Group_93" data-name="Group 93" transform="translate(27.206 123.112)">
        <path id="Path_433" data-name="Path 433" d="M767.185,237.581c.095,2.4.765,6.086,3.977,5.856,2.753-.194,2.526-3.513,2.017-5.409a.482.482,0,0,0-.928.258c.36,1.342.84,4.327-1.42,4.187-2.379-.149-2.611-3.1-2.682-4.895-.024-.618-.987-.618-.963,0Z" transform="translate(-767.185 -237.115)" fill="#fff"/>
      </g>
      <g id="Group_94" data-name="Group 94" transform="translate(31.643 44.606)">
        <path id="Path_434" data-name="Path 434" d="M769.183,206.04c-.431,2.339-.6,6.225,2.639,6.616,2.684.324,3.181-2.852,3.106-4.822-.026-.618-.99-.618-.964,0,.052,1.356-.012,4.05-2.014,3.851-2.566-.256-2.154-3.676-1.839-5.394.111-.606-.817-.864-.928-.253Z" transform="translate(-768.951 -205.69)" fill="#fff"/>
      </g>
      <g id="Group_95" data-name="Group 95" transform="translate(80.088 102.769)">
        <path id="Path_435" data-name="Path 435" d="M788.388,229.323c-.724,2.13.873,4.8,3.248,4.746a3.423,3.423,0,0,0,2.883-4.743c-.251-.566-1.082-.073-.831.488a2.424,2.424,0,0,1-2.376,3.271,2.682,2.682,0,0,1-2-3.508c.2-.587-.731-.836-.928-.253Z" transform="translate(-788.212 -228.992)" fill="#fff"/>
      </g>
      <g id="Group_96" data-name="Group 96" transform="translate(63.508 21.417)">
        <path id="Path_436" data-name="Path 436" d="M781.794,197.221c-.724,2.13.876,4.8,3.248,4.746a3.422,3.422,0,0,0,2.883-4.743c-.251-.566-1.079-.073-.831.488a2.423,2.423,0,0,1-2.374,3.271,2.681,2.681,0,0,1-2-3.506c.2-.589-.729-.838-.928-.256Z" transform="translate(-781.619 -196.89)" fill="#fff"/>
      </g>
      <g id="Group_97" data-name="Group 97" transform="translate(79.98 60.422)">
        <path id="Path_437" data-name="Path 437" d="M788.344,212.367c-.724,2.13.876,4.8,3.248,4.746a3.422,3.422,0,0,0,2.883-4.743c-.251-.566-1.079-.073-.828.488a2.424,2.424,0,0,1-2.376,3.271,2.68,2.68,0,0,1-2-3.508c.2-.587-.731-.836-.93-.253Z" transform="translate(-788.169 -212.036)" fill="#fff"/>
      </g>
      <g id="Group_98" data-name="Group 98" transform="translate(124.872 120.633)">
        <path id="Path_438" data-name="Path 438" d="M805.954,236.478c-.724,2.13.876,4.8,3.247,4.743a3.421,3.421,0,0,0,2.883-4.743c-.251-.563-1.079-.073-.828.488a2.425,2.425,0,0,1-2.376,3.271,2.679,2.679,0,0,1-2-3.505c.2-.589-.731-.838-.93-.253Z" transform="translate(-805.779 -236.145)" fill="#fff"/>
      </g>
      <path id="Path_439" data-name="Path 439" d="M787.821,221.887a10.242,10.242,0,1,1-10.268-10.216A10.24,10.24,0,0,1,787.821,221.887Z" transform="translate(-739.545 -151.794)" fill="#f0a818"/>
      <g id="Group_101" data-name="Group 101" transform="translate(48.295 83.572)">
        <g id="Group_100" data-name="Group 100">
          <path id="Path_440" data-name="Path 440" d="M819.592,226.94c-.021-9.392-7.5-5.908-12.687-1.884a13.9,13.9,0,0,1-19.128.05c-5.208-4-12.7-7.447-12.678,1.946.021,8.767,3.865,22.054,20.446,23.741l-.01.192c.639,0,1.262-.021,1.87-.052.608.028,1.231.043,1.872.043l-.012-.194C815.838,249.012,819.615,235.707,819.592,226.94Z" transform="translate(-775.099 -220.949)" fill="#0d1010"/>
          <g id="Group_99" data-name="Group 99" transform="translate(8.713 1.893)">
            <path id="Path_441" data-name="Path 441" d="M785.18,226.793c-.3-.019-.7-.054-1.174-.125h0s-.367,6.831,7.314,6.294,4.038-10.474,4.038-10.476c-.211.156-.419.315-.625.471A17.826,17.826,0,0,1,785.18,226.793Z" transform="translate(-771.64 -220.743)" fill="#edede5"/>
            <path id="Path_442" data-name="Path 442" d="M779.376,221.749s-3.16,11.232,5.066,12.282c6.138.784,6.481-3.969,6.261-6.431a18.459,18.459,0,0,1-7.958-3.588A30.314,30.314,0,0,0,779.376,221.749Z" transform="translate(-778.78 -221.749)" fill="#edede5"/>
          </g>
        </g>
      </g>
      <g id="Group_104" data-name="Group 104" transform="translate(34.026 60.092)">
        <g id="Group_102" data-name="Group 102" transform="translate(0 0.135)">
          <path id="Path_443" data-name="Path 443" d="M769.153,213.487c-.36,2.095.594,4.966,1.472,6.845s2.481,3.38,4.687,3.3c5.574-.208,5.148-7.83,3.505-11.539-.166-.374-.675-.137-.7.192-.2,2.677,1.191,10.344-3.4,9.672-3.453-.5-4.067-5.906-5.132-8.467-.076-.18-.393-.246-.436,0Z" transform="translate(-769.075 -211.899)" fill="#0d1010"/>
        </g>
        <g id="Group_103" data-name="Group 103" transform="translate(62.076)">
          <path id="Path_444" data-name="Path 444" d="M805.593,213.385c-1.053,2.568-1.638,7.97-5.089,8.493-4.58.7-3.231-6.98-3.446-9.655-.026-.329-.537-.563-.7-.187-1.626,3.721-2.01,11.343,3.565,11.52,2.208.073,3.792-1.42,4.668-3.319s1.811-4.746,1.439-6.853c-.043-.249-.362-.18-.436,0Z" transform="translate(-795.301 -211.842)" fill="#0d1010"/>
        </g>
      </g>
      <g id="Group_111" data-name="Group 111" transform="translate(43.163)">
        <g id="Group_106" data-name="Group 106" transform="translate(17.414)">
          <path id="Path_445" data-name="Path 445" d="M781.041,208.776a29.626,29.626,0,0,1,8.765-20.437,33.226,33.226,0,0,0-2.166,16.7" transform="translate(-779.835 -187.162)" fill="#f0a818"/>
          <g id="Group_105" data-name="Group 105">
            <path id="Path_446" data-name="Path 446" d="M782.942,209.451a29.171,29.171,0,0,1,8.415-19.582q-1.008-.586-2.014-1.167a36.114,36.114,0,0,0-2.208,17.021c.163,1.527,2.571,1.536,2.4,0a34.71,34.71,0,0,1,2.126-16.382c.443-1.16-1.221-1.979-2.014-1.167a31.809,31.809,0,0,0-9.118,21.289c-.057,1.548,2.348,1.541,2.41-.007Z" transform="translate(-780.531 -187.842)" fill="#f0a818"/>
          </g>
        </g>
        <g id="Group_108" data-name="Group 108" transform="translate(25.085 2.781)">
          <path id="Path_447" data-name="Path 447" d="M784.277,201.2a14.728,14.728,0,0,1,12.515-11.684,14.563,14.563,0,0,0-5.854,17.132" transform="translate(-783.083 -188.338)" fill="#f0a818"/>
          <g id="Group_107" data-name="Group 107">
            <path id="Path_448" data-name="Path 448" d="M786.127,202.194a13.778,13.778,0,0,1,11.679-10.841q-.469-1.1-.935-2.2a15.945,15.945,0,0,0-6.4,18.494c.5,1.456,2.824.824,2.32-.646a13.5,13.5,0,0,1,5.3-15.774,1.209,1.209,0,0,0-.933-2.2A16.1,16.1,0,0,0,783.8,201.56c-.331,1.51,1.991,2.149,2.322.634Z" transform="translate(-783.772 -189.017)" fill="#f0a818"/>
          </g>
        </g>
        <g id="Group_110" data-name="Group 110" transform="translate(0 2.993)">
          <path id="Path_449" data-name="Path 449" d="M793.28,199.006a18.842,18.842,0,0,0-19.606-9.1c8.516,1.5,15.094,10.223,14.2,18.825" transform="translate(-772.492 -188.459)" fill="#f0a818"/>
          <g id="Group_109" data-name="Group 109">
            <path id="Path_450" data-name="Path 450" d="M795,199.042a20.341,20.341,0,0,0-20.967-9.653c-1.179.194-1.11,2.083.007,2.32a16.883,16.883,0,0,1,13.31,17.667c-.1,1.548,2.3,1.534,2.407,0a19.264,19.264,0,0,0-15.085-19.985q0,1.161.007,2.32a17.851,17.851,0,0,1,18.247,8.554A1.2,1.2,0,0,0,795,199.042Z" transform="translate(-773.175 -189.106)" fill="#f0a818"/>
          </g>
        </g>
      </g>
      <g id="Group_113" data-name="Group 113" transform="translate(24.691 26.414)">
        <path id="Path_451" data-name="Path 451" d="M771.378,199.909a15.481,15.481,0,0,0-3.016,2.069,5.193,5.193,0,0,0-1.7,3.16,7.326,7.326,0,0,0,4.635-1.52,21.655,21.655,0,0,0,3.55-3.465.82.82,0,0,0,.284-.608c-.043-.286-.362-.436-.642-.5a5.346,5.346,0,0,0-4.2.9,9.479,9.479,0,0,0-2.843,3.33" transform="translate(-765.48 -197.707)" fill="#df9618"/>
        <g id="Group_112" data-name="Group 112">
          <path id="Path_452" data-name="Path 452" d="M771.45,199.57c-2.383,1.378-4.786,3.039-5.267,5.948a1.225,1.225,0,0,0,1.165,1.52,9.482,9.482,0,0,0,6.353-2.554c1.02-.878,3.7-2.937,3.274-4.566-.5-1.915-3.437-1.633-4.836-1.184a9.462,9.462,0,0,0-5.049,4.627,1.2,1.2,0,0,0,2.081,1.21c1.181-2.05,3.432-4.606,6.095-3.5-.239-.185-.48-.367-.719-.552.076.111.154.223.229.331-.04-.308-.08-.618-.123-.926-.227,1.032-2.173,2.481-2.971,3.108a6.739,6.739,0,0,1-4.339,1.6l1.165,1.52c.379-2.3,2.3-3.43,4.164-4.509a1.2,1.2,0,0,0-1.222-2.073Z" transform="translate(-766.163 -198.405)" fill="#df9618"/>
        </g>
      </g>
      <g id="Group_115" data-name="Group 115" transform="translate(36.744 21.051)">
        <path id="Path_453" data-name="Path 453" d="M772.185,199.43c-.528-.114-.732.658-.691,1.2a3.406,3.406,0,0,0,3.378-2.663.657.657,0,0,0-.128-.641c-.22-.18-.549-.043-.783.116a5.466,5.466,0,0,0-1.636,1.73" transform="translate(-770.288 -196.051)" fill="#df9618"/>
        <g id="Group_114" data-name="Group 114">
          <path id="Path_454" data-name="Path 454" d="M772.874,198.91c-1.316-.09-1.927,1.283-1.891,2.4a1.227,1.227,0,0,0,1.207,1.2,4.615,4.615,0,0,0,4.549-3.638,1.677,1.677,0,0,0-2.239-2.014,5.653,5.653,0,0,0-2.521,2.384c-.821,1.318,1.261,2.523,2.081,1.21a4.489,4.489,0,0,1,.689-.866,4.079,4.079,0,0,1,.336-.305l.18-.125c.189-.114.2-.121.031-.021l-.606-.163v.014l-.312-.53c.033-.159.036-.17.007-.038a2.477,2.477,0,0,1-.073.27,1.918,1.918,0,0,1-.1.225,2.273,2.273,0,0,1-.568.7,2.178,2.178,0,0,1-1.456.5q.6.6,1.2,1.2c-.021-.677.158.054-.509.009,1.546.107,1.534-2.3-.007-2.407Z" transform="translate(-770.981 -196.735)" fill="#df9618"/>
        </g>
      </g>
      <g id="Group_117" data-name="Group 117" transform="translate(18.103 36.609)">
        <path id="Path_455" data-name="Path 455" d="M766.625,203.547a4.2,4.2,0,0,0-2.024,2.443c-.159.509-.1,1.233.417,1.359a1.023,1.023,0,0,0,.847-.312,5.716,5.716,0,0,0,1.981-3.392.6.6,0,0,0-.095-.549.539.539,0,0,0-.424-.1c-1.494.142-2.237,1.844-2.677,3.281" transform="translate(-763.314 -201.808)" fill="#df9618"/>
        <g id="Group_116" data-name="Group 116">
          <path id="Path_456" data-name="Path 456" d="M766.714,203.195c-1.539.878-3.207,2.916-2.557,4.81a1.825,1.825,0,0,0,2.474,1.072,5.316,5.316,0,0,0,2.2-2.159,5.747,5.747,0,0,0,.944-2.791,1.712,1.712,0,0,0-2.284-1.572c-1.9.454-2.77,2.4-3.3,4.09-.464,1.482,1.86,2.109,2.322.632a5.107,5.107,0,0,1,.982-2.024c.1-.107.237-.175.334-.277.263-.277.67.253-.08-.473-.526-.507-.357-.407-.481.028a4.4,4.4,0,0,1-.263.71,4.6,4.6,0,0,1-.712,1.077c-.126.142-.372.284-.452.443-.161.31.412.466.589.32.194-.161.339-.767.518-1a3.194,3.194,0,0,1,.987-.817,1.2,1.2,0,0,0-1.221-2.073Z" transform="translate(-764.013 -202.492)" fill="#df9618"/>
        </g>
      </g>
      <g id="Group_119" data-name="Group 119" transform="translate(26.632 35.318)">
        <path id="Path_457" data-name="Path 457" d="M769.272,203.125a1.85,1.85,0,0,0-1.787,2,.617.617,0,0,0,.194.419.639.639,0,0,0,.469.085,2.48,2.48,0,0,0,2.1-2.675.589.589,0,0,0-.156-.372.579.579,0,0,0-.466-.08,2.574,2.574,0,0,0-2.114,2.076" transform="translate(-766.263 -201.294)" fill="#df9618"/>
        <g id="Group_118" data-name="Group 118">
          <path id="Path_458" data-name="Path 458" d="M769.966,202.61a3.054,3.054,0,0,0-2.942,3.52c.478,2.163,3.148,1.4,4.2.178.982-1.136,1.681-4.142-.578-4.317a3.676,3.676,0,0,0-3.6,2.954,1.231,1.231,0,0,0,.843,1.477,1.215,1.215,0,0,0,1.479-.845c.121-.6.589-1.269,1.281-1.181l-.608-.161-.021-.009c-.1-.175-.206-.353-.31-.53a1.051,1.051,0,0,1-.227.954,1.405,1.405,0,0,1-.3.282,1.148,1.148,0,0,1-.251.13c-.419.161-.116-.154.187.2l.31.533a.583.583,0,0,1,.537-.772c1.543-.062,1.546-2.469-.007-2.407Z" transform="translate(-766.962 -201.981)" fill="#df9618"/>
        </g>
      </g>
      <g id="Group_121" data-name="Group 121" transform="translate(34.469 29.731)">
        <path id="Path_459" data-name="Path 459" d="M772.445,200.4c-.4.41-.8.831-1.172,1.262a2.508,2.508,0,0,0-.67,1.136.914.914,0,0,0,.57,1.068,1.117,1.117,0,0,0,1-.417,3.193,3.193,0,0,0,.72-3.193q-.966,1.136-1.839,2.346" transform="translate(-769.393 -199.042)" fill="#df9618"/>
        <g id="Group_120" data-name="Group 120">
          <path id="Path_460" data-name="Path 460" d="M772.28,200.25c-.791.812-1.9,1.775-2.149,2.93a2.138,2.138,0,0,0,1.415,2.547,2.742,2.742,0,0,0,2.864-1.666,4.506,4.506,0,0,0,.336-3.43,1.214,1.214,0,0,0-2.012-.525q-1.062,1.26-2.029,2.592a1.212,1.212,0,0,0,.438,1.645,1.23,1.23,0,0,0,1.645-.436c.523-.722,1.075-1.42,1.65-2.1q-1-.263-2.012-.528a2.111,2.111,0,0,1,.052,1.162,1.814,1.814,0,0,1-.258.6c-.066.1-.312.279-.327.362.149-1,.646.249.585.289a3.891,3.891,0,0,0,.336-.478c.367-.44.772-.854,1.172-1.264,1.082-1.11-.623-2.81-1.707-1.7Z" transform="translate(-770.082 -199.743)" fill="#df9618"/>
        </g>
      </g>
      <g id="Group_123" data-name="Group 123" transform="translate(16.375 24.127)">
        <path id="Path_461" data-name="Path 461" d="M777.6,197.594a10.793,10.793,0,0,0-6.943,1.78l1.626,1.089a6.644,6.644,0,0,0-3.813.6,2.086,2.086,0,0,0-1,.836.905.905,0,0,0,.239,1.174c.391.234,1.129.282,1,.72a7.735,7.735,0,0,0-5.16,4.4,1.044,1.044,0,0,0-.088.836c.265.568,1.134.3,1.629-.083,1.789-1.392,3.1-3.307,4.812-4.789,2.32-2,5.456-3.321,6.748-6.1" transform="translate(-763.105 -197.375)" fill="#f0a818"/>
        <g id="Group_122" data-name="Group 122">
          <path id="Path_462" data-name="Path 462" d="M777.779,197.5a11.892,11.892,0,0,0-7.073,1.756.259.259,0,0,0,0,.443c1.259.852.693.291-.272.608a6.608,6.608,0,0,0-2.547.956c-.966.9-.36,1.146-.279,2.083.017.175.483.234.452.464A21.877,21.877,0,0,1,765.908,205c-.866.672-2.651,2.374-2.625,3.633.055,2.777,3.392-.362,4-.994a44.589,44.589,0,0,1,6.107-5.387,10.434,10.434,0,0,0,3.7-3.941.292.292,0,0,0-.5-.294c-1.768,2.838-4.7,4.149-7.089,6.341-.9.831-2.542,3.539-3.714,3.837q-.707-.217-1.413-.426A7.256,7.256,0,0,1,765.752,206a7.966,7.966,0,0,1,3.231-1.782.333.333,0,0,0,.23-.4c0,.012-.495-.776-.48-.625-.083-.04-.166-.08-.253-.114-.386-.147-.2-.481.561-1,.831-1.361,1.879-1.328,3.425-1.24.282.014.341-.365.133-.5-2.848-1.882,4.05-2.483,5.181-2.438.256.009.251-.381,0-.4Z" transform="translate(-763.283 -197.477)" fill="#f0a818"/>
        </g>
      </g>
      <g id="Group_125" data-name="Group 125" transform="translate(108.987 24.403)">
        <path id="Path_463" data-name="Path 463" d="M799.122,197.616a12.143,12.143,0,0,1,8.746,4.209,8.412,8.412,0,0,1-2.391.452,11.141,11.141,0,0,1,6.516,2.211,2.07,2.07,0,0,1,.8.947c.36,1.117-1.016,1.958-2.13,2.329,2.064,1.328,4.206,2.836,5.127,5.11a2.837,2.837,0,0,1,.125,2.185,1.39,1.39,0,0,1-1.844.75" transform="translate(-798.994 -197.485)" fill="#f0a818"/>
        <g id="Group_124" data-name="Group 124">
          <path id="Path_464" data-name="Path 464" d="M799.163,197.819a17.134,17.134,0,0,1,4.2,1.174c.954.424,5.861,2.6,2.192,3.013a.345.345,0,0,0,0,.689,10.862,10.862,0,0,1,3.34.585q3.607.518,1.749,4.2a.376.376,0,0,0-.085.677,18.768,18.768,0,0,1,2.9,2.156c.585.58,4.49,4.98.691,5.241-.3.021-.485.466-.166.613,1.579.729,2.739-.445,2.644-2.123a6.265,6.265,0,0,0-1.515-3.1c-.369-.469-3.25-2.438-3.311-3a10.676,10.676,0,0,0,1.4-1.555,1.819,1.819,0,0,0-.4-1.664c-.7-1.056-2.582-1.737-3.726-2.123-.72-.246-1.643-.246-2.317-.516,1.124.45-2.4,1.129,1.273.14a.345.345,0,0,0,.149-.57,11.889,11.889,0,0,0-8.985-4.095c-.142,0-.185.232-.033.258Z" transform="translate(-799.068 -197.561)" fill="#f0a818"/>
        </g>
      </g>
    </g>
    <path id="Path_465" data-name="Path 465" d="M765.734,225.5s-8.055.618-11.537,12.23c-2.715,9.052-2.708,16.626-2.2,17.708s2.268-2.04,2.268-2.04,1.446,3.032,2.3,2.706.35-3.468.35-3.468,2.14,1.247,2.966.2-2.84-3.482-2.84-3.482.064-16.993,9.222-16.893c0,0,2.665-2.509,2.5-3.951S765.734,225.5,765.734,225.5Z" transform="translate(0 56.935)" fill="#da9914"/>
    <path id="Path_466" data-name="Path 466" d="M812.268,224.861s8.057-.537,13.158,10.462c3.977,8.573,5.047,16.072,4.7,17.213s-2.533-1.695-2.533-1.695-1,3.207-1.9,3.006-.84-3.383-.84-3.383-1.941,1.541-2.909.618,2.317-3.851,2.317-3.851-2.483-16.813-11.537-15.407C812.728,231.825,808.682,228.708,812.268,224.861Z" transform="translate(88.63 55.903)" fill="#da9914"/>
  </g>
</svg>
