<svg xmlns="http://www.w3.org/2000/svg" width="74.147" height="74.054" viewBox="0 0 74.147 74.054">
  <g id="Group_5904" data-name="Group 5904" transform="translate(-740.792 -34.26)">
    <g id="Group_155" data-name="Group 155">
      <path id="Path_567" data-name="Path 567" d="M814.842,71.285a37.008,37.008,0,0,1-37.025,37.029q-1.491,0-2.955-.116A37.031,37.031,0,1,1,811.7,56.344a36.774,36.774,0,0,1,3.061,12.51Q814.841,70.058,814.842,71.285Z" fill="#f7b03e"/>
      <path id="Path_568" data-name="Path 568" d="M785.082,90.5c-2.115,2.621-5.322,4.075-8.447,5.334a11.38,11.38,0,0,0-3.172,1.671,3.673,3.673,0,0,0-1.43,3.141c.218,1.664,1.872,2.728,2.621,4.229a4.471,4.471,0,0,1,.208,3.319,37.016,37.016,0,0,1-28.806-17.87,133.926,133.926,0,0,0,25.89-8.76,25.167,25.167,0,0,1,6.924-2.452,7.584,7.584,0,0,1,6.756,2.1C787.834,83.762,787.2,87.883,785.082,90.5Z" fill="#eb7353"/>
      <path id="Path_569" data-name="Path 569" d="M810.594,56.666Q793.1,62.425,775.6,68.181a12.128,12.128,0,0,1-4.976.891,4.142,4.142,0,0,1-3.746-2.936A4.105,4.105,0,0,1,768.4,62.4a12.085,12.085,0,0,1,3.719-1.966q5.784-2.244,11.572-4.485c2.07-.8,4.231-1.665,5.673-3.354s1.864-4.475.306-6.058a4.832,4.832,0,0,0-4.248-1.073,25.9,25.9,0,0,0-4.32,1.427,7.17,7.17,0,0,1-4.356.425,3.17,3.17,0,0,1-2.4-3.284c.327-1.946,2.669-2.651,4.5-3.386a13.954,13.954,0,0,0,6.525-5.588l.011-.019A37.083,37.083,0,0,1,811.7,56.344C811.321,56.44,810.949,56.551,810.594,56.666Z" fill="#eb7353"/>
      <path id="Path_570" data-name="Path 570" d="M810.729,81.3a34.6,34.6,0,0,0,3.163-1.643,36.716,36.716,0,0,1-3.817,9.82c-1.172.309-2.35.6-3.525.89a8.45,8.45,0,0,1-4.223.3c-1.375-.379-2.589-1.753-2.263-3.142.287-1.223,1.55-1.912,2.686-2.449Z" fill="#ffcfcf"/>
      <path id="Path_571" data-name="Path 571" d="M814.763,68.854a8.1,8.1,0,0,0-3.328.465,14.959,14.959,0,0,1-4.509,1.108c-1.555,0-3.254-.891-3.568-2.414-.351-1.706,1.18-3.274,2.814-3.878a19.345,19.345,0,0,1,4.978-.756,12.322,12.322,0,0,0,2.729-.519A36.828,36.828,0,0,1,814.763,68.854Z" fill="#ffcfcf"/>
      <path id="Path_572" data-name="Path 572" d="M803.364,98.23c-1.891,1.891-6.857,2.139-8.413,2.134s-4.193-.611-4.507-2.134c-.351-1.705,1.518-3.177,3.151-3.781,1.58-.584,3.151-.63,4.727-1.261.855-.342,10.786-3.49,11.66-3.781C808.721,92.558,803.364,98.545,803.364,98.23Z" fill="#ffcfcf"/>
      <path id="Path_573" data-name="Path 573" d="M753.938,77.557Q748.244,80.08,742.55,82.6A37.176,37.176,0,0,1,744.6,54.9c5.4-2.7,13.187-6.165,15.059-3.252,1.959,3.051-1.18,7.426-4.258,9.342-1.8,1.121-3.964,1.615-5.648,2.906s-2.681,3.951-1.241,5.507c1.154,1.246,3.127,1.08,4.812.89s3.726-.146,4.648,1.279a3.284,3.284,0,0,1-.568,3.8A9.572,9.572,0,0,1,753.938,77.557Z" fill="#ffcfcf"/>
      <g id="Group_147" data-name="Group 147">
        <path id="Path_574" data-name="Path 574" d="M757.994,72.985a1.686,1.686,0,0,0,0-3.37,1.686,1.686,0,0,0,0,3.37Z" fill="#bcc0e5"/>
      </g>
      <g id="Group_148" data-name="Group 148">
        <path id="Path_575" data-name="Path 575" d="M803.058,53.068a.756.756,0,0,0,0-1.511.756.756,0,0,0,0,1.511Z" fill="#bcc0e5"/>
      </g>
      <g id="Group_149" data-name="Group 149">
        <path id="Path_576" data-name="Path 576" d="M771.75,80.849a1.115,1.115,0,0,0,0-2.229,1.115,1.115,0,0,0,0,2.229Z" fill="#bcc0e5"/>
      </g>
      <g id="Group_150" data-name="Group 150">
        <path id="Path_577" data-name="Path 577" d="M757.277,83.322a.672.672,0,0,0,0-1.343.672.672,0,0,0,0,1.343Z" fill="#e9d1ff"/>
      </g>
      <g id="Group_151" data-name="Group 151">
        <path id="Path_578" data-name="Path 578" d="M776.194,63.45a.5.5,0,0,0,0-1.007.5.5,0,0,0,0,1.007Z" fill="#e9d1ff"/>
      </g>
      <g id="Group_152" data-name="Group 152">
        <path id="Path_579" data-name="Path 579" d="M798.384,94.8a.5.5,0,0,0,0-1.007.5.5,0,0,0,0,1.007Z" fill="#e9d1ff"/>
      </g>
      <g id="Group_153" data-name="Group 153">
        <path id="Path_580" data-name="Path 580" d="M805.786,89.407a1.734,1.734,0,0,0,0-3.466,1.734,1.734,0,0,0,0,3.466Z" fill="#bcc0e5"/>
      </g>
      <g id="Group_154" data-name="Group 154">
        <path id="Path_581" data-name="Path 581" d="M776.795,101.067a.788.788,0,0,0,0-1.576.788.788,0,0,0,0,1.576Z" fill="#bcc0e5"/>
      </g>
    </g>
    <path id="Path_582" data-name="Path 582" d="M814.842,71.285s-12.327,2.6-16.944,2.325-7.694,2.027-7.86,3.33c-.224,1.753.86,3.976,4.5,3.644s5.427-.906,10.434-1.556,4.691,1.871,4.691,1.871c.316.945-3.442,1.634-3.88,2.738A1.159,1.159,0,0,0,806.515,85c2.208.295,7.248-4.411,7.248-4.411S815.339,73.966,814.842,71.285Z" fill="#eb7353"/>
    <g id="Group_156" data-name="Group 156" opacity="0.2">
      <path id="Path_583" data-name="Path 583" d="M763.946,47.914c1.913,1.666.348,6.594-3.495,11.007s-8.508,6.641-10.421,4.976-.347-6.593,3.5-11.007S762.034,46.249,763.946,47.914Z" fill="#fff"/>
      <path id="Path_584" data-name="Path 584" d="M749.082,66.77a2,2,0,1,1-2.4,1.493A2,2,0,0,1,749.082,66.77Z" fill="#fff"/>
      <path id="Path_585" data-name="Path 585" d="M764.057,43.267a1.036,1.036,0,1,1-1.243.775A1.036,1.036,0,0,1,764.057,43.267Z" fill="#fff"/>
      <path id="Path_586" data-name="Path 586" d="M769.507,42.867a1.446,1.446,0,1,1-1.735,1.082A1.446,1.446,0,0,1,769.507,42.867Z" fill="#fff"/>
    </g>
  </g>
</svg>
