<svg xmlns="http://www.w3.org/2000/svg" width="75.962" height="75.961" viewBox="0 0 75.962 75.961">
  <g id="Group_5905" data-name="Group 5905" transform="translate(-843.899 -33.315)">
    <g id="Group_11" data-name="Group 11">
      <path id="Path_127" data-name="Path 127" d="M919.861,71.3a37.981,37.981,0,1,1-37.982-37.981A37.983,37.983,0,0,1,919.861,71.3Z" fill="#6fc5cd"/>
    </g>
    <g id="Group_12" data-name="Group 12">
      <path id="Path_128" data-name="Path 128" d="M906.413,42.313a38.2,38.2,0,0,0-3.471-2.621c-2.125,21.594-14.428,38.767-36.676,51.1a112.946,112.946,0,0,1-12.577,5.954,38.288,38.288,0,0,0,2.9,2.881,117.508,117.508,0,0,0,11.4-5.5C890.346,81.765,903.484,63.975,906.413,42.313Z" fill="#0f90b2"/>
      <path id="Path_129" data-name="Path 129" d="M916.2,55.024c-5.958,27.157-20.42,44.107-33.338,54.228,1.1-.029,2.182-.1,3.254-.217,12.218-10.153,25.291-26.294,31.334-51.059Q916.888,56.47,916.2,55.024Z" fill="#0f90b2"/>
      <path id="Path_130" data-name="Path 130" d="M852.215,65.1c13.921-7.323,23.051-18.155,26.865-31.666A37.842,37.842,0,0,0,870.665,35c-3.726,9.8-10.986,17.636-21.747,23.345-1.105.587-2.209,1.128-3.3,1.63a37.891,37.891,0,0,0-1.626,8.819A75.157,75.157,0,0,0,852.215,65.1Z" fill="#0f90b2"/>
      <path id="Path_131" data-name="Path 131" d="M881.9,56a95.54,95.54,0,0,0,10.02-21.331,37.821,37.821,0,0,0-7.52-1.259,87.485,87.485,0,0,1-8.96,18.76C867.4,64.682,857.009,73.113,844.393,77.4a37.643,37.643,0,0,0,1.917,7.227C863.9,78.752,875.092,66.678,881.9,56Z" fill="#0f90b2"/>
      <path id="Path_132" data-name="Path 132" d="M888.514,62.535a58.454,58.454,0,0,0,9.8-25.488c-.291-.14-.589-.267-.884-.4A57.626,57.626,0,0,1,887.744,62c-8.481,12.172-21.792,21.038-39.718,26.508.145.283.284.569.434.848C866.512,83.819,879.936,74.848,888.514,62.535Z" fill="#afcb89"/>
      <path id="Path_133" data-name="Path 133" d="M878.9,99.229C898.279,85,909.73,68.071,912.877,49.364a37.991,37.991,0,0,0-3.163-3.9c-2.033,19.055-13.049,36.037-32.958,50.682a136.888,136.888,0,0,1-13.093,8.479,37.738,37.738,0,0,0,4.139,1.943C871.468,104.38,875.209,101.941,878.9,99.229Z" fill="#afcb89"/>
    </g>
    <path id="Path_134" data-name="Path 134" d="M889.4,96.151a37.978,37.978,0,0,1-36.063-49.894A37.975,37.975,0,1,0,917.942,83.21,37.876,37.876,0,0,1,889.4,96.151Z" fill="#050505" opacity="0.2"/>
    <g id="Group_13" data-name="Group 13" opacity="0.2">
      <path id="Path_135" data-name="Path 135" d="M915.6,71.7c-3.168,1.817-9.134-2.636-13.326-9.945s-5.023-14.708-1.855-16.525,9.133,2.637,13.326,9.946S918.766,69.882,915.6,71.7Z" fill="#fff"/>
      <path id="Path_136" data-name="Path 136" d="M914.3,79.813a2.875,2.875,0,1,1-.9-3.964A2.874,2.874,0,0,1,914.3,79.813Z" fill="#fff"/>
      <path id="Path_137" data-name="Path 137" d="M909.087,74.893a1.492,1.492,0,1,1-.468-2.057A1.49,1.49,0,0,1,909.087,74.893Z" fill="#fff"/>
    </g>
  </g>
</svg>
