<svg xmlns="http://www.w3.org/2000/svg" xmlns:xlink="http://www.w3.org/1999/xlink" viewBox="0 0 188.46 285.53"><defs><style>.cls-1{fill:none;}.cls-2{fill:#f9e9bd;}.cls-3{fill:#f3c239;}.cls-4,.cls-5{isolation:isolate;}.cls-5{font-size:23.18px;font-family:STXihei, STHeiti;letter-spacing:0.2em;}.cls-14,.cls-5{fill:#fff;}.cls-6{fill:#da9914;}.cls-7{clip-path:url(#clip-path);}.cls-8{fill:#023b41;}.cls-9{fill:#022a2a;}.cls-10{fill:#0c5d61;}.cls-11{clip-path:url(#clip-path-2);}.cls-12{fill:#f0a818;}.cls-13{fill:#e75a27;}.cls-15{fill:#0d1010;}.cls-16{fill:#edede5;}.cls-17{fill:#df9618;}</style><clipPath id="clip-path"><path class="cls-1" d="M51.89,139.82c-4.63-.12-8-.72-11.84-3.32-3.27-2.18-6.36-4.61-7.56-8.51a1,1,0,0,0-1.23-.64,1,1,0,0,0-.54.42c-5.15,7.68,2.52,22.16,11.39,23.15.7.08.93-.85.52-1.28l8.48-8.6a6.77,6.77,0,0,0,1-.41.44.44,0,0,0,.14-.61A.43.43,0,0,0,51.89,139.82Z"/></clipPath><clipPath id="clip-path-2"><path class="cls-1" d="M129.51,139.62c4.63-.14,7.94-.76,11.82-3.37,3.26-2.19,6.34-4.64,7.53-8.55a1,1,0,0,1,1.76-.23c5.19,7.65-2.41,22.17-11.27,23.21-.7.08-.93-.84-.53-1.28l-8.52-8.55a8.09,8.09,0,0,1-1-.42.44.44,0,0,1-.15-.6A.49.49,0,0,1,129.51,139.62Z"/></clipPath></defs><g id="圖層_2" data-name="圖層 2"><g id="圖層_1-2" data-name="圖層 1"><g id="Group_6263" data-name="Group 6263"><g id="Group_5807" data-name="Group 5807"><path id="Path_5537" data-name="Path 5537" class="cls-2" d="M185.87,73.46c-1,5.66-5.08,9.89-9.9,9.89H52.11l2.21,17.07L52.73,110.7,30.11,83.35H10.17C4.56,83.35,0,77.62,0,70.58V15.67C0,9.62,3.37,4.56,7.88,3.25A7.87,7.87,0,0,1,14,0h165.8c4.77,0,8.63,4.85,8.63,10.83V65.74A12.25,12.25,0,0,1,185.87,73.46Z"/><path id="Path_5538" data-name="Path 5538" class="cls-3" d="M10.17,4.84H176c4.77,0,8.63,4.85,8.63,10.83V70.58c0,6-3.86,10.83-8.63,10.83H47.37l3.09,23.86L30.74,81.41H10.18c-4.77,0-8.63-4.85-8.63-10.83V15.67C1.55,9.69,5.41,4.84,10.17,4.84Z"/></g><g id="點我進入_星座探索" data-name="點我進入 星座探索" class="cls-4"><text class="cls-5" transform="translate(40.69 37.9)">點我進入</text><text class="cls-5" transform="translate(40.69 65.71)">星座探索</text></g></g><g id="Group_6264" data-name="Group 6264"><path id="Path_7531" data-name="Path 7531" class="cls-6" d="M120.79,268s.11,7-.46,8.22c-2.21,4.86-3.6-2.74-7.19-2.57-1.38.07-3.53,8.73-2.16,9.41s3.65-5,3.65-5,1.16,5.46,6.39,4.8c7.19-.92,6.84-15.52,6.84-15.52S123.06,266.18,120.79,268Z"/><path id="Path_7532" data-name="Path 7532" class="cls-6" d="M72.83,270.88s-1.12,6.87-1.9,8c-3,4.4-3.06-3.33-6.63-3.8-1.37-.18-5,8-3.8,8.88s4.48-4.3,4.48-4.3.19,5.58,5.45,5.85c7.23.37,9.48-14.07,9.48-14.07S75.87,269.06,72.83,270.88Z"/><g id="Group_5941" data-name="Group 5941"><g id="Group_5889" data-name="Group 5889"><g id="Group_5887" data-name="Group 5887"><g class="cls-7"><g id="Group_5886" data-name="Group 5886"><path id="Path_7533" data-name="Path 7533" class="cls-8" d="M51.89,139.82c-4.63-.12-8-.72-11.84-3.32-3.27-2.18-6.36-4.61-7.56-8.51a1,1,0,0,0-1.23-.64,1,1,0,0,0-.54.42c-5.15,7.68,2.52,22.16,11.39,23.15.7.08.93-.85.52-1.28l8.48-8.6a6.77,6.77,0,0,0,1-.41.44.44,0,0,0,.14-.61A.43.43,0,0,0,51.89,139.82Z"/><path id="Path_7534" data-name="Path 7534" class="cls-9" d="M31.41,123.22a15.45,15.45,0,0,0-.54,9c1.17,4.85,4.69,8.88,8.81,11.7s8.86,4.58,13.55,6.31c-.16,2.53-2.49,4.48-5,5s-5,0-7.5-.46c-2.63-.54-5.37-1.13-7.44-2.84a13,13,0,0,1-3.17-4.27,30.32,30.32,0,0,1,.44-27.79"/></g></g></g><g id="Group_5888" data-name="Group 5888"><path id="Path_7536" data-name="Path 7536" class="cls-10" d="M31.38,129c1.32,4.88,4.88,9.59,9.59,11.61.22.1.51-.18.28-.38a36.13,36.13,0,0,1-9.51-11.38c-.1-.2-.42-.06-.36.15Z"/></g></g><g id="Group_5893" data-name="Group 5893"><g id="Group_5891" data-name="Group 5891"><g class="cls-11"><g id="Group_5890" data-name="Group 5890"><path id="Path_7537" data-name="Path 7537" class="cls-8" d="M129.51,139.62c4.63-.14,7.94-.76,11.82-3.37,3.26-2.19,6.34-4.64,7.53-8.55a1,1,0,0,1,1.76-.23c5.19,7.65-2.41,22.17-11.27,23.21-.7.08-.93-.84-.53-1.28l-8.52-8.55a8.09,8.09,0,0,1-1-.42.44.44,0,0,1-.15-.6A.49.49,0,0,1,129.51,139.62Z"/><path id="Path_7538" data-name="Path 7538" class="cls-9" d="M149.91,122.93a15.42,15.42,0,0,1,.59,9c-1.15,4.86-4.65,8.91-8.76,11.74s-8.84,4.63-13.52,6.39c.18,2.52,2.52,4.46,5,5s5,0,7.5-.49c2.62-.55,5.36-1.16,7.43-2.88a13,13,0,0,0,3.14-4.29,30.28,30.28,0,0,0-.58-27.78"/></g></g></g><g id="Group_5892" data-name="Group 5892"><path id="Path_7540" data-name="Path 7540" class="cls-10" d="M149.61,128.55A36.17,36.17,0,0,1,140.15,140c-.22.19.06.47.29.37,4.7-2,8.23-6.77,9.53-11.65.05-.22-.26-.36-.36-.16Z"/></g></g><path id="Path_7541" data-name="Path 7541" class="cls-12" d="M147.22,155.58c-12.58-17.9-34-25.89-55.1-26.42-11.45-.29-23.8,2-34.07,7.3-4.48,2.32-8.42,6-12.15,9.43a40.53,40.53,0,0,0-9.28,11.43c-5.76,11.23-9.12,24.3-11.4,36.7a106.85,106.85,0,0,0-2.17,17.45,162.33,162.33,0,0,0,3.2,47.86,4,4,0,0,0,6.61,1.77,44.88,44.88,0,0,0,3.49-4.3,79.58,79.58,0,0,1,2.34,12.52c.39,3.77,5.43,6,7.51,2.06q2.63-4.92,5.24-9.85l4.74,7.8a4,4,0,0,0,6.88,0l4.2-6.8c1,2.19,1.93,4.37,3,6.5,1.53,3.1,4.1,5.61,7.75,5.1,3.16-.45,5.55-3.06,6.83-5.89a8.65,8.65,0,0,0,.58-2.12,44.3,44.3,0,0,0,5,6.57c2.22,2.43,5.47.82,6.53-1.78a66.11,66.11,0,0,0,2.29-6.7c.52,1.23,1.06,2.46,1.64,3.67,1.47,3.12,6.26,2.17,7.06-1s1.55-6.15,2.33-9.23l2.28,3.64c1.43,2.27,5.34,2.8,6.62,0l0-.07c.46,1.75.91,3.5,1.37,5.24.81,3.07,5.51,4,7,.92a59.61,59.61,0,0,0,3.4-9c.61,1.69,1.21,3.39,1.82,5.09,1.06,3,5.55,4.27,7.16.94.58-1.2,1.1-2.42,1.6-3.63.24.66.47,1.32.74,2,.8,2,2.59,3.45,4.83,2.79,7.77-2.32,11.39-9.55,12.94-17.19,2.1-10.3,2.34-21.2,2.37-31.68C162.44,196.06,159.31,172.78,147.22,155.58Z"/><g id="Group_5894" data-name="Group 5894"><path id="Path_7542" data-name="Path 7542" class="cls-13" d="M54,201.73a6.41,6.41,0,1,1-6.43-6.39A6.42,6.42,0,0,1,54,201.73Z"/><path id="Path_7543" data-name="Path 7543" class="cls-13" d="M143.61,201.5a6.41,6.41,0,1,1-6.42-6.39,6.42,6.42,0,0,1,6.42,6.39Z"/></g><g id="Group_5895" data-name="Group 5895"><path id="Path_7544" data-name="Path 7544" class="cls-14" d="M29.72,225.31c-1.68,1.69-.63,4.87,1.62,5.47,2.79.74,4.91-2.52,4.22-5a.53.53,0,0,0-.63-.35.52.52,0,0,0-.35.62c.49,1.72-.93,4.24-3,3.72a2.4,2.4,0,0,1-1.58-3,2.34,2.34,0,0,1,.41-.78.51.51,0,0,0,0-.71.51.51,0,0,0-.72,0Z"/></g><g id="Group_5896" data-name="Group 5896"><path id="Path_7545" data-name="Path 7545" class="cls-14" d="M114.76,240.12c-.13,2,.25,5.48,3.12,5.22,2.68-.24,2.86-4.53,2.7-6.46-.06-.64-1.07-.65-1,0,.12,1.45.17,4.43-1.32,5.26-1,.58-2-.4-2.35-1.36a7.27,7.27,0,0,1-.13-2.67c0-.64-1-.64-1,0Z"/></g><g id="Group_5897" data-name="Group 5897"><path id="Path_7546" data-name="Path 7546" class="cls-14" d="M130.88,250.73c-.14,2,.25,5.48,3.12,5.22,2.67-.24,2.86-4.54,2.7-6.46,0-.65-1.06-.65-1,0,.12,1.44.17,4.43-1.32,5.26-1.05.58-2-.4-2.35-1.36a7.06,7.06,0,0,1-.12-2.67c0-.65-1-.64-1,0Z"/></g><g id="Group_5898" data-name="Group 5898"><path id="Path_7547" data-name="Path 7547" class="cls-14" d="M146.83,254.64a6.22,6.22,0,0,0,0,4,2.82,2.82,0,0,0,2.44,1.67c2.61,0,3.36-4.12,3.48-6.07,0-.65-1-.65-1,0-.09,1.45-.48,4-1.88,4.83-1,.59-2-.29-2.26-1.3a6.11,6.11,0,0,1,.2-2.88c.14-.64-.84-.9-1-.27Z"/></g><g id="Group_5899" data-name="Group 5899"><path id="Path_7548" data-name="Path 7548" class="cls-14" d="M40,256.16c.2,2,1,5.27,3.77,4.77s2.24-5,1.76-6.9c-.15-.64-1.13-.36-1,.27.34,1.33.91,4.62-.63,5.47-2.1,1.16-2.79-2.31-2.92-3.61-.06-.64-1.07-.64-1,0Z"/></g><g id="Group_5900" data-name="Group 5900"><path id="Path_7549" data-name="Path 7549" class="cls-14" d="M64.16,253c.2,2,1,5.26,3.78,4.75s2.23-5,1.76-6.9a.51.51,0,0,0-1,.28c.34,1.33.91,4.62-.63,5.47-2.1,1.16-2.79-2.31-2.92-3.61-.06-.64-1.07-.64-1,0Z"/></g><g id="Group_5901" data-name="Group 5901"><path id="Path_7550" data-name="Path 7550" class="cls-14" d="M85.67,242.73c-.13,2,.27,5.48,3.14,5.22,2.67-.25,2.84-4.55,2.67-6.47,0-.65-1.06-.65-1,0,.13,1.44.18,4.43-1.3,5.26-1,.59-2-.39-2.35-1.35a7,7,0,0,1-.13-2.66c0-.65-1-.65-1,0Z"/></g><g id="Group_5902" data-name="Group 5902"><path id="Path_7551" data-name="Path 7551" class="cls-14" d="M153.72,222.31c.16,2.31,1.2,5.41,4.17,4.43,3.29-1.1,3-4.94,2.43-7.65-.12-.64-1.1-.36-1,.27.39,2,.89,4.83-1.2,6.14-2.44,1.53-3.3-1.36-3.43-3.19,0-.65-1.05-.65-1,0Z"/></g><g id="Group_5903" data-name="Group 5903"><path id="Path_7552" data-name="Path 7552" class="cls-14" d="M146,182.24c.5,2.18,1.93,5,4.65,3.73,3.2-1.47,2.33-5.32,1.39-7.92-.22-.61-1.2-.35-1,.27.69,1.91,1.64,4.53-.06,6.2-2.17,2.11-3.59-.67-4-2.55-.14-.64-1.12-.37-1,.27Z"/></g><g id="Group_5904" data-name="Group 5904"><path id="Path_7553" data-name="Path 7553" class="cls-14" d="M107.67,156.52c.3,2.29,1.48,5.36,4.4,4.21,3.22-1.27,2.69-5.08,2-7.76a.51.51,0,0,0-.64-.32.5.5,0,0,0-.33.59c.49,1.95,1.15,4.53-.6,6.06a2.06,2.06,0,0,1-2.84.1,5.19,5.19,0,0,1-1-2.89c-.08-.63-1.1-.64-1,0Z"/></g><g id="Group_5905" data-name="Group 5905"><path id="Path_7554" data-name="Path 7554" class="cls-14" d="M37.6,181.27a6.36,6.36,0,0,1-.86,2.39,2,2,0,0,1-2.74.54,2,2,0,0,1-.41-.36c-1.71-1.65-.77-4.28-.1-6.2.22-.61-.75-.87-1-.26-.92,2.61-1.77,6.46,1.43,7.92,2.72,1.24,4.14-1.58,4.63-3.76.14-.64-.83-.9-1-.27Z"/></g><g id="Group_5906" data-name="Group 5906"><path id="Path_7555" data-name="Path 7555" class="cls-14" d="M85.55,159.34a5.44,5.44,0,0,1-.22,3,2,2,0,0,1-2.72.76l-.09-.05c-2.13-1-2-3.8-2-5.83a.51.51,0,0,0-.52-.48.5.5,0,0,0-.49.48c-.07,2.74.23,6.4,3.53,7.07,3.11.63,3.75-2.61,3.52-4.95-.06-.64-1.07-.64-1,0Z"/></g><g id="Group_5907" data-name="Group 5907"><path id="Path_7556" data-name="Path 7556" class="cls-14" d="M133.91,159.88c.77,2.25,2.66,5,5.28,3.12s1.48-5.43.3-7.91c-.28-.59-1.15-.08-.87.51.83,1.74,2,4.09.65,5.88a2,2,0,0,1-3.12.56,5.65,5.65,0,0,1-1.25-2.43c-.21-.61-1.19-.35-1,.27Z"/></g><g id="Group_5908" data-name="Group 5908"><path id="Path_7557" data-name="Path 7557" class="cls-14" d="M49.38,238.44c.1,2.52.8,6.39,4.18,6.15,2.89-.2,2.65-3.69,2.12-5.68a.51.51,0,0,0-.64-.32.5.5,0,0,0-.34.59c.38,1.41.88,4.54-1.49,4.4s-2.74-3.25-2.82-5.14c0-.65-1-.65-1,0Z"/></g><g id="Group_5909" data-name="Group 5909"><path id="Path_7558" data-name="Path 7558" class="cls-14" d="M54,160.24c-.46,2.46-.63,6.54,2.77,6.95,2.81.34,3.33-3,3.26-5.06,0-.65-1-.65-1,0,.05,1.42,0,4.25-2.12,4-2.69-.27-2.26-3.86-1.93-5.66.12-.64-.86-.91-1-.27Z"/></g><g id="Group_5910" data-name="Group 5910"><path id="Path_7559" data-name="Path 7559" class="cls-14" d="M101.82,218.12c-.76,2.24.91,5,3.41,5a3.6,3.6,0,0,0,3-5c-.26-.59-1.13-.07-.87.51a2.55,2.55,0,0,1-1.49,3.28,2.64,2.64,0,0,1-1,.16,2.81,2.81,0,0,1-2.19-3.32,3.1,3.1,0,0,1,.1-.36c.21-.62-.77-.88-1-.27Z"/></g><g id="Group_5911" data-name="Group 5911"><path id="Path_7560" data-name="Path 7560" class="cls-14" d="M85.43,138.36c-.76,2.23.92,5,3.41,5a3.6,3.6,0,0,0,3.3-3.86,3.92,3.92,0,0,0-.28-1.12c-.26-.59-1.13-.08-.87.51a2.55,2.55,0,0,1-1.49,3.28,2.62,2.62,0,0,1-1,.16A2.82,2.82,0,0,1,86.3,139c0-.12.06-.24.1-.36.21-.62-.77-.88-1-.27Z"/></g><g id="Group_5912" data-name="Group 5912"><path id="Path_7561" data-name="Path 7561" class="cls-14" d="M101.71,176c-.77,2.24.91,5,3.4,5a3.58,3.58,0,0,0,3.3-3.86,3.67,3.67,0,0,0-.27-1.12c-.26-.59-1.13-.07-.87.52a2.54,2.54,0,0,1-1.49,3.27,2.44,2.44,0,0,1-1,.16,2.81,2.81,0,0,1-2.2-3.32c0-.12.06-.24.1-.36.21-.62-.77-.88-1-.27Z"/></g><g id="Group_5913" data-name="Group 5913"><path id="Path_7562" data-name="Path 7562" class="cls-14" d="M145.46,235.89c-.76,2.24.92,5,3.41,5a3.59,3.59,0,0,0,3.3-3.86,3.67,3.67,0,0,0-.27-1.12c-.27-.59-1.14-.07-.87.52a2.54,2.54,0,0,1-1.5,3.27,2.44,2.44,0,0,1-1,.16,2.81,2.81,0,0,1-2.19-3.32,1.61,1.61,0,0,1,.1-.36C146.65,235.54,145.67,235.28,145.46,235.89Z"/></g><path id="Path_7563" data-name="Path 7563" class="cls-12" d="M71.26,185.46a10.75,10.75,0,1,1-10.77-10.72,10.75,10.75,0,0,1,10.77,10.72Z"/><g id="Group_5916" data-name="Group 5916"><g id="Group_5915" data-name="Group 5915"><path id="Path_7564" data-name="Path 7564" class="cls-15" d="M115.75,204.08c0-9.86-7.87-6.2-13.32-2a14.6,14.6,0,0,1-20.08.05c-5.46-4.2-13.33-7.82-13.3,2,0,9.2,4,23.15,21.46,24.92v.2c.67,0,1.32,0,2-.05s1.29,0,2,0l0-.2C111.81,227.25,115.78,213.28,115.75,204.08Z"/><g id="Group_5914" data-name="Group 5914"><path id="Path_7565" data-name="Path 7565" class="cls-16" d="M92.41,206.13c-.32,0-.74-.06-1.24-.13h0s-.38,7.17,7.68,6.6,4.24-11,4.24-11l-.66.5A18.72,18.72,0,0,1,92.41,206.13Z"/><path id="Path_7566" data-name="Path 7566" class="cls-16" d="M78.82,199.78s-3.32,11.79,5.32,12.89c6.44.82,6.8-4.17,6.57-6.75a19.28,19.28,0,0,1-8.35-3.77A32.11,32.11,0,0,0,78.82,199.78Z"/></g></g></g><g id="Group_5919" data-name="Group 5919"><g id="Group_5917" data-name="Group 5917"><path id="Path_7567" data-name="Path 7567" class="cls-15" d="M54.16,177c-.38,2.2.63,5.21,1.55,7.19s2.6,3.54,4.92,3.46c5.85-.22,5.4-8.22,3.68-12.12-.18-.39-.71-.14-.74.2-.21,2.81,1.25,10.86-3.56,10.16-3.63-.53-4.27-6.2-5.39-8.89-.08-.19-.41-.26-.46,0Z"/></g><g id="Group_5918" data-name="Group 5918"><path id="Path_7568" data-name="Path 7568" class="cls-15" d="M130,176.78c-1.11,2.7-1.72,8.37-5.34,8.92-4.81.73-3.39-7.33-3.62-10.14,0-.34-.56-.59-.74-.2-1.7,3.91-2.1,11.91,3.75,12.09,2.31.08,4-1.49,4.9-3.48s1.9-5,1.51-7.19c-.05-.26-.38-.19-.46,0Z"/></g></g><g id="Group_5926" data-name="Group 5926"><g id="Group_5921" data-name="Group 5921"><path id="Path_7569" data-name="Path 7569" class="cls-12" d="M83.81,138.22A31.16,31.16,0,0,1,93,116.76a34.92,34.92,0,0,0-2.27,17.54"/><g id="Group_5920" data-name="Group 5920"><path id="Path_7570" data-name="Path 7570" class="cls-12" d="M85.08,138.21a30.58,30.58,0,0,1,8.83-20.55l-2.11-1.23a37.81,37.81,0,0,0-2.32,17.87c.17,1.6,2.7,1.61,2.52,0a36.55,36.55,0,0,1,2.23-17.2c.47-1.22-1.28-2.08-2.11-1.23a33.39,33.39,0,0,0-9.57,22.35c-.06,1.63,2.46,1.62,2.53,0Z"/></g></g><g id="Group_5923" data-name="Group 5923"><path id="Path_7571" data-name="Path 7571" class="cls-12" d="M91.85,132A15.47,15.47,0,0,1,105,119.68a15.29,15.29,0,0,0-6.15,18"/><g id="Group_5922" data-name="Group 5922"><path id="Path_7572" data-name="Path 7572" class="cls-12" d="M93.07,132.28a14.47,14.47,0,0,1,12.26-11.38l-1-2.3A16.73,16.73,0,0,0,97.63,138c.52,1.53,3,.86,2.43-.68a14.18,14.18,0,0,1,5.57-16.56,1.27,1.27,0,0,0-1-2.3,16.88,16.88,0,0,0-14,13.15c-.35,1.58,2.09,2.25,2.44.66Z"/></g></g><g id="Group_5925" data-name="Group 5925"><path id="Path_7573" data-name="Path 7573" class="cls-12" d="M86.09,129.74a19.78,19.78,0,0,0-20.58-9.55c8.94,1.57,15.84,10.73,14.9,19.76"/><g id="Group_5924" data-name="Group 5924"><path id="Path_7574" data-name="Path 7574" class="cls-12" d="M87.18,129.1a21.36,21.36,0,0,0-22-10.14c-1.24.2-1.17,2.19,0,2.44a17.73,17.73,0,0,1,14,18.54c-.11,1.63,2.41,1.61,2.52,0a20.23,20.23,0,0,0-15.83-21v2.44a18.74,18.74,0,0,1,19.16,9,1.26,1.26,0,0,0,2.18-1.28Z"/></g></g></g><g id="Group_5928" data-name="Group 5928"><path id="Path_7575" data-name="Path 7575" class="cls-17" d="M53,144.09a15.9,15.9,0,0,0-3.17,2.17,5.43,5.43,0,0,0-1.78,3.31A7.64,7.64,0,0,0,53,148a22.48,22.48,0,0,0,3.73-3.63.87.87,0,0,0,.3-.64c0-.3-.38-.46-.67-.53a5.62,5.62,0,0,0-4.41.94,10,10,0,0,0-3,3.5"/><g id="Group_5927" data-name="Group 5927"><path id="Path_7576" data-name="Path 7576" class="cls-17" d="M52.4,143c-2.5,1.44-5,3.19-5.53,6.24a1.27,1.27,0,0,0,.93,1.56.92.92,0,0,0,.29,0,10,10,0,0,0,6.67-2.68c1.07-.92,3.88-3.08,3.43-4.79-.52-2-3.6-1.72-5.07-1.24a9.94,9.94,0,0,0-5.3,4.85A1.26,1.26,0,0,0,50,148.25c1.24-2.15,3.6-4.83,6.4-3.67l-.75-.58.24.35c0-.33-.08-.65-.13-1-.24,1.08-2.28,2.6-3.12,3.26a7.08,7.08,0,0,1-4.55,1.68l1.22,1.6c.4-2.42,2.41-3.6,4.37-4.74A1.26,1.26,0,0,0,52.4,143Z"/></g></g><g id="Group_5930" data-name="Group 5930"><path id="Path_7577" data-name="Path 7577" class="cls-17" d="M60.81,141.17c-.56-.12-.77.69-.73,1.26a3.59,3.59,0,0,0,3.55-2.8.68.68,0,0,0-.14-.68c-.23-.18-.57,0-.82.13A5.69,5.69,0,0,0,61,140.89"/><g id="Group_5929" data-name="Group 5929"><path id="Path_7578" data-name="Path 7578" class="cls-17" d="M60.8,139.91c-1.38-.1-2,1.35-2,2.52a1.28,1.28,0,0,0,1.27,1.26,4.83,4.83,0,0,0,4.77-3.82,1.76,1.76,0,0,0-1.21-2.17,1.72,1.72,0,0,0-1.14.06,5.91,5.91,0,0,0-2.64,2.5c-.87,1.38,1.32,2.65,2.18,1.27a4.51,4.51,0,0,1,.72-.91,3.73,3.73,0,0,1,.36-.32l.18-.13c.2-.12.21-.13,0,0l-.64-.17h0l-.33-.56c0-.16,0-.18,0,0s0,.19-.08.29a1.6,1.6,0,0,1-.1.23,2.5,2.5,0,0,1-.6.73,2.26,2.26,0,0,1-1.53.52l1.26,1.26c0-.71.17.06-.53,0,1.62.12,1.61-2.41,0-2.52Z"/></g></g><g id="Group_5932" data-name="Group 5932"><path id="Path_7579" data-name="Path 7579" class="cls-17" d="M45,153.76a4.4,4.4,0,0,0-2.13,2.56c-.16.53-.1,1.29.44,1.43a1.1,1.1,0,0,0,.89-.33,6,6,0,0,0,2.08-3.56.6.6,0,0,0-.1-.58.58.58,0,0,0-.44-.1c-1.57.15-2.35,1.94-2.81,3.44"/><g id="Group_5931" data-name="Group 5931"><path id="Path_7580" data-name="Path 7580" class="cls-17" d="M44.34,152.67c-1.62.92-3.37,3.06-2.68,5.05a1.91,1.91,0,0,0,2.43,1.19l.17-.07a5.62,5.62,0,0,0,2.3-2.26,6.07,6.07,0,0,0,1-2.93,1.78,1.78,0,0,0-1.84-1.75,1.54,1.54,0,0,0-.56.1c-2,.47-2.9,2.52-3.46,4.29-.49,1.56,2,2.21,2.44.66a5.31,5.31,0,0,1,1-2.12c.1-.11.25-.18.35-.29.28-.29.7.26-.09-.5-.55-.53-.37-.43-.5,0a4.55,4.55,0,0,1-1,1.87c-.13.15-.39.3-.47.47-.17.32.43.49.61.33s.36-.8.55-1a3.29,3.29,0,0,1,1-.86,1.25,1.25,0,0,0,.37-1.75,1.27,1.27,0,0,0-1.65-.43Z"/></g></g><g id="Group_5934" data-name="Group 5934"><path id="Path_7581" data-name="Path 7581" class="cls-17" d="M52,152.58a1.94,1.94,0,0,0-1.88,2v.1a.69.69,0,0,0,.2.44.7.7,0,0,0,.49.09A2.6,2.6,0,0,0,53,152.4a.68.68,0,0,0-.16-.39.62.62,0,0,0-.49-.09,2.7,2.7,0,0,0-2.22,2.18"/><g id="Group_5933" data-name="Group 5933"><path id="Path_7582" data-name="Path 7582" class="cls-17" d="M52,151.32a3.2,3.2,0,0,0-3.12,3.29,2.93,2.93,0,0,0,0,.41c.5,2.27,3.3,1.46,4.41.18s1.77-4.35-.6-4.53a3.86,3.86,0,0,0-3.78,3.1,1.3,1.3,0,0,0,.89,1.55,1.27,1.27,0,0,0,1.55-.89c.13-.62.62-1.33,1.35-1.24l-.64-.17h0l-.33-.55a1.11,1.11,0,0,1-.24,1,1.77,1.77,0,0,1-.31.3,1.26,1.26,0,0,1-.26.13c-.44.17-.13-.16.2.21l.32.56a.61.61,0,0,1,.38-.78.58.58,0,0,1,.19,0c1.62-.07,1.62-2.59,0-2.53Z"/></g></g><g id="Group_5936" data-name="Group 5936"><path id="Path_7583" data-name="Path 7583" class="cls-17" d="M59.79,146.52c-.42.43-.84.88-1.23,1.33a2.58,2.58,0,0,0-.7,1.19,1,1,0,0,0,.6,1.12,1.16,1.16,0,0,0,1-.44,3.35,3.35,0,0,0,.76-3.35c-.68.8-1.32,1.62-1.93,2.46"/><g id="Group_5935" data-name="Group 5935"><path id="Path_7584" data-name="Path 7584" class="cls-17" d="M58.89,145.63c-.83.85-2,1.86-2.25,3.08a2.23,2.23,0,0,0,1.48,2.67,2.88,2.88,0,0,0,3-1.75,4.74,4.74,0,0,0,.35-3.6,1.28,1.28,0,0,0-1.58-.86,1.24,1.24,0,0,0-.53.31c-.74.88-1.45,1.79-2.13,2.72a1.27,1.27,0,0,0,.46,1.73,1.3,1.3,0,0,0,1.73-.46c.55-.76,1.12-1.49,1.73-2.21l-2.11-.55a2.2,2.2,0,0,1,.05,1.22,1.85,1.85,0,0,1-.27.63c-.07.11-.33.29-.34.38.15-1.05.67.26.61.3a4.1,4.1,0,0,0,.35-.5c.39-.46.81-.9,1.23-1.33,1.14-1.16-.65-2.95-1.79-1.78Z"/></g></g><g id="Group_5938" data-name="Group 5938"><path id="Path_7585" data-name="Path 7585" class="cls-12" d="M54.91,139.7a11.39,11.39,0,0,0-7.29,1.87l1.71,1.14a7.07,7.07,0,0,0-4,.64,2.19,2.19,0,0,0-1,.87,1,1,0,0,0,.25,1.24c.41.24,1.19.3,1,.75a8.13,8.13,0,0,0-5.41,4.62,1.09,1.09,0,0,0-.09.88c.27.6,1.19.32,1.7-.09,1.88-1.46,3.26-3.47,5.06-5,2.43-2.1,5.72-3.49,7.08-6.41"/><g id="Group_5937" data-name="Group 5937"><path id="Path_7586" data-name="Path 7586" class="cls-12" d="M54.91,139.49a12.45,12.45,0,0,0-7.43,1.85.26.26,0,0,0-.09.37.26.26,0,0,0,.09.09c1.32.89.73.31-.28.64a6.87,6.87,0,0,0-2.68,1c-1,.94-.37,1.2-.29,2.19,0,.18.51.24.48.48a22.68,22.68,0,0,1-2.26,1.25c-.91.71-2.79,2.49-2.76,3.81.06,2.92,3.56-.38,4.2-1a47.21,47.21,0,0,1,6.41-5.66,10.92,10.92,0,0,0,3.88-4.13.3.3,0,0,0-.11-.42.3.3,0,0,0-.42.11c-1.85,3-4.93,4.36-7.44,6.66-1,.87-2.67,3.71-3.9,4l-1.48-.44a7.7,7.7,0,0,1,1.45-1.86,8.38,8.38,0,0,1,3.39-1.87.35.35,0,0,0,.24-.43s-.51-.81-.5-.65a1.23,1.23,0,0,0-.26-.12c-.41-.16-.21-.5.59-1.05.87-1.43,2-1.39,3.6-1.3.3,0,.36-.38.14-.53-3-2,4.25-2.6,5.44-2.56.26,0,.26-.4,0-.41Z"/></g></g><g id="Group_5940" data-name="Group 5940"><path id="Path_7587" data-name="Path 7587" class="cls-12" d="M128.74,139.81a12.81,12.81,0,0,1,9.18,4.42,9,9,0,0,1-2.51.48,11.67,11.67,0,0,1,6.84,2.32,2.19,2.19,0,0,1,.84,1c.38,1.18-1.07,2.06-2.24,2.45,2.17,1.39,4.42,3,5.38,5.36a3,3,0,0,1,.14,2.29,1.47,1.47,0,0,1-1.9.81l0,0"/><g id="Group_5939" data-name="Group 5939"><path id="Path_7588" data-name="Path 7588" class="cls-12" d="M128.7,140a17.74,17.74,0,0,1,4.41,1.23c1,.44,6.15,2.73,2.3,3.16a.37.37,0,0,0,0,.73,11.3,11.3,0,0,1,3.5.61q3.79.54,1.84,4.41a.4.4,0,0,0-.25.51.45.45,0,0,0,.16.2,20.31,20.31,0,0,1,3,2.26c.62.61,4.72,5.23.73,5.5-.31,0-.51.49-.18.65,1.66.76,2.88-.47,2.78-2.23a6.71,6.71,0,0,0-1.59-3.26c-.39-.49-3.41-2.56-3.48-3.14a10.9,10.9,0,0,0,1.47-1.64,1.9,1.9,0,0,0-.41-1.74c-.73-1.11-2.71-1.83-3.91-2.23-.76-.26-1.73-.26-2.44-.54,1.18.47-2.52,1.18,1.34.14a.37.37,0,0,0,.25-.45.6.6,0,0,0-.09-.15,12.5,12.5,0,0,0-9.43-4.3c-.15,0-.2.25,0,.27Z"/></g></g></g><path id="Path_7589" data-name="Path 7589" class="cls-6" d="M25.69,209.09s-8.45.65-12.11,12.84c-2.85,9.5-2.84,17.45-2.3,18.58s2.38-2.14,2.38-2.14,1.51,3.19,2.41,2.84.37-3.64.37-3.64,2.25,1.31,3.12.21-3-3.66-3-3.66.07-17.83,9.68-17.73c0,0,2.8-2.63,2.63-4.15S25.69,209.09,25.69,209.09Z"/><path id="Path_7590" data-name="Path 7590" class="cls-6" d="M159.27,207.5s8.46-.56,13.81,11c4.18,9,5.3,16.87,4.94,18.06s-2.66-1.78-2.66-1.78-1.05,3.37-2,3.16-.89-3.55-.89-3.55-2,1.62-3,.65,2.43-4.05,2.43-4.05-2.6-17.64-12.11-16.17C159.75,214.81,155.51,211.54,159.27,207.5Z"/></g></g></g></svg>