<svg xmlns="http://www.w3.org/2000/svg" width="225.781" height="74.062" viewBox="0 0 225.781 74.062">
  <g id="Group_5856" data-name="Group 5856" transform="translate(-769.856 -3138.699)">
    <g id="金牛" style="isolation: isolate">
      <text id="天秤座" transform="translate(769.856 3189.731)" fill="#fff" font-size="40" font-family="STXihei, STHeiti" letter-spacing="0.2em" style="isolation: isolate"><tspan x="0" y="0">天秤座</tspan></text>
    </g>
    <g id="Group_157" data-name="Group 157" transform="translate(-23.722 3.697)">
      <g id="Group_155" data-name="Group 155">
        <path id="Path_567" data-name="Path 567" d="M1019.263,3172.036a37.007,37.007,0,0,1-36.987,37.029h-.038q-1.491,0-2.955-.116a37.045,37.045,0,1,1,39.9-39.344Q1019.263,3170.809,1019.263,3172.036Z" fill="#f7b03e"/>
        <path id="Path_568" data-name="Path 568" d="M989.5,3191.251c-2.115,2.621-5.322,4.075-8.447,5.334a11.388,11.388,0,0,0-3.172,1.671,3.675,3.675,0,0,0-1.43,3.141c.218,1.664,1.872,2.728,2.621,4.229a4.469,4.469,0,0,1,.208,3.319,37.018,37.018,0,0,1-28.806-17.87,133.9,133.9,0,0,0,25.89-8.76,25.184,25.184,0,0,1,6.924-2.452,7.582,7.582,0,0,1,6.756,2.1C992.255,3184.513,991.621,3188.634,989.5,3191.251Z" fill="#eb7353"/>
        <path id="Path_569" data-name="Path 569" d="M1015.015,3157.417q-17.493,5.759-34.994,11.515a12.127,12.127,0,0,1-4.976.891,3.657,3.657,0,0,1-2.224-6.672,12.09,12.09,0,0,1,3.719-1.966q5.784-2.244,11.572-4.485c2.07-.8,4.231-1.665,5.673-3.354s1.864-4.475.306-6.058a4.83,4.83,0,0,0-4.248-1.073,25.946,25.946,0,0,0-4.32,1.427,7.17,7.17,0,0,1-4.356.425,3.17,3.17,0,0,1-2.4-3.284c.327-1.946,2.669-2.651,4.5-3.386a13.947,13.947,0,0,0,6.525-5.588l.011-.019a37.081,37.081,0,0,1,26.318,21.3C1015.742,3157.191,1015.37,3157.3,1015.015,3157.417Z" fill="#eb7353"/>
        <path id="Path_570" data-name="Path 570" d="M1015.15,3182.051a34.417,34.417,0,0,0,3.163-1.643,36.687,36.687,0,0,1-3.817,9.82c-1.172.309-2.35.6-3.525.89a8.445,8.445,0,0,1-4.223.3c-1.375-.379-2.589-1.753-2.263-3.142.287-1.223,1.55-1.912,2.686-2.449Z" fill="#ffcfcf"/>
        <path id="Path_571" data-name="Path 571" d="M1019.184,3169.6a8.105,8.105,0,0,0-3.328.465,14.936,14.936,0,0,1-4.509,1.108c-1.555,0-3.254-.891-3.568-2.414-.351-1.706,1.18-3.274,2.814-3.878a19.346,19.346,0,0,1,4.978-.756,12.293,12.293,0,0,0,2.729-.519A36.743,36.743,0,0,1,1019.184,3169.6Z" fill="#ffcfcf"/>
        <path id="Path_572" data-name="Path 572" d="M1007.785,3198.981c-1.891,1.891-6.857,2.139-8.413,2.134s-4.193-.611-4.507-2.134c-.351-1.705,1.518-3.177,3.151-3.781,1.58-.584,3.151-.63,4.727-1.261.855-.342,10.786-3.49,11.66-3.781C1013.142,3193.309,1007.785,3199.3,1007.785,3198.981Z" fill="#ffcfcf"/>
        <path id="Path_573" data-name="Path 573" d="M958.359,3178.308l-11.388,5.043a37.18,37.18,0,0,1,2.05-27.7c5.4-2.7,13.187-6.165,15.059-3.252,1.959,3.051-1.18,7.426-4.258,9.342-1.8,1.121-3.964,1.615-5.648,2.906s-2.681,3.951-1.241,5.507c1.154,1.246,3.127,1.08,4.812.89s3.726-.146,4.648,1.279a3.283,3.283,0,0,1-.568,3.8A9.575,9.575,0,0,1,958.359,3178.308Z" fill="#ffcfcf"/>
        <g id="Group_147" data-name="Group 147">
          <path id="Path_574" data-name="Path 574" d="M962.415,3173.736a1.686,1.686,0,1,0-1.627-1.627A1.686,1.686,0,0,0,962.415,3173.736Z" fill="#bcc0e5"/>
        </g>
        <g id="Group_148" data-name="Group 148">
          <path id="Path_575" data-name="Path 575" d="M1007.479,3153.819a.756.756,0,1,0-.728-.728A.755.755,0,0,0,1007.479,3153.819Z" fill="#bcc0e5"/>
        </g>
        <g id="Group_149" data-name="Group 149">
          <path id="Path_576" data-name="Path 576" d="M976.171,3181.6a1.115,1.115,0,1,0-1.081-1.081A1.115,1.115,0,0,0,976.171,3181.6Z" fill="#bcc0e5"/>
        </g>
        <g id="Group_150" data-name="Group 150">
          <path id="Path_577" data-name="Path 577" d="M961.7,3184.073a.672.672,0,1,0-.645-.646A.672.672,0,0,0,961.7,3184.073Z" fill="#e9d1ff"/>
        </g>
        <g id="Group_151" data-name="Group 151">
          <path id="Path_578" data-name="Path 578" d="M980.615,3164.2a.5.5,0,1,0-.5-.5A.5.5,0,0,0,980.615,3164.2Z" fill="#e9d1ff"/>
        </g>
        <g id="Group_152" data-name="Group 152">
          <path id="Path_579" data-name="Path 579" d="M1002.8,3195.551a.5.5,0,1,0-.5-.5A.5.5,0,0,0,1002.8,3195.551Z" fill="#e9d1ff"/>
        </g>
        <g id="Group_153" data-name="Group 153">
          <path id="Path_580" data-name="Path 580" d="M1010.207,3190.158a1.734,1.734,0,1,0-1.674-1.674A1.735,1.735,0,0,0,1010.207,3190.158Z" fill="#bcc0e5"/>
        </g>
        <g id="Group_154" data-name="Group 154">
          <path id="Path_581" data-name="Path 581" d="M981.216,3201.818a.788.788,0,1,0-.786-.786A.788.788,0,0,0,981.216,3201.818Z" fill="#bcc0e5"/>
        </g>
      </g>
      <path id="Path_582" data-name="Path 582" d="M1019.263,3172.036s-12.327,2.6-16.944,2.325-7.694,2.027-7.86,3.33c-.224,1.753.86,3.976,4.5,3.644s5.427-.906,10.434-1.556,4.691,1.871,4.691,1.871c.316.945-3.442,1.634-3.88,2.738a1.159,1.159,0,0,0,.732,1.363c2.208.295,7.248-4.411,7.248-4.411S1019.76,3174.717,1019.263,3172.036Z" fill="#eb7353"/>
      <g id="Group_156" data-name="Group 156" opacity="0.2">
        <path id="Path_583" data-name="Path 583" d="M968.367,3148.665c1.913,1.666.348,6.594-3.495,11.007s-8.508,6.641-10.421,4.976-.347-6.593,3.5-11.007S966.455,3147,968.367,3148.665Z" fill="#fff"/>
        <path id="Path_584" data-name="Path 584" d="M953.5,3167.521a2,2,0,1,1-2.4,1.5v0A2,2,0,0,1,953.5,3167.521Z" fill="#fff"/>
        <path id="Path_585" data-name="Path 585" d="M968.478,3144.018a1.036,1.036,0,1,1-1.243.776h0A1.037,1.037,0,0,1,968.478,3144.018Z" fill="#fff"/>
        <path id="Path_586" data-name="Path 586" d="M973.928,3143.618a1.446,1.446,0,1,1-1.735,1.082h0A1.447,1.447,0,0,1,973.928,3143.618Z" fill="#fff"/>
      </g>
    </g>
  </g>
</svg>
