<svg xmlns="http://www.w3.org/2000/svg" viewBox="0 0 188.46 285.53"><defs><style>.cls-1{fill:#f9e9bd;}.cls-2{fill:#6bbac6;}.cls-11,.cls-3,.cls-4{isolation:isolate;}.cls-4{font-size:23.18px;font-family:STXihei, STHeiti;letter-spacing:0.2em;}.cls-4,.cls-9{fill:#fff;}.cls-5{fill:#0f82a2;}.cls-6{fill:#afcb89;}.cls-7{fill:#6fc5cd;}.cls-8{fill:#92b620;}.cls-10{fill:#1d110b;}.cls-11{fill:#5c2176;opacity:0.2;}.cls-12{fill:#f7ef93;}</style></defs><g id="圖層_2" data-name="圖層 2"><g id="圖層_1-2" data-name="圖層 1"><g id="Group_6263" data-name="Group 6263"><g id="Group_5807" data-name="Group 5807"><path id="Path_5537" data-name="Path 5537" class="cls-1" d="M185.87,73.46c-1,5.66-5.08,9.89-9.9,9.89H52.11l2.21,17.07L52.73,110.7,30.11,83.35H10.17C4.56,83.35,0,77.62,0,70.58V15.67C0,9.62,3.37,4.56,7.88,3.25A7.87,7.87,0,0,1,14,0h165.8c4.77,0,8.63,4.85,8.63,10.83V65.74A12.25,12.25,0,0,1,185.87,73.46Z"/><path id="Path_5538" data-name="Path 5538" class="cls-2" d="M10.17,4.84H176c4.77,0,8.63,4.85,8.63,10.83V70.58c0,6-3.86,10.83-8.63,10.83H47.37l3.09,23.86L30.74,81.41H10.18c-4.77,0-8.63-4.85-8.63-10.83V15.67C1.55,9.69,5.41,4.84,10.17,4.84Z"/></g><g id="點我進入_星座探索" data-name="點我進入 星座探索" class="cls-3"><text class="cls-4" transform="translate(40.69 37.9)">點我進入</text><text class="cls-4" transform="translate(40.69 65.71)">星座探索</text></g></g><g id="Group_6266" data-name="Group 6266"><g id="Group_5847" data-name="Group 5847"><path id="Path_7397" data-name="Path 7397" class="cls-5" d="M57.36,137.93s-8.44-.85-13.77-6.89c-3.93-4.46-1.59-13.85,1.73-15.28s4.16,4.28,6.47,9.37c2.7,6,9.53,9.93,9.53,9.93S61.46,139.59,57.36,137.93Z"/><path id="Path_7398" data-name="Path 7398" class="cls-5" d="M140.52,141.35s8.27,1.9,15.25-2.12c5.15-3,5.94-12.61,3.26-15s-5.32,2.73-9.13,6.81c-4.48,4.79-12.22,6.35-12.22,6.35S135.07,140.63,140.52,141.35Z"/><path id="Path_7399" data-name="Path 7399" class="cls-6" d="M87.57,268.36c-1.84,4.1-.77,11.18-1.62,12.52s-11.22,1.37-11.25-.06,4.51-4,4.51-4c-.51-2,.76-11,.76-11a5.6,5.6,0,0,1,5.21-.69C87.86,266.31,87.57,268.36,87.57,268.36Z"/><path id="Path_7400" data-name="Path 7400" class="cls-6" d="M127.62,268.89c-.18,4.5,3.47,10.66,3.18,12.22s-9.89,5.47-10.46,4.15,2.69-5.41,2.69-5.41c-1.23-1.68-3.42-10.48-3.42-10.48a4.29,4.29,0,0,1,2.58-2.6C125,266,127.62,268.89,127.62,268.89Z"/><path id="Path_7401" data-name="Path 7401" class="cls-6" d="M43.18,186.33s-9.31.71-13.34,14.14c-3.14,10.46-3.13,19.22-2.54,20.47s2.62-2.36,2.62-2.36,1.67,3.51,2.66,3.13.4-4,.4-4,2.48,1.44,3.44.23-3.29-4-3.29-4,.07-19.64,10.66-19.53c0,0,3.09-2.9,2.91-4.57S43.18,186.33,43.18,186.33Z"/><path id="Path_7402" data-name="Path 7402" class="cls-7" d="M138.06,228.41c-1.48-18.53,20.9-63.41.72-89.87-16.63-21.81-64.56-30.81-85.87,5.64S49.66,251,76.55,264.27c24.18,12,61.79,6.23,66.34-5.7S139,240.3,138.06,228.41Z"/><g id="Group_5846" data-name="Group 5846"><path id="Path_7403" data-name="Path 7403" class="cls-8" d="M90.81,173.43c8.66-7.05,18-2.84,19.44-2.1a23.25,23.25,0,0,1-12.66,3.24,21,21,0,0,1-6.8-1.12Z"/><path id="Path_7404" data-name="Path 7404" class="cls-9" d="M111.25,154.46c-.16,1.1-1,7-2.57,7s-3-3.81-3.52-5A35.25,35.25,0,0,1,111.25,154.46Z"/><path id="Path_7405" data-name="Path 7405" class="cls-10" d="M116.44,156.82c2.11,4.3-.06,10.68-6.19,14.51-1.47-.74-10.78-5-19.44,2.1v0C80.72,170,77.46,159.56,80.09,157.31c2.92-2.51,5.87.91,16.26,1.23,2.9.09,6-1,8.81-2.1.48,1.2,2.09,5,3.52,5s2.41-5.89,2.57-7C113.49,154.09,115.32,154.53,116.44,156.82Z"/></g><path id="Path_7406" data-name="Path 7406" class="cls-6" d="M144.15,185.78s9,2.56,10.24,16.52c1,10.88-.77,19.46-1.59,20.57s-2.1-2.84-2.1-2.84-2.34,3.1-3.23,2.54.4-4,.4-4-2.72.92-3.41-.46,4-3.29,4-3.29,3.85-19.27-6.55-21.27C141.94,193.54,138.75,188.57,144.15,185.78Z"/><path id="Path_7407" data-name="Path 7407" class="cls-11" d="M77.29,154.77a7.53,7.53,0,1,0-7.47,7.57h0a7.52,7.52,0,0,0,7.47-7.57Z"/><path id="Path_7408" data-name="Path 7408" class="cls-9" d="M76.46,154.77a6.7,6.7,0,1,0-6.65,6.75h0a6.7,6.7,0,0,0,6.64-6.74Z"/><path id="Path_7409" data-name="Path 7409" class="cls-10" d="M71.84,154.81a2.07,2.07,0,1,0-2.06,2.09,2.07,2.07,0,0,0,2.06-2.09Z"/><path id="Path_7410" data-name="Path 7410" class="cls-11" d="M134.65,155.14a7.53,7.53,0,1,0-7.47,7.57h0A7.52,7.52,0,0,0,134.65,155.14Z"/><path id="Path_7411" data-name="Path 7411" class="cls-9" d="M133.83,155.14a6.7,6.7,0,1,0-6.66,6.75h0A6.71,6.71,0,0,0,133.83,155.14Z"/><path id="Path_7412" data-name="Path 7412" class="cls-10" d="M129.2,155.17a2.07,2.07,0,1,0-2.06,2.09A2.07,2.07,0,0,0,129.2,155.17Z"/></g><path id="Path_7413" data-name="Path 7413" class="cls-12" d="M47.69,191.18a28.15,28.15,0,0,0,.69,2.85,28.86,28.86,0,0,0,3.35,7.55,13.18,13.18,0,0,0,4.1,4.11,9.19,9.19,0,0,0,6.56,1.13c.3-.06.61-.11.9-.18l.93-.26a14.13,14.13,0,0,0,1.76-.72,9,9,0,0,0,3.1-2.43,9.24,9.24,0,0,0,1.48-8.13,8.74,8.74,0,0,0-2.1-4,2.6,2.6,0,0,0-1.92-.89h-.13s-.08,0-.1,0l-.29.1a2.88,2.88,0,0,0-.39.3,3.07,3.07,0,0,0-.62.94,10.44,10.44,0,0,0-.6,4.86,16.2,16.2,0,0,0,1.2,5,12.53,12.53,0,0,0,2.93,4.33,9.83,9.83,0,0,0,4.7,2.43,12.2,12.2,0,0,0,2.7.28l1.36-.08c.47-.07,1-.12,1.4-.2A19.51,19.51,0,0,0,84,206.47a16.28,16.28,0,0,0,4.5-3.37,11.62,11.62,0,0,0,2.76-4.89,7,7,0,0,0,.19-2.77,3.86,3.86,0,0,0-1.19-2.35,3.93,3.93,0,0,0-1.15-.68,2.78,2.78,0,0,0-.64-.12h-.27l-.29.08a3.67,3.67,0,0,0-1.85,1.89A14.36,14.36,0,0,0,84.69,200a17.49,17.49,0,0,0,.67,5.93,9,9,0,0,0,3.17,4.85,6.85,6.85,0,0,0,2.67,1.12,10.62,10.62,0,0,0,3,0,17.52,17.52,0,0,0,10.57-5.43,12.47,12.47,0,0,0,3-5.14,6.67,6.67,0,0,0,.18-2.88,3.79,3.79,0,0,0-1.38-2.34,5.15,5.15,0,0,0-1.21-.68c-.16,0-.48-.15-.68-.17a2.41,2.41,0,0,0-.6,0,2.33,2.33,0,0,0-1.12.53,4.24,4.24,0,0,0-.82,1.07,10.35,10.35,0,0,0-.89,5.59c.32,3.81,2.26,7.61,5.59,9.37a11.2,11.2,0,0,0,5.34,1.35,18.28,18.28,0,0,0,2.76-.18l1.38-.26,1.31-.34a12.85,12.85,0,0,0,4.72-2.49,10.46,10.46,0,0,0,3-4.23,12.52,12.52,0,0,0,.74-5,14.17,14.17,0,0,0-1.06-4.8,6.86,6.86,0,0,0-2.82-3.52,1.63,1.63,0,0,0-.47-.16l-.24-.05h-.36s-.1,0,0,0l-.07,0-.29.09a1.11,1.11,0,0,0-.32.21,2.78,2.78,0,0,0-.61,1.84,12.68,12.68,0,0,0,.76,4.27,19.94,19.94,0,0,0,1.79,3.83,12.67,12.67,0,0,0,5.5,5.27,6.27,6.27,0,0,0,3.37.46,7.94,7.94,0,0,0,3-1.16,19.92,19.92,0,0,0,4.4-3.84,10.74,10.74,0,0,0,2.07-4.15,8.8,8.8,0,0,0,.13-3.43,9.19,9.19,0,0,0-.6-2.06,4.45,4.45,0,0,0-.32-.66.19.19,0,0,1,.31-.21h0a6.7,6.7,0,0,1,.37.7,10.75,10.75,0,0,1,.68,2.15,9.58,9.58,0,0,1-.06,3.62,11.12,11.12,0,0,1-2.1,4.43,21.11,21.11,0,0,1-4.51,4,8.59,8.59,0,0,1-3.27,1.29,7,7,0,0,1-3.76-.47,13.44,13.44,0,0,1-5.93-5.53,21.14,21.14,0,0,1-1.92-4,12.75,12.75,0,0,1-.83-4.61,3.61,3.61,0,0,1,.93-2.46,2.83,2.83,0,0,1,.67-.4l.29-.07.07,0a.38.38,0,0,1,.15,0h.54l.34.07a2.56,2.56,0,0,1,.66.22,5.53,5.53,0,0,1,1.95,1.74,10.32,10.32,0,0,1,1.23,2.26,14.77,14.77,0,0,1,1,5.08,13.24,13.24,0,0,1-.87,5.25,11.09,11.09,0,0,1-3.15,4.49,13.32,13.32,0,0,1-5,2.64c-.46.12-.92.25-1.38.36l-1.38.26a20,20,0,0,1-2.89.21,11.87,11.87,0,0,1-5.69-1.38A10.88,10.88,0,0,1,104,210.7a12.24,12.24,0,0,1-1.84-2.4,14.19,14.19,0,0,1-1.82-5.77,10.92,10.92,0,0,1,1-6.09,4.94,4.94,0,0,1,1-1.31,3,3,0,0,1,2.49-.7,6.39,6.39,0,0,1,.78.22,5.37,5.37,0,0,1,1.4.84,4.5,4.5,0,0,1,1.58,2.82,7.24,7.24,0,0,1-.26,3.17,14.45,14.45,0,0,1-3.19,5.35,18.3,18.3,0,0,1-10.9,5.71,10.87,10.87,0,0,1-3.17.05,7.57,7.57,0,0,1-3-1.2,9.68,9.68,0,0,1-3.5-5.24,18.28,18.28,0,0,1-.72-6.2,15.15,15.15,0,0,1,1.45-6.06,5.86,5.86,0,0,1,.91-1.34,4.76,4.76,0,0,1,.62-.57,3,3,0,0,1,4,.45,4.82,4.82,0,0,1,1.52,2.87,7.79,7.79,0,0,1-.17,3.15,14,14,0,0,1-7.8,8.86A20,20,0,0,1,78.8,209c-.48.07-1,.1-1.42.16s-1,0-1.45.05a13,13,0,0,1-2.85-.35,11.43,11.43,0,0,1-2.66-1,11.85,11.85,0,0,1-2.26-1.66,13.08,13.08,0,0,1-3.06-4.51,16.69,16.69,0,0,1-1.26-5.15,11.07,11.07,0,0,1,.64-5.13,3.78,3.78,0,0,1,.74-1.11,2.32,2.32,0,0,1,.6-.44l.3-.1a.58.58,0,0,1,.19,0l.17,0a3.17,3.17,0,0,1,2.37,1A9.38,9.38,0,0,1,71.14,195a9.87,9.87,0,0,1-1.57,8.68,11.36,11.36,0,0,1-7.09,3.81,9.82,9.82,0,0,1-7-1.26,13.81,13.81,0,0,1-4.24-4.3,30.75,30.75,0,0,1-4-10.63h0a.2.2,0,0,1,.16-.22h0A.21.21,0,0,1,47.69,191.18Z"/><path id="Path_7414" data-name="Path 7414" class="cls-12" d="M54.58,218.92a22.06,22.06,0,0,0,.58,2.4,24.52,24.52,0,0,0,2.8,6.35,11.55,11.55,0,0,0,3.39,3.5,7.9,7.9,0,0,0,5.47,1.1,9.65,9.65,0,0,0,5.72-2.84,7.69,7.69,0,0,0,1.57-6.73,8.15,8.15,0,0,0-1.56-3.47,3.13,3.13,0,0,0-1.49-1.07,1.3,1.3,0,0,0-1.47.66,7.43,7.43,0,0,0-.79,4,14.15,14.15,0,0,0,.81,4.22,11.33,11.33,0,0,0,2.23,3.79,8.34,8.34,0,0,0,3.75,2.39,10.3,10.3,0,0,0,4.55.29,14.4,14.4,0,0,0,4.49-1.31,8.93,8.93,0,0,0,3.48-3,7.23,7.23,0,0,0,1.2-4.42,5.58,5.58,0,0,0-2-4.07c-.6-.43-1.39-.83-1.93-.62a2.42,2.42,0,0,0-1.17,1.72,12.17,12.17,0,0,0-.1,4.92,16.18,16.18,0,0,0,1.51,4.8,10,10,0,0,0,3.13,3.83,6.91,6.91,0,0,0,4.66,1.27,13.86,13.86,0,0,0,9-4.27,11.34,11.34,0,0,0,2.63-4.26,5.41,5.41,0,0,0-.3-4.66c-.83-1.24-2.77-2-3.71-.91a4.36,4.36,0,0,0-1,2,9.65,9.65,0,0,0-.24,2.39,11.45,11.45,0,0,0,3.69,8.51,9,9,0,0,0,4.14,2,12.7,12.7,0,0,0,4.6,0,13,13,0,0,0,7.83-3.95,10.15,10.15,0,0,0,2.36-7.82,7.15,7.15,0,0,0-1.35-3.6,2.34,2.34,0,0,0-1.38-.89,1.22,1.22,0,0,0-1.26.55,5.38,5.38,0,0,0-.39,3.38,12.46,12.46,0,0,0,1,3.38,8.55,8.55,0,0,0,4.2,4.65,5.61,5.61,0,0,0,5.27-.86,15.17,15.17,0,0,0,3.66-3.26,8.92,8.92,0,0,0,1.72-3.49,7.61,7.61,0,0,0-.42-4.61,2.73,2.73,0,0,0-.27-.54.19.19,0,0,1,.06-.26h0a.2.2,0,0,1,.27.06,6.63,6.63,0,0,1,.31.59,8.27,8.27,0,0,1,.57,1.81,7.93,7.93,0,0,1,0,3.07,9.19,9.19,0,0,1-1.74,3.76,15.82,15.82,0,0,1-3.77,3.44,8,8,0,0,1-2.71,1.24,5.46,5.46,0,0,1-3.22-.23,9.29,9.29,0,0,1-4.7-5,13.74,13.74,0,0,1-1.09-3.6,9.4,9.4,0,0,1-.1-2,4.18,4.18,0,0,1,.63-2.06,2.17,2.17,0,0,1,.94-.78,1.7,1.7,0,0,1,.32-.1l.12,0h.16a2.57,2.57,0,0,1,.62,0,3.13,3.13,0,0,1,1.92,1.25,8,8,0,0,1,1.44,4.06,11,11,0,0,1-2.66,8.31,15.29,15.29,0,0,1-13,4.25A9.68,9.68,0,0,1,103,236,12.31,12.31,0,0,1,99,227a10.86,10.86,0,0,1,.26-2.61,5.24,5.24,0,0,1,1.23-2.44,2.42,2.42,0,0,1,1.31-.73,2.63,2.63,0,0,1,1.47.14,4.22,4.22,0,0,1,2.17,1.71,4.66,4.66,0,0,1,.71,2.62,8.32,8.32,0,0,1-.48,2.62,12.7,12.7,0,0,1-2.76,4.47,14.6,14.6,0,0,1-9.32,4.56A7.67,7.67,0,0,1,88.36,236a11.07,11.07,0,0,1-3.4-4.1,17.4,17.4,0,0,1-1.61-5,13,13,0,0,1,.1-5.28,5,5,0,0,1,.54-1.28,2.34,2.34,0,0,1,1.15-1,2.15,2.15,0,0,1,1.54,0,4.87,4.87,0,0,1,1.23.66,6.42,6.42,0,0,1,2.39,4.72,8.25,8.25,0,0,1-1.34,5A9.29,9.29,0,0,1,85,233a14.51,14.51,0,0,1-4.8,1.22,11.46,11.46,0,0,1-4.83-.47,9.36,9.36,0,0,1-4-2.6,12,12,0,0,1-2.35-4,14.37,14.37,0,0,1-.85-4.4,7.84,7.84,0,0,1,.87-4.3,2.16,2.16,0,0,1,.87-.8,1.84,1.84,0,0,1,1.2-.1,3.52,3.52,0,0,1,1.8,1.25,8.69,8.69,0,0,1,1.71,3.71A8.32,8.32,0,0,1,73,229.88a10.06,10.06,0,0,1-6.1,3A8.57,8.57,0,0,1,61,231.67a12.19,12.19,0,0,1-3.52-3.7,23.7,23.7,0,0,1-2.77-6.53A22.28,22.28,0,0,1,54.2,219h0a.2.2,0,0,1,.16-.22.19.19,0,0,1,.22.16Z"/><path id="Path_7415" data-name="Path 7415" class="cls-12" d="M65.18,244.79a20,20,0,0,0,.56,2.28,22.81,22.81,0,0,0,2.67,6,11,11,0,0,0,3.21,3.32,7.54,7.54,0,0,0,5.2,1.05,9.3,9.3,0,0,0,5.43-2.7,7.33,7.33,0,0,0,1.49-6.4,7.7,7.7,0,0,0-1.48-3.28,2.93,2.93,0,0,0-1.41-1,1.21,1.21,0,0,0-1.38.63,6.91,6.91,0,0,0-.75,3.76,13.45,13.45,0,0,0,.77,4,10.84,10.84,0,0,0,2.12,3.6,8,8,0,0,0,3.56,2.27,9.71,9.71,0,0,0,4.32.26,13,13,0,0,0,4.26-1.25,8.39,8.39,0,0,0,3.3-2.84,6.91,6.91,0,0,0,1.13-4.19,5.3,5.3,0,0,0-1.85-3.85c-.57-.41-1.32-.79-1.82-.59a2.27,2.27,0,0,0-1.1,1.62,11.53,11.53,0,0,0-.1,4.68,15.46,15.46,0,0,0,1.43,4.55,9.74,9.74,0,0,0,3,3.64,6.61,6.61,0,0,0,4.43,1.2,13.19,13.19,0,0,0,8.54-4,10.89,10.89,0,0,0,2.5-4.05,5.09,5.09,0,0,0-.3-4.42c-.78-1.17-2.62-1.92-3.5-.85a4.08,4.08,0,0,0-.94,1.92,9.17,9.17,0,0,0-.23,2.27,10.92,10.92,0,0,0,3.5,8.08,8.45,8.45,0,0,0,3.94,1.88,11.84,11.84,0,0,0,4.36,0,12.31,12.31,0,0,0,7.44-3.75,9.61,9.61,0,0,0,2.23-7.42,6.72,6.72,0,0,0-1.28-3.41,2.23,2.23,0,0,0-1.3-.84,1.14,1.14,0,0,0-1.18.51,5.2,5.2,0,0,0-.37,3.21,12,12,0,0,0,.93,3.2,8.14,8.14,0,0,0,4,4.42,5.3,5.3,0,0,0,5-.82,14.5,14.5,0,0,0,3.48-3.1,8.58,8.58,0,0,0,1.64-3.31,7.16,7.16,0,0,0-.4-4.38,5,5,0,0,0-.26-.52.19.19,0,0,1,.06-.26.19.19,0,0,1,.26.06,3.37,3.37,0,0,1,.3.56,8,8,0,0,1,.56,1.72,7.8,7.8,0,0,1,0,2.93,8.71,8.71,0,0,1-1.66,3.58,15.1,15.1,0,0,1-3.58,3.28,7.66,7.66,0,0,1-2.58,1.18,5.23,5.23,0,0,1-3.08-.22,8.9,8.9,0,0,1-4.49-4.78,12.86,12.86,0,0,1-1-3.42,8.57,8.57,0,0,1-.1-1.89,4,4,0,0,1,.6-2,2.12,2.12,0,0,1,.9-.75,1.86,1.86,0,0,1,.31-.1l.12,0h.15a2.32,2.32,0,0,1,.59,0,2.88,2.88,0,0,1,1.84,1.19,7.62,7.62,0,0,1,1.38,3.87,10.54,10.54,0,0,1-2.54,7.92,14.58,14.58,0,0,1-12.41,4.05,9.29,9.29,0,0,1-4.29-2,11.75,11.75,0,0,1-3.88-8.65,9.86,9.86,0,0,1,.25-2.48,5,5,0,0,1,1.17-2.34,2.44,2.44,0,0,1,1.25-.7,2.74,2.74,0,0,1,1.42.13,4.12,4.12,0,0,1,2.06,1.64,4.53,4.53,0,0,1,.69,2.51,8.18,8.18,0,0,1-.46,2.5,12.33,12.33,0,0,1-2.63,4.25,14,14,0,0,1-8.87,4.34A7.27,7.27,0,0,1,97.27,261a10.3,10.3,0,0,1-3.24-3.9,16.45,16.45,0,0,1-1.53-4.79,12.19,12.19,0,0,1,.09-5,4.71,4.71,0,0,1,.51-1.23,2.29,2.29,0,0,1,1.1-1,2.1,2.1,0,0,1,1.48,0,4.27,4.27,0,0,1,1.17.63,6.1,6.1,0,0,1,2.29,4.5,7.86,7.86,0,0,1-1.27,4.81,8.76,8.76,0,0,1-3.74,3.13,13.62,13.62,0,0,1-4.57,1.16,10.85,10.85,0,0,1-4.6-.45,9.86,9.86,0,0,1-6-6.25,13.85,13.85,0,0,1-.82-4.18,7.47,7.47,0,0,1,.83-4.1,2.08,2.08,0,0,1,.84-.77,1.75,1.75,0,0,1,1.15-.1,3.44,3.44,0,0,1,1.73,1.19,8.3,8.3,0,0,1,1.62,3.54,7.91,7.91,0,0,1-1.6,6.94,9.59,9.59,0,0,1-5.82,2.89,8.2,8.2,0,0,1-5.59-1.18,11.52,11.52,0,0,1-3.36-3.52,25.12,25.12,0,0,1-3.15-8.55h0a.19.19,0,0,1,.16-.22.19.19,0,0,1,.21.16Z"/></g></g></g></svg>