<svg xmlns="http://www.w3.org/2000/svg" width="229.428" height="75.962" viewBox="0 0 229.428 75.962">
  <g id="Group_5857" data-name="Group 5857" transform="translate(-953.44 -3428.808)">
    <g id="摩羯" style="isolation: isolate">
      <text id="水瓶座" transform="translate(953.44 3480.789)" fill="#fff" font-size="40" font-family="STXihei, STHeiti" letter-spacing="0.2em" style="isolation: isolate"><tspan x="0" y="0">水瓶座</tspan></text>
    </g>
    <g id="Group_14" data-name="Group 14" transform="translate(-23 2.683)">
      <g id="Group_11" data-name="Group 11">
        <path id="Path_127" data-name="Path 127" d="M1205.868,3464.106a37.981,37.981,0,1,1-37.982-37.981A37.981,37.981,0,0,1,1205.868,3464.106Z" fill="#6fc5cd"/>
      </g>
      <g id="Group_12" data-name="Group 12">
        <path id="Path_128" data-name="Path 128" d="M1192.42,3435.119a38.1,38.1,0,0,0-3.471-2.621c-2.125,21.594-14.428,38.767-36.676,51.1a112.907,112.907,0,0,1-12.577,5.954,38.484,38.484,0,0,0,2.9,2.881,117.454,117.454,0,0,0,11.4-5.5C1176.353,3474.571,1189.491,3456.781,1192.42,3435.119Z" fill="#0f90b2"/>
        <path id="Path_129" data-name="Path 129" d="M1202.207,3447.83c-5.958,27.157-20.42,44.107-33.338,54.228,1.1-.029,2.182-.1,3.254-.217,12.218-10.153,25.291-26.294,31.334-51.059Q1202.895,3449.276,1202.207,3447.83Z" fill="#0f90b2"/>
        <path id="Path_130" data-name="Path 130" d="M1138.222,3457.906c13.921-7.323,23.051-18.155,26.865-31.666a37.822,37.822,0,0,0-8.415,1.566c-3.726,9.8-10.986,17.636-21.747,23.345-1.105.587-2.209,1.128-3.3,1.63A37.891,37.891,0,0,0,1130,3461.6,75.27,75.27,0,0,0,1138.222,3457.906Z" fill="#0f90b2"/>
        <path id="Path_131" data-name="Path 131" d="M1167.907,3448.806a95.527,95.527,0,0,0,10.02-21.331,37.787,37.787,0,0,0-7.52-1.259,87.464,87.464,0,0,1-8.96,18.76c-8.04,12.512-18.431,20.943-31.047,25.23a37.67,37.67,0,0,0,1.917,7.227C1149.907,3471.558,1161.1,3459.484,1167.907,3448.806Z" fill="#0f90b2"/>
        <path id="Path_132" data-name="Path 132" d="M1174.521,3455.341a58.459,58.459,0,0,0,9.8-25.488c-.291-.14-.589-.267-.884-.4a57.621,57.621,0,0,1-9.686,25.353c-8.481,12.172-21.792,21.038-39.718,26.508.145.283.284.569.434.848C1152.519,3476.625,1165.943,3467.654,1174.521,3455.341Z" fill="#afcb89"/>
        <path id="Path_133" data-name="Path 133" d="M1164.907,3492.035c19.379-14.229,30.83-31.158,33.977-49.865a38.057,38.057,0,0,0-3.163-3.9c-2.033,19.055-13.049,36.037-32.958,50.682a136.864,136.864,0,0,1-13.093,8.479,37.535,37.535,0,0,0,4.139,1.943C1157.475,3497.186,1161.216,3494.747,1164.907,3492.035Z" fill="#afcb89"/>
      </g>
      <path id="Path_134" data-name="Path 134" d="M1175.407,3488.957a37.978,37.978,0,0,1-36.063-49.894,37.975,37.975,0,1,0,64.6,36.953A37.877,37.877,0,0,1,1175.407,3488.957Z" fill="#050505" opacity="0.2" style="isolation: isolate"/>
      <g id="Group_13" data-name="Group 13" opacity="0.2">
        <path id="Path_135" data-name="Path 135" d="M1201.607,3464.506c-3.168,1.817-9.134-2.636-13.326-9.945s-5.023-14.708-1.855-16.525,9.133,2.637,13.326,9.946S1204.773,3462.688,1201.607,3464.506Z" fill="#fff"/>
        <path id="Path_136" data-name="Path 136" d="M1200.307,3472.619a2.875,2.875,0,1,1-.9-3.965h0a2.873,2.873,0,0,1,.9,3.963Z" fill="#fff"/>
        <path id="Path_137" data-name="Path 137" d="M1195.094,3467.7a1.492,1.492,0,1,1-.469-2.057h0a1.49,1.49,0,0,1,.47,2.054Z" fill="#fff"/>
      </g>
    </g>
  </g>
</svg>
