<svg xmlns="http://www.w3.org/2000/svg" width="230.934" height="76.264" viewBox="0 0 230.934 76.264">
  <g id="Group_5858" data-name="Group 5858" transform="translate(-921.483 -3681.322)">
    <g id="處女" transform="translate(0 0.019)">
      <g id="Group_4409" data-name="Group 4409">
        <text id="雙子座" transform="translate(921.483 3733.302)" fill="#fff" font-size="40" font-family="STXihei, STHeiti" letter-spacing="0.2em" style="isolation: isolate"><tspan x="0" y="0">雙子座</tspan></text>
      </g>
    </g>
    <g id="Group_2" data-name="Group 2" transform="translate(-1 1.62)">
      <path id="Path_14" data-name="Path 14" d="M1104.428,3681.29a38.12,38.12,0,1,0,47.4,25.684,38.12,38.12,0,0,0-47.4-25.684Z" fill="#d87b7c" fill-rule="evenodd"/>
      <path id="Path_15" data-name="Path 15" d="M1146.83,3710.847a36.289,36.289,0,0,1-68.322,17.048,38.125,38.125,0,1,0,59.716-40.513A36.154,36.154,0,0,1,1146.83,3710.847Z" fill="#d86c7c" fill-rule="evenodd"/>
      <path id="Path_16" data-name="Path 16" d="M1133.324,3751.42c1.643-1.378,4.414-3.012,4.414-4.216,0-1.556-.126-3.954,1.724-5.215s3.954-1.935,3.954-3.618-.169-3.386.757-5.089,1.431-1.3,1.431-2.714-.4-1.872-1.347-1.893a1.569,1.569,0,0,1-1.325-.946c-1.094-2.482-2.693-.926-4.543-2.482s-3.216-4.816-5.722-4.816-2.547.144-3.389-.472a8.505,8.505,0,0,1-1.685-1.992c-.595-.74-.967-.761-2.531-.761s-1.669-1.38-2.6-1.38h-2.419c-1.328,0-1.524.328-2.628,1.5s-2.049,1.683-2.985,1.432-1.59-.828-1.59-1.668v-2.1c0-1.393-.315-1.629-1.091-2.05s-1.434-1.026-.539-1.946,1.511-1.958.973-1.958h-2.709c-1.222,0-1.775.092-2.327.658s-1.1,1.432-1.486,1.34a1.118,1.118,0,0,1-.578-1.2c.131-.368,1.156-3.97,2.524-5.047a2.459,2.459,0,0,1,3.286,0c.578.552.657,2.628,2.55,2.05s2.524-4.838,3.786-5.994,4.837-.474,7.1-3.681,3.444-5.81,4.89-5.81h3.917c2.313,0,3.1-.6,3.1-2.76,0-1.133.7-1.431,1.37-1.661a38.47,38.47,0,0,0-4.419-2.752,2.827,2.827,0,0,0-1.211.864c-1.038,1.2-2.063,1.9-2.892,1.537s-.92-.749-1.893-.749a2.2,2.2,0,0,0-2.011,1.249c-.367.71-1.131,1.84-1.88,1.84s-.972-.316-.972-.67v-1.658c0-.683-.237-1.55-1.657-1.55s-2.444-.316-1.76-1.263c.579-.8,1.367-2.872,3.068-3.482a38.145,38.145,0,0,0-37.405,14.957,23.091,23.091,0,0,0,3.068,4.656c1.893,1.4,3.26,3.33,5.748,3.33s4.453.28,4.453,2.7-.981,2.418-.981,4.277.946,2.33,2.1,2.33h4.645c2.735,0,2.3,1.525,4.329,1.525s1.946,1.666,2.594,2.91,1.467,2.966,3.612,2.966,1.767,1.808.59,3.66-2.9,3.785-2.9,5.72-.083,3.239,2.441,3.239.672,3.28,3.743,3.28,2.818,2.062,2.818,4.459,1.3,2.1,1.3,3.7v4.206c0,2.1.043,3.282,1.346,4.5a4.4,4.4,0,0,1,1.05,2.1c.539-.135,1.077-.28,1.613-.439A38.2,38.2,0,0,0,1133.324,3751.42Z" fill="#f6b15f" fill-rule="evenodd"/>
      <path id="Path_17" data-name="Path 17" d="M1133.327,3751.417c1.643-1.379,4.411-3.009,4.411-4.213,0-1.556-.126-3.954,1.724-5.215s3.954-1.935,3.954-3.618-.169-3.386.757-5.089,1.431-1.3,1.431-2.714-.4-1.872-1.347-1.893a1.569,1.569,0,0,1-1.325-.946c-.041-.094-.083-.181-.126-.263a36.394,36.394,0,0,1-20.674,17.775v2.972c0,2.1.043,3.282,1.346,4.5a4.4,4.4,0,0,1,1.05,2.1c.539-.135,1.077-.28,1.613-.439a38.344,38.344,0,0,0,6.119-2.4l.107-.053c.145-.072.287-.146.431-.219C1132.974,3751.6,1133.152,3751.512,1133.327,3751.417Z" fill="#f6965f" fill-rule="evenodd"/>
      <path id="Path_18" data-name="Path 18" d="M1100.991,3749.472a4.49,4.49,0,1,0-4.49-4.49h0A4.5,4.5,0,0,0,1100.991,3749.472Z" fill="#f9e9ce" fill-rule="evenodd"/>
      <path id="Path_19" data-name="Path 19" d="M1095.982,3739.389c1.1-.824.433-.769-.39-1.868s-1.5-2.949-2.6-2.125a2.494,2.494,0,1,0,2.991,3.993h0Z" fill="#f9e9ce" fill-rule="evenodd"/>
      <path id="Path_20" data-name="Path 20" d="M1109.815,3746.157a1.153,1.153,0,1,0-1.153-1.154A1.153,1.153,0,0,0,1109.815,3746.157Z" fill="#54b9c3" fill-rule="evenodd"/>
      <path id="Path_21" data-name="Path 21" d="M1142.634,3723.857a1.154,1.154,0,1,0-1.154-1.156A1.154,1.154,0,0,0,1142.634,3723.857Z" fill="#f9e9ce" fill-rule="evenodd"/>
      <path id="Path_22" data-name="Path 22" d="M1145.832,3710.148a4.988,4.988,0,1,0-4.987-4.989h0A5,5,0,0,0,1145.832,3710.148Z" fill="#f9e9ce" fill-rule="evenodd"/>
      <path id="Path_23" data-name="Path 23" d="M1100.174,3736.423c3.607,0,6.617-4.27,6.617-7.878s-5.215-12.29-8.823-12.29-2.807,7.354-2.807,10.963S1096.574,3736.423,1100.174,3736.423Z" fill="#f9e9ce" fill-rule="evenodd"/>
      <path id="Path_24" data-name="Path 24" d="M1141.342,3716.41a2.494,2.494,0,1,0-2.495-2.494A2.494,2.494,0,0,0,1141.342,3716.41Z" fill="#f9e9ce" fill-rule="evenodd"/>
    </g>
  </g>
</svg>
