<svg xmlns="http://www.w3.org/2000/svg" viewBox="0 0 188.46 285.53"><defs><style>.cls-1{fill:#f9e9bd;}.cls-2{fill:#f6b15f;}.cls-3,.cls-4,.cls-8{isolation:isolate;}.cls-4{font-size:23.18px;font-family:STXihei, STHeiti;letter-spacing:0.2em;}.cls-4,.cls-9{fill:#fff;}.cls-5{fill:#f9c464;}.cls-6{fill:#edc451;}.cls-7{fill:#d84a7c;}.cls-8{fill:#e09259;opacity:0.3;}.cls-10{fill:#1d110b;}.cls-11{fill:#ee9bc0;}</style></defs><g id="圖層_2" data-name="圖層 2"><g id="圖層_1-2" data-name="圖層 1"><g id="Group_6263" data-name="Group 6263"><g id="Group_5807" data-name="Group 5807"><path id="Path_5537" data-name="Path 5537" class="cls-1" d="M185.87,73.46c-1,5.66-5.08,9.89-9.9,9.89H52.11l2.21,17.07L52.73,110.7,30.11,83.35H10.17C4.56,83.35,0,77.62,0,70.58V15.67C0,9.62,3.37,4.56,7.88,3.25A7.87,7.87,0,0,1,14,0h165.8c4.77,0,8.63,4.85,8.63,10.83V65.74A12.25,12.25,0,0,1,185.87,73.46Z"/><path id="Path_5538" data-name="Path 5538" class="cls-2" d="M10.17,4.84H176c4.77,0,8.63,4.85,8.63,10.83V70.58c0,6-3.86,10.83-8.63,10.83H47.37l3.09,23.86L30.74,81.41H10.18c-4.77,0-8.63-4.85-8.63-10.83V15.67C1.55,9.69,5.41,4.84,10.17,4.84Z"/></g><g id="點我進入_星座探索" data-name="點我進入 星座探索" class="cls-3"><text class="cls-4" transform="translate(40.69 37.9)">點我進入</text><text class="cls-4" transform="translate(40.69 65.71)">星座探索</text></g></g><g id="Group_5843" data-name="Group 5843"><path id="Path_7324" data-name="Path 7324" class="cls-5" d="M141.84,158.3s-2.7,11.78-10.51,14.51l-.12.12a12,12,0,0,0-1.44-1.31,24.63,24.63,0,0,0-6.22-3.36c10.13-1.26,14.38-12.41,14.38-12.41a10.72,10.72,0,0,0,3.93,2.41Z"/><path id="Path_7325" data-name="Path 7325" class="cls-6" d="M109.05,156.8l-1.14,8v.06q-2.91-.3-6-.44l0-.32a77.8,77.8,0,0,0,2.41-8.2l0,0a12,12,0,0,0,3.9.65Z"/><path id="Path_7326" data-name="Path 7326" class="cls-5" d="M85,136.72s2.75,23.85,3.56,27.85c-2.41.15-4.81.38-7.16.68.14-5.66-.65-28-.65-28l0-.22.47,0a10.56,10.56,0,0,0,3.75-.4Z"/><path id="Path_7327" data-name="Path 7327" class="cls-5" d="M56.34,155.38l4.81,14.55A40.57,40.57,0,0,0,56,172.29c-.73-1.27-4.24-15.6-4.24-15.6v0a12,12,0,0,0,4.4-1.57Z"/><path id="Path_7328" data-name="Path 7328" class="cls-2" d="M146.14,137.31a10.79,10.79,0,1,1-1.47,21.52,10.4,10.4,0,0,1-2.81-.57,10.79,10.79,0,0,1,4.28-20.95Z"/><path id="Path_7329" data-name="Path 7329" class="cls-2" d="M114.54,134a12.12,12.12,0,0,1-10.16,21.85,11.43,11.43,0,0,1-2.35-1.1,12.12,12.12,0,1,1,12.37-20.84l.14.09Z"/><path id="Path_7330" data-name="Path 7330" class="cls-2" d="M82.68,115.56A10.78,10.78,0,0,1,85,136.67a10.58,10.58,0,0,1-3.75.4l-.47,0a10.78,10.78,0,0,1,2-21.47Z"/><path id="Path_7331" data-name="Path 7331" class="cls-2" d="M51.76,156.67a12.17,12.17,0,1,1,4.4-1.57A12,12,0,0,1,51.76,156.67Z"/><path id="Path_7332" data-name="Path 7332" class="cls-5" d="M151.11,227.53s-.82,4.24-1.78,3.79-1-4.43-1-4.43-2.1,3.85-3,2.56,1.16-4.5,1.31-4.74c-.16.1-2.1,1.32-2,0s2.15-3.09,2.15-3.09.8-17.08-8-17.7c0-.34-.05-.67-.08-1-.12-1.64-.27-3.26-.47-4.86l.49-.05c.12,0,10.89,0,13.88,13.68,2.34,10.7,1.23,17.4.54,18.61S151.11,227.53,151.11,227.53Z"/><path id="Path_7333" data-name="Path 7333" class="cls-5" d="M109.69,280.72s4.25,2.76,3.78,4.07c-.66,1.85-7.44-.2-8.45-1.54-1.16-1.56-.82-12.89-.78-23.05,0-9.32-.28-17.61-.28-17.61l0-.11c1.83-.16,3.64-.34,5.4-.56C110,254.46,109.69,280.72,109.69,280.72Z"/><path id="Path_7334" data-name="Path 7334" class="cls-5" d="M80.79,242.78c-.18,2.49-.65,9.19-.92,16.55-.38,10.15-.5,21.48-1.72,23-1.07,1.31-7.93,3.09-8.5,1.22-.42-1.33,3.94-3.92,3.94-3.92s.72-24.31,1.81-37.29C77.15,242.51,79,242.67,80.79,242.78Z"/><path id="Path_7335" data-name="Path 7335" class="cls-5" d="M48.33,209.22c0,2,0,4,.09,5.91h-.05c-9.1-.08-9,17.33-9,17.33s2,1.84,2,3.17-1.88,0-2-.12c.14.24,2,3.6,1.09,4.8s-2.85-2.7-2.85-2.7-.21,4-1.19,4.39-1.61-3.86-1.61-3.86-1.5,3.93-2.13,2.7-1.43-8,1.37-18.56C37.36,209.54,47.1,209.21,48.33,209.22Z"/><path id="Path_7336" data-name="Path 7336" class="cls-7" d="M141,201.76a152.2,152.2,0,0,1-.67,28c-.49-.12-16.45-4-14.7-17.55,1.75-13.75,15.28-11.6,15.28-11.6h0C140.91,201,140.93,201.37,141,201.76Z"/><path id="Path_7337" data-name="Path 7337" class="cls-7" d="M44.66,207.77c0-3.8.23-7.6.58-11.27.39-.06,9.33-1.35,11.21,8.93,2,10.76-9.7,17.66-10.94,18.36-.36-3-.61-6.09-.74-9.26C44.67,212.29,44.64,210,44.66,207.77Z"/><path id="Path_7338" data-name="Path 7338" class="cls-2" d="M110,260.83c-1.76.22-3.57.41-5.39.57a158.44,158.44,0,0,1-23.16.29c-1.83-.11-3.64-.27-5.39-.45-10.4-1.16-19.69-11.45-23.28-15.38s-6.1-12.32-7.3-22.07c1.24-.7,12.92-7.6,10.94-18.36-1.88-10.29-10.82-9-11.21-8.93,1.32-13.82,4.89-30.42,10.74-33.65a40.51,40.51,0,0,1,5.15-2.35,87.68,87.68,0,0,1,20.21-4.69c2.35-.3,4.75-.53,7.16-.68a122.42,122.42,0,0,1,13.41-.17c2,.1,4,.24,6,.44a61.33,61.33,0,0,1,15.66,3.42,25,25,0,0,1,6.22,3.36,12,12,0,0,1,1.44,1.32c4.91,5.12,7.79,20.06,9.15,31.55q.33,2.74.54,5.55h0s-13.54-2.15-15.29,11.61c-1.74,13.55,14.22,17.42,14.7,17.54a50.37,50.37,0,0,1-2.9,12.65C135.1,247.58,124.11,259.08,110,260.83Z"/><path id="Path_7339" data-name="Path 7339" class="cls-8" d="M59.55,144.91a9.68,9.68,0,1,0-10.32,9,9.68,9.68,0,0,0,10.32-9Z"/><path id="Path_7340" data-name="Path 7340" class="cls-8" d="M90.5,126.53a8.67,8.67,0,1,0-9.25,8.07,8.68,8.68,0,0,0,9.25-8.07Z"/><path id="Path_7341" data-name="Path 7341" class="cls-8" d="M116.64,148.94a9.64,9.64,0,1,0-13.23,3.28h0A9.65,9.65,0,0,0,116.64,148.94Z"/><path id="Path_7342" data-name="Path 7342" class="cls-8" d="M153.59,148.27a8.29,8.29,0,1,0-8.84,7.71,8.29,8.29,0,0,0,8.84-7.71Z"/><path id="Path_7343" data-name="Path 7343" class="cls-9" d="M58.21,144.82a8.34,8.34,0,1,0-8.89,7.75h0A8.35,8.35,0,0,0,58.21,144.82Z"/><path id="Path_7344" data-name="Path 7344" class="cls-9" d="M89.24,126.45a7.42,7.42,0,1,0-7.91,6.9,7.41,7.41,0,0,0,7.91-6.9Z"/><path id="Path_7345" data-name="Path 7345" class="cls-9" d="M115.52,148.26a8.33,8.33,0,1,0-11.44,2.84,8.33,8.33,0,0,0,11.44-2.84Z"/><path id="Path_7346" data-name="Path 7346" class="cls-9" d="M152.71,148.21a7.42,7.42,0,1,0-7.9,6.9,7.41,7.41,0,0,0,7.9-6.9Z"/><path id="Path_7347" data-name="Path 7347" class="cls-10" d="M146.56,148.29a2.14,2.14,0,1,0-2.28,2.25A2.27,2.27,0,0,0,146.56,148.29Z"/><path id="Path_7348" data-name="Path 7348" class="cls-8" d="M83,179.34A10.94,10.94,0,1,0,71.33,189.5,10.93,10.93,0,0,0,83,179.34Z"/><path id="Path_7349" data-name="Path 7349" class="cls-8" d="M106,176.38a9.88,9.88,0,1,0-10.53,9.19A9.88,9.88,0,0,0,106,176.38Z"/><path id="Path_7350" data-name="Path 7350" class="cls-8" d="M122.78,194.59a11.55,11.55,0,1,0-12.32,10.73A11.55,11.55,0,0,0,122.78,194.59Z"/><path id="Path_7351" data-name="Path 7351" class="cls-9" d="M81.91,179.43a9.77,9.77,0,1,0-10.42,9.08h0A9.77,9.77,0,0,0,81.91,179.43Z"/><path id="Path_7352" data-name="Path 7352" class="cls-9" d="M104.85,176.3a8.83,8.83,0,1,0-9.41,8.21A8.82,8.82,0,0,0,104.85,176.3Z"/><path id="Path_7353" data-name="Path 7353" class="cls-9" d="M121.43,194.37a10.32,10.32,0,1,0-11,9.6,10.32,10.32,0,0,0,11-9.6Z"/><g id="Group_5842" data-name="Group 5842"><path id="Path_7354" data-name="Path 7354" class="cls-11" d="M68.2,215.62s21.56-2.88,32.16,15.13v.06a34.84,34.84,0,0,1-14.46-2.35,38.59,38.59,0,0,1-17.79-12.77Z"/><path id="Path_7355" data-name="Path 7355" class="cls-9" d="M111.91,212.84l-.14.46s-2.83,7.43-8.17,6c-4.34-1.19-2.64-8.2-2.55-8.6h0l.13-.47C105.34,211.4,109.07,212,111.91,212.84Z"/><path id="Path_7356" data-name="Path 7356" class="cls-9" d="M101.06,210.66h0c-.23.44-3.91,7.15-8.77,5.09s-2.76-8.76-2.5-9.61a.14.14,0,0,0,0-.06h0l0-.83c.69.41,1.37.81,2.06,1.18a45.75,45.75,0,0,0,9.3,3.76Z"/><path id="Path_7357" data-name="Path 7357" class="cls-9" d="M89.8,206.08h0a.14.14,0,0,1,0,.06c-.32.81-3,7.05-8.44,4.52s-1.48-10.59-1.16-11.2l0,0,.11-.21c3.06,1.79,6.27,4.06,9.53,6Z"/><path id="Path_7358" data-name="Path 7358" class="cls-9" d="M80.32,199.23l-.12.21a.08.08,0,0,0,0,0c-.4.38-6.41,6.27-8.85,4.25-3.21-2.67,1.18-7.26,1.18-7.26l0-.38A21.3,21.3,0,0,1,80.32,199.23Z"/><path id="Path_7359" data-name="Path 7359" class="cls-10" d="M89.78,206.16c-.26.85-2.22,7.63,2.5,9.61s8.53-4.65,8.77-5.09c-.1.4-1.8,7.4,2.55,8.6,5.34,1.45,8.17-6,8.17-6l.13-.46c2.95.84,4.93,1.91,5.39,4.11,1.24,5.86-5.61,13.12-16.93,13.86v-.06c-10.6-18-32.16-15.13-32.16-15.13l-.1.08c-4.71-6.39-5.59-13.17-2-17.16a7,7,0,0,1,6.44-2.45l0,.38s-4.4,4.59-1.18,7.27c2.44,2,8.45-3.87,8.85-4.26-.32.61-4.42,8.59,1.16,11.2S89.45,207,89.78,206.16Z"/></g><path id="Path_7360" data-name="Path 7360" class="cls-10" d="M74.5,179a2.45,2.45,0,1,1-2.3-2.61h0A2.45,2.45,0,0,1,74.5,179Z"/><path id="Path_7361" data-name="Path 7361" class="cls-10" d="M98.49,176.42a2.45,2.45,0,1,1-2.29-2.61h0a2.45,2.45,0,0,1,2.28,2.61Z"/><path id="Path_7362" data-name="Path 7362" class="cls-10" d="M113.54,194.69a2.45,2.45,0,1,1-2.29-2.6h0a2.44,2.44,0,0,1,2.28,2.6Z"/><path id="Path_7363" data-name="Path 7363" class="cls-10" d="M52.52,144.43a2.64,2.64,0,1,0-2.81,2.45h0A2.64,2.64,0,0,0,52.52,144.43Z"/><path id="Path_7364" data-name="Path 7364" class="cls-10" d="M110.64,145.32a2.64,2.64,0,1,0-3.62.9,2.64,2.64,0,0,0,3.62-.9Z"/><path id="Path_7365" data-name="Path 7365" class="cls-10" d="M84,127a2.14,2.14,0,1,0-2.29,2.25A2.28,2.28,0,0,0,84,127Z"/></g></g></g></svg>