<svg xmlns="http://www.w3.org/2000/svg" width="185.261" height="96.441" viewBox="0 0 185.261 96.441">
  <g id="Group_5943" data-name="Group 5943" transform="translate(-1298.773 -313.225)">
    <g id="Group_5915" data-name="Group 5915" transform="translate(267.859 149.001)">
      <g id="Group_171" data-name="Group 171">
        <path id="Path_622" data-name="Path 622" d="M1156.131,202.586c.157.394.315.789.461,1.189,33.994,2.567,58.432,9.168,58.432,14.84,0,7.489-36.759,15.507-91.479,15.507s-91.479-8.018-91.479-15.507c0-5.672,21.091-11.643,55.085-14.209.146-.4.3-.8.461-1.19-31.42,2.341-56.7,7.741-56.7,15.4,0,10.453,47.1,16.7,92.631,16.7s92.63-6.247,92.63-16.7C1216.175,210.957,1187.551,204.926,1156.131,202.586Z" fill="#ffcfcf"/>
        <path id="Path_623" data-name="Path 623" d="M1182.883,176.523c-2.836-4.289-17.116,1.155-34.628,10.993.3.257.59.529.884.795,14.216-7.958,24.9-12.154,29.92-12.154,1.438,0,2.413.343,2.875,1.041,3.129,4.735-16.98,26.447-51.906,51.222s-59.22,31.933-62.351,27.2c-2.07-3.131,2.878-14.949,18.7-28.9-.134-.381-.263-.763-.386-1.149-15.184,13.355-22.094,26.439-19.259,30.728.668,1.01,1.977,1.336,3.8,1.481,10.772.852,35.345-10.778,60.147-28.372C1159.846,208.713,1187.347,183.277,1182.883,176.523Z" fill="#ffcfcf"/>
      </g>
    </g>
    <g id="Group_5916" data-name="Group 5916" transform="translate(267.859 149.001)">
      <path id="Path_624" data-name="Path 624" d="M1050.6,202.49a2.779,2.779,0,0,0-1.5,1.938,1.392,1.392,0,0,0,.118,1c.386.62,1.288.566,2.006.437l1.556-.281a2.032,2.032,0,0,0,1.35-.622C1055.668,202.847,1051.921,201.859,1050.6,202.49Z" fill="#bcc0e5"/>
      <path id="Path_625" data-name="Path 625" d="M1167.013,229.833c3.827.909,1.4-3.7-1.086-3.878a1.4,1.4,0,0,0-1.618,1.621C1164.373,229.043,1165.765,229.537,1167.013,229.833Z" fill="#e9d1ff"/>
      <path id="Path_626" data-name="Path 626" d="M1075.559,238.18a2.921,2.921,0,0,0-.975,1.477,6.593,6.593,0,0,0-.481,1.6,2.216,2.216,0,0,0,.356,1.6,2.241,2.241,0,0,0,2.173.708,6.6,6.6,0,0,0,2.188-.966,4.666,4.666,0,0,0,1.96-1.751c.55-1.119.484-2.425-.824-2.721C1078.85,237.878,1076.532,237.556,1075.559,238.18Z" fill="#e9d1ff"/>
      <path id="Path_627" data-name="Path 627" d="M1109.03,258.038a2.045,2.045,0,0,0-.27,1.486,1.477,1.477,0,0,0,.992,1.093,1.513,1.513,0,0,0,.972-.077,3.7,3.7,0,0,0,1.046-.751c.762-.7,4.206-3.227,1.781-4.12C1112.07,255.123,1109.716,256.885,1109.03,258.038Z" fill="#d9f0ff"/>
      <path id="Path_628" data-name="Path 628" d="M1169.22,178.908a2.046,2.046,0,0,0-.29,1.483,1.473,1.473,0,0,0,.977,1.1,1.51,1.51,0,0,0,.972-.063,3.714,3.714,0,0,0,1.057-.737c.771-.686,4.249-3.17,1.837-4.1C1172.3,176.035,1169.921,177.765,1169.22,178.908Z" fill="#bcc0e5"/>
      <path id="Path_629" data-name="Path 629" d="M1050.977,204.632" fill="none" stroke="#f9f1d7" stroke-miterlimit="10" stroke-width="0.486"/>
      <path id="Path_630" data-name="Path 630" d="M1161.66,205.774a41.533,41.533,0,0,1-41.55,41.554q-1.674,0-3.317-.13a41.557,41.557,0,1,1,41.343-58.192,41.342,41.342,0,0,1,3.435,14.039Q1161.658,204.4,1161.66,205.774Z" fill="#d9f0ff"/>
      <path id="Path_631" data-name="Path 631" d="M1128.263,227.341c-2.374,2.941-5.973,4.573-9.48,5.986a12.747,12.747,0,0,0-3.559,1.875,4.119,4.119,0,0,0-1.606,3.525c.245,1.867,2.1,3.062,2.942,4.746a5.02,5.02,0,0,1,.233,3.725,41.547,41.547,0,0,1-32.327-20.055,150.165,150.165,0,0,0,29.054-9.83,28.211,28.211,0,0,1,7.771-2.751c2.734-.372,5.775.273,7.582,2.357C1131.351,219.776,1130.636,224.4,1128.263,227.341Z" fill="#e9d1ff"/>
      <path id="Path_632" data-name="Path 632" d="M1156.893,189.368l-39.267,12.922a13.6,13.6,0,0,1-5.585,1c-1.9-.2-3.823-1.428-4.2-3.295a4.606,4.606,0,0,1,1.7-4.2,13.56,13.56,0,0,1,4.174-2.207q6.491-2.517,12.986-5.032c2.323-.9,4.748-1.869,6.366-3.765s2.092-5.021.344-6.8a5.424,5.424,0,0,0-4.768-1.2,29.1,29.1,0,0,0-4.848,1.6,8.057,8.057,0,0,1-4.888.476,3.558,3.558,0,0,1-2.692-3.685c.367-2.184,3-2.975,5.05-3.8a15.66,15.66,0,0,0,7.322-6.271c0-.008.009-.013.013-.021a41.614,41.614,0,0,1,29.538,23.914C1157.708,189.114,1157.29,189.238,1156.893,189.368Z" fill="#bcc0e5"/>
      <path id="Path_633" data-name="Path 633" d="M1157.043,217.01a38.388,38.388,0,0,0,3.55-1.844,41.168,41.168,0,0,1-4.283,11.02c-1.315.347-2.637.672-3.956,1a9.483,9.483,0,0,1-4.739.337c-1.543-.426-2.905-1.967-2.54-3.526.322-1.373,1.739-2.146,3.015-2.749Z" fill="#bcc0e5"/>
      <path id="Path_634" data-name="Path 634" d="M1161.571,203.045a9.078,9.078,0,0,0-3.735.522,16.837,16.837,0,0,1-5.06,1.244c-1.745,0-3.652-1-4-2.71-.394-1.914,1.324-3.674,3.158-4.352a21.723,21.723,0,0,1,5.586-.848,13.817,13.817,0,0,0,3.062-.582A41.321,41.321,0,0,1,1161.571,203.045Z" fill="#bcc0e5"/>
      <path id="Path_635" data-name="Path 635" d="M1093.312,212.812q-6.39,2.831-12.78,5.656a41.71,41.71,0,0,1,2.305-31.077c6.057-3.031,14.8-6.918,16.9-3.649,2.2,3.423-1.325,8.334-4.778,10.483-2.022,1.259-4.449,1.813-6.339,3.262s-3.009,4.433-1.392,6.18c1.294,1.4,3.508,1.211,5.4,1s4.181-.164,5.215,1.435a3.684,3.684,0,0,1-.637,4.268A10.746,10.746,0,0,1,1093.312,212.812Z" fill="#e9d1ff"/>
      <g id="Group_173" data-name="Group 173">
        <path id="Path_636" data-name="Path 636" d="M1097,186.255a57.718,57.718,0,0,1,8.845-3.8c.916-.306.523-1.763-.4-1.454a60.25,60.25,0,0,0-9.206,3.954c-.856.456-.1,1.758.761,1.3Z" fill="#b29c88"/>
      </g>
      <g id="Group_174" data-name="Group 174">
        <path id="Path_637" data-name="Path 637" d="M1133.362,204.2a.754.754,0,0,0,0-1.507.754.754,0,0,0,0,1.507Z" fill="#ffcfcf"/>
      </g>
      <g id="Group_175" data-name="Group 175">
        <path id="Path_638" data-name="Path 638" d="M1110.463,241.188a17.787,17.787,0,0,0,5.93-2.311c.826-.506.07-1.81-.761-1.3a16.585,16.585,0,0,1-5.569,2.158c-.952.185-.549,1.638.4,1.454Z" fill="#b29c88"/>
      </g>
      <g id="Group_176" data-name="Group 176">
        <path id="Path_639" data-name="Path 639" d="M1119.8,236.993a.754.754,0,0,0,0-1.507.754.754,0,0,0,0,1.507Z" fill="#ffcfcf"/>
      </g>
      <g id="Group_177" data-name="Group 177">
        <path id="Path_640" data-name="Path 640" d="M1093.719,210.026l6.281-2.639c.881-.371.494-1.83-.4-1.454l-6.28,2.639c-.881.371-.494,1.831.4,1.454Z" fill="#b29c88"/>
      </g>
      <g id="Group_178" data-name="Group 178">
        <path id="Path_641" data-name="Path 641" d="M1102.461,205.836a.754.754,0,0,0,0-1.507.754.754,0,0,0,0,1.507Z" fill="#b29c88"/>
      </g>
      <g id="Group_179" data-name="Group 179">
        <path id="Path_642" data-name="Path 642" d="M1141.771,234.578a18.418,18.418,0,0,1-4.464,1.688c-.944.225-.544,1.679.4,1.453a19.958,19.958,0,0,0,4.825-1.84c.855-.458.095-1.76-.761-1.3Z" fill="#b29c88"/>
      </g>
      <g id="Group_180" data-name="Group 180">
        <path id="Path_643" data-name="Path 643" d="M1146.345,224.133l-4.24,1.832c-1,.432-.136,1.894.857,1.465l4.238-1.833c1-.432.137-1.893-.855-1.464Z" fill="#b29c88"/>
      </g>
      <g id="Group_181" data-name="Group 181">
        <path id="Path_644" data-name="Path 644" d="M1142,188.064l3.768-1.256c1.03-.344.588-1.982-.451-1.635l-3.769,1.256c-1.029.343-.588,1.982.452,1.635Z" fill="#b29c88"/>
      </g>
      <g id="Group_182" data-name="Group 182">
        <path id="Path_645" data-name="Path 645" d="M1148.435,185.33a.849.849,0,0,0,0-1.7.849.849,0,0,0,0,1.7Z" fill="#b29c88"/>
      </g>
      <g id="Group_183" data-name="Group 183">
        <path id="Path_646" data-name="Path 646" d="M1138.261,176.412a.849.849,0,0,0,0-1.7.849.849,0,0,0,0,1.7Z" fill="#b29c88"/>
      </g>
      <g id="Group_184" data-name="Group 184">
        <path id="Path_647" data-name="Path 647" d="M1105.193,172.849l4.652-1.747c1.012-.381.573-2.021-.451-1.636l-4.652,1.748c-1.012.38-.574,2.02.451,1.635Z" fill="#b29c88"/>
      </g>
      <g id="Group_185" data-name="Group 185">
        <path id="Path_648" data-name="Path 648" d="M1102.013,217.315l10.066-3.6c.907-.325.516-1.782-.4-1.455l-10.065,3.6c-.907.325-.516,1.782.4,1.454Z" fill="#b29c88"/>
      </g>
      <g id="Group_186" data-name="Group 186">
        <path id="Path_649" data-name="Path 649" d="M1115.776,212.119a.754.754,0,0,0,0-1.508.754.754,0,0,0,0,1.508Z" fill="#ffcfcf"/>
      </g>
      <g id="Group_187" data-name="Group 187">
        <path id="Path_650" data-name="Path 650" d="M1124.946,176.631a.565.565,0,0,0,0-1.13.565.565,0,0,0,0,1.13Z" fill="#e9d1ff"/>
      </g>
      <g id="Group_188" data-name="Group 188">
        <path id="Path_651" data-name="Path 651" d="M1118.288,196.981a.566.566,0,0,0,0-1.131.566.566,0,0,0,0,1.131Z" fill="#e9d1ff"/>
      </g>
      <g id="Group_189" data-name="Group 189">
        <path id="Path_652" data-name="Path 652" d="M1119.67,199.242a.566.566,0,0,0,0-1.131.566.566,0,0,0,0,1.131Z" fill="#e9d1ff"/>
      </g>
      <g id="Group_190" data-name="Group 190">
        <path id="Path_653" data-name="Path 653" d="M1120.549,197.358a.566.566,0,0,0,0-1.131.566.566,0,0,0,0,1.131Z" fill="#e9d1ff"/>
      </g>
      <g id="Group_191" data-name="Group 191">
        <path id="Path_654" data-name="Path 654" d="M1084.875,209.292a.566.566,0,0,0,0-1.131.566.566,0,0,0,0,1.131Z" fill="#bcc0e5"/>
      </g>
      <g id="Group_192" data-name="Group 192">
        <path id="Path_655" data-name="Path 655" d="M1084.247,211.68a.566.566,0,0,0,0-1.131.566.566,0,0,0,0,1.131Z" fill="#bcc0e5"/>
      </g>
      <g id="Group_193" data-name="Group 193">
        <path id="Path_656" data-name="Path 656" d="M1086.759,211.68a.566.566,0,0,0,0-1.131.566.566,0,0,0,0,1.131Z" fill="#bcc0e5"/>
      </g>
      <g id="Group_194" data-name="Group 194">
        <path id="Path_657" data-name="Path 657" d="M1087.035,188.293a7.966,7.966,0,0,0,2.522-.936.566.566,0,0,0-.571-.976,7.061,7.061,0,0,1-2.251.822c-.714.133-.412,1.223.3,1.09Z" fill="#bcc0e5"/>
      </g>
      <g id="Group_195" data-name="Group 195">
        <path id="Path_658" data-name="Path 658" d="M1134.511,193.733l1.762-.872c.652-.323.08-1.3-.57-.977l-1.762.873c-.653.322-.08,1.3.57.976Z" fill="#e9d1ff"/>
      </g>
      <g id="Group_196" data-name="Group 196">
        <path id="Path_659" data-name="Path 659" d="M1143.457,207.733l2.623-1.289c.653-.321.08-1.3-.571-.976l-2.622,1.288c-.653.32-.081,1.3.57.977Z" fill="#bcc0e5"/>
      </g>
      <g id="Group_197" data-name="Group 197">
        <path id="Path_660" data-name="Path 660" d="M1126.7,172.361a.566.566,0,0,0,0-1.131.566.566,0,0,0,0,1.131Z" fill="#e9d1ff"/>
      </g>
      <g id="Group_198" data-name="Group 198">
        <path id="Path_661" data-name="Path 661" d="M1126.83,236.553a.565.565,0,0,0,0-1.13.565.565,0,0,0,0,1.13Z" fill="#bcc0e5"/>
      </g>
      <g id="Group_199" data-name="Group 199">
        <path id="Path_662" data-name="Path 662" d="M1126.2,238.94a.566.566,0,0,0,0-1.131.566.566,0,0,0,0,1.131Z" fill="#bcc0e5"/>
      </g>
      <g id="Group_200" data-name="Group 200">
        <path id="Path_663" data-name="Path 663" d="M1128.84,237.809a.565.565,0,0,0,0-1.13.565.565,0,0,0,0,1.13Z" fill="#bcc0e5"/>
      </g>
      <g id="Group_201" data-name="Group 201">
        <path id="Path_664" data-name="Path 664" d="M1103.215,176.506a.566.566,0,0,0,0-1.131.566.566,0,0,0,0,1.131Z" fill="#e9d1ff"/>
      </g>
      <g id="Group_202" data-name="Group 202">
        <path id="Path_665" data-name="Path 665" d="M1105.224,177.636a.565.565,0,0,0,0-1.13.565.565,0,0,0,0,1.13Z" fill="#e9d1ff"/>
      </g>
      <g id="Group_203" data-name="Group 203">
        <path id="Path_666" data-name="Path 666" d="M1105.978,175.752a.565.565,0,0,0,0-1.13.565.565,0,0,0,0,1.13Z" fill="#e9d1ff"/>
      </g>
      <g id="Group_204" data-name="Group 204">
        <path id="Path_667" data-name="Path 667" d="M1091.658,222.108a.566.566,0,0,0,0-1.131.566.566,0,0,0,0,1.131Z" fill="#ffcfcf"/>
      </g>
      <g id="Group_205" data-name="Group 205">
        <path id="Path_668" data-name="Path 668" d="M1099.069,236.3a.566.566,0,0,0,0-1.131.566.566,0,0,0,0,1.131Z" fill="#ffcfcf"/>
      </g>
      <g id="Group_206" data-name="Group 206">
        <path id="Path_669" data-name="Path 669" d="M1134.367,231.529a.566.566,0,0,0,0-1.131.566.566,0,0,0,0,1.131Z" fill="#ffcfcf"/>
      </g>
      <g id="Group_207" data-name="Group 207">
        <path id="Path_670" data-name="Path 670" d="M1165.9,196.729a.565.565,0,0,0,0-1.13.565.565,0,0,0,0,1.13Z" fill="#ffcfcf"/>
      </g>
      <g id="Group_208" data-name="Group 208">
        <path id="Path_671" data-name="Path 671" d="M1055.288,221.335a.942.942,0,0,0,0-1.883.942.942,0,0,0,0,1.883Z" fill="#ffcfcf"/>
      </g>
      <g id="Group_209" data-name="Group 209">
        <path id="Path_672" data-name="Path 672" d="M1165.266,175.958a.943.943,0,0,0,0-1.884.943.943,0,0,0,0,1.884Z" fill="#e9d1ff"/>
      </g>
      <g id="Group_210" data-name="Group 210">
        <path id="Path_673" data-name="Path 673" d="M1118.215,255.488a1.74,1.74,0,0,0,0-3.478,1.74,1.74,0,0,0,0,3.478Z" fill="#ffcfcf"/>
      </g>
      <g id="Group_211" data-name="Group 211">
        <path id="Path_674" data-name="Path 674" d="M1104.665,255.488a.479.479,0,0,0,0-.957.479.479,0,0,0,0,.957Z" fill="#ffcfcf"/>
      </g>
      <g id="Group_212" data-name="Group 212">
        <path id="Path_675" data-name="Path 675" d="M1167.9,225.056a.926.926,0,0,0,0-1.852.926.926,0,0,0,0,1.852Z" fill="#ffcfcf"/>
      </g>
      <g id="Group_213" data-name="Group 213">
        <path id="Path_676" data-name="Path 676" d="M1151.5,225.107a.943.943,0,0,0,0-1.884.943.943,0,0,0,0,1.884Z" fill="#e9d1ff"/>
      </g>
      <path id="Path_677" data-name="Path 677" d="M1096.681,227.949" fill="none" stroke="#b29c88" stroke-miterlimit="10" stroke-width="0.486"/>
    </g>
  </g>
</svg>
