<svg xmlns="http://www.w3.org/2000/svg" width="225.572" height="74.32" viewBox="0 0 225.572 74.32">
  <g id="Group_5935" data-name="Group 5935" transform="translate(-834.049 -8831)">
    <g id="金牛" transform="translate(64.193 5692.269)" style="isolation: isolate">
      <text id="牡羊座" transform="translate(769.856 3189.731)" fill="#fff" font-size="40" font-family="STXihei, STHeiti" letter-spacing="0.2em" style="isolation: isolate"><tspan x="0" y="0">牡羊座</tspan></text>
    </g>
    <g id="Group_5932" data-name="Group 5932" transform="translate(633.718 8343.908)">
      <path id="Path_25" data-name="Path 25" d="M378.161,488.64a37.15,37.15,0,1,0,46.193,25.031A37.15,37.15,0,0,0,378.161,488.64Z" fill="#7ad3d1" fill-rule="evenodd"/>
      <path id="Path_26" data-name="Path 26" d="M419.444,517.207a35.366,35.366,0,0,1-66.584,16.615,37.155,37.155,0,1,0,58.2-39.483A35.224,35.224,0,0,1,419.444,517.207Z" transform="translate(0.042 0.239)" fill="#5dafab" fill-rule="evenodd"/>
      <path id="Path_27" data-name="Path 27" d="M383.9,557.53a5.652,5.652,0,1,0-5.651-5.651A5.662,5.662,0,0,0,383.9,557.53Z" transform="translate(0.878 1.948)" fill="#e0935f" fill-rule="evenodd"/>
      <path id="Path_28" data-name="Path 28" d="M374.711,547.929a1.182,1.182,0,1,0-1.183-1.183A1.184,1.184,0,0,0,374.711,547.929Z" transform="translate(0.723 1.926)" fill="#e0935f" fill-rule="evenodd"/>
      <path id="Path_29" data-name="Path 29" d="M412.471,529.96a8.041,8.041,0,1,0-8.04-8.041A8.056,8.056,0,0,0,412.471,529.96Z" transform="translate(1.741 0.882)" fill="#e0935f" fill-rule="evenodd"/>
      <path id="Path_30" data-name="Path 30" d="M412.368,526.609a4.793,4.793,0,1,0-4.794-4.794A4.8,4.8,0,0,0,412.368,526.609Z" transform="translate(1.844 0.986)" fill="#f8c27d" fill-rule="evenodd"/>
      <path id="Path_31" data-name="Path 31" d="M405.944,549.2a6.346,6.346,0,1,0-6.347-6.347A6.359,6.359,0,0,0,405.944,549.2Z" transform="translate(1.581 1.628)" fill="#f8c27d" fill-rule="evenodd"/>
      <path id="Path_32" data-name="Path 32" d="M400.007,551.678a1.823,1.823,0,1,0-1.823-1.824A1.828,1.828,0,0,0,400.007,551.678Z" transform="translate(1.535 2.007)" fill="#f8c27d" fill-rule="evenodd"/>
      <path id="Path_33" data-name="Path 33" d="M413.1,539.322a.912.912,0,1,0-.911-.911A.913.913,0,0,0,413.1,539.322Z" transform="translate(1.996 1.66)" fill="#a1b9a5" fill-rule="evenodd"/>
      <path id="Path_34" data-name="Path 34" d="M362.91,513.919a1.182,1.182,0,1,0-1.181-1.181A1.185,1.185,0,0,0,362.91,513.919Z" transform="translate(0.334 0.806)" fill="#f8c27d" fill-rule="evenodd"/>
      <circle id="Ellipse_1" data-name="Ellipse 1" cx="8.119" cy="8.119" r="8.119" transform="translate(367.424 508.43)" fill="#f8c27d"/>
      <path id="Path_35" data-name="Path 35" d="M374.961,521.5a5.7,5.7,0,1,0-5.7-5.7A5.715,5.715,0,0,0,374.961,521.5Z" transform="translate(0.582 0.757)" fill="#e0935f" fill-rule="evenodd"/>
      <path id="Path_36" data-name="Path 36" d="M393.224,506.751a2.646,2.646,0,1,0-2.646-2.645A2.651,2.651,0,0,0,393.224,506.751Z" transform="translate(1.284 0.473)" fill="#f8c27d" fill-rule="evenodd"/>
      <path id="Path_37" data-name="Path 37" d="M387.342,498.326A1.323,1.323,0,1,0,386.019,497,1.326,1.326,0,0,0,387.342,498.326Z" transform="translate(1.134 0.283)" fill="#f8c27d" fill-rule="evenodd"/>
      <path id="Path_38" data-name="Path 38" d="M390.339,536.862a3.614,3.614,0,1,0-3.614-3.614A3.622,3.622,0,0,0,390.339,536.862Z" transform="translate(1.157 1.401)" fill="#f8c27d" fill-rule="evenodd"/>
    </g>
  </g>
</svg>
