<svg xmlns="http://www.w3.org/2000/svg" width="226.888" height="75.591" viewBox="0 0 226.888 75.591">
  <g id="Group_5935" data-name="Group 5935" transform="translate(-1017.634 -9122.052)">
    <g id="摩羯" transform="translate(64.193 5692.679)" style="isolation: isolate">
      <text id="獅子座" transform="translate(953.44 3480.789)" fill="#fff" font-size="40" font-family="STXihei, STHeiti" letter-spacing="0.2em" style="isolation: isolate"><tspan x="0" y="0">獅子座</tspan></text>
    </g>
    <g id="Group_5933" data-name="Group 5933" transform="translate(708.808 8635.905)">
      <path id="Path_1" data-name="Path 1" d="M487.157,487.722A37.785,37.785,0,1,0,534.14,513.18,37.786,37.786,0,0,0,487.157,487.722Z" fill="#ffb048" fill-rule="evenodd"/>
      <path id="Path_2" data-name="Path 2" d="M509.469,532.986a2.6,2.6,0,1,0-2.6-2.6A2.6,2.6,0,0,0,509.469,532.986Z" transform="translate(1.395 1.243)" fill="#f39f26" fill-rule="evenodd"/>
      <path id="Path_3" data-name="Path 3" d="M529.149,516.8a35.972,35.972,0,0,1-67.723,16.9,37.79,37.79,0,1,0,59.191-40.158A35.826,35.826,0,0,1,529.149,516.8Z" transform="translate(0.039 0.221)" fill="#eccd94" fill-rule="evenodd"/>
      <path id="Path_4" data-name="Path 4" d="M505.125,486.845c-3.244,3.742-9.651,9.989-18.479,13.174a23.278,23.278,0,0,1-17.5-.572,37.81,37.81,0,0,1,35.978-12.6Zm30.432,33.694a37.95,37.95,0,0,0-9.038-21.306c-.031.048-.063.1-.092.149-2.687,4.719-20.826,15.283-33.247,18.973L478.228,522.8c-10.961,3.256-15.884,2.938-18.093,1.934A37.824,37.824,0,0,0,461.7,534.7c.053.176.108.349.164.523,5.947.625,15.947-2.291,24.007-4.686l30.747-9.136c9.29-2.76,15.32-2.1,18.941-.866Zm-4.407,21.387c-3.461-.693-8.686-.9-15.6,1.158-13.571,4.034-22.159,6.584-29.673,8.816a15.238,15.238,0,0,0-6.927,4.717,37.791,37.791,0,0,1-11.858-10.811l67.3-11.967A38.024,38.024,0,0,1,531.15,541.926Z" transform="translate(0 0)" fill="#ff9c1a" fill-rule="evenodd"/>
      <path id="Path_5" data-name="Path 5" d="M529.149,516.64c0,.827-.032,1.649-.086,2.462a21.407,21.407,0,0,1,6.452,1.058q-.073-.814-.18-1.618a37.668,37.668,0,0,0-8.86-19.681c-.03.046-.059.092-.087.142a7.942,7.942,0,0,1-1.1,1.417,35.816,35.816,0,0,1,3.857,16.22Zm-5.222,18.673a36.153,36.153,0,0,1-5.1,6.545,30.273,30.273,0,0,1,12.288-.311,38.024,38.024,0,0,0,3.239-8.087l-10.423,1.854Zm-38.7,16.407a35.835,35.835,0,0,1-14.459-6.955l-3.706.658a37.978,37.978,0,0,0,7.65,7.987l.146.112.325.247a37.867,37.867,0,0,0,3.727,2.466,15.606,15.606,0,0,1,6.317-4.517ZM462.179,534.88c-.252-.429-.5-.864-.734-1.3.069.25.14.5.214.75.053.176.108.349.164.523C461.939,534.86,462.059,534.87,462.179,534.88Z" transform="translate(0.039 0.379)" fill="#ec7223" fill-rule="evenodd"/>
      <path id="Path_6" data-name="Path 6" d="M527.526,546.87a62.125,62.125,0,0,0-40.737,12.645,37.793,37.793,0,0,0,40.737-12.645Zm7.036-32.65c-2.021-.823-5.272-1.211-10.334.292l-29.367,8.725-22.542,6.7c-2.639.784-7.807,1.449-11.537.49q-.247-1.3-.4-2.6c2.754.664,7.3.819,14.428-1.3l38.338-11.391c5.7-1.694,13.68-6.705,17.338-10.888a37.824,37.824,0,0,1,3.646,8.4C534.288,513.167,534.429,513.693,534.562,514.22Z" transform="translate(0.008 0.54)" fill="#8c4523" fill-rule="evenodd"/>
      <path id="Path_7" data-name="Path 7" d="M482.1,513.724a2.659,2.659,0,1,0-2.658-2.658A2.664,2.664,0,0,0,482.1,513.724Z" transform="translate(0.576 0.664)" fill="#f39f26" fill-rule="evenodd"/>
      <path id="Path_8" data-name="Path 8" d="M487.109,514.231a1.068,1.068,0,1,0-1.069-1.068A1.07,1.07,0,0,0,487.109,514.231Z" transform="translate(0.773 0.774)" fill="#8c4523" fill-rule="evenodd"/>
      <path id="Path_9" data-name="Path 9" d="M495.353,503.311a1.676,1.676,0,1,0-1.675-1.676A1.679,1.679,0,0,0,495.353,503.311Z" transform="translate(1.001 0.412)" fill="#8c4523" fill-rule="evenodd"/>
      <path id="Path_10" data-name="Path 10" d="M510.05,513.134a3.159,3.159,0,1,0-3.16-3.159A3.164,3.164,0,0,0,510.05,513.134Z" transform="translate(1.395 0.617)" fill="#ec7223" fill-rule="evenodd"/>
      <path id="Path_11" data-name="Path 11" d="M498.193,548.984a2.446,2.446,0,1,0-2.447-2.447A2.452,2.452,0,0,0,498.193,548.984Z" transform="translate(1.063 1.729)" fill="#ec7223" fill-rule="evenodd"/>
      <path id="Path_12" data-name="Path 12" d="M489.128,532.66a3.7,3.7,0,1,0-3.7-3.7A3.7,3.7,0,0,0,489.128,532.66Z" transform="translate(0.755 1.167)" fill="#8c4523" fill-rule="evenodd"/>
      <path id="Path_13" data-name="Path 13" d="M483.772,533.907a1.48,1.48,0,1,0-1.48-1.481A1.484,1.484,0,0,0,483.772,533.907Z" transform="translate(0.661 1.337)" fill="#ec7223" fill-rule="evenodd"/>
    </g>
  </g>
</svg>
