<svg xmlns="http://www.w3.org/2000/svg" width="71.951" height="71.95" viewBox="0 0 71.951 71.95">
  <g id="Group_5910" data-name="Group 5910" transform="translate(-351.583 -487.092)">
    <path id="Path_25" data-name="Path 25" d="M377.314,488.591a35.966,35.966,0,1,0,44.72,24.233A35.965,35.965,0,0,0,377.314,488.591Z" fill="#7ad3d1" fill-rule="evenodd"/>
    <path id="Path_26" data-name="Path 26" d="M417.321,516.478a34.238,34.238,0,0,1-64.461,16.085,35.97,35.97,0,1,0,56.34-38.224A34.1,34.1,0,0,1,417.321,516.478Z" fill="#5dafab" fill-rule="evenodd"/>
    <path id="Path_27" data-name="Path 27" d="M383.72,557.17a5.471,5.471,0,1,0-5.471-5.471A5.482,5.482,0,0,0,383.72,557.17Z" fill="#e0935f" fill-rule="evenodd"/>
    <path id="Path_28" data-name="Path 28" d="M374.673,547.854a1.145,1.145,0,1,0-1.145-1.145A1.147,1.147,0,0,0,374.673,547.854Z" fill="#e0935f" fill-rule="evenodd"/>
    <path id="Path_29" data-name="Path 29" d="M412.215,529.447a7.785,7.785,0,1,0-7.784-7.785A7.8,7.8,0,0,0,412.215,529.447Z" fill="#e0935f" fill-rule="evenodd"/>
    <path id="Path_30" data-name="Path 30" d="M412.215,526.3a4.641,4.641,0,1,0-4.641-4.641A4.649,4.649,0,0,0,412.215,526.3Z" fill="#f8c27d" fill-rule="evenodd"/>
    <path id="Path_31" data-name="Path 31" d="M405.742,548.8a6.144,6.144,0,1,0-6.145-6.145A6.156,6.156,0,0,0,405.742,548.8Z" fill="#f8c27d" fill-rule="evenodd"/>
    <path id="Path_32" data-name="Path 32" d="M399.949,551.562a1.765,1.765,0,1,0-1.765-1.766A1.77,1.77,0,0,0,399.949,551.562Z" fill="#f8c27d" fill-rule="evenodd"/>
    <path id="Path_33" data-name="Path 33" d="M413.071,539.264a.882.882,0,1,0-.882-.882A.884.884,0,0,0,413.071,539.264Z" fill="#a1b9a5" fill-rule="evenodd"/>
    <path id="Path_34" data-name="Path 34" d="M362.872,513.844a1.144,1.144,0,1,0-1.143-1.143A1.147,1.147,0,0,0,362.872,513.844Z" fill="#f8c27d" fill-rule="evenodd"/>
    <circle id="Ellipse_1" data-name="Ellipse 1" cx="7.86" cy="7.86" r="7.86" transform="translate(366.919 507.749)" fill="#f8c27d"/>
    <path id="Path_35" data-name="Path 35" d="M374.779,521.132a5.522,5.522,0,1,0-5.521-5.522A5.532,5.532,0,0,0,374.779,521.132Z" fill="#e0935f" fill-rule="evenodd"/>
    <path id="Path_36" data-name="Path 36" d="M393.14,506.582a2.561,2.561,0,1,0-2.562-2.561A2.566,2.566,0,0,0,393.14,506.582Z" fill="#f8c27d" fill-rule="evenodd"/>
    <path id="Path_37" data-name="Path 37" d="M387.3,498.242a1.281,1.281,0,1,0-1.281-1.281A1.284,1.284,0,0,0,387.3,498.242Z" fill="#f8c27d" fill-rule="evenodd"/>
    <path id="Path_38" data-name="Path 38" d="M390.224,536.632a3.5,3.5,0,1,0-3.5-3.5A3.506,3.506,0,0,0,390.224,536.632Z" fill="#f8c27d" fill-rule="evenodd"/>
  </g>
</svg>
