<svg xmlns="http://www.w3.org/2000/svg" width="73.4" height="73.4" viewBox="0 0 73.4 73.4">
  <g id="Group_5909" data-name="Group 5909" transform="translate(-460.124 -486.147)">
    <path id="Path_1" data-name="Path 1" d="M486.374,487.676A36.691,36.691,0,1,0,531.995,512.4,36.691,36.691,0,0,0,486.374,487.676Z" fill="#ffb048" fill-rule="evenodd"/>
    <path id="Path_2" data-name="Path 2" d="M509.394,532.836a2.521,2.521,0,1,0-2.521-2.521A2.526,2.526,0,0,0,509.394,532.836Z" fill="#f39f26" fill-rule="evenodd"/>
    <path id="Path_3" data-name="Path 3" d="M527.187,516.125a34.929,34.929,0,0,1-65.761,16.409A36.695,36.695,0,1,0,518.9,493.54,34.788,34.788,0,0,1,527.187,516.125Z" fill="#eccd94" fill-rule="evenodd"/>
    <path id="Path_4" data-name="Path 4" d="M503.821,486.825c-3.15,3.634-9.371,9.7-17.944,12.792a22.6,22.6,0,0,1-16.992-.555,36.714,36.714,0,0,1,34.936-12.237Zm29.55,32.718a36.851,36.851,0,0,0-8.776-20.689c-.03.047-.061.093-.089.145-2.609,4.582-20.223,14.84-32.284,18.423L477.7,521.736c-10.643,3.162-15.424,2.853-17.569,1.878a36.728,36.728,0,0,0,1.518,9.683c.051.171.1.339.159.508,5.775.607,15.485-2.225,23.311-4.55l29.856-8.871c9.021-2.68,14.876-2.039,18.392-.841Zm-4.279,20.767c-3.361-.673-8.434-.871-15.151,1.124-13.178,3.917-21.517,6.393-28.813,8.561a14.8,14.8,0,0,0-6.726,4.58,36.7,36.7,0,0,1-11.514-10.5l65.349-11.62A36.924,36.924,0,0,1,529.092,540.31Z" fill="#ff9c1a" fill-rule="evenodd"/>
    <path id="Path_5" data-name="Path 5" d="M527.187,516.125c0,.8-.031,1.6-.084,2.391a20.79,20.79,0,0,1,6.265,1.027q-.07-.791-.175-1.571a36.577,36.577,0,0,0-8.6-19.111c-.029.045-.057.089-.084.138a7.71,7.71,0,0,1-1.064,1.376,34.778,34.778,0,0,1,3.745,15.75Zm-5.071,18.132a35.1,35.1,0,0,1-4.956,6.355,29.4,29.4,0,0,1,11.932-.3,36.924,36.924,0,0,0,3.145-7.853l-10.121,1.8Zm-37.58,15.932a34.8,34.8,0,0,1-14.04-6.753l-3.6.639a36.877,36.877,0,0,0,7.428,7.756l.142.109.316.24a36.777,36.777,0,0,0,3.619,2.4,15.154,15.154,0,0,1,6.134-4.386Zm-22.378-16.353c-.245-.417-.485-.839-.713-1.267.067.243.136.485.208.728.051.171.1.339.159.508C461.925,533.817,462.041,533.827,462.158,533.836Z" fill="#ec7223" fill-rule="evenodd"/>
    <path id="Path_6" data-name="Path 6" d="M525.581,545.635a60.326,60.326,0,0,0-39.557,12.279,36.7,36.7,0,0,0,39.557-12.279Zm6.832-31.7c-1.962-.8-5.119-1.176-10.035.284l-28.516,8.472-21.889,6.5c-2.563.761-7.581,1.407-11.2.476q-.24-1.265-.388-2.527c2.674.645,7.091.795,14.01-1.261l37.227-11.061c5.536-1.645,13.284-6.511,16.836-10.573a36.728,36.728,0,0,1,3.54,8.152C532.147,512.908,532.284,513.419,532.413,513.931Z" fill="#8c4523" fill-rule="evenodd"/>
    <path id="Path_7" data-name="Path 7" d="M482.02,513.57a2.581,2.581,0,1,0-2.581-2.581A2.587,2.587,0,0,0,482.02,513.57Z" fill="#f39f26" fill-rule="evenodd"/>
    <path id="Path_8" data-name="Path 8" d="M487.078,514.169a1.037,1.037,0,1,0-1.038-1.037A1.039,1.039,0,0,0,487.078,514.169Z" fill="#8c4523" fill-rule="evenodd"/>
    <path id="Path_9" data-name="Path 9" d="M495.3,503.214a1.627,1.627,0,1,0-1.626-1.627A1.631,1.631,0,0,0,495.3,503.214Z" fill="#8c4523" fill-rule="evenodd"/>
    <path id="Path_10" data-name="Path 10" d="M509.958,512.951a3.067,3.067,0,1,0-3.068-3.067A3.073,3.073,0,0,0,509.958,512.951Z" fill="#ec7223" fill-rule="evenodd"/>
    <path id="Path_11" data-name="Path 11" d="M498.122,548.842a2.375,2.375,0,1,0-2.376-2.376A2.381,2.381,0,0,0,498.122,548.842Z" fill="#ec7223" fill-rule="evenodd"/>
    <path id="Path_12" data-name="Path 12" d="M489.021,532.446a3.589,3.589,0,1,0-3.588-3.588A3.595,3.595,0,0,0,489.021,532.446Z" fill="#8c4523" fill-rule="evenodd"/>
    <path id="Path_13" data-name="Path 13" d="M483.729,533.821a1.438,1.438,0,1,0-1.437-1.438A1.441,1.441,0,0,0,483.729,533.821Z" fill="#ec7223" fill-rule="evenodd"/>
  </g>
</svg>
