<svg xmlns="http://www.w3.org/2000/svg" width="72.009" height="72.008" viewBox="0 0 72.009 72.008">
  <g id="Group_5911" data-name="Group 5911" transform="translate(779.462 -487.876)">
    <circle id="Ellipse_3" data-name="Ellipse 3" cx="36.004" cy="36.004" r="36.004" transform="translate(-779.461 487.876)" fill="#d8b6d0"/>
    <path id="Path_96" data-name="Path 96" d="M608.257,499.483c-8.269-.7-16.372-2.873-24.656-3.384a49.335,49.335,0,0,0-5.047-.058,36.1,36.1,0,0,0-9.21,12.9,48.276,48.276,0,0,0,7.344-.936,82.778,82.778,0,0,1,19.738-.877c8.532.645,16.96,2.613,25.517,2.651a40.054,40.054,0,0,0,13.276-2.05,36.062,36.062,0,0,0-6.478-9.554A70,70,0,0,1,608.257,499.483Z" transform="translate(-1346.008 1)" fill="#bf75ad"/>
    <path id="Path_97" data-name="Path 97" d="M614.165,519.22c-8.369-.546-16.572-2.5-24.856-3.812-7.23-1.143-14.677-1.781-21.862-.562a36.267,36.267,0,0,0,.221,16.985,40.8,40.8,0,0,0,5.8-4.485c2.864-2.516,5.829-5.116,9.464-6.266,5.257-1.662,10.929-.018,16.171,1.69,7.436,2.424,14.865,5,22.581,6.279a50.2,50.2,0,0,0,16.3.235,36.292,36.292,0,0,0,.067-12.4A74.432,74.432,0,0,1,614.165,519.22Z" transform="translate(-1346.008 1)" fill="#ffe1f4"/>
    <path id="Path_98" data-name="Path 98" d="M599.578,538.558a5.078,5.078,0,0,0-3.293-.906,26.918,26.918,0,0,0-11.023,2.287,2.443,2.443,0,0,0-.68,3.546l.019.02a4.444,4.444,0,0,0,2.231,1.083,32.1,32.1,0,0,0,9.623.9,5.683,5.683,0,0,0,2.494-.572,3.839,3.839,0,0,0,1.831-2.414A4.051,4.051,0,0,0,599.578,538.558Z" transform="translate(-1346.008 1)" fill="#b6545a"/>
    <path id="Path_99" data-name="Path 99" d="M589.662,528.425c-7.38.51-14.347,3.222-21.094,6.372a35.759,35.759,0,0,0,2.088,4.8l13.23-4.4c5.486-1.825,11.052-2.737,16.624-1.2a49.707,49.707,0,0,1,12.015,5.632,35.208,35.208,0,0,0,18.839,4.841,35.976,35.976,0,0,0,4.116-7.015l-23.106-5.8C604.925,529.781,597.324,527.9,589.662,528.425Z" transform="translate(-1346.008 1)" fill="#b6545a"/>
    <path id="Path_100" data-name="Path 100" d="M609.327,546.251c-4.314.327-8.3,2.72-12.585,3.345-5.153.751-10.283-1.09-15.412-2.014a25.854,25.854,0,0,0-5.377-.436,36,36,0,0,0,48.333,4.437C619.633,548.6,614.643,545.849,609.327,546.251Z" transform="translate(-1346.008 1)" fill="#ffe1f4"/>
    <path id="Path_101" data-name="Path 101" d="M620.608,491.766a34.8,34.8,0,1,1-49.172,49.172,35.982,35.982,0,1,0,49.172-49.172Z" transform="translate(-1346.008 1)" fill="#c1b49a" opacity="0.5" style="mix-blend-mode: multiply;isolation: isolate"/>
    <path id="Path_102" data-name="Path 102" d="M599.8,490.81a.411.411,0,0,1,.118-.252.642.642,0,0,1,.249-.128,17.476,17.476,0,0,1,4.318-.537c1.021-.062,2.045-.1,3.068-.11a11.926,11.926,0,0,1,2.035.07,1.145,1.145,0,0,1,.207.046c1.739.644,7.147,3.138,5.115,5.525-2.3,2.7-8.761,1.085-11.408-.332a8.582,8.582,0,0,1-2.378-1.833,6.335,6.335,0,0,1-.871-1.242,3.208,3.208,0,0,1-.454-1.076A.635.635,0,0,1,599.8,490.81Z" transform="translate(-1346.008 1)" fill="#bf75ad"/>
  </g>
</svg>
