<svg xmlns="http://www.w3.org/2000/svg" width="231.657" height="75.758" viewBox="0 0 231.657 75.758">
  <g id="Group_5936" data-name="Group 5936" transform="translate(-985.676 -9372)">
    <g id="處女" transform="translate(64.193 5690.698)">
      <g id="Group_4409" data-name="Group 4409">
        <text id="射手座" transform="translate(921.483 3733.302)" fill="#fff" font-size="40" font-family="STXihei, STHeiti" letter-spacing="0.2em" style="isolation: isolate"><tspan x="0" y="0">射手座</tspan></text>
      </g>
    </g>
    <g id="Group_5934" data-name="Group 5934" transform="translate(1921.036 8884.124)">
      <circle id="Ellipse_3" data-name="Ellipse 3" cx="37.879" cy="37.879" r="37.879" transform="translate(-779.461 487.876)" fill="#d8b6d0"/>
      <path id="Path_96" data-name="Path 96" d="M610.284,499.664c-8.7-.739-17.225-3.023-25.94-3.56a51.918,51.918,0,0,0-5.31-.061,37.981,37.981,0,0,0-9.69,13.574,50.8,50.8,0,0,0,7.726-.985,87.092,87.092,0,0,1,20.766-.923c8.976.679,17.843,2.749,26.846,2.789a42.142,42.142,0,0,0,13.967-2.157,37.941,37.941,0,0,0-6.815-10.052A73.648,73.648,0,0,1,610.284,499.664Z" transform="translate(-1345.862 1.475)" fill="#bf75ad"/>
      <path id="Path_97" data-name="Path 97" d="M616.645,519.482c-8.8-.574-17.435-2.634-26.15-4.01-7.607-1.2-15.441-1.874-23-.591a38.155,38.155,0,0,0,.233,17.87,42.919,42.919,0,0,0,6.1-4.719c3.013-2.647,6.133-5.382,9.957-6.592,5.531-1.749,11.5-.019,17.013,1.778,7.823,2.55,15.639,5.26,23.757,6.606a52.816,52.816,0,0,0,17.15.247,38.182,38.182,0,0,0,.071-13.051A78.31,78.31,0,0,1,616.645,519.482Z" transform="translate(-1346.008 2.422)" fill="#ffe1f4"/>
      <path id="Path_98" data-name="Path 98" d="M600.385,538.605a5.342,5.342,0,0,0-3.465-.953,28.32,28.32,0,0,0-11.6,2.406,2.57,2.57,0,0,0-.715,3.731l.02.021a4.675,4.675,0,0,0,2.347,1.139,33.774,33.774,0,0,0,10.124.952,5.979,5.979,0,0,0,2.624-.6,4.039,4.039,0,0,0,1.926-2.54A4.262,4.262,0,0,0,600.385,538.605Z" transform="translate(-1345.094 3.644)" fill="#b6545a"/>
      <path id="Path_99" data-name="Path 99" d="M590.761,528.43c-7.764.537-15.094,3.39-22.193,6.7a37.617,37.617,0,0,0,2.2,5.047l13.919-4.628c5.772-1.92,11.628-2.88,17.49-1.258,4.551,1.258,8.579,3.518,12.641,5.925a37.042,37.042,0,0,0,19.82,5.093,37.849,37.849,0,0,0,4.33-7.38l-24.309-6.107C606.818,529.856,598.822,527.872,590.761,528.43Z" transform="translate(-1345.903 3.159)" fill="#b6545a"/>
      <path id="Path_100" data-name="Path 100" d="M611.065,546.253c-4.539.344-8.73,2.862-13.24,3.519-5.421.79-10.819-1.147-16.215-2.119a27.2,27.2,0,0,0-5.657-.459,37.879,37.879,0,0,0,50.85,4.668C621.908,548.721,616.658,545.83,611.065,546.253Z" transform="translate(-1345.518 4.09)" fill="#ffe1f4"/>
      <path id="Path_101" data-name="Path 101" d="M623.169,491.766A36.61,36.61,0,1,1,571.436,543.5a37.856,37.856,0,1,0,51.733-51.733Z" transform="translate(-1345.753 1.254)" fill="#c1b49a" opacity="0.5" style="mix-blend-mode: multiply;isolation: isolate"/>
      <path id="Path_102" data-name="Path 102" d="M599.805,490.864a.432.432,0,0,1,.124-.265.675.675,0,0,1,.262-.135,18.386,18.386,0,0,1,4.543-.565c1.074-.065,2.151-.106,3.228-.116a12.553,12.553,0,0,1,2.141.074,1.2,1.2,0,0,1,.218.048c1.83.678,7.519,3.3,5.381,5.813-2.418,2.841-9.217,1.142-12-.349a9.028,9.028,0,0,1-2.5-1.928,6.662,6.662,0,0,1-.916-1.307A3.374,3.374,0,0,1,599.8,491,.671.671,0,0,1,599.805,490.864Z" transform="translate(-1344.276 1.151)" fill="#bf75ad"/>
    </g>
  </g>
</svg>
