<svg xmlns="http://www.w3.org/2000/svg" viewBox="0 0 188.46 285.53"><defs><style>.cls-1{fill:#f9e9bd;}.cls-2{fill:#c3a2cb;}.cls-3,.cls-4{isolation:isolate;}.cls-4{font-size:23.18px;font-family:STXihei, STHeiti;letter-spacing:0.2em;}.cls-11,.cls-4{fill:#fff;}.cls-5{fill:#bf75ad;}.cls-6{fill:#aa4c97;}.cls-7{fill:#fffdf2;}.cls-8{fill:#e6c2db;}.cls-9{fill:#f0d3e4;}.cls-10{fill:#b6545a;}.cls-12{fill:#231815;}</style></defs><g id="圖層_2" data-name="圖層 2"><g id="圖層_1-2" data-name="圖層 1"><g id="Group_6263" data-name="Group 6263"><g id="Group_5807" data-name="Group 5807"><path id="Path_5537" data-name="Path 5537" class="cls-1" d="M185.87,73.46c-1,5.66-5.08,9.89-9.9,9.89H52.11l2.21,17.07L52.73,110.7,30.11,83.35H10.17C4.56,83.35,0,77.62,0,70.58V15.67C0,9.62,3.37,4.56,7.88,3.25A7.87,7.87,0,0,1,14,0h165.8c4.77,0,8.63,4.85,8.63,10.83V65.74A12.25,12.25,0,0,1,185.87,73.46Z"/><path id="Path_5538" data-name="Path 5538" class="cls-2" d="M10.17,4.84H176c4.77,0,8.63,4.85,8.63,10.83V70.58c0,6-3.86,10.83-8.63,10.83H47.37l3.09,23.86L30.74,81.41H10.18c-4.77,0-8.63-4.85-8.63-10.83V15.67C1.55,9.69,5.41,4.84,10.17,4.84Z"/></g><g id="點我進入_星座探索" data-name="點我進入 星座探索" class="cls-3"><text class="cls-4" transform="translate(40.69 37.9)">點我進入</text><text class="cls-4" transform="translate(40.69 65.71)">星座探索</text></g></g><g id="Group_6273" data-name="Group 6273"><path id="Path_7478" data-name="Path 7478" class="cls-5" d="M143.05,185.44s17.68-3.19,22.84-11.37c6.53-10.35,5.33-12.24,5.33-15.45s-5.59-5.54-4.82-7.29,6.08,1.46,6.08,1.46,2-12.53,3.3-12.24.92,7.1.92,7.1,3.27-9.46,4.74-8.68-1.47,9.84-1.47,9.84,3.19-5.2,4.06-4.53c1.35,1-5.71,12-7.23,14.92-3.43,6.57-4.16,13.45-8.89,19.41-9.8,12.33-25.62,15.86-25.62,15.86Z"/><path id="Path_7479" data-name="Path 7479" class="cls-5" d="M116.87,210.69s-2.55,20.61-4.16,35.5-4,26.3-3.24,27.74,9.23,8,7.48,10.68-14.47-.95-15.78-4.14,1.78-22.18.94-29.45-6.73-34-6.73-34,.12-11.37,5.2-10.86S116.87,210.69,116.87,210.69Z"/><path id="Path_7480" data-name="Path 7480" class="cls-5" d="M48.36,209.52s2,20.92,3.8,35.78,4.32,26.23,3.56,27.69-9.14,8.16-7.36,10.79,14.46-1.17,15.73-4.37-2-22.16-1.27-29.44,6.34-34.1,6.34-34.1-.25-11.37-5.33-10.79S48.36,209.52,48.36,209.52Z"/><g id="Group_5869" data-name="Group 5869"><path id="Path_7481" data-name="Path 7481" class="cls-6" d="M40,141.21s-4.29-6.11-9.72-9.41-9.64-5.62-9.64-5.62l-1.74,3.43s3,.69,6.82,5.46,7,12.39,7,12.39l7.3-6.25Z"/><path id="Path_7482" data-name="Path 7482" class="cls-5" d="M14,130.65c1.5,3.9,5.47,5.66,8.87,3.94s4.93-6.28,3.43-10.19-5.47-5.66-8.86-3.94S12.54,126.74,14,130.65Z"/><path id="Path_7483" data-name="Path 7483" class="cls-7" d="M24.08,127.39c-1.07-2.79-3.92-4.06-6.35-2.82a5.08,5.08,0,0,0-2.21,2.26,5.65,5.65,0,0,1,2.87-5.26c2.43-1.23,5.28,0,6.35,2.83a6.25,6.25,0,0,1-.25,5A6.23,6.23,0,0,0,24.08,127.39Z"/></g><g id="Group_5870" data-name="Group 5870"><path id="Path_7484" data-name="Path 7484" class="cls-6" d="M117.2,141.24s3.63-6.65,8.69-10.66,9-6.89,9-6.89l2.07,3.17s-3,1.1-6.21,6.35-5.66,13.25-5.66,13.25l-7.89-5.22Z"/><path id="Path_7485" data-name="Path 7485" class="cls-5" d="M141.91,127.23c-1.09,4.08-4.85,6.37-8.4,5.12s-5.55-5.57-4.46-9.65,4.85-6.37,8.4-5.12S143,123.15,141.91,127.23Z"/><path id="Path_7486" data-name="Path 7486" class="cls-7" d="M131.6,125.36c.78-2.92,3.48-4.56,6-3.66a4.89,4.89,0,0,1,2.43,1.94,5.45,5.45,0,0,0-3.39-4.83c-2.54-.9-5.24.75-6,3.67a6.22,6.22,0,0,0,.77,5A6.4,6.4,0,0,1,131.6,125.36Z"/></g><path id="Path_7487" data-name="Path 7487" class="cls-2" d="M69.42,142.81c-6-4-14-8.1-21.28-8.11-7.72,0-22.81,4.07-29.3,9.41,3.86,3.26,13.82,4.56,18.3,6.91-7.95,2.14-23.85,11.27-29.08,29.6,4.74.87,10.08-2.79,15-2.86-9.28,5.86-17,26.82-19,38.43,7.6-6.87,14.6-10.17,25.53-8.62-7.07,3.84-10.36,10.81-11.17,24.29,6.11-2.25,11.3-8,17.77-9.13-10.9,11-9.32,20.52-8.25,33.1,5-5.9,14.77-10.13,20.12-13.67-.54,7.58.7,15,4.16,19,2.46-5.14,6.15-13.31,10.15-16.78.71,9.48,2.13,18,8.32,24,2.8-7.11,10.66-23.9,11.68-23.7,0,0,17.93,11.27,22.66,20.4.2-6.92.28-19.4-2-25.26,5.31-.29,8.78,3.06,13.37,5.83,4.13,2.5,8.29,7.58,11.16,11.85.4-8.58.27-19.69-4.23-26,8.78-.11,15.56,2.53,23.18,8.16-2.88-11.07-8.28-19.52-16.07-21,9.84-2,17.59-.39,27.57,7.38-.74-10.9-11.16-24.1-23.9-25.35,4.28-2.77,14.42-3.8,22.37.09a25.6,25.6,0,0,0-20.82-14.23c8.43-2.39,17.44-.93,25.73,2.57-3.05-24.1-27.4-24.68-36.36-22.4,5.61-3.66,13.55-4.85,20-4.66,4.4.13,6.06.63,11,2.57-10.7-16.87-28.08-21.18-48.24-15.37a124.49,124.49,0,0,1,11.44-6c-10.23-6.8-19.87-1.95-24.24,1.47-.18.22-.17.23,0,0,2.51-4.74,4.68-8.51,9.48-12.94C83.33,128.67,69.42,142.81,69.42,142.81Z"/><path id="Path_7488" data-name="Path 7488" class="cls-8" d="M65.15,141.87c-6.43-3.12-14.76-6-22-5-7.66,1.1-22.19,7.33-28,13.56,4.18,2.68,14.2,2.54,18.91,4.22-7.65,3.27-22.43,14.62-25.62,33.56,4.8.18,9.7-4.22,14.56-5C14.4,190.37,9,212.28,8.26,224.09c6.79-7.91,13.38-12.19,24.39-12.23-6.59,4.83-9.09,12.22-8.42,25.71C30,234.45,34.56,228,40.85,226c-9.61,12.52-7,21.7-4.57,34,4.35-6.58,13.55-12.18,18.47-16.46.3,7.59,2.34,14.8,6.2,18.21,1.87-5.46,4.64-14.1,8.23-18.12,1.74,9.3,4.08,17.56,10.89,22.67,2-7.46,8-25.25,9-25.2,0,0,19,8.6,24.72,17-.56-6.9-1.85-19.29-4.78-24.77,5.24-1.06,9,1.76,13.9,3.85,4.37,1.88,9,6.33,12.37,10.15-.54-8.57-1.88-19.58-7-25.22,8.69-1.37,15.72.26,23.88,4.76-4.06-10.58-10.34-18.18-18.23-18.51,9.55-3.4,17.41-2.92,28.16,3.35-1.92-10.71-13.71-22.3-26.48-21.71,3.95-3.36,13.9-5.84,22.21-3.13a24.6,24.6,0,0,0-22.22-11.12c8.1-3.58,17.2-3.43,25.81-1.16-5.65-23.46-29.88-20.53-38.52-17,5.17-4.44,12.92-6.77,19.31-7.51,4.38-.5,6.09-.25,11.17,1-12.45-15.19-30.18-17-49.53-8.3a129.22,129.22,0,0,1,10.69-7.6c-10.9-5.28-19.93.93-23.89,5-.15.24-.14.26,0,0,2-5.06,3.71-9.12,8-14.2C77.4,125.84,65.15,141.87,65.15,141.87Z"/><path id="Path_7489" data-name="Path 7489" class="cls-9" d="M79.46,142c-4.52-5-10.68-10.48-17-12.27-6.73-1.9-20.63-2-27.27,1,2.75,3.78,11.19,7.36,14.66,10.5-7.32-.08-22.87,4-30.83,18.68,4,1.92,9.31,0,13.6,1.18-9.17,2.83-19.79,19.2-23.72,28.81,7.9-4.12,14.61-5.28,23.85-1.26-6.88,1.62-11,6.89-14.23,18.43,5.73-.47,11.33-4.24,17.16-3.61-11.54,6.95-11.92,15.6-13.32,26.83,5.48-3.91,14.75-5.22,20.06-7-1.87,6.47-2.17,13.25.12,17.53,3.09-3.88,7.82-10.1,12-12.14-1.13,8.44-1.48,16.21,2.8,23C61,246.16,71,233.45,71.83,233.87c0,0,13.53,14.2,16,23.32,1.46-6,3.84-16.84,2.91-22.51,4.68,1,7.08,4.81,10.57,8.35,3.13,3.19,5.82,8.63,7.53,13.06,1.94-7.38,3.89-17.09,1.14-23.72,7.66,2,13.09,6,18.68,12.78-.45-10.36-3.59-19-10.11-22.22,8.94.67,15.4,4,22.65,13.18,1.38-9.68-5.26-23.73-16.12-27.94,4.25-1.36,13.27.22,19.48,5.55A25.16,25.16,0,0,0,129,196.23c7.79,0,15.37,3.46,21.94,8.53,1.82-21.74-19.3-28.2-27.53-28.4,5.57-1.82,12.71-.91,18.27.83,3.81,1.19,5.17,2,9.08,4.92-6.19-17.31-20.54-25.32-39.17-25.19a102.12,102.12,0,0,1,11.07-2.44c-7.66-8.43-17-6.56-21.4-4.65-.2.15-.19.17,0,0,3.06-3.51,5.65-6.27,10.66-9A37.08,37.08,0,0,0,79.46,142Z"/><g id="Group_5871" data-name="Group 5871"><ellipse id="Ellipse_208" data-name="Ellipse 208" class="cls-10" cx="55.7" cy="175.08" rx="8.29" ry="9.49"/><ellipse id="Ellipse_209" data-name="Ellipse 209" class="cls-11" cx="55.58" cy="175.12" rx="6.94" ry="7.97"/><ellipse id="Ellipse_210" data-name="Ellipse 210" class="cls-12" cx="55.58" cy="175.12" rx="4.06" ry="4.66"/><path id="Path_7490" data-name="Path 7490" class="cls-11" d="M56.09,174.08a1.65,1.65,0,1,1-1.63-1.88A1.78,1.78,0,0,1,56.09,174.08Z"/></g><g id="Group_5872" data-name="Group 5872"><ellipse id="Ellipse_211" data-name="Ellipse 211" class="cls-10" cx="103.73" cy="174.6" rx="8.29" ry="9.49"/><path id="Path_7491" data-name="Path 7491" class="cls-11" d="M110.56,174.63c0,4.4-3.1,8-6.94,8s-6.93-3.57-6.93-8,3.1-8,6.93-8S110.56,170.23,110.56,174.63Z"/><path id="Path_7492" data-name="Path 7492" class="cls-12" d="M107.68,174.63c0,2.58-1.81,4.67-4.06,4.67s-4.06-2.09-4.06-4.67,1.82-4.66,4.06-4.66S107.68,172.06,107.68,174.63Z"/><path id="Path_7493" data-name="Path 7493" class="cls-11" d="M104.13,173.6a1.65,1.65,0,1,1-1.64-1.88A1.77,1.77,0,0,1,104.13,173.6Z"/></g><path id="Path_7494" data-name="Path 7494" class="cls-10" d="M48.89,153.89a16.65,16.65,0,0,1,1.92,2.79,10.92,10.92,0,0,0-4.21,1.86c1.25.63,2.85-.33,4.14.15a11.8,11.8,0,0,0-3.14,2.57c2.13-.21,3.27-.4,5.5-.7a13.86,13.86,0,0,0,.86,1.83,19.59,19.59,0,0,1,2-1.74c.07-.06,0,2.57.93,3a8.15,8.15,0,0,1,2-2.24,6.84,6.84,0,0,0,1.31,3.24c.72-.81,1.11-1.32,1.87-2.08a5.76,5.76,0,0,0,1.5,2.48,6.34,6.34,0,0,1,1.07-2,3.1,3.1,0,0,0,2.67,2.47c-.64-.65-.46-2-.24-3.17a6.63,6.63,0,0,0,3.59.59,7.12,7.12,0,0,0-3.31-3,6,6,0,0,0,1.81-1.66c-1.72-.7-1.86-.55-3.73-.51.48-1,.21-1.55.84-2.27-1.36-.3-2.57.53-3.71,1.2.45-1,0-1.72.37-2.8-1.42-.43-3.25,2.35-3.25,2.35-.16,0-.77-2.91-1.94-3.52-.48,1.11-.74,2.3-1.2,3.37-.47-.61-1.8-4-2-4s-1.19,2.81-1.67,3.36C52.93,155.6,50.48,154,48.89,153.89Z"/><path id="Path_7495" data-name="Path 7495" class="cls-10" d="M89.6,158.5a20.33,20.33,0,0,1,3.18,1.72,9,9,0,0,0-2.71,3.35c1.43.06,2.33-1.44,3.72-1.53a9.9,9.9,0,0,0-1.39,3.55c1.77-1,2.67-1.67,4.46-2.84a18.3,18.3,0,0,0,1.74,1.3,16.69,16.69,0,0,1,.84-2.37c0-.08,1.35,2.31,2.43,2.33a7.32,7.32,0,0,1,.59-2.8,8.21,8.21,0,0,0,2.88,2.35c.2-1,.27-1.62.54-2.6a7.07,7.07,0,0,0,2.64,1.62,5.77,5.77,0,0,1-.1-2.19,3.55,3.55,0,0,0,3.66,1.13c-.91-.32-1.47-1.6-1.9-2.73a6.43,6.43,0,0,0,3.47-.92,8.29,8.29,0,0,0-4.5-1.32,5,5,0,0,0,.7-2.21c-1.89.07-1.94.26-3.56,1-.12-1.1-.64-1.46-.48-2.36-1.35.28-2,1.51-2.61,2.57-.14-1.07-.9-1.55-1.17-2.65-1.48.19-1.61,3.41-1.61,3.41-.16,0-2.23-2.29-3.59-2.36.17,1.18.58,2.35.75,3.49-.75-.36-3.71-2.83-3.85-2.75s.46,3,.33,3.67C94.07,158.4,91,157.92,89.6,158.5Z"/><g id="Group_5873" data-name="Group 5873"><path id="Path_7496" data-name="Path 7496" class="cls-10" d="M81.05,204.92c-10,0-16-4.54-16.29-4.74a1.28,1.28,0,0,1-.29-1.62.94.94,0,0,1,1.26-.41.6.6,0,0,1,.15.09h0a27.15,27.15,0,0,0,16,4.34c12.93-.32,17.21-5.29,17.25-5.34a.92.92,0,0,1,1.3-.16.49.49,0,0,1,.13.12,1.27,1.27,0,0,1,0,1.63c-.19.24-4.78,5.73-18.69,6.08Z"/></g><path id="Path_7497" data-name="Path 7497" class="cls-5" d="M34.91,203s-12.25,8.51-14.8,17.89c-3.24,11.85-1.42,12.8-.37,15.44s7.45,1.74,7.25,3.57-6.64,1.89-6.64,1.89,2,11.37.64,11.77-3.24-5.39-3.24-5.39-.23,9.46-2,9.56-1.71-8.87-1.71-8.87-1.54,5.91-2.64,5.8c-1.71-.16,1.88-12.8,2.47-16,1.33-7.16-.17-13.2,2.69-20.53,5.91-15.15,13.56-19,13.56-19Z"/></g></g></g></svg>