<svg xmlns="http://www.w3.org/2000/svg" viewBox="0 0 188.46 285.53"><defs><style>.cls-1{fill:#f9e9bd;}.cls-2{fill:#27aab0;}.cls-3,.cls-4{isolation:isolate;}.cls-4{font-size:23.18px;font-family:STXihei, STHeiti;letter-spacing:0.2em;}.cls-4,.cls-9{fill:#fff;}.cls-5{fill:#f4ac75;}.cls-6{fill:#c1885d;}.cls-7{fill:#f8c27d;}.cls-8{fill:#716754;}.cls-10{fill:#221e1f;}.cls-11{fill:#92d2de;}</style></defs><g id="圖層_2" data-name="圖層 2"><g id="圖層_1-2" data-name="圖層 1"><g id="Group_6263" data-name="Group 6263"><g id="Group_5807" data-name="Group 5807"><path id="Path_5537" data-name="Path 5537" class="cls-1" d="M185.87,73.46c-1,5.66-5.08,9.89-9.9,9.89H52.11l2.21,17.07L52.73,110.7,30.11,83.35H10.17C4.56,83.35,0,77.62,0,70.58V15.67C0,9.62,3.37,4.56,7.88,3.25A7.87,7.87,0,0,1,14,0h165.8c4.77,0,8.63,4.85,8.63,10.83V65.74A12.25,12.25,0,0,1,185.87,73.46Z"/><path id="Path_5538" data-name="Path 5538" class="cls-2" d="M10.17,4.84H176c4.77,0,8.63,4.85,8.63,10.83V70.58c0,6-3.86,10.83-8.63,10.83H47.37l3.09,23.86L30.74,81.41H10.18c-4.77,0-8.63-4.85-8.63-10.83V15.67C1.55,9.69,5.41,4.84,10.17,4.84Z"/></g><g id="點我進入_星座探索" data-name="點我進入 星座探索" class="cls-3"><text class="cls-4" transform="translate(40.69 37.9)">點我進入</text><text class="cls-4" transform="translate(40.69 65.71)">星座探索</text></g></g><g id="Group_6267" data-name="Group 6267"><g id="Group_5877" data-name="Group 5877"><g id="Group_5875" data-name="Group 5875"><path id="Path_7498" data-name="Path 7498" class="cls-5" d="M62.47,147.24s-7-4.57-5.26-10.87,6.17-7.32,4.78-11.82-7.06-6-10.49-4.45a12.17,12.17,0,0,1,10.59-1.88c6.08,1.81,6.42,7.45,5.63,10.91s-2.73,7,2,11.48C68.19,145.28,62.47,147.24,62.47,147.24Z"/></g><g id="Group_5876" data-name="Group 5876"><path id="Path_7499" data-name="Path 7499" class="cls-6" d="M63.79,151.21s-4.35-3.33-3.61-5.58c.64-1.6,2.49.1,2.49.1s-1.08-2.27-.09-3.27,2.35.15,2.35.15-1-2.36.24-3.1,3.21.91,3.21.91S66.65,138,68,137.27s5,5.67,5,5.67Z"/></g></g><g id="Group_5880" data-name="Group 5880"><g id="Group_5878" data-name="Group 5878"><path id="Path_7500" data-name="Path 7500" class="cls-5" d="M120.18,145.36s6.52-5.27,4.23-11.36-6.8-6.66-5.83-11.28,6.48-6.67,10-5.51a12.1,12.1,0,0,0-10.71-.77c-5.89,2.42-5.71,8.08-4.6,11.43s3.35,6.72-.92,11.63C114.31,144,120.18,145.36,120.18,145.36Z"/></g><g id="Group_5879" data-name="Group 5879"><path id="Path_7501" data-name="Path 7501" class="cls-6" d="M119.22,149.44s4-3.76,3.09-5.93c-.79-1.53-2.47.35-2.47.35s.87-2.36-.21-3.25-2.33.38-2.33.38.78-2.45-.52-3.06-3.11,1.24-3.11,1.24,1.5-2.61.06-3.16-4.44,6.15-4.44,6.15Z"/></g></g><path id="Path_7502" data-name="Path 7502" class="cls-5" d="M51.37,193.74c-.39,0-17.66-1-20.36-9.1s-2-21.21-2-21.21,4.92-2.41,4.26-3.17-3.7-.83-3.7-.83,1.05-6.55-.43-5.42-2,4.32-2,4.32-2.61-2-3.71-1.24,2,5.14,2,5.14-.82,16.77,1.13,22.82c5.9,18.33,24.94,14.69,24.94,14.69Z"/><path id="Path_7503" data-name="Path 7503" class="cls-5" d="M126.91,176.59c.35.15,16.88,5.59,22.07-1s8.86-19.14,8.86-19.14-3.82-4.08-2.94-4.55,3.74.6,3.74.6,1.18-6.52,2.19-4.91.5,4.8.5,4.8,3.08-.87,3.88.21-3.61,4.06-3.61,4.06-4.76,16-8.58,21c-11.57,15-28.22,4.5-28.22,4.5Z"/><path id="Path_7504" data-name="Path 7504" class="cls-5" d="M108,236.65s21.75,5.88,30.94,13.67S147,273.08,147,273.08s5.22-4.85,6-2.92-1.48,4-1.48,4,4.71,0,4.16,2.74-4.82,3.46-4.82,3.46,3,.78,2.14,3.3c-.58,1.65-7.73-.63-9.25-2.84s-3-20.51-8.51-24.82C130,251.9,112,245.65,112,245.65Z"/><path id="Path_7505" data-name="Path 7505" class="cls-5" d="M82.17,222.19S68.65,238.27,60.2,247s-13.6,27-13.6,27-5.63-4.3-6.2-2.31,1.83,3.8,1.83,3.8-4.69.49-3.9,3.15,5.12,3,5.12,3-2.94,1.07-1.84,3.5c.72,1.58,7.64-1.41,9-3.76s8-24.82,12.94-29.23c4.66-4.18,16.27-21.38,16.27-21.38Z"/><path id="Path_7506" data-name="Path 7506" class="cls-2" d="M95.25,138.83C69,138,59.45,149.19,56.17,154.32c-4.7,7.31-11.48,18.27-11,27.4,1.5-.63,2.77-1.89,4.29-2.22-3.19,7.51-4.76,16-8.28,23.46,2.4-.24,4.36-2.54,6.75-3-.39,5.18-4,10.26-3.57,15.75,2.12-.32,2.92-2.82,5-3-1.07,5.57-3.37,11.47-3.21,17.31,2-1.73,2.75-5.39,5.37-6.49.4,6.92.45,14.6.43,21.57,1.64-2.14,3.84-6.55,5.72-8.71,0,4.63,1.15,15.4,4,18.42,1.14-2.72,2.86-6.34,5.13-8,.13,2.06,1.76,8.47,2.89,8.87.52.18,3.13-4,3.44-4.73,0,0,6.39,6.49,10.14,9.07,1.14-1.95,4.86-8.3,5.83-7.8.34.17,4.62,8.22,7.93,9.67.86-2.86,3.37-6.91,4.75-6.43,0,0,3.66,8.25,3.77,11.11,2.17-2.69,4.32-8,7-10.74,1.94,1.4,3.18,6.14,4.56,8.45,1.12-3.17,4.4-9.92,4.4-9.92,1.07-.1,5,3.52,6,6.36A29.32,29.32,0,0,0,129.16,247c3.89,1,6.47,2.38,10.17,3-1.33-2.64-1.68-5.71-2.83-8.39,2.23,1,4.15,3.44,6.84,3-1.26-4-5-8.42-5.35-12.66,2.69.61,5.34,2.68,7.9,3.8-.07-5.87-4.23-11.63-7.06-16.36a67.71,67.71,0,0,0,7.17-1.66c-1.45-3.1-6.42-9.17-9.7-11,2.07-.64,5.23,1.05,7.77,2.34,0-3.13-4.81-11.64-7.13-13.81,2.75.25,3.15.91,5.41,1.76-.83-3.5-2.68-5.82-5-8.6,3.38.62,2.19-.38,4.5.79C142.16,185.42,133.54,140.09,95.25,138.83Z"/><path id="Path_7507" data-name="Path 7507" class="cls-7" d="M92.16,153.73c-11.26.57-25.41,3.51-26.91,16.21s6.33,21.76,26.43,21.32,30.83-6.53,30.7-16.8C122.21,160.91,113,152.68,92.16,153.73Z"/><path id="Path_7508" data-name="Path 7508" class="cls-5" d="M65.48,175.07c1.5-12.71,15.65-15.65,26.92-16.22,18.41-.93,27.78,5.42,29.79,16.3,0-.37,0-.75,0-1.13-.17-13.56-9.43-21.78-30.22-20.73-11.26.56-25.41,3.5-26.91,16.21a21.74,21.74,0,0,0,.25,7.15C65.38,176.13,65.42,175.6,65.48,175.07Z"/><path id="Path_7509" data-name="Path 7509" class="cls-8" d="M77.54,162.9a4.5,4.5,0,0,0-1.3.37L75.56,162a.62.62,0,0,0-.84-.29h0a.71.71,0,0,0-.26.93l.72,1.4-.24.26-1.07-.9a.63.63,0,0,0-.88.08l0,0a.71.71,0,0,0,.11,1l1.16,1a3.24,3.24,0,0,0-.21.69.69.69,0,0,0,.52.8.65.65,0,0,0,.75-.54h0a2.75,2.75,0,0,1,2.44-2.1A2.08,2.08,0,0,1,80,165.31a.63.63,0,0,0,.82.34l0,0h0a.71.71,0,0,0,.27-.9A3.36,3.36,0,0,0,77.54,162.9Z"/><path id="Path_7510" data-name="Path 7510" class="cls-8" d="M108.68,161.93a4.5,4.5,0,0,1,1.3.37l.68-1.31a.63.63,0,0,1,.84-.3l0,0h0a.71.71,0,0,1,.26.93l-.73,1.4a2.84,2.84,0,0,1,.24.26l1.08-.9a.62.62,0,0,1,.87.08l0,0a.71.71,0,0,1-.11,1l-1.16,1a3.22,3.22,0,0,1,.2.69.69.69,0,0,1-.52.8.65.65,0,0,1-.75-.54h0a2.73,2.73,0,0,0-2.44-2.1,2.07,2.07,0,0,0-2.25,1.05.64.64,0,0,1-.83.34l0,0h0a.71.71,0,0,1-.28-.9A3.37,3.37,0,0,1,108.68,161.93Z"/><g id="Group_5882" data-name="Group 5882"><g id="Group_5881" data-name="Group 5881"><path id="Path_7511" data-name="Path 7511" class="cls-9" d="M109,163.07c-4.34-1.15-7.59,1-6.53,4.37.63,2,7.43,4.84,9.57,3.1C114.59,168.43,112.47,164,109,163.07Z"/><path id="Path_7512" data-name="Path 7512" class="cls-10" d="M110.27,166.3a2.39,2.39,0,0,1-3,1.49l-.13,0a2.62,2.62,0,0,1-1.47-3.29,2.39,2.39,0,0,1,3-1.49l.13,0A2.63,2.63,0,0,1,110.27,166.3Z"/></g><path id="Path_7513" data-name="Path 7513" class="cls-9" d="M108.49,164.65a1,1,0,0,1-1.27.61h0a1.09,1.09,0,0,1-.61-1.38,1,1,0,0,1,1.27-.61h0A1.09,1.09,0,0,1,108.49,164.65Z"/></g><g id="Group_5884" data-name="Group 5884"><g id="Group_5883" data-name="Group 5883"><path id="Path_7514" data-name="Path 7514" class="cls-9" d="M77.67,163.82c4.35-1.16,7.59,1,6.54,4.36-.63,2-7.43,4.84-9.57,3.1C72,169.17,74.16,164.75,77.67,163.82Z"/><path id="Path_7515" data-name="Path 7515" class="cls-10" d="M76.36,167a2.39,2.39,0,0,0,3,1.49l.13-.05A2.63,2.63,0,0,0,81,165.19a2.4,2.4,0,0,0-3-1.49l-.13.05A2.62,2.62,0,0,0,76.36,167Z"/></g><path id="Path_7516" data-name="Path 7516" class="cls-9" d="M78.13,165.39a1,1,0,0,0,1.28.61h0a1.09,1.09,0,0,0,.61-1.38,1,1,0,0,0-1.27-.61h0A1.11,1.11,0,0,0,78.13,165.39Z"/></g><path id="Path_7517" data-name="Path 7517" class="cls-8" d="M97.34,185.53a1.61,1.61,0,0,1-2,1.1c-1-.15-1.72-.89-1.62-1.65a1.62,1.62,0,0,1,2-1.1C96.72,184,97.44,184.77,97.34,185.53Z"/><path id="Path_7518" data-name="Path 7518" class="cls-11" d="M59,198.91l-.42,10.7,8.09-7.79-3.15-1.34-2.5,3.67.55-4.74Z"/><path id="Path_7519" data-name="Path 7519" class="cls-11" d="M72.88,207.93l3.63,16.58,6.74-11.81-3.5-1.25-2.61,6.3-1.56-9.56Z"/><path id="Path_7520" data-name="Path 7520" class="cls-11" d="M107.18,205.79l6.2,9.3,1.7-13.23-3,1.61,0,6.38L108.68,205Z"/><path id="Path_7521" data-name="Path 7521" class="cls-11" d="M125.88,212.3c.31.51,5.17,8.17,5.17,8.17l.78-11.59L129.1,210l.24,4.13-1.87-3.09Z"/><path id="Path_7522" data-name="Path 7522" class="cls-11" d="M125,187.77l6.85,6.52-1.48-11.57-2,1.74,1.36,5.63-3.16-3.74Z"/><path id="Path_7523" data-name="Path 7523" class="cls-11" d="M92.63,229.72l2.58,9.88,4.5-11-2.74.34L95.18,234,94,229.15Z"/><path id="Path_7524" data-name="Path 7524" class="cls-11" d="M63.32,231.49c.14.56.4,7.87.4,7.87l6.47-6.74-2.53-1.11-2.28,3L65,231.43Z"/><path id="Path_7525" data-name="Path 7525" class="cls-11" d="M53.33,215l.62,8.82,3.2-6.26L56,216.71l-1,2.07-.51-4.46Z"/><path id="Path_7526" data-name="Path 7526" class="cls-11" d="M116.63,234.77l3.61,6.4,0-10.36-1.76,1.28.33,3.7-1.47-2.2Z"/><path id="Path_7527" data-name="Path 7527" class="cls-11" d="M103.56,247.71l2.26,9.36L110,248l-2.08-.83-1.74,4.46-.87-4.35Z"/><path id="Path_7528" data-name="Path 7528" class="cls-11" d="M54.39,182.8,51,190.52l8-3.38-1.91-.88-2.74,1.14,1.27-3.34Z"/><path id="Path_7529" data-name="Path 7529" class="cls-5" d="M76.24,176.91a3.72,3.72,0,0,1-2.5,4.47,3.47,3.47,0,0,1-4.19-2.52l0-.13a3.7,3.7,0,0,1,2.5-4.47,3.46,3.46,0,0,1,4.19,2.52Z"/><path id="Path_7530" data-name="Path 7530" class="cls-5" d="M120,176a3.71,3.71,0,0,1-2.49,4.48A3.46,3.46,0,0,1,113.3,178l0-.13a3.71,3.71,0,0,1,2.5-4.48,3.47,3.47,0,0,1,4.18,2.53Z"/></g></g></g></svg>