<svg xmlns="http://www.w3.org/2000/svg" width="159.756" height="83.869" viewBox="0 0 159.756 83.869">
  <g id="Group_5945" data-name="Group 5945" transform="translate(-397.867 -802.144)">
    <g id="Group_5922" data-name="Group 5922" transform="translate(267.859 149.001)">
      <g id="Group_22" data-name="Group 22">
        <path id="Path_161" data-name="Path 161" d="M202.7,654.049c-36.45,2.27-55.51,50.039-26.879,72.619,6.844,5.4,19.716,10.565,28.622,10.337,16.075-.412,32.822-7.125,40.775-21.629,6.967-12.7,7.315-30.481-2.162-42.311C233.178,660.732,218.76,653.048,202.7,654.049Z" fill="#ee8b78"/>
        <path id="Path_162" data-name="Path 162" d="M241.5,716.025c-3.907,3.413-12.267,7.9-19.176,10.414a28.238,28.238,0,0,1-18.265.663c-10.075-3.082-19.98-10.018-25.424-19.168a27.682,27.682,0,0,1-.054-28.3c4.557-7.675,9.292-13.809,16.572-18.665,3.067-2.047,8.488-5.03,11.383-5.874.383-.112.62-.658.947-1.062a44.444,44.444,0,0,0-4.785.02c-36.45,2.27-55.51,50.039-26.879,72.619,6.844,5.4,19.716,10.565,28.622,10.337,16.075-.412,32.822-7.125,40.775-21.629.11-.2.212-.4.318-.6C244.172,714.973,242.6,715.07,241.5,716.025Z" fill="#ee8b78" opacity="0.3" style="mix-blend-mode: multiply;isolation: isolate"/>
        <path id="Path_163" data-name="Path 163" d="M199.587,681.544a22.522,22.522,0,0,0-6.693,3.063c-1.652,1.128,1.212,1.183,1.875,1.09a31.128,31.128,0,0,0,8.033-2.469c.682-.308,4.177-2.363,1.773-2.374A18.922,18.922,0,0,0,199.587,681.544Z" fill="#ffb3a9"/>
        <path id="Path_164" data-name="Path 164" d="M205.947,730.494a22.47,22.47,0,0,0-6.914,2.524c-1.737.994,1.114,1.275,1.783,1.234a31.12,31.12,0,0,0,8.2-1.826c.7-.253,4.35-2.026,1.954-2.227A18.868,18.868,0,0,0,205.947,730.494Z" fill="#ffb3a9"/>
        <path id="Path_165" data-name="Path 165" d="M177.238,692.245c.118-1.533,14.147-6.131,14.618-4.244C192.4,690.2,177.108,693.928,177.238,692.245Z" fill="#d2617c"/>
        <path id="Path_166" data-name="Path 166" d="M207.575,688.787c-.628-1.415-9.8.949-8.488,3.3C199.874,693.5,208.351,690.534,207.575,688.787Z" fill="#d2617c"/>
        <path id="Path_167" data-name="Path 167" d="M198.353,727.989c-.515-1.459-9.841.173-8.723,2.62C190.3,732.082,198.988,729.793,198.353,727.989Z" fill="#d2617c"/>
        <path id="Path_168" data-name="Path 168" d="M200.826,664.953c-.514-1.089-8.02.731-6.949,2.541C194.521,668.583,201.461,666.3,200.826,664.953Z" fill="#d2617c"/>
        <path id="Path_169" data-name="Path 169" d="M202.546,701.519c-2.044-1.572-20.591,2.986-20.749,5.815C181.7,709.089,204.8,703.254,202.546,701.519Z" fill="#ffb3a9"/>
        <path id="Path_170" data-name="Path 170" d="M163.516,708.815a37.043,37.043,0,0,1-1.33-6.621c10.374-3.282,30.066-9.138,33.678-7.592C197.468,695.291,193.96,699.091,163.516,708.815Z" fill="#d2617c"/>
        <path id="Path_171" data-name="Path 171" d="M161.969,698.252a38.554,38.554,0,0,1,.226-4.423c4.4-1.283,11.11-2.867,12.845-1.273C177.427,694.754,167.137,697.253,161.969,698.252Z" fill="#ffb3a9"/>
        <path id="Path_172" data-name="Path 172" d="M162.94,689.17a42.747,42.747,0,0,1,1.33-4.782c12.788-4.894,42.846-16,43.459-12.42C207.785,672.269,212.293,673.307,162.94,689.17Z" fill="#d2617c"/>
        <path id="Path_173" data-name="Path 173" d="M169.1,674.316a28.216,28.216,0,0,1,3.267-4.234c1.107-.371,13.2-5.974,15.246-4.084C189.159,667.428,174.871,672.4,169.1,674.316Z" fill="#ffb3a9"/>
        <path id="Path_174" data-name="Path 174" d="M229.424,665.68a31.153,31.153,0,0,0-10.073-6.162c-1.752-.687-13.673-5.109-11.663.556.73,2.055,3.634,2.843,5.389,3.72a81.353,81.353,0,0,1,16.347,10.689c1.394,1.114,4.967,6.625,7.18,3.823,2.051-2.6-2.4-7.308-3.871-9.1A25.561,25.561,0,0,0,229.424,665.68Z" fill="#fff" opacity="0.3"/>
        <path id="Path_175" data-name="Path 175" d="M244.513,675.426c-9.745-19.491-42.125-29.237-63.5-14.54-32.42,22.29-21.22,73.8,20.12,75.528,20.49.857,39.611-7.545,47.155-26.407" fill="none" stroke="#dd6050" stroke-miterlimit="10" stroke-width="1"/>
        <path id="Path_176" data-name="Path 176" d="M286.639,678.57c-8.356-3.254-25.124-1.783-39.762.622a32.587,32.587,0,0,1,1.49,3.687c8.989-1.65,15.222-1.716,13.751.878-1.764,3.112-6.008,6.168-11.864,9.1-20.758,10.393-61.755,19.164-84.031,22.484a96.222,96.222,0,0,1-13.977,1.424c-8.517-.34,4.064-6.574,10.808-9.639a37.812,37.812,0,0,1-.812-4.48c-9.185,3.367-37.978,14.8-31.216,23.55,0,0,8.488,7.214,45.92,1.311a366.505,366.505,0,0,0,36.6-7.913,298.458,298.458,0,0,0,34.9-11.949C275.142,696.734,298.381,683.134,286.639,678.57Z" fill="#d2617c"/>
        <path id="Path_177" data-name="Path 177" d="M286.639,678.57c-8.356-3.254-25.124-1.783-39.762.622.049.1.417,1.2.465,1.3,2.28-.157,7.585-.982,10.65-1.336,2.74-.316,12.71-.944,15.287.2,3.064,1.356,2.452,2.237-.079,4.99-2.859,3.109-9.972,6.865-13.558,8.96-5.9,3.448-16.59,7.037-23.028,9.34-12.815,4.584-26.165,7.316-39.476,10.017-13,2.639-24.443,5.247-37.662,6.618-3.841.4-11.846,1.677-15.089-.943-1.695-1.37-.5-3.792.943-5.266,4.383-4.477,16.974-9.206,17.084-9.186-.107-.623-.1-.611-.172-1.239-9.185,3.367-37.978,14.8-31.216,23.55,0,0,8.488,7.214,45.92,1.311a366.505,366.505,0,0,0,36.6-7.913,298.458,298.458,0,0,0,34.9-11.949C275.142,696.734,298.381,683.134,286.639,678.57Z" fill="#d2617c" opacity="0.4" style="mix-blend-mode: multiply;isolation: isolate"/>
      </g>
      <path id="Path_178" data-name="Path 178" d="M242.76,684.044c.572,2.286-1.314,3.651-2.206,4.1-1.89.945-3.781,1.411-3.781-.946s.63-4.726,2.836-5.042C241.941,681.82,242.445,682.784,242.76,684.044Z" fill="#fff" opacity="0.3"/>
    </g>
  </g>
</svg>
