<svg xmlns="http://www.w3.org/2000/svg" viewBox="0 0 188.46 285.53"><defs><style>.cls-1{fill:#f9e9bd;}.cls-2{fill:#ff9c1a;}.cls-3,.cls-4{isolation:isolate;}.cls-4{font-size:23.18px;font-family:STXihei, STHeiti;letter-spacing:0.2em;}.cls-4,.cls-7{fill:#fff;}.cls-5{fill:#f39f26;}.cls-6{fill:#954f39;}.cls-8{fill:#ec7223;}</style></defs><g id="圖層_2" data-name="圖層 2"><g id="圖層_1-2" data-name="圖層 1"><g id="Group_6263" data-name="Group 6263"><g id="Group_5807" data-name="Group 5807"><path id="Path_5537" data-name="Path 5537" class="cls-1" d="M185.87,73.46c-1,5.66-5.08,9.89-9.9,9.89H52.11l2.21,17.07L52.73,110.7,30.11,83.35H10.17C4.56,83.35,0,77.62,0,70.58V15.67C0,9.62,3.37,4.56,7.88,3.25A7.87,7.87,0,0,1,14,0h165.8c4.77,0,8.63,4.85,8.63,10.83V65.74A12.25,12.25,0,0,1,185.87,73.46Z"/><path id="Path_5538" data-name="Path 5538" class="cls-2" d="M10.17,4.84H176c4.77,0,8.63,4.85,8.63,10.83V70.58c0,6-3.86,10.83-8.63,10.83H47.37l3.09,23.86L30.74,81.41H10.18c-4.77,0-8.63-4.85-8.63-10.83V15.67C1.55,9.69,5.41,4.84,10.17,4.84Z"/></g><g id="點我進入_星座探索" data-name="點我進入 星座探索" class="cls-3"><text class="cls-4" transform="translate(40.69 37.9)">點我進入</text><text class="cls-4" transform="translate(40.69 65.71)">星座探索</text></g></g><g id="Group_6271" data-name="Group 6271"><path id="Path_7648" data-name="Path 7648" class="cls-5" d="M116.64,136c-17.28-2.33-39.26-3.91-53.09,36.05-12.37,35.73-12.83,91.7-12.83,91.7L137.84,265s-4.8-21.44-1-49.8,9.22-46.45,7.17-56S134.41,138.39,116.64,136Z"/><path id="Path_7649" data-name="Path 7649" class="cls-5" d="M52.94,244s-2.4,18.27-3.08,25.1-1,8.54,2.73,9.57,6.83,2.05,7.69,1a1.45,1.45,0,0,0-.17-2s2.59,1.37,3.9.1c1.18-1.12-.35-2.6-.35-2.6s2.1,1.3,3,.29.1-1.7-.46-2.18c-1.25-1-4.69-2.17-4-4.22S70,258.55,70,258.55Z"/><path id="Path_7650" data-name="Path 7650" class="cls-5" d="M115.1,244.94s5.41,12.59,8.89,21.67c2.45,6.41,3.58,10.7,7.44,11.24s7,1.16,7.75,0a1.42,1.42,0,0,0-.42-1.93s2.74,1,3.89-.4S142,273,142,273s2.26,1,3-.1-.11-1.7-.73-2.1c-1.38-.87-3.83-1.62-4.51-3.67-2.42-7.27-4.79-20.5-4.79-20.5Z"/><path id="Path_7651" data-name="Path 7651" class="cls-5" d="M72.25,163.09c-3.1.25-29.74,21.32-45.59,45.84C15.79,225.77,8.3,261.41,9.05,270.07c.52,5.95,3.63,9.06,5.7,9.06s3.89-6,3.89-6,1.82,6.06,5.95,5.44c5.18-.77,3.89-6,3.89-6s3.37,5.18,7,3.63,2.08-6.48.26-13.21-2.86-20.47,5.18-42c14.25-38.08,31.87-47.4,31.87-47.4Z"/><path id="Path_7652" data-name="Path 7652" class="cls-5" d="M129.72,156.73c3,.66,26.33,24.83,38.62,51,8.44,17.93,13.3,49.15,9.19,62.24-1.77,5.64-4.75,8.4-6.78,8.13s-3-6.35-3-6.35-2.58,5.7-6.56,4.54c-5-1.44-3-6.35-3-6.35s-4,4.63-7.33,2.63-1.74-6.4,2.14-12.1c4.35-6.4,6.58-20.65,1.53-42.78-8.93-39.2-26.68-50.58-26.68-50.58Z"/><path id="Path_7653" data-name="Path 7653" class="cls-5" d="M91,139.26a21.39,21.39,0,0,0,.51-8.2c-.73-7.44-4.6-9.72-4.6-9.72a7.53,7.53,0,0,1,6-5.7c6.6-1,7.39,4.9,7.39,4.9a12.48,12.48,0,0,0-2.68,6.17,48.5,48.5,0,0,0,0,10.5Z"/><g id="Group_5954" data-name="Group 5954"><path id="Path_7654" data-name="Path 7654" class="cls-6" d="M90,121.54h-.1a.77.77,0,0,1-.71-.83c.08-1,1-3,4-3.25,4.75-.39,5.27,2.58,5.29,2.7a.66.66,0,0,1-.61.66.88.88,0,0,1-.91-.42c0-.05-.38-1.68-3.64-1.41-2.3.19-2.53,1.68-2.55,1.85A.76.76,0,0,1,90,121.54Z"/></g><path id="Path_7655" data-name="Path 7655" class="cls-5" d="M127.05,144.56a21.66,21.66,0,0,0,5.8-5.81c4.36-6.07,3-10.34,3-10.34a7.51,7.51,0,0,1,8.29-.29c5.64,3.59,2.33,8.56,2.33,8.56a12.5,12.5,0,0,0-6.09,2.86,48.14,48.14,0,0,0-6.94,7.88Z"/><g id="Group_5955" data-name="Group 5955"><path id="Path_7656" data-name="Path 7656" class="cls-6" d="M138.06,130.65a.23.23,0,0,1-.07-.07.76.76,0,0,1,0-1.09c.73-.71,2.74-1.59,5.11.17,3.82,2.84,2.25,5.42,2.18,5.53a.65.65,0,0,1-.89.09.88.88,0,0,1-.41-.91c0-.05.82-1.52-1.8-3.48-1.85-1.37-3-.4-3.13-.29A.76.76,0,0,1,138.06,130.65Z"/></g><g id="Group_5956" data-name="Group 5956"><path id="Path_7657" data-name="Path 7657" class="cls-7" d="M136.05,152.17c-2.55-4.37-11.79,2.81-24.45.39-8.3-1.59-16.47-12-20.87-8.6s0,17.44,13.52,21.42C126.31,171.89,140.35,159.53,136.05,152.17Z"/><path id="Path_7658" data-name="Path 7658" class="cls-6" d="M136.05,152.2c-.82-1.41-2.35-1.62-4.45-1.33.32,1.14.76,3.71-1.89,4s-2.56-2-2.4-3.15c-1.7.38-3.59.78-5.66,1,.18,1.13.21,3.39-2.42,3.8s-2.54-2.13-2.33-3.48a29.46,29.46,0,0,1-5.3-.51c-.33-.07-.67-.15-1-.24-.43.76-2.28,3.66-4.57,2-2-1.44-.9-3.27-.25-4.07-1.76-1-3.47-2.13-5.09-3.21-.56.53-3.32,2.91-5.25.85-1.52-1.61-.36-3,.48-3.72-2-1-3.8-1.28-5.19-.21-2.26,1.74-2.19,6.33.28,10.91.34-.66,1.14-1.48,2.8-.53,2,1.14.81,3.76.24,4.77a22.34,22.34,0,0,0,5,4c.25-1,1.1-3.16,3.67-1.82a2.8,2.8,0,0,1,1.51,3.65,2.31,2.31,0,0,1-.18.35l.19.06a44.74,44.74,0,0,0,7.68,1.58c0-1,.52-2.74,3.44-2.54,2.77.19,3.17,1.78,3.16,2.72a30.12,30.12,0,0,0,7.4-1.38,3.08,3.08,0,0,1,1.34-4c2.47-1.72,3.57.52,3.91,1.47C136.08,160.13,138.05,155.63,136.05,152.2Z"/></g><g id="Group_5957" data-name="Group 5957"><path id="Path_7659" data-name="Path 7659" class="cls-6" d="M88,148.72a.33.33,0,0,1-.34-.31c0-.2-.32-4.95,2.68-6.32s6.52,1.13,6.67,1.24a.34.34,0,1,1-.42.54h0s-3.23-2.4-6-1.16c-2.57,1.17-2.28,5.6-2.28,5.65a.33.33,0,0,1-.31.36h0Z"/></g><g id="Group_5958" data-name="Group 5958"><path id="Path_7660" data-name="Path 7660" class="cls-6" d="M137.31,158.88a.32.32,0,0,1-.19,0,.35.35,0,0,1-.1-.47s2.07-3.27.18-6a5.48,5.48,0,0,0-2.63-1.83.34.34,0,0,1,.19-.65h0a6.07,6.07,0,0,1,3,2.1c2.15,3.14-.07,6.63-.16,6.78A.35.35,0,0,1,137.31,158.88Z"/></g><path id="Path_7661" data-name="Path 7661" class="cls-8" d="M57.39,195.29s7.7-2.75,9.49,1.1,4.1,12,.51,15.37-12.81,2.05-12.81,2.05.5-5.08,1.29-9.48S57.39,195.29,57.39,195.29Z"/><path id="Path_7662" data-name="Path 7662" class="cls-8" d="M76.36,215.86c-5.12,1.53-7.94,1.28-5.89,5.89s6.4,8.45,8.45,7.68,7.43-6.66,6.66-9.47S78.92,215.09,76.36,215.86Z"/><path id="Path_7663" data-name="Path 7663" class="cls-8" d="M59.2,226.36c4.34-1.09,6.91-2.31,10.24,1s6.92,7.17,2.82,11.78-10,6.66-13.06,4.87S53.56,233.28,54.84,231,58.17,226.62,59.2,226.36Z"/><path id="Path_7664" data-name="Path 7664" class="cls-8" d="M135.4,241.21c-1,0-8.06,0-9.86,2.83s-4.1,7.17-1.79,9,8.44,4.79,10.5,4.87c1.32.05,3,0,3,0a50.81,50.81,0,0,1-1.16-7.26C135.69,246.54,135.4,241.21,135.4,241.21Z"/><path id="Path_7665" data-name="Path 7665" class="cls-8" d="M121.45,214.57c-4.52.46-6.67,2.57-5.13,5.9s3.59,5.89,5.89,5.63,6.67-.76,7.18-4.35S124,214.32,121.45,214.57Z"/><path id="Path_7666" data-name="Path 7666" class="cls-8" d="M124.78,229.94c-5.18-1-6.66,1.79-5.38,4.1s2.56,3.84,4.86,3.33,7.18-1,6.67-3.58S127.34,230.46,124.78,229.94Z"/><path id="Path_7667" data-name="Path 7667" class="cls-8" d="M136.14,221.17s-9.06-4-8.55-9.16,3.08-9.47,5.38-10,5.59,1.07,5.59,1.07-.38,3.34-1.08,7.58C136.65,215.62,136.14,221.17,136.14,221.17Z"/><path id="Path_7668" data-name="Path 7668" class="cls-8" d="M76.87,203.3c-2.9.73-4.86,3.08-3.07,4.87s4.35,3.07,5.89,2.05,4.36-3.33,2.31-5.38S78.92,202.79,76.87,203.3Z"/><path id="Path_7669" data-name="Path 7669" class="cls-8" d="M51,254.83s3.61-4.65,5.92-1.83,3.84,6.15,2,9-8.64,3.19-8.64,3.19Z"/><path id="Path_7670" data-name="Path 7670" class="cls-8" d="M67.34,164.35s-1,6.42,3.38,7.19,9.23-1.8,9.74-3.59-1.8-10.25-3.59-11.27-5.89-1-5.89-1a34.61,34.61,0,0,0-1.92,3.41A21.47,21.47,0,0,0,67.34,164.35Z"/><path id="Path_7671" data-name="Path 7671" class="cls-8" d="M141.84,184.05c-2.05-1.28-4-1.75-5-1.24s-4.1,2.05-3.08,4.87,5.82,8,6.19,7S141.84,184.05,141.84,184.05Z"/><path id="Path_7672" data-name="Path 7672" class="cls-8" d="M15.83,234.4s.33,6.3,4.94,5.79,9.48-2.82,9-5.63-3.84-9.48-5.89-9.48-6.16,3.51-6.16,3.51Z"/><path id="Path_7673" data-name="Path 7673" class="cls-8" d="M29.73,220c-.32,2.9,3.08,4.35,3.85,4.1s4.35-2.82,4.35-4.36a4.43,4.43,0,0,0-4.35-4.1C30.76,215.6,30,217.65,29.73,220Z"/><path id="Path_7674" data-name="Path 7674" class="cls-8" d="M32.55,202.54c-.35,1.77,0,2.81,1.8,3.58s4.1.52,4.86-1.28S40.5,201,39,199.72,32.81,201.25,32.55,202.54Z"/><path id="Path_7675" data-name="Path 7675" class="cls-8" d="M156.76,249.12c.77,2.3,3.11,6.7,5.93,5.93s7.68-4.36,7.17-6.92-2.82-7.68-6.15-7.17-6.43,4.3-6.43,4.3Z"/><path id="Path_7676" data-name="Path 7676" class="cls-8" d="M167,221c-1.77.81-4.61,5.89-4.61,7.68s4.61,7.18,6.92,7.18,7-2.8,7-2.8-.48-2.67-1.5-6.59c-1.08-4.13-1.88-6.62-1.88-6.62A14.57,14.57,0,0,0,167,221Z"/><path id="Path_7677" data-name="Path 7677" class="cls-8" d="M158.59,211.25c2.31,2.56,9.22,4.1,8.71,1s-1.54-5.38-3.33-5.89S156.28,208.68,158.59,211.25Z"/><path id="Path_7678" data-name="Path 7678" class="cls-8" d="M178.91,261.81c-1.8-.77-2.9-3.17-3.16-5.22s2.59-9.59,2.59-9.59a54.73,54.73,0,0,1,.66,6.25A71.89,71.89,0,0,1,178.91,261.81Z"/><path id="Path_7679" data-name="Path 7679" class="cls-8" d="M127.34,193.31c-3.41-1.06-4.61.26-3.33,2.56s2.3,4.1,4.35,3.33S131.44,194.59,127.34,193.31Z"/><path id="Path_7680" data-name="Path 7680" class="cls-6" d="M12.91,277.59s2.94,8.17,3.6,7.94-.13-8.3-.13-8.3-.33-1.17-1.9-.77S12.91,277.59,12.91,277.59Z"/><path id="Path_7681" data-name="Path 7681" class="cls-6" d="M22.65,276.3s2.94,8.17,3.6,7.94-.13-8.3-.13-8.3-.33-1.17-1.9-.77S22.65,276.3,22.65,276.3Z"/><path id="Path_7682" data-name="Path 7682" class="cls-6" d="M33.16,274.34s2.94,8.17,3.6,7.93-.13-8.3-.13-8.3-.34-1.16-1.9-.76S33.16,274.34,33.16,274.34Z"/><path id="Path_7683" data-name="Path 7683" class="cls-6" d="M173.05,277.58s-4.08,7.66-4.71,7.33,1.33-8.2,1.33-8.2.5-1.11,2-.48S173.05,277.58,173.05,277.58Z"/><path id="Path_7684" data-name="Path 7684" class="cls-6" d="M163.6,274.9s-4.08,7.67-4.71,7.34,1.33-8.2,1.33-8.2.5-1.11,2-.49S163.6,274.9,163.6,274.9Z"/><path id="Path_7685" data-name="Path 7685" class="cls-6" d="M153.48,271.45s-4.08,7.66-4.7,7.34,1.32-8.2,1.32-8.2.5-1.11,2-.49S153.48,271.45,153.48,271.45Z"/></g></g></g></svg>