<svg id="Group_4452" data-name="Group 4452" xmlns="http://www.w3.org/2000/svg" width="115.166" height="150" viewBox="0 0 115.166 150">
  <g id="Group_133" data-name="Group 133" transform="translate(0 0)">
    <g id="Group_128" data-name="Group 128" transform="translate(103.165 10.583)">
      <path id="Path_467" data-name="Path 467" d="M610.239,222.637s12.686-2.681,5.008-27.092c0,0-4.771-.284-5.258-1.974s2.966-.812,2.966-.812-3.028-4.876-2.113-5.221c.756-.286,4.188,3.417,4.188,3.417s-1.6-4.87-.3-5.021,2.325,4.916,2.325,4.916,1.935-4.005,2.618-2.706-1.043,5-1.043,5,10.054,25.225-7.343,32.329" transform="translate(-609.709 -185.7)" fill="#f4da6b"/>
      <path id="Path_468" data-name="Path 468" d="M611.4,225.815a.23.23,0,0,1-.214-.146.232.232,0,0,1,.126-.3c16.987-6.937,7.313-31.777,7.214-32.025a.227.227,0,0,1,.006-.185c.466-1,1.564-3.811,1.047-4.792-.07-.134-.12-.128-.148-.136-.427.008-1.4,1.476-2.057,2.834a.232.232,0,0,1-.437-.054c-.406-2.016-1.311-4.829-2.071-4.73a.214.214,0,0,0-.171.115c-.41.641.188,3.162.66,4.6a.232.232,0,0,1-.39.229c-1.775-1.915-3.574-3.456-3.937-3.357-.249.282.793,2.564,2.232,4.881a.232.232,0,0,1-.254.348c-.81-.206-2.24-.385-2.626.019-.039.039-.157.161-.06.5.363,1.259,3.768,1.731,5.048,1.806a.236.236,0,0,1,.21.163c3.188,10.136,3.322,17.811.4,22.814a9.34,9.34,0,0,1-5.579,4.576.233.233,0,0,1-.1-.456,9.042,9.042,0,0,0,5.284-4.371c1.948-3.345,3.454-9.922-.4-22.272-.946-.07-4.827-.458-5.309-2.131a.921.921,0,0,1,.173-.956c.513-.53,1.793-.394,2.539-.26-.728-1.214-2.284-3.959-2-4.8a.475.475,0,0,1,.284-.3c.666-.256,2.537,1.5,3.766,2.764-.344-1.239-.808-3.3-.328-4.054a.684.684,0,0,1,.511-.326c1.232-.132,2.09,2.958,2.44,4.46.5-.932,1.443-2.5,2.17-2.512a.627.627,0,0,1,.567.383c.678,1.288-.692,4.446-1,5.116.647,1.705,9.363,25.645-7.506,32.534A.237.237,0,0,1,611.4,225.815Z" transform="translate(-609.822 -185.812)" fill="#f4da6b"/>
    </g>
    <g id="Group_129" data-name="Group 129" transform="translate(40.158 119.123)">
      <path id="Path_469" data-name="Path 469" d="M581.934,242.517s.874,15.414-1.228,23.82c0,0,6.482,2.978,6.307,4.378s-8.232-1.051-9.108-2.451c-1.381-2.209,1.4-1.577,1.4-26.272C579.306,241.992,580.182,240.767,581.934,242.517Z" transform="translate(-577.287 -241.342)" fill="#f4da6b"/>
      <path id="Path_470" data-name="Path 470" d="M586.113,271.48c-2.271,0-7.525-1.752-8.292-2.98-.577-.923-.484-1.412-.177-3.032.5-2.644,1.542-8.141,1.542-23.362a.241.241,0,0,1,.043-.136,1.373,1.373,0,0,1,1.084-.515,2.837,2.837,0,0,1,1.9,1.012.228.228,0,0,1,.068.15c.01.153.841,15.318-1.187,23.7,1.416.66,6.443,3.11,6.264,4.538C587.306,271.27,586.887,271.48,586.113,271.48Zm-6.461-29.289c0,15.2-1.049,20.711-1.55,23.362-.3,1.562-.367,1.933.113,2.7.629,1.006,5.649,2.76,7.9,2.76.557,0,.769-.115.783-.214.1-.849-3.547-2.931-6.173-4.137a.231.231,0,0,1-.128-.268c1.987-7.947,1.292-22.387,1.224-23.661a2.371,2.371,0,0,0-1.505-.812A.913.913,0,0,0,579.653,242.191Z" transform="translate(-577.4 -241.455)" fill="#f4da6b"/>
    </g>
    <g id="Group_130" data-name="Group 130" transform="translate(75.889 120.589)">
      <path id="Path_471" data-name="Path 471" d="M598.571,243.119s2.255,15.272.915,23.832c0,0,6.721,2.385,6.672,3.8s-8.292-.309-9.291-1.624c-1.573-2.076,1.255-1.7-.961-26.291C595.906,242.831,596.667,241.53,598.571,243.119Z" transform="translate(-595.674 -242.097)" fill="#f4da6b"/>
      <path id="Path_472" data-name="Path 472" d="M604.793,271.621c-2.486,0-7.208-1.2-8-2.245-.659-.866-.61-1.364-.449-3.005.262-2.677.806-8.246-.559-23.407a.233.233,0,0,1,.031-.138,1.374,1.374,0,0,1,1.171-.616,3.018,3.018,0,0,1,1.843.843.239.239,0,0,1,.082.144c.021.152,2.211,15.18.942,23.714,1.47.53,6.7,2.519,6.647,3.957C606.479,271.621,605.21,271.621,604.793,271.621Zm-8.535-28.613c1.36,15.138.816,20.722.552,23.407-.153,1.581-.19,1.958.357,2.679.641.849,5.132,2.061,7.626,2.061.977,0,1.243-.2,1.247-.3.029-.857-3.8-2.6-6.519-3.568a.231.231,0,0,1-.151-.254c1.267-8.092-.723-22.412-.9-23.675a2.506,2.506,0,0,0-1.476-.68A.928.928,0,0,0,596.258,243.008Z" transform="translate(-595.786 -242.21)" fill="#f4da6b"/>
    </g>
    <g id="Group_131" data-name="Group 131" transform="translate(12.107 18.963)">
      <path id="Path_473" data-name="Path 473" d="M654.859,259.1c3.586-.956,5.3-.308,4.938,5.941-1.044,18.29-27.689,32.006-37.5,34.823-8.738,2.508-56.773-11.957-59.219-40.446s38.9-69.294,55.717-69.294c12.312,0,44.161,26.73,41.713,41.156a8.7,8.7,0,0,1-4.581,6.168,20.28,20.28,0,0,1-6.145,2.181,45.547,45.547,0,0,1-8.759.811c-.02-.092-.029-.144-.029-.144s-.021.053-.062.144a83.3,83.3,0,0,1-10.193-.587c-2.919-.337-5.694-.79-8.143-1.274a50.3,50.3,0,0,1-7.651-2.027,7.839,7.839,0,0,0-2.192-.534v-.01c-6.639-.595-7.09,10.108.449,16.964.441.4.9.792,1.4,1.163a44.047,44.047,0,0,0,14.207,7.422,31.979,31.979,0,0,0,9.323,1.3c.041.123.06.2.06.2s.031-.072.084-.207a34.815,34.815,0,0,0,8.338-1.182C649.985,260.8,652.741,259.668,654.859,259.1Z" transform="translate(-562.97 -190.126)" fill="#e57d75"/>
      <path id="Path_474" data-name="Path 474" d="M594.232,221.541c1.872.46,1.812,5.835,1.812,5.835s3.85-2.16,5.724-2.16,2.681,6.358,2.681,6.358l-.041.153a44.081,44.081,0,0,1-14.2-7.391c-.493-.369-.954-.758-1.395-1.158l.227-.245S592.369,221.071,594.232,221.541Z" transform="translate(-538.582 -160.312)" fill="#f4f3e1"/>
      <path id="Path_475" data-name="Path 475" d="M606.16,230.493a32.069,32.069,0,0,1-9.318-1.292l.041-.153s2.1-4.9,4.67-4.9C603.856,224.145,605.781,229.407,606.16,230.493Z" transform="translate(-531.009 -157.773)" fill="#f4f3e1"/>
      <path id="Path_476" data-name="Path 476" d="M610.036,229.182l.01.021a34.911,34.911,0,0,1-8.333,1.177c.439-1.043,2.448-5.682,3.891-6.1C607.241,223.819,610.036,229.182,610.036,229.182Z" transform="translate(-526.406 -157.673)" fill="#f4f3e1"/>
      <path id="Path_477" data-name="Path 477" d="M608.8,223.56c1.834-.4,4.751,2.937,5.456,3.778-2.117.563-4.872,1.69-8.252,2.549l-.01-.021S606.705,224.03,608.8,223.56Z" transform="translate(-522.367 -158.361)" fill="#f4f3e1"/>
      <path id="Path_478" data-name="Path 478" d="M613.8,214.429s2.1,6.072.46,7.24S607.73,217,607.73,217l-.093-.439a20.316,20.316,0,0,0,6.142-2.172Z" transform="translate(-520.822 -167.05)" fill="#f4f3e1"/>
      <path id="Path_479" data-name="Path 479" d="M611.885,215.506l.093.439s-2.807,7.475-5.14,7.935c-2.15.429-3.512-6.492-3.708-7.566A45.683,45.683,0,0,0,611.885,215.506Z" transform="translate(-525.07 -165.985)" fill="#f4f3e1"/>
      <path id="Path_480" data-name="Path 480" d="M597.852,215.621a83.565,83.565,0,0,0,10.188.585c-.42.983-2.908,6.676-4.608,7.106-1.872.46-5.61-7.475-5.61-7.475Z" transform="translate(-530.083 -165.877)" fill="#f4f3e1"/>
      <path id="Path_481" data-name="Path 481" d="M601.816,216.236l-.029.216s-1.628,6.072-4.2,6.072-3.972-7.24-3.972-7.24l.06-.317C596.125,215.45,598.9,215.9,601.816,216.236Z" transform="translate(-534.053 -166.498)" fill="#f4f3e1"/>
      <path id="Path_482" data-name="Path 482" d="M590.789,214.187a50.415,50.415,0,0,0,7.647,2.018l-.06.317s-3.974,6.072-5.837,6.072-3.972-8.407-3.972-8.407l.031-.532A7.859,7.859,0,0,1,590.789,214.187Z" transform="translate(-538.817 -167.744)" fill="#f4f3e1"/>
    </g>
    <path id="Path_483" data-name="Path 483" d="M599.961,213.222a10.314,10.314,0,1,0-10.313,10.332A10.322,10.322,0,0,0,599.961,213.222Z" transform="translate(-535.417 -158.977)" fill="#5c2176" opacity="0.2" style="mix-blend-mode: multiply;isolation: isolate"/>
    <path id="Path_484" data-name="Path 484" d="M601.386,203.422a8.807,8.807,0,1,0-8.805,8.59A8.7,8.7,0,0,0,601.386,203.422Z" transform="translate(-531.224 -166.633)" fill="#5c2176" opacity="0.2" style="mix-blend-mode: multiply;isolation: isolate"/>
    <path id="Path_485" data-name="Path 485" d="M610.045,206.65a8.676,8.676,0,1,0-8.677,8.675A8.676,8.676,0,0,0,610.045,206.65Z" transform="translate(-522.814 -163.648)" fill="#5c2176" opacity="0.2" style="mix-blend-mode: multiply;isolation: isolate"/>
    <path id="Path_486" data-name="Path 486" d="M617.825,212.37A8.633,8.633,0,1,0,609.19,221,8.632,8.632,0,0,0,617.825,212.37Z" transform="translate(-515.387 -158.178)" fill="#5c2176" opacity="0.2" style="mix-blend-mode: multiply;isolation: isolate"/>
    <path id="Path_487" data-name="Path 487" d="M598.706,212.656a9.457,9.457,0,1,0-9.456,9.458A9.458,9.458,0,0,0,598.706,212.656Z" transform="translate(-534.985 -158.688)" fill="#fff"/>
    <path id="Path_488" data-name="Path 488" d="M600.3,203.013a8.072,8.072,0,1,0-8.073,8.071A8.072,8.072,0,0,0,600.3,203.013Z" transform="translate(-530.866 -166.529)" fill="#fff"/>
    <path id="Path_489" data-name="Path 489" d="M609.112,206.3a8.073,8.073,0,1,0-8.073,8.071A8.072,8.072,0,0,0,609.112,206.3Z" transform="translate(-522.556 -163.405)" fill="#fff"/>
    <path id="Path_490" data-name="Path 490" d="M616.892,212.028a8.072,8.072,0,1,0-8.071,8.073A8.07,8.07,0,0,0,616.892,212.028Z" transform="translate(-515.208 -157.971)" fill="#fff"/>
    <path id="Path_491" data-name="Path 491" d="M588.562,209.342a2.627,2.627,0,1,0-2.626,2.626A2.628,2.628,0,0,0,588.562,209.342Z" transform="translate(-531.671 -155.368)" fill="#1d110b"/>
    <path id="Path_492" data-name="Path 492" d="M591.644,200.185a2.243,2.243,0,1,0-2.244,2.242A2.243,2.243,0,0,0,591.644,200.185Z" transform="translate(-528.038 -163.69)" fill="#1d110b"/>
    <path id="Path_493" data-name="Path 493" d="M600.452,203.475a2.243,2.243,0,1,0-2.242,2.242A2.24,2.24,0,0,0,600.452,203.475Z" transform="translate(-519.729 -160.568)" fill="#1d110b"/>
    <path id="Path_494" data-name="Path 494" d="M608.234,209.2a2.243,2.243,0,1,0-2.242,2.244A2.241,2.241,0,0,0,608.234,209.2Z" transform="translate(-512.388 -155.137)" fill="#1d110b"/>
    <path id="Path_495" data-name="Path 495" d="M584.031,222.132c-2.564-2.063-14.11,3.372-22.909,7.142-3.269,1.4-6.517,17.579-2.568,18.918C573.784,253.351,593.506,229.762,584.031,222.132Z" transform="translate(-556.737 -141.127)" fill="#cb506b"/>
    <path id="Path_496" data-name="Path 496" d="M578.592,232.946s-12.96-.352-9.808-25.747c0,0,4.643-1.138,4.815-2.89s-3.065-.262-3.065-.262,2.1-5.342,1.14-5.517c-.8-.144-3.5,4.116-3.5,4.116s.7-5.08-.614-4.992-1.4,5.254-1.4,5.254-2.626-3.59-3.063-2.189,1.925,4.728,1.925,4.728-5.342,26.623,13.05,30.475C578.068,235.922,581.03,234.768,578.592,232.946Z" transform="translate(-550.797 -163.932)" fill="#f4da6b"/>
    <g id="Group_132" data-name="Group 132" transform="translate(67.576)">
      <path id="Path_497" data-name="Path 497" d="M591.9,202.511s.831-.13,2.265-.458c.717-.153,1.575-.392,2.539-.69a20.359,20.359,0,0,0,3.085-1.249,9.2,9.2,0,0,0,2.941-2.261,5.327,5.327,0,0,0,1.183-3.78,4.377,4.377,0,0,0-.556-1.956,3.818,3.818,0,0,0-1.513-1.4,5.218,5.218,0,0,0-2.135-.577,4.291,4.291,0,0,0-2.1.367c-.278.153-.39.322-.4.416a.81.81,0,0,0,.332.575,1.817,1.817,0,0,0,.833.3,4.759,4.759,0,0,0,1.123-.029,9.112,9.112,0,0,0,4.239-1.915,7.117,7.117,0,0,0,1.476-1.645,4.1,4.1,0,0,0,.616-1.874,4.22,4.22,0,0,0-1.4-3.114,8.247,8.247,0,0,0-.674-.62,5.107,5.107,0,0,0-.618-.412,3.467,3.467,0,0,0-1.317-.443,4.061,4.061,0,0,0-2.28.361,6.552,6.552,0,0,0-1.381.818c-.3.225-.437.35-.437.35l-.006.006a.459.459,0,0,1-.676-.618,6.363,6.363,0,0,1,.46-.5,7.429,7.429,0,0,1,1.507-1.125,5.309,5.309,0,0,1,2.964-.66,4.856,4.856,0,0,1,1.836.561,6.561,6.561,0,0,1,.892.573,9.639,9.639,0,0,1,.73.641,5.92,5.92,0,0,1,1.311,1.859,4.5,4.5,0,0,1,.34,2.457,5.234,5.234,0,0,1-.987,2.329,8.774,8.774,0,0,1-1.752,1.806,11.4,11.4,0,0,1-4.658,2.265,3.8,3.8,0,0,1-2.97-.394,2.036,2.036,0,0,1-.857-1.6,1.993,1.993,0,0,1,1.035-1.589,5.328,5.328,0,0,1,2.883-.629,6.723,6.723,0,0,1,2.77.693A5.336,5.336,0,0,1,604.7,191.3a5.938,5.938,0,0,1,.82,2.7,8.183,8.183,0,0,1-.235,2.62,7.246,7.246,0,0,1-1.117,2.317,9.308,9.308,0,0,1-3.533,2.848,15.551,15.551,0,0,1-3.494,1.2,22.288,22.288,0,0,1-2.768.408,16.2,16.2,0,0,1-2.432.035l-.008,0a.46.46,0,0,1-.029-.913Z" transform="translate(-591.508 -180.363)" fill="#cb506b"/>
      <path id="Path_498" data-name="Path 498" d="M597.466,183.747a1.926,1.926,0,1,0-2.618.754A1.927,1.927,0,0,0,597.466,183.747Z" transform="translate(-589.296 -179.869)" fill="#cb506b"/>
    </g>
  </g>
  <path id="Path_499" data-name="Path 499" d="M581.236,220.726c-2.037,0-4.479-.581-5.573-1.83a2.47,2.47,0,0,1-.027-3.236.368.368,0,0,1,.618.4,1.784,1.784,0,0,0-.035,2.35c1.4,1.6,5.724,1.942,7.251,1.218a.369.369,0,0,1,.317.666A6.357,6.357,0,0,1,581.236,220.726Z" transform="translate(-539.454 -147.042)" fill="#fff"/>
  <path id="Path_500" data-name="Path 500" d="M581.688,226.748a6.391,6.391,0,0,1-1.884-.282,4.243,4.243,0,0,1-2.183-1.422,2.654,2.654,0,0,1-.381-2.653.368.368,0,1,1,.67.3,1.949,1.949,0,0,0,.3,1.906,3.619,3.619,0,0,0,1.814,1.162,5.764,5.764,0,0,0,4.093-.286.368.368,0,0,1,.313.666A6.473,6.473,0,0,1,581.688,226.748Z" transform="translate(-537.585 -140.703)" fill="#fff"/>
  <path id="Path_501" data-name="Path 501" d="M578.753,234.363a6.43,6.43,0,0,1-1.882-.28,4.265,4.265,0,0,1-2.185-1.422,2.658,2.658,0,0,1-.379-2.655.369.369,0,1,1,.67.307,1.937,1.937,0,0,0,.3,1.9,3.593,3.593,0,0,0,1.812,1.162,5.751,5.751,0,0,0,4.093-.286.369.369,0,0,1,.313.668A6.47,6.47,0,0,1,578.753,234.363Z" transform="translate(-540.354 -133.479)" fill="#fff"/>
  <path id="Path_502" data-name="Path 502" d="M583.93,232.388a6.434,6.434,0,0,1-1.884-.28,4.274,4.274,0,0,1-2.185-1.422,2.662,2.662,0,0,1-.379-2.655.369.369,0,1,1,.67.307,1.94,1.94,0,0,0,.3,1.9,3.6,3.6,0,0,0,1.814,1.162,5.757,5.757,0,0,0,4.091-.284.368.368,0,1,1,.313.666A6.456,6.456,0,0,1,583.93,232.388Z" transform="translate(-535.47 -135.352)" fill="#fff"/>
  <path id="Path_503" data-name="Path 503" d="M587.763,237.054a6.455,6.455,0,0,1-1.884-.28,4.267,4.267,0,0,1-2.183-1.422,2.658,2.658,0,0,1-.381-2.655.369.369,0,1,1,.67.307,1.946,1.946,0,0,0,.3,1.9,3.6,3.6,0,0,0,1.814,1.162,5.762,5.762,0,0,0,4.093-.286.369.369,0,0,1,.313.668A6.47,6.47,0,0,1,587.763,237.054Z" transform="translate(-531.854 -130.926)" fill="#fff"/>
  <path id="Path_504" data-name="Path 504" d="M587.065,229.369a4.965,4.965,0,0,1-2.154-.416,2.571,2.571,0,0,1-1.408-3.186.368.368,0,0,1,.666.315,1.843,1.843,0,0,0,1.063,2.207,5.858,5.858,0,0,0,3.046.278,5.507,5.507,0,0,0,2.892-.783.369.369,0,0,1,.439.592,6.17,6.17,0,0,1-3.269.925C587.958,229.334,587.521,229.369,587.065,229.369Z" transform="translate(-531.657 -137.496)" fill="#fff"/>
</svg>
