<svg xmlns="http://www.w3.org/2000/svg" viewBox="0 0 287.92 160"><defs><style>.cls-1,.cls-3{isolation:isolate;}.cls-2,.cls-3{fill:#fff;}.cls-3{font-size:40px;font-family:HelveticaNeue-Medium, Helvetica Neue;font-weight:500;letter-spacing:0.05em;}.cls-4{fill:none;}.cls-5{fill:#f3c239;}.cls-6{fill:#c49728;}.cls-7{fill:#1d2536;}.cls-8{fill:#1d110b;}.cls-9{fill:#ea5f4c;}</style></defs><g id="圖層_2" data-name="圖層 2"><g id="圖層_1-2" data-name="圖層 1"><g id="圖層_2-2" data-name="圖層 2"><g id="圖層_1-2-2" data-name="圖層 1-2"><g id="Group_5952" data-name="Group 5952"><g id="Group_5951" data-name="Group 5951"><g class="cls-1"><path class="cls-2" d="M157.56,62.52v6.72H185v3.64H151.08V69.24h2.72V42.17h-2.52V38.53h33v3.64H157.56v5.75h23.71v14.6Zm0-3.64h20V51.56h-20Z"/><path class="cls-2" d="M218.72,38.33V50.8c1.52-3.32,2.52-7.84,3-13.55l3.2.48c-.17,1.88-.41,3.64-.64,5.27h6.95v2.2c-.24,3.36-.6,6.72-1,10l-3-.84c.4-2.36.72-5.08,1-8.16h-4.52A29.4,29.4,0,0,1,221.4,53l-2.68-1.88v1.12h-5.44c-.2.6-.44,1.2-.68,1.76h7.76c-.16,9.08-.32,14.36-.52,15.84a2,2,0,0,0-.08.48,42.13,42.13,0,0,0,2.48-7.6,64.17,64.17,0,0,0,.92-11.2V49.2h3v3c0,1.8-.08,3.48-.15,5.08a29.36,29.36,0,0,0,5.63,13.68l-2.32,2.88A28.63,28.63,0,0,1,225,64.64,45.06,45.06,0,0,1,221.68,74l-2.16-2.64a4.22,4.22,0,0,1-.84,1.6c-.64.52-2,.8-4.16.8h-1.28L212.36,71c1,0,2,.08,3,.08a1.3,1.3,0,0,0,1.36-.72,7.24,7.24,0,0,0,.36-2.36c0-.6,0-1.88.08-3.8l-1.36,2.08a26.55,26.55,0,0,0-2-3.2,14.5,14.5,0,0,1-2,3.2L210.6,64.8v1.52c0,.4.16.6.56.6h4.76v2.72H210.4c-1.68,0-2.48-1-2.48-3V60.16l-1.6-2.56v1.84h-3.8v6.84c.56-.24,1.12-.44,1.64-.64-.24-1.52-.52-2.92-.8-4.28l2.36-.8c.8,3.36,1.48,7.2,2.08,11.52l-2.52.64c-.16-1.32-.36-2.6-.56-3.8A64.2,64.2,0,0,1,195.36,72l-.88-3.56c1.6-.32,3.2-.68,4.76-1.12V59.44h-4V43h3.88V37.49h3.52V43h3.68V57.4a14,14,0,0,0,3.84-5.12h-2v-14ZM199.8,46.16H198V56.32h1.8Zm3.8,0H202V56.32h1.64Zm13.68,10.92h-6.44a18.57,18.57,0,0,1-2.36,2.68h2.12V64A14.15,14.15,0,0,0,213,57.92l2.28.36a19.46,19.46,0,0,1-.6,2.52,16.69,16.69,0,0,1,2.52,3C217.2,62,217.24,59.8,217.28,57.08Zm-1.6-13.24V41.25h-4.44v2.59Zm0,2.88h-4.44v2.6h4.44Z"/><path class="cls-2" d="M275.71,44H246.76V53c-.16,8.72-1.6,15.72-4.4,21l-2.84-2.52Q242.82,64.86,243,53V40.33h14.52a19.24,19.24,0,0,0-1.4-2.88l4-.64c.44,1.08.88,2.23,1.32,3.52h14.27ZM259.2,61.52V45.2h3.72V61.52h11.15V65H262.92v4.64h13.15v3.64H246.6V69.68h12.6V65H248.84V61.52Zm-9.64-.92-2.32-2.92c2.44-3,4.08-7,5-12l3.52.64c-.4,2-.84,3.76-1.36,5.44a32,32,0,0,1,4.2,5L256.44,60a37.25,37.25,0,0,0-3.16-5.36A23.62,23.62,0,0,1,249.56,60.6Zm16.15-.2-2.31-2.88a26.14,26.14,0,0,0,4.76-11.88l3.39.6a41.26,41.26,0,0,1-1.2,5.08q2.64,2.58,5.4,5.76l-2.08,3.2c-1.72-2.68-3.16-4.72-4.28-6.16A23,23,0,0,1,265.71,60.4Z"/></g><g id="Group_4453" data-name="Group 4453"><g id="Pisces"><text class="cls-3" transform="translate(143.28 122.88)">Cancer</text></g></g></g><rect id="Rectangle_652" data-name="Rectangle 652" class="cls-4" width="285" height="160"/><path class="cls-5" d="M87,68.4c-3.37-20.69-9-32.56-18.39-38.15l1-5.23h.75c5,0,12.85-.73,12.85-5.82S77,5,71.94,5s-13,7.3-13,12.4c0,3.86,4.67,5.6,8,7l-1.21,4.41a35.12,35.12,0,0,0-14-2.51c-6.82,0-12.47,1.28-17.16,4.16L32.91,24.4c3.33-1.38,10.16-3.12,10.16-7,0-5.1-8.56-10.78-13.6-10.78s-14,10.47-14,15.56,9,2.88,14,2.88h.75l1.45,7.5C24.18,38.79,19.5,50.18,16.53,68.4c-5,30.85-25.54,71.39,35.23,71.39S92,99.25,87,68.4M62.73,16.66c0-3.18,5.81-8.84,9-8.84s7.85,6.89,7.85,10.07-6,3.71-9.17,3.71-7.64-1.76-7.64-4.94M29.5,21.6c-3.14,0-9,.94-9-2.24S26.21,8.93,29.36,8.93s10.3,4.8,10.3,8-7,4.7-10.16,4.7"/><ellipse class="cls-2" cx="67.14" cy="57.83" rx="10.64" ry="10.04"/><ellipse class="cls-2" cx="36.46" cy="60.66" rx="10.06" ry="9.5"/><path class="cls-6" d="M78,56.17a11.68,11.68,0,0,0-11.26-8.78A9.93,9.93,0,0,0,58,52.32,20,20,0,0,0,56.35,57s6.22-5.24,13-5.44C71.77,51.52,78,56.17,78,56.17Z"/><path class="cls-7" d="M40.75,58.84A4.7,4.7,0,1,1,36,54.15h0a4.69,4.69,0,0,1,4.7,4.68h0"/><path class="cls-7" d="M71.51,58.35a4.21,4.21,0,1,1-4.22-4.2h0a4.2,4.2,0,0,1,4.21,4.19h0"/><path class="cls-7" d="M74.46,16.3a3.56,3.56,0,1,1-3.57-3.55h0a3.57,3.57,0,0,1,3.56,3.55"/><path class="cls-6" d="M46.69,58.33a10.53,10.53,0,0,0-20.19,0Z"/><path class="cls-7" d="M25.1,15.41a5.63,5.63,0,0,0,10.67-1.62Z"/><polygon class="cls-6" points="71.45 34.3 71.85 36.62 74.18 36.95 72.11 38.04 72.51 40.35 70.82 38.71 68.75 39.81 69.78 37.71 68.09 36.09 70.41 36.42 71.45 34.3"/><polygon class="cls-6" points="61.63 29.55 63.12 30.18 64.18 28.95 64.03 30.56 65.52 31.18 63.95 31.55 63.81 33.16 62.98 31.78 61.41 32.15 62.47 30.93 61.63 29.55"/><polygon class="cls-6" points="65.19 33.68 66.05 34.05 66.66 33.34 66.58 34.27 67.44 34.63 66.53 34.84 66.45 35.77 65.97 34.98 65.06 35.19 65.67 34.48 65.19 33.68"/><polygon class="cls-6" points="46.5 28.48 47.75 28.16 47.84 26.87 48.52 27.97 49.77 27.65 48.94 28.64 49.62 29.74 48.43 29.25 47.61 30.25 47.7 28.96 46.5 28.48"/><polygon class="cls-6" points="45.64 106.03 47.56 105.55 47.69 103.58 48.73 105.25 50.64 104.77 49.37 106.29 50.42 107.96 48.6 107.23 47.34 108.74 47.48 106.77 45.64 106.03"/><polygon class="cls-6" points="36.12 107.48 37.29 105.48 35.74 103.75 37.99 104.25 39.15 102.25 39.39 104.55 41.66 105.04 39.54 105.97 39.79 108.27 38.24 106.55 36.12 107.48"/><polygon class="cls-6" points="77.79 119.44 78.96 117.44 77.41 115.71 79.67 116.2 80.83 114.2 81.06 116.51 83.33 117 81.22 117.93 81.46 120.23 79.91 118.5 77.79 119.44"/><polygon class="cls-6" points="83.78 124.52 83.64 122.7 81.87 122.27 83.56 121.59 83.42 119.78 84.6 121.17 86.29 120.48 85.33 122.02 86.51 123.4 84.74 122.97 83.78 124.52"/><polygon class="cls-6" points="88.18 122.48 88.07 121 86.62 120.64 88 120.08 87.89 118.6 88.86 119.74 90.24 119.17 89.45 120.44 90.42 121.57 88.97 121.21 88.18 122.48"/><polygon class="cls-6" points="87.7 113.38 87.59 111.89 86.14 111.54 87.52 110.98 87.41 109.49 88.37 110.64 89.75 110.07 88.97 111.33 89.94 112.47 88.49 112.11 87.7 113.38"/><polygon class="cls-6" points="66.87 131.84 66.65 128.84 63.73 128.13 66.5 127.01 66.28 124.02 68.22 126.31 71 125.18 69.42 127.72 71.37 130 68.45 129.28 66.87 131.84"/><polygon class="cls-6" points="28.34 114.15 30.4 111.96 28.95 109.33 31.65 110.61 33.7 108.42 33.32 111.41 36.04 112.69 33.1 113.24 32.74 116.21 31.29 113.58 28.34 114.15"/><polygon class="cls-6" points="26.57 111.99 26.05 110.39 24.38 110.4 25.73 109.42 25.21 107.83 26.57 108.82 27.92 107.83 27.41 109.42 28.77 110.39 27.09 110.39 26.57 111.99"/><polygon class="cls-6" points="14.79 119.71 16.31 118.09 15.24 116.15 17.23 117.1 18.75 115.48 18.47 117.69 20.47 118.63 18.3 119.04 18.04 121.23 16.97 119.29 14.79 119.71"/><path class="cls-5" d="M20.05,78.61c-7.2-12.38-11.33-35.4-11.33-35.4S5.15,39.48,6.29,38.3C7.16,37.38,9,40.44,9,40.44s-1.29-4-.27-4.61,2.13,3.92,2.13,3.92.08-4.51,1-4.29S13,40.34,13,40.34s1.56-1.71,2.37-1-1.47,3.24-1.47,3.24C17.34,62.92,23.52,76,23.52,76Z"/><path class="cls-5" d="M34.73,134.8C15.85,145.06,8.91,155.11,6.07,155c-1.9-.07-6.51-7.94-5.36-9.55s5.35,3,5.35,3S18.7,136,31.57,130.76Z"/><path class="cls-5" d="M86.57,74.65c9-12.41,15.8-36.46,15.8-36.46s4.18-3.58,3.1-5c-.83-1.07-3.07,2-3.07,2s1.79-4.13.77-4.88-2.68,3.95-2.68,3.95.39-4.81-.62-4.67-1.72,5.08-1.72,5.08-1.48-2-2.41-1.37S97,36.94,97,36.94C91.12,58.25,83.17,71.48,83.17,71.48a2.72,2.72,0,0,0,.93,2.74A2.49,2.49,0,0,0,86.57,74.65Z"/><path class="cls-5" d="M74.51,131.64c19,6.19,29.27-4.59,31.95-3.65,1.79.63,5,8.59,3.38,9.78s-5.31-3.56-5.31-3.56S95.25,145.15,72,138.06a4.93,4.93,0,0,1-.1-4C73,131.33,74.51,131.64,74.51,131.64Z"/><path class="cls-2" d="M38.61,87.4c1.15,0,3.38,3.89,3.49,4.1a9.24,9.24,0,0,1-5.41-.21l.06-.19S37.42,87.42,38.61,87.4Z"/><path class="cls-8" d="M42.1,91.5c-.11-.21-2.34-4.11-3.49-4.1s-1.86,3.7-1.86,3.7l-.06.19c-2.68-1-4.59-3.33-2.5-7.62a10.41,10.41,0,0,1,6.07-5.35v.08s1.46,4.48,2.77,4.34,2.19-5.22,2.19-5.22v-.19c2-.13,3.8,0,4.85,0a36,36,0,0,1,7.17.75l-.06.24s-.3,5.44.78,5.91,4.45-4.07,4.45-4.07l.14-.26c5.11,2.64,6.5,6.87,4.58,10.5-2.26,4.29-5.58,3.78-8.86,2.63-.18-.57-1.53-4.65-2.64-4.76s-3.28,2.64-3.28,2.64V91a18.15,18.15,0,0,0-9.91.34Z"/><path class="cls-2" d="M55.65,88.28c1.11.11,2.46,4.19,2.64,4.76-1.08-.38-2.16-.83-3.19-1.2a24,24,0,0,0-2.75-.79v-.13S54.47,88.18,55.65,88.28Z"/><path class="cls-2" d="M62.57,79.91l-.14.26S59.05,84.7,58,84.24s-.78-5.91-.78-5.91l.06-.24A21.11,21.11,0,0,1,62.57,79.91Z"/><path class="cls-2" d="M45.24,77.33v.19s-.9,5.09-2.19,5.22-2.77-4.34-2.77-4.34v-.08A18.28,18.28,0,0,1,45.24,77.33Z"/><path class="cls-9" d="M62.12,94.58h0a16.81,16.81,0,0,1-5.82-1.51l-1.45-.54a21.19,21.19,0,0,0-7.14-1.27,14.44,14.44,0,0,0-5,.81,8.63,8.63,0,0,1-2.9.46c-2.26,0-5.15-.76-6.49-2.92-.72-1.15-1.27-3.17.24-6.26,2.22-4.58,6.69-6.8,13.64-6.8h2.89c8.64.11,15,2.6,17.54,6.83a7.23,7.23,0,0,1,.16,7.3C66.44,93.33,64.58,94.58,62.12,94.58ZM47.71,89.8a22.61,22.61,0,0,1,7.64,1.36c.48.17,1,.36,1.48.56a16,16,0,0,0,5.29,1.4c1.89,0,3.29-1,4.39-3.05a5.83,5.83,0,0,0-.12-5.88c-2.25-3.78-8.19-6-16.3-6.12H47.16C40.84,78,36.81,80,34.85,84c-1,2-1.08,3.64-.32,4.86,1,1.65,3.39,2.24,5.26,2.24a7.22,7.22,0,0,0,2.4-.38A16,16,0,0,1,47.71,89.8Z"/></g></g></g></g></g></svg>