<svg xmlns="http://www.w3.org/2000/svg" viewBox="0 0 285 160"><defs><style>.cls-1,.cls-3{isolation:isolate;}.cls-2,.cls-3{fill:#fff;}.cls-3{font-size:35px;font-family:HelveticaNeue-Medium, Helvetica Neue;font-weight:500;letter-spacing:0.06em;}.cls-4{letter-spacing:0.05em;}.cls-5{fill:none;}.cls-6{fill:#ee8168;}.cls-7{fill:#aa4c97;}.cls-8{fill:#f1a4b2;}.cls-9{fill:#954f39;}.cls-10{fill:#3472b6;}</style></defs><g id="圖層_2" data-name="圖層 2"><g id="圖層_1-2" data-name="圖層 1"><g id="圖層_2-2" data-name="圖層 2"><g id="圖層_1-2-2" data-name="圖層 1-2"><g id="Group_5952" data-name="Group 5952"><g id="Group_5951" data-name="Group 5951"><g class="cls-1"><path class="cls-2" d="M171,56.08c-.24.68-.48,1.32-.72,2h6.16v3.12A18.89,18.89,0,0,1,173.66,68c2.36,1.36,6.4,2.08,12.08,2.08q3.84,0,7.2-.12l-.64,3.6h-4.08c-7.28,0-12.32-.76-15.08-2.24a15.87,15.87,0,0,1-1.48-1,17.83,17.83,0,0,1-7,3.88l-2.08-3.16a18.41,18.41,0,0,0,6.32-3.2A24.6,24.6,0,0,1,166.62,65,22.92,22.92,0,0,1,164.86,67l-2.56-2.2a40.31,40.31,0,0,1-2.84,9.32l-3.2-2.8c2.08-4.44,3.16-10,3.24-16.72V43.36h12.16V37h3.8v1.6h12.36v3.15H175.46v1.6H192V45a38.11,38.11,0,0,1-1.56,6.64l-3.64-1A29.13,29.13,0,0,0,188,46.56H175.46v2l9.16-.64.48,3-9.64.68v.8c0,.56.48.88,1.48.88H189.3v3.08H175.74c-2.72,0-4.08-1.08-4.08-3.16V51.88l-6.16.44-.44-3,6.6-.48V46.56h-8.48v8a58.35,58.35,0,0,1-.8,9.84,23.31,23.31,0,0,0,5.36-9.6Zm2.24,5.2h-4.36c-.16.32-.32.64-.48.92a19.13,19.13,0,0,0,2.6,3.52A15.45,15.45,0,0,0,173.22,61.28Zm14.6-3.4v6.76c0,.48.16.76.52.76h.6c.36,0,.6-.08.68-.2a12.49,12.49,0,0,0,.68-3.2l3,1a14.35,14.35,0,0,1-1,4.64,2.9,2.9,0,0,1-2.56.92H187.9c-2.28,0-3.4-1.16-3.4-3.48V61h-2.44a14.69,14.69,0,0,1-.4,3.76A10.17,10.17,0,0,1,178.82,69l-2.76-2.44a8.5,8.5,0,0,0,2.44-3.88,33,33,0,0,0,.32-4.8Z"/><path class="cls-2" d="M212.58,46.16c1.28-3,2.52-6.08,3.68-9.15l3.84,1.11c-1.12,2.88-2.16,5.56-3.2,8h10.56c.2-1.28.36-2.56.52-3.84l3.8.24c-.12,1.24-.28,2.44-.44,3.6h6.44V49.8h-7.16a30.25,30.25,0,0,1-5.92,12.6c.68.36,1.32.72,2,1.12a77.1,77.1,0,0,1,10.72,7.68L234.5,74a82.89,82.89,0,0,0-11.72-8.32,7.85,7.85,0,0,1-.84-.48q-6.36,5.52-17.4,8.88l-2-3.52c6.64-1.84,11.84-4.32,15.68-7.36a111.87,111.87,0,0,0-11.44-4.72c1.48-2.88,2.88-5.8,4.24-8.72h-8.8V46.16Zm14,3.64H215.3c-1.16,2.56-2.28,4.92-3.4,7.08a90.31,90.31,0,0,1,9.16,3.72A27.13,27.13,0,0,0,226.62,49.8Z"/><path class="cls-2" d="M282.7,44h-29V53c-.16,8.72-1.6,15.72-4.4,21l-2.84-2.52Q249.8,64.86,250,53V40.33H264.5a19.24,19.24,0,0,0-1.4-2.88l4-.64c.44,1.08.88,2.23,1.32,3.52H282.7ZM266.18,61.52V45.2h3.72V61.52h11.16V65H269.9v4.64h13.16v3.64H253.58V69.68h12.6V65H255.82V61.52Zm-9.64-.92-2.32-2.92c2.44-3,4.08-7,5-12l3.52.64c-.4,2-.84,3.76-1.36,5.44a32,32,0,0,1,4.2,5L263.42,60a37.25,37.25,0,0,0-3.16-5.36A23.62,23.62,0,0,1,256.54,60.6Zm16.16-.2-2.32-2.88a26,26,0,0,0,4.76-11.88l3.4.6a41.26,41.26,0,0,1-1.2,5.08q2.64,2.58,5.4,5.76l-2.08,3.2c-1.72-2.68-3.16-4.72-4.28-6.16A23.22,23.22,0,0,1,272.7,60.4Z"/></g><text class="cls-3" transform="translate(176.3 122.88)">V<tspan class="cls-4" x="23.48" y="0">irgo</tspan></text></g><rect id="Rectangle_652" data-name="Rectangle 652" class="cls-5" width="285" height="160"/><path class="cls-6" d="M85,106.76s21.69,3.84,26.58,10.2-3.51,13.44-.33,16.86,30.15,3.26,30.15,3.26l-.24,1.64s-32.77,1.95-35.46-2-1.14-6-.65-9.13c.64-4-1.71-7.18-6.84-9-4.85-1.68-12.72-3.58-12.72-3.58Z"/><path class="cls-6" d="M77.29,47.26s-.76-5.43.87-6.52,5.32,0,7.28-1.73-1.09-5.48,1.3-7.39c2.72-2.18,6.74.43,8.48-1.53S97,27.27,97,27.27l1.84,1.52a10.12,10.12,0,0,1-2.6,3.48c-1.74,1.41-5.55-.55-7,1.74-1,1.63,2.61,4.78.54,7.06s-5.43,1.2-7.06,3.37,1.85,3.26.43,5.54S81,53.79,81,53.79Z"/><path class="cls-7" d="M81.66,44.82a.8.8,0,0,1-.52-.19l-3-2.53a.82.82,0,1,1,1-1.25l3,2.53a.82.82,0,0,1,.11,1.15A.85.85,0,0,1,81.66,44.82Z"/><path class="cls-7" d="M86.75,42.27a.73.73,0,0,1-.7-.17l-1.44-1.32a.75.75,0,0,1,0-1.06.76.76,0,0,1,1.06,0L87.07,41a.75.75,0,0,1,0,1.06A.7.7,0,0,1,86.75,42.27Z"/><path class="cls-7" d="M89.18,37.59a.74.74,0,0,1-.72.06l-1.78-.79a.75.75,0,0,1,.62-1.37l1.78.79a.73.73,0,0,1,.37,1A.76.76,0,0,1,89.18,37.59Z"/><path class="cls-7" d="M101.6,29.4a16.51,16.51,0,0,0,2.61-1.33s-2.2-.39-2.75-.42c.43-.69,1.53-1.31,1.8-2.09-.93,0-2,.46-2.88.35a7.29,7.29,0,0,0,.63-2.59c-.83.22-1.34,1.07-2.15,1.29a16.44,16.44,0,0,1-.55-2.67c-.92.85-2,1.67-2.83,2.59C95,24,94.64,23.2,94.17,22.6c-.13,1.52-.33,2.82-.32,4.44a5.08,5.08,0,0,0,2,4.14c2.34,2,6.16,1.44,8.66.38C103.48,31,102.42,30,101.6,29.4Z"/><path class="cls-6" d="M32.75,50.92s-1.45-5.3-3.38-5.65-4.89,2.1-7.37,1.27-1.16-5.46-4.12-6.27c-3.35-.93-6,3.06-8.39,1.94S6.78,40.3,6.78,40.3l-1.1,2.13A10.26,10.26,0,0,0,9.45,44.6c2.16.61,4.88-2.69,7.08-1.15,1.58,1.1-.51,5.42,2.29,6.71s5.46-1,7.82.3-.41,3.73,1.79,5.27,3.49,2.64,3.49,2.64Z"/><path class="cls-7" d="M27.76,50.4a.86.86,0,0,0,.41-.39l1.77-3.51a.81.81,0,0,0-.36-1.09.8.8,0,0,0-1.09.36l-1.78,3.51a.81.81,0,0,0,.36,1.09A.8.8,0,0,0,27.76,50.4Z"/><path class="cls-7" d="M22.08,50.06a.74.74,0,0,0,.58-.43l.79-1.79a.74.74,0,0,0-.38-1,.76.76,0,0,0-1,.38L21.28,49a.75.75,0,0,0,.39,1A.73.73,0,0,0,22.08,50.06Z"/><path class="cls-7" d="M18,46.72a.74.74,0,0,0,.68-.23L20,45.06A.75.75,0,0,0,20,44a.76.76,0,0,0-1.06,0l-1.33,1.43a.74.74,0,0,0,.05,1.05A.72.72,0,0,0,18,46.72Z"/><path class="cls-7" d="M3.35,44.1a16.41,16.41,0,0,1-2.91-.2s1.86-1.23,2.35-1.47C2.12,42,.87,41.83.32,41.22c.83-.41,2-.36,2.78-.81a7.67,7.67,0,0,1-1.61-2.14c.86-.13,1.66.46,2.49.34A15.68,15.68,0,0,0,3.44,36c1.18.4,2.49.74,3.62,1.25.25-.69.24-1.54.44-2.29.72,1.35,1.42,2.47,2.05,4a5.07,5.07,0,0,1-.18,4.57C8,46.23,4.27,47.21,1.56,47.21,2.25,46.29,2.82,44.93,3.35,44.1Z"/><path class="cls-8" d="M91.85,125.18s0-25.1-2.28-50.53S79.78,40.9,55,40.42C29.74,39.93,21.43,63.24,21.75,75s0,49.55,0,49.55h.17a29.36,29.36,0,0,0,0,3.51c.15,2.29,2,7.08,5.13,8.8,5,2.73,11.94,3,12.45,2,.4-.63.14-.83-.19-1.29,1.32.5,2.71-1.32,1-2.18a1.18,1.18,0,0,0,1.46-1.59c-.35-.93-1.74-.86-2.57-1.14-1.91-.64-2.37-1.34-2.1-3.36a9.07,9.07,0,0,1,2.7-4.56l35.58.33a5.22,5.22,0,0,1,1.82,3.9,4,4,0,0,1-3,3.91c-.85.23-2.23.1-2.63,1a1.19,1.19,0,0,0,1.38,1.67c-1.77.77-.48,2.66.86,2.22-.35.45-.62.63-.25,1.29.46,1,7.39,1.12,12.53-1.35,3.25-1.56,5.31-6.25,5.58-8.53a34.36,34.36,0,0,0,.18-4Z"/><path class="cls-9" d="M75.66,60.87a5.79,5.79,0,1,1-5.79-5.77A5.78,5.78,0,0,1,75.66,60.87Z"/><path class="cls-2" d="M74.64,60.89a4.85,4.85,0,1,1-4.85-4.84A4.84,4.84,0,0,1,74.64,60.89Z"/><path class="cls-10" d="M72.63,60.89a2.84,2.84,0,1,1-2.84-2.84A2.84,2.84,0,0,1,72.63,60.89Z"/><path class="cls-2" d="M70.15,60.26A1.15,1.15,0,1,1,69,59.12,1.14,1.14,0,0,1,70.15,60.26Z"/><path class="cls-6" d="M85.51,78c-2.88.34-6.76,1.91-10.09-.73s-6.25-10.37-7.14-12-1.9-2.57-2.77-2.09a1.88,1.88,0,0,0-.76,1.69S63.51,62,61.55,63s-1,3.1-1,3.1a1.6,1.6,0,0,0-2.12-.34c-.91.6.35,5,2.08,10.56,1.57,5.07,5.47,18.12,14,18.25s16.07-3.08,16.32-7.31S89.49,77.53,85.51,78Z"/><path class="cls-9" d="M47.7,61.52a5.79,5.79,0,1,1-5.79-5.77A5.78,5.78,0,0,1,47.7,61.52Z"/><path class="cls-2" d="M46.68,61.54a4.85,4.85,0,1,1-4.84-4.84A4.85,4.85,0,0,1,46.68,61.54Z"/><path class="cls-10" d="M44.67,61.54a2.84,2.84,0,1,1-2.83-2.83A2.84,2.84,0,0,1,44.67,61.54Z"/><path class="cls-2" d="M42.19,60.91a1.14,1.14,0,1,1-1.14-1.14A1.15,1.15,0,0,1,42.19,60.91Z"/><path class="cls-6" d="M24,79.65c2.83-.63,7-.44,9.29-4S35.8,63.77,36.1,61.94c.32-2,.94-3,1.92-2.89s1.28,1.34,1.28,1.34.23-3.09,2.39-2.85,2,2.59,2,2.59a1.59,1.59,0,0,1,1.89-1c1.06.26,1.3,4.78,1.51,10.65.2,5.3.82,18.91-7.17,21.84S23.71,94,22.08,90.08,20.12,80.52,24,79.65Z"/><path class="cls-6" d="M38.65,48.13c.34.92,1.89,1,3.79.23s3.08-1.71,2.85-2.33-.92-2.2-3.4-1.06S38.28,47.11,38.65,48.13Z"/><path class="cls-6" d="M73.16,48c-.35.92-1.9,1-3.79.17s-3.05-1.75-2.81-2.36,1-2.19,3.41-1S73.55,47,73.16,48Z"/><ellipse class="cls-9" cx="57.62" cy="74.27" rx="1.63" ry="2.12"/><polygon class="cls-6" points="40.01 96.82 42.62 102.04 45.55 97.15 43.43 96.82 42.62 98.45 41.8 96.49 40.01 96.82"/><polygon class="cls-6" points="52.24 97.31 55.5 102.36 60.06 96.82 57.45 96.66 55.01 99.27 54.36 96.98 52.24 97.31"/><polygon class="cls-6" points="68.54 97.15 71.31 101.55 74.57 96.49 71.8 96.66 71.15 98.61 69.84 96.66 68.54 97.15"/><polygon class="cls-6" points="46.37 105.13 48.65 109.7 52.24 104.32 49.79 103.99 48.49 106.6 47.67 103.83 46.37 105.13"/><polygon class="cls-6" points="62.18 104.48 63.97 109.7 67.4 103.99 64.79 103.99 63.97 105.95 63.48 103.5 62.18 104.48"/><polygon class="cls-6" points="54.19 110.84 56.48 116.71 60.06 111 57.78 110.68 56.31 113.28 55.99 110.68 54.19 110.84"/></g></g></g></g></g></svg>