<svg xmlns="http://www.w3.org/2000/svg" viewBox="0 0 287.67 160"><defs><style>.cls-1,.cls-3,.cls-9{isolation:isolate;}.cls-2,.cls-3{fill:#fff;}.cls-3{font-size:40px;font-family:HelveticaNeue-Medium, Helvetica Neue;font-weight:500;letter-spacing:0.05em;}.cls-4{fill:none;}.cls-5{fill:#f9c464;}.cls-6{fill:#edc451;}.cls-7{fill:#f6b15f;}.cls-8{fill:#d84a7c;}.cls-9{fill:#e09259;opacity:0.3;}.cls-10{fill:#1d110b;}.cls-11{fill:#ee9bc0;}</style></defs><g id="圖層_2" data-name="圖層 2"><g id="圖層_1-2" data-name="圖層 1"><g id="圖層_2-2" data-name="圖層 2"><g id="圖層_1-2-2" data-name="圖層 1-2"><g id="Group_5952" data-name="Group 5952"><g id="Group_5951" data-name="Group 5951"><g class="cls-1"><path class="cls-2" d="M170.09,49.12l-2-2.44V48h-4v2.16h4v2.6h-4v2.2h5.4v2.8h-16v-9.6c-.4.56-.84,1.12-1.24,1.68l-2-2.44a32.8,32.8,0,0,0,4.92-10.19l3.12.68c-.32.88-.6,1.72-.88,2.52H161a24.65,24.65,0,0,0-1.28-2.92l3.2-.52a36,36,0,0,1,1.28,3.44h4.92v2.79h-5v2.2h4V46.6a32.82,32.82,0,0,0,4.6-9.55l3.12.68c-.32.92-.6,1.8-.92,2.64h3.44a24.67,24.67,0,0,0-1.32-2.92l3.24-.52a36,36,0,0,1,1.28,3.44h4.72v2.79h-4.56v2.2h3.88V48h-3.88v2.16h3.88v2.6h-3.88v2.2h5.12v2.8H171V48C170.65,48.36,170.37,48.76,170.09,49.12ZM153.73,62.68V59.36H183V62.2a36.41,36.41,0,0,1-9,6.24,117.17,117.17,0,0,0,13.56,2.72l-2,3.12a90.86,90.86,0,0,1-16-3.92,76,76,0,0,1-16.28,3.88l-1.64-3.44a86,86,0,0,0,13.16-2.44,20.43,20.43,0,0,1-7.36-5.68ZM161,43.16h-4.2v2.2H161Zm0,4.8h-4.2v2.16H161Zm0,4.76h-4.2v2.2H161Zm16.24,10H161.61a24.43,24.43,0,0,0,7.56,4.2A39.25,39.25,0,0,0,177.25,62.68Zm1.32-19.52h-4.4v2.2h4.4Zm0,4.8h-4.4v2.16h4.4Zm0,4.76h-4.4v2.2h4.4Z"/><path class="cls-2" d="M213.17,54V48.84a58.18,58.18,0,0,0,9.12-6.56H200.85V38.73h26.56v3.55A72.39,72.39,0,0,1,217,50.76V54h14.88v3.72H217V69.92c0,2.6-1.32,3.92-3.92,3.92h-7l-1-3.68c2,.08,4.2.12,6.52.12,1.08,0,1.64-.52,1.64-1.56v-11H196.65V54Z"/><path class="cls-2" d="M277,44H248V53c-.16,8.72-1.6,15.72-4.4,21l-2.84-2.52q3.3-6.66,3.48-18.48V40.33h14.52a19.24,19.24,0,0,0-1.4-2.88l4-.64c.44,1.08.88,2.23,1.32,3.52H277ZM260.45,61.52V45.2h3.72V61.52h11.16V65H264.17v4.64h13.16v3.64H247.85V69.68h12.6V65H250.09V61.52Zm-9.64-.92-2.32-2.92c2.44-3,4.08-7,5-12l3.52.64c-.4,2-.84,3.76-1.36,5.44a32,32,0,0,1,4.2,5L257.69,60a37.25,37.25,0,0,0-3.16-5.36A23.62,23.62,0,0,1,250.81,60.6ZM267,60.4l-2.32-2.88a26,26,0,0,0,4.76-11.88l3.4.6a41.26,41.26,0,0,1-1.2,5.08q2.64,2.58,5.4,5.76l-2.08,3.2c-1.72-2.68-3.16-4.72-4.28-6.16A23.22,23.22,0,0,1,267,60.4Z"/></g><g id="Group_4453" data-name="Group 4453"><g id="Pisces"><text class="cls-3" transform="translate(146.03 122.88)">Gemini</text></g></g></g><rect id="Rectangle_652" data-name="Rectangle 652" class="cls-4" width="285" height="160"/><path class="cls-5" d="M97,42.62S94.64,53,87.75,55.44l-.11.1a10.72,10.72,0,0,0-1.27-1.16,21.77,21.77,0,0,0-5.5-3c9-1.11,12.71-11,12.71-11a9.37,9.37,0,0,0,3.47,2.13Z"/><path class="cls-6" d="M68.06,41.29l-1,7.05h0c-1.71-.18-3.48-.3-5.27-.39v-.28a65.25,65.25,0,0,0,2.13-7.24h0a10.67,10.67,0,0,0,3.45.57Z"/><path class="cls-5" d="M46.78,23.55s2.43,21.07,3.15,24.6c-2.13.14-4.25.34-6.33.6C43.73,43.76,43,24,43,24v-.19h.42a9.3,9.3,0,0,0,3.32-.37Z"/><path class="cls-5" d="M21.5,40l4.25,12.85A37,37,0,0,0,21.2,55c-.64-1.12-3.75-13.78-3.75-13.78h0a10.43,10.43,0,0,0,3.9-1.39Z"/><path class="cls-7" d="M100.83,24.07a9.53,9.53,0,0,1-.53,19,6.64,6.64,0,0,1-.77,0,9.19,9.19,0,0,1-2.48-.5,9.37,9.37,0,0,1-3.47-2.13,9.53,9.53,0,0,1,7.25-16.38Z"/><path class="cls-7" d="M72.92,21.15a10.71,10.71,0,0,1-9,19.3,11,11,0,0,1-2.08-1,10.71,10.71,0,0,1,11.08-18.3Z"/><path class="cls-7" d="M44.77,4.86a9.52,9.52,0,0,1,2,18.64,9.3,9.3,0,0,1-3.32.37H43a9.54,9.54,0,0,1,1.73-19h0Z"/><path class="cls-7" d="M17.45,41.18a11,11,0,0,1-2.29.08,10.71,10.71,0,1,1,6.19-1.47A10.43,10.43,0,0,1,17.45,41.18Z"/><path class="cls-5" d="M105.22,103.78s-.72,3.74-1.57,3.34-.88-3.92-.88-3.92-1.86,3.41-2.63,2.27,1-4,1.16-4.19c-.14.09-1.85,1.17-1.81,0s1.91-2.73,1.91-2.73.71-15-7.1-15.55a3.91,3.91,0,0,0-.07-.9c-.1-1.45-.24-2.88-.41-4.29h.43c.11,0,9.62,0,12.26,12.09,2.07,9.45,1.09,15.37.48,16.44S105.22,103.78,105.22,103.78Z"/><path class="cls-5" d="M68.63,150.76s3.76,2.44,3.34,3.6c-.58,1.63-6.57-.18-7.47-1.37-1-1.38-.72-11.38-.68-20.36,0-8.23-.26-15.55-.26-15.55V117c1.62-.14,3.21-.3,4.77-.5C68.89,127.56,68.63,150.76,68.63,150.76Z"/><path class="cls-5" d="M43.1,117.24c-.16,2.2-.57,8.12-.82,14.62-.33,9-.43,19-1.51,20.3s-7,2.73-7.52,1.08c-.37-1.17,3.49-3.46,3.49-3.46s.63-21.48,1.59-32.94C39.88,117,41.48,117.15,43.1,117.24Z"/><path class="cls-5" d="M14.42,87.59c0,1.75,0,3.5.08,5.23h0c-8-.07-8,15.31-8,15.31s1.78,1.62,1.78,2.8-1.66,0-1.8-.11c.12.21,1.76,3.18,1,4.24S5,112.68,5,112.68s-.19,3.51-1.06,3.87-1.42-3.41-1.42-3.41S1.1,116.62.54,115.53s-1.27-7,1.21-16.4C4.73,87.89,13.34,87.59,14.42,87.59Z"/><path class="cls-8" d="M96.26,81a134.46,134.46,0,0,1-.6,24.73c-.43-.1-14.53-3.52-13-15.5C84.22,78.08,96.17,80,96.17,80h0C96.21,80.32,96.23,80.66,96.26,81Z"/><path class="cls-8" d="M11.19,86.31c0-3.35.2-6.71.51-10,.34,0,8.24-1.2,9.9,7.89,1.75,9.51-8.56,15.6-9.66,16.22-.33-2.63-.55-5.38-.66-8.18C11.2,90.31,11.17,88.31,11.19,86.31Z"/><path class="cls-7" d="M68.93,133.19c-1.55.2-3.15.36-4.76.5a139.72,139.72,0,0,1-20.46.26c-1.62-.1-3.22-.24-4.76-.4-9.2-1-17.39-10.11-20.57-13.58s-5.39-10.89-6.44-19.5c1.1-.62,11.41-6.71,9.66-16.22-1.66-9.09-9.56-7.94-9.9-7.89,1.17-12.21,4.3-26.88,9.48-29.72a35.17,35.17,0,0,1,4.55-2.08,77.68,77.68,0,0,1,17.85-4.14c2.08-.27,4.2-.47,6.33-.6a106.49,106.49,0,0,1,11.85-.15c1.79.08,3.56.21,5.27.39a54.86,54.86,0,0,1,13.82,3,21.77,21.77,0,0,1,5.5,3,10.08,10.08,0,0,1,1.28,1.16c4.33,4.53,6.88,17.72,8.08,27.87.2,1.61.35,3.25.47,4.9h0s-12-1.9-13.5,10.25,12.56,15.4,13,15.5a43.86,43.86,0,0,1-2.57,11.18C91.08,121.49,81.37,131.65,68.93,133.19Z"/><path class="cls-9" d="M24.34,30.79a8,8,0,1,0,0,.06Z"/><path class="cls-9" d="M51.68,14.55a7.66,7.66,0,1,0-8.17,7.13,7.65,7.65,0,0,0,8.17-7.13Z"/><path class="cls-9" d="M74.77,34.34a8.52,8.52,0,1,0-11.69,2.9h0a8.51,8.51,0,0,0,11.68-2.87Z"/><path class="cls-9" d="M107.41,33.75a7.33,7.33,0,1,0-7.81,6.81h0A7.32,7.32,0,0,0,107.41,33.75Z"/><path class="cls-2" d="M23.15,30.71a7.36,7.36,0,1,0-7.85,6.84,7.36,7.36,0,0,0,7.85-6.84Z"/><path class="cls-2" d="M50.57,14.48a6.56,6.56,0,1,0-7,6.09,6.56,6.56,0,0,0,7-6.09Z"/><path class="cls-2" d="M73.78,33.75a7.36,7.36,0,1,0-10.1,2.51h0A7.37,7.37,0,0,0,73.78,33.75Z"/><path class="cls-2" d="M106.64,33.7a6.56,6.56,0,1,0-7,6.09,6.56,6.56,0,0,0,7-6.09Z"/><path class="cls-10" d="M101.2,33.77a1.89,1.89,0,1,0-2,2A2,2,0,0,0,101.2,33.77Z"/><path class="cls-9" d="M45,61.2a9.66,9.66,0,1,0-10.29,9A9.66,9.66,0,0,0,45,61.2Z"/><path class="cls-9" d="M65.35,58.59A8.73,8.73,0,1,0,56,66.7a8.73,8.73,0,0,0,9.35-8.11Z"/><path class="cls-9" d="M80.19,74.67a10.2,10.2,0,1,0-10.87,9.48h0a10.19,10.19,0,0,0,10.87-9.46Z"/><path class="cls-2" d="M44.09,61.28a8.64,8.64,0,1,0-9.24,8h0A8.64,8.64,0,0,0,44.09,61.28Z"/><path class="cls-2" d="M64.36,58.52A7.8,7.8,0,1,0,56,65.77a7.79,7.79,0,0,0,8.36-7.25Z"/><path class="cls-2" d="M79,74.48A9.12,9.12,0,1,0,69.28,83,9.11,9.11,0,0,0,79,74.48Z"/><path class="cls-11" d="M32,93.25s19-2.54,28.39,13.36v.06a30.82,30.82,0,0,1-12.78-2.07A34.15,34.15,0,0,1,31.9,93.32Z"/><path class="cls-2" d="M70.59,90.79l-.12.41s-2.5,6.56-7.22,5.28c-3.84-1-2.34-7.24-2.25-7.59h0l.11-.41C64.79,89.52,68.08,90.06,70.59,90.79Z"/><path class="cls-2" d="M61,88.87h0c-.21.38-3.46,6.31-7.75,4.5S50.81,85.65,51,84.9v-.06h0v-.73c.6.36,1.2.71,1.81,1A41.4,41.4,0,0,0,61,88.43Z"/><path class="cls-2" d="M51.07,84.82h0v.06c-.29.71-2.67,6.23-7.46,4s-1.31-9.36-1-9.9h0l.1-.19c2.7,1.59,5.54,3.59,8.42,5.32Z"/><path class="cls-2" d="M42.68,78.77l-.1.19h0c-.35.34-5.66,5.55-7.82,3.76-2.83-2.36,1-6.42,1-6.42V76A19.09,19.09,0,0,1,42.68,78.77Z"/><path class="cls-10" d="M51,84.9c-.23.75-2,6.74,2.21,8.49s7.54-4.12,7.75-4.5c-.09.35-1.59,6.54,2.25,7.59,4.72,1.28,7.22-5.28,7.22-5.28l.12-.41c2.6.75,4.35,1.7,4.76,3.63,1.09,5.19-5,11.6-15,12.25v-.06C51,90.71,32,93.25,32,93.25l-.08.07C27.74,87.68,27,81.69,30.13,78.17A6.19,6.19,0,0,1,35.82,76v.33s-3.88,4.06-1,6.42C37,84.54,42.29,79.33,42.64,79c-.29.54-3.9,7.59,1,9.9S50.75,85.61,51,84.9Z"/><path class="cls-10" d="M37.55,60.92a2.17,2.17,0,1,1-2-2.3h0A2.16,2.16,0,0,1,37.55,60.92Z"/><path class="cls-10" d="M58.74,58.62a2.17,2.17,0,1,1-2-2.3h0A2.16,2.16,0,0,1,58.74,58.62Z"/><path class="cls-10" d="M72,74.77a2.18,2.18,0,1,1-2-2.31h0A2.17,2.17,0,0,1,72,74.77Z"/><path class="cls-10" d="M18.13,30.37a2.33,2.33,0,1,0-2.49,2.16h0A2.33,2.33,0,0,0,18.13,30.37Z"/><path class="cls-10" d="M69.47,31.15a2.33,2.33,0,1,0-3.2.78h0a2.33,2.33,0,0,0,3.19-.78Z"/><path class="cls-10" d="M46,15a1.89,1.89,0,1,0-3.72-.66,2.69,2.69,0,0,0,0,.4A1.89,1.89,0,0,0,46,15.4,1.79,1.79,0,0,0,46,15Z"/></g></g></g></g></g></svg>