<svg xmlns="http://www.w3.org/2000/svg" viewBox="0 0 285 160"><defs><style>.cls-1,.cls-3{isolation:isolate;}.cls-2,.cls-3{fill:#fff;}.cls-3{font-size:40px;font-family:HelveticaNeue-Medium, Helvetica Neue;font-weight:500;letter-spacing:0.05em;}.cls-4{fill:none;}.cls-5{fill:#f39f26;}.cls-6{fill:#954f39;}.cls-7{fill:#ec7223;}</style></defs><g id="圖層_2" data-name="圖層 2"><g id="圖層_1-2" data-name="圖層 1"><g id="圖層_2-2" data-name="圖層 2"><g id="圖層_1-2-2" data-name="圖層 1-2"><g id="Group_5952" data-name="Group 5952"><g id="Group_5951" data-name="Group 5951"><g class="cls-1"><path class="cls-2" d="M167.05,39.61a43.58,43.58,0,0,1-3.52,5.83c.24.56.44,1.16.64,1.72a55,55,0,0,1,1.6,14c0,6.36-.72,10.2-2.08,11.52a4.73,4.73,0,0,1-3.2,1c-1.16,0-2.08,0-2.8-.08l-1.24-3.88a21.48,21.48,0,0,0,3.08.28,1.47,1.47,0,0,0,1.44-.64c.52-.92.8-3.72.8-8.44,0-.76,0-1.48,0-2.12a26.87,26.87,0,0,1-4.36,5.24L155,60.6a24.62,24.62,0,0,0,6.28-7.84,27.8,27.8,0,0,0-.76-3.88c-1,1-2.12,2-3.4,3l-2.24-3.64a19.14,19.14,0,0,0,4-3.32,21.18,21.18,0,0,0-3.08-4.59l3.28-2.52a34.35,34.35,0,0,1,2.48,3.63,32.54,32.54,0,0,0,2.2-3.87Zm9.76,15.27h-6.08V58h6.16V72.92h-3.76V71.6h-2.4v2H167V42.08h2.24a38.23,38.23,0,0,0,1.24-4.79l3.92.56a22.62,22.62,0,0,1-1.2,4.23h3.64Zm-3.76-3.56V45.68h-2.32v5.64ZM173.13,68V61.6h-2.4V68Zm8.16-19.16V69.24h-3.24V45.44h4.16V42.12h-4.44V38.45h13.07v3.67h-4.6v3.32h4.4V65.32q0,3.84-2.88,3.84h-1.84V74h-3.2V48.88Zm5.31,16.8c.52,0,.8-.36.8-1V48.88h-1.48V65.64Z"/><path class="cls-2" d="M217.29,53.72V48.84a58.71,58.71,0,0,0,8.88-6.36h-21V38.57h26.59v3.91a75.13,75.13,0,0,1-10.23,8.44v2.8H236.2V57.8H221.49v12c0,2.68-1.36,4-4,4h-7.12l-1.12-4c2,.08,4.16.12,6.52.12,1,0,1.52-.48,1.52-1.44V57.8H200.93V53.72Z"/><path class="cls-2" d="M281.32,44.16H252.53V53q-.24,13.14-4.36,21L245,71.28q3.24-6.54,3.36-18.24V40.17h14.44a20.3,20.3,0,0,0-1.32-2.64l4.4-.72c.4,1,.84,2.15,1.24,3.36h14.19ZM264.57,61.32V45.16h4.12V61.32h11V65.2h-11v4.24h13v4H252.09v-4h12.48V65.2h-10.2V61.32Zm-9.28-.64-2.56-3.2c2.4-2.92,4-6.84,4.88-11.8l3.84.72a45.69,45.69,0,0,1-1.32,5.36,34.21,34.21,0,0,1,4.12,4.76l-2.36,3.6a45.38,45.38,0,0,0-3-5.2A24,24,0,0,1,255.29,60.68Zm16.12-.2-2.52-3.16c2.28-2.88,3.83-6.8,4.63-11.68l3.72.64a42.51,42.51,0,0,1-1.16,5c1.8,1.68,3.6,3.56,5.36,5.56l-2.32,3.52c-1.64-2.56-3-4.56-4.12-6A21.67,21.67,0,0,1,271.41,60.48Z"/></g><text class="cls-3" transform="translate(183.71 122.88)">Leo</text></g><rect id="Rectangle_652" data-name="Rectangle 652" class="cls-4" width="285" height="160"/><path class="cls-5" d="M85.68,31.1C72.19,29.28,55,28.05,44.23,59.24c-9.65,27.89-10,71.59-10,71.59l68,1S98.48,115.1,101.41,93s7.2-36.27,5.6-43.74S99.54,33,85.68,31.1Z"/><path class="cls-5" d="M36,115.43s-1.87,14.27-2.4,19.6-.8,6.67,2.13,7.47,5.33,1.6,6,.8a1.13,1.13,0,0,0-.13-1.55s2,1.07,3,.08-.27-2-.27-2,1.64,1,2.31.22.08-1.32-.36-1.69c-1-.82-3.66-1.7-3.12-3.3s6.13-8.27,6.13-8.27Z"/><path class="cls-5" d="M84.47,116.15s4.22,9.82,6.93,16.91c1.92,5,2.8,8.35,5.82,8.77s5.49.91,6,0a1.12,1.12,0,0,0-.33-1.51s2.14.8,3-.31-.53-2-.53-2,1.76.8,2.32-.08-.09-1.32-.57-1.63c-1.07-.69-3-1.27-3.52-2.87a153.42,153.42,0,0,1-3.73-16Z"/><path class="cls-5" d="M51,52.24C48.6,52.45,27.8,68.89,15.43,88,6.94,101.18,1.1,129,1.68,135.76c.41,4.65,2.84,7.08,4.45,7.08s3-4.65,3-4.65,1.42,4.73,4.65,4.24c4-.6,3-4.65,3-4.65s2.63,4.05,5.46,2.83,1.62-5.05.2-10.31-2.23-16,4-32.76c11.12-29.73,24.87-37,24.87-37Z"/><path class="cls-5" d="M95.89,47.28c2.35.52,20.55,19.39,30.15,39.78,6.59,14,10.38,38.38,7.17,48.59-1.38,4.41-3.71,6.56-5.29,6.35s-2.36-5-2.36-5-2,4.45-5.12,3.55c-3.88-1.13-2.36-5-2.36-5s-3.11,3.62-5.72,2.05-1.36-5,1.66-9.44c3.4-5,5.14-16.12,1.2-33.4-7-30.6-20.83-39.49-20.83-39.49Z"/><path class="cls-5" d="M65.63,33.64a16.87,16.87,0,0,0,.4-6.39c-.57-5.82-3.6-7.59-3.6-7.59a5.88,5.88,0,0,1,4.71-4.45c5.16-.8,5.78,3.82,5.78,3.82a9.71,9.71,0,0,0-2.09,4.82,37.18,37.18,0,0,0,0,8.19Z"/><path class="cls-6" d="M64.91,19.81h-.08a.6.6,0,0,1-.55-.65,3,3,0,0,1,3.08-2.53c3.71-.31,4.11,2,4.13,2.11a.51.51,0,0,1-.47.51.7.7,0,0,1-.72-.32c0-.05-.3-1.32-2.84-1.11-1.8.15-2,1.31-2,1.44A.58.58,0,0,1,64.91,19.81Z"/><path class="cls-5" d="M93.8,37.78a16.76,16.76,0,0,0,4.53-4.54c3.41-4.74,2.31-8.07,2.31-8.07a5.86,5.86,0,0,1,6.47-.22c4.4,2.8,1.82,6.68,1.82,6.68a9.76,9.76,0,0,0-4.75,2.23A37.47,37.47,0,0,0,98.76,40Z"/><path class="cls-6" d="M102.4,26.92s0,0-.06-.05a.6.6,0,0,1,0-.85c.57-.56,2.14-1.24,4,.13,3,2.22,1.76,4.23,1.71,4.31a.51.51,0,0,1-.7.07.69.69,0,0,1-.32-.71s.65-1.18-1.4-2.71c-1.45-1.07-2.35-.31-2.45-.22A.58.58,0,0,1,102.4,26.92Z"/><path class="cls-2" d="M100.83,43.72c-2-3.41-9.2,2.2-19.09.31-6.48-1.24-12.86-9.36-16.29-6.72S65.47,50.93,76,54C93.23,59.12,104.18,49.47,100.83,43.72Z"/><path class="cls-6" d="M100.83,43.75c-.65-1.1-1.83-1.26-3.48-1,.26.89.6,2.9-1.47,3.13s-2-1.56-1.88-2.45c-1.32.29-2.8.61-4.41.82.14.88.16,2.64-1.89,3s-2-1.66-1.82-2.72a21.62,21.62,0,0,1-4.14-.4L81,43.87c-.34.59-1.78,2.85-3.57,1.56-1.55-1.13-.7-2.55-.2-3.18-1.37-.76-2.7-1.66-4-2.5-.44.41-2.59,2.27-4.1.66-1.18-1.25-.27-2.35.38-2.9-1.59-.76-3-1-4-.17-1.77,1.36-1.71,4.94.21,8.52.27-.52.89-1.15,2.19-.42,1.56.89.63,2.94.19,3.73A17.38,17.38,0,0,0,72,52.31c.2-.79.86-2.47,2.86-1.41a2.18,2.18,0,0,1,1,3.12l.14,0a35.75,35.75,0,0,0,6,1.24c0-.76.41-2.14,2.69-2s2.48,1.38,2.47,2.12a23.49,23.49,0,0,0,5.77-1.08,2.4,2.4,0,0,1,1-3.08c1.93-1.35,2.79.4,3.06,1.15C100.85,49.94,102.39,46.42,100.83,43.75Z"/><path class="cls-6" d="M63.28,41a.26.26,0,0,1-.27-.24c0-.16-.25-3.87,2.09-4.93s5.09.88,5.21,1a.27.27,0,0,1,0,.37.28.28,0,0,1-.38.06s-2.52-1.88-4.66-.91-1.78,4.37-1.78,4.41a.27.27,0,0,1-.24.28Z"/><path class="cls-6" d="M101.81,49a.3.3,0,0,1-.15,0,.27.27,0,0,1-.07-.37s1.61-2.54.13-4.7a4.29,4.29,0,0,0-2-1.43.27.27,0,1,1,.15-.51,4.73,4.73,0,0,1,2.34,1.64c1.68,2.45,0,5.18-.13,5.3A.27.27,0,0,1,101.81,49Z"/><path class="cls-7" d="M39.42,77.38s6-2.14,7.41.86,3.2,9.4.4,12-10,1.6-10,1.6.38-4,1-7.4S39.42,77.38,39.42,77.38Z"/><path class="cls-7" d="M54.23,93.44c-4,1.2-6.2,1-4.6,4.6s5,6.6,6.6,6,5.8-5.2,5.2-7.4S56.23,92.84,54.23,93.44Z"/><path class="cls-7" d="M40.83,101.64c3.39-.85,5.4-1.8,8,.8s5.4,5.6,2.2,9.2-7.8,5.2-10.2,3.8-4.4-8.4-3.4-10.2S40,101.84,40.83,101.64Z"/><path class="cls-7" d="M100.32,113.23c-.8,0-6.29,0-7.69,2.21s-3.2,5.6-1.4,7,6.58,3.74,8.2,3.8c1,0,2.34,0,2.34,0a41.5,41.5,0,0,1-.92-5.67C100.55,117.4,100.32,113.23,100.32,113.23Z"/><path class="cls-7" d="M89.43,92.44c-3.53.35-5.2,2-4,4.6s2.8,4.6,4.6,4.4,5.2-.6,5.6-3.4S91.43,92.24,89.43,92.44Z"/><path class="cls-7" d="M92,104.44c-4-.81-5.2,1.4-4.2,3.2s2,3,3.8,2.6,5.6-.8,5.2-2.8S94,104.84,92,104.44Z"/><path class="cls-7" d="M100.9,97.59s-7.07-3.15-6.67-7.15,2.4-7.4,4.2-7.8,4.36.84,4.36.84-.3,2.6-.85,5.91C101.3,93.25,100.9,97.59,100.9,97.59Z"/><path class="cls-7" d="M54.63,83.64c-2.26.57-3.8,2.4-2.4,3.8s3.4,2.4,4.6,1.6,3.4-2.6,1.8-4.2S56.23,83.24,54.63,83.64Z"/><path class="cls-7" d="M34.4,123.86s2.83-3.62,4.63-1.42,3,4.8,1.6,7-6.75,2.49-6.75,2.49Z"/><path class="cls-7" d="M47.19,53.23s-.76,5,2.64,5.61,7.2-1.4,7.6-2.8-1.4-8-2.8-8.8-4.6-.8-4.6-.8a27.93,27.93,0,0,0-1.5,2.67A16.2,16.2,0,0,0,47.19,53.23Z"/><path class="cls-7" d="M105.34,68.61c-1.6-1-3.11-1.37-3.91-1s-3.2,1.6-2.4,3.8,4.54,6.23,4.82,5.46S105.34,68.61,105.34,68.61Z"/><path class="cls-7" d="M7,107.92s.26,4.92,3.86,4.52,7.4-2.2,7-4.4-3-7.4-4.6-7.4-4.8,2.75-4.8,2.75Z"/><path class="cls-7" d="M17.83,96.64c-.25,2.27,2.4,3.4,3,3.2s3.4-2.2,3.4-3.4a3.46,3.46,0,0,0-3.4-3.2C18.63,93.24,18,94.84,17.83,96.64Z"/><path class="cls-7" d="M20,83a2.11,2.11,0,0,0,1.4,2.8c1.4.6,3.2.4,3.8-1s1-3-.2-4S20.23,82,20,83Z"/><path class="cls-7" d="M117,119.41c.6,1.8,2.42,5.23,4.62,4.63s6-3.4,5.6-5.4-2.2-6-4.8-5.6-5,3.36-5,3.36Z"/><path class="cls-7" d="M125,97.44c-1.38.63-3.6,4.6-3.6,6s3.6,5.6,5.4,5.6,5.45-2.19,5.45-2.19-.38-2.07-1.18-5.13c-.84-3.23-1.47-5.18-1.47-5.18A11.39,11.39,0,0,0,125,97.44Z"/><path class="cls-7" d="M118.42,89.84c1.8,2,7.2,3.2,6.8.8s-1.2-4.2-2.6-4.6S116.62,87.84,118.42,89.84Z"/><path class="cls-7" d="M134.28,129.32c-1.4-.6-2.26-2.48-2.46-4.08s2-7.48,2-7.48a43.59,43.59,0,0,1,.52,4.88A54.44,54.44,0,0,1,134.28,129.32Z"/><path class="cls-7" d="M94,75.84c-2.66-.83-3.6.2-2.6,2s1.8,3.2,3.4,2.6S97.23,76.84,94,75.84Z"/><path class="cls-6" d="M4.7,141.63S7,148,7.51,147.83s-.1-6.49-.1-6.49-.26-.91-1.49-.59S4.7,141.63,4.7,141.63Z"/><path class="cls-6" d="M12.3,140.63s2.29,6.38,2.81,6.2-.1-6.49-.1-6.49-.26-.91-1.48-.6S12.3,140.63,12.3,140.63Z"/><path class="cls-6" d="M20.51,139.09s2.29,6.38,2.81,6.2-.11-6.48-.11-6.48-.26-.91-1.48-.6S20.51,139.09,20.51,139.09Z"/><path class="cls-6" d="M129.71,141.62s-3.18,6-3.67,5.73,1-6.4,1-6.4.39-.87,1.56-.38S129.71,141.62,129.71,141.62Z"/><path class="cls-6" d="M122.33,139.54s-3.18,6-3.67,5.72,1-6.4,1-6.4.39-.86,1.56-.38S122.33,139.54,122.33,139.54Z"/><path class="cls-6" d="M114.44,136.84s-3.19,6-3.68,5.72,1-6.4,1-6.4.39-.86,1.55-.38S114.44,136.84,114.44,136.84Z"/></g></g></g></g></g></svg>