<svg xmlns="http://www.w3.org/2000/svg" viewBox="0 0 292.34 160"><defs><style>.cls-1,.cls-3{isolation:isolate;}.cls-2,.cls-3{fill:#fff;}.cls-3{font-size:32px;font-family:HelveticaNeue-Medium, Helvetica Neue;font-weight:500;letter-spacing:0.05em;}.cls-4{fill:none;}.cls-5{fill:#bf75ad;}.cls-6{fill:#aa4c97;}.cls-7{fill:#fffdf2;}.cls-8{fill:#c3a2cb;}.cls-9{fill:#e6c2db;}.cls-10{fill:#f0d3e4;}.cls-11{fill:#b6545a;}.cls-12{fill:#231815;}</style></defs><g id="圖層_2" data-name="圖層 2"><g id="圖層_1-2" data-name="圖層 1"><g id="圖層_2-2" data-name="圖層 2"><g id="圖層_1-2-2" data-name="圖層 1-2"><g id="Group_5952" data-name="Group 5952"><g id="Group_5951" data-name="Group 5951"><g class="cls-1"><path class="cls-2" d="M139.13,62.56l-.48-3.44,2.16-.24V40.45h4.56a15.76,15.76,0,0,0,1.08-3.28l3.88.52a16.77,16.77,0,0,1-1.16,2.76h6.11V57.76c.68-.72,1.32-1.4,1.92-2.08l2,2.08a53.07,53.07,0,0,1-3.92,4v7.56c0,2.88-1.32,4.36-3.91,4.36h-4.32l-1-3.56,4.12.16c1,0,1.55-.6,1.55-1.76v-3.8a59.45,59.45,0,0,1-11.87,7.08l-2-3a61.12,61.12,0,0,0,13.91-7.84V60.4A119.14,119.14,0,0,1,139.13,62.56Zm12.63-19h-7.43v2.68h7.43ZM144.33,52h7.43V49.32h-7.43Zm0,6.36c2.68-.4,5.16-.88,7.43-1.36v-2h-7.43Zm23.31-13.68V37.13h3.8v7.59h3.36v3.64h-3.36V69.44c0,3-1.48,4.56-4.36,4.56h-5.36l-.84-3.72c1.72.16,3.36.24,4.88.24,1.24,0,1.88-.68,1.88-2V48.36h-10V44.72ZM166,61.44,163,63a63.1,63.1,0,0,0-4.4-9.16l3.08-1.36A56,56,0,0,1,166,61.44Z"/><path class="cls-2" d="M216.92,40.68a80.36,80.36,0,0,1-12.48,2.16v5.8h12.4v3.68h-12.4V58h15.4v3.64h-15.4v8.2c0,2.64-1.4,4-4.15,4h-6.2l-.88-3.68c2,.12,3.91.2,5.75.2,1.12,0,1.68-.48,1.68-1.4V61.64H183.81V58h16.83V52.32H187.13V48.64h13.51V43.16c-4.07.28-8.43.44-13.15.44l-1.2-3.43c11.4,0,21-.92,28.75-2.68Z"/><path class="cls-2" d="M264.52,44H235.57V53c-.16,8.72-1.6,15.72-4.4,21l-2.84-2.52q3.3-6.66,3.48-18.48V40.33h14.51a19.24,19.24,0,0,0-1.4-2.88l4-.64c.44,1.08.88,2.23,1.32,3.52h14.28ZM248,61.52V45.2h3.72V61.52h11.16V65H251.72v4.64h13.16v3.64H235.41V69.68H248V65H237.65V61.52Zm-9.63-.92-2.32-2.92c2.44-3,4.07-7,4.95-12l3.52.64c-.4,2-.84,3.76-1.35,5.44a32.46,32.46,0,0,1,4.19,5L245.24,60a36.35,36.35,0,0,0-3.16-5.36A23.6,23.6,0,0,1,238.37,60.6Zm16.15-.2-2.32-2.88A26,26,0,0,0,257,45.64l3.4.6a41.26,41.26,0,0,1-1.2,5.08q2.64,2.58,5.4,5.76l-2.08,3.2c-1.72-2.68-3.16-4.72-4.28-6.16A23.22,23.22,0,0,1,254.52,60.4Z"/></g><text class="cls-3" transform="translate(116.47 122.88)">Sagittarius</text></g><rect id="Rectangle_652" data-name="Rectangle 652" class="cls-4" width="285" height="160"/><path class="cls-5" d="M93.15,69.51s11.63-2.1,15-7.48c4.3-6.82,3.51-8.06,3.51-10.17s-3.67-3.64-3.17-4.79,4,1,4,1,1.34-8.24,2.17-8.05.61,4.67.61,4.67,2.15-6.22,3.11-5.71-1,6.48-1,6.48,2.1-3.42,2.67-3c.89.68-3.76,7.9-4.76,9.81-2.25,4.33-2.73,8.86-5.85,12.78-6.45,8.11-16.85,10.43-16.85,10.43Z"/><path class="cls-5" d="M75.92,86.12s-1.68,13.57-2.74,23.36-2.64,17.31-2.13,18.26,6.07,5.28,4.92,7-9.52-.62-10.38-2.72,1.17-14.6.62-19.38-4.43-22.38-4.43-22.38.08-7.48,3.42-7.15S75.92,86.12,75.92,86.12Z"/><path class="cls-5" d="M30.84,85.35s1.34,13.77,2.51,23.55,2.83,17.26,2.33,18.22-6,5.37-4.84,7.09,9.52-.76,10.35-2.87-1.33-14.58-.83-19.37,4.17-22.44,4.17-22.44-.17-7.48-3.5-7.1S30.84,85.35,30.84,85.35Z"/><path class="cls-6" d="M25.35,40.4A25.3,25.3,0,0,0,19,34.21c-3.57-2.17-6.35-3.7-6.35-3.7l-1.14,2.26s2,.45,4.49,3.6a42.45,42.45,0,0,1,4.59,8.15l4.81-4.12Z"/><path class="cls-5" d="M8.26,33.45c1,2.57,3.6,3.73,5.83,2.6a5.4,5.4,0,0,0,2.26-6.7c-1-2.57-3.6-3.73-5.83-2.6A5.39,5.39,0,0,0,8.26,33.45Z"/><path class="cls-7" d="M14.86,31.31a3,3,0,0,0-4.18-1.86,3.37,3.37,0,0,0-1.45,1.49,3.74,3.74,0,0,1,1.89-3.46,3,3,0,0,1,4.18,1.86,4.11,4.11,0,0,1-.17,3.32A4,4,0,0,0,14.86,31.31Z"/><path class="cls-6" d="M76.14,40.42a26.71,26.71,0,0,1,5.71-7c3.33-2.64,5.93-4.53,5.93-4.53L89.14,31s-1.94.72-4.08,4.18a43.88,43.88,0,0,0-3.73,8.72l-5.19-3.44Z"/><path class="cls-5" d="M92.39,31.21c-.71,2.68-3.19,4.19-5.52,3.37a5.26,5.26,0,0,1-2.94-6.35c.72-2.69,3.19-4.2,5.53-3.37A5.24,5.24,0,0,1,92.39,31.21Z"/><path class="cls-7" d="M85.61,30a3.12,3.12,0,0,1,4-2.42,3.23,3.23,0,0,1,1.6,1.29,3.58,3.58,0,0,0-2.23-3.18,3.12,3.12,0,0,0-4,2.41,4.06,4.06,0,0,0,.51,3.27A4,4,0,0,1,85.61,30Z"/><path class="cls-8" d="M44.69,41.46c-4-2.64-9.2-5.34-14-5.34-5.08,0-15,2.68-19.27,6.19,2.53,2.15,9.09,3,12,4.55A29.31,29.31,0,0,0,4.32,66.34c3.12.57,6.64-1.84,9.87-1.88C8.08,68.31,3,82.1,1.65,89.74c5-4.52,9.61-6.69,16.8-5.67-4.65,2.53-6.81,7.12-7.35,16,4-1.48,7.44-5.29,11.69-6-7.17,7.27-6.13,13.5-5.43,21.79,3.32-3.88,9.72-6.67,13.24-9-.35,5,.46,9.89,2.74,12.48,1.62-3.39,4-8.76,6.68-11,.47,6.24,1.4,11.85,5.48,15.83,1.84-4.68,7-15.72,7.68-15.6,0,0,11.8,7.42,14.91,13.43.14-4.55.19-12.77-1.33-16.62,3.49-.19,5.77,2,8.79,3.83,2.72,1.65,5.46,5,7.35,7.8.26-5.65.18-13-2.79-17.13,5.78-.07,10.25,1.66,15.25,5.37-1.89-7.29-5.44-12.85-10.57-13.81,6.48-1.31,11.58-.26,18.14,4.86-.48-7.18-7.34-15.86-15.72-16.69,2.82-1.82,9.49-2.49,14.72.06a16.88,16.88,0,0,0-13.7-9.36c5.55-1.57,11.48-.61,16.93,1.69-2-15.85-18-16.24-23.93-14.73,3.7-2.41,8.92-3.2,13.15-3.07,2.89.09,4,.41,7.22,1.69-7-11.1-18.48-13.94-31.74-10.11a78.22,78.22,0,0,1,7.53-4c-6.74-4.48-13.08-1.28-16,1-.12.15-.12.16,0,0a27.72,27.72,0,0,1,6.25-8.51C53.85,32.15,44.69,41.46,44.69,41.46Z"/><path class="cls-9" d="M41.89,40.84c-4.23-2.05-9.72-4-14.48-3.28-5,.72-14.6,4.82-18.44,8.92,2.75,1.76,9.34,1.67,12.44,2.78-5,2.15-14.76,9.62-16.86,22.08,3.16.12,6.38-2.78,9.58-3.29C8.49,72.76,5,87.17,4.45,94.94c4.47-5.2,8.81-8,16.05-8-4.33,3.18-6,8-5.54,16.92,3.83-2,6.8-6.32,10.94-7.65-6.32,8.24-4.61,14.28-3,22.4,2.87-4.33,8.92-8,12.15-10.83.2,5,1.54,9.73,4.09,12,1.23-3.59,3-9.28,5.41-11.92,1.15,6.12,2.69,11.55,7.17,14.91,1.32-4.91,5.24-16.61,5.91-16.58,0,0,12.52,5.66,16.27,11.17-.37-4.54-1.22-12.69-3.14-16.3,3.44-.69,6,1.16,9.14,2.54,2.88,1.24,6,4.16,8.14,6.68-.35-5.64-1.24-12.88-4.63-16.6,5.72-.9,10.34.17,15.71,3.13-2.67-7-6.8-12-12-12.18,6.29-2.23,11.46-1.92,18.54,2.21-1.27-7-9-14.67-17.43-14.29,2.6-2.21,9.15-3.84,14.62-2.06a16.19,16.19,0,0,0-14.62-7.31c5.33-2.36,11.32-2.26,17-.77C101.48,46.9,85.54,48.83,79.85,51.17c3.41-2.92,8.5-4.45,12.71-4.93,2.88-.33,4-.17,7.35.63-8.2-10-19.86-11.16-32.59-5.46a83.73,83.73,0,0,1,7-5c-7.17-3.47-13.11.61-15.72,3.26-.1.16-.09.17,0,0a29.23,29.23,0,0,1,5.27-9.34C50,30.29,41.89,40.84,41.89,40.84Z"/><path class="cls-10" d="M51.3,40.89c-3-3.27-7-6.9-11.21-8.07-4.42-1.25-13.57-1.34-17.94.68C24,36,29.51,38.34,31.8,40.4c-4.82,0-15,2.63-20.28,12.3,2.61,1.26,6.12,0,8.94.77-6,1.86-13,12.63-15.61,19,5.2-2.71,9.62-3.48,15.69-.83-4.52,1.06-7.25,4.53-9.36,12.13,3.77-.31,7.46-2.79,11.3-2.38-7.6,4.58-7.85,10.27-8.77,17.65,3.61-2.57,9.7-3.43,13.2-4.59-1.23,4.25-1.43,8.72.08,11.53,2-2.55,5.15-6.64,7.86-8-.75,5.56-1,10.67,1.84,15.14,2.47-3.63,9-12,9.58-11.72,0,0,8.91,9.35,10.51,15.35,1-3.93,2.52-11.08,1.92-14.81,3.08.69,4.66,3.16,7,5.49,2.06,2.1,3.83,5.68,4.95,8.59,1.28-4.85,2.56-11.24.75-15.61,5.05,1.35,8.62,4,12.29,8.41C83.35,102,81.28,96.27,77,94.17c5.89.45,10.13,2.61,14.91,8.68.91-6.37-3.46-15.62-10.61-18.39,2.79-.89,8.73.15,12.82,3.66A16.55,16.55,0,0,0,83.9,76.61c5.13,0,10.11,2.27,14.44,5.61,1.19-14.3-12.7-18.56-18.12-18.69,3.67-1.19,8.37-.6,12,.54a16.43,16.43,0,0,1,6,3.24C94.15,55.92,84.71,50.65,72.44,50.74a67.36,67.36,0,0,1,7.3-1.6,12,12,0,0,0-14.08-3.06c-.13.1-.13.11,0,0a22.63,22.63,0,0,1,7-5.89A24.38,24.38,0,0,0,51.3,40.89Z"/><ellipse class="cls-11" cx="35.67" cy="62.69" rx="5.45" ry="6.24"/><ellipse class="cls-2" cx="35.59" cy="62.72" rx="4.56" ry="5.24"/><ellipse class="cls-12" cx="35.59" cy="62.72" rx="2.67" ry="3.07"/><path class="cls-2" d="M35.93,62a1.09,1.09,0,1,1-1.08-1.23A1.17,1.17,0,0,1,35.93,62Z"/><ellipse class="cls-11" cx="67.28" cy="62.37" rx="5.45" ry="6.24"/><path class="cls-2" d="M71.76,62.4c0,2.89-2,5.24-4.56,5.24s-4.56-2.35-4.56-5.24,2-5.25,4.56-5.25S71.76,59.5,71.76,62.4Z"/><path class="cls-12" d="M69.87,62.4a2.7,2.7,0,1,1-2.67-3.07A2.88,2.88,0,0,1,69.87,62.4Z"/><path class="cls-2" d="M67.54,61.71a1.09,1.09,0,1,1-1.08-1.23A1.17,1.17,0,0,1,67.54,61.71Z"/><path class="cls-11" d="M31.19,48.75a10.86,10.86,0,0,1,1.26,1.83,7.22,7.22,0,0,0-2.77,1.23c.82.41,1.87-.22,2.72.1a7.58,7.58,0,0,0-2.06,1.69c1.4-.14,2.15-.27,3.62-.47a8.48,8.48,0,0,0,.56,1.21,12,12,0,0,1,1.33-1.14s0,1.69.61,2a5.48,5.48,0,0,1,1.32-1.47,4.55,4.55,0,0,0,.87,2.13c.47-.54.73-.87,1.23-1.37a3.81,3.81,0,0,0,1,1.64,4.18,4.18,0,0,1,.71-1.3,2,2,0,0,0,1.75,1.63c-.42-.43-.3-1.32-.15-2.08a4.44,4.44,0,0,0,2.36.38,4.61,4.61,0,0,0-2.18-2,3.84,3.84,0,0,0,1.19-1.1,4.2,4.2,0,0,0-2.46-.33c.32-.67.15-1,.56-1.5a3.48,3.48,0,0,0-2.44.8c.29-.66,0-1.13.24-1.85-.93-.28-2.14,1.55-2.14,1.55s-.5-1.91-1.27-2.32c-.32.73-.49,1.52-.8,2.22-.31-.4-1.18-2.62-1.28-2.61s-.79,1.85-1.1,2.21A7.08,7.08,0,0,0,31.19,48.75Z"/><path class="cls-11" d="M58,51.78a13.91,13.91,0,0,1,2.09,1.13,5.7,5.7,0,0,0-1.78,2.21c.94,0,1.53-.95,2.44-1a6.47,6.47,0,0,0-.91,2.34c1.16-.69,1.75-1.1,2.93-1.87a13,13,0,0,0,1.15.85,9.8,9.8,0,0,1,.55-1.55c0-.06.89,1.51,1.6,1.53a4.71,4.71,0,0,1,.39-1.85,5.46,5.46,0,0,0,1.89,1.55c.14-.67.18-1.07.36-1.71a4.53,4.53,0,0,0,1.74,1.06A3.56,3.56,0,0,1,70.36,53a2.35,2.35,0,0,0,2.41.75c-.6-.22-1-1.06-1.25-1.8a4.21,4.21,0,0,0,2.28-.61,5.41,5.41,0,0,0-3-.86A3.26,3.26,0,0,0,71.3,49a4,4,0,0,0-2.34.69c-.08-.72-.42-1-.31-1.55-.89.18-1.3,1-1.72,1.69-.09-.71-.6-1-.77-1.75-1,.13-1.06,2.25-1.06,2.25s-1.47-1.51-2.36-1.56c.11.78.38,1.55.49,2.3-.49-.23-2.44-1.86-2.53-1.81s.3,2,.21,2.41A7.61,7.61,0,0,0,58,51.78Z"/><path class="cls-11" d="M52.35,82.33a18.6,18.6,0,0,1-10.72-3.12.85.85,0,0,1-.19-1.07.62.62,0,0,1,.93-.21h0a17.86,17.86,0,0,0,10.5,2.86c8.5-.22,11.32-3.48,11.35-3.52a.62.62,0,0,1,.94,0,.85.85,0,0,1,0,1.08c-.12.16-3.14,3.77-12.29,4Z"/><path class="cls-5" d="M22,81.07s-8.06,5.6-9.74,11.77c-2.14,7.8-.93,8.42-.25,10.16s4.91,1.14,4.77,2.35-4.36,1.24-4.36,1.24,1.33,7.48.42,7.75-2.13-3.55-2.13-3.55-.16,6.22-1.3,6.29-1.13-5.83-1.13-5.83-1,3.89-1.73,3.82c-1.13-.11,1.23-8.43,1.62-10.52C9,99.84,8.05,95.86,9.93,91c3.89-10,8.92-12.54,8.92-12.54Z"/></g></g></g></g></g></svg>