<svg xmlns="http://www.w3.org/2000/svg" xmlns:xlink="http://www.w3.org/1999/xlink" width="285.722" height="160" viewBox="0 0 285.722 160">
  <defs>
    <clipPath id="clip-path">
      <path id="Path_411" data-name="Path 411" d="M777.18,202.54c-3.683-.093-6.325-.574-9.422-2.638-2.6-1.733-5.067-3.671-6.024-6.774a.781.781,0,0,0-1.408-.18c-4.1,6.113,2.01,17.64,9.07,18.433.556.061.736-.678.413-1.019l6.752-6.847a6.42,6.42,0,0,0,.8-.33A.349.349,0,0,0,777.18,202.54Z" transform="translate(-759.004 -192.582)" fill="none"/>
    </clipPath>
    <clipPath id="clip-path-2">
      <path id="Path_415" data-name="Path 415" d="M799.6,202.5c3.681-.111,6.321-.605,9.41-2.684,2.593-1.746,5.047-3.7,5.989-6.8a.78.78,0,0,1,1.406-.188c4.13,6.092-1.921,17.65-8.977,18.477-.554.065-.738-.672-.419-1.017l-6.784-6.812a6.324,6.324,0,0,1-.8-.328A.348.348,0,0,1,799.6,202.5Z" transform="translate(-799.26 -192.463)" fill="none"/>
    </clipPath>
  </defs>
  <g id="Group_5953" data-name="Group 5953" transform="translate(-313 -13430)">
    <g id="Group_5951" data-name="Group 5951" transform="translate(0 -15.123)">
      <g id="Group_4449" data-name="Group 4449" transform="translate(440.723 13470.123)">
        <text id="天秤座" transform="translate(92 45)" fill="#fff" font-size="40" font-family="PingFangTC-Medium, PingFang TC" font-weight="500" letter-spacing="0.13em"><tspan x="-65.2" y="0">天秤座</tspan></text>
      </g>
      <g id="Group_4453" data-name="Group 4453" transform="translate(446.723 13515)">
        <text id="Libra" transform="translate(87 53)" fill="#fff" font-size="40" font-family="HelveticaNeue-Medium, Helvetica Neue" font-weight="500" letter-spacing="0.05em"><tspan x="-50.68" y="0">Libra</tspan></text>
      </g>
    </g>
    <g id="Group_5952" data-name="Group 5952" transform="translate(-609.728 -1175.842)">
      <g id="Group_4463" data-name="Group 4463" transform="translate(922.728 14617.842)">
        <path id="Path_407" data-name="Path 407" d="M799.957,249.621s.093,5.542-.362,6.541c-1.76,3.871-2.862-2.179-5.722-2.043-1.106.051-2.816,6.948-1.727,7.492s2.907-4,2.907-4,.926,4.343,5.085,3.815c5.724-.726,5.451-12.351,5.451-12.351S801.763,248.163,799.957,249.621Z" transform="translate(-712.564 -128.243)" fill="#da9914"/>
        <path id="Path_408" data-name="Path 408" d="M781.566,250.635s-.888,5.471-1.513,6.374c-2.417,3.5-2.431-2.652-5.271-3.024-1.1-.142-4,6.343-3.022,7.071s3.566-3.42,3.566-3.42.144,4.438,4.333,4.654c5.759.3,7.545-11.2,7.545-11.2S783.988,249.188,781.566,250.635Z" transform="translate(-732.35 -126.973)" fill="#da9914"/>
        <g id="Group_126" data-name="Group 126" transform="translate(9.155 0)">
          <g id="Group_74" data-name="Group 74" transform="translate(5.219 9.375)">
            <g id="Group_72" data-name="Group 72">
              <g id="Group_71" data-name="Group 71" clip-path="url(#clip-path)">
                <path id="Path_409" data-name="Path 409" d="M777.18,202.54c-3.683-.093-6.325-.574-9.422-2.638-2.6-1.733-5.067-3.671-6.024-6.774a.781.781,0,0,0-1.408-.18c-4.1,6.113,2.01,17.64,9.07,18.433.556.061.736-.678.413-1.019l6.752-6.847a6.42,6.42,0,0,0,.8-.33A.349.349,0,0,0,777.18,202.54Z" transform="translate(-759.004 -192.582)" fill="#023b41"/>
                <path id="Path_410" data-name="Path 410" d="M761.685,192.24a12.282,12.282,0,0,0-.433,7.158c.936,3.865,3.734,7.071,7.017,9.315a48.852,48.852,0,0,0,10.783,5.03c-.125,2.007-1.984,3.56-3.946,4.007a14.155,14.155,0,0,1-5.971-.362c-2.093-.431-4.278-.9-5.927-2.261a10.384,10.384,0,0,1-2.518-3.4,24.115,24.115,0,0,1,.352-22.118" transform="translate(-759.812 -195.49)" fill="#022a2a"/>
              </g>
            </g>
            <g id="Group_73" data-name="Group 73" transform="translate(1.844 1.149)">
              <path id="Path_412" data-name="Path 412" d="M759.942,193.363a14.224,14.224,0,0,0,7.63,9.238c.178.077.408-.144.227-.3a28.808,28.808,0,0,1-7.571-9.064c-.081-.16-.332-.047-.287.123Z" transform="translate(-759.936 -193.163)" fill="#0c5d61"/>
            </g>
          </g>
          <g id="Group_78" data-name="Group 78" transform="translate(84.838 9.14)">
            <g id="Group_76" data-name="Group 76">
              <g id="Group_75" data-name="Group 75" clip-path="url(#clip-path-2)">
                <path id="Path_413" data-name="Path 413" d="M799.6,202.5c3.681-.111,6.321-.605,9.41-2.684,2.593-1.746,5.047-3.7,5.989-6.8a.78.78,0,0,1,1.406-.188c4.13,6.092-1.921,17.65-8.977,18.477-.554.065-.738-.672-.419-1.017l-6.784-6.812a6.324,6.324,0,0,1-.8-.328A.348.348,0,0,1,799.6,202.5Z" transform="translate(-799.26 -192.463)" fill="#023b41"/>
                <path id="Path_414" data-name="Path 414" d="M816.176,192.123a12.28,12.28,0,0,1,.471,7.156c-.918,3.869-3.7,7.09-6.972,9.349a48.825,48.825,0,0,1-10.759,5.085c.136,2.006,2,3.55,3.965,3.987a14.162,14.162,0,0,0,5.971-.392c2.091-.441,4.272-.926,5.916-2.292a10.337,10.337,0,0,0,2.5-3.414,24.119,24.119,0,0,0-.463-22.116" transform="translate(-799.597 -195.374)" fill="#022a2a"/>
              </g>
            </g>
            <g id="Group_77" data-name="Group 77" transform="translate(8.75 1.148)">
              <path id="Path_416" data-name="Path 416" d="M811.274,193.123a28.84,28.84,0,0,1-7.526,9.1c-.178.15.049.372.229.295a14.227,14.227,0,0,0,7.583-9.276c.044-.168-.206-.285-.287-.121Z" transform="translate(-803.684 -193.044)" fill="#0c5d61"/>
            </g>
          </g>
          <path id="Path_417" data-name="Path 417" d="M855.647,214.372c-10.016-14.246-27.108-20.609-43.868-21.034-9.108-.231-18.945,1.562-27.116,5.807-3.57,1.853-6.7,4.8-9.671,7.508a32.234,32.234,0,0,0-7.387,9.1c-4.582,8.936-7.262,19.343-9.074,29.21a84.609,84.609,0,0,0-1.731,13.894,129.134,129.134,0,0,0,2.553,38.092,3.143,3.143,0,0,0,5.261,1.406,35.479,35.479,0,0,0,2.775-3.418,63.3,63.3,0,0,1,1.865,9.964c.312,3,4.323,4.743,5.975,1.64q2.089-3.919,4.175-7.84l3.768,6.206a3.173,3.173,0,0,0,5.481-.012q1.673-2.706,3.342-5.411c.76,1.744,1.537,3.479,2.375,5.176,1.222,2.472,3.263,4.47,6.175,4.062,2.514-.352,4.414-2.431,5.433-4.687a6.825,6.825,0,0,0,.467-1.689,35.179,35.179,0,0,0,3.973,5.235c1.774,1.93,4.357.651,5.2-1.418a51.381,51.381,0,0,0,1.826-5.332c.413.981.843,1.956,1.3,2.923,1.175,2.482,4.988,1.725,5.619-.765q.929-3.676,1.861-7.348.908,1.448,1.815,2.9c1.131,1.808,4.25,2.225,5.263-.014l.024-.055q.549,2.086,1.1,4.171c.641,2.439,4.383,3.182,5.542.728a47.51,47.51,0,0,0,2.708-7.166q.721,2.026,1.444,4.053c.843,2.36,4.417,3.4,5.7.748.463-.955.878-1.92,1.276-2.89.19.528.38,1.056.589,1.578.637,1.58,2.065,2.749,3.843,2.219,6.192-1.843,9.07-7.6,10.306-13.678,1.669-8.2,1.861-16.877,1.883-25.219C867.755,246.592,865.269,228.058,855.647,214.372Z" transform="translate(-756.365 -182.487)" fill="#f0a818"/>
          <g id="Group_79" data-name="Group 79" transform="translate(14.867 63.349)">
            <path id="Path_418" data-name="Path 418" d="M774.083,225.051a5.1,5.1,0,1,1-5.113-5.089A5.1,5.1,0,0,1,774.083,225.051Z" transform="translate(-763.882 -219.784)" fill="#e75a27"/>
            <path id="Path_419" data-name="Path 419" d="M810.152,224.961a5.1,5.1,0,1,1-5.113-5.089A5.1,5.1,0,0,1,810.152,224.961Z" transform="translate(-728.614 -219.872)" fill="#e75a27"/>
          </g>
          <g id="Group_80" data-name="Group 80" transform="translate(5.086 87.268)">
            <path id="Path_420" data-name="Path 420" d="M759.6,232.085a2.718,2.718,0,0,0,1.292,4.351c2.217.591,3.908-2,3.352-3.95a.4.4,0,0,0-.773.216c.388,1.367-.744,3.372-2.368,2.959a1.91,1.91,0,0,1-.933-3.008.4.4,0,0,0-.57-.568Z" transform="translate(-758.936 -231.966)" fill="#fff"/>
          </g>
          <g id="Group_81" data-name="Group 81" transform="translate(73.423 97.805)">
            <path id="Path_421" data-name="Path 421" d="M793.507,238.666c-.109,1.616.2,4.363,2.48,4.157,2.13-.19,2.278-3.61,2.15-5.146-.043-.51-.848-.514-.8,0,.1,1.153.133,3.53-1.052,4.187-.837.461-1.62-.318-1.867-1.082a5.669,5.669,0,0,1-.1-2.122c.036-.516-.769-.512-.8,0Z" transform="translate(-793.489 -237.293)" fill="#fff"/>
          </g>
          <g id="Group_82" data-name="Group 82" transform="translate(86.253 106.246)">
            <path id="Path_422" data-name="Path 422" d="M799.994,242.933c-.109,1.616.2,4.363,2.48,4.157,2.13-.19,2.278-3.609,2.148-5.144-.042-.512-.847-.516-.8,0,.1,1.153.133,3.532-1.054,4.187-.835.463-1.618-.318-1.865-1.082a5.669,5.669,0,0,1-.1-2.122c.034-.516-.771-.512-.8,0Z" transform="translate(-799.976 -241.561)" fill="#fff"/>
          </g>
          <g id="Group_83" data-name="Group 83" transform="translate(98.702 110.045)">
            <path id="Path_423" data-name="Path 423" d="M806.537,244.174a4.934,4.934,0,0,0,.01,3.194,2.243,2.243,0,0,0,1.942,1.333c2.077-.03,2.67-3.283,2.765-4.834.034-.516-.771-.514-.8,0-.071,1.151-.38,3.214-1.493,3.845-.825.467-1.582-.233-1.8-1.03a4.929,4.929,0,0,1,.156-2.3c.111-.5-.665-.718-.775-.212Z" transform="translate(-806.27 -243.482)" fill="#fff"/>
          </g>
          <g id="Group_84" data-name="Group 84" transform="translate(13.938 109.959)">
            <path id="Path_424" data-name="Path 424" d="M763.414,245.427c.156,1.622.8,4.193,3,3.79,2.221-.405,1.78-3.979,1.4-5.492-.125-.5-.9-.287-.775.216.267,1.064.722,3.679-.5,4.359-1.669.924-2.221-1.837-2.32-2.874-.05-.51-.854-.512-.8,0Z" transform="translate(-763.412 -243.438)" fill="#fff"/>
          </g>
          <g id="Group_85" data-name="Group 85" transform="translate(33.162 107.405)">
            <path id="Path_425" data-name="Path 425" d="M773.134,244.137c.156,1.622.8,4.191,3,3.787s1.778-3.979,1.4-5.492a.4.4,0,0,0-.777.216c.267,1.064.722,3.681-.5,4.359-1.667.924-2.221-1.837-2.32-2.872-.049-.512-.854-.514-.8,0Z" transform="translate(-773.132 -242.147)" fill="#fff"/>
          </g>
          <g id="Group_86" data-name="Group 86" transform="translate(50.273 99.87)">
            <path id="Path_426" data-name="Path 426" d="M781.8,239.725c-.1,1.616.212,4.359,2.494,4.149,2.132-.2,2.267-3.617,2.132-5.152-.046-.512-.85-.514-.8,0,.1,1.149.144,3.53-1.036,4.191-.833.467-1.62-.309-1.871-1.072a5.662,5.662,0,0,1-.109-2.12c.032-.518-.771-.514-.8,0Z" transform="translate(-781.784 -238.338)" fill="#fff"/>
          </g>
          <g id="Group_87" data-name="Group 87" transform="translate(104.449 82.149)">
            <path id="Path_427" data-name="Path 427" d="M809.177,232.226c.128,1.843.955,4.312,3.325,3.525,2.613-.87,2.346-3.932,1.934-6.084-.1-.508-.872-.291-.775.216.309,1.612.706,3.843-.951,4.881-1.944,1.218-2.627-1.08-2.727-2.54-.036-.514-.84-.514-.8,0Z" transform="translate(-809.175 -229.378)" fill="#fff"/>
          </g>
          <g id="Group_88" data-name="Group 88" transform="translate(98.319 49.487)">
            <path id="Path_428" data-name="Path 428" d="M806.088,216.472c.4,1.738,1.537,3.977,3.7,2.977,2.542-1.177,1.849-4.234,1.1-6.311-.174-.485-.951-.273-.775.216.546,1.523,1.3,3.61-.055,4.933-1.723,1.679-2.856-.534-3.2-2.031-.117-.5-.892-.289-.775.218Z" transform="translate(-806.076 -212.863)" fill="#fff"/>
          </g>
          <g id="Group_89" data-name="Group 89" transform="translate(67.789 29.52)">
            <path id="Path_429" data-name="Path 429" d="M790.644,205.876c.237,1.824,1.181,4.266,3.506,3.35,2.561-1.011,2.138-4.043,1.6-6.173a.4.4,0,0,0-.775.216c.394,1.551.916,3.6-.48,4.82a1.624,1.624,0,0,1-2.255.083,4.041,4.041,0,0,1-.789-2.3c-.067-.506-.872-.51-.8,0Z" transform="translate(-790.64 -202.767)" fill="#fff"/>
          </g>
          <g id="Group_90" data-name="Group 90" transform="translate(7.307 48.96)">
            <path id="Path_430" data-name="Path 430" d="M764.776,215.969a5.077,5.077,0,0,1-.69,1.9,1.572,1.572,0,0,1-2.5.148c-1.367-1.317-.619-3.406-.079-4.933.174-.489-.6-.7-.775-.212-.736,2.079-1.412,5.142,1.135,6.305,2.17.991,3.3-1.254,3.689-2.994.113-.5-.662-.718-.777-.214Z" transform="translate(-760.059 -212.597)" fill="#fff"/>
          </g>
          <g id="Group_91" data-name="Group 91" transform="translate(45.378 32.794)">
            <path id="Path_431" data-name="Path 431" d="M784.123,206.5a4.35,4.35,0,0,1-.18,2.377,1.594,1.594,0,0,1-2.233.572c-1.7-.837-1.632-3.028-1.59-4.64a.4.4,0,0,0-.8,0c-.055,2.176.182,5.095,2.807,5.625,2.476.5,2.984-2.079,2.806-3.938-.049-.51-.854-.514-.8,0Z" transform="translate(-779.309 -204.423)" fill="#fff"/>
          </g>
          <g id="Group_92" data-name="Group 92" transform="translate(88.664 31.283)">
            <path id="Path_432" data-name="Path 432" d="M801.217,207.68c.609,1.788,2.11,4,4.2,2.486,2.18-1.574,1.175-4.327.235-6.3-.224-.467-.916-.057-.694.407.661,1.386,1.564,3.259.518,4.685a1.613,1.613,0,0,1-2.488.439,4.54,4.54,0,0,1-1-1.932c-.166-.489-.943-.277-.777.216Z" transform="translate(-801.194 -203.659)" fill="#fff"/>
          </g>
          <g id="Group_93" data-name="Group 93" transform="translate(21.4 97.453)">
            <path id="Path_433" data-name="Path 433" d="M767.185,237.5c.079,2.007.639,5.085,3.323,4.893,2.3-.162,2.11-2.935,1.685-4.519a.4.4,0,0,0-.775.216c.3,1.121.7,3.615-1.187,3.5-1.988-.125-2.181-2.589-2.241-4.09-.02-.516-.825-.516-.8,0Z" transform="translate(-767.185 -237.115)" fill="#fff"/>
          </g>
          <g id="Group_94" data-name="Group 94" transform="translate(24.893 35.301)">
            <path id="Path_434" data-name="Path 434" d="M769.145,205.982c-.36,1.954-.5,5.2,2.205,5.528,2.243.271,2.658-2.383,2.595-4.029-.022-.516-.827-.516-.805,0,.044,1.133-.01,3.384-1.683,3.218-2.144-.214-1.8-3.072-1.537-4.507.093-.506-.682-.722-.775-.212Z" transform="translate(-768.951 -205.69)" fill="#fff"/>
          </g>
          <g id="Group_95" data-name="Group 95" transform="translate(62.987 81.387)">
            <path id="Path_435" data-name="Path 435" d="M788.359,229.269a3.023,3.023,0,0,0,2.714,3.965,2.86,2.86,0,0,0,2.409-3.964c-.209-.473-.9-.061-.694.407a2.025,2.025,0,0,1-1.986,2.733,2.241,2.241,0,0,1-1.667-2.931c.166-.49-.611-.7-.775-.212Z" transform="translate(-788.212 -228.992)" fill="#fff"/>
          </g>
          <g id="Group_96" data-name="Group 96" transform="translate(49.947 17.895)">
            <path id="Path_436" data-name="Path 436" d="M781.766,197.167a3.024,3.024,0,0,0,2.714,3.966,2.859,2.859,0,0,0,2.409-3.964c-.21-.473-.9-.061-.694.407a2.025,2.025,0,0,1-1.984,2.733,2.24,2.24,0,0,1-1.669-2.929c.168-.492-.609-.7-.775-.214Z" transform="translate(-781.619 -196.89)" fill="#fff"/>
          </g>
          <g id="Group_97" data-name="Group 97" transform="translate(62.902 47.851)">
            <path id="Path_437" data-name="Path 437" d="M788.316,212.313a3.024,3.024,0,0,0,2.714,3.966,2.859,2.859,0,0,0,2.409-3.964c-.21-.473-.9-.061-.692.407a2.025,2.025,0,0,1-1.986,2.733,2.24,2.24,0,0,1-1.667-2.931c.166-.49-.611-.7-.777-.212Z" transform="translate(-788.169 -212.036)" fill="#fff"/>
          </g>
          <g id="Group_98" data-name="Group 98" transform="translate(97.731 95.535)">
            <path id="Path_438" data-name="Path 438" d="M805.926,236.424a3.022,3.022,0,0,0,2.713,3.963,2.859,2.859,0,0,0,2.409-3.963c-.21-.471-.9-.061-.692.407a2.026,2.026,0,0,1-1.986,2.733,2.238,2.238,0,0,1-1.667-2.929c.166-.492-.611-.7-.777-.212Z" transform="translate(-805.779 -236.145)" fill="#fff"/>
          </g>
          <path id="Path_439" data-name="Path 439" d="M784.453,220.207a8.558,8.558,0,1,1-8.58-8.536A8.556,8.556,0,0,1,784.453,220.207Z" transform="translate(-745.636 -164.542)" fill="#f0a818"/>
          <g id="Group_101" data-name="Group 101" transform="translate(37.052 65.479)">
            <g id="Group_100" data-name="Group 100">
              <path id="Path_440" data-name="Path 440" d="M812.276,225.955c-.018-7.848-6.266-4.937-10.6-1.574a11.617,11.617,0,0,1-15.983.042c-4.351-3.342-10.613-6.222-10.593,1.626.018,7.326,3.23,18.427,17.084,19.837l-.008.16c.534,0,1.054-.018,1.563-.044.508.024,1.028.036,1.564.036l-.01-.162C809.139,244.4,812.3,233.281,812.276,225.955Z" transform="translate(-775.099 -220.949)" fill="#0d1010"/>
              <g id="Group_99" data-name="Group 99" transform="translate(7.28 1.582)">
                <path id="Path_441" data-name="Path 441" d="M784.986,226.085c-.249-.016-.583-.045-.981-.1h0s-.307,5.708,6.111,5.259,3.374-8.752,3.374-8.754c-.176.131-.35.263-.522.394A14.9,14.9,0,0,1,784.986,226.085Z" transform="translate(-773.673 -221.029)" fill="#edede5"/>
                <path id="Path_442" data-name="Path 442" d="M779.278,221.749s-2.64,9.385,4.232,10.263c5.128.655,5.415-3.317,5.231-5.374a15.424,15.424,0,0,1-6.649-3A25.344,25.344,0,0,0,779.278,221.749Z" transform="translate(-778.78 -221.749)" fill="#edede5"/>
              </g>
            </g>
          </g>
          <g id="Group_104" data-name="Group 104" transform="translate(25.138 47.468)">
            <g id="Group_102" data-name="Group 102" transform="translate(0 0.113)">
              <path id="Path_443" data-name="Path 443" d="M769.14,213.226c-.3,1.75.5,4.149,1.23,5.72a4.221,4.221,0,0,0,3.916,2.755c4.658-.174,4.3-6.543,2.929-9.642-.138-.312-.564-.115-.585.16-.168,2.237.995,8.643-2.838,8.081-2.886-.421-3.4-4.935-4.288-7.075-.063-.15-.328-.206-.364,0Z" transform="translate(-769.075 -211.899)" fill="#0d1010"/>
            </g>
            <g id="Group_103" data-name="Group 103" transform="translate(51.869)">
              <path id="Path_444" data-name="Path 444" d="M803.9,213.131c-.88,2.146-1.369,6.659-4.252,7.1-3.827.581-2.7-5.833-2.88-8.067-.022-.275-.449-.471-.586-.156-1.359,3.109-1.679,9.478,2.978,9.626a4.212,4.212,0,0,0,3.9-2.773c.734-1.592,1.513-3.966,1.2-5.726-.036-.208-.3-.15-.364,0Z" transform="translate(-795.301 -211.842)" fill="#0d1010"/>
            </g>
          </g>
          <g id="Group_111" data-name="Group 111" transform="translate(33.246)">
            <g id="Group_106" data-name="Group 106" transform="translate(14.551)">
              <path id="Path_445" data-name="Path 445" d="M781.041,205.415a24.755,24.755,0,0,1,7.324-17.076,27.762,27.762,0,0,0-1.81,13.955" transform="translate(-780.033 -187.356)" fill="#f0a818"/>
              <g id="Group_105" data-name="Group 105">
                <path id="Path_446" data-name="Path 446" d="M782.546,205.9a24.374,24.374,0,0,1,7.031-16.362c-.562-.326-1.121-.651-1.683-.975a30.177,30.177,0,0,0-1.845,14.222c.136,1.276,2.148,1.284,2.009,0a29,29,0,0,1,1.776-13.688c.37-.969-1.021-1.653-1.683-.975a26.578,26.578,0,0,0-7.618,17.788c-.047,1.294,1.962,1.288,2.013-.006Z" transform="translate(-780.532 -187.842)" fill="#f0a818"/>
              </g>
            </g>
            <g id="Group_108" data-name="Group 108" transform="translate(20.96 2.324)">
              <path id="Path_447" data-name="Path 447" d="M784.277,199.276a12.307,12.307,0,0,1,10.457-9.762,12.168,12.168,0,0,0-4.891,14.315" transform="translate(-783.279 -188.531)" fill="#f0a818"/>
              <g id="Group_107" data-name="Group 107">
                <path id="Path_448" data-name="Path 448" d="M785.74,200.027a11.512,11.512,0,0,1,9.758-9.058q-.392-.92-.781-1.835a13.323,13.323,0,0,0-5.35,15.453c.417,1.216,2.36.688,1.938-.54a11.282,11.282,0,0,1,4.432-13.18,1.011,1.011,0,0,0-.779-1.835A13.451,13.451,0,0,0,783.8,199.5c-.277,1.262,1.663,1.8,1.94.53Z" transform="translate(-783.772 -189.017)" fill="#f0a818"/>
              </g>
            </g>
            <g id="Group_110" data-name="Group 110" transform="translate(0 2.5)">
              <path id="Path_449" data-name="Path 449" d="M790.056,197.456a15.744,15.744,0,0,0-16.382-7.607,14.979,14.979,0,0,1,11.863,15.729" transform="translate(-772.686 -188.643)" fill="#f0a818"/>
              <g id="Group_109" data-name="Group 109">
                <path id="Path_450" data-name="Path 450" d="M791.411,197.409a17,17,0,0,0-17.519-8.066c-.985.162-.928,1.74.006,1.938a14.107,14.107,0,0,1,11.121,14.762c-.087,1.294,1.924,1.282,2.011,0a16.1,16.1,0,0,0-12.6-16.7q0,.97.006,1.938a14.915,14.915,0,0,1,15.247,7.148,1,1,0,0,0,1.733-1.019Z" transform="translate(-773.175 -189.106)" fill="#f0a818"/>
              </g>
            </g>
          </g>
          <g id="Group_113" data-name="Group 113" transform="translate(19.379 20.891)">
            <path id="Path_451" data-name="Path 451" d="M770.6,199.745a12.931,12.931,0,0,0-2.52,1.729,4.339,4.339,0,0,0-1.42,2.64,6.121,6.121,0,0,0,3.872-1.27,18.092,18.092,0,0,0,2.967-2.9.685.685,0,0,0,.237-.508c-.036-.239-.3-.364-.536-.421a4.467,4.467,0,0,0-3.509.75,7.921,7.921,0,0,0-2.375,2.783" transform="translate(-765.674 -197.906)" fill="#df9618"/>
            <g id="Group_112" data-name="Group 112">
              <path id="Path_452" data-name="Path 452" d="M770.581,199.378c-1.992,1.151-4,2.54-4.4,4.97a1.023,1.023,0,0,0,.973,1.27,7.922,7.922,0,0,0,5.308-2.134c.852-.734,3.089-2.454,2.735-3.815-.417-1.6-2.872-1.365-4.041-.989a7.905,7.905,0,0,0-4.219,3.867,1.006,1.006,0,0,0,1.739,1.011c.987-1.713,2.868-3.849,5.093-2.925-.2-.154-.4-.307-.6-.461.063.093.129.186.192.277-.034-.257-.067-.516-.1-.773-.19.862-1.816,2.073-2.482,2.6a5.631,5.631,0,0,1-3.625,1.337l.973,1.27c.316-1.924,1.918-2.866,3.479-3.768a1.006,1.006,0,0,0-1.021-1.733Z" transform="translate(-766.163 -198.405)" fill="#df9618"/>
            </g>
          </g>
          <g id="Group_115" data-name="Group 115" transform="translate(28.909 17.589)">
            <path id="Path_453" data-name="Path 453" d="M772.07,199.069c-.441-.095-.611.55-.577,1a2.846,2.846,0,0,0,2.822-2.225.549.549,0,0,0-.107-.536c-.184-.15-.459-.036-.655.1a4.569,4.569,0,0,0-1.367,1.446" transform="translate(-770.485 -196.246)" fill="#df9618"/>
            <g id="Group_114" data-name="Group 114">
              <path id="Path_454" data-name="Path 454" d="M772.563,198.552c-1.1-.075-1.61,1.072-1.58,2.009a1.025,1.025,0,0,0,1.009,1,3.856,3.856,0,0,0,3.8-3.04,1.4,1.4,0,0,0-1.871-1.683,4.723,4.723,0,0,0-2.106,1.992c-.686,1.1,1.054,2.108,1.738,1.011a3.757,3.757,0,0,1,.576-.724,3.4,3.4,0,0,1,.281-.255l.15-.1c.158-.095.166-.1.026-.018l-.506-.136v.012l-.261-.443c.028-.133.03-.142.006-.032a2.1,2.1,0,0,1-.061.225,1.6,1.6,0,0,1-.085.188,1.9,1.9,0,0,1-.475.581,1.819,1.819,0,0,1-1.216.415q.5.5,1.007,1c-.018-.566.132.046-.425.008,1.292.089,1.282-1.922-.006-2.011Z" transform="translate(-770.981 -196.735)" fill="#df9618"/>
            </g>
          </g>
          <g id="Group_117" data-name="Group 117" transform="translate(15.126 28.975)">
            <path id="Path_455" data-name="Path 455" d="M766.28,203.456a3.511,3.511,0,0,0-1.691,2.041c-.133.425-.083,1.03.348,1.135a.855.855,0,0,0,.708-.261,4.775,4.775,0,0,0,1.655-2.834.5.5,0,0,0-.079-.459.45.45,0,0,0-.354-.081c-1.248.119-1.869,1.541-2.237,2.741" transform="translate(-763.513 -202.003)" fill="#df9618"/>
            <g id="Group_116" data-name="Group 116">
              <path id="Path_456" data-name="Path 456" d="M766.27,203.079c-1.285.734-2.68,2.437-2.136,4.019a1.525,1.525,0,0,0,2.067.9,4.441,4.441,0,0,0,1.835-1.8,4.8,4.8,0,0,0,.789-2.332,1.431,1.431,0,0,0-1.908-1.313c-1.586.38-2.314,2.006-2.755,3.418-.388,1.238,1.555,1.762,1.94.528a4.266,4.266,0,0,1,.821-1.691c.083-.089.2-.146.279-.231.22-.231.56.212-.067-.4-.439-.423-.3-.34-.4.024a3.685,3.685,0,0,1-.22.593,3.841,3.841,0,0,1-.6.9c-.1.119-.311.237-.378.37-.135.259.344.39.492.267s.283-.641.433-.833a2.668,2.668,0,0,1,.825-.682,1.006,1.006,0,0,0-1.021-1.733Z" transform="translate(-764.013 -202.492)" fill="#df9618"/>
            </g>
          </g>
          <g id="Group_119" data-name="Group 119" transform="translate(20.958 27.965)">
            <path id="Path_457" data-name="Path 457" d="M768.976,203.02a1.545,1.545,0,0,0-1.493,1.667.516.516,0,0,0,.162.35.534.534,0,0,0,.392.071,2.072,2.072,0,0,0,1.756-2.235.493.493,0,0,0-.131-.311.484.484,0,0,0-.39-.067,2.151,2.151,0,0,0-1.766,1.735" transform="translate(-766.462 -201.49)" fill="#df9618"/>
            <g id="Group_118" data-name="Group 118">
              <path id="Path_458" data-name="Path 458" d="M769.472,202.507a2.552,2.552,0,0,0-2.459,2.941c.4,1.808,2.631,1.167,3.511.148.821-.949,1.4-3.461-.483-3.608a3.071,3.071,0,0,0-3,2.468,1.029,1.029,0,0,0,.7,1.234,1.015,1.015,0,0,0,1.236-.706c.1-.5.492-1.06,1.07-.987l-.508-.134-.018-.008c-.087-.146-.172-.295-.259-.443a.878.878,0,0,1-.19.8,1.168,1.168,0,0,1-.249.235.953.953,0,0,1-.21.109c-.35.135-.1-.129.156.164l.259.445a.487.487,0,0,1,.449-.645c1.289-.051,1.292-2.063-.006-2.011Z" transform="translate(-766.962 -201.981)" fill="#df9618"/>
            </g>
          </g>
          <g id="Group_121" data-name="Group 121" transform="translate(27.131 23.537)">
            <path id="Path_459" data-name="Path 459" d="M772.139,200.376c-.336.342-.664.694-.979,1.054a2.1,2.1,0,0,0-.56.949.764.764,0,0,0,.477.892.933.933,0,0,0,.839-.348,2.668,2.668,0,0,0,.6-2.668q-.807.949-1.537,1.96" transform="translate(-769.589 -199.242)" fill="#df9618"/>
            <g id="Group_120" data-name="Group 120">
              <path id="Path_460" data-name="Path 460" d="M771.919,200.167a5.846,5.846,0,0,0-1.8,2.449,1.787,1.787,0,0,0,1.183,2.128,2.291,2.291,0,0,0,2.393-1.392,3.766,3.766,0,0,0,.281-2.866,1.014,1.014,0,0,0-1.681-.439q-.887,1.053-1.7,2.166a1.013,1.013,0,0,0,.366,1.375,1.028,1.028,0,0,0,1.375-.364c.437-.6.9-1.187,1.378-1.756l-1.681-.441a1.763,1.763,0,0,1,.044.971,1.518,1.518,0,0,1-.216.5c-.055.085-.261.233-.273.3.125-.837.54.208.488.241a3.256,3.256,0,0,0,.281-.4c.307-.368.645-.714.979-1.056.9-.928-.52-2.348-1.426-1.418Z" transform="translate(-770.082 -199.743)" fill="#df9618"/>
            </g>
          </g>
          <g id="Group_123" data-name="Group 123" transform="translate(13.682 19.056)">
            <path id="Path_461" data-name="Path 461" d="M775.268,197.587a9.018,9.018,0,0,0-5.8,1.487l1.359.91a5.552,5.552,0,0,0-3.186.5,1.743,1.743,0,0,0-.833.7.756.756,0,0,0,.2.981c.326.2.943.235.839.6a6.463,6.463,0,0,0-4.312,3.679.872.872,0,0,0-.073.7c.221.475.947.253,1.361-.069,1.5-1.163,2.589-2.763,4.021-4,1.938-1.675,4.559-2.775,5.639-5.1" transform="translate(-763.156 -197.404)" fill="#f0a818"/>
            <g id="Group_122" data-name="Group 122">
              <path id="Path_462" data-name="Path 462" d="M775.4,197.5a9.937,9.937,0,0,0-5.91,1.468.217.217,0,0,0,0,.37c1.052.712.58.243-.227.508a5.522,5.522,0,0,0-2.128.8c-.807.752-.3.957-.233,1.74.014.146.4.2.378.388a18.263,18.263,0,0,1-1.8.993c-.724.562-2.215,1.984-2.193,3.036.045,2.32,2.834-.3,3.342-.831a37.254,37.254,0,0,1,5.1-4.5,8.719,8.719,0,0,0,3.089-3.293.244.244,0,0,0-.421-.245c-1.477,2.371-3.928,3.467-5.924,5.3-.755.694-2.124,2.957-3.1,3.206q-.591-.181-1.181-.356a6.059,6.059,0,0,1,1.157-1.479,6.654,6.654,0,0,1,2.7-1.489.278.278,0,0,0,.192-.338c0,.01-.413-.649-.4-.522-.069-.034-.139-.067-.212-.095-.323-.123-.166-.4.469-.833.694-1.137,1.57-1.11,2.862-1.036.235.012.285-.3.111-.419-2.379-1.572,3.384-2.075,4.329-2.037.214.008.21-.318,0-.33Z" transform="translate(-763.283 -197.477)" fill="#f0a818"/>
            </g>
          </g>
          <g id="Group_125" data-name="Group 125" transform="translate(84.458 19.222)">
            <path id="Path_463" data-name="Path 463" d="M799.122,197.616a10.146,10.146,0,0,1,7.308,3.517,7.027,7.027,0,0,1-2,.378,9.31,9.31,0,0,1,5.445,1.847,1.73,1.73,0,0,1,.67.791c.3.934-.849,1.636-1.78,1.946,1.724,1.11,3.514,2.369,4.284,4.27a2.37,2.37,0,0,1,.1,1.826,1.161,1.161,0,0,1-1.541.627" transform="translate(-799.015 -197.507)" fill="#f0a818"/>
            <g id="Group_124" data-name="Group 124">
              <path id="Path_464" data-name="Path 464" d="M799.147,197.777a14.316,14.316,0,0,1,3.507.981c.8.354,4.9,2.172,1.831,2.518a.288.288,0,0,0,0,.576,9.076,9.076,0,0,1,2.791.489q3.014.433,1.461,3.511a.314.314,0,0,0-.071.566,15.688,15.688,0,0,1,2.423,1.8c.489.485,3.752,4.161.578,4.379-.247.018-.406.39-.139.512,1.319.609,2.288-.372,2.209-1.774a5.235,5.235,0,0,0-1.266-2.593c-.308-.392-2.716-2.037-2.767-2.5a8.918,8.918,0,0,0,1.169-1.3,1.52,1.52,0,0,0-.33-1.39c-.581-.882-2.158-1.452-3.113-1.774-.6-.206-1.373-.206-1.936-.431.939.376-2.009.943,1.064.117a.288.288,0,0,0,.125-.477,9.934,9.934,0,0,0-7.508-3.422c-.119,0-.154.194-.028.216Z" transform="translate(-799.068 -197.561)" fill="#f0a818"/>
            </g>
          </g>
        </g>
        <path id="Path_465" data-name="Path 465" d="M763.433,225.5s-6.731.516-9.64,10.219c-2.268,7.563-2.263,13.892-1.837,14.8s1.895-1.7,1.895-1.7,1.209,2.534,1.925,2.261.293-2.9.293-2.9,1.788,1.042,2.478.164-2.373-2.909-2.373-2.909.053-14.2,7.706-14.116c0,0,2.227-2.1,2.092-3.3S763.433,225.5,763.433,225.5Z" transform="translate(-751.736 -151.024)" fill="#da9914"/>
        <path id="Path_466" data-name="Path 466" d="M812.025,224.861s6.732-.449,10.995,8.742c3.323,7.164,4.217,13.429,3.926,14.383s-2.116-1.416-2.116-1.416-.837,2.68-1.584,2.512-.7-2.826-.7-2.826-1.622,1.288-2.431.516,1.936-3.218,1.936-3.218-2.075-14.048-9.64-12.874C812.408,230.679,809.028,228.075,812.025,224.861Z" transform="translate(-693.997 -151.648)" fill="#da9914"/>
      </g>
    </g>
    <rect id="Rectangle_652" data-name="Rectangle 652" width="285" height="160" transform="translate(313 13430)" fill="none"/>
  </g>
</svg>
