<svg xmlns="http://www.w3.org/2000/svg" viewBox="0 0 285 160"><defs><style>.cls-1,.cls-2{isolation:isolate;}.cls-1{font-size:40px;font-family:HelveticaNeue-Medium, Helvetica Neue;font-weight:500;letter-spacing:0.05em;}.cls-1,.cls-3{fill:#fff;}.cls-4{fill:none;}.cls-5{fill:#f4ac75;}.cls-6{fill:#c1885d;}.cls-7{fill:#27aab0;}.cls-8{fill:#f8c27d;}.cls-9{fill:#716754;}.cls-10{fill:#221e1f;}.cls-11{fill:#92d2de;}</style></defs><g id="圖層_2" data-name="圖層 2"><g id="圖層_1-2" data-name="圖層 1"><g id="圖層_2-2" data-name="圖層 2"><g id="圖層_1-2-2" data-name="圖層 1-2"><g id="圖層_2-2-2" data-name="圖層 2-2"><g id="圖層_1-2-2-2" data-name="圖層 1-2-2"><g id="Group_5952" data-name="Group 5952"><g id="Group_5951" data-name="Group 5951"><g id="Group_4453" data-name="Group 4453"><g id="Pisces"><text class="cls-1" transform="translate(169.66 122.88)">Aries</text></g></g><g class="cls-2"><path class="cls-3" d="M159.06,54.39l-3.6-1a51.52,51.52,0,0,0,2.16-13.28l3.52.28c-.08,1.6-.16,3.16-.32,4.68h2.56V37h3.84v8H171v3.68h-3.8v8.56c1.28-.48,2.56-1,3.76-1.48v3.64c-1.28.52-2.52,1-3.76,1.44v13h-3.84V62.15c-2.2.68-4.44,1.28-6.68,1.84l-.88-3.68c2.56-.48,5.08-1,7.56-1.76V48.71h-3C160,50.63,159.54,52.55,159.06,54.39Zm20.64-6.12V36.87h3.8v11.4h7.36V52H183.5V68.83H192v3.72H170.86V68.83h8.84V52h-7.48V48.27Z"/><path class="cls-3" d="M212,43.75a48.58,48.58,0,0,0-3.56-5.28l3.28-1.56a53.86,53.86,0,0,1,3.8,5.8l-2.08,1h8.72a54.45,54.45,0,0,0,3.28-6.88l3.68,1.28a38.51,38.51,0,0,1-2.92,5.6h8v3.64H220.74v5h11.52V56H220.74v5.12h15.88v3.68H220.74V74H216.9V64.79h-16V61.11h16V56H205.38V52.35H216.9v-5H203.46V43.75Z"/><path class="cls-3" d="M281.54,43.75h-29v9.08c-.16,8.72-1.6,15.72-4.4,21l-2.84-2.52q3.3-6.66,3.48-18.48V40.11h14.52a19.24,19.24,0,0,0-1.4-2.88l4-.64c.44,1.08.88,2.24,1.32,3.52h14.28ZM265,61.31V45h3.72V61.31H279.9v3.52H268.74v4.64H281.9v3.64H252.42V69.47H265V64.83H254.66V61.31Zm-9.64-.92-2.32-2.92c2.44-3,4.08-7,5-12l3.52.64c-.4,2-.84,3.76-1.36,5.44a32,32,0,0,1,4.2,5l-2.12,3.28a37.25,37.25,0,0,0-3.16-5.36A23.62,23.62,0,0,1,255.38,60.39Zm16.16-.2-2.32-2.88A26,26,0,0,0,274,45.43l3.4.6a41.26,41.26,0,0,1-1.2,5.08q2.64,2.58,5.4,5.76l-2.08,3.2c-1.72-2.68-3.16-4.72-4.28-6.16A23.22,23.22,0,0,1,271.54,60.19Z"/></g></g><rect id="Rectangle_652" data-name="Rectangle 652" class="cls-4" width="285" height="160"/><path class="cls-5" d="M33,33.77S27.16,30,28.59,24.71s5.13-6.1,4-9.84-5.88-5-8.74-3.71a10.12,10.12,0,0,1,8.8-1.56c5.07,1.5,5.35,6.21,4.69,9.08S35.07,24.53,39,28.24C37.73,32.13,33,33.77,33,33.77Z"/><path class="cls-6" d="M34.07,37.07s-3.63-2.77-3-4.65c.54-1.34,2.07.08,2.07.08s-.9-1.89-.07-2.72,2,.12,2,.12-.84-2,.2-2.58,2.67.76,2.67.76-1.44-2-.29-2.62,4.15,4.72,4.15,4.72Z"/><path class="cls-5" d="M81,32.2s5.43-4.4,3.52-9.47-5.66-5.54-4.86-9.39S85.06,7.79,88,8.76a10.06,10.06,0,0,0-8.92-.65c-4.9,2-4.75,6.73-3.84,9.52s2.8,5.59-.76,9.69C76.13,31.06,81,32.2,81,32.2Z"/><path class="cls-6" d="M80.23,35.6s3.36-3.14,2.57-4.94c-.66-1.28-2,.29-2,.29s.72-2-.18-2.71-1.94.32-1.94.32.65-2-.43-2.55-2.6,1-2.6,1,1.25-2.17.06-2.63S72,29.53,72,29.53Z"/><path class="cls-5" d="M23.72,72.49c-.32,0-14.7-.87-16.95-7.58S5.11,47.24,5.11,47.24s4.1-2,3.55-2.64-3.09-.69-3.09-.69.88-5.45-.35-4.51S3.51,43,3.51,43,1.34,41.36.42,42s1.7,4.28,1.7,4.28-.68,14,.94,19C8,80.51,23.83,77.48,23.83,77.48Z"/><path class="cls-5" d="M86.63,58.21c.3.12,14.06,4.65,18.38-.81s7.38-15.93,7.38-15.93-3.18-3.4-2.45-3.79,3.12.49,3.12.49,1-5.43,1.82-4.09.41,4,.41,4,2.57-.72,3.24.18-3,3.38-3,3.38-4,13.34-7.14,17.45c-9.64,12.48-23.5,3.75-23.5,3.75Z"/><path class="cls-5" d="M70.92,108.22S89,113.11,96.68,119.6s6.71,19,6.71,19,4.35-4,5-2.43-1.23,3.3-1.23,3.3,3.92,0,3.47,2.28-4,2.88-4,2.88,2.52.65,1.79,2.76c-.48,1.37-6.44-.53-7.7-2.37s-2.49-17.08-7.09-20.67c-4.33-3.38-19.36-8.59-19.36-8.59Z"/><path class="cls-5" d="M49.38,96.17s-11.26,13.39-18.3,20.62-11.32,22.52-11.32,22.52-4.69-3.58-5.17-1.92,1.52,3.16,1.52,3.16-3.91.41-3.25,2.62,4.26,2.47,4.26,2.47-2.44.89-1.52,2.91c.59,1.32,6.36-1.17,7.45-3.13s6.66-20.66,10.77-24.34c3.89-3.48,13.55-17.8,13.55-17.8Z"/><path class="cls-7" d="M60.27,26.75C38.38,26,30.46,35.39,27.72,39.65c-3.91,6.1-9.56,15.22-9.19,22.82,1.25-.52,2.31-1.56,3.57-1.84-2.66,6.25-4,13.29-6.89,19.54,2-.2,3.63-2.12,5.62-2.47-.33,4.3-3.3,8.53-3,13.11,1.76-.27,2.42-2.35,4.17-2.47-.9,4.64-2.81,9.55-2.68,14.41,1.64-1.44,2.29-4.49,4.47-5.41.34,5.77.38,12.16.36,18,1.37-1.78,3.2-5.46,4.76-7.25,0,3.85,1,12.82,3.3,15.34.95-2.27,2.38-5.28,4.28-6.69.11,1.71,1.46,7.05,2.4,7.38.43.15,2.61-3.33,2.87-3.93a83.93,83.93,0,0,0,8.44,7.55c1-1.62,4-6.91,4.86-6.5.28.14,3.84,6.84,6.6,8.06.71-2.38,2.81-5.76,4-5.36,0,0,3,6.87,3.15,9.25,1.8-2.24,3.6-6.62,5.78-8.94,1.62,1.16,2.65,5.11,3.8,7C79.31,128.61,82,123,82,123c.88-.08,4.11,2.94,5,5.3a24.27,24.27,0,0,0,1.44-11.48c3.24.86,5.39,2,8.47,2.54-1.1-2.2-1.4-4.76-2.35-7,1.85.85,3.45,2.86,5.69,2.49-1-3.3-4.14-7-4.45-10.54,2.23.5,4.44,2.22,6.57,3.16-.05-4.88-3.52-9.68-5.88-13.62a56,56,0,0,0,6-1.38c-1.21-2.58-5.35-7.64-8.08-9.15,1.72-.53,4.35.87,6.48,2,0-2.61-4-9.69-6-11.5,2.29.21,2.63.76,4.51,1.46-.69-2.91-2.23-4.84-4.19-7.15,2.82.51,1.82-.32,3.74.65C99.34,65.55,92.15,27.8,60.27,26.75Z"/><path class="cls-8" d="M57.7,39.16c-9.39.48-21.17,2.92-22.42,13.51s5.28,18.11,22,17.75S83,65,82.86,56.43C82.72,45.14,75,38.29,57.7,39.16Z"/><path class="cls-5" d="M35.48,56.93c1.25-10.58,13-13,22.41-13.5C73.23,42.66,81,47.94,82.71,57v-1c-.14-11.28-7.85-18.14-25.16-17.26-9.38.47-21.16,2.92-22.41,13.5a17.78,17.78,0,0,0,.21,6C35.39,57.82,35.43,57.38,35.48,56.93Z"/><path class="cls-9" d="M45.52,46.8a3.43,3.43,0,0,0-1.08.31L43.87,46a.53.53,0,0,0-.71-.23h0a.58.58,0,0,0-.21.77l.6,1.17-.2.21-.9-.74a.52.52,0,0,0-.72.05l0,0a.61.61,0,0,0,.09.81l1,.8a3,3,0,0,0-.18.58.57.57,0,0,0,.44.66.54.54,0,0,0,.62-.43v0a2.3,2.3,0,0,1,2-1.75,1.74,1.74,0,0,1,1.87.88.52.52,0,0,0,.69.28h0a.57.57,0,0,0,.22-.74A2.79,2.79,0,0,0,45.52,46.8Z"/><path class="cls-9" d="M71.45,46a4.12,4.12,0,0,1,1.09.31l.56-1.09a.52.52,0,0,1,.69-.25l0,0h0a.6.6,0,0,1,.21.78l-.61,1.16a1.45,1.45,0,0,1,.21.22l.89-.75a.54.54,0,0,1,.75.08v0a.6.6,0,0,1-.09.8l-1,.8a2.41,2.41,0,0,1,.17.58.56.56,0,0,1-.43.66.55.55,0,0,1-.63-.46h0a2.28,2.28,0,0,0-2-1.74,1.74,1.74,0,0,0-1.88.87.52.52,0,0,1-.68.29l0,0h0a.6.6,0,0,1-.23-.75A2.83,2.83,0,0,1,71.45,46Z"/><path class="cls-3" d="M71.68,47c-3.62-1-6.32.85-5.44,3.63.52,1.65,6.19,4,8,2.58C76.37,51.41,74.61,47.73,71.68,47Z"/><path class="cls-10" d="M72.77,49.64a2,2,0,0,1-2.55,1.22l-.08,0a2.18,2.18,0,0,1-1.22-2.74,2,2,0,0,1,2.55-1.23l.08,0A2.19,2.19,0,0,1,72.77,49.64Z"/><path class="cls-3" d="M71.3,48.26a.84.84,0,0,1-1.07.51h0a.92.92,0,0,1-.51-1.15.83.83,0,0,1,1-.52l.05,0A.92.92,0,0,1,71.3,48.26Z"/><path class="cls-3" d="M45.63,47.56c3.61-1,6.32.86,5.44,3.64-.52,1.65-6.19,4-8,2.58C40.94,52,42.7,48.34,45.63,47.56Z"/><path class="cls-10" d="M44.54,50.25a2,2,0,0,0,2.55,1.23l.08,0a2.18,2.18,0,0,0,1.22-2.74,2,2,0,0,0-2.55-1.23l-.08,0A2.18,2.18,0,0,0,44.54,50.25Z"/><path class="cls-3" d="M46,48.87a.83.83,0,0,0,1,.52l.05,0a.9.9,0,0,0,.51-1.14.81.81,0,0,0-1-.52l-.07,0A.9.9,0,0,0,46,48.87Z"/><path class="cls-9" d="M62,65.65a1.34,1.34,0,0,1-1.66.91c-.83-.12-1.43-.74-1.35-1.37a1.35,1.35,0,0,1,1.66-.92C61.49,64.4,62.09,65,62,65.65Z"/><polygon class="cls-11" points="30.11 76.79 29.75 85.7 36.49 79.21 33.87 78.09 31.79 81.15 32.25 77.21 30.11 76.79"/><polygon class="cls-11" points="41.64 84.3 44.66 98.11 50.28 88.27 47.36 87.23 45.18 92.48 43.89 84.52 41.64 84.3"/><polygon class="cls-11" points="70.2 82.52 75.37 90.27 76.78 79.24 74.28 80.58 74.31 85.9 71.45 81.85 70.2 82.52"/><path class="cls-11" d="M85.77,87.94l4.31,6.81.65-9.66-2.28,1,.21,3.44L87.09,87Z"/><polygon class="cls-11" points="85.08 67.51 90.78 72.94 89.55 63.3 87.86 64.76 88.99 69.44 86.36 66.33 85.08 67.51"/><polygon class="cls-11" points="58.09 102.44 60.23 110.67 63.97 101.51 61.69 101.79 60.2 106.02 59.23 101.97 58.09 102.44"/><path class="cls-11" d="M33.68,103.92c.11.46.33,6.56.33,6.56l5.38-5.62-2.1-.93-1.9,2.52-.31-2.58Z"/><polygon class="cls-11" points="25.36 90.22 25.88 97.56 28.54 92.35 27.57 91.61 26.74 93.33 26.31 89.63 25.36 90.22"/><polygon class="cls-11" points="78.07 106.66 81.08 111.99 81.03 103.36 79.57 104.42 79.84 107.5 78.62 105.67 78.07 106.66"/><polygon class="cls-11" points="67.19 117.42 69.07 125.23 72.57 117.63 70.83 116.93 69.38 120.65 68.66 117.03 67.19 117.42"/><polygon class="cls-11" points="26.24 63.38 23.41 69.8 30.09 66.98 28.5 66.25 26.23 67.2 27.28 64.42 26.24 63.38"/><path class="cls-5" d="M44.43,58.47a3.07,3.07,0,0,1-2.08,3.72,2.89,2.89,0,0,1-3.49-2.1s0-.06,0-.09a3.09,3.09,0,0,1,2.08-3.72,2.86,2.86,0,0,1,3.48,2.08Z"/><path class="cls-5" d="M80.86,57.74a3.08,3.08,0,0,1-2.08,3.73,2.88,2.88,0,0,1-3.49-2.11.36.36,0,0,0,0-.1,3.09,3.09,0,0,1,2.08-3.72,2.86,2.86,0,0,1,3.48,2.08Z"/></g></g></g></g></g></g></g></svg>