<svg xmlns="http://www.w3.org/2000/svg" width="285.722" height="160" viewBox="0 0 285.722 160">
  <g id="Group_5953" data-name="Group 5953" transform="translate(-313 -13430)">
    <g id="Group_5951" data-name="Group 5951" transform="translate(0 -7.123)">
      <g id="Group_4449" data-name="Group 4449" transform="translate(440.723 13470.123)">
        <text id="天蠍座" transform="translate(92 45)" fill="#fff" font-size="40" font-family="PingFangTC-Medium, PingFang TC" font-weight="500" letter-spacing="0.13em"><tspan x="-65.2" y="0">天蠍座</tspan></text>
      </g>
      <g id="Group_4453" data-name="Group 4453" transform="translate(445.723 13502)">
        <text id="Scorpio" transform="translate(87 53)" fill="#fff" font-size="32" font-family="HelveticaNeue-Medium, Helvetica Neue" font-weight="500" letter-spacing="0.05em"><tspan x="-62.304" y="0">Scorpio</tspan></text>
      </g>
    </g>
    <rect id="Rectangle_652" data-name="Rectangle 652" width="285" height="160" transform="translate(313 13430)" fill="none"/>
    <g id="Group_5952" data-name="Group 5952" transform="translate(313 13445)">
      <g id="Group_24" data-name="Group 24" transform="translate(0 0)">
        <path id="Path_179" data-name="Path 179" d="M481.129,215.212c-.893.985-1.767,2.008-2.578,3.081-7.165-5.087-18.162,9.6-18.162,9.6-2.819-16.025-17.209-11.007-17.209-11.007,1.2-9-8.239-12.091-8.239-12.091,2.458-7.235,19.487-19.346,22.3-20.109s4,3.682,8.67,11.7A72.787,72.787,0,0,0,481.129,215.212Z" transform="translate(-434.942 -175.432)" fill="#844686"/>
        <path id="Path_180" data-name="Path 180" d="M542.54,195.765s-8.861,4.515-6.281,13.214c0,0-14.981-2.738-15.3,13.537,0,0-13.606-13.285-19.757-6.361q-1.579-1.191-3.28-2.259l.161-.25s7.084-7.4,12.562-21.423c3.381-8.639,3.873-13.214,6.772-12.893S539,189,542.54,195.765Z" transform="translate(-388.737 -179.314)" fill="#844686"/>
        <path id="Path_181" data-name="Path 181" d="M533.5,205.1c17.611,13.174,25.175,35.842,19.757,52.758-8.056,25.135-43.928,33.615-66.706,28.356-20.409-4.716-35.44-20.94-32.219-48.013,1.285-10.766,4.856-19.948,10.315-27.082.811-1.073,1.685-2.1,2.578-3.081,8.218-8.889,19.837-13.835,33.824-13.655a54.868,54.868,0,0,1,29.169,8.457Q531.918,203.911,533.5,205.1Z" transform="translate(-421.036 -168.52)" fill="#c394c1"/>
      </g>
      <path id="Path_182" data-name="Path 182" d="M489.682,198.5s-8.918-10.754-11.279-8.393,1.312,4.459,1.312,4.459-6.3-.789-6.559,1.574,7.607,1.836,7.607,1.836-4.721,3.936-2.361,7.082,6.559-3.147,6.559-3.147" transform="translate(-406.909 -171.642)" fill="#c394c1"/>
      <path id="Path_183" data-name="Path 183" d="M503.773,190.613a41.478,41.478,0,0,1,3.027,3.067c.843.978,1.855,2.1,2.81,3.41.492.641.976,1.324,1.458,2.025s.95,1.427,1.413,2.158.853,1.508,1.273,2.249c.38.765.759,1.514,1.1,2.25.314.751.612,1.479.863,2.183.222.711.432,1.385.628,2.006.133.636.258,1.221.367,1.739a11.075,11.075,0,0,1,.175,1.357c.064.754.1,1.184.1,1.184a.124.124,0,0,1-.114.137.127.127,0,0,1-.135-.1l0-.014s-.085-.418-.236-1.149a10.3,10.3,0,0,0-.293-1.3c-.146-.494-.31-1.052-.491-1.661-.225-.595-.47-1.238-.726-1.918-.276-.673-.633-1.356-.941-2.086-.352-.713-.739-1.437-1.123-2.177-.428-.716-.837-1.46-1.293-2.174s-.884-1.453-1.366-2.136c-.463-.7-.929-1.378-1.4-2.02-.936-1.292-1.826-2.488-2.62-3.492-.81-.992-1.462-1.838-1.952-2.4l-.758-.9a.168.168,0,0,1,.017-.238A.171.171,0,0,1,503.773,190.613Z" transform="translate(-384.647 -171.055)" fill="#412046"/>
      <path id="Path_184" data-name="Path 184" d="M505.31,187.411a43.182,43.182,0,0,1,4.679,1.156c1.375.446,2.994.94,4.662,1.649.843.333,1.7.713,2.561,1.116.872.383,1.725.844,2.585,1.29.851.461,1.668.99,2.488,1.474.789.539,1.573,1.061,2.306,1.6.711.572,1.4,1.118,2.018,1.682.595.588,1.168,1.13,1.673,1.654.461.565.884,1.084,1.26,1.541a11.348,11.348,0,0,1,.853,1.271l.7,1.134a.128.128,0,0,1-.042.173.125.125,0,0,1-.167-.031l-.01-.014s-.289-.378-.8-1.038a10.629,10.629,0,0,0-.933-1.167c-.4-.42-.842-.895-1.33-1.411-.52-.484-1.108-.983-1.713-1.524-.622-.522-1.34-1-2.032-1.552-.726-.511-1.5-1.006-2.28-1.517-.815-.458-1.619-.96-2.464-1.4s-1.67-.908-2.524-1.29c-.841-.409-1.678-.8-2.5-1.136-1.64-.7-3.19-1.323-4.535-1.815-1.351-.466-2.472-.884-3.273-1.125s-1.252-.394-1.252-.394a.167.167,0,0,1-.113-.21A.17.17,0,0,1,505.31,187.411Z" transform="translate(-383.457 -173.375)" fill="#412046"/>
      <path id="Path_185" data-name="Path 185" d="M459.1,195.3l-.6,1c-.39.629-.889,1.56-1.522,2.656-.617,1.1-1.293,2.415-2.006,3.825-.362.7-.711,1.437-1.052,2.19-.364.744-.659,1.533-1,2.3s-.617,1.559-.926,2.327c-.258.784-.513,1.553-.761,2.3-.189.759-.43,1.482-.6,2.181-.147.7-.288,1.37-.416,1.985-.082.621-.158,1.193-.225,1.7a10.253,10.253,0,0,0-.087,1.319l-.056,1.158,0,.016a.126.126,0,0,1-.132.12.128.128,0,0,1-.12-.118s-.031-.426-.083-1.172a10.5,10.5,0,0,1-.038-1.352c.028-.524.057-1.113.09-1.758.1-.638.2-1.326.307-2.056.139-.725.314-1.482.5-2.264.225-.771.473-1.564.728-2.368.3-.789.567-1.6.893-2.392s.667-1.578,1.044-2.33c.359-.761.726-1.5,1.1-2.205.728-1.427,1.54-2.685,2.207-3.773a40.924,40.924,0,0,1,2.469-3.473.168.168,0,0,1,.237-.024A.173.173,0,0,1,459.1,195.3Z" transform="translate(-424.284 -167.842)" fill="#412046"/>
      <path id="Path_186" data-name="Path 186" d="M462.451,192.462l-1.144.56c-.735.345-1.751.907-2.98,1.55-1.219.666-2.616,1.484-4.088,2.394-.744.446-1.489.94-2.238,1.453-.766.489-1.481,1.073-2.235,1.6s-1.446,1.137-2.16,1.7c-.669.605-1.345,1.189-1.964,1.787-.583.631-1.207,1.189-1.725,1.784-.5.607-.993,1.169-1.42,1.711l-1.071,1.543a10.735,10.735,0,0,0-.726,1.255l-.617,1.113-.009.016a.126.126,0,0,1-.227-.109l.5-1.191a11.351,11.351,0,0,1,.631-1.345c.293-.494.624-1.052.983-1.663.406-.579.879-1.181,1.363-1.834.506-.633,1.092-1.257,1.69-1.909.624-.626,1.3-1.236,1.978-1.872.718-.583,1.425-1.208,2.176-1.775.759-.551,1.51-1.12,2.294-1.612.77-.511,1.536-1,2.3-1.441,1.5-.921,2.984-1.626,4.239-2.25a41.265,41.265,0,0,1,4.329-1.774.168.168,0,0,1,.213.107A.171.171,0,0,1,462.451,192.462Z" transform="translate(-431.352 -169.954)" fill="#412046"/>
      <path id="Path_187" data-name="Path 187" d="M481.971,210.615a7.438,7.438,0,1,0-7.439,7.438A7.44,7.44,0,0,0,481.971,210.615Z" transform="translate(-411.352 -161.898)" fill="#5c2176" opacity="0.2" style="mix-blend-mode: multiply;isolation: isolate"/>
      <path id="Path_188" data-name="Path 188" d="M500.252,209.235a7.438,7.438,0,1,0-7.438,7.439A7.437,7.437,0,0,0,500.252,209.235Z" transform="translate(-397.94 -162.904)" fill="#5c2176" opacity="0.2" style="mix-blend-mode: multiply;isolation: isolate"/>
      <circle id="Ellipse_7" data-name="Ellipse 7" cx="6.874" cy="6.874" r="6.874" transform="translate(56.494 41.494)" fill="#fff"/>
      <path id="Path_189" data-name="Path 189" d="M499.245,208.814a6.875,6.875,0,1,0-6.876,6.874A6.876,6.876,0,0,0,499.245,208.814Z" transform="translate(-397.852 -162.802)" fill="#fff"/>
      <path id="Path_190" data-name="Path 190" d="M473.236,207.966c0,.914-.529,1.652-1.181,1.652s-1.181-.739-1.181-1.652.527-1.654,1.181-1.654S473.236,207.052,473.236,207.966Z" transform="translate(-408.578 -159.601)" fill="#1d110b"/>
      <path id="Path_191" data-name="Path 191" d="M491.14,206.788c0,.914-.529,1.654-1.181,1.654s-1.181-.74-1.181-1.654.529-1.652,1.181-1.652S491.14,205.875,491.14,206.788Z" transform="translate(-395.442 -160.46)" fill="#1d110b"/>
      <g id="Group_25" data-name="Group 25" transform="translate(62.834 56.469)">
        <path id="Path_192" data-name="Path 192" d="M493.32,211.954l.1.25s-2.257,6.233-2.578,6.233-3.11-4.728-3.11-4.728l-.01-.059A40.285,40.285,0,0,0,493.32,211.954Z" transform="translate(-459.053 -211.954)" fill="#fff"/>
        <path id="Path_193" data-name="Path 193" d="M475.479,217.967c-.863-.1-4.294-4.827-4.294-4.827l.069-.262a49.143,49.143,0,0,0,5.629,1.025l-.01.092S476.343,218.078,475.479,217.967Z" transform="translate(-471.185 -211.275)" fill="#fff"/>
      </g>
      <path id="Path_194" data-name="Path 194" d="M479.784,247.02s-.107,6.552.428,7.734c2.084,4.575,3.384-2.578,6.768-2.417,1.305.061,3.329,8.216,2.039,8.859s-3.436-4.726-3.436-4.726-1.1,5.137-6.014,4.513c-6.767-.86-6.444-14.608-6.444-14.608S477.65,245.3,479.784,247.02Z" transform="translate(-406.929 -130.617)" fill="#844686"/>
      <path id="Path_195" data-name="Path 195" d="M498.995,244.52s1.052,6.47,1.789,7.538c2.859,4.137,2.874-3.136,6.234-3.575,1.3-.17,4.728,7.5,3.573,8.36s-4.218-4.045-4.218-4.045-.17,5.25-5.123,5.5c-6.812.352-8.923-13.24-8.923-13.24S496.131,242.807,498.995,244.52Z" transform="translate(-392.839 -132.204)" fill="#844686"/>
      <path id="Path_196" data-name="Path 196" d="M469.205,224.83s3.034,6.378,6.534,4.979c1.5-.6,2.209-2.767,2.209-2.767s-1.212-2.094-.586-3.1,1.8,1.047,1.8,1.047,1.338-3.979,2.344-3.6-.419,3.726-.419,3.726,1.675-3.851,2.427-3.1-.669,3.726-.669,3.726,1.729-3.271,2.23-2.391-2.8,12.408-9.918,11.824c-8.511-.7-9.388-9.182-9.388-9.182A3.3,3.3,0,0,1,469.205,224.83Z" transform="translate(-412.324 -148.623)" fill="#844686"/>
      <path id="Path_197" data-name="Path 197" d="M501.982,221.3s-1.55,6.893-5.274,6.3c-1.593-.255-2.765-2.212-2.765-2.212s.721-2.309-.113-3.15-1.526,1.418-1.526,1.418-2.183-3.582-3.081-2.992,1.233,3.54,1.233,3.54-2.484-3.386-3.053-2.484,1.477,3.486,1.477,3.486-2.408-2.81-2.7-1.841,5.472,11.484,12.287,9.341c8.145-2.559,7.127-11.028,7.127-11.028A3.3,3.3,0,0,0,501.982,221.3Z" transform="translate(-397.359 -149.182)" fill="#844686"/>
      <path id="Path_198" data-name="Path 198" d="M489.687,198.864c-1.106-1.266-2.264-2.5-3.461-3.677a38.488,38.488,0,0,0-3.755-3.32,9.9,9.9,0,0,0-2.075-1.241,2.233,2.233,0,0,0-1.016-.2c-.3.029-.432.172-.706.51a1.736,1.736,0,0,0-.38.9,1.682,1.682,0,0,0,.241.945,4.709,4.709,0,0,0,1.626,1.559.483.483,0,0,1,.166.666.49.49,0,0,1-.466.234,16.927,16.927,0,0,0-3.781-.017,4.789,4.789,0,0,0-1.68.475,1.112,1.112,0,0,0-.477.459.719.719,0,0,0-.064.264l0,.123c.007.012.014.016.016.023s.023.05.035.085a1.169,1.169,0,0,0,.518.421,4.358,4.358,0,0,0,.825.29,11.851,11.851,0,0,0,1.852.295,28.906,28.906,0,0,0,3.837.045.47.47,0,0,1,.139.924l-.007,0a7.334,7.334,0,0,0-3.206,1.5,1.4,1.4,0,0,0-.466,1.342,2.087,2.087,0,0,0,.333.733c.036.052.087.135.111.165l.152.185a2.992,2.992,0,0,0,.288.286,3.742,3.742,0,0,0,3.322.515,11.635,11.635,0,0,0,3.414-1.465l.012-.009a.264.264,0,0,1,.286.444A12.151,12.151,0,0,1,481.767,204a5.945,5.945,0,0,1-2.022.215,3.516,3.516,0,0,1-1.968-.772,3.81,3.81,0,0,1-.4-.381l-.156-.184a2.594,2.594,0,0,1-.165-.227,2.909,2.909,0,0,1-.47-1,2.109,2.109,0,0,1,.045-1.181,2.616,2.616,0,0,1,.608-.964,5.763,5.763,0,0,1,1.725-1.149,10.408,10.408,0,0,1,1.9-.654l.132.926a29.327,29.327,0,0,1-3.981-.021,12.718,12.718,0,0,1-2.011-.309,5.2,5.2,0,0,1-1.018-.355,2.087,2.087,0,0,1-.95-.824,1.323,1.323,0,0,1-.14-.371c-.014-.071-.028-.149-.035-.217v-.121a1.714,1.714,0,0,1,.154-.681,2.09,2.09,0,0,1,.877-.9,5.468,5.468,0,0,1,2.056-.6,18.055,18.055,0,0,1,4.026.045l-.3.9a6.648,6.648,0,0,1-1.1-.834,4.58,4.58,0,0,1-.881-1.1,2.617,2.617,0,0,1-.347-1.484,2.657,2.657,0,0,1,.588-1.4,2.893,2.893,0,0,1,.527-.543,1.622,1.622,0,0,1,.815-.3,3.061,3.061,0,0,1,1.448.286,10.74,10.74,0,0,1,2.245,1.4,34.174,34.174,0,0,1,3.755,3.49c1.169,1.24,2.287,2.514,3.36,3.835a.266.266,0,0,1-.038.373A.27.27,0,0,1,489.687,198.864Z" transform="translate(-407.116 -171.834)" fill="#6b4f6d"/>
      <path id="Path_199" data-name="Path 199" d="M466.464,212.2s.043.035.128.1a3.337,3.337,0,0,0,.371.264,11.938,11.938,0,0,0,1.472.846q.5.247,1.1.55l1.366.515c.492.173,1,.4,1.56.56l1.782.48c.626.153,1.257.38,1.945.491l2.124.354c.73.116,1.475.257,2.243.362.775.061,1.567.125,2.373.187a41.307,41.307,0,0,0,4.974.246c1.694-.009,3.414-.019,5.135-.029,1.73-.13,3.5-.168,5.156-.407,1.678-.158,3.318-.47,4.9-.759q1.175-.276,2.308-.539c.747-.192,1.467-.427,2.174-.629a32.282,32.282,0,0,0,3.849-1.51,27.67,27.67,0,0,0,3.041-1.692,17.376,17.376,0,0,0,2.1-1.645,10.338,10.338,0,0,0,1.158-1.243,4.319,4.319,0,0,0,.329-.461.4.4,0,0,1,.539-.159.4.4,0,0,1,.163.53,5.138,5.138,0,0,1-.368.577,11.084,11.084,0,0,1-1.184,1.406,18.729,18.729,0,0,1-2.138,1.85,23.49,23.49,0,0,1-3.116,1.9,33.276,33.276,0,0,1-3.96,1.68c-.725.229-1.465.492-2.233.711l-2.368.6c-1.628.312-3.3.647-5.045.829-1.742.264-3.462.312-5.206.458-1.765,0-3.53,0-5.267,0a42.258,42.258,0,0,1-5.076-.3l-2.424-.222c-.785-.13-1.55-.3-2.3-.437l-2.169-.426c-.7-.135-1.354-.387-1.992-.563l-1.824-.553c-.572-.2-1.092-.458-1.592-.662s-.959-.42-1.387-.609c-.411-.231-.789-.444-1.129-.636a12.318,12.318,0,0,1-1.543-1,3.54,3.54,0,0,1-.373-.3l-.121-.1a.4.4,0,0,1,.5-.615Z" transform="translate(-412.291 -158.352)" fill="#1d110b"/>
    </g>
  </g>
</svg>
