<svg xmlns="http://www.w3.org/2000/svg" viewBox="0 0 285 160"><defs><style>.cls-1,.cls-3,.cls-8{isolation:isolate;}.cls-2,.cls-3{fill:#fff;}.cls-3{font-size:32px;font-family:HelveticaNeue-Medium, Helvetica Neue;font-weight:500;letter-spacing:0.05em;}.cls-4{fill:none;}.cls-5{fill:#844686;}.cls-6{fill:#c394c1;}.cls-7{fill:#412046;}.cls-8{fill:#5c2176;opacity:0.2;}.cls-9{fill:#1d110b;}.cls-10{fill:#6b4f6d;}</style></defs><g id="圖層_2" data-name="圖層 2"><g id="圖層_1-2" data-name="圖層 1"><g id="Group_5953" data-name="Group 5953"><g id="Group_5951" data-name="Group 5951"><g class="cls-1"><path class="cls-2" d="M171.76,59a69.78,69.78,0,0,0,.92-8.28H158.6V47.12h31.84v3.64H176.52c-.2,3-.52,5.8-.92,8.28h16v3.64H177.4q4.2,10.74,15.52,16.56l-2.36,3.08a33.86,33.86,0,0,1-16.12-18A25.08,25.08,0,0,1,172.2,70q-4,7.14-13.64,12.36l-2.4-3.12c5.84-3,10-6.6,12.48-10.76a24,24,0,0,0,2.32-5.8h-13.4V59Z"/><path class="cls-2" d="M225.44,46.33V58.8c1.52-3.32,2.52-7.84,3-13.55l3.2.48c-.16,1.88-.4,3.64-.64,5.27h7v2.2c-.24,3.36-.6,6.72-1,10l-3-.84c.4-2.36.72-5.08,1-8.16H230.4a29.85,29.85,0,0,1-2.28,6.8l-2.68-1.88v1.12H220c-.2.6-.44,1.2-.68,1.76h7.76c-.16,9.08-.32,14.36-.52,15.84a2,2,0,0,0-.08.48,42.13,42.13,0,0,0,2.48-7.6,63.2,63.2,0,0,0,.92-11.2V57.2h3v3c0,1.8-.08,3.48-.16,5.08a29.47,29.47,0,0,0,5.64,13.68l-2.32,2.88a28.87,28.87,0,0,1-4.4-9.16A45.06,45.06,0,0,1,228.4,82l-2.16-2.64a4.22,4.22,0,0,1-.84,1.6c-.64.52-2,.8-4.16.8H220L219.08,79c1,0,2,.08,3,.08a1.3,1.3,0,0,0,1.36-.72A7.24,7.24,0,0,0,223.8,76c0-.6,0-1.88.08-3.8l-1.36,2.08a26.55,26.55,0,0,0-2-3.2,14.5,14.5,0,0,1-2,3.2l-1.24-1.52v1.52c0,.4.16.6.56.6h4.76v2.72h-5.52c-1.68,0-2.48-1-2.48-3V68.16L213,65.6v1.84h-3.8v6.84c.56-.24,1.12-.44,1.64-.64-.24-1.52-.52-2.92-.8-4.28l2.36-.8c.8,3.36,1.48,7.2,2.08,11.52l-2.52.64c-.16-1.32-.36-2.6-.56-3.8A64.2,64.2,0,0,1,202.08,80l-.88-3.56c1.6-.32,3.2-.68,4.76-1.12V67.44h-4V51h3.88V45.49h3.52V51H213V65.4a14,14,0,0,0,3.84-5.12h-2v-14Zm-18.92,7.83h-1.8V64.32h1.8Zm3.8,0h-1.64V64.32h1.64ZM224,65.08h-6.44a18.57,18.57,0,0,1-2.36,2.68h2.12V72a14.15,14.15,0,0,0,2.36-6.08l2.28.36a19.46,19.46,0,0,1-.6,2.52,16.69,16.69,0,0,1,2.52,3C223.92,70,224,67.8,224,65.08Zm-1.6-13.24V49.25H218v2.59Zm0,2.88H218v2.6h4.44Z"/><path class="cls-2" d="M282.44,52h-29V61c-.16,8.72-1.6,15.72-4.4,21l-2.84-2.52q3.3-6.66,3.48-18.48V48.33h14.52a19.24,19.24,0,0,0-1.4-2.88l4-.64c.44,1.08.88,2.23,1.32,3.52h14.28ZM265.92,69.52V53.2h3.72V69.52H280.8V73H269.64v4.64H282.8v3.64H253.32V77.68h12.6V73H255.56V69.52Zm-9.64-.92L254,65.68c2.44-3,4.08-7,5-12l3.52.64c-.4,2-.84,3.76-1.36,5.44a32,32,0,0,1,4.2,5L263.16,68A37.25,37.25,0,0,0,260,62.64,23.62,23.62,0,0,1,256.28,68.6Zm16.16-.2-2.32-2.88a26,26,0,0,0,4.76-11.88l3.4.6a41.26,41.26,0,0,1-1.2,5.08q2.64,2.58,5.4,5.76l-2.08,3.2c-1.72-2.68-3.16-4.72-4.28-6.16A23.22,23.22,0,0,1,272.44,68.4Z"/></g><g id="Group_4453" data-name="Group 4453"><g id="Scorpio" class="cls-1"><text class="cls-3" transform="translate(157.42 117.88)">Scorpio</text></g></g></g><rect id="Rectangle_652" data-name="Rectangle 652" class="cls-4" width="285" height="160"/><g id="Group_5952" data-name="Group 5952"><g id="Group_24" data-name="Group 24"><path id="Path_179" data-name="Path 179" class="cls-5" d="M44.87,56.18c-.85.93-1.67,1.9-2.44,2.91-6.77-4.81-17.17,9.07-17.17,9.07C22.6,53,9,57.76,9,57.76c1.13-8.51-7.79-11.43-7.79-11.43,2.32-6.84,18.42-18.29,21.08-19s3.78,3.48,8.19,11.06A68.7,68.7,0,0,0,44.87,56.18Z"/><path id="Path_180" data-name="Path 180" class="cls-5" d="M146.59,34.13s-8.37,4.26-5.93,12.49c0,0-14.17-2.59-14.47,12.79,0,0-12.86-12.55-18.67-6-1-.75-2-1.46-3.1-2.14l.15-.23s6.7-7,11.87-20.25c3.2-8.17,3.66-12.49,6.4-12.19S143.25,27.73,146.59,34.13Z"/><path id="Path_181" data-name="Path 181" class="cls-6" d="M107.52,53.15C124.16,65.61,131.31,87,126.19,103c-7.61,23.76-41.52,31.78-63,26.81-19.29-4.46-33.5-19.8-30.46-45.39,1.22-10.17,4.59-18.85,9.75-25.6.77-1,1.6-2,2.44-2.91,7.77-8.4,18.75-13.08,32-12.91a51.84,51.84,0,0,1,27.57,8C105.49,51.69,106.52,52.4,107.52,53.15Z"/></g><path id="Path_182" data-name="Path 182" class="cls-6" d="M79.45,44S71,33.8,68.79,36,70,40.25,70,40.25s-6-.75-6.2,1.48S71,43.47,71,43.47s-4.46,3.72-2.23,6.69,6.2-3,6.2-3"/><path id="Path_183" data-name="Path 183" class="cls-7" d="M113.81,37.06c1,.92,2,1.89,2.87,2.9s1.75,2,2.65,3.23c.47.6.92,1.25,1.38,1.91s.9,1.35,1.34,2,.8,1.43,1.2,2.13.72,1.43,1,2.12.58,1.4.81,2.07.41,1.31.6,1.89.24,1.16.34,1.65a9.15,9.15,0,0,1,.17,1.28c.06.71.09,1.12.09,1.12a.12.12,0,0,1-.1.13h0a.13.13,0,0,1-.13-.1h0l-.22-1.09a10.89,10.89,0,0,0-.28-1.23c-.14-.46-.29-1-.47-1.57l-.68-1.81c-.26-.63-.6-1.28-.89-2s-.7-1.36-1.06-2.06-.79-1.38-1.22-2-.84-1.38-1.3-2-.87-1.3-1.32-1.91c-.88-1.22-1.73-2.35-2.48-3.3s-1.38-1.74-1.84-2.27l-.72-.85a.17.17,0,0,1,0-.23h0A.15.15,0,0,1,113.81,37.06Z"/><path id="Path_184" data-name="Path 184" class="cls-7" d="M116.39,31.84a41.36,41.36,0,0,1,4.42,1.1c1.3.42,2.83.88,4.41,1.56.8.31,1.61.67,2.42,1s1.63.8,2.45,1.22,1.57.94,2.35,1.39,1.48,1,2.18,1.52,1.32,1,1.9,1.59,1.11,1.06,1.59,1.56l1.19,1.46a10.88,10.88,0,0,1,.8,1.2l.67,1.07a.13.13,0,0,1,0,.16.12.12,0,0,1-.16,0h0l-.76-1a9.43,9.43,0,0,0-.88-1.1l-1.26-1.34c-.49-.46-1-.93-1.62-1.44s-1.26-.94-1.92-1.47-1.42-1-2.15-1.43-1.53-.91-2.33-1.32-1.58-.86-2.39-1.22-1.58-.76-2.36-1.08c-1.55-.66-3-1.25-4.29-1.71s-2.33-.84-3.09-1.07-1.18-.37-1.18-.37a.15.15,0,0,1-.11-.19h0A.16.16,0,0,1,116.39,31.84Z"/><path id="Path_185" data-name="Path 185" class="cls-7" d="M34.12,44.53l-.57.95c-.37.59-.84,1.47-1.44,2.51s-1.22,2.28-1.89,3.61c-.34.66-.67,1.36-1,2.07s-.62,1.45-.94,2.18-.58,1.47-.88,2.2-.48,1.46-.72,2.17-.4,1.4-.56,2.06-.28,1.3-.4,1.88-.15,1.13-.21,1.6A10.49,10.49,0,0,0,25.43,67l-.05,1.1h0a.12.12,0,0,1-.13.11h0a.11.11,0,0,1-.11-.11s0-.4-.08-1.1a11,11,0,0,1,0-1.28c0-.5.06-1,.09-1.66s.19-1.26.29-1.95.3-1.4.47-2.14.45-1.48.69-2.24.54-1.51.84-2.26.63-1.49,1-2.2.69-1.42,1-2.08c.69-1.35,1.46-2.54,2.09-3.57a39.7,39.7,0,0,1,2.33-3.28.16.16,0,0,1,.22,0h0A.17.17,0,0,1,34.12,44.53Z"/><path id="Path_186" data-name="Path 186" class="cls-7" d="M30.61,39.85l-1.08.53c-.7.33-1.66.86-2.82,1.47s-2.47,1.4-3.87,2.26c-.7.42-1.4.89-2.11,1.37s-1.4,1-2.11,1.52-1.37,1.07-2.05,1.6-1.27,1.13-1.85,1.69S13.58,51.42,13.09,52s-.94,1.1-1.34,1.61l-1,1.46a10.75,10.75,0,0,0-.68,1.19l-.59,1v0a.13.13,0,0,1-.16,0,.14.14,0,0,1,0-.16l.47-1.12a9.82,9.82,0,0,1,.6-1.27l.93-1.58c.38-.54.83-1.11,1.29-1.73s1-1.19,1.59-1.8,1.23-1.17,1.87-1.77,1.35-1.14,2.06-1.68,1.43-1.06,2.17-1.52,1.45-.95,2.17-1.37c1.42-.87,2.82-1.53,4-2.12a38.19,38.19,0,0,1,4.09-1.68.15.15,0,0,1,.2.1h0A.15.15,0,0,1,30.61,39.85Z"/><path id="Path_187" data-name="Path 187" class="cls-8" d="M68,64.63a7,7,0,1,0-7,7A7,7,0,0,0,68,64.63Z"/><path id="Path_188" data-name="Path 188" class="cls-8" d="M97.92,62.37a7,7,0,1,0-7,7,7,7,0,0,0,7-7Z"/><circle id="Ellipse_7" data-name="Ellipse 7" class="cls-2" cx="61.11" cy="64.3" r="6.5"/><path id="Path_189" data-name="Path 189" class="cls-2" d="M97.05,62.07a6.5,6.5,0,1,0-6.5,6.5A6.5,6.5,0,0,0,97.05,62.07Z"/><path id="Path_190" data-name="Path 190" class="cls-9" d="M62.33,64.29c0,.87-.5,1.56-1.12,1.56s-1.11-.69-1.11-1.56.49-1.56,1.11-1.56S62.33,63.43,62.33,64.29Z"/><path id="Path_191" data-name="Path 191" class="cls-9" d="M91.67,62.37c0,.86-.5,1.56-1.12,1.56s-1.11-.7-1.11-1.56.5-1.56,1.11-1.56S91.67,61.5,91.67,62.37Z"/><g id="Group_25" data-name="Group 25"><path id="Path_192" data-name="Path 192" class="cls-2" d="M93,72l.09.24S91,78.08,90.65,78.08s-2.94-4.47-2.94-4.47v0A38.05,38.05,0,0,0,93,72Z"/><path id="Path_193" data-name="Path 193" class="cls-2" d="M64.66,78.28c-.81-.1-4.06-4.56-4.06-4.56l.07-.25a47.84,47.84,0,0,0,5.32,1v.08S65.48,78.38,64.66,78.28Z"/></g><path id="Path_194" data-name="Path 194" class="cls-5" d="M70.08,128.61s-.1,6.19.4,7.31c2,4.32,3.2-2.44,6.4-2.29,1.23.06,3.15,7.77,1.93,8.38s-3.25-4.47-3.25-4.47-1,4.85-5.69,4.26C63.48,141,63.78,128,63.78,128S68.06,127,70.08,128.61Z"/><path id="Path_195" data-name="Path 195" class="cls-5" d="M101.55,124.74s1,6.12,1.7,7.13c2.7,3.91,2.71-3,5.89-3.38,1.23-.16,4.47,7.09,3.38,7.9s-4-3.82-4-3.82-.16,5-4.84,5.2c-6.44.33-8.44-12.52-8.44-12.52S98.85,123.12,101.55,124.74Z"/><path id="Path_196" data-name="Path 196" class="cls-5" d="M55,90.61s2.86,6,6.17,4.71c1.42-.57,2.09-2.62,2.09-2.62s-1.14-2-.55-2.93,1.7,1,1.7,1,1.26-3.76,2.21-3.4-.39,3.52-.39,3.52S67.79,87.24,68.5,88s-.63,3.52-.63,3.52S69.5,88.38,70,89.21s-2.65,11.73-9.38,11.18c-8-.66-8.87-8.68-8.87-8.68A3.13,3.13,0,0,1,55,90.61Z"/><path id="Path_197" data-name="Path 197" class="cls-5" d="M100.11,86.75s-1.47,6.51-5,6c-1.51-.24-2.61-2.09-2.61-2.09s.68-2.18-.11-3S91,89,91,89,88.89,85.59,88,86.14s1.17,3.35,1.17,3.35-2.35-3.2-2.89-2.35,1.4,3.3,1.4,3.3-2.28-2.66-2.55-1.74,5.17,10.85,11.61,8.83c7.7-2.42,6.74-10.43,6.74-10.43A3.1,3.1,0,0,0,100.11,86.75Z"/><path id="Path_198" data-name="Path 198" class="cls-10" d="M79.26,44.13c-1-1.2-2.14-2.37-3.27-3.48a36.54,36.54,0,0,0-3.55-3.14,9.24,9.24,0,0,0-2-1.17,2.12,2.12,0,0,0-1-.19c-.29,0-.41.16-.67.48a1.7,1.7,0,0,0-.36.85,1.66,1.66,0,0,0,.23.9,4.43,4.43,0,0,0,1.54,1.47.48.48,0,0,1,.16.63h0a.46.46,0,0,1-.44.22,16.39,16.39,0,0,0-3.57,0,4.91,4.91,0,0,0-1.59.45,1.06,1.06,0,0,0-.45.44.54.54,0,0,0-.06.25v.11a0,0,0,0,1,0,0s0,0,0,.08a1.11,1.11,0,0,0,.49.39,4.26,4.26,0,0,0,.78.28,11.39,11.39,0,0,0,1.75.28A27.34,27.34,0,0,0,71,43a.45.45,0,0,1,.47.42.45.45,0,0,1-.33.45h0a7,7,0,0,0-3,1.42,1.31,1.31,0,0,0-.44,1.27,2,2,0,0,0,.31.69l.11.16.14.17.27.27a3.55,3.55,0,0,0,3.14.49A10.78,10.78,0,0,0,74.85,47h0a.25.25,0,0,1,.35.07.26.26,0,0,1-.08.35h0A11.5,11.5,0,0,1,71.77,49a5.35,5.35,0,0,1-1.91.2A3.26,3.26,0,0,1,68,48.45a4.27,4.27,0,0,1-.38-.36l-.14-.17-.16-.21a2.65,2.65,0,0,1-.44-1,1.94,1.94,0,0,1,0-1.12,2.55,2.55,0,0,1,.57-.91,5.71,5.71,0,0,1,1.63-1.08,9.58,9.58,0,0,1,1.8-.62l.13.87a26.35,26.35,0,0,1-3.77,0,11.19,11.19,0,0,1-1.9-.29,5.44,5.44,0,0,1-1-.33,2,2,0,0,1-.9-.78,1.48,1.48,0,0,1-.13-.35,1.52,1.52,0,0,1,0-.21v-.11a1.65,1.65,0,0,1,.14-.65,2,2,0,0,1,.83-.85,5.23,5.23,0,0,1,1.94-.56,16.74,16.74,0,0,1,3.81,0l-.28.85a5.81,5.81,0,0,1-1-.79,4.46,4.46,0,0,1-.84-1,2.35,2.35,0,0,1,.23-2.72,2.47,2.47,0,0,1,.5-.52,1.53,1.53,0,0,1,.77-.28,3,3,0,0,1,1.37.27,9.89,9.89,0,0,1,2.12,1.32,32.57,32.57,0,0,1,3.55,3.3q1.65,1.76,3.18,3.63a.25.25,0,0,1,0,.35A.26.26,0,0,1,79.26,44.13Z"/><path id="Path_199" data-name="Path 199" class="cls-9" d="M52.42,69.48l.12.09c.11.09.23.17.35.25a10.65,10.65,0,0,0,1.39.8l1,.52,1.29.49c.47.16,1,.37,1.48.53l1.68.45c.59.14,1.19.36,1.84.46l2,.34c.69.11,1.39.24,2.12.34l2.24.18a38.83,38.83,0,0,0,4.7.23l4.86,0c1.63-.12,3.3-.16,4.87-.38S85.55,73.3,87,73l2.18-.51c.71-.18,1.39-.4,2.06-.59a32.32,32.32,0,0,0,3.64-1.43,25.94,25.94,0,0,0,2.87-1.6,17.51,17.51,0,0,0,2-1.56,10.07,10.07,0,0,0,1.09-1.17,3.47,3.47,0,0,0,.31-.44.39.39,0,0,1,.51-.15.37.37,0,0,1,.15.5,5.07,5.07,0,0,1-.34.55A11,11,0,0,1,100.38,68a18.63,18.63,0,0,1-2,1.75,22.72,22.72,0,0,1-3,1.79,31.56,31.56,0,0,1-3.74,1.59c-.69.22-1.39.47-2.11.67l-2.24.57c-1.54.3-3.12.61-4.77.78s-3.27.3-4.92.44h-5a40.55,40.55,0,0,1-4.8-.29l-2.29-.21c-.74-.12-1.46-.28-2.17-.41l-2-.4c-.66-.13-1.28-.37-1.89-.53l-1.72-.53c-.54-.19-1-.43-1.51-.62L54.91,72l-1.06-.6a11.71,11.71,0,0,1-1.46-.94,3.37,3.37,0,0,1-.35-.29l-.12-.09a.39.39,0,0,1,0-.54.38.38,0,0,1,.45,0Z"/></g></g></g></g></svg>