<svg xmlns="http://www.w3.org/2000/svg" xmlns:xlink="http://www.w3.org/1999/xlink" viewBox="0 0 285 160"><defs><style>.cls-1{fill:none;}.cls-2,.cls-4{isolation:isolate;}.cls-3,.cls-4{fill:#fff;}.cls-4{font-size:40px;font-family:HelveticaNeue-Medium, Helvetica Neue;font-weight:500;letter-spacing:0.05em;}.cls-5{fill:#da9914;}.cls-6{clip-path:url(#clip-path);}.cls-7{fill:#023b41;}.cls-8{fill:#022a2a;}.cls-9{fill:#0c5d61;}.cls-10{clip-path:url(#clip-path-2);}.cls-11{fill:#f0a818;}.cls-12{fill:#e75a27;}.cls-13{fill:#0d1010;}.cls-14{fill:#edede5;}.cls-15{fill:#df9618;}</style><clipPath id="clip-path"><path class="cls-1" d="M36.31,37.6c-3.32-.08-5.71-.52-8.5-2.38-2.35-1.56-4.58-3.31-5.44-6.12a.72.72,0,0,0-.89-.46.71.71,0,0,0-.38.3c-3.7,5.52,1.81,15.93,8.19,16.64.5.06.66-.61.37-.92l6.1-6.18a5.5,5.5,0,0,0,.72-.3.31.31,0,0,0,.1-.43A.33.33,0,0,0,36.31,37.6Z"/></clipPath><clipPath id="clip-path-2"><path class="cls-1" d="M92.1,37.46c3.32-.1,5.71-.54,8.49-2.42,2.35-1.58,4.56-3.34,5.41-6.14a.71.71,0,0,1,.88-.47.73.73,0,0,1,.39.3c3.73,5.5-1.73,15.93-8.1,16.68-.5.06-.67-.61-.38-.92l-6.13-6.15a6.37,6.37,0,0,1-.72-.29.31.31,0,0,1-.11-.43A.32.32,0,0,1,92.1,37.46Z"/></clipPath></defs><g id="圖層_2" data-name="圖層 2"><g id="圖層_1-2" data-name="圖層 1"><g id="Group_5953" data-name="Group 5953"><g id="Group_5951" data-name="Group 5951"><g class="cls-2"><path class="cls-3" d="M171.76,51a69.78,69.78,0,0,0,.92-8.28H158.6V39.12h31.84v3.64H176.52c-.2,3-.52,5.8-.92,8.28h16v3.64H177.4q4.2,10.74,15.52,16.56l-2.36,3.08a33.86,33.86,0,0,1-16.12-18A25.08,25.08,0,0,1,172.2,62q-4,7.14-13.64,12.36l-2.4-3.12c5.84-3,10-6.6,12.48-10.76a24,24,0,0,0,2.32-5.8h-13.4V51Z"/><path class="cls-3" d="M201.84,39.72a50.89,50.89,0,0,0,12-2.39l1.32,3.55c-1.36.41-2.84.8-4.36,1.12v5.84h4.28v3.64H210.8v1.68c1.52,1.64,3.08,3.44,4.64,5.44l-2,3.08c-1-1.92-1.88-3.56-2.6-4.92V74h-3.64V57.24a41.39,41.39,0,0,1-4.64,9.32l-1.64-4.2a30.13,30.13,0,0,0,6-10.88h-5V47.84h5.28V42.68q-2.22.36-4.56.6Zm35.24-.91V42.4h-8.4V56.6h9.6v3.64h-9.6v14H225v-14h-9.12V56.6H225V42.4h-8.32V38.81ZM223,54.16l-3.28.8A81.12,81.12,0,0,0,217,45.2l3.32-1.08A97.29,97.29,0,0,1,223,54.16Zm13.56-9.28a59.87,59.87,0,0,1-2.92,10l-3.2-1.12A56.37,56.37,0,0,0,233.2,44Z"/><path class="cls-3" d="M282.44,44h-29V53c-.16,8.72-1.6,15.72-4.4,21l-2.84-2.52q3.3-6.66,3.48-18.48V40.33h14.52a19.24,19.24,0,0,0-1.4-2.88l4-.64c.44,1.08.88,2.23,1.32,3.52h14.28ZM265.92,61.52V45.2h3.72V61.52H280.8V65H269.64v4.64H282.8v3.64H253.32V69.68h12.6V65H255.56V61.52Zm-9.64-.92L254,57.68c2.44-3,4.08-7,5-12l3.52.64c-.4,2-.84,3.76-1.36,5.44a32,32,0,0,1,4.2,5L263.16,60A37.25,37.25,0,0,0,260,54.64,23.62,23.62,0,0,1,256.28,60.6Zm16.16-.2-2.32-2.88a26,26,0,0,0,4.76-11.88l3.4.6a41.26,41.26,0,0,1-1.2,5.08q2.64,2.58,5.4,5.76l-2.08,3.2c-1.72-2.68-3.16-4.72-4.28-6.16A23.22,23.22,0,0,1,272.44,60.4Z"/></g><g id="Group_4453" data-name="Group 4453"><g id="Libra" class="cls-2"><text class="cls-4" transform="translate(170.04 122.88)">Libra</text></g></g></g><g id="Group_5952" data-name="Group 5952"><g id="Group_4463" data-name="Group 4463"><path id="Path_407" data-name="Path 407" class="cls-5" d="M85.83,129.74s.09,5-.32,5.9c-1.59,3.5-2.59-2-5.17-1.84-1,0-2.54,6.27-1.56,6.76S81.4,137,81.4,137s.84,3.92,4.6,3.45c5.16-.66,4.92-11.15,4.92-11.15S87.46,128.42,85.83,129.74Z"/><path id="Path_408" data-name="Path 408" class="cls-5" d="M51.36,131.8s-.8,4.94-1.36,5.76c-2.19,3.16-2.2-2.4-4.76-2.73-1-.13-3.61,5.72-2.73,6.38s3.22-3.09,3.22-3.09.13,4,3.91,4.2c5.2.28,6.81-10.11,6.81-10.11S53.55,130.49,51.36,131.8Z"/><g id="Group_126" data-name="Group 126"><g id="Group_74" data-name="Group 74"><g id="Group_72" data-name="Group 72"><g class="cls-6"><g id="Group_71" data-name="Group 71"><path id="Path_409" data-name="Path 409" class="cls-7" d="M36.31,37.6c-3.32-.08-5.71-.52-8.5-2.38-2.35-1.56-4.58-3.31-5.44-6.12a.72.72,0,0,0-.89-.46.71.71,0,0,0-.38.3c-3.7,5.52,1.81,15.93,8.19,16.64.5.06.66-.61.37-.92l6.1-6.18a5.5,5.5,0,0,0,.72-.3.31.31,0,0,0,.1-.43A.33.33,0,0,0,36.31,37.6Z"/><path id="Path_410" data-name="Path 410" class="cls-8" d="M21.59,25.68a11.12,11.12,0,0,0-.39,6.46,14.9,14.9,0,0,0,6.34,8.41,43.84,43.84,0,0,0,9.74,4.54,4.38,4.38,0,0,1-3.57,3.62,12.74,12.74,0,0,1-5.39-.33,12,12,0,0,1-5.35-2,9.41,9.41,0,0,1-2.27-3.07,21.76,21.76,0,0,1,.31-20"/></g></g></g><g id="Group_73" data-name="Group 73"><path id="Path_412" data-name="Path 412" class="cls-9" d="M21.57,29.83a12.86,12.86,0,0,0,6.89,8.34c.16.07.37-.13.21-.27a26.06,26.06,0,0,1-6.84-8.18c-.07-.15-.3,0-.26.11Z"/></g></g><g id="Group_78" data-name="Group 78"><g id="Group_76" data-name="Group 76"><g class="cls-10"><g id="Group_75" data-name="Group 75"><path id="Path_413" data-name="Path 413" class="cls-7" d="M92.1,37.46c3.32-.1,5.71-.54,8.49-2.42,2.35-1.58,4.56-3.34,5.41-6.14a.71.71,0,0,1,.88-.47.73.73,0,0,1,.39.3c3.73,5.5-1.73,15.93-8.1,16.68-.5.06-.67-.61-.38-.92l-6.13-6.15a6.37,6.37,0,0,1-.72-.29.31.31,0,0,1-.11-.43A.32.32,0,0,1,92.1,37.46Z"/><path id="Path_414" data-name="Path 414" class="cls-8" d="M106.76,25.46a11.14,11.14,0,0,1,.43,6.46,14.83,14.83,0,0,1-6.3,8.45A44.24,44.24,0,0,1,91.18,45c.12,1.81,1.8,3.2,3.58,3.6a12.91,12.91,0,0,0,5.39-.36,11.8,11.8,0,0,0,5.34-2.07,9.28,9.28,0,0,0,2.26-3.08,21.79,21.79,0,0,0-.42-20"/></g></g></g><g id="Group_77" data-name="Group 77"><path id="Path_416" data-name="Path 416" class="cls-9" d="M106.54,29.51a26,26,0,0,1-6.79,8.21c-.16.14,0,.34.21.27a12.82,12.82,0,0,0,6.84-8.38.14.14,0,0,0-.26-.11Z"/></g></g><path id="Path_417" data-name="Path 417" class="cls-11" d="M104.83,48.94c-9-12.87-24.47-18.61-39.61-19a51.41,51.41,0,0,0-24.48,5.25C37.52,36.86,34.69,39.52,32,42a28.91,28.91,0,0,0-6.67,8.21c-4.14,8.07-6.56,17.47-8.19,26.38A76.64,76.64,0,0,0,15.58,89.1a116.48,116.48,0,0,0,2.31,34.39,2.83,2.83,0,0,0,3.47,2,2.76,2.76,0,0,0,1.28-.74,30.84,30.84,0,0,0,2.5-3.08,56.29,56.29,0,0,1,1.69,9c.28,2.71,3.9,4.29,5.39,1.49q1.89-3.54,3.77-7.08l3.41,5.6a2.87,2.87,0,0,0,3.92,1,2.8,2.8,0,0,0,1-1q1.52-2.44,3-4.89c.69,1.58,1.39,3.14,2.15,4.68,1.1,2.23,2.94,4,5.57,3.66,2.27-.31,4-2.19,4.91-4.23a6.73,6.73,0,0,0,.42-1.52A30.93,30.93,0,0,0,64,133.09c1.6,1.75,3.93.59,4.69-1.28A45.47,45.47,0,0,0,70.34,127q.55,1.34,1.17,2.64c1.06,2.24,4.51,1.56,5.08-.69l1.68-6.64,1.64,2.62c1,1.63,3.83,2,4.75,0l0,0,1,3.77c.58,2.2,4,2.87,5,.65a43.43,43.43,0,0,0,2.44-6.47l1.31,3.66c.76,2.13,4,3.07,5.14.68.42-.86.79-1.74,1.15-2.61.18.47.35,1,.54,1.42a2.88,2.88,0,0,0,3.47,2c5.59-1.67,8.18-6.87,9.3-12.35,1.51-7.41,1.68-15.24,1.7-22.77C115.77,78,113.52,61.29,104.83,48.94Z"/><g id="Group_79" data-name="Group 79"><path id="Path_418" data-name="Path 418" class="cls-12" d="M37.83,82.1a4.61,4.61,0,1,1-4.62-4.59,4.61,4.61,0,0,1,4.62,4.59Z"/><path id="Path_419" data-name="Path 419" class="cls-12" d="M102.24,81.94a4.61,4.61,0,1,1-4.62-4.6,4.61,4.61,0,0,1,4.62,4.6Z"/></g><g id="Group_80" data-name="Group 80"><path id="Path_420" data-name="Path 420" class="cls-3" d="M20.38,99.05a2.46,2.46,0,0,0,.3,3.46,2.62,2.62,0,0,0,.87.47c2,.53,3.53-1.81,3-3.57a.37.37,0,0,0-.45-.25.36.36,0,0,0-.25.45h0c.35,1.23-.67,3-2.14,2.67a1.73,1.73,0,0,1-1.14-2.16,2,2,0,0,1,.3-.56.36.36,0,0,0,0-.51.37.37,0,0,0-.52,0Z"/></g><g id="Group_81" data-name="Group 81"><path id="Path_421" data-name="Path 421" class="cls-3" d="M81.5,109.69c-.1,1.46.18,3.94,2.24,3.76s2.06-3.26,1.94-4.65c0-.46-.76-.46-.72,0,.09,1,.12,3.19-.95,3.78-.76.42-1.46-.29-1.69-1a5.11,5.11,0,0,1-.09-1.91c0-.47-.69-.46-.72,0Z"/></g><g id="Group_82" data-name="Group 82"><path id="Path_422" data-name="Path 422" class="cls-3" d="M93.09,117.31c-.1,1.46.18,3.94,2.23,3.76s2.06-3.26,1.94-4.65c0-.46-.76-.46-.72,0,.09,1,.12,3.19-1,3.78-.75.42-1.46-.28-1.68-1a5,5,0,0,1-.09-1.92c0-.46-.7-.46-.73,0Z"/></g><g id="Group_83" data-name="Group 83"><path id="Path_423" data-name="Path 423" class="cls-3" d="M104.55,120.13a4.44,4.44,0,0,0,0,2.88,2,2,0,0,0,1.75,1.21c1.88,0,2.41-3,2.5-4.37,0-.46-.7-.46-.72,0-.07,1-.35,2.91-1.35,3.48-.75.42-1.43-.21-1.63-.93a4.57,4.57,0,0,1,.14-2.08c.11-.45-.6-.65-.7-.19Z"/></g><g id="Group_84" data-name="Group 84"><path id="Path_424" data-name="Path 424" class="cls-3" d="M27.78,121.22c.14,1.47.72,3.79,2.71,3.43s1.6-3.6,1.26-5c-.11-.45-.81-.26-.7.19.24,1,.65,3.32-.45,3.94-1.51.83-2-1.66-2.1-2.6,0-.46-.77-.46-.72,0Z"/></g><g id="Group_85" data-name="Group 85"><path id="Path_425" data-name="Path 425" class="cls-3" d="M45.13,118.92c.15,1.46.73,3.78,2.71,3.42s1.61-3.59,1.27-5a.37.37,0,0,0-.45-.25.35.35,0,0,0-.25.44c.24,1,.65,3.33-.46,3.94-1.5.83-2-1.66-2.09-2.59,0-.46-.77-.47-.72,0Z"/></g><g id="Group_86" data-name="Group 86"><path id="Path_426" data-name="Path 426" class="cls-3" d="M60.6,111.57c-.09,1.46.19,3.94,2.25,3.75s2.05-3.27,1.92-4.65c0-.47-.76-.47-.72,0,.09,1,.13,3.18-.93,3.78-.76.42-1.47-.28-1.69-1a4.91,4.91,0,0,1-.1-1.91c0-.47-.7-.47-.72,0Z"/></g><g id="Group_87" data-name="Group 87"><path id="Path_427" data-name="Path 427" class="cls-3" d="M109.5,96.89c.12,1.66.86,3.89,3,3.18,2.36-.78,2.12-3.55,1.75-5.49-.09-.46-.79-.26-.7.19.28,1.46.64,3.47-.86,4.41-1.76,1.1-2.37-1-2.46-2.29,0-.47-.76-.47-.72,0Z"/></g><g id="Group_88" data-name="Group 88"><path id="Path_428" data-name="Path 428" class="cls-3" d="M104,68.09c.37,1.57,1.39,3.59,3.35,2.68,2.29-1.06,1.66-3.82,1-5.69-.16-.44-.86-.25-.7.19.49,1.38,1.17,3.26,0,4.46-1.56,1.51-2.58-.49-2.89-1.84-.11-.45-.81-.26-.7.2Z"/></g><g id="Group_89" data-name="Group 89"><path id="Path_429" data-name="Path 429" class="cls-3" d="M76.4,49.61c.22,1.64,1.07,3.85,3.17,3C81.88,51.72,81.5,49,81,47.06a.36.36,0,0,0-.7.19c.36,1.4.83,3.25-.43,4.36a1.48,1.48,0,0,1-2,.07,3.69,3.69,0,0,1-.71-2.08c-.06-.45-.79-.46-.72,0Z"/></g><g id="Group_90" data-name="Group 90"><path id="Path_430" data-name="Path 430" class="cls-3" d="M26.05,67.4a4.43,4.43,0,0,1-.63,1.71,1.43,1.43,0,0,1-2.25.14c-1.24-1.19-.56-3.08-.07-4.46.15-.44-.55-.63-.7-.19-.67,1.88-1.28,4.64,1,5.69,2,.9,3-1.13,3.33-2.7.1-.45-.6-.65-.7-.19Z"/></g><g id="Group_91" data-name="Group 91"><path id="Path_431" data-name="Path 431" class="cls-3" d="M60.51,51.63a3.94,3.94,0,0,1-.16,2.15,1.44,1.44,0,0,1-2,.55l-.06,0c-1.53-.75-1.47-2.73-1.43-4.19a.37.37,0,0,0-.37-.35.36.36,0,0,0-.36.35c-.05,2,.17,4.6,2.54,5.08s2.69-1.87,2.53-3.55c0-.46-.77-.47-.72,0Z"/></g><g id="Group_92" data-name="Group 92"><path id="Path_432" data-name="Path 432" class="cls-3" d="M95.27,52c.55,1.62,1.9,3.61,3.79,2.25s1.06-3.91.21-5.69c-.2-.42-.83,0-.63.37.6,1.25,1.42,2.94.47,4.23a1.45,1.45,0,0,1-2,.58,1,1,0,0,1-.27-.19A4.16,4.16,0,0,1,96,51.83c-.15-.44-.85-.25-.7.19Z"/></g><g id="Group_93" data-name="Group 93"><path id="Path_433" data-name="Path 433" class="cls-3" d="M34.51,108.48c.07,1.82.58,4.6,3,4.42,2.08-.14,1.91-2.65,1.52-4.08a.36.36,0,0,0-.44-.25.35.35,0,0,0-.25.45c.27,1,.63,3.26-1.08,3.16s-2-2.34-2-3.7c0-.46-.74-.46-.72,0Z"/></g><g id="Group_94" data-name="Group 94"><path id="Path_434" data-name="Path 434" class="cls-3" d="M37.84,52.28c-.32,1.77-.45,4.7,2,5,2,.25,2.4-2.15,2.35-3.63,0-.47-.75-.47-.73,0,0,1,0,3-1.52,2.9-1.94-.19-1.63-2.77-1.39-4.07.09-.45-.61-.65-.7-.19Z"/></g><g id="Group_95" data-name="Group 95"><path id="Path_435" data-name="Path 435" class="cls-3" d="M72.19,93.88a2.74,2.74,0,0,0,1.74,3.45,2.86,2.86,0,0,0,.72.13A2.59,2.59,0,0,0,77,94.68a2.85,2.85,0,0,0-.2-.8c-.19-.43-.81,0-.63.37a1.81,1.81,0,0,1-1.07,2.35,1.76,1.76,0,0,1-.72.12,2,2,0,0,1-1.58-2.39,2,2,0,0,1,.08-.26c.15-.44-.56-.63-.7-.19Z"/></g><g id="Group_96" data-name="Group 96"><path id="Path_436" data-name="Path 436" class="cls-3" d="M60.42,36.55A2.73,2.73,0,0,0,62.16,40a2.47,2.47,0,0,0,.71.13,2.58,2.58,0,0,0,2.37-2.77,2.67,2.67,0,0,0-.19-.8c-.19-.43-.82-.06-.63.36a1.84,1.84,0,0,1-1.07,2.36,2,2,0,0,1-.72.11A2,2,0,0,1,61.05,37a2,2,0,0,1,.07-.26c.15-.45-.55-.64-.7-.2Z"/></g><g id="Group_97" data-name="Group 97"><path id="Path_437" data-name="Path 437" class="cls-3" d="M72.12,63.6a2.73,2.73,0,0,0,1.74,3.45,2.87,2.87,0,0,0,.71.13,2.58,2.58,0,0,0,2.37-2.77,2.53,2.53,0,0,0-.2-.81c-.19-.42-.81-.05-.62.37a1.83,1.83,0,0,1-1.07,2.35,1.79,1.79,0,0,1-.72.12,2,2,0,0,1-1.58-2.39,2.5,2.5,0,0,1,.07-.26c.15-.44-.55-.63-.7-.19Z"/></g><g id="Group_98" data-name="Group 98"><path id="Path_438" data-name="Path 438" class="cls-3" d="M103.57,106.66a2.71,2.71,0,0,0,1.73,3.44,2.88,2.88,0,0,0,.71.14,2.59,2.59,0,0,0,2.38-2.78,2.69,2.69,0,0,0-.2-.8c-.19-.43-.81-.06-.62.36a1.84,1.84,0,0,1-1.08,2.36,1.94,1.94,0,0,1-.72.11,2,2,0,0,1-1.57-2.38,1.11,1.11,0,0,1,.07-.26c.15-.45-.55-.63-.7-.19Z"/></g><path id="Path_439" data-name="Path 439" class="cls-11" d="M50.24,70.41a7.73,7.73,0,1,1-7.75-7.71,7.73,7.73,0,0,1,7.75,7.71Z"/><g id="Group_101" data-name="Group 101"><g id="Group_100" data-name="Group 100"><path id="Path_440" data-name="Path 440" class="cls-13" d="M82.21,83.79c0-7.09-5.65-4.46-9.57-1.42a10.49,10.49,0,0,1-14.43,0c-3.93-3-9.58-5.61-9.56,1.47,0,6.62,2.91,16.64,15.42,17.91v.15c.49,0,1,0,1.42,0s.92,0,1.41,0v-.15C79.38,100.44,82.23,90.4,82.21,83.79Z"/><g id="Group_99" data-name="Group 99"><path id="Path_441" data-name="Path 441" class="cls-14" d="M65.43,85.26c-.22,0-.52,0-.88-.09h0s-.28,5.15,5.52,4.75,3-7.9,3-7.9l-.47.35A13.43,13.43,0,0,1,65.43,85.26Z"/><path id="Path_442" data-name="Path 442" class="cls-14" d="M55.67,80.7S53.28,89.17,59.49,90c4.63.59,4.89-3,4.72-4.85a13.88,13.88,0,0,1-6-2.71A23.91,23.91,0,0,0,55.67,80.7Z"/></g></g></g><g id="Group_104" data-name="Group 104"><g id="Group_102" data-name="Group 102"><path id="Path_443" data-name="Path 443" class="cls-13" d="M38,64.31a10,10,0,0,0,1.11,5.16A3.82,3.82,0,0,0,42.59,72c4.21-.16,3.89-5.91,2.65-8.71-.13-.28-.51-.1-.53.15-.15,2,.9,7.8-2.56,7.29-2.61-.38-3.07-4.45-3.87-6.39-.06-.13-.3-.18-.33,0Z"/></g><g id="Group_103" data-name="Group 103"><path id="Path_444" data-name="Path 444" class="cls-13" d="M92.48,64.17c-.79,1.94-1.23,6-3.83,6.41-3.46.52-2.44-5.27-2.6-7.28,0-.25-.41-.43-.53-.14C84.29,66,84,71.71,88.21,71.85a3.81,3.81,0,0,0,3.52-2.51,9.94,9.94,0,0,0,1.08-5.17c0-.18-.27-.13-.33,0Z"/></g></g><g id="Group_111" data-name="Group 111"><g id="Group_106" data-name="Group 106"><path id="Path_445" data-name="Path 445" class="cls-11" d="M59.26,36.45A22.38,22.38,0,0,1,65.87,21a25,25,0,0,0-1.63,12.6"/><g id="Group_105" data-name="Group 105"><path id="Path_446" data-name="Path 446" class="cls-11" d="M60.17,36.45a22,22,0,0,1,6.34-14.77c-.5-.3-1-.59-1.52-.88a27.28,27.28,0,0,0-1.66,12.84c.12,1.15,1.94,1.16,1.81,0a26.06,26.06,0,0,1,1.61-12.36c.33-.88-.93-1.49-1.52-.88a24,24,0,0,0-6.88,16.06c0,1.17,1.77,1.16,1.82,0Z"/></g></g><g id="Group_108" data-name="Group 108"><path id="Path_447" data-name="Path 447" class="cls-11" d="M65,32a11.13,11.13,0,0,1,9.45-8.82,11,11,0,0,0-4.42,12.93"/><g id="Group_107" data-name="Group 107"><path id="Path_448" data-name="Path 448" class="cls-11" d="M65.91,32.19A10.4,10.4,0,0,1,74.72,24c-.23-.56-.47-1.11-.7-1.66A12,12,0,0,0,69.19,36.3c.37,1.1,2.13.62,1.75-.48a10.18,10.18,0,0,1,4-11.9.92.92,0,0,0-.71-1.66,12.14,12.14,0,0,0-10.07,9.45c-.25,1.14,1.5,1.63,1.75.48Z"/></g></g><g id="Group_110" data-name="Group 110"><path id="Path_449" data-name="Path 449" class="cls-11" d="M60.89,30.36A14.2,14.2,0,0,0,46.1,23.49a13.52,13.52,0,0,1,10.71,14.2"/><g id="Group_109" data-name="Group 109"><path id="Path_450" data-name="Path 450" class="cls-11" d="M61.67,29.9a15.34,15.34,0,0,0-15.81-7.28c-.89.14-.84,1.57,0,1.75a12.72,12.72,0,0,1,10,13.33c-.08,1.16,1.74,1.15,1.82,0A14.54,14.54,0,0,0,46.34,22.62c0,.58,0,1.16,0,1.75a13.45,13.45,0,0,1,13.76,6.45.91.91,0,0,0,1.57-.92Z"/></g></g></g><g id="Group_113" data-name="Group 113"><path id="Path_451" data-name="Path 451" class="cls-15" d="M37.14,40.67a11.5,11.5,0,0,0-2.28,1.56,3.9,3.9,0,0,0-1.28,2.38,5.5,5.5,0,0,0,3.49-1.14,16.21,16.21,0,0,0,2.68-2.62.6.6,0,0,0,.22-.46c0-.22-.27-.33-.49-.38a4,4,0,0,0-3.16.68,7.12,7.12,0,0,0-2.15,2.51"/><g id="Group_112" data-name="Group 112"><path id="Path_452" data-name="Path 452" class="cls-15" d="M36.68,39.89c-1.8,1-3.61,2.29-4,4.48a.92.92,0,0,0,.68,1.12.69.69,0,0,0,.2,0,7.15,7.15,0,0,0,4.8-1.93c.77-.66,2.78-2.21,2.47-3.44-.38-1.44-2.6-1.23-3.65-.89a7.11,7.11,0,0,0-3.81,3.49A.89.89,0,0,0,33.74,44,.91.91,0,0,0,35,43.66c.89-1.55,2.59-3.47,4.6-2.64L39,40.6l.18.25-.09-.69c-.17.77-1.64,1.87-2.24,2.34a5.07,5.07,0,0,1-3.28,1.21l.88,1.15c.29-1.74,1.73-2.59,3.14-3.4a.91.91,0,0,0-.92-1.57Z"/></g></g><g id="Group_115" data-name="Group 115"><path id="Path_453" data-name="Path 453" class="cls-15" d="M42.72,38.58c-.39-.09-.55.49-.52.9a2.56,2.56,0,0,0,2.55-2,.47.47,0,0,0-.1-.48c-.16-.14-.41,0-.59.09a4.13,4.13,0,0,0-1.23,1.3"/><g id="Group_114" data-name="Group 114"><path id="Path_454" data-name="Path 454" class="cls-15" d="M42.72,37.67c-1-.07-1.45,1-1.43,1.81a.93.93,0,0,0,.92.9,3.47,3.47,0,0,0,3.43-2.74,1.26,1.26,0,0,0-.87-1.56,1.22,1.22,0,0,0-.82,0,4.3,4.3,0,0,0-1.9,1.8c-.62,1,1,1.9,1.57.91a3,3,0,0,1,.52-.65,2.73,2.73,0,0,1,.25-.23l.13-.09c.15-.09.15-.09,0,0l-.46-.12h0l-.23-.4q0-.18,0,0a1.17,1.17,0,0,1,0,.2c0,.06-.05.12-.08.17a1.7,1.7,0,0,1-.43.53,1.63,1.63,0,0,1-1.1.37l.91.91c0-.52.12,0-.38,0,1.16.08,1.16-1.73,0-1.81Z"/></g></g><g id="Group_117" data-name="Group 117"><path id="Path_455" data-name="Path 455" class="cls-15" d="M31.35,47.62a3.17,3.17,0,0,0-1.53,1.84c-.12.39-.07.93.31,1a.76.76,0,0,0,.64-.24,4.28,4.28,0,0,0,1.5-2.56.46.46,0,0,0-.07-.41.38.38,0,0,0-.32-.07c-1.13.1-1.69,1.39-2,2.47"/><g id="Group_116" data-name="Group 116"><path id="Path_456" data-name="Path 456" class="cls-15" d="M30.89,46.84c-1.16.66-2.42,2.2-1.93,3.63a1.38,1.38,0,0,0,1.75.86l.11,0a4,4,0,0,0,1.66-1.63,4.25,4.25,0,0,0,.71-2.1,1.29,1.29,0,0,0-1.32-1.26,1.34,1.34,0,0,0-.4.07c-1.43.35-2.09,1.81-2.49,3.09-.35,1.12,1.41,1.59,1.75.48a4,4,0,0,1,.75-1.53c.07-.08.18-.13.25-.21s.5.19-.06-.36c-.4-.38-.27-.31-.36,0a3.93,3.93,0,0,1-.2.54,3.69,3.69,0,0,1-.54.81c-.09.11-.28.21-.35.33s.32.36.45.24.25-.57.39-.75a2.42,2.42,0,0,1,.74-.61.91.91,0,0,0-.92-1.57Z"/></g></g><g id="Group_119" data-name="Group 119"><path id="Path_457" data-name="Path 457" class="cls-15" d="M36.38,46.78A1.39,1.39,0,0,0,35,48.21a.15.15,0,0,0,0,.07.43.43,0,0,0,.14.32.5.5,0,0,0,.36.06,1.86,1.86,0,0,0,1.58-2,.44.44,0,0,0-.12-.28.43.43,0,0,0-.35-.06,1.93,1.93,0,0,0-1.59,1.57"/><g id="Group_118" data-name="Group 118"><path id="Path_458" data-name="Path 458" class="cls-15" d="M36.38,45.87a2.31,2.31,0,0,0-2.25,2.36l0,.3c.36,1.63,2.38,1,3.17.13s1.26-3.12-.44-3.26a2.77,2.77,0,0,0-2.7,2.23.92.92,0,0,0,.63,1.11.9.9,0,0,0,1.11-.63c.09-.45.45-1,1-.89l-.46-.12h0l-.23-.4a.79.79,0,0,1-.17.72.93.93,0,0,1-.23.21.57.57,0,0,1-.19.1c-.31.12-.09-.12.15.15l.23.4a.44.44,0,0,1,.27-.56l.13,0c1.17,0,1.17-1.86,0-1.82Z"/></g></g><g id="Group_121" data-name="Group 121"><path id="Path_459" data-name="Path 459" class="cls-15" d="M42,42.42c-.3.31-.6.63-.88.95a1.85,1.85,0,0,0-.51.86A.71.71,0,0,0,41,45a.86.86,0,0,0,.76-.32,2.4,2.4,0,0,0,.54-2.41c-.49.57-.95,1.16-1.39,1.77"/><g id="Group_120" data-name="Group 120"><path id="Path_460" data-name="Path 460" class="cls-15" d="M41.35,41.78A5.26,5.26,0,0,0,39.72,44a1.61,1.61,0,0,0,1.07,1.92A2.06,2.06,0,0,0,43,44.66a3.39,3.39,0,0,0,.25-2.59.91.91,0,0,0-1.13-.62.85.85,0,0,0-.38.22c-.54.64-1,1.29-1.54,2a.91.91,0,0,0,1.57.91c.4-.54.82-1.07,1.25-1.58l-1.52-.4a1.61,1.61,0,0,1,0,.87,1.26,1.26,0,0,1-.2.46c0,.07-.23.21-.24.27.11-.76.49.18.44.21a2.31,2.31,0,0,0,.25-.36c.28-.33.58-.64.89-.95.81-.84-.47-2.12-1.29-1.28Z"/></g></g><g id="Group_123" data-name="Group 123"><path id="Path_461" data-name="Path 461" class="cls-11" d="M38.48,37.52a8.18,8.18,0,0,0-5.24,1.34l1.23.82a5,5,0,0,0-2.88.45,1.61,1.61,0,0,0-.75.64.69.69,0,0,0,.18.88c.3.18.85.21.76.54a5.83,5.83,0,0,0-3.89,3.32.8.8,0,0,0-.07.64c.2.43.86.22,1.23-.07,1.35-1,2.34-2.49,3.63-3.61,1.75-1.51,4.12-2.5,5.09-4.6"/><g id="Group_122" data-name="Group 122"><path id="Path_462" data-name="Path 462" class="cls-11" d="M38.49,37.37a9,9,0,0,0-5.34,1.33.21.21,0,0,0-.07.27s0,.05.07.06c1,.65.52.22-.21.46a5.15,5.15,0,0,0-1.92.72c-.73.68-.27.87-.21,1.57,0,.14.36.19.34.35a15.94,15.94,0,0,1-1.62.9c-.66.51-2,1.79-2,2.74,0,2.1,2.56-.27,3-.75A32.92,32.92,0,0,1,35.17,41,7.88,7.88,0,0,0,38,38a.23.23,0,0,0-.1-.3.22.22,0,0,0-.28.07c-1.33,2.15-3.55,3.14-5.35,4.79-.68.63-1.92,2.67-2.8,2.89l-1.06-.32a5.32,5.32,0,0,1,1-1.33,6.05,6.05,0,0,1,2.44-1.35.24.24,0,0,0,.17-.3s-.37-.59-.36-.47l-.19-.09q-.43-.16.42-.75c.63-1,1.42-1,2.59-.94.21,0,.25-.27.1-.37-2.15-1.42,3.05-1.88,3.91-1.84.19,0,.18-.29,0-.3Z"/></g></g><g id="Group_125" data-name="Group 125"><path id="Path_463" data-name="Path 463" class="cls-11" d="M91.55,37.6a9.17,9.17,0,0,1,6.59,3.18,6.51,6.51,0,0,1-1.8.34,8.37,8.37,0,0,1,4.91,1.66,1.64,1.64,0,0,1,.61.72c.27.84-.77,1.48-1.61,1.76,1.56,1,3.17,2.14,3.87,3.85a2.15,2.15,0,0,1,.09,1.65,1.06,1.06,0,0,1-1.37.58h0"/><g id="Group_124" data-name="Group 124"><path id="Path_464" data-name="Path 464" class="cls-11" d="M91.52,37.7a13,13,0,0,1,3.17.88c.72.32,4.42,2,1.65,2.28a.26.26,0,0,0-.26.26.26.26,0,0,0,.26.26,8,8,0,0,1,2.52.44q2.72.39,1.32,3.17a.29.29,0,0,0-.19.35.33.33,0,0,0,.12.16,13.93,13.93,0,0,1,2.19,1.62c.44.44,3.39,3.76.52,4-.22,0-.36.35-.12.46,1.19.55,2.06-.34,2-1.6a4.72,4.72,0,0,0-1.14-2.34c-.28-.36-2.45-1.84-2.5-2.26a9,9,0,0,0,1.06-1.17,1.4,1.4,0,0,0-.3-1.26A5.86,5.86,0,0,0,99,41.31c-.54-.19-1.24-.19-1.75-.39.85.34-1.81.85,1,.11a.27.27,0,0,0,.18-.33.23.23,0,0,0-.07-.1,8.9,8.9,0,0,0-6.77-3.09c-.11,0-.14.17,0,.19Z"/></g></g></g><path id="Path_465" data-name="Path 465" class="cls-5" d="M17.49,87.39s-6.08.47-8.71,9.23c-2,6.83-2,12.54-1.66,13.36s1.71-1.53,1.71-1.53,1.1,2.28,1.74,2,.27-2.62.27-2.62,1.61.94,2.23.15-2.14-2.63-2.14-2.63.05-12.82,7-12.75c0,0,2-1.89,1.89-3S17.49,87.39,17.49,87.39Z"/><path id="Path_466" data-name="Path 466" class="cls-5" d="M113.49,86.25s6.08-.4,9.93,7.89c3,6.47,3.81,12.13,3.55,13s-1.92-1.28-1.92-1.28-.75,2.42-1.43,2.27-.63-2.55-.63-2.55-1.46,1.16-2.19.46,1.75-2.9,1.75-2.9-1.88-12.69-8.71-11.63A3.41,3.41,0,0,1,113.49,86.25Z"/></g></g><rect id="Rectangle_652" data-name="Rectangle 652" class="cls-1" width="285" height="160"/></g></g></g></svg>