<svg xmlns="http://www.w3.org/2000/svg" viewBox="0 0 285 160"><defs><style>.cls-1,.cls-3{isolation:isolate;}.cls-2,.cls-3{fill:#fff;}.cls-3{font-size:35px;font-family:HelveticaNeue-Medium, Helvetica Neue;font-weight:500;letter-spacing:-0.05em;}.cls-4{letter-spacing:0.05em;}.cls-5{fill:none;}.cls-6{fill:#b1dbca;}.cls-7{fill:#449ca9;}.cls-8{fill:#6ec5d3;}.cls-9{fill:#93d1d8;}.cls-10{fill:#1d110b;}.cls-11{fill:#e18fa8;}</style></defs><g id="圖層_2" data-name="圖層 2"><g id="圖層_1-2" data-name="圖層 1"><g id="圖層_2-2" data-name="圖層 2"><g id="圖層_1-2-2" data-name="圖層 1-2"><g id="Group_5952" data-name="Group 5952"><g id="Group_5951" data-name="Group 5951"><g class="cls-1"><path class="cls-2" d="M159,52.12,156.79,49a49.4,49.4,0,0,0,16.84-11.63h3c3.72,4.63,9.27,8.47,16.71,11.55L191.22,52a49,49,0,0,1-5.44-2.64v2.08H177v4.84h13.91v3.52H177v9.8h3.76a63,63,0,0,0,3.27-8l3.44,1.24a51.25,51.25,0,0,1-2.88,6.76h7.72v3.6H157.91v-3.6h7.84a39.24,39.24,0,0,0-2.84-6.48l3.4-1.24a49.78,49.78,0,0,1,3.12,7.72h3.84v-9.8h-14V56.32h14V51.48h-8.76V49.24A59.9,59.9,0,0,1,159,52.12Zm16.16-11.24a50.58,50.58,0,0,1-8.76,7.2h17.19A38.2,38.2,0,0,1,175.15,40.88Z"/><path class="cls-2" d="M204.59,56,202,52.88c2.88-3.44,5.32-8.2,7.4-14.35l3.6.84c-.72,2.11-1.44,4.07-2.2,5.91h8.56V37.13h3.8v8.15h13V49h-13v9.16h15.31v3.72H223.15V73.92h-3.8V61.84h-16.8V58.12h16.8V49H209.07A44.29,44.29,0,0,1,204.59,56Z"/><path class="cls-2" d="M283,44H254.07V53c-.16,8.72-1.6,15.72-4.4,21l-2.84-2.52q3.3-6.66,3.48-18.48V40.33h14.52a19.24,19.24,0,0,0-1.4-2.88l4-.64c.44,1.08.88,2.23,1.32,3.52H283ZM266.51,61.52V45.2h3.72V61.52h11.15V65H270.23v4.64h13.15v3.64H253.91V69.68h12.6V65H256.15V61.52Zm-9.64-.92-2.32-2.92c2.44-3,4.08-7,5-12l3.52.64c-.4,2-.84,3.76-1.36,5.44a32,32,0,0,1,4.2,5L263.75,60a37.25,37.25,0,0,0-3.16-5.36A23.62,23.62,0,0,1,256.87,60.6ZM273,60.4l-2.31-2.88a26.14,26.14,0,0,0,4.75-11.88l3.4.6a41.26,41.26,0,0,1-1.2,5.08q2.64,2.58,5.4,5.76L281,60.28c-1.72-2.68-3.16-4.72-4.28-6.16A23.22,23.22,0,0,1,273,60.4Z"/></g><text class="cls-3" transform="translate(163.97 122.88)">T<tspan class="cls-4" x="19" y="0">aurus</tspan></text></g><rect id="Rectangle_652" data-name="Rectangle 652" class="cls-5" width="285" height="160"/><path class="cls-6" d="M89.8,112.58a26.05,26.05,0,0,0,1.26-8,26.51,26.51,0,0,0-.4-4.57,36.56,36.56,0,0,0,7.57-22.32,37.2,37.2,0,0,0-74.39,0,36.54,36.54,0,0,0,8.86,23.9,26.57,26.57,0,0,0,.58,9.27c-5.76,1.84-14.64,6.42-15.94,13.42-.15.79,2.38,0,2.39.9s-.14,1.62.74,2.16c.61.38,2.5-.52,2.5-.52s.43,2.14.93,2.27c3.91,1,15.17-7.06,15.17-7.06l.57.65c0,.46,0,.92,0,1.38,0,6.51,2.43,12.44,7,16.35.75.63,2,5.12,3.37,5.28.63.07,1.22-1.5,1.78-1.21.74.38.88,1.09,1.71,1,1.59-.17,2.41-4.33,3.59-8.3,2.82-9.55,7.13-2.88,7.25-1.84.06.62,1.69,8.42,3.85,10.3.61.53.88-.55,1.59-.9.55-.26,1.61,1.35,2.18,1.17,1.09-.34,1.37-4.2,1.83-4.53a20.68,20.68,0,0,0,8.67-17.2c.29-.28.58-.57.86-.86l12.32,4.11s.7,1.77,1.24,1.8c.32,0,.91-1.16.91-1.16s1.32,1.12,1.65.93.25-1.31-.11-1.81c-.16-.24,1-.16,1.39-.12.22,0,.33-.28.33-.43C101.2,119.87,95,115.06,89.8,112.58Z"/><path class="cls-7" d="M36.68,50s7.84-17.12,20.37-17.43,13.6-3.41,13.6-3.41L67.28,35.7s17.79,5,21.92-3.55-5.14,29.76-19,31.5S36.68,50,36.68,50Z"/><path class="cls-8" d="M39.47,49.38S45.62,41.14,54.78,40s10-2.56,10-2.56-1.06,4.87-3.73,6,14.42,5,19,0S75.88,57.38,67,56.8,39.47,49.38,39.47,49.38Z"/><path class="cls-8" d="M28.28,47.65l0,.12S17.67,50.45,10.92,66.05v0C6.44,62.75,2.56,58,2.37,51.26a24.13,24.13,0,0,1,.28-4.46c9.51-9.46,15.8-6.33,15.8-6.33C18.7,44.05,23.54,46.3,28.28,47.65Z"/><path class="cls-7" d="M37.15,49.38l-.44.38C31.47,54.3,27.53,62.63,24.64,72.5l-.07,0a42,42,0,0,1-13.66-6.41v0c6.75-15.6,17.33-18.28,17.33-18.28l0-.12A61.46,61.46,0,0,0,37.15,49.38Z"/><path class="cls-9" d="M20.55,26c3.1,1.2-2.47,9-2.1,14.48,0,0-6.29-3.13-15.8,6.33C4.78,33.31,17.76,24.9,20.55,26Z"/><path class="cls-9" d="M113.8,46c-10.13-8.79-16.19-5.25-16.19-5.25,0-5.46-6.09-12.88-3.08-14.3C97.25,25.21,110.77,32.71,113.8,46Z"/><path class="cls-8" d="M114.39,50.48c.26,6.68-3.29,11.72-7.51,15.34l0,0C99.07,50.69,88.33,48.73,88.33,48.73l0-.12c4.65-1.66,9.32-4.23,9.32-7.83,0,0,6.06-3.54,16.19,5.25A24.37,24.37,0,0,1,114.39,50.48Z"/><path class="cls-7" d="M106.86,65.8l0,0a39.94,39.94,0,0,1-9.07,5.68l-.3.11c-3.1-9.13-7.4-16.89-13.28-21.74,1.26-.33,2.66-.75,4.06-1.26l0,.12S99.07,50.69,106.86,65.8Z"/><path class="cls-10" d="M40.35,80.84l0-.2c0-.13-.07-.31-.09-.55a8.85,8.85,0,0,1,0-2,6.5,6.5,0,0,1,.28-1.35,5.43,5.43,0,0,1,.68-1.45l.24-.36.3-.33a3.83,3.83,0,0,1,.67-.6,4.22,4.22,0,0,1,.79-.47,3.58,3.58,0,0,1,.84-.33l.22-.07.11,0h0l.1,0h.05L44.9,73a4,4,0,0,1,.93,0,4.81,4.81,0,0,1,1.74.47,6,6,0,0,1,1.31.91,6.61,6.61,0,0,1,.93,1,7.06,7.06,0,0,1,.63,1c.17.29.29.55.4.77s.16.4.21.52l.07.19a.44.44,0,0,1-.78.39l0,0L50.23,78,50,77.61a10.72,10.72,0,0,0-1.14-1.37,7.9,7.9,0,0,0-.85-.76,5.45,5.45,0,0,0-1-.61c-.19-.07-.39-.14-.58-.19a4.24,4.24,0,0,0-.58-.08,2.31,2.31,0,0,0-.62,0l-.38.06-.26.08a3.82,3.82,0,0,0-1.15.55,3,3,0,0,0-.47.39l-.22.22-.18.24a5.06,5.06,0,0,0-.6,1.06,8,8,0,0,0-.35,1.08,10.81,10.81,0,0,0-.28,1.75c0,.21,0,.38,0,.5v.2a.44.44,0,0,1-.87.08Z"/><path class="cls-10" d="M70.92,74.46s0-.07,0-.2a5.31,5.31,0,0,1,0-.57,9,9,0,0,1,.3-2,6.89,6.89,0,0,1,.49-1.29,5,5,0,0,1,.9-1.33l.29-.31.34-.28A3.19,3.19,0,0,1,74,68a3.71,3.71,0,0,1,.85-.35,3.87,3.87,0,0,1,.88-.2l.23,0,.11,0h.56a5,5,0,0,1,.92.12,4.78,4.78,0,0,1,1.65.74,5.83,5.83,0,0,1,1.16,1.1,7.91,7.91,0,0,1,1.23,2.19c.12.31.21.59.28.82s.1.42.13.54l0,.21a.45.45,0,0,1-.35.51.44.44,0,0,1-.48-.25l0,0-.07-.15c0-.11-.12-.26-.21-.46A10.92,10.92,0,0,0,80,71.21a9.44,9.44,0,0,0-.73-.88,5.39,5.39,0,0,0-.94-.76,4.58,4.58,0,0,0-.54-.28,3.17,3.17,0,0,0-.56-.16,2,2,0,0,0-.61-.07h-.39l-.27,0a3.7,3.7,0,0,0-1.21.36,3.11,3.11,0,0,0-.53.32L74,70l-.22.21a4.82,4.82,0,0,0-.75,1,7.56,7.56,0,0,0-.52,1,10.53,10.53,0,0,0-.54,1.69l-.11.48,0,.18v0a.44.44,0,0,1-.87-.05Z"/><path class="cls-2" d="M50.85,81.86c1.79.09,3.89.71,6.67,1l0,.18s.08,5.47-4.11,5c-3.24-.32-2.55-6.14-2.55-6.14Z"/><path class="cls-2" d="M76.35,76.76s1.78,5.84-1.83,7.39c-3.42,1.46-4.94-3.43-4.94-3.43l0-.09c2.82-1.54,4.88-3.41,6.81-3.93Z"/><path class="cls-10" d="M74.52,84.15c3.61-1.55,1.83-7.39,1.83-7.39V76.7c1.43-.38,2.8,0,4.35,1.77C82.87,81,83.58,89.34,77.4,94.83l-.15-.16c-13-8.2-20.52,3.92-21,4.81C44.11,97.33,43.55,87.19,45.9,84.22a5.35,5.35,0,0,1,5-2.36v.06s-.69,5.82,2.55,6.14c4.19.42,4.11-5,4.11-5l0-.18a26.31,26.31,0,0,0,5.71-.08,17.21,17.21,0,0,0,6.3-2.12l0,.09S71.1,85.61,74.52,84.15Z"/><path class="cls-11" d="M77.25,94.67l.15.16c-2.82,2.51-7.05,4.41-13.23,4.91a31.63,31.63,0,0,1-8-.26C56.73,98.59,64.3,86.47,77.25,94.67Z"/><path class="cls-8" d="M61.09,100.91C50.3,100.91,46.31,96,44.89,93c-1.79-3.73-1.23-7.65.2-9.45a6.42,6.42,0,0,1,5.33-2.77,20.27,20.27,0,0,1,3.55.45,32.58,32.58,0,0,0,6,.65,27.32,27.32,0,0,0,3.11-.19c3.86-.48,6.53-2.26,8.9-3.83,1.9-1.27,3.54-2.36,5.33-2.36a5.51,5.51,0,0,1,4.14,2.26c1.88,2.16,2.65,7.28.67,12.11-1.48,3.65-5.78,9.91-17.88,10.88C63.17,100.87,62.1,100.91,61.09,100.91Zm-10.67-18a4.31,4.31,0,0,0-3.7,2c-.87,1.09-1.46,4.15,0,7.26,1.21,2.51,4.67,6.71,14.33,6.71,1,0,2,0,3-.13,10.44-.84,14.54-5.68,16.13-9.59,1.74-4.27.94-8.53-.31-10s-2-1.55-2.58-1.55c-1.17,0-2.56.93-4.18,2-2.43,1.62-5.45,3.63-9.79,4.16A27.47,27.47,0,0,1,60,84a34.8,34.8,0,0,1-6.39-.68A19.11,19.11,0,0,0,50.42,82.89Z"/></g></g></g></g></g></svg>