<svg xmlns="http://www.w3.org/2000/svg" viewBox="0 0 292.34 160"><defs><style>.cls-1,.cls-3{isolation:isolate;}.cls-2,.cls-3{fill:#fff;}.cls-3{font-size:35px;font-family:HelveticaNeue-Medium, Helvetica Neue;font-weight:500;letter-spacing:0.05em;}.cls-4{letter-spacing:0.07em;}.cls-5{letter-spacing:0.05em;}.cls-6{fill:none;}.cls-7{fill:#b1dce0;}.cls-8{fill:#3d88c2;}.cls-9{fill:#97bce1;}.cls-10{fill:#221e1f;}</style></defs><g id="圖層_2" data-name="圖層 2"><g id="圖層_1-2" data-name="圖層 1"><g id="圖層_2-2" data-name="圖層 2"><g id="圖層_1-2-2" data-name="圖層 1-2"><g id="Group_5952" data-name="Group 5952"><g id="Group_5951" data-name="Group 5951"><g class="cls-1"><path class="cls-2" d="M159.6,39.65h14.2v3.19H144.53v14q-.18,10.56-3.72,16.92L138,71.24c1.84-3.48,2.8-8.28,2.88-14.44V39.65h14.83a17.47,17.47,0,0,0-1.27-2.12l3.91-.64C158.76,37.69,159.2,38.61,159.6,39.65Zm-1.88,22V59.76c-3.19.08-6.63.16-10.31.16l-.92-2.6a222.6,222.6,0,0,0,23.95-1.08L172,58.88c-3.08.32-6.64.6-10.64.76v2h10.92v2.72H161.32v1.8H174.4v2.8H161.32v1.92c0,2.16-1.2,3.28-3.6,3.28h-4.64L152.41,71c1.44.12,2.88.2,4.23.2q1.08,0,1.08-1.2V68.92H145v-2.8h12.71v-1.8H146.89V61.6Zm-8.55-12.2c-.08,2.8-.76,5-2.12,6.4l-2-1.72a6.44,6.44,0,0,0,1.8-4.68Zm1.24-4V43.6h3.2v1.84h4.71v2.8h-4.71v7.48h-3.2V48.24h-4.6v-2.8Zm6.8,3.92v3.2c0,.36.19.56.59.56h1.36V55.2H157c-1.36,0-2-.8-2-2.36V49.36Zm6.15,0a10.6,10.6,0,0,1-1.76,6.4l-2-1.72a7.57,7.57,0,0,0,1.44-4.68Zm1.2-4V43.6h3.2v1.84h4.84v2.8h-4.84v7h-3.2v-7h-4.68v-2.8Zm7,3.92v3a.46.46,0,0,0,.52.52h2V55h-2.92c-1.32,0-2-.8-2-2.32V49.36Z"/><path class="cls-2" d="M190,42.84l-1.92.8h3.32a50,50,0,0,0,2.24-6.39l3.4,1.16a49.92,49.92,0,0,1-2.28,5.23h3.2v3.52h-5.12V52h4.32v3.52h-4.36c-.08,1.64-.2,3.2-.36,4.72h5.2v3.52h-5.8a21.87,21.87,0,0,1-5.44,10.68l-2.8-2.48a17.5,17.5,0,0,0,4.48-8.2h-4.68V60.2h5.36c.2-1.48.32-3,.4-4.72h-4.4V52h4.44v-4.8h-5V43.64h2.76a29.65,29.65,0,0,0-2.44-5l3-1.24A32.64,32.64,0,0,1,190,42.84Zm27.19-4.47V51.68H206.52c-.36.72-.76,1.44-1.16,2.12h14.08c-.16,9.36-.4,14.76-.64,16.28a4.53,4.53,0,0,1-1.68,3.12c-.84.56-2.72.88-5.6.88h-.92l-1-3.12c1,0,1.92.08,2.88.08q1.92,0,2.4-.72a5.36,5.36,0,0,0,.68-2.36c0-1.12.12-4.8.28-11h-13a21.14,21.14,0,0,1-3.51,3h3.12v5.52c0,.84.39,1.28,1.23,1.28h8.68v3H202.17c-2.09,0-3.08-1-3.08-2.8V60.12l-.72.48-1.88-3.08a17.57,17.57,0,0,0,6.63-5.84h-3.23V38.37Zm-3.44,5.35V41.29H203.33v2.43Zm0,2.72H203.33v2.28h10.39ZM205.4,66.08l-1.92-2.4a11.13,11.13,0,0,0,4.64-6.08l3,.48c-.24.72-.52,1.44-.8,2.08a27.26,27.26,0,0,1,4.64,3.2l-1.68,2.56A23.2,23.2,0,0,0,209,62.48,14.82,14.82,0,0,1,205.4,66.08Z"/><path class="cls-2" d="M264.52,44H235.57V53c-.16,8.72-1.6,15.72-4.4,21l-2.84-2.52q3.3-6.66,3.48-18.48V40.33h14.52a19.27,19.27,0,0,0-1.41-2.88l4-.64c.44,1.08.88,2.23,1.32,3.52h14.28ZM248,61.52V45.2h3.72V61.52h11.16V65H251.72v4.64h13.16v3.64H235.41V69.68H248V65H237.65V61.52Zm-9.63-.92-2.32-2.92c2.44-3,4.08-7,5-12l3.52.64c-.41,2-.84,3.76-1.36,5.44a31.9,31.9,0,0,1,4.19,5L245.25,60a38.19,38.19,0,0,0-3.16-5.36A23.62,23.62,0,0,1,238.37,60.6Zm16.15-.2-2.32-2.88A26,26,0,0,0,257,45.64l3.4.6a41.26,41.26,0,0,1-1.2,5.08q2.64,2.58,5.4,5.76l-2.08,3.2c-1.72-2.68-3.16-4.72-4.28-6.16A23.22,23.22,0,0,1,254.52,60.4Z"/></g><text class="cls-3" transform="translate(116.47 122.88)">Caprico<tspan class="cls-4" x="139.33" y="0">r</tspan><tspan class="cls-5" x="154.03" y="0">n</tspan></text></g><rect id="Rectangle_652" data-name="Rectangle 652" class="cls-6" width="285" height="160"/><path class="cls-7" d="M82.45,138.55c-.08-3,2.37-45.39,1.45-59.91-1.13-18-11.67-44.95-8.31-54.46,1.46-4.13,3.17-5.12,5.93-5.23,2-.08,4.26-.13,5.37-.73s1.65-3.15-1.41-6.4S80.13,7.2,77.81,8.23c-2.1.93-1.85,4.38-2.37,6.6-.26,1.09-2.24,2.26-5.17,3.08C66.4,19,62,17.53,60.86,17a41.11,41.11,0,0,0-16.72-2.88,36.16,36.16,0,0,0-13.6,2.46C29.7,16.92,23.61,20,19.7,19a7.25,7.25,0,0,1-4.92-4.38c-.6-2.21-.46-5.66-2.6-6.53-2.34-1-4.69.58-7.54,3.81S2.4,17.77,3.45,18.3s3.43.56,5.38.58c2.76,0,3.35,2.84,5.76,6.52A10.6,10.6,0,0,1,16.07,32C11.75,41.9,9.64,56.3,8.72,76,8,92.24,11.2,135.41,11.17,139s-5.75,3.87-5.5,6.28c.17,1.62,2.4,1.1,2.4,1.1s-2.35,1.81-1.15,2.82,4.7-.22,4.7-.22a1.72,1.72,0,0,0,.26,2.94c1.63,1.14,7.8-1.47,10.17-3.88,2.65-2.69,3.37-4.86,5.37-8.3,2.22-3.84,8.09-6.23,16.24-6.86,13.48-1.06,20.27,2.86,22.56,6.66a37.74,37.74,0,0,0,6.36,8.35c2.41,2.37,7.81,4.74,9.42,3.57a1.72,1.72,0,0,0,.2-2.94s3.51,1.16,4.7.13-1.2-2.8-1.2-2.8,2.24.48,2.37-1.14C88.28,142.32,82.54,142.17,82.45,138.55Z"/><path class="cls-8" d="M44.18,48.35A33.56,33.56,0,0,1,29.3,45a.58.58,0,0,1-.23-.82.67.67,0,0,1,.89-.21h0a33,33,0,0,0,14.77,3.22c12.25-.21,17.59-4,17.64-4.08a.69.69,0,0,1,.91.1.56.56,0,0,1-.1.84c-.22.17-5.68,4.12-18.43,4.34Z"/><path class="cls-9" d="M16.14,59.21c4.5,2.71,14.19,8.81,21.3-2.45,2.82-4.49,4.28-9.37,5.1-9.25,1.09.16.07,2.94.07,2.94a2.29,2.29,0,0,1,1.54-.07c.61.3.43,1.72.43,1.72A1.71,1.71,0,0,1,46,52c.71.38.28,1.5-.33,3S40,69.22,32.17,72C22.1,75.63,14,73.27,12,72.08c-4.34-2.66-3.56-9.66-2.71-12.47C10.1,57,12.83,57.22,16.14,59.21Z"/><path class="cls-9" d="M80.05,56.71S83.82,70.5,83.9,78.64c.11,10-.56,13.87-3.7,19.57s-6,7.92-7.47,7.94c-1,0,1.21-2.38,1.21-2.38s-2.72,2.19-3.37,1.59,2-3.29,2-3.29-3,2.79-3.58,2.4c-.92-.66,3-5.1,3-5.1s-3.44-.05-3.12-1.16.5-.32,2.78-1.82,4.52-6.51,4.68-11.85c.21-6.86-2.52-8.66-2.84-15.77S80.05,56.71,80.05,56.71Z"/><path class="cls-8" d="M27.17,25.34c-4,1.61-5.27,4.95-2.56,6.71,1.6,1,8.46-.75,9.12-3.16C34.54,26,30.41,24,27.17,25.34Z"/><path class="cls-2" d="M27.4,26c-3.35,1.34-4.42,4.15-2.15,5.62,1.35.88,7.1-.62,7.66-2.64C33.59,26.51,30.12,24.89,27.4,26Z"/><path class="cls-10" d="M29.78,27.28a1.84,1.84,0,0,1-1.35,2.32,2.06,2.06,0,0,1-2.52-1.25A1.86,1.86,0,0,1,27.27,26,2.05,2.05,0,0,1,29.78,27.28Z"/><path class="cls-2" d="M27.85,27.13a.77.77,0,0,1-.56,1,.86.86,0,0,1-1.05-.52.76.76,0,0,1,.56-1A.85.85,0,0,1,27.85,27.13Z"/><path class="cls-8" d="M63.11,25.25c-4.27-.82-7.39,1.23-6.28,4.11.66,1.71,7.38,3.9,9.42,2.29C68.74,29.69,66.57,25.91,63.11,25.25Z"/><path class="cls-2" d="M63,26c-3.55-.81-6.24.82-5.4,3.27.49,1.45,6,3.49,7.83,2.19C67.55,29.85,65.85,26.62,63,26Z"/><path class="cls-10" d="M64,28.32a2.07,2.07,0,0,1-2.6,1.09A1.83,1.83,0,0,1,60.24,27a2.06,2.06,0,0,1,2.6-1.08A1.82,1.82,0,0,1,64,28.32Z"/><path class="cls-2" d="M62.58,27.12a.86.86,0,0,1-1.09.46.78.78,0,0,1-.49-1,.88.88,0,0,1,1.09-.45A.75.75,0,0,1,62.58,27.12Z"/><path class="cls-8" d="M64.82,43.69h0a.3.3,0,0,1-.28-.34h0s0-.5-.79-1.13c-.55-.42-.88-.35-.89-.34a.33.33,0,0,1-.41-.19.31.31,0,0,1,.21-.39,1.74,1.74,0,0,1,1.5.46c1.11.85,1,1.59,1,1.67A.32.32,0,0,1,64.82,43.69Z"/><path class="cls-8" d="M27.78,45a.33.33,0,0,1-.32-.23c0-.08-.17-.81.84-1.76a1.74,1.74,0,0,1,1.45-.59.3.3,0,0,1,.24.36.32.32,0,0,1-.38.23s-.36,0-.84.42c-.76.71-.67,1.2-.67,1.2a.3.3,0,0,1-.24.36Z"/><path class="cls-9" d="M37.37,19.16c-1.77.76-2.27,2.2-1.08,3.5a3.06,3.06,0,0,0,3.68,1c1.3-.5,2.28-2.21,1.41-3.51A3.25,3.25,0,0,0,37.37,19.16Z"/><path class="cls-9" d="M46.91,16c-1.52-.09-2.71.5-2.6,1.5s.43,3.1,1.84,3.1,3.46-.6,3.68-1.8S48.75,16.06,46.91,16Z"/><path class="cls-9" d="M50.59,21.76A2.05,2.05,0,0,0,47.66,23c-.32,1.3-.65,2.1.55,2.5a3.18,3.18,0,0,0,3.57-1C52.43,23.37,52.11,22.56,50.59,21.76Z"/><path class="cls-9" d="M54.16,16.56c-1,.81-1.3,2.8,0,3.1s2.5.3,3.15-.8,1-2.2-.44-2.5S55.14,15.76,54.16,16.56Z"/><path class="cls-9" d="M43.87,26.57c-1.17.54-1.84,1.1-1.3,2s1.09,1.9,2,1.4,2.49-1.3,1.84-2.2S44.52,26.27,43.87,26.57Z"/><path class="cls-9" d="M48.53,30.47c-1.16-.23-1.73.1-1.73.71s0,1.2.76,1.5a1.65,1.65,0,0,0,1.84-.9C49.61,31.28,49.51,30.68,48.53,30.47Z"/><path class="cls-9" d="M37.81,26.47c-1.12.17-1.52.5-1.3,1.2a1.31,1.31,0,0,0,1.51,1c.76-.1,1.52-.8,1.3-1.4A1.33,1.33,0,0,0,37.81,26.47Z"/><path class="cls-9" d="M42.79,32.38c-.53.1-.76.4-.65.7s.65.7,1,.6,1.09-.3.87-.9S43.33,32.28,42.79,32.38Z"/><path class="cls-9" d="M46.36,34.08c-.85-.16-1.51.5-1.4,1s.86,1.2,1.19,1,1.3-.4,1.41-1.1S46.91,34.18,46.36,34.08Z"/><path class="cls-9" d="M52.76,26.77a1.55,1.55,0,0,0-1.95,1.1,1.45,1.45,0,0,0,1,1.6c.65.1,1.52.1,1.84-.8S53.84,27,52.76,26.77Z"/><path class="cls-9" d="M34.4,15.3c-.29,1-.36,1.69.89,2.05,1.52.44,3.72.11,4.54-1.09a1.46,1.46,0,0,0,.1-1.88A29.7,29.7,0,0,0,34.4,15.3Z"/><path class="cls-9" d="M46.91,72.38c-5.71.12-15.23,1.92-18,18.77-2.92,17.57.2,28.7,14.46,29.74,16.41,1.2,25-4.81,21.94-21.78C62.35,83.05,61.53,72.08,46.91,72.38Z"/><path class="cls-9" d="M86.34,16.59c-.73,1-3.41.18-5.23-1.35S77,10.17,78.3,9.31s3.65.28,5.32,2S87.46,15,86.34,16.59Z"/><path class="cls-8" d="M84.33,16.05c1.12-1.54-1.06-3.48-2.72-5.24a8.86,8.86,0,0,0-2.25-1.73c1.32-.07,3.07.93,4.38,2.32,1.66,1.76,3.85,3.69,2.73,5.24-.5.69-1.91.52-3.33-.14A1.34,1.34,0,0,0,84.33,16.05Z"/><path class="cls-9" d="M4.08,17c.77,1,3.41.08,5.18-1.49s4-5.19,2.62-6-3.65.38-5.25,2.19S2.91,15.44,4.08,17Z"/><path class="cls-8" d="M6.07,16.36C4.9,14.85,7,12.85,8.62,11.05a8.8,8.8,0,0,1,2.19-1.81c-1.32,0-3,1-4.3,2.45C4.91,13.49,2.79,15.49,4,17c.52.67,1.92.46,3.32-.24A1.34,1.34,0,0,1,6.07,16.36Z"/><path class="cls-8" d="M24.25,24.53a.48.48,0,0,1-.31-.49c0-.12.26-1.13,2.31-1.7a3,3,0,0,1,2.43.14.4.4,0,0,1,.11.6.53.53,0,0,1-.68.05,2,2,0,0,0-1.47,0c-1.52.43-1.71,1.1-1.71,1.11a.45.45,0,0,1-.57.3Z"/><path class="cls-8" d="M62.22,23a.45.45,0,0,1,.08-.55c.08-.07.9-.68,2.77.12a2.76,2.76,0,0,1,1.72,1.57.39.39,0,0,1-.29.52.52.52,0,0,1-.54-.38,1.93,1.93,0,0,0-1.1-.87c-1.4-.59-2-.21-2-.2a.44.44,0,0,1-.61-.12Z"/></g></g></g></g></g></svg>