<svg xmlns="http://www.w3.org/2000/svg" viewBox="0 0 288.88 160"><defs><style>.cls-1,.cls-3,.cls-7{isolation:isolate;}.cls-2,.cls-3{fill:#fff;}.cls-3{font-size:40px;font-family:HelveticaNeue-Medium, Helvetica Neue;font-weight:500;letter-spacing:0.05em;}.cls-4{fill:#f4da6b;}.cls-5{fill:#e57d75;}.cls-6{fill:#f4f3e1;}.cls-7{fill:#5c2176;opacity:0.2;}.cls-8{fill:#1d110b;}.cls-9{fill:#cb506b;}.cls-10{fill:none;}</style></defs><g id="圖層_2" data-name="圖層 2"><g id="圖層_1-2" data-name="圖層 1"><g id="Group_5952" data-name="Group 5952"><g id="Group_5951" data-name="Group 5951"><g class="cls-1"><path class="cls-2" d="M175.56,49.12l-2-2.44V48h-4v2.16h4v2.6h-4v2.2H175v2.8h-16v-9.6c-.4.56-.84,1.12-1.24,1.68l-2-2.44a32.8,32.8,0,0,0,4.92-10.19l3.12.68c-.32.88-.6,1.72-.88,2.52h3.52a24.65,24.65,0,0,0-1.28-2.92l3.2-.52a36,36,0,0,1,1.28,3.44h4.92v2.79h-5v2.2h4V46.6a32.82,32.82,0,0,0,4.6-9.55l3.12.68c-.32.92-.6,1.8-.92,2.64h3.44a24.67,24.67,0,0,0-1.32-2.92l3.24-.52A36,36,0,0,1,187,40.37h4.72v2.79H187.2v2.2h3.88V48H187.2v2.16h3.88v2.6H187.2v2.2h5.12v2.8H176.44V48C176.12,48.36,175.84,48.76,175.56,49.12ZM159.2,62.68V59.36h29.24V62.2a36.41,36.41,0,0,1-9,6.24A117.17,117.17,0,0,0,193,71.16l-2,3.12a90.86,90.86,0,0,1-16-3.92,76,76,0,0,1-16.28,3.88l-1.64-3.44a86,86,0,0,0,13.16-2.44,20.43,20.43,0,0,1-7.36-5.68Zm7.28-19.52h-4.2v2.2h4.2Zm0,4.8h-4.2v2.16h4.2Zm0,4.76h-4.2v2.2h4.2Zm16.24,10H167.08a24.43,24.43,0,0,0,7.56,4.2A39.25,39.25,0,0,0,182.72,62.68ZM184,43.16h-4.4v2.2H184Zm0,4.8h-4.4v2.16H184Zm0,4.76h-4.4v2.2H184Z"/><path class="cls-2" d="M210.16,66.36a35.32,35.32,0,0,1-5.44,8L201.56,72A29.61,29.61,0,0,0,207,64.8Zm-6-15.64-2.44-3a36.59,36.59,0,0,0,12-10.59l3.88.84c-.56.76-1.08,1.52-1.64,2.24h13.16v2.87a33.46,33.46,0,0,1-3.2,3.44h7.92V64.2H206.56v-15C205.76,49.72,204.92,50.24,204.12,50.72Zm20.08-7H213a33.78,33.78,0,0,1-3,2.88h11.2C222.16,45.68,223.16,44.72,224.2,43.68Zm-5.8,9.92V50h-8.16V53.6Zm0,3.36h-8.16v3.72h8.16Zm0,16.4-3.8.88a61.25,61.25,0,0,0-1.72-7.84l3.6-.72Q217.52,69.22,218.36,73.36Zm9.2-.08-3.8.88a41.33,41.33,0,0,0-2.92-8l3.64-.76A56.72,56.72,0,0,1,227.56,73.28ZM222,53.6h8.2V50H222Zm8.2,3.36H222v3.72h8.2ZM238,72l-3.16,2.24A60.37,60.37,0,0,0,230,66.68L233,64.76A57.81,57.81,0,0,1,238,72Z"/><path class="cls-2" d="M282.44,44h-29V53c-.16,8.72-1.6,15.72-4.4,21l-2.84-2.52q3.3-6.66,3.48-18.48V40.33h14.52a19.24,19.24,0,0,0-1.4-2.88l4-.64c.44,1.08.88,2.23,1.32,3.52h14.28ZM265.92,61.52V45.2h3.72V61.52H280.8V65H269.64v4.64H282.8v3.64H253.32V69.68h12.6V65H255.56V61.52Zm-9.64-.92L254,57.68c2.44-3,4.08-7,5-12l3.52.64c-.4,2-.84,3.76-1.36,5.44a32,32,0,0,1,4.2,5L263.16,60A37.25,37.25,0,0,0,260,54.64,23.62,23.62,0,0,1,256.28,60.6Zm16.16-.2-2.32-2.88a26,26,0,0,0,4.76-11.88l3.4.6a41.26,41.26,0,0,1-1.2,5.08q2.64,2.58,5.4,5.76l-2.08,3.2c-1.72-2.68-3.16-4.72-4.28-6.16A23.22,23.22,0,0,1,272.44,60.4Z"/></g><g id="Group_4453" data-name="Group 4453"><g id="Pisces" class="cls-1"><text class="cls-3" transform="translate(154.56 122.88)">Pisces</text></g></g></g><g id="Group_4452" data-name="Group 4452"><g id="Group_133" data-name="Group 133"><g id="Group_128" data-name="Group 128"><path id="Path_467" data-name="Path 467" class="cls-4" d="M101.59,53.51s12.23-2.59,4.83-26.12c0,0-4.6-.27-5.07-1.9s2.86-.79,2.86-.79-2.92-4.7-2-5c.72-.28,4,3.29,4,3.29s-1.54-4.69-.29-4.84,2.25,4.74,2.25,4.74S110,19,110.69,20.25s-1,4.83-1,4.83,9.7,24.31-7.08,31.16"/><path id="Path_468" data-name="Path 468" class="cls-4" d="M102.6,56.46a.2.2,0,0,1-.2-.14.22.22,0,0,1,.12-.29c16.38-6.68,7-30.63,7-30.87a.23.23,0,0,1,0-.18c.45-1,1.51-3.67,1-4.62-.07-.13-.12-.12-.14-.13-.41,0-1.35,1.42-2,2.73a.22.22,0,0,1-.29.11.23.23,0,0,1-.13-.16c-.39-1.94-1.26-4.65-2-4.56a.23.23,0,0,0-.17.11c-.39.62.18,3.05.64,4.44a.23.23,0,0,1-.15.28.24.24,0,0,1-.23-.06c-1.71-1.85-3.44-3.33-3.79-3.24-.24.27.76,2.47,2.15,4.71a.22.22,0,0,1-.07.3.19.19,0,0,1-.18,0c-.78-.2-2.16-.37-2.53,0,0,0-.15.16-.06.48.35,1.22,3.64,1.67,4.87,1.74a.24.24,0,0,1,.2.16c3.08,9.77,3.2,17.17.39,22a9,9,0,0,1-5.38,4.42.23.23,0,0,1-.27-.18.21.21,0,0,1,.17-.26h0a8.76,8.76,0,0,0,5.1-4.22c1.88-3.22,3.33-9.56-.39-21.47-.91-.07-4.65-.44-5.12-2.05a.91.91,0,0,1,.17-.93c.49-.51,1.73-.37,2.45-.25-.7-1.17-2.2-3.81-1.93-4.62a.44.44,0,0,1,.27-.29c.65-.25,2.45,1.44,3.63,2.66-.33-1.19-.77-3.18-.31-3.91a.66.66,0,0,1,.49-.31c1.19-.13,2,2.85,2.35,4.3.48-.9,1.39-2.41,2.09-2.42a.6.6,0,0,1,.55.37c.66,1.24-.67,4.28-1,4.93.62,1.64,9,24.72-7.24,31.36A.15.15,0,0,1,102.6,56.46Z"/></g><g id="Group_129" data-name="Group 129"><path id="Path_469" data-name="Path 469" class="cls-4" d="M44.82,123.67s.84,14.86-1.18,23c0,0,6.25,2.87,6.08,4.22s-7.94-1-8.78-2.36c-1.33-2.13,1.35-1.52,1.35-25.33C42.29,123.16,43.13,122,44.82,123.67Z"/><path id="Path_470" data-name="Path 470" class="cls-4" d="M48.74,151.48c-2.19,0-7.25-1.69-8-2.87-.56-.89-.47-1.36-.17-2.92.48-2.55,1.48-7.85,1.48-22.53a.33.33,0,0,1,0-.13,1.33,1.33,0,0,1,1-.49,2.74,2.74,0,0,1,1.83,1,.26.26,0,0,1,.07.15c0,.14.81,14.76-1.15,22.85,1.37.63,6.21,3,6,4.37Q49.87,151.48,48.74,151.48Zm-6.23-28.23c0,14.65-1,20-1.49,22.52-.29,1.5-.36,1.86.11,2.6.6,1,5.44,2.66,7.61,2.66.54,0,.74-.11.76-.2.09-.82-3.42-2.83-6-4a.24.24,0,0,1-.13-.26c1.92-7.66,1.25-21.58,1.18-22.81a2.27,2.27,0,0,0-1.45-.78.86.86,0,0,0-.64.26Z"/></g><g id="Group_130" data-name="Group 130"><path id="Path_471" data-name="Path 471" class="cls-4" d="M77.58,124.94s2.17,14.72.88,23c0,0,6.48,2.3,6.43,3.66s-8-.29-9-1.56c-1.52-2,1.21-1.64-.93-25.35C75,124.66,75.75,123.4,77.58,124.94Z"/><path id="Path_472" data-name="Path 472" class="cls-4" d="M83.47,152.3c-2.4,0-7-1.15-7.71-2.16-.64-.84-.59-1.32-.43-2.9.25-2.58.77-8-.54-22.56a.17.17,0,0,1,0-.14A1.33,1.33,0,0,1,76,124a3,3,0,0,1,1.77.81.29.29,0,0,1,.08.14c0,.15,2.13,14.64.91,22.86,1.42.51,6.46,2.43,6.41,3.82C85.1,152.3,83.87,152.3,83.47,152.3Zm-8.23-27.58c1.31,14.59.79,20,.54,22.57-.15,1.52-.19,1.88.34,2.58s4.95,2,7.35,2c.94,0,1.2-.19,1.2-.28,0-.83-3.66-2.51-6.28-3.44a.24.24,0,0,1-.15-.25c1.22-7.8-.69-21.61-.86-22.82A2.47,2.47,0,0,0,76,124.4a.9.9,0,0,0-.71.32Z"/></g><g id="Group_131" data-name="Group 131"><path id="Path_473" data-name="Path 473" class="cls-5" d="M101.88,92.47c3.46-.92,5.11-.29,4.77,5.73-1,17.63-26.7,30.85-36.16,33.57-8.42,2.42-54.73-11.53-57.09-39S50.9,26,67.12,26C79,26,109.69,51.74,107.33,65.65a8.39,8.39,0,0,1-4.42,5.95A19.64,19.64,0,0,1,97,73.7a43.47,43.47,0,0,1-8.44.78l0-.14a1.19,1.19,0,0,1-.06.14,78.69,78.69,0,0,1-9.83-.56c-2.81-.33-5.49-.76-7.85-1.23a48.23,48.23,0,0,1-7.37-2,7.73,7.73,0,0,0-2.12-.51h0c-6.4-.57-6.83,9.74.43,16.35.43.39.87.77,1.35,1.13a42.63,42.63,0,0,0,13.7,7.15,30.75,30.75,0,0,0,9,1.25c0,.12.06.2.06.2l.08-.2a34.2,34.2,0,0,0,8-1.14C97.19,94.11,99.84,93,101.88,92.47Z"/><path id="Path_474" data-name="Path 474" class="cls-6" d="M67,85c1.8.44,1.75,5.62,1.75,5.62s3.71-2.08,5.51-2.08,2.59,6.13,2.59,6.13l0,.15A42.53,42.53,0,0,1,63.07,87.7c-.48-.36-.92-.73-1.35-1.12l.22-.23S65.15,84.55,67,85Z"/><path id="Path_475" data-name="Path 475" class="cls-6" d="M85.75,96.08a31,31,0,0,1-9-1.24l0-.15s2-4.72,4.51-4.72C83.53,90,85.38,95,85.75,96.08Z"/><path id="Path_476" data-name="Path 476" class="cls-6" d="M93.92,94.92v0a33.53,33.53,0,0,1-8,1.13c.42-1,2.36-5.48,3.75-5.88C91.23,89.75,93.92,94.92,93.92,94.92Z"/><path id="Path_477" data-name="Path 477" class="cls-6" d="M96.62,88.83c1.77-.38,4.58,2.83,5.26,3.64-2,.55-4.69,1.63-7.95,2.46v0S94.61,89.29,96.62,88.83Z"/><path id="Path_478" data-name="Path 478" class="cls-6" d="M102.93,71.65s2,5.86.45,7-6.3-4.5-6.3-4.5L97,73.71a19.37,19.37,0,0,0,5.92-2.1Z"/><path id="Path_479" data-name="Path 479" class="cls-6" d="M97,73.72l.09.42s-2.7,7.21-5,7.65c-2.08.41-3.39-6.26-3.58-7.29A44.26,44.26,0,0,0,97,73.72Z"/><path id="Path_480" data-name="Path 480" class="cls-6" d="M78.63,73.93a80.61,80.61,0,0,0,9.82.57c-.4.94-2.8,6.43-4.44,6.85-1.8.44-5.41-7.21-5.41-7.21Z"/><path id="Path_481" data-name="Path 481" class="cls-6" d="M78.63,73.93l0,.21S77,80,74.55,80s-3.83-7-3.83-7l.06-.31C73.14,73.17,75.81,73.6,78.63,73.93Z"/><path id="Path_482" data-name="Path 482" class="cls-6" d="M63.4,70.75a49.7,49.7,0,0,0,7.37,2l0,.3s-3.83,5.86-5.63,5.86-3.83-8.11-3.83-8.11l0-.51A7.57,7.57,0,0,1,63.4,70.75Z"/></g><path id="Path_483" data-name="Path 483" class="cls-7" d="M63.85,60a9.95,9.95,0,1,0-9.94,10,9.94,9.94,0,0,0,9.94-10Z"/><path id="Path_484" data-name="Path 484" class="cls-7" d="M69.27,43.16a8.49,8.49,0,1,0-8.7,8.28h.21A8.39,8.39,0,0,0,69.27,43.16Z"/><path id="Path_485" data-name="Path 485" class="cls-7" d="M85.72,49.15a8.37,8.37,0,1,0-8.36,8.37,8.36,8.36,0,0,0,8.36-8.37Z"/><path id="Path_486" data-name="Path 486" class="cls-7" d="M100.38,59.94a8.32,8.32,0,1,0-8.32,8.32h0a8.32,8.32,0,0,0,8.32-8.32Z"/><path id="Path_487" data-name="Path 487" class="cls-2" d="M63.06,59.72a9.12,9.12,0,1,0-9.12,9.12A9.12,9.12,0,0,0,63.06,59.72Z"/><path id="Path_488" data-name="Path 488" class="cls-2" d="M68.56,42.87a7.78,7.78,0,1,0-7.78,7.78h0A7.78,7.78,0,0,0,68.56,42.87Z"/><path id="Path_489" data-name="Path 489" class="cls-2" d="M85.07,49.05a7.78,7.78,0,1,0-7.78,7.78h0A7.78,7.78,0,0,0,85.07,49.05Z"/><path id="Path_490" data-name="Path 490" class="cls-2" d="M99.66,59.81a7.79,7.79,0,1,0-7.79,7.78h0a7.78,7.78,0,0,0,7.79-7.78Z"/><path id="Path_491" data-name="Path 491" class="cls-8" d="M56.47,59.73a2.53,2.53,0,1,0-2.53,2.53h0A2.53,2.53,0,0,0,56.47,59.73Z"/><path id="Path_492" data-name="Path 492" class="cls-8" d="M63,42.88A2.17,2.17,0,1,0,60.78,45,2.16,2.16,0,0,0,63,42.88Z"/><path id="Path_493" data-name="Path 493" class="cls-8" d="M79.45,49.06a2.17,2.17,0,1,0-2.17,2.16h0a2.16,2.16,0,0,0,2.16-2.16Z"/><path id="Path_494" data-name="Path 494" class="cls-8" d="M94,59.82A2.17,2.17,0,1,0,91.87,62,2.17,2.17,0,0,0,94,59.82Z"/><path id="Path_495" data-name="Path 495" class="cls-9" d="M27.94,85.79c-2.47-2-13.6,3.25-22.09,6.88C2.7,94-.43,109.62,3.38,110.91,18.06,115.89,37.07,93.14,27.94,85.79Z"/><path id="Path_496" data-name="Path 496" class="cls-4" d="M28.42,74.23S15.93,73.89,19,49.41c0,0,4.47-1.1,4.64-2.79s-3-.25-3-.25,2-5.15,1.1-5.32c-.77-.14-3.37,4-3.37,4s.67-4.9-.59-4.81-1.35,5.06-1.35,5.06-2.53-3.46-3-2.11,1.86,4.56,1.86,4.56S10.19,73.38,27.92,77.1C27.92,77.1,30.77,76,28.42,74.23Z"/><g id="Group_132" data-name="Group 132"><path id="Path_497" data-name="Path 497" class="cls-9" d="M67.15,29.05s.8-.13,2.19-.44c.69-.15,1.51-.38,2.44-.67a19.74,19.74,0,0,0,3-1.2,8.88,8.88,0,0,0,2.83-2.18,5.09,5.09,0,0,0,1.14-3.65A4.28,4.28,0,0,0,78.2,19a3.72,3.72,0,0,0-1.46-1.35,5.11,5.11,0,0,0-2.06-.56,4.13,4.13,0,0,0-2,.36c-.27.14-.38.31-.39.4a.77.77,0,0,0,.32.55,1.8,1.8,0,0,0,.8.29,5,5,0,0,0,1.09,0,8.87,8.87,0,0,0,4.08-1.84A7,7,0,0,0,80,15.26a4,4,0,0,0,.59-1.81,4.1,4.1,0,0,0-1.35-3c-.21-.21-.42-.41-.65-.6a4.74,4.74,0,0,0-.6-.39A3.19,3.19,0,0,0,76.71,9a3.85,3.85,0,0,0-2.19.35,5.83,5.83,0,0,0-1.34.79l-.42.33h0a.44.44,0,0,1-.65-.6,5,5,0,0,1,.44-.48A7.29,7.29,0,0,1,74,8.35a5.11,5.11,0,0,1,2.86-.64,4.79,4.79,0,0,1,1.77.54,7,7,0,0,1,.86.55c.24.2.48.4.7.62a5.62,5.62,0,0,1,1.27,1.79,4.3,4.3,0,0,1,.32,2.37,4.9,4.9,0,0,1-1,2.25,8.2,8.2,0,0,1-1.69,1.74,10.94,10.94,0,0,1-4.49,2.18,3.63,3.63,0,0,1-2.86-.38A2,2,0,0,1,71,17.83a1.93,1.93,0,0,1,1-1.53,5.18,5.18,0,0,1,2.78-.61,6.5,6.5,0,0,1,2.67.67,5,5,0,0,1,2.08,1.88,5.68,5.68,0,0,1,.79,2.6,8,8,0,0,1-.22,2.53A7.09,7.09,0,0,1,79,25.6a9,9,0,0,1-3.41,2.75A14.74,14.74,0,0,1,72.2,29.5a21.89,21.89,0,0,1-2.66.4,15.37,15.37,0,0,1-2.35,0h0a.44.44,0,0,1-.4-.48.45.45,0,0,1,.38-.4Z"/><path id="Path_498" data-name="Path 498" class="cls-9" d="M74.65,11.43a1.86,1.86,0,1,0-2.52.73A1.85,1.85,0,0,0,74.65,11.43Z"/></g></g><path id="Path_499" data-name="Path 499" class="cls-2" d="M41.91,78.73c-2,0-4.32-.56-5.38-1.76a2.38,2.38,0,0,1,0-3.12.35.35,0,1,1,.59.38,1.73,1.73,0,0,0,0,2.27c1.35,1.54,5.52,1.87,7,1.17a.36.36,0,0,1,.47.19.35.35,0,0,1-.16.45A6.11,6.11,0,0,1,41.91,78.73Z"/><path id="Path_500" data-name="Path 500" class="cls-2" d="M44.14,90.65a6.2,6.2,0,0,1-1.81-.27A4.17,4.17,0,0,1,40.22,89a2.58,2.58,0,0,1-.36-2.56.35.35,0,1,1,.66.24s0,0,0,0a1.88,1.88,0,0,0,.29,1.83,3.43,3.43,0,0,0,1.75,1.12,5.56,5.56,0,0,0,4-.27.35.35,0,0,1,.3.64A6.21,6.21,0,0,1,44.14,90.65Z"/><path id="Path_501" data-name="Path 501" class="cls-2" d="M38.65,105a6.22,6.22,0,0,1-1.82-.27,4.08,4.08,0,0,1-2.11-1.37,2.57,2.57,0,0,1-.36-2.56.36.36,0,0,1,.46-.2.37.37,0,0,1,.2.47s0,0,0,0a1.86,1.86,0,0,0,.28,1.83A3.56,3.56,0,0,0,37,104a5.56,5.56,0,0,0,4-.27.36.36,0,0,1,.47.18.36.36,0,0,1-.17.46A6.19,6.19,0,0,1,38.65,105Z"/><path id="Path_502" data-name="Path 502" class="cls-2" d="M48.34,101.24a6.2,6.2,0,0,1-1.81-.27,4,4,0,0,1-2.11-1.37A2.57,2.57,0,0,1,44.06,97a.36.36,0,0,1,.46-.2.37.37,0,0,1,.2.47l0,0A1.89,1.89,0,0,0,45,99.17a3.49,3.49,0,0,0,1.75,1.12,5.53,5.53,0,0,0,3.94-.27.35.35,0,0,1,.48.16.35.35,0,0,1-.16.47h0A6.06,6.06,0,0,1,48.34,101.24Z"/><path id="Path_503" data-name="Path 503" class="cls-2" d="M55.53,110a6.22,6.22,0,0,1-1.82-.27,4.14,4.14,0,0,1-2.1-1.37,2.55,2.55,0,0,1-.37-2.56.35.35,0,1,1,.66.26l0,0a1.91,1.91,0,0,0,.29,1.84,3.56,3.56,0,0,0,1.75,1.12,5.61,5.61,0,0,0,3.95-.28.36.36,0,0,1,.47.19.35.35,0,0,1-.17.45A6.2,6.2,0,0,1,55.53,110Z"/><path id="Path_504" data-name="Path 504" class="cls-2" d="M55,96.27a4.9,4.9,0,0,1-2.07-.4,2.48,2.48,0,0,1-1.36-3.08.36.36,0,1,1,.64.31,1.78,1.78,0,0,0,1,2.13,5.62,5.62,0,0,0,2.93.26A5.36,5.36,0,0,0,59,94.74a.34.34,0,0,1,.49.1.36.36,0,0,1-.07.47,5.91,5.91,0,0,1-3.15.89C55.9,96.23,55.48,96.27,55,96.27Z"/></g><rect id="Rectangle_652" data-name="Rectangle 652" class="cls-10" width="285" height="160"/></g></g></g></svg>