<svg xmlns="http://www.w3.org/2000/svg" viewBox="0 0 289.47 160"><defs><style>.cls-1,.cls-2{fill:#fff;}.cls-2,.cls-9{isolation:isolate;}.cls-2{font-size:35px;font-family:HelveticaNeue-Medium, Helvetica Neue;font-weight:500;letter-spacing:0.05em;}.cls-3{fill:none;}.cls-4{fill:#0f82a2;}.cls-5{fill:#afcb89;}.cls-6{fill:#6fc5cd;}.cls-7{fill:#92b620;}.cls-8{fill:#1d110b;}.cls-9{fill:#5c2176;opacity:0.2;}.cls-10{fill:#f7ef93;}</style></defs><g id="圖層_2" data-name="圖層 2"><g id="圖層_1-2" data-name="圖層 1"><g id="圖層_2-2" data-name="圖層 2"><g id="圖層_1-2-2" data-name="圖層 1-2"><g id="圖層_2-2-2" data-name="圖層 2-2"><g id="圖層_1-2-2-2" data-name="圖層 1-2-2"><g id="Group_5952" data-name="Group 5952"><g id="Group_5951" data-name="Group 5951"><path class="cls-1" d="M158.74,47v3q-2.88,13.32-12.08,20.16L144.26,67c5.2-3.84,8.76-9.32,10.72-16.36h-9.4V47Zm20.55-1.48A61.59,61.59,0,0,1,169.78,55,39.91,39.91,0,0,0,181.65,67.2l-2.4,3.48a49.22,49.22,0,0,1-14.11-17.36v16.4c0,2.8-1.32,4.24-3.92,4.24h-5.28l-.84-3.72q2.52.24,4.8.24c.92,0,1.4-.6,1.4-1.72V37.13h3.84V45.4a44.91,44.91,0,0,0,2.92,6.76,57.2,57.2,0,0,0,8.15-8.88Z"/><path class="cls-1" d="M197.62,43.28l-2.36,1.16h4.36a55.58,55.58,0,0,0,2.68-7.27l3.52,1.24a52.23,52.23,0,0,1-2.48,6h3.36v3.48h-3V55.4h3.08v3.52H203.7V73.56h-3.6V58.92h-3.36c-.4,6.56-1.72,11.44-4,14.72l-3-2.6c1.92-2.68,3-6.72,3.32-12.12h-3V55.4h3.16V47.92H190.7V44.44h3.56a48.22,48.22,0,0,0-2.92-5.56l3.2-1.51A57.12,57.12,0,0,1,197.62,43.28Zm-.76,12.12h3.28V47.92h-3.28Zm28.47-16.83v3.64h-12l-.52,5H223l-1.59,22.48c0,.4.16.64.51.64h.8a.73.73,0,0,0,.72-.56,41.57,41.57,0,0,0,.4-4.6l2.92,1.2a24.74,24.74,0,0,1-1,6,2.2,2.2,0,0,1-2.24,1.12h-2.91c-1.84,0-2.72-1.12-2.72-3.36l1.35-19.52h-6.67l-.48,5a28.48,28.48,0,0,1,5.56,2.68l-1.32,3.2a33.36,33.36,0,0,0-4.56-2.64l-1,10c2.2-.52,4.24-1.12,6.12-1.76V70.6a65.21,65.21,0,0,1-11.16,2.92l-.48-3.6c.64-.12,1.28-.24,1.92-.32l2.68-27.39h-3.08V38.57Z"/><path class="cls-1" d="M270.81,44H241.86v9c-.16,8.72-1.6,15.72-4.4,21l-2.84-2.52q3.3-6.66,3.48-18.48V40.33h14.52a19.14,19.14,0,0,0-1.4-2.88l4-.64c.44,1.08.88,2.23,1.32,3.52h14.27ZM254.3,61.52V45.2H258V61.52h11.15V65H258v4.64h13.15v3.64H241.7v-3.6h12.6V65H243.94V61.52Zm-9.64-.92-2.32-2.92c2.44-3,4.08-7,5-12l3.52.64a54,54,0,0,1-1.36,5.44,31.89,31.89,0,0,1,4.2,5L251.54,60a37.5,37.5,0,0,0-3.16-5.36A23.76,23.76,0,0,1,244.66,60.6Zm16.16-.2-2.32-2.88a26,26,0,0,0,4.75-11.88l3.4.6a42.08,42.08,0,0,1-1.19,5.08q2.63,2.58,5.39,5.76l-2.08,3.2c-1.72-2.68-3.16-4.72-4.27-6.16A23.33,23.33,0,0,1,260.82,60.4Z"/><g id="Group_4453" data-name="Group 4453"><g id="Pisces"><text class="cls-2" transform="translate(132.18 122.88)">Aquarius</text></g></g></g><rect id="Rectangle_652" data-name="Rectangle 652" class="cls-3" width="285" height="160"/><path class="cls-4" d="M27.68,24.45s-7.47-.76-12.18-6.1C12,14.41,14.09,6.1,17,4.83s3.68,3.79,5.71,8.29c2.4,5.28,8.44,8.79,8.44,8.79S31.3,25.92,27.68,24.45Z"/><path class="cls-4" d="M101.23,27.47s7.32,1.68,13.49-1.87c4.55-2.6,5.28-11.15,2.88-13.3s-4.7,2.41-8.07,6c-4,4.24-10.81,5.62-10.81,5.62S96.41,26.83,101.23,27.47Z"/><path class="cls-5" d="M54.4,139.81c-1.63,3.63-.68,9.89-1.43,11.08s-9.93,1.21-10-.06,4-3.55,4-3.55c-.46-1.78.66-9.73.66-9.73a4.93,4.93,0,0,1,4.61-.61C54.66,138,54.4,139.81,54.4,139.81Z"/><path class="cls-5" d="M89.82,140.28c-.15,4,3.07,9.43,2.82,10.81s-8.75,4.84-9.26,3.67S85.76,150,85.76,150c-1.09-1.49-3-9.28-3-9.28A3.72,3.72,0,0,1,85,138.41C87.47,137.75,89.82,140.28,89.82,140.28Z"/><path class="cls-5" d="M15.14,67.25s-8.24.63-11.8,12.51C.56,89,.57,96.76,1.09,97.87s2.32-2.08,2.32-2.08,1.48,3.1,2.35,2.76S6.12,95,6.12,95s2.19,1.27,3,.2-2.91-3.56-2.91-3.56.07-17.38,9.43-17.28c0,0,2.73-2.57,2.57-4S15.14,67.25,15.14,67.25Z"/><path class="cls-6" d="M99.06,104.48c-1.31-16.39,18.48-56.09.63-79.49C85,5.7,42.59-2.27,23.74,30s-2.88,94.45,20.91,106.22c21.39,10.59,54.66,5.51,58.67-5S99.89,115,99.06,104.48Z"/><path class="cls-7" d="M57.26,55.85c7.66-6.24,15.9-2.52,17.2-1.86a20.58,20.58,0,0,1-11.2,2.87,19.11,19.11,0,0,1-6-1Z"/><path class="cls-1" d="M75.34,39.06c-.14,1-.91,6.18-2.27,6.19S70.38,41.88,70,40.82A32.41,32.41,0,0,1,75.34,39.06Z"/><path class="cls-8" d="M79.94,41.16C81.8,45,79.88,50.6,74.46,54c-1.3-.66-9.54-4.38-17.2,1.86h0c-8.91-3.06-11.8-12.29-9.47-14.28,2.58-2.22,5.19.8,14.38,1.09,2.56.08,5.26-.89,7.8-1.86.42,1.06,1.84,4.43,3.11,4.43S75.2,40,75.34,39.06C77.32,38.74,78.94,39.13,79.94,41.16Z"/><path class="cls-5" d="M104.44,66.77s7.94,2.26,9.06,14.61c.88,9.63-.68,17.22-1.41,18.19s-1.85-2.5-1.85-2.5-2.07,2.74-2.86,2.24.35-3.55.35-3.55-2.4.82-3-.4,3.56-2.91,3.56-2.91,3.4-17-5.8-18.82C102.48,73.63,99.66,69.24,104.44,66.77Z"/><path class="cls-9" d="M45.3,39.34A6.65,6.65,0,1,0,38.66,46h0A6.66,6.66,0,0,0,45.3,39.34Z"/><path class="cls-1" d="M44.58,39.35a5.93,5.93,0,1,0-5.88,6,5.93,5.93,0,0,0,5.88-6Z"/><path class="cls-8" d="M40.49,39.37a1.84,1.84,0,1,0-1.83,1.85A1.85,1.85,0,0,0,40.49,39.37Z"/><path class="cls-9" d="M96,39.67a6.66,6.66,0,1,0-6.62,6.7h0A6.66,6.66,0,0,0,96,39.67Z"/><path class="cls-1" d="M95.31,39.67a5.93,5.93,0,1,0-5.88,6,5.93,5.93,0,0,0,5.88-6Z"/><path class="cls-8" d="M91.22,39.7a1.84,1.84,0,1,0-1.83,1.85h0a1.84,1.84,0,0,0,1.83-1.85Z"/><path class="cls-10" d="M19.12,71.54a28,28,0,0,0,3.58,9.21,11.72,11.72,0,0,0,3.62,3.63,8.17,8.17,0,0,0,5.8,1c.26-.06.55-.1.8-.17l.82-.23a10.6,10.6,0,0,0,1.56-.63A8.39,8.39,0,0,0,38.54,73a8.61,8.61,0,0,0-1-1.48,2.32,2.32,0,0,0-1.7-.79h-.21l-.26.08A2.43,2.43,0,0,0,35,71a2.73,2.73,0,0,0-.55.83,9.36,9.36,0,0,0-.53,4.29A14.13,14.13,0,0,0,35,80.6a11.24,11.24,0,0,0,2.59,3.83,10,10,0,0,0,1.92,1.36,9.33,9.33,0,0,0,2.24.79,11.35,11.35,0,0,0,2.39.25l1.21-.08c.41-.06.83-.1,1.24-.17a17.33,17.33,0,0,0,4.7-1.51,14.53,14.53,0,0,0,4-3,10.28,10.28,0,0,0,2.45-4.33,6.33,6.33,0,0,0,.16-2.45,3.49,3.49,0,0,0-1-2.08,3.17,3.17,0,0,0-1-.6,2.21,2.21,0,0,0-.57-.11H55l-.26.07a3.26,3.26,0,0,0-1.64,1.67,12.7,12.7,0,0,0-1.21,5.06,15.51,15.51,0,0,0,.58,5.25,8,8,0,0,0,2.81,4.29,6,6,0,0,0,2.36,1,9.73,9.73,0,0,0,2.64,0A15.46,15.46,0,0,0,69.63,85a10.94,10.94,0,0,0,2.64-4.55A5.79,5.79,0,0,0,72.4,78a3.39,3.39,0,0,0-1.22-2.08,4.51,4.51,0,0,0-1.07-.6,4.34,4.34,0,0,0-.6-.14,2.35,2.35,0,0,0-.53,0,2,2,0,0,0-1,.47,4,4,0,0,0-.73.95,9,9,0,0,0-.78,4.94c.28,3.37,2,6.73,4.94,8.29A9.93,9.93,0,0,0,76.15,91a16.44,16.44,0,0,0,2.43-.16l1.22-.22L81,90.3a11.24,11.24,0,0,0,4.17-2.2,9.11,9.11,0,0,0,2.63-3.73,11,11,0,0,0,.66-4.43,12.2,12.2,0,0,0-.94-4.25A6,6,0,0,0,85,72.58a1.88,1.88,0,0,0-.42-.14H84l-.25.07a1.12,1.12,0,0,0-.29.19,2.47,2.47,0,0,0-.54,1.63,11.26,11.26,0,0,0,.67,3.77,17.75,17.75,0,0,0,1.59,3.39A11.24,11.24,0,0,0,90,86.13a5.6,5.6,0,0,0,3,.41,7.06,7.06,0,0,0,2.65-1,18.28,18.28,0,0,0,3.89-3.4,9.61,9.61,0,0,0,1.83-3.67,8,8,0,0,0,.12-3,9,9,0,0,0-.53-1.82,3.92,3.92,0,0,0-.29-.58.19.19,0,0,1,.06-.23.16.16,0,0,1,.23,0h0c.12.2.22.41.32.62a9,9,0,0,1,.6,1.89,8.66,8.66,0,0,1,0,3.21A9.86,9.86,0,0,1,100,82.47,18.7,18.7,0,0,1,96,86a7.39,7.39,0,0,1-2.89,1.14,6.19,6.19,0,0,1-3.32-.41,12,12,0,0,1-5.25-4.9,18.42,18.42,0,0,1-1.7-3.52,11.31,11.31,0,0,1-.73-4.07,3.16,3.16,0,0,1,.82-2.17,2,2,0,0,1,.6-.36l.25-.07h.67l.31.06a2.34,2.34,0,0,1,.58.2,4.71,4.71,0,0,1,1.72,1.54,9.46,9.46,0,0,1,1.09,2,13,13,0,0,1,.93,4.49,11.78,11.78,0,0,1-.77,4.66,9.84,9.84,0,0,1-2.79,4,11.72,11.72,0,0,1-4.37,2.34l-1.23.32-1.22.23a18.12,18.12,0,0,1-2.55.19,10.51,10.51,0,0,1-5-1.23A9.75,9.75,0,0,1,69,88.81a11.19,11.19,0,0,1-1.62-2.13,12.57,12.57,0,0,1-1.62-5.1,9.81,9.81,0,0,1,.86-5.39,4.36,4.36,0,0,1,.9-1.15,2.59,2.59,0,0,1,1.39-.64,2.75,2.75,0,0,1,.81,0,5.91,5.91,0,0,1,.69.19,5,5,0,0,1,1.24.74A4,4,0,0,1,73,77.85a6.31,6.31,0,0,1-.22,2.8A12.73,12.73,0,0,1,70,85.38a16.24,16.24,0,0,1-9.64,5.06,9.45,9.45,0,0,1-2.81,0,6.62,6.62,0,0,1-2.64-1.06,8.6,8.6,0,0,1-3.1-4.64,16.18,16.18,0,0,1-.63-5.49,13.27,13.27,0,0,1,1.28-5.36,5.68,5.68,0,0,1,.81-1.19,4.35,4.35,0,0,1,.55-.5,2.67,2.67,0,0,1,3.53.4,4.24,4.24,0,0,1,1.35,2.54A7.07,7.07,0,0,1,58.51,78a12.43,12.43,0,0,1-6.9,7.84,17.84,17.84,0,0,1-5,1.46c-.43.06-.84.09-1.25.14a9.26,9.26,0,0,1-1.29,0,11.3,11.3,0,0,1-2.52-.32,9.06,9.06,0,0,1-2.35-.9,10.62,10.62,0,0,1-2-1.47,11.77,11.77,0,0,1-2.71-4,14.93,14.93,0,0,1-1.11-4.56,9.86,9.86,0,0,1,.62-4.5,3.35,3.35,0,0,1,.66-1,2,2,0,0,1,.54-.38l.26-.09a.49.49,0,0,1,.17,0h.15a2.85,2.85,0,0,1,2.1.93,8.36,8.36,0,0,1,2,3.77,8.75,8.75,0,0,1-1.39,7.68A10,10,0,0,1,32.23,86a8.64,8.64,0,0,1-6.16-1.12A12,12,0,0,1,22.31,81a24.34,24.34,0,0,1-2.94-6.83,25.11,25.11,0,0,1-.58-2.57h0a.18.18,0,0,1,.14-.19A.17.17,0,0,1,19.12,71.54Z"/><path class="cls-10" d="M25.21,96.08a19.28,19.28,0,0,0,.52,2.12,22.29,22.29,0,0,0,2.48,5.63,10.28,10.28,0,0,0,3,3.09,7,7,0,0,0,4.84,1,8.68,8.68,0,0,0,5.06-2.52,6.81,6.81,0,0,0,1.39-6,7.38,7.38,0,0,0-1.38-3.07,2.67,2.67,0,0,0-1.32-.94,1.12,1.12,0,0,0-1.3.58,6.47,6.47,0,0,0-.7,3.51,11.93,11.93,0,0,0,.72,3.74,9.93,9.93,0,0,0,2,3.35,7.53,7.53,0,0,0,3.31,2.12,9.17,9.17,0,0,0,4,.25,12.43,12.43,0,0,0,4-1.16,7.89,7.89,0,0,0,3.08-2.65A6.53,6.53,0,0,0,56,101.27a4.89,4.89,0,0,0-1.73-3.59c-.53-.39-1.23-.74-1.71-.55a2.12,2.12,0,0,0-1,1.51,11,11,0,0,0-.09,4.36,14.76,14.76,0,0,0,1.34,4.24,9,9,0,0,0,2.77,3.39,6.18,6.18,0,0,0,4.12,1.12A12.25,12.25,0,0,0,67.55,108a9.84,9.84,0,0,0,2.33-3.77,4.77,4.77,0,0,0-.27-4.12c-.73-1.1-2.45-1.81-3.29-.8a3.92,3.92,0,0,0-.88,1.79,8.39,8.39,0,0,0-.21,2.12,10.18,10.18,0,0,0,3.26,7.53,8,8,0,0,0,3.67,1.75,11.08,11.08,0,0,0,4.06,0,11.57,11.57,0,0,0,6.93-3.5,9,9,0,0,0,2.09-7A6.37,6.37,0,0,0,84,98.85a2.1,2.1,0,0,0-1.22-.79,1.09,1.09,0,0,0-1.11.48,4.77,4.77,0,0,0-.35,3,10.75,10.75,0,0,0,.86,3,7.57,7.57,0,0,0,3.72,4.11,4.92,4.92,0,0,0,4.65-.76A13.71,13.71,0,0,0,93.83,105a7.74,7.74,0,0,0,1.52-3.08A6.9,6.9,0,0,0,95,97.83a3.58,3.58,0,0,0-.24-.48.19.19,0,0,1,.06-.23.17.17,0,0,1,.23,0,5.12,5.12,0,0,1,.27.52,7.2,7.2,0,0,1,.51,4.32,8,8,0,0,1-1.54,3.32,14.21,14.21,0,0,1-3.33,3,7.15,7.15,0,0,1-2.4,1.09,4.87,4.87,0,0,1-2.85-.2,8.25,8.25,0,0,1-4.16-4.44,11.89,11.89,0,0,1-1-3.18,7.35,7.35,0,0,1-.09-1.75A3.86,3.86,0,0,1,81,98.08a2,2,0,0,1,.84-.69,1.31,1.31,0,0,1,.28-.09h.25a2.44,2.44,0,0,1,.54,0,2.69,2.69,0,0,1,1.7,1.1,7,7,0,0,1,1.31,3.6,9.83,9.83,0,0,1-2.35,7.36A13.52,13.52,0,0,1,72,113a8.57,8.57,0,0,1-4-1.86,10.91,10.91,0,0,1-3.61-8,10,10,0,0,1,.24-2.31,4.56,4.56,0,0,1,1.08-2.16,2.25,2.25,0,0,1,1.2-.67,2.4,2.4,0,0,1,1.3.13,3.82,3.82,0,0,1,1.92,1.51,4.22,4.22,0,0,1,.63,2.32,7.66,7.66,0,0,1-.42,2.32,11.46,11.46,0,0,1-2.45,4,13,13,0,0,1-8.24,4,6.77,6.77,0,0,1-4.58-1.17,9.52,9.52,0,0,1-3-3.63A15.16,15.16,0,0,1,50.65,103a11.48,11.48,0,0,1,.08-4.67,4.76,4.76,0,0,1,.48-1.14,2.11,2.11,0,0,1,1-.89,1.88,1.88,0,0,1,1.36,0,3.81,3.81,0,0,1,1.09.58,5.66,5.66,0,0,1,2.11,4.17,7.25,7.25,0,0,1-1.18,4.46,8.38,8.38,0,0,1-3.47,2.91,12.73,12.73,0,0,1-4.24,1.07,9.81,9.81,0,0,1-4.27-.41,8.15,8.15,0,0,1-3.5-2.3A10.4,10.4,0,0,1,38,103.33a12.21,12.21,0,0,1-.76-3.88,7,7,0,0,1,.77-3.8,1.84,1.84,0,0,1,.77-.72,1.64,1.64,0,0,1,1.07-.08A3.13,3.13,0,0,1,41.51,96,7.7,7.7,0,0,1,43,99.32a7.35,7.35,0,0,1-1.49,6.44,8.81,8.81,0,0,1-5.4,2.68,7.66,7.66,0,0,1-5.2-1.09,10.66,10.66,0,0,1-3.11-3.27,20.86,20.86,0,0,1-2.45-5.77,20,20,0,0,1-.49-2.17h0A.17.17,0,0,1,25,96a.16.16,0,0,1,.2.1Z"/><path class="cls-10" d="M34.59,119a20.15,20.15,0,0,0,.5,2,20.87,20.87,0,0,0,2.35,5.34,9.74,9.74,0,0,0,2.85,2.94,6.74,6.74,0,0,0,4.6.93,8.25,8.25,0,0,0,4.8-2.39A6.45,6.45,0,0,0,51,122.15a6.81,6.81,0,0,0-1.31-2.91,2.62,2.62,0,0,0-1.25-.9,1.07,1.07,0,0,0-1.22.55,6.14,6.14,0,0,0-.66,3.34,11.64,11.64,0,0,0,.68,3.55A9.57,9.57,0,0,0,49.12,129a7.24,7.24,0,0,0,3.15,2,8.37,8.37,0,0,0,3.82.23,11.6,11.6,0,0,0,3.77-1.1,7.42,7.42,0,0,0,2.92-2.52,6,6,0,0,0,1-3.7,4.65,4.65,0,0,0-1.63-3.4c-.5-.37-1.17-.7-1.61-.52a2,2,0,0,0-1,1.42,10.49,10.49,0,0,0-.08,4.14,13.44,13.44,0,0,0,1.27,4,8.42,8.42,0,0,0,2.62,3.21,5.9,5.9,0,0,0,3.92,1.07,11.65,11.65,0,0,0,7.55-3.58A9.49,9.49,0,0,0,77,126.66a4.52,4.52,0,0,0-.26-3.91c-.69-1-2.32-1.7-3.09-.75a3.54,3.54,0,0,0-.84,1.7,8,8,0,0,0-.2,2,9.65,9.65,0,0,0,3.1,7.15,7.45,7.45,0,0,0,3.47,1.67,10.44,10.44,0,0,0,3.86,0,10.89,10.89,0,0,0,6.58-3.32,8.51,8.51,0,0,0,2-6.56,5.94,5.94,0,0,0-1.14-3,1.84,1.84,0,0,0-1.14-.74,1,1,0,0,0-1,.45,4.45,4.45,0,0,0-.33,2.83,10.85,10.85,0,0,0,.81,2.84,7.18,7.18,0,0,0,3.53,3.9,4.69,4.69,0,0,0,4.41-.72,12.58,12.58,0,0,0,3.08-2.74,7.4,7.4,0,0,0,1.45-2.93,6.36,6.36,0,0,0,.07-2.42,6.68,6.68,0,0,0-.42-1.45c-.07-.16-.15-.31-.23-.46a.17.17,0,0,1,.06-.23.17.17,0,0,1,.23,0,4.74,4.74,0,0,1,.26.5,6.83,6.83,0,0,1,.49,1.53,6.59,6.59,0,0,1,0,2.58,7.79,7.79,0,0,1-1.46,3.17,13.27,13.27,0,0,1-3.17,2.9,6.75,6.75,0,0,1-2.28,1,4.55,4.55,0,0,1-2.73-.19,7.93,7.93,0,0,1-4-4.22,11.57,11.57,0,0,1-.91-3,7.89,7.89,0,0,1-.08-1.68,3.44,3.44,0,0,1,.53-1.73,1.75,1.75,0,0,1,.8-.67l.27-.09H89a2.26,2.26,0,0,1,.52,0,2.62,2.62,0,0,1,1.63,1.06,6.73,6.73,0,0,1,1.21,3.43,9.28,9.28,0,0,1-2.24,7,11.43,11.43,0,0,1-6.9,3.54,11.65,11.65,0,0,1-4.08,0,8.14,8.14,0,0,1-3.79-1.77,10.42,10.42,0,0,1-3.44-7.66,8.5,8.5,0,0,1,.23-2.19,4.27,4.27,0,0,1,1-2.07,2.2,2.2,0,0,1,1.11-.62,2.42,2.42,0,0,1,1.25.12,3.62,3.62,0,0,1,1.83,1.44,3.87,3.87,0,0,1,.6,2.22,7,7,0,0,1-.4,2.21,11.08,11.08,0,0,1-2.33,3.77,12.41,12.41,0,0,1-7.84,3.84A6.43,6.43,0,0,1,63,133.32a9.16,9.16,0,0,1-2.87-3.46,14.32,14.32,0,0,1-1.35-4.23,10.89,10.89,0,0,1,.08-4.44,4.32,4.32,0,0,1,.45-1.09,2,2,0,0,1,1-.86,1.85,1.85,0,0,1,1.31,0,4.27,4.27,0,0,1,1,.56,5.42,5.42,0,0,1,2,4,7,7,0,0,1-1.13,4.26,7.78,7.78,0,0,1-3.3,2.76,12.07,12.07,0,0,1-4,1,9.67,9.67,0,0,1-4.07-.4,8.75,8.75,0,0,1-5.3-5.53,12.34,12.34,0,0,1-.73-3.7,6.68,6.68,0,0,1,.74-3.62,1.8,1.8,0,0,1,.74-.68,1.56,1.56,0,0,1,1-.09,3,3,0,0,1,1.52,1.06A7.16,7.16,0,0,1,51.53,122a7,7,0,0,1-1.42,6.14A8.46,8.46,0,0,1,45,130.73a7.26,7.26,0,0,1-5-1,10.23,10.23,0,0,1-3-3.11,20.06,20.06,0,0,1-2.33-5.5,18.52,18.52,0,0,1-.46-2.06h0a.17.17,0,0,1,.1-.22h0a.18.18,0,0,1,.22.11V119Z"/></g></g></g></g></g></g></g></svg>