<svg xmlns="http://www.w3.org/2000/svg" width="224.304" height="75.041" viewBox="0 0 224.304 75.041">
  <g id="Group_5859" data-name="Group 5859" transform="translate(-1264.072 -4247.321)">
    <g id="摩羯" transform="translate(0 -0.499)" style="isolation: isolate">
      <text id="巨蠍座" transform="translate(1352.376 4298.82)" fill="#fff" font-size="40" font-family="STXihei, STHeiti" letter-spacing="0.2em" style="isolation: isolate"><tspan x="0" y="0">巨蠍座</tspan></text>
    </g>
    <g id="Group_4" data-name="Group 4" transform="translate(-1 2.363)">
      <path id="Path_39" data-name="Path 39" d="M1291.905,4246.523a37.506,37.506,0,1,0,46.635,25.27h0a37.5,37.5,0,0,0-46.623-25.273Z" fill="#f3b415" fill-rule="evenodd"/>
      <path id="Path_40" data-name="Path 40" d="M1333.624,4275.606a35.7,35.7,0,0,1-67.221,16.774,37.511,37.511,0,1,0,58.753-39.86A35.553,35.553,0,0,1,1333.624,4275.606Z" fill="#f3c239" fill-rule="evenodd"/>
      <path id="Path_41" data-name="Path 41" d="M1313.574,4301.97a3.367,3.367,0,1,0-3.363-3.371v.007A3.375,3.375,0,0,0,1313.574,4301.97Z" fill="#d04146" fill-rule="evenodd"/>
      <path id="Path_42" data-name="Path 42" d="M1289.15,4308.323a1.193,1.193,0,1,0-1.193-1.193h0A1.2,1.2,0,0,0,1289.15,4308.323Z" fill="#d04146" fill-rule="evenodd"/>
      <path id="Path_43" data-name="Path 43" d="M1331.586,4284.969a6.588,6.588,0,1,0-6.587-6.589h0A6.6,6.6,0,0,0,1331.586,4284.969Z" fill="#d04146" fill-rule="evenodd"/>
      <path id="Path_44" data-name="Path 44" d="M1307.312,4317.136a6.408,6.408,0,1,0-6.407-6.409v0A6.42,6.42,0,0,0,1307.312,4317.136Z" fill="#ea5f4c" fill-rule="evenodd"/>
      <circle id="Ellipse_2" data-name="Ellipse 2" cx="1.841" cy="1.841" r="1.841" transform="translate(1324.346 4302.813)" fill="#ea5f4c"/>
      <path id="Path_45" data-name="Path 45" d="M1273.331,4286.487a1.192,1.192,0,1,0-1.192-1.192h0A1.193,1.193,0,0,0,1273.331,4286.487Z" fill="#c49728" fill-rule="evenodd"/>
      <path id="Path_46" data-name="Path 46" d="M1282.491,4300.581a7.173,7.173,0,1,0-7.172-7.174v0A7.187,7.187,0,0,0,1282.491,4300.581Z" fill="#c49728" fill-rule="evenodd"/>
      <path id="Path_47" data-name="Path 47" d="M1282.491,4298.447a5.039,5.039,0,1,0-5.038-5.04v0A5.049,5.049,0,0,0,1282.491,4298.447Z" fill="#ea5f4c" fill-rule="evenodd"/>
      <path id="Path_48" data-name="Path 48" d="M1319.1,4269.68a2.671,2.671,0,1,0-2.669-2.673v0A2.675,2.675,0,0,0,1319.1,4269.68Z" fill="#c49728" fill-rule="evenodd"/>
      <path id="Path_49" data-name="Path 49" d="M1296.425,4275.992a2.671,2.671,0,1,0-2.671-2.671h0A2.677,2.677,0,0,0,1296.425,4275.992Z" fill="#c49728" fill-rule="evenodd"/>
      <path id="Path_50" data-name="Path 50" d="M1296.732,4258.887a1.335,1.335,0,1,0-1.336-1.335A1.335,1.335,0,0,0,1296.732,4258.887Z" fill="#c49728" fill-rule="evenodd"/>
      <path id="Path_51" data-name="Path 51" d="M1323.292,4251.206a7.174,7.174,0,0,1-13.189-5.479A37.64,37.64,0,0,1,1323.292,4251.206Z" fill="#c49728" fill-rule="evenodd"/>
      <path id="Path_52" data-name="Path 52" d="M1321.474,4250.074a5.04,5.04,0,0,1-9.286-3.86A37.746,37.746,0,0,1,1321.474,4250.074Z" fill="#ea5f4c" fill-rule="evenodd"/>
    </g>
  </g>
</svg>
