<svg xmlns="http://www.w3.org/2000/svg" width="226.61" height="75.178" viewBox="0 0 226.61 75.178">
  <g id="Group_5861" data-name="Group 5861" transform="translate(-831.176 -4753.321)">
    <g id="Group_5" data-name="Group 5" transform="translate(5 2.858)">
      <path id="Path_53" data-name="Path 53" d="M896.454,4769.5a37.582,37.582,0,1,0-14.13,51.237,37.582,37.582,0,0,0,14.13-51.237Z" fill="#ffebbc" fill-rule="evenodd"/>
      <path id="Path_54" data-name="Path 54" d="M877.5,4816.8a35.778,35.778,0,0,1-31.572-61.835,37.587,37.587,0,1,0,52.191,48.348A35.635,35.635,0,0,1,877.5,4816.8Z" fill="#f3d6a2" fill-rule="evenodd"/>
      <path id="Path_55" data-name="Path 55" d="M826.506,4783.179c4.008,2.447,11.7,7.978,16.4,16.7A23.457,23.457,0,0,1,843.971,4820a37.631,37.631,0,0,1-17.467-36.826Zm57.528-26.789a61.327,61.327,0,0,0,17.252,33.892A37.637,37.637,0,0,0,884.034,4756.39Zm-6.374-3.267a34.975,34.975,0,0,0,3.375,12.012l13.025,27.9a15.125,15.125,0,0,0,5.626,6.1,37.367,37.367,0,0,1-9.642,15.79l.79-2.475-20.625-61.425a37.577,37.577,0,0,1,7.451,2.1Zm-22.017-1.769c-.144,3.736.669,8.968,3.909,15.908,7.707,16.509,9.086,19.464,13.5,28.909,4.051,8.675,9.148,19.755,7.97,25.28a37.4,37.4,0,0,1-11.127,3.685l-.77-.7s6.449-.289-2.57-19.609l-6.566-14.064c-5.147-11.023-17.06-26.156-22.617-29.461q.708-.7,1.46-1.368a37.4,37.4,0,0,1,16.811-8.582Zm-23.868,16.969,6.517,13.962c3.1,6.632,4.563,5.069,9.242,15.089s4.271,19.87,2.594,25.306c-.038.124-.07.242-.1.36a37.723,37.723,0,0,0,6.4,1.87,46.281,46.281,0,0,0-4.313-29.938c-8.687-17.1-7.327-9.487-12.677-20.95L834.8,4764.1A37.351,37.351,0,0,0,831.775,4768.323Z" fill="#e58a80" fill-rule="evenodd"/>
      <path id="Path_56" data-name="Path 56" d="M826.506,4783.179a51.283,51.283,0,0,1,7.873,5.935c.062.3.126.6.2.9a35.619,35.619,0,0,0,11.056,18.649A24.3,24.3,0,0,1,843.976,4820a37.9,37.9,0,0,1-5.126-3.81l-.083-.073c-.161-.145-.322-.291-.481-.439l-.335-.313-.126-.118q-1.122-1.073-2.169-2.254a37.82,37.82,0,0,1-4.519-6.283l-.073-.126c-.1-.187-.208-.374-.312-.563q-.131-.243-.26-.486l-.088-.167a37.95,37.95,0,0,1-3.932-12.693l-.019-.152c-.021-.176-.041-.35-.059-.525a37.849,37.849,0,0,1,.112-8.816ZM877.5,4816.8a36.139,36.139,0,0,1-6.393.888c1.144,6.6-1.98,6.745-1.98,6.745l.765.7c.787-.13,1.573-.283,2.36-.465a37.786,37.786,0,0,0,7.906-2.781l.033-.015h0l.066-.033.253-.124c.172-.086.344-.173.514-.262a13.94,13.94,0,0,0-.281-5.565Q879.157,4816.412,877.5,4816.8Zm-20.229-1.206a36.085,36.085,0,0,1-6-2.827,30.778,30.778,0,0,1-1.134,9.915c-.038.121-.069.239-.1.354.648.255,1.3.494,1.964.712l.1.033c.2.065.4.127.6.188a37.555,37.555,0,0,0,3.743.943,42.993,42.993,0,0,0,.834-9.318ZM834.5,4774.163a35.77,35.77,0,0,1,2.049-6.329L834.8,4764.1a37.756,37.756,0,0,0-3.027,4.232Zm4.779-11.476a35.832,35.832,0,0,1,6.638-7.717,37.612,37.612,0,0,0-7.087,4.964q-.753.669-1.46,1.368A15.732,15.732,0,0,1,839.277,4762.687Zm52.583,50.33a37.8,37.8,0,0,0,6.253-9.705,35.812,35.812,0,0,1-7.777,7.666l.494,1.471-.79,2.475q.953-.928,1.824-1.9Z" fill="#cb506b" fill-rule="evenodd"/>
      <path id="Path_57" data-name="Path 57" d="M850.127,4753.024a19.1,19.1,0,0,0,2.057,7.673l12.89,27.611c4.106,8.794,8.213,17.589,9.9,21.194,1.459,3.127,3.321,10.229,1.46,13.944q-1.17.417-2.359.759c.8-2.111,1.6-7.185-2.821-16.655-6.16-13.192-13.53-28.98-16.828-36.043a45.461,45.461,0,0,0-11.864-14.481A37.275,37.275,0,0,1,850.127,4753.024Z" fill="#d87389" fill-rule="evenodd"/>
      <path id="Path_58" data-name="Path 58" d="M877.037,4816.9a11.9,11.9,0,0,1-.6,6.542q-1.16.414-2.359.754a13.487,13.487,0,0,0,.386-6.83q1.285-.185,2.577-.466Zm-33.795-59.335q-.345-.282-.685-.542a36.972,36.972,0,0,1,3.362-2.054A35.689,35.689,0,0,0,843.242,4757.563Z" fill="#e57d75" fill-rule="evenodd"/>
      <path id="Path_59" data-name="Path 59" d="M868.164,4750.73l5.1,10.924c2.793,5.984.688,11.444,1.17,14.732s3.84,4.09,4.9,10.881-.973,12.4,1.34,17.724,5.923,12.689,5.923,12.689l.324-.028q.909-.71,1.785-1.485a37.522,37.522,0,0,0,8.125-10.231l-11.057-23.693L871.3,4751.229Q869.739,4750.914,868.164,4750.73Z" fill="#d87389" fill-rule="evenodd"/>
      <path id="Path_60" data-name="Path 60" d="M884.919,4814.2c.982,2.054,1.682,3.482,1.682,3.482l.324-.028q.909-.71,1.785-1.485a38.243,38.243,0,0,0,2.806-2.762l.243-.266.017-.019a37.828,37.828,0,0,0,5.054-7.2l-.3-.634A35.6,35.6,0,0,1,884.919,4814.2Z" fill="#e57d75" fill-rule="evenodd"/>
      <path id="Path_61" data-name="Path 61" d="M876.179,4797.311a1.106,1.106,0,1,0,.828-1.327A1.107,1.107,0,0,0,876.179,4797.311Z" fill="#f4a875" fill-rule="evenodd"/>
      <path id="Path_62" data-name="Path 62" d="M892.022,4793.953a3.5,3.5,0,1,0,2.624-4.2A3.5,3.5,0,0,0,892.022,4793.953Z" fill="#f6b879" fill-rule="evenodd"/>
      <path id="Path_63" data-name="Path 63" d="M863.39,4811.695a1.132,1.132,0,1,0,.848-1.359h0A1.133,1.133,0,0,0,863.39,4811.695Z" fill="#f4a875" fill-rule="evenodd"/>
      <path id="Path_64" data-name="Path 64" d="M861.106,4804.18a3.7,3.7,0,1,0,2.772-4.442A3.7,3.7,0,0,0,861.106,4804.18Z" fill="#f6b879" fill-rule="evenodd"/>
      <path id="Path_65" data-name="Path 65" d="M846.512,4806.623a1.584,1.584,0,1,0,1.186-1.9h0A1.587,1.587,0,0,0,846.512,4806.623Z" fill="#f6b879" fill-rule="evenodd"/>
      <path id="Path_66" data-name="Path 66" d="M865.306,4761.52a2.735,2.735,0,1,0,2.047-3.282A2.734,2.734,0,0,0,865.306,4761.52Z" fill="#f4a875" fill-rule="evenodd"/>
      <path id="Path_67" data-name="Path 67" d="M869.537,4766.513a1.375,1.375,0,1,0,1.03-1.651A1.376,1.376,0,0,0,869.537,4766.513Z" fill="#f4a875" fill-rule="evenodd"/>
      <path id="Path_68" data-name="Path 68" d="M842.764,4784.283a3.927,3.927,0,1,0,2.94-4.712A3.928,3.928,0,0,0,842.764,4784.283Z" fill="#f6b879" fill-rule="evenodd"/>
      <path id="Path_69" data-name="Path 69" d="M842.019,4775.607a1.949,1.949,0,1,0,1.462-2.337h0A1.951,1.951,0,0,0,842.019,4775.607Z" fill="#f6b879" fill-rule="evenodd"/>
      <path id="Path_70" data-name="Path 70" d="M830.642,4786.183a.944.944,0,1,0-.942-.946v0A.945.945,0,0,0,830.642,4786.183Z" fill="#f4a875" fill-rule="evenodd"/>
    </g>
    <g id="處女" transform="translate(0 -0.368)">
      <g id="Group_4410" data-name="Group 4410">
        <text id="雙魚座" transform="translate(921.786 4804.69)" fill="#fff" font-size="40" font-family="STXihei, STHeiti" letter-spacing="0.2em" style="isolation: isolate"><tspan x="0" y="0">雙魚座</tspan></text>
      </g>
    </g>
  </g>
</svg>
