<svg xmlns="http://www.w3.org/2000/svg" width="75.014" height="74.999" viewBox="0 0 75.014 74.999">
  <g id="Group_5942" data-name="Group 5942" transform="translate(-710.715 -182.316)">
    <g id="Group_5897" data-name="Group 5897" transform="translate(267.859 149.001)">
      <path id="Path_71" data-name="Path 71" d="M469.678,34.878a37.49,37.49,0,1,0,46.615,25.259A37.49,37.49,0,0,0,469.678,34.878Z" fill="#c394c1" fill-rule="evenodd"/>
      <path id="Path_72" data-name="Path 72" d="M511.38,63.946a35.69,35.69,0,0,1-67.193,16.766,37.494,37.494,0,1,0,58.728-39.843A35.543,35.543,0,0,1,511.38,63.946Z" fill="#c37fc1" fill-rule="evenodd"/>
      <path id="Path_73" data-name="Path 73" d="M443.962,61.873c4.236-1.244,10.019-2.988,14.294-4.45,7.591-2.594,11.5-7.591,16.537-9.219,3.62-1.167,18.988-5.527,27.373-7.9a37.655,37.655,0,0,1,10.363,11.209c-7.486,4.681-25.188,14.443-29.7,15.916-5.6,1.828-26.737,7.332-28.117,7.084-.741-.133-6.959.341-11.731-1.137A37.342,37.342,0,0,1,443.962,61.873Z" fill="#ffebbc" fill-rule="evenodd"/>
      <path id="Path_74" data-name="Path 74" d="M446.77,87.48c10.943-3.308,27.921-8.351,31.836-9,5.887-.982,19.014-.856,28.457-3.68a85.178,85.178,0,0,0,10.79-4.167A37.346,37.346,0,0,1,515.946,82.6c-7.134,2.4-20.23,6.567-26.055,6.915-5.436.324-22.138,6.336-33.075,10.477A37.266,37.266,0,0,1,446.77,87.48Z" fill="#ffebbc" fill-rule="evenodd"/>
      <path id="Path_75" data-name="Path 75" d="M446.77,87.48l1.668-.5A35.745,35.745,0,0,0,463.516,97.5c-2.362.865-4.634,1.715-6.7,2.5a37.662,37.662,0,0,1-9.133-10.782l-.056-.1c-.074-.131-.144-.264-.217-.395q-.332-.611-.64-1.236Zm63.218-13.639c2.764-.973,5.468-2.113,7.856-3.208l0,.182a37.758,37.758,0,0,1-.573,6.563l-.036.194c-.033.179-.067.356-.1.533a37.391,37.391,0,0,1-1.189,4.5c-3.361,1.13-8.043,2.652-12.667,3.984A35.593,35.593,0,0,0,509.988,73.841Z" fill="#c37fc1" fill-rule="evenodd"/>
      <path id="Path_76" data-name="Path 76" d="M444.06,70.823s12.978-4.4,17.853-5.974,8.42-8.54,14.046-10.776c4.956-1.968,19.4-6.53,30.68-10.011a37.455,37.455,0,0,1,6.147,7.894l-14.612,8.879L443.182,75.463c-.021-.163-.044-.326-.062-.49q-.125-1.129-.181-2.248Z" fill="#80341a" fill-rule="evenodd"/>
      <path id="Path_77" data-name="Path 77" d="M451.833,95.124c7.06-2.553,22.1-7.971,25.159-8.926,4.026-1.255,12.07,3.753,21.7-.059,5.857-2.318,13.241-5.649,18.483-8.089a37.2,37.2,0,0,1-1.705,5.986l-48.039,21.97A37.653,37.653,0,0,1,451.833,95.124Z" fill="#ecab94" fill-rule="evenodd"/>
      <path id="Path_78" data-name="Path 78" d="M451.833,95.124l4.083-1.474a35.781,35.781,0,0,0,27.1,5.226l-15.59,7.13a37.653,37.653,0,0,1-15.6-10.882ZM505.746,83.2c4.036-1.751,8.13-3.614,11.4-5.136a37.148,37.148,0,0,1-1.7,5.986l-18.14,8.3A35.9,35.9,0,0,0,505.746,83.2Z" fill="#c394c1" fill-rule="evenodd"/>
      <path id="Path_79" data-name="Path 79" d="M458.892,101.537c3.074-1.36,18.669-8.246,21.973-9.577,3.669-1.478,9.473,1.465,17.02-1.771,4.623-1.982,12.75-5.771,18.352-8.409a37.5,37.5,0,0,1-57.345,19.757Z" fill="#ecab94" fill-rule="evenodd"/>
      <path id="Path_80" data-name="Path 80" d="M458.892,101.537c1.133-.5,3.966-1.752,7.258-3.2A35.739,35.739,0,0,0,501.492,88.6c4.557-2.045,10.387-4.768,14.719-6.807a37.544,37.544,0,0,1-29.2,25.922l-.026,0a37.887,37.887,0,0,1-13.715-.085l-.055-.011c-.2-.038-.4-.08-.6-.123l-.356-.077-.225-.05A37.512,37.512,0,0,1,458.892,101.537Z" fill="#80341a" fill-rule="evenodd"/>
      <path id="Path_81" data-name="Path 81" d="M514.139,87.127c-4.682,2.484-17.448,9.267-19.381,10.338-2.374,1.314-7.56.225-14.744,4.079a90.554,90.554,0,0,0-8.835,5.625,37.423,37.423,0,0,1-8.666-3.392c6.074-3.135,14.879-7.653,17.237-8.692,3.7-1.632,10.048.691,14.107-1.165l21.612-9.884C515.072,85.088,514.626,86.119,514.139,87.127Z" fill="#ecab94" fill-rule="evenodd"/>
      <path id="Path_82" data-name="Path 82" d="M514.114,87.139c-4.7,2.5-17.426,9.257-19.356,10.326-2.374,1.314-7.56.225-14.744,4.079a90.554,90.554,0,0,0-8.835,5.625,37.423,37.423,0,0,1-8.666-3.392c2.617-1.351,5.742-2.96,8.639-4.435a35.751,35.751,0,0,0,26.149-7l18.139-8.3Q514.843,85.63,514.114,87.139Z" fill="#c37fc1" fill-rule="evenodd"/>
      <path id="Path_83" data-name="Path 83" d="M445.771,85.251c7.139-2.424,22.755-7.661,28.928-9.2,8.121-2.024,20.252.948,30.407-1.82A63.653,63.653,0,0,0,517.824,69c.036.747.052,1.489.044,2.229-4.882,2.726-12.076,6.328-18.02,7.6-10.045,2.154-13.4-2.09-29.495,4.675-7.49,3.148-14.8,6.464-20.483,9.111A37.309,37.309,0,0,1,445.771,85.251Z" fill="#80341a" fill-rule="evenodd"/>
      <path id="Path_84" data-name="Path 84" d="M445.771,85.251l1.037-.352a35.878,35.878,0,0,0,5.944,6.378q-1.5.69-2.882,1.335a37.309,37.309,0,0,1-4.1-7.361Zm64.581-12.782a73.229,73.229,0,0,0,7.45-3.463q.043.9.044,1.809c0,.142,0,.282-.006.424-2.378,1.328-5.3,2.862-8.363,4.232C509.812,74.49,510.1,73.487,510.352,72.469Z" fill="#80341a" fill-rule="evenodd"/>
      <path id="Path_85" data-name="Path 85" d="M446.63,54.487c5.6-1.686,12.255-3.734,14.732-4.658,4.582-1.71,6.052-5.483,11.386-6.979,3.665-1.027,16.107-4.138,23.538-5.985a37.365,37.365,0,0,0-4.967-1.914c-7.106,1.671-18.348,4.305-23.6,5.492a21.437,21.437,0,0,1-9.51.136A37.68,37.68,0,0,0,446.63,54.487Z" fill="#ecab94" fill-rule="evenodd"/>
      <path id="Path_86" data-name="Path 86" d="M442.94,72.739c8.049-2.22,19.836-5.549,24.394-7.233,7.206-2.663,6.679-7.127,11.486-8.86s4.407-1.623,6.536-2.231,6.994,4.028,11.84,2.168,3.26-5.588,6.661-7.115c1.652-.742,3.769-1.671,5.508-2.43a37.289,37.289,0,0,1,5.822,9.835L444.052,80.089a38,38,0,0,1-.932-5.116C443.037,74.225,442.979,73.481,442.94,72.739Z" fill="#ecab94" fill-rule="evenodd"/>
      <path id="Path_87" data-name="Path 87" d="M507.544,47.835l1.8-.79a37.5,37.5,0,0,1,5.822,9.834l-4.241,1.384A35.4,35.4,0,0,0,507.544,47.835Z" fill="#c394c1" fill-rule="evenodd"/>
      <path id="Path_88" data-name="Path 88" d="M501.335,65.262a1.183,1.183,0,1,0-1.183-1.182A1.185,1.185,0,0,0,501.335,65.262Z" fill="#ecab94" fill-rule="evenodd"/>
      <path id="Path_89" data-name="Path 89" d="M473.7,99.239a4.082,4.082,0,1,0-4.083-4.082A4.089,4.089,0,0,0,473.7,99.239Z" fill="#80341a" fill-rule="evenodd"/>
      <path id="Path_90" data-name="Path 90" d="M495.846,85.57a1.748,1.748,0,1,0-1.749-1.749A1.751,1.751,0,0,0,495.846,85.57Z" fill="#ecab94" fill-rule="evenodd"/>
      <path id="Path_91" data-name="Path 91" d="M476.089,79.385a3.657,3.657,0,1,0-3.657-3.658A3.665,3.665,0,0,0,476.089,79.385Z" fill="#6e271a" fill-rule="evenodd"/>
      <path id="Path_92" data-name="Path 92" d="M469.5,75.674a.922.922,0,1,0-.921-.922A.924.924,0,0,0,469.5,75.674Z" fill="#6e271a" fill-rule="evenodd"/>
      <path id="Path_93" data-name="Path 93" d="M493.544,52.107a4.17,4.17,0,1,0-4.17-4.17A4.178,4.178,0,0,0,493.544,52.107Z" fill="#80341a" fill-rule="evenodd"/>
      <path id="Path_94" data-name="Path 94" d="M497.853,49.624a.568.568,0,1,0-.567-.568A.569.569,0,0,0,497.853,49.624Z" fill="#f8e2ae" fill-rule="evenodd"/>
      <path id="Path_95" data-name="Path 95" d="M487.5,49.017a.8.8,0,1,0-.8-.8A.8.8,0,0,0,487.5,49.017Z" fill="#80341a" fill-rule="evenodd"/>
    </g>
  </g>
</svg>
