<svg xmlns="http://www.w3.org/2000/svg" width="75.178" height="75.179" viewBox="0 0 75.178 75.179">
  <g id="Group_5901" data-name="Group 5901" transform="translate(-555.183 -33)">
    <path id="Path_53" data-name="Path 53" d="M625.456,52.036a37.582,37.582,0,1,0-14.13,51.237A37.581,37.581,0,0,0,625.456,52.036Z" fill="#ffebbc" fill-rule="evenodd"/>
    <path id="Path_54" data-name="Path 54" d="M606.5,99.335A35.778,35.778,0,0,1,574.928,37.5a37.587,37.587,0,1,0,52.191,48.348A35.631,35.631,0,0,1,606.5,99.335Z" fill="#f3d6a2" fill-rule="evenodd"/>
    <path id="Path_55" data-name="Path 55" d="M555.508,65.716c4.008,2.447,11.7,7.978,16.4,16.7a23.458,23.458,0,0,1,1.065,20.123,37.63,37.63,0,0,1-17.467-36.826Zm57.528-26.789a61.325,61.325,0,0,0,17.252,33.892,37.639,37.639,0,0,0-17.252-33.892Zm-6.374-3.267a34.968,34.968,0,0,0,3.375,12.012l13.025,27.9a15.124,15.124,0,0,0,5.626,6.1,37.369,37.369,0,0,1-9.642,15.79l.79-2.475L599.211,33.562a37.665,37.665,0,0,1,7.451,2.1Zm-22.017-1.769c-.144,3.736.669,8.968,3.909,15.908,7.707,16.509,9.086,19.464,13.5,28.909,4.051,8.675,9.148,19.755,7.97,25.28a37.357,37.357,0,0,1-11.127,3.685l-.77-.7s6.449-.289-2.57-19.609L588.991,73.3c-5.147-11.023-17.06-26.156-22.617-29.461q.708-.7,1.46-1.368a37.413,37.413,0,0,1,16.811-8.582ZM560.777,50.86l6.517,13.962c3.1,6.632,4.563,5.069,9.242,15.089s4.271,19.87,2.594,25.306c-.038.124-.07.242-.1.36a37.68,37.68,0,0,0,6.4,1.87,46.282,46.282,0,0,0-4.313-29.938c-8.687-17.1-7.327-9.487-12.677-20.95l-4.635-9.925A37.491,37.491,0,0,0,560.777,50.86Z" fill="#e58a80" fill-rule="evenodd"/>
    <path id="Path_56" data-name="Path 56" d="M555.508,65.716a51.342,51.342,0,0,1,7.873,5.935c.062.3.126.6.2.9A35.616,35.616,0,0,0,574.637,91.2a24.291,24.291,0,0,1-1.659,11.332,37.814,37.814,0,0,1-5.126-3.81l-.083-.073c-.161-.145-.322-.291-.481-.439l-.335-.313-.126-.118q-1.122-1.072-2.169-2.254a37.777,37.777,0,0,1-4.519-6.283l-.073-.126c-.1-.187-.208-.374-.312-.563q-.131-.242-.26-.486l-.088-.167a37.953,37.953,0,0,1-3.932-12.693l-.019-.152c-.021-.176-.041-.35-.059-.525a37.838,37.838,0,0,1,.112-8.816ZM606.5,99.335a36.114,36.114,0,0,1-6.393.888c1.144,6.6-1.98,6.745-1.98,6.745l.765.7c.787-.13,1.573-.283,2.36-.465a37.729,37.729,0,0,0,7.906-2.781l.033-.015h0l.066-.033.253-.124c.172-.086.344-.173.514-.262a13.934,13.934,0,0,0-.281-5.565q-1.584.527-3.243.912Zm-20.229-1.206a36.025,36.025,0,0,1-6-2.827,30.8,30.8,0,0,1-1.134,9.915c-.038.121-.069.239-.1.354.648.255,1.3.494,1.964.712l.1.033c.2.065.4.127.6.188a37.258,37.258,0,0,0,3.743.943,43.017,43.017,0,0,0,.834-9.318ZM563.5,56.7a35.758,35.758,0,0,1,2.049-6.329l-1.744-3.736a37.837,37.837,0,0,0-3.027,4.232L563.5,56.7Zm4.779-11.476a35.863,35.863,0,0,1,6.638-7.717,37.652,37.652,0,0,0-7.087,4.964q-.753.669-1.46,1.368a15.652,15.652,0,0,1,1.909,1.385Zm52.583,50.33a37.8,37.8,0,0,0,6.253-9.705,35.776,35.776,0,0,1-7.777,7.666l.494,1.471-.79,2.475Q619.994,96.533,620.866,95.556Z" fill="#cb506b" fill-rule="evenodd"/>
    <path id="Path_57" data-name="Path 57" d="M579.129,35.561a19.1,19.1,0,0,0,2.057,7.673l12.89,27.611c4.106,8.794,8.213,17.589,9.9,21.194,1.459,3.127,3.321,10.229,1.46,13.944q-1.17.418-2.359.759c.8-2.111,1.6-7.185-2.821-16.655-6.16-13.192-13.53-28.98-16.828-36.043a45.467,45.467,0,0,0-11.864-14.481A37.348,37.348,0,0,1,579.129,35.561Z" fill="#d87389" fill-rule="evenodd"/>
    <path id="Path_58" data-name="Path 58" d="M606.039,99.435a11.9,11.9,0,0,1-.6,6.542q-1.16.414-2.359.754a13.487,13.487,0,0,0,.386-6.83q1.285-.185,2.577-.466ZM572.244,40.1q-.345-.282-.685-.542a37.215,37.215,0,0,1,3.362-2.054A35.853,35.853,0,0,0,572.244,40.1Z" fill="#e57d75" fill-rule="evenodd"/>
    <path id="Path_59" data-name="Path 59" d="M597.166,33.267l5.1,10.924c2.793,5.984.688,11.444,1.17,14.732s3.84,4.09,4.9,10.881-.973,12.395,1.34,17.724,5.923,12.689,5.923,12.689l.324-.028q.909-.711,1.785-1.485a37.5,37.5,0,0,0,8.125-10.231L614.776,64.78,600.3,33.766Q598.742,33.451,597.166,33.267Z" fill="#d87389" fill-rule="evenodd"/>
    <path id="Path_60" data-name="Path 60" d="M613.921,96.735c.982,2.054,1.682,3.482,1.682,3.482l.324-.028q.909-.711,1.785-1.485a37.947,37.947,0,0,0,2.806-2.762l.243-.266.017-.019a37.8,37.8,0,0,0,5.054-7.195l-.3-.634A35.589,35.589,0,0,1,613.921,96.735Z" fill="#e57d75" fill-rule="evenodd"/>
    <path id="Path_61" data-name="Path 61" d="M605.181,79.848a1.106,1.106,0,1,0,.828-1.327A1.109,1.109,0,0,0,605.181,79.848Z" fill="#f4a875" fill-rule="evenodd"/>
    <path id="Path_62" data-name="Path 62" d="M621.024,76.49a3.5,3.5,0,1,0,2.624-4.2A3.511,3.511,0,0,0,621.024,76.49Z" fill="#f6b879" fill-rule="evenodd"/>
    <path id="Path_63" data-name="Path 63" d="M592.392,94.232a1.132,1.132,0,1,0,.847-1.358A1.133,1.133,0,0,0,592.392,94.232Z" fill="#f4a875" fill-rule="evenodd"/>
    <path id="Path_64" data-name="Path 64" d="M590.108,86.717a3.7,3.7,0,1,0,2.772-4.442A3.709,3.709,0,0,0,590.108,86.717Z" fill="#f6b879" fill-rule="evenodd"/>
    <path id="Path_65" data-name="Path 65" d="M575.514,89.16a1.584,1.584,0,1,0,1.186-1.9A1.588,1.588,0,0,0,575.514,89.16Z" fill="#f6b879" fill-rule="evenodd"/>
    <path id="Path_66" data-name="Path 66" d="M594.308,44.057a2.735,2.735,0,1,0,2.047-3.282A2.74,2.74,0,0,0,594.308,44.057Z" fill="#f4a875" fill-rule="evenodd"/>
    <path id="Path_67" data-name="Path 67" d="M598.539,49.05a1.375,1.375,0,1,0,1.03-1.651A1.377,1.377,0,0,0,598.539,49.05Z" fill="#f4a875" fill-rule="evenodd"/>
    <path id="Path_68" data-name="Path 68" d="M571.766,66.82a3.927,3.927,0,1,0,2.94-4.712A3.935,3.935,0,0,0,571.766,66.82Z" fill="#f6b879" fill-rule="evenodd"/>
    <path id="Path_69" data-name="Path 69" d="M571.021,58.144a1.949,1.949,0,1,0,1.458-2.336A1.952,1.952,0,0,0,571.021,58.144Z" fill="#f6b879" fill-rule="evenodd"/>
    <path id="Path_70" data-name="Path 70" d="M559.644,68.72a.944.944,0,1,0-.942-.943A.945.945,0,0,0,559.644,68.72Z" fill="#f4a875" fill-rule="evenodd"/>
  </g>
</svg>
