<svg xmlns="http://www.w3.org/2000/svg" width="226.078" height="75.001" viewBox="0 0 226.078 75.001">
  <g id="Group_5860" data-name="Group 5860" transform="translate(-940.605 -4436.321)">
    <g id="金牛" transform="translate(0 0.023)" style="isolation: isolate">
      <text id="天蠍座" transform="translate(1030.683 4488.298)" fill="#fff" font-size="40" font-family="STXihei, STHeiti" letter-spacing="0.2em" style="isolation: isolate"><tspan x="0" y="0">天蠍座</tspan></text>
    </g>
    <g id="Group_6" data-name="Group 6" transform="translate(2 -1.213)">
      <path id="Path_71" data-name="Path 71" d="M965.427,4439.1a37.49,37.49,0,1,0,46.615,25.259h0A37.489,37.489,0,0,0,965.427,4439.1Z" fill="#c394c1" fill-rule="evenodd"/>
      <path id="Path_72" data-name="Path 72" d="M1007.129,4468.165a35.69,35.69,0,0,1-67.193,16.766,37.494,37.494,0,1,0,58.728-39.843A35.545,35.545,0,0,1,1007.129,4468.165Z" fill="#c37fc1" fill-rule="evenodd"/>
      <path id="Path_73" data-name="Path 73" d="M939.711,4466.092c4.236-1.244,10.019-2.988,14.294-4.45,7.591-2.594,11.5-7.591,16.537-9.219,3.62-1.167,18.988-5.527,27.373-7.9a37.657,37.657,0,0,1,10.363,11.209c-7.486,4.681-25.188,14.443-29.7,15.916-5.6,1.828-26.737,7.332-28.117,7.084-.741-.133-6.959.341-11.731-1.137A37.362,37.362,0,0,1,939.711,4466.092Z" fill="#ffebbc" fill-rule="evenodd"/>
      <path id="Path_74" data-name="Path 74" d="M942.519,4491.7c10.943-3.308,27.921-8.351,31.836-9,5.887-.982,19.014-.856,28.457-3.68a85.2,85.2,0,0,0,10.79-4.167,37.346,37.346,0,0,1-1.907,11.967c-7.134,2.4-20.23,6.567-26.055,6.915-5.436.324-22.138,6.336-33.075,10.477A37.268,37.268,0,0,1,942.519,4491.7Z" fill="#ffebbc" fill-rule="evenodd"/>
      <path id="Path_75" data-name="Path 75" d="M942.519,4491.7l1.668-.5a35.756,35.756,0,0,0,15.078,10.52c-2.362.865-4.634,1.715-6.7,2.5a37.678,37.678,0,0,1-9.133-10.782l-.056-.1c-.074-.131-.144-.264-.217-.4q-.332-.612-.64-1.236Zm63.218-13.639c2.764-.973,5.468-2.113,7.856-3.208v.182a37.714,37.714,0,0,1-.573,6.563l-.036.194c-.033.179-.067.356-.1.533a37.581,37.581,0,0,1-1.189,4.5c-3.361,1.13-8.043,2.652-12.667,3.984a35.6,35.6,0,0,0,6.709-12.748Z" fill="#c37fc1" fill-rule="evenodd"/>
      <path id="Path_76" data-name="Path 76" d="M939.809,4475.042s12.978-4.4,17.853-5.974,8.42-8.54,14.046-10.776c4.956-1.968,19.4-6.53,30.68-10.011a37.43,37.43,0,0,1,6.147,7.894l-14.612,8.879-54.992,14.628c-.021-.163-.044-.326-.062-.49q-.125-1.129-.181-2.248Z" fill="#80341a" fill-rule="evenodd"/>
      <path id="Path_77" data-name="Path 77" d="M947.582,4499.343c7.06-2.553,22.1-7.971,25.159-8.926,4.026-1.255,12.07,3.753,21.7-.059,5.857-2.318,13.241-5.649,18.483-8.089a37.246,37.246,0,0,1-1.705,5.986l-48.039,21.97A37.651,37.651,0,0,1,947.582,4499.343Z" fill="#ecab94" fill-rule="evenodd"/>
      <path id="Path_78" data-name="Path 78" d="M947.582,4499.343l4.083-1.474a35.783,35.783,0,0,0,27.1,5.226l-15.59,7.13a37.657,37.657,0,0,1-15.6-10.882Zm53.913-11.924c4.036-1.751,8.13-3.614,11.4-5.136a37.143,37.143,0,0,1-1.7,5.986l-18.14,8.3A35.885,35.885,0,0,0,1001.495,4487.419Z" fill="#c394c1" fill-rule="evenodd"/>
      <path id="Path_79" data-name="Path 79" d="M954.641,4505.756c3.074-1.36,18.669-8.246,21.973-9.577,3.669-1.478,9.473,1.465,17.02-1.771,4.623-1.982,12.75-5.771,18.352-8.409a37.5,37.5,0,0,1-57.345,19.757Z" fill="#ecab94" fill-rule="evenodd"/>
      <path id="Path_80" data-name="Path 80" d="M954.641,4505.756c1.133-.5,3.966-1.752,7.258-3.2a35.742,35.742,0,0,0,35.342-9.737c4.557-2.045,10.387-4.768,14.719-6.807a37.546,37.546,0,0,1-29.2,25.922h-.026a37.9,37.9,0,0,1-13.715-.085l-.055-.011c-.2-.038-.4-.08-.6-.123l-.356-.077-.225-.05A37.529,37.529,0,0,1,954.641,4505.756Z" fill="#80341a" fill-rule="evenodd"/>
      <path id="Path_81" data-name="Path 81" d="M1009.888,4491.346c-4.682,2.484-17.448,9.267-19.381,10.338-2.374,1.314-7.56.225-14.744,4.079a90.487,90.487,0,0,0-8.835,5.625,37.429,37.429,0,0,1-8.666-3.392c6.074-3.135,14.879-7.653,17.237-8.692,3.7-1.632,10.048.691,14.107-1.165l21.612-9.884C1010.821,4489.307,1010.375,4490.338,1009.888,4491.346Z" fill="#ecab94" fill-rule="evenodd"/>
      <path id="Path_82" data-name="Path 82" d="M1009.863,4491.358c-4.7,2.5-17.426,9.257-19.356,10.326-2.374,1.314-7.56.225-14.744,4.079a90.487,90.487,0,0,0-8.835,5.625,37.429,37.429,0,0,1-8.666-3.392c2.617-1.351,5.742-2.96,8.639-4.435a35.755,35.755,0,0,0,26.149-7l18.139-8.3Q1010.592,4489.848,1009.863,4491.358Z" fill="#c37fc1" fill-rule="evenodd"/>
      <path id="Path_83" data-name="Path 83" d="M941.52,4489.47c7.139-2.424,22.755-7.661,28.928-9.2,8.121-2.024,20.252.948,30.407-1.82a63.655,63.655,0,0,0,12.718-5.231c.036.747.052,1.489.044,2.229-4.882,2.726-12.076,6.328-18.02,7.6-10.045,2.154-13.4-2.09-29.495,4.675-7.49,3.148-14.8,6.464-20.483,9.111A37.35,37.35,0,0,1,941.52,4489.47Z" fill="#80341a" fill-rule="evenodd"/>
      <path id="Path_84" data-name="Path 84" d="M941.52,4489.47l1.037-.352a35.909,35.909,0,0,0,5.944,6.378q-1.5.69-2.882,1.335a37.335,37.335,0,0,1-4.1-7.361Zm64.581-12.782a73.3,73.3,0,0,0,7.45-3.463q.043.9.044,1.809c0,.142,0,.282-.006.424-2.378,1.328-5.3,2.862-8.363,4.232C1005.561,4478.709,1005.849,4477.706,1006.1,4476.688Z" fill="#80341a" fill-rule="evenodd"/>
      <path id="Path_85" data-name="Path 85" d="M942.379,4458.706c5.6-1.686,12.255-3.734,14.732-4.658,4.582-1.71,6.052-5.483,11.386-6.979,3.665-1.027,16.107-4.138,23.538-5.985a37.407,37.407,0,0,0-4.967-1.914c-7.106,1.671-18.348,4.305-23.6,5.492a21.442,21.442,0,0,1-9.51.136A37.673,37.673,0,0,0,942.379,4458.706Z" fill="#ecab94" fill-rule="evenodd"/>
      <path id="Path_86" data-name="Path 86" d="M938.689,4476.958c8.049-2.22,19.836-5.549,24.394-7.233,7.206-2.663,6.679-7.127,11.486-8.86s4.407-1.623,6.536-2.231,6.994,4.028,11.84,2.168,3.26-5.588,6.661-7.115c1.652-.742,3.769-1.671,5.508-2.43a37.3,37.3,0,0,1,5.822,9.835L939.8,4484.308a37.962,37.962,0,0,1-.932-5.116C938.786,4478.444,938.728,4477.7,938.689,4476.958Z" fill="#ecab94" fill-rule="evenodd"/>
      <path id="Path_87" data-name="Path 87" d="M1003.293,4452.054l1.8-.79a37.49,37.49,0,0,1,5.822,9.834l-4.241,1.384A35.39,35.39,0,0,0,1003.293,4452.054Z" fill="#c394c1" fill-rule="evenodd"/>
      <path id="Path_88" data-name="Path 88" d="M997.084,4469.481a1.183,1.183,0,1,0-1.183-1.183h0A1.185,1.185,0,0,0,997.084,4469.481Z" fill="#ecab94" fill-rule="evenodd"/>
      <path id="Path_89" data-name="Path 89" d="M969.449,4503.458a4.082,4.082,0,1,0-4.083-4.082A4.083,4.083,0,0,0,969.449,4503.458Z" fill="#80341a" fill-rule="evenodd"/>
      <path id="Path_90" data-name="Path 90" d="M991.595,4489.789a1.748,1.748,0,1,0-1.749-1.749A1.749,1.749,0,0,0,991.595,4489.789Z" fill="#ecab94" fill-rule="evenodd"/>
      <path id="Path_91" data-name="Path 91" d="M971.838,4483.6a3.657,3.657,0,1,0-3.657-3.658A3.657,3.657,0,0,0,971.838,4483.6Z" fill="#6e271a" fill-rule="evenodd"/>
      <path id="Path_92" data-name="Path 92" d="M965.249,4479.893a.922.922,0,1,0-.921-.923h0A.925.925,0,0,0,965.249,4479.893Z" fill="#6e271a" fill-rule="evenodd"/>
      <path id="Path_93" data-name="Path 93" d="M989.293,4456.326a4.17,4.17,0,1,0-4.17-4.17A4.17,4.17,0,0,0,989.293,4456.326Z" fill="#80341a" fill-rule="evenodd"/>
      <path id="Path_94" data-name="Path 94" d="M993.6,4453.843a.568.568,0,1,0-.567-.569h0A.569.569,0,0,0,993.6,4453.843Z" fill="#f8e2ae" fill-rule="evenodd"/>
      <path id="Path_95" data-name="Path 95" d="M983.249,4453.236a.8.8,0,1,0-.8-.8h0A.8.8,0,0,0,983.249,4453.236Z" fill="#80341a" fill-rule="evenodd"/>
    </g>
  </g>
</svg>
