<svg xmlns="http://www.w3.org/2000/svg" viewBox="0 0 199.75 285.53"><defs><style>.cls-1{fill:#c394c1;}.cls-2{fill:#844686;}.cls-3,.cls-4,.cls-6{isolation:isolate;}.cls-4{font-size:23.18px;font-family:STXihei, STHeiti;letter-spacing:0.2em;}.cls-4,.cls-7{fill:#fff;}.cls-5{fill:#412046;}.cls-6{fill:#5c2176;opacity:0.2;}.cls-8{fill:#1d110b;}.cls-9{fill:#6b4f6d;}</style></defs><g id="圖層_2" data-name="圖層 2"><g id="圖層_1-2" data-name="圖層 1"><g id="Group_5815" data-name="Group 5815"><g id="Group_5807" data-name="Group 5807"><path id="Path_5537" data-name="Path 5537" class="cls-1" d="M190.87,73.46c-1,5.66-5.08,9.89-9.9,9.89H57.11l2.21,17.07L57.73,110.7,35.11,83.35H15.17C9.56,83.35,5,77.62,5,70.58V15.67C5,9.62,8.37,4.56,12.88,3.25A7.87,7.87,0,0,1,19,0h165.8c4.77,0,8.63,4.85,8.63,10.83V65.74A12.25,12.25,0,0,1,190.87,73.46Z"/><path id="Path_5538" data-name="Path 5538" class="cls-2" d="M15.17,4.84H181c4.77,0,8.63,4.85,8.63,10.83V70.58c0,6-3.86,10.83-8.63,10.83H52.37l3.09,23.86L35.74,81.41H15.18c-4.77,0-8.63-4.85-8.63-10.83V15.67C6.55,9.69,10.41,4.84,15.17,4.84Z"/></g><g id="點我進入_星座探索" data-name="點我進入 星座探索" class="cls-3"><text class="cls-4" transform="translate(45.69 37.9)">點我進入</text><text class="cls-4" transform="translate(45.69 65.71)">星座探索</text></g></g><g id="Group_6255" data-name="Group 6255"><g id="Group_6054" data-name="Group 6054"><path id="Path_7980" data-name="Path 7980" class="cls-2" d="M60,167.2c-1.16,1.27-2.3,2.6-3.35,4-9.31-6.61-23.59,12.47-23.59,12.47-3.66-20.81-22.35-14.3-22.35-14.3C12.26,157.68,0,153.67,0,153.67c3.19-9.4,25.31-25.13,29-26.12s5.2,4.78,11.26,15.2C48.61,157.16,57.55,165.16,60,167.2Z"/><path id="Path_7981" data-name="Path 7981" class="cls-2" d="M199.75,136.9s-11.51,5.86-8.16,17.16c0,0-19.45-3.56-19.87,17.58,0,0-17.67-17.25-25.66-8.26q-2.06-1.55-4.26-2.94l.21-.32s9.2-9.62,16.31-27.82c4.4-11.22,5-17.17,8.8-16.75S195.15,128.12,199.75,136.9Z"/><path id="Path_7982" data-name="Path 7982" class="cls-1" d="M146.06,163.37c22.87,17.11,32.7,46.56,25.66,68.52-10.46,32.65-57,43.66-86.64,36.83-26.5-6.12-46-27.2-41.84-62.35,1.67-14,6.31-25.91,13.4-35.18,1-1.39,2.19-2.72,3.35-4,10.67-11.54,25.76-18,43.93-17.73a71.23,71.23,0,0,1,37.88,11Q144,161.84,146.06,163.37Z"/></g><path id="Path_7983" data-name="Path 7983" class="cls-1" d="M107.5,150.42s-11.58-14-14.65-10.9,1.7,5.79,1.7,5.79-8.17-1-8.51,2,9.88,2.39,9.88,2.39-6.14,5.11-3.07,9.2,8.52-4.09,8.52-4.09"/><path id="Path_7984" data-name="Path 7984" class="cls-5" d="M154.72,140.93c1.37,1.26,2.69,2.59,3.93,4,1.09,1.27,2.41,2.74,3.65,4.43.64.84,1.26,1.72,1.89,2.63s1.23,1.86,1.84,2.8,1.1,2,1.65,2.92,1,2,1.43,2.93.8,1.92,1.12,2.83.56,1.8.82,2.61l.47,2.25a15.31,15.31,0,0,1,.23,1.77l.13,1.54a.16.16,0,0,1-.14.17h0a.16.16,0,0,1-.17-.13v0s-.11-.54-.31-1.49a13.77,13.77,0,0,0-.38-1.69c-.19-.64-.4-1.37-.64-2.16l-.94-2.49c-.36-.87-.82-1.76-1.22-2.71s-1-1.86-1.46-2.83-1.09-1.9-1.68-2.82-1.15-1.89-1.78-2.77-1.2-1.79-1.82-2.63c-1.22-1.67-2.37-3.23-3.4-4.53s-1.9-2.39-2.54-3.12l-1-1.17a.21.21,0,0,1,0-.3h0A.24.24,0,0,1,154.72,140.93Z"/><path id="Path_7985" data-name="Path 7985" class="cls-5" d="M158.26,133.76a57.21,57.21,0,0,1,6.07,1.5c1.79.58,3.89,1.22,6.06,2.14,1.09.43,2.21.93,3.33,1.45s2.24,1.1,3.35,1.68,2.17,1.28,3.23,1.91,2,1.38,3,2.07,1.82,1.46,2.62,2.19,1.52,1.47,2.17,2.15l1.64,2a13.22,13.22,0,0,1,1.11,1.65l.9,1.47a.16.16,0,0,1-.06.22.15.15,0,0,1-.21,0h0s-.37-.5-1-1.35a13.76,13.76,0,0,0-1.22-1.52l-1.72-1.83c-.68-.63-1.44-1.28-2.23-2s-1.74-1.3-2.64-2-2-1.3-3-2-2.1-1.24-3.2-1.81-2.17-1.18-3.28-1.67-2.18-1-3.25-1.48c-2.13-.91-4.14-1.72-5.89-2.36s-3.21-1.14-4.25-1.46-1.62-.51-1.62-.51a.21.21,0,0,1-.15-.27h0A.22.22,0,0,1,158.26,133.76Z"/><path id="Path_7986" data-name="Path 7986" class="cls-5" d="M45.22,151.28l-.77,1.29c-.51.81-1.16,2-2,3.45s-1.68,3.13-2.6,5c-.48.91-.93,1.87-1.37,2.85s-.86,2-1.3,3-.8,2-1.2,3-.67,2-1,3-.56,1.93-.78,2.84-.37,1.78-.54,2.58-.2,1.54-.29,2.2a13.9,13.9,0,0,0-.11,1.71l-.08,1.5v0a.15.15,0,0,1-.17.15.16.16,0,0,1-.15-.15l-.11-1.52a14.78,14.78,0,0,1-.05-1.76q.06-1,.12-2.28c.12-.83.26-1.72.4-2.67s.41-1.93.65-2.94.62-2,1-3.08.74-2.08,1.16-3.1.87-2,1.35-3,1-1.95,1.44-2.86c.94-1.86,2-3.49,2.86-4.9A51.13,51.13,0,0,1,44.87,151a.22.22,0,0,1,.31,0A.24.24,0,0,1,45.22,151.28Z"/><path id="Path_7987" data-name="Path 7987" class="cls-5" d="M40.39,144.83l-1.49.73c-.95.44-2.27,1.17-3.87,2s-3.4,1.93-5.31,3.11c-1,.58-1.93,1.22-2.9,1.89s-1.93,1.39-2.9,2.08-1.88,1.47-2.81,2.2-1.75,1.54-2.55,2.32-1.57,1.54-2.24,2.32S15,163,14.48,163.71l-1.39,2a12.6,12.6,0,0,0-.95,1.63l-.8,1.44v0a.16.16,0,0,1-.22.07.16.16,0,0,1-.07-.21l.65-1.54a13.94,13.94,0,0,1,.82-1.75l1.27-2.16c.53-.75,1.15-1.53,1.77-2.38s1.42-1.63,2.2-2.48,1.7-1.61,2.57-2.43,1.85-1.57,2.83-2.31,2-1.45,3-2.09,2-1.3,3-1.87c1.95-1.2,3.88-2.12,5.51-2.93a53.85,53.85,0,0,1,5.62-2.3.21.21,0,0,1,.27.14h0A.24.24,0,0,1,40.39,144.83Z"/><path id="Path_7988" data-name="Path 7988" class="cls-6" d="M91.72,178.92a9.67,9.67,0,1,0-9.67,9.66h0A9.67,9.67,0,0,0,91.72,178.92Z"/><path id="Path_7989" data-name="Path 7989" class="cls-6" d="M132.88,175.82a9.66,9.66,0,1,0-9.66,9.66,9.65,9.65,0,0,0,9.66-9.66Z"/><circle id="Ellipse_219" data-name="Ellipse 219" class="cls-7" cx="82.3" cy="178.47" r="8.93"/><path id="Path_7990" data-name="Path 7990" class="cls-7" d="M131.69,175.4a8.93,8.93,0,1,0-8.93,8.93h0A8.94,8.94,0,0,0,131.69,175.4Z"/><path id="Path_7991" data-name="Path 7991" class="cls-8" d="M84,178.47c0,1.19-.69,2.14-1.54,2.14s-1.53-1-1.53-2.14.69-2.15,1.53-2.15S84,177.28,84,178.47Z"/><path id="Path_7992" data-name="Path 7992" class="cls-8" d="M124.29,175.82c0,1.19-.69,2.15-1.53,2.15s-1.54-1-1.54-2.15.69-2.15,1.54-2.15S124.29,174.64,124.29,175.82Z"/><g id="Group_6055" data-name="Group 6055"><path id="Path_7993" data-name="Path 7993" class="cls-7" d="M126.11,189l.13.33s-2.93,8.09-3.35,8.09-4-6.14-4-6.14v-.07A53,53,0,0,0,126.11,189Z"/><path id="Path_7994" data-name="Path 7994" class="cls-7" d="M87.18,197.72c-1.12-.13-5.57-6.27-5.57-6.27l.09-.34A64.75,64.75,0,0,0,89,192.44l0,.12S88.31,197.86,87.18,197.72Z"/></g><path id="Path_7995" data-name="Path 7995" class="cls-2" d="M94.62,267.05s-.14,8.51.56,10c2.7,6,4.4-3.34,8.79-3.13,1.7.07,4.32,10.67,2.65,11.5s-4.47-6.14-4.47-6.14-1.42,6.68-7.81,5.86c-8.79-1.11-8.37-19-8.37-19S91.85,264.81,94.62,267.05Z"/><path id="Path_7996" data-name="Path 7996" class="cls-2" d="M137.87,261.74s1.37,8.4,2.33,9.79c3.71,5.37,3.73-4.07,8.1-4.64,1.68-.22,6.14,9.74,4.64,10.85s-5.48-5.25-5.48-5.25-.22,6.82-6.66,7.15c-8.84.46-11.58-17.2-11.58-17.2S134.15,259.51,137.87,261.74Z"/><path id="Path_7997" data-name="Path 7997" class="cls-2" d="M73.88,214.72s3.94,8.28,8.48,6.46c2-.78,2.87-3.59,2.87-3.59s-1.57-2.72-.76-4,2.34,1.36,2.34,1.36,1.74-5.17,3-4.68-.54,4.84-.54,4.84,2.17-5,3.15-4-.87,4.84-.87,4.84,2.24-4.25,2.9-3.1-3.64,16.11-12.88,15.35c-11-.9-12.19-11.92-12.19-11.92A4.26,4.26,0,0,1,73.88,214.72Z"/><path id="Path_7998" data-name="Path 7998" class="cls-2" d="M135.88,209.4s-2,8.95-6.85,8.18c-2.07-.33-3.59-2.87-3.59-2.87s.94-3-.15-4.09-2,1.84-2,1.84-2.83-4.65-4-3.89,1.6,4.6,1.6,4.6-3.22-4.4-4-3.22,1.92,4.52,1.92,4.52-3.13-3.65-3.51-2.39,7.1,14.92,16,12.13c10.58-3.32,9.26-14.32,9.26-14.32A4.28,4.28,0,0,0,135.88,209.4Z"/><path id="Path_7999" data-name="Path 7999" class="cls-9" d="M107.24,150.64c-1.44-1.65-2.94-3.25-4.49-4.78a51.15,51.15,0,0,0-4.88-4.31,12.52,12.52,0,0,0-2.7-1.61,2.89,2.89,0,0,0-1.32-.26c-.39,0-.56.22-.92.66a2.27,2.27,0,0,0-.49,1.17,2.21,2.21,0,0,0,.31,1.23,6.18,6.18,0,0,0,2.11,2,.62.62,0,0,1,.22.86h0a.66.66,0,0,1-.6.3,21.88,21.88,0,0,0-4.92,0,6.19,6.19,0,0,0-2.18.62,1.44,1.44,0,0,0-.62.6,1,1,0,0,0-.08.34v.16s0,0,0,0,0,.07,0,.11a1.52,1.52,0,0,0,.68.55,5,5,0,0,0,1.07.37,16.22,16.22,0,0,0,2.4.39,37.63,37.63,0,0,0,5,.06.61.61,0,0,1,.64.58.62.62,0,0,1-.46.62h0a9.54,9.54,0,0,0-4.16,1.94,1.83,1.83,0,0,0-.61,1.74,2.8,2.8,0,0,0,.44,1l.14.21.2.24a3.32,3.32,0,0,0,.38.37,4.84,4.84,0,0,0,4.31.67,14.88,14.88,0,0,0,4.43-1.9h0a.34.34,0,0,1,.37.58A15.85,15.85,0,0,1,97,157.31a7.76,7.76,0,0,1-2.63.28,4.52,4.52,0,0,1-2.55-1,4.1,4.1,0,0,1-.52-.5l-.2-.24a1.94,1.94,0,0,1-.21-.29,3.69,3.69,0,0,1-.61-1.3,2.66,2.66,0,0,1,.06-1.53,3.17,3.17,0,0,1,.79-1.25,7.4,7.4,0,0,1,2.24-1.5,14.13,14.13,0,0,1,2.47-.85l.17,1.2a38.78,38.78,0,0,1-5.17,0,17.49,17.49,0,0,1-2.61-.4,7.75,7.75,0,0,1-1.33-.46,2.78,2.78,0,0,1-1.23-1.07,1.81,1.81,0,0,1-.18-.49,2.74,2.74,0,0,1,0-.28v-.16a2.45,2.45,0,0,1,.2-.88,2.76,2.76,0,0,1,1.14-1.18,7.14,7.14,0,0,1,2.67-.77,22.87,22.87,0,0,1,5.23.06l-.39,1.17a8.92,8.92,0,0,1-1.42-1.09,5.88,5.88,0,0,1-1.15-1.43,3.41,3.41,0,0,1-.45-1.93,3.48,3.48,0,0,1,.76-1.82,3.81,3.81,0,0,1,.69-.7,2.14,2.14,0,0,1,1.06-.39,4,4,0,0,1,1.88.38,13.8,13.8,0,0,1,2.92,1.81,44.46,44.46,0,0,1,4.88,4.53c1.51,1.61,3,3.26,4.36,5a.34.34,0,0,1,0,.48A.35.35,0,0,1,107.24,150.64Z"/><path id="Path_8000" data-name="Path 8000" class="cls-8" d="M70.36,185.61l.16.13a5.36,5.36,0,0,0,.49.34,15.75,15.75,0,0,0,1.91,1.1l1.43.71,1.77.67c.64.23,1.3.52,2,.73s1.51.4,2.32.62,1.63.5,2.52.64l2.76.46c1,.15,1.92.33,2.91.47l3.09.24a51.57,51.57,0,0,0,6.46.32l6.67,0c2.24-.16,4.54-.21,6.7-.52s4.31-.61,6.36-1l3-.7c1-.25,1.9-.55,2.83-.82a41.77,41.77,0,0,0,5-2,35.47,35.47,0,0,0,3.95-2.2,21.51,21.51,0,0,0,2.72-2.14,12,12,0,0,0,1.5-1.61,5,5,0,0,0,.43-.6.51.51,0,0,1,.91.48,7.25,7.25,0,0,1-.47.75,14.92,14.92,0,0,1-1.54,1.83,23.59,23.59,0,0,1-2.78,2.4,30.31,30.31,0,0,1-4,2.47,43.91,43.91,0,0,1-5.15,2.18c-.94.3-1.9.64-2.9.92l-3.07.78c-2.12.41-4.29.84-6.55,1.08s-4.5.4-6.77.59H98.17a55.89,55.89,0,0,1-6.59-.39l-3.15-.29c-1-.17-2-.38-3-.56l-2.82-.56c-.91-.18-1.76-.5-2.58-.73l-2.37-.72c-.75-.25-1.42-.59-2.07-.86l-1.8-.79-1.47-.82a18.49,18.49,0,0,1-2-1.3,5.84,5.84,0,0,1-.48-.39l-.16-.13a.53.53,0,0,1,0-.73.5.5,0,0,1,.7-.07Z"/></g></g></g></svg>