<svg xmlns="http://www.w3.org/2000/svg" viewBox="0 0 188.46 285.53"><defs><style>.cls-1{fill:#f9e9bd;}.cls-2{fill:#f3c239;}.cls-3,.cls-4{isolation:isolate;}.cls-4{font-size:23.18px;font-family:STXihei, STHeiti;letter-spacing:0.2em;}.cls-4,.cls-5{fill:#fff;}.cls-6{fill:#c49728;}.cls-7{fill:#1d2536;}.cls-8{fill:#1d110b;}.cls-9{fill:#ea5f4c;}</style></defs><g id="圖層_2" data-name="圖層 2"><g id="圖層_1-2" data-name="圖層 1"><g id="Group_5815" data-name="Group 5815"><g id="Group_5807" data-name="Group 5807"><path id="Path_5537" data-name="Path 5537" class="cls-1" d="M185.87,73.46c-1,5.66-5.08,9.89-9.9,9.89H52.11l2.21,17.07L52.73,110.7,30.11,83.35H10.17C4.56,83.35,0,77.62,0,70.58V15.67C0,9.62,3.37,4.56,7.88,3.25A7.87,7.87,0,0,1,14,0h165.8c4.77,0,8.63,4.85,8.63,10.83V65.74A12.25,12.25,0,0,1,185.87,73.46Z"/><path id="Path_5538" data-name="Path 5538" class="cls-2" d="M10.17,4.84H176c4.77,0,8.63,4.85,8.63,10.83V70.58c0,6-3.86,10.83-8.63,10.83H47.37l3.09,23.86L30.74,81.41H10.18c-4.77,0-8.63-4.85-8.63-10.83V15.67C1.55,9.69,5.41,4.84,10.17,4.84Z"/></g><g id="點我進入_星座探索" data-name="點我進入 星座探索" class="cls-3"><text class="cls-4" transform="translate(40.69 37.9)">點我進入</text><text class="cls-4" transform="translate(40.69 65.71)">星座探索</text></g></g><g id="Group_6256" data-name="Group 6256"><path id="Path_8043" data-name="Path 8043" class="cls-2" d="M130,187.38c-3.81-23.45-10.15-36.9-20.83-43.23l1.15-5.93c.28,0,.56,0,.85,0,5.71,0,14.56-.83,14.56-6.6s-7.08-16.13-12.79-16.13-14.74,8.28-14.74,14c0,4.38,5.3,6.36,9.07,7.92l-1.37,5a39.7,39.7,0,0,0-15.83-2.85c-7.73,0-14.13,1.46-19.45,4.72l-1.88-6.87c3.78-1.56,11.51-3.54,11.51-7.92,0-5.77-9.7-12.21-15.41-12.21S49,129.23,49,135s10.17,3.26,15.88,3.26c.29,0,.57,0,.86,0l1.64,8.49c-8.52,7.11-13.84,20-17.2,40.67-5.69,35-28.94,80.9,39.93,80.9s45.62-45.94,39.93-80.9m-27.5-58.64c0-3.6,6.59-10,10.16-10s8.9,7.8,8.9,11.4-6.83,4.2-10.4,4.2-8.66-2-8.66-5.6m-37.66,5.6c-3.56,0-10.18,1.06-10.18-2.54S61.1,120,64.67,120s11.68,5.44,11.68,9-7.95,5.32-11.52,5.32"/><ellipse id="Ellipse_220" data-name="Ellipse 220" class="cls-5" cx="107.5" cy="175.4" rx="12.05" ry="11.38"/><ellipse id="Ellipse_221" data-name="Ellipse 221" class="cls-5" cx="72.73" cy="178.61" rx="11.4" ry="10.76"/><path id="Path_8044" data-name="Path 8044" class="cls-6" d="M119.74,173.52c-1.68-5.8-6.53-10-12.76-10a11.27,11.27,0,0,0-9.87,5.59,22.23,22.23,0,0,0-1.85,5.34s7-5.94,14.77-6.17C112.74,168.25,119.74,173.52,119.74,173.52Z"/><path id="Path_8045" data-name="Path 8045" class="cls-7" d="M77.58,176.55a5.33,5.33,0,1,1-5.32-5.32h0a5.31,5.31,0,0,1,5.32,5.32h0"/><path id="Path_8046" data-name="Path 8046" class="cls-7" d="M112.44,176a4.77,4.77,0,1,1-4.77-4.77h0a4.76,4.76,0,0,1,4.76,4.76h0"/><path id="Path_8047" data-name="Path 8047" class="cls-7" d="M115.78,128.34a4,4,0,1,1-4-4,4,4,0,0,1,4,4h0"/><path id="Path_8048" data-name="Path 8048" class="cls-6" d="M84.32,176a11.94,11.94,0,0,0-22.89,0Z"/><path id="Path_8049" data-name="Path 8049" class="cls-7" d="M59.85,127.33a6.38,6.38,0,0,0,12.09-1.84Z"/><path id="Path_8050" data-name="Path 8050" class="cls-6" d="M112.37,148.74l.46,2.62,2.64.37L113.12,153l.46,2.62-1.91-1.86L109.32,155l1.16-2.38-1.91-1.84,2.63.37Z"/><path id="Path_8051" data-name="Path 8051" class="cls-6" d="M101.25,143.35l1.69.71,1.2-1.39-.16,1.82,1.68.71-1.78.41-.16,1.83-.94-1.56-1.77.42,1.2-1.38Z"/><path id="Path_8052" data-name="Path 8052" class="cls-6" d="M105.28,148l1,.42.69-.8-.09,1,1,.41-1,.24-.09,1.06-.55-.9-1,.24.69-.8Z"/><path id="Path_8053" data-name="Path 8053" class="cls-6" d="M84.1,142.13l1.42-.35.1-1.46.77,1.24,1.41-.36-.94,1.12.78,1.24L86.29,143l-.93,1.12.1-1.46Z"/><path id="Path_8054" data-name="Path 8054" class="cls-6" d="M83.13,230l2.17-.55.15-2.24,1.18,1.9,2.17-.54-1.44,1.72,1.19,1.9-2.07-.84-1.43,1.72.16-2.23Z"/><path id="Path_8055" data-name="Path 8055" class="cls-6" d="M72.34,231.68l1.32-2.28-1.76-2,2.56.56,1.31-2.27.27,2.62,2.57.55L76.22,230l.28,2.6-1.76-2Z"/><path id="Path_8056" data-name="Path 8056" class="cls-6" d="M119.57,245.23l1.31-2.27-1.75-2,2.56.56,1.31-2.27.27,2.62,2.57.55-2.4,1.06.28,2.6-1.75-2Z"/><path id="Path_8057" data-name="Path 8057" class="cls-6" d="M126.35,251l-.15-2.06-2-.49,1.91-.78-.16-2,1.34,1.58,1.91-.78-1.08,1.74,1.34,1.57-2-.49Z"/><path id="Path_8058" data-name="Path 8058" class="cls-6" d="M131.34,248.68l-.12-1.69-1.65-.4,1.57-.63-.13-1.68,1.09,1.29,1.57-.64-.89,1.43,1.1,1.28-1.64-.4Z"/><path id="Path_8059" data-name="Path 8059" class="cls-6" d="M130.79,238.36l-.12-1.69-1.65-.4,1.57-.63-.13-1.68,1.1,1.29,1.56-.64-.89,1.43,1.1,1.29-1.64-.4Z"/><path id="Path_8060" data-name="Path 8060" class="cls-6" d="M107.19,259.28l-.26-3.4-3.3-.8,3.14-1.27-.25-3.39,2.2,2.6,3.14-1.29-1.78,2.88,2.2,2.58-3.3-.81Z"/><path id="Path_8061" data-name="Path 8061" class="cls-6" d="M63.52,239.23l2.33-2.48-1.64-3,3.06,1.45,2.32-2.48-.42,3.38,3.07,1.45-3.32.63-.41,3.37-1.64-3Z"/><path id="Path_8062" data-name="Path 8062" class="cls-6" d="M61.52,236.78l-.59-1.8H59l1.53-1.11-.59-1.8,1.54,1.12,1.54-1.12-.59,1.8L64,235H62.1Z"/><path id="Path_8063" data-name="Path 8063" class="cls-6" d="M48.16,245.53l1.72-1.83-1.21-2.2,2.26,1.08,1.72-1.83-.32,2.49,2.27,1.07-2.45.47-.3,2.48-1.22-2.2Z"/><path id="Path_8064" data-name="Path 8064" class="cls-2" d="M54.13,199c-8.17-14-12.85-40.13-12.85-40.13s-4-4.22-2.75-5.57c1-1,3,2.43,3,2.43s-1.45-4.55-.3-5.23,2.41,4.45,2.41,4.45.1-5.12,1.15-4.87,1.27,5.54,1.27,5.54,1.78-1.93,2.7-1.18-1.66,3.68-1.66,3.68C51.06,181.17,58.06,196,58.06,196Z"/><path id="Path_8065" data-name="Path 8065" class="cls-2" d="M70.76,262.64c-21.4,11.63-29.27,23-32.49,22.89-2.15-.08-7.37-9-6.07-10.82s6.07,3.44,6.07,3.44S52.59,264,67.17,258.06Z"/><path id="Path_8066" data-name="Path 8066" class="cls-2" d="M129.52,194.46c10.16-14.05,17.9-41.32,17.9-41.32s4.74-4.06,3.52-5.62c-.95-1.21-3.49,2.26-3.49,2.26s2-4.68.87-5.53-3,4.48-3,4.48.44-5.45-.7-5.3-2,5.75-2,5.75-1.68-2.25-2.74-1.55,1.39,4.1,1.39,4.1c-6.62,24.14-15.63,39.14-15.63,39.14a3.12,3.12,0,0,0,1,3.11A2.83,2.83,0,0,0,129.52,194.46Z"/><path id="Path_8067" data-name="Path 8067" class="cls-2" d="M115.85,259.06c21.53,7,33.17-5.21,36.2-4.15,2,.72,5.61,9.74,3.83,11.1s-6-4-6-4-10.52,12.39-36.89,4.36a5.55,5.55,0,0,1-.11-4.53C114.11,258.7,115.85,259.06,115.85,259.06Z"/><g id="Group_6059" data-name="Group 6059"><path id="Path_8068" data-name="Path 8068" class="cls-5" d="M75.16,208.92c1.3,0,3.82,4.4,4,4.64a10.62,10.62,0,0,1-6.14-.23l.08-.22S73.81,208.94,75.16,208.92Z"/><path id="Path_8069" data-name="Path 8069" class="cls-8" d="M79.12,213.56c-.14-.24-2.66-4.66-4-4.64s-2.11,4.18-2.11,4.18l-.07.23c-3-1.09-5.2-3.78-2.83-8.65A11.83,11.83,0,0,1,77,198.62l0,.09s1.66,5.08,3.14,4.92,2.48-5.92,2.48-5.92v-.2c2.29-.15,4.3,0,5.5,0a41.16,41.16,0,0,1,8.13.84l-.07.28s-.34,6.16.88,6.7,5-4.62,5-4.62l.16-.29c5.8,3,7.37,7.78,5.2,11.9-2.57,4.87-6.33,4.29-10.05,3-.21-.64-1.73-5.27-3-5.39s-3.71,3-3.71,3l0,.14a20.75,20.75,0,0,0-11.24.39Z"/><path id="Path_8070" data-name="Path 8070" class="cls-5" d="M94.47,209.92c1.26.11,2.79,4.74,3,5.39-1.22-.43-2.44-.94-3.61-1.36a24.17,24.17,0,0,0-3.12-.9l0-.14S93.13,209.8,94.47,209.92Z"/><path id="Path_8071" data-name="Path 8071" class="cls-5" d="M102.31,200.43l-.16.29s-3.83,5.14-5,4.62-.88-6.7-.88-6.7l.07-.28A23.77,23.77,0,0,1,102.31,200.43Z"/><path id="Path_8072" data-name="Path 8072" class="cls-5" d="M82.67,197.51v.21s-1,5.77-2.48,5.92-3.14-4.92-3.14-4.92l0-.1A20.52,20.52,0,0,1,82.67,197.51Z"/></g><path id="Path_8073" data-name="Path 8073" class="cls-9" d="M101.8,217.05h0a19.1,19.1,0,0,1-6.59-1.7c-.55-.22-1.1-.43-1.64-.62a24,24,0,0,0-8.09-1.44,16.49,16.49,0,0,0-5.7.92,9.69,9.69,0,0,1-3.29.52c-2.55,0-5.83-.87-7.35-3.31-.82-1.3-1.44-3.6.27-7.1,2.52-5.18,7.58-7.7,15.47-7.7.85,0,1.63,0,2.29,0l1,0c9.78.13,17,3,19.87,7.75a8.19,8.19,0,0,1,.18,8.27C106.7,215.63,104.59,217.05,101.8,217.05Zm-16.32-5.41a26,26,0,0,1,8.65,1.53l1.68.64a18.09,18.09,0,0,0,6,1.59c2.15,0,3.74-1.1,5-3.46a6.59,6.59,0,0,0-.14-6.66c-2.55-4.28-9.28-6.81-18.47-6.93l-1,0c-.65,0-1.4,0-2.24,0-7.19,0-11.76,2.22-14,6.78-1.1,2.26-1.23,4.12-.36,5.5,1.17,1.87,3.84,2.54,6,2.54a8.41,8.41,0,0,0,2.72-.43,18,18,0,0,1,6.26-1Z"/></g></g></g></svg>