<svg xmlns="http://www.w3.org/2000/svg" width="125.779" height="89.358" viewBox="0 0 125.779 89.358">
  <g id="Group_5944" data-name="Group 5944" transform="translate(-427.382 -331.684)">
    <g id="Group_5898" data-name="Group 5898" transform="translate(267.859 149.001)">
      <g id="Group_16" data-name="Group 16">
        <circle id="Ellipse_6" data-name="Ellipse 6" cx="41.142" cy="41.142" r="41.142" transform="translate(181.122 182.693)" fill="#6fb2cb"/>
        <g id="Group_15" data-name="Group 15">
          <path id="Path_138" data-name="Path 138" d="M205.653,186.2,254.7,198.516a41.281,41.281,0,0,0-4.648-5.036l-37.92-9.524A41.137,41.137,0,0,0,205.653,186.2Z" fill="#85d0db"/>
          <path id="Path_139" data-name="Path 139" d="M263.383,222.141l-76.549-19.225q-.975,1.653-1.8,3.416L263.358,226Q263.463,224.062,263.383,222.141Z" fill="#85d0db"/>
          <path id="Path_140" data-name="Path 140" d="M259.922,207.257a41.355,41.355,0,0,0-2.165-4.229L196.834,191.5a41.317,41.317,0,0,0-3.563,3.145Z" fill="#85d0db"/>
          <path id="Path_141" data-name="Path 141" d="M188.857,199.812l73.288,13.868q-.27-1.053-.594-2.087l-71.379-13.507Q189.494,198.931,188.857,199.812Z" fill="#85d0db"/>
          <path id="Path_142" data-name="Path 142" d="M181.715,230.815l75.463,14.809q1.038-1.665,1.924-3.446L181.232,226.9Q181.379,228.874,181.715,230.815Z" fill="#85d0db"/>
          <path id="Path_143" data-name="Path 143" d="M183.3,210.645q-.523,1.552-.932,3.17c-.037.147-.07.294-.1.441l80.1,18.8q.426-1.848.677-3.695Z" fill="#85d0db"/>
          <path id="Path_144" data-name="Path 144" d="M181.52,218.148q-.137.971-.227,1.94l79.337,18.625q.35-.907.662-1.838Z" fill="#85d0db"/>
          <path id="Path_145" data-name="Path 145" d="M237.97,261.866,189.9,249.225a41.232,41.232,0,0,0,4.782,5.137l36.6,9.624A41.183,41.183,0,0,0,237.97,261.866Z" fill="#85d0db"/>
          <path id="Path_146" data-name="Path 146" d="M182.268,233.484a41.412,41.412,0,0,0,1.211,4.071l69.286,13.906a40.969,40.969,0,0,0,2.686-3.288Z" fill="#85d0db"/>
          <path id="Path_147" data-name="Path 147" d="M185.338,241.965q.554,1.124,1.171,2.214l60.9,12.223c.661-.509,1.3-1.041,1.935-1.59Z" fill="#85d0db"/>
        </g>
        <path id="Path_148" data-name="Path 148" d="M191.716,207.647a40.947,40.947,0,0,1,12.79-20.924,41.142,41.142,0,1,0,44.87,68.058,41.141,41.141,0,0,1-57.66-47.134Z" fill="#3f73a8" opacity="0.4"/>
        <path id="Path_149" data-name="Path 149" d="M252.812,240.023a40.948,40.948,0,0,1-12.791,20.924,41.142,41.142,0,1,0-44.869-68.058,41.142,41.142,0,0,1,57.66,47.134Z" fill="#fff" opacity="0.1"/>
        <path id="Path_150" data-name="Path 150" d="M263.281,219.55a40.807,40.807,0,0,1,.174,5.3c5.651,2.873,8.773,5.458,8.312,7.292-.437,1.739-4.036,2.55-9.816,2.511-9.3-.063-24.248-2.329-40.777-6.48s-30.774-9.217-39-13.556c-5.112-2.7-7.9-5.112-7.465-6.852.461-1.834,4.433-2.636,10.771-2.5a40.93,40.93,0,0,1,2.659-4.59c-16.038-.85-27.13,1.433-28.479,6.805-1.341,5.341,7.253,12.543,21.643,19.339A206.545,206.545,0,0,0,218.3,239.633a206.588,206.588,0,0,0,38.656,6.188c15.894.811,26.871-1.476,28.213-6.818C286.514,233.631,277.817,226.378,263.281,219.55Z" fill="#b2daef"/>
      </g>
      <path id="Path_151" data-name="Path 151" d="M260.118,268.588a3.453,3.453,0,1,0,3.454-3.454A3.453,3.453,0,0,0,260.118,268.588Z" fill="#6fc8cb"/>
      <path id="Path_152" data-name="Path 152" d="M168.529,232.979a1.451,1.451,0,1,0,1.451-1.451A1.451,1.451,0,0,0,168.529,232.979Z" fill="#9bd4c9"/>
      <path id="Path_153" data-name="Path 153" d="M254.557,261.34a1.451,1.451,0,1,0,1.452-1.451A1.452,1.452,0,0,0,254.557,261.34Z" fill="#d7eee9"/>
      <path id="Path_154" data-name="Path 154" d="M274.313,212.876a1.226,1.226,0,0,1-.493.937,1.976,1.976,0,0,1-1.018.371,2.26,2.26,0,0,1-1.352-.259c-.968-.556-1.2-2.2.093-2.463C272.469,211.271,274.31,211.686,274.313,212.876Z" fill="#c5e9ea"/>
      <path id="Path_155" data-name="Path 155" d="M275.65,201.313c.157-.227.1-.561.275-.775.206-.251.593-.195.915-.237a1.116,1.116,0,0,0,.955-.834c.223-1.152-.989-.923-1.626-.733a15.076,15.076,0,0,0-2.023.48C272.364,200.035,274.879,202.428,275.65,201.313Z" fill="#6fc8cb"/>
      <path id="Path_156" data-name="Path 156" d="M271.892,212.286" fill="none" stroke="#f9f1d7" stroke-miterlimit="10" stroke-width="0.486"/>
      <g id="Group_17" data-name="Group 17">
        <path id="Path_157" data-name="Path 157" d="M273.092,211.288a.565.565,0,0,0,0-1.13.565.565,0,0,0,0,1.13Z" fill="#11173e"/>
      </g>
      <g id="Group_18" data-name="Group 18">
        <path id="Path_158" data-name="Path 158" d="M175.058,239.355a.566.566,0,0,0,0-1.131.566.566,0,0,0,0,1.131Z" fill="#11173e"/>
      </g>
      <g id="Group_19" data-name="Group 19">
        <path id="Path_159" data-name="Path 159" d="M174.883,231.365a.943.943,0,0,0,0-1.884.943.943,0,0,0,0,1.884Z" fill="#609698"/>
      </g>
      <g id="Group_20" data-name="Group 20">
        <path id="Path_160" data-name="Path 160" d="M279.393,221.74a.471.471,0,0,0,0-.942.471.471,0,0,0,0,.942Z" fill="#242c60"/>
      </g>
    </g>
  </g>
</svg>
