<svg xmlns="http://www.w3.org/2000/svg" viewBox="0 0 188.46 285.53"><defs><style>.cls-1{fill:#e57d75;}.cls-2{fill:#cb506b;}.cls-3,.cls-4,.cls-7{isolation:isolate;}.cls-4{font-size:23.18px;font-family:STXihei, STHeiti;letter-spacing:0.2em;}.cls-4,.cls-8{fill:#fff;}.cls-5{fill:#f4da6b;}.cls-6{fill:#f4f3e1;}.cls-7{fill:#5c2176;opacity:0.2;}.cls-9{fill:#1d110b;}</style></defs><g id="圖層_2" data-name="圖層 2"><g id="圖層_1-2" data-name="圖層 1"><g id="Group_5815" data-name="Group 5815"><g id="Group_5807" data-name="Group 5807"><path id="Path_5537" data-name="Path 5537" class="cls-1" d="M185.87,73.46c-1,5.66-5.08,9.89-9.9,9.89H52.11l2.21,17.07L52.73,110.7,30.11,83.35H10.17C4.56,83.35,0,77.62,0,70.58V15.67C0,9.62,3.37,4.56,7.88,3.25A7.87,7.87,0,0,1,14,0h165.8c4.77,0,8.63,4.85,8.63,10.83V65.74A12.25,12.25,0,0,1,185.87,73.46Z"/><path id="Path_5538" data-name="Path 5538" class="cls-2" d="M10.17,4.84H176c4.77,0,8.63,4.85,8.63,10.83V70.58c0,6-3.86,10.83-8.63,10.83H47.37l3.09,23.86L30.74,81.41H10.18c-4.77,0-8.63-4.85-8.63-10.83V15.67C1.55,9.69,5.41,4.84,10.17,4.84Z"/></g><g id="點我進入_星座探索" data-name="點我進入 星座探索" class="cls-3"><text class="cls-4" transform="translate(40.69 37.9)">點我進入</text><text class="cls-4" transform="translate(40.69 65.71)">星座探索</text></g></g><g id="Group_6258" data-name="Group 6258"><g id="Group_6163" data-name="Group 6163"><g id="Group_6158" data-name="Group 6158"><path id="Path_8268" data-name="Path 8268" class="cls-5" d="M146.82,169.55s14.42-3.05,5.69-30.8c0,0-5.42-.32-6-2.24s3.37-.93,3.37-.93-3.44-5.54-2.4-5.93c.86-.33,4.76,3.88,4.76,3.88s-1.83-5.53-.34-5.71,2.65,5.59,2.65,5.59,2.2-4.55,3-3.07-1.18,5.68-1.18,5.68,11.43,28.67-8.35,36.75"/><path id="Path_8269" data-name="Path 8269" class="cls-5" d="M148,173a.27.27,0,0,1-.25-.17.26.26,0,0,1,.15-.34c19.31-7.89,8.31-36.13,8.2-36.41a.26.26,0,0,1,0-.21c.53-1.14,1.78-4.33,1.19-5.45-.08-.15-.13-.14-.16-.15-.49,0-1.6,1.68-2.34,3.22a.27.27,0,0,1-.35.13.24.24,0,0,1-.15-.19c-.46-2.29-1.49-5.49-2.36-5.38a.26.26,0,0,0-.19.13c-.47.73.21,3.6.75,5.23a.26.26,0,0,1-.44.26c-2-2.17-4.07-3.92-4.48-3.81-.28.32.9,2.91,2.54,5.55a.27.27,0,0,1,0,.3.3.3,0,0,1-.28.1c-.92-.24-2.55-.44-3,0,0,0-.18.18-.06.57.41,1.43,4.28,2,5.73,2.05a.27.27,0,0,1,.24.19c3.63,11.52,3.78,20.24.45,25.93a10.56,10.56,0,0,1-6.34,5.2.26.26,0,0,1-.31-.2.27.27,0,0,1,.2-.32,10.28,10.28,0,0,0,6-5c2.21-3.8,3.92-11.28-.46-25.32-1.07-.08-5.48-.52-6-2.43a1,1,0,0,1,.2-1.08c.58-.6,2-.45,2.88-.3-.82-1.38-2.6-4.5-2.27-5.45a.53.53,0,0,1,.32-.35c.76-.29,2.88,1.7,4.28,3.14-.39-1.4-.92-3.75-.37-4.6a.74.74,0,0,1,.58-.37c1.4-.15,2.37,3.36,2.77,5.07.57-1.06,1.64-2.85,2.47-2.86a.71.71,0,0,1,.64.44c.77,1.46-.78,5.05-1.13,5.81.74,1.94,10.64,29.15-8.53,37Z"/></g><g id="Group_6159" data-name="Group 6159"><path id="Path_8270" data-name="Path 8270" class="cls-5" d="M79.91,251.77s1,17.52-1.4,27.07c0,0,7.37,3.39,7.17,5s-9.36-1.19-10.35-2.79c-1.57-2.51,1.59-1.79,1.59-29.86C76.92,251.17,77.92,249.78,79.91,251.77Z"/><path id="Path_8271" data-name="Path 8271" class="cls-5" d="M84.53,284.56c-2.58,0-8.55-2-9.42-3.39-.66-1.05-.55-1.6-.2-3.44.57-3,1.75-9.26,1.75-26.56a.3.3,0,0,1,0-.16,1.58,1.58,0,0,1,1.23-.58,3.22,3.22,0,0,1,2.16,1.15.24.24,0,0,1,.07.17c0,.17,1,17.41-1.35,26.95,1.61.75,7.33,3.53,7.12,5.15C85.89,284.32,85.41,284.56,84.53,284.56Zm-7.34-33.29c0,17.28-1.19,23.54-1.76,26.55-.34,1.78-.42,2.2.12,3.07.72,1.15,6.43,3.14,9,3.14.64,0,.88-.13.89-.24.12-1-4-3.33-7-4.7a.27.27,0,0,1-.14-.3c2.26-9,1.47-25.45,1.39-26.9a2.75,2.75,0,0,0-1.71-.93,1.06,1.06,0,0,0-.75.31Z"/></g><g id="Group_6160" data-name="Group 6160"><path id="Path_8272" data-name="Path 8272" class="cls-5" d="M118.52,253.26s2.56,17.36,1,27.09c0,0,7.64,2.71,7.59,4.32s-9.43-.36-10.57-1.85c-1.79-2.36,1.43-1.93-1.09-29.89C115.49,252.93,116.36,251.45,118.52,253.26Z"/><path id="Path_8273" data-name="Path 8273" class="cls-5" d="M125.46,285.53c-2.82,0-8.19-1.37-9.09-2.55-.75-1-.69-1.55-.51-3.42.3-3,.92-9.37-.63-26.61a.25.25,0,0,1,0-.15,1.56,1.56,0,0,1,1.33-.7,3.37,3.37,0,0,1,2.1,1,.3.3,0,0,1,.1.17c0,.17,2.51,17.25,1.07,27,1.67.6,7.61,2.87,7.55,4.5C127.38,285.53,125.94,285.53,125.46,285.53ZM115.76,253c1.55,17.21.93,23.56.63,26.61-.17,1.8-.21,2.23.41,3.05s5.83,2.34,8.67,2.34c1.11,0,1.41-.22,1.42-.34,0-1-4.32-3-7.42-4.06a.26.26,0,0,1-.17-.29c1.44-9.2-.82-25.48-1-26.91a2.81,2.81,0,0,0-1.68-.77,1.08,1.08,0,0,0-.84.37Z"/></g><g id="Group_6161" data-name="Group 6161"><path id="Path_8274" data-name="Path 8274" class="cls-1" d="M147.17,215.17c4.07-1.08,6-.34,5.61,6.73-1.19,20.71-31.46,36.23-42.61,39.42-9.93,2.84-64.5-13.53-67.29-45.79s44.2-78.44,63.31-78.44c14,0,50.17,30.26,47.39,46.59a9.83,9.83,0,0,1-5.2,7,23.17,23.17,0,0,1-7,2.47,51.9,51.9,0,0,1-10,.92,1.45,1.45,0,0,1,0-.16,1.37,1.37,0,0,1-.07.16,95.32,95.32,0,0,1-11.58-.67c-3.32-.38-6.47-.89-9.25-1.44a56.84,56.84,0,0,1-8.7-2.29,8.82,8.82,0,0,0-2.49-.61h0c-7.54-.67-8,11.45.51,19.2a20.61,20.61,0,0,0,1.59,1.32,50.06,50.06,0,0,0,16.14,8.4,36.51,36.51,0,0,0,10.59,1.47c0,.14.07.22.07.22s0-.08.1-.24a39.84,39.84,0,0,0,9.47-1.33C141.63,217.1,144.76,215.81,147.17,215.17Z"/><path id="Path_8275" data-name="Path 8275" class="cls-6" d="M106,206.37c2.13.53,2.06,6.64,2.06,6.64s4.38-2.46,6.51-2.46,3,7.23,3,7.23l0,.17a50.21,50.21,0,0,1-16.15-8.4c-.56-.42-1.08-.86-1.58-1.31l.26-.28S103.87,205.84,106,206.37Z"/><path id="Path_8276" data-name="Path 8276" class="cls-6" d="M128.15,219.42A36.17,36.17,0,0,1,117.56,218l0-.17s2.39-5.57,5.31-5.57C125.53,212.21,127.72,218.19,128.15,219.42Z"/><path id="Path_8277" data-name="Path 8277" class="cls-6" d="M137.77,218.05l0,0a39.5,39.5,0,0,1-9.48,1.34c.5-1.19,2.78-6.46,4.43-6.94C134.6,212,137.77,218.05,137.77,218.05Z"/><path id="Path_8278" data-name="Path 8278" class="cls-6" d="M141,210.88c2.09-.46,5.4,3.34,6.2,4.29-2.4.64-5.53,1.93-9.38,2.9v0S138.58,211.41,141,210.88Z"/><path id="Path_8279" data-name="Path 8279" class="cls-6" d="M148.4,190.71s2.39,6.9.52,8.23-7.42-5.31-7.42-5.31l-.11-.5a23.13,23.13,0,0,0,7-2.47Z"/><path id="Path_8280" data-name="Path 8280" class="cls-6" d="M141.39,193.13l.11.5s-3.19,8.5-5.84,9c-2.45.49-4-7.38-4.22-8.6A51.9,51.9,0,0,0,141.39,193.13Z"/><path id="Path_8281" data-name="Path 8281" class="cls-6" d="M119.76,193.38a95.32,95.32,0,0,0,11.58.67c-.48,1.12-3.31,7.59-5.24,8.08-2.13.52-6.38-8.5-6.38-8.5Z"/><path id="Path_8282" data-name="Path 8282" class="cls-6" d="M119.76,193.38l0,.25s-1.85,6.9-4.77,6.9-4.51-8.23-4.51-8.23l.06-.36C113.29,192.49,116.44,193,119.76,193.38Z"/><path id="Path_8283" data-name="Path 8283" class="cls-6" d="M101.81,189.65a56.72,56.72,0,0,0,8.69,2.29l-.06.36s-4.52,6.9-6.64,6.9-4.51-9.56-4.51-9.56l0-.6A8.9,8.9,0,0,1,101.81,189.65Z"/></g><path id="Path_8284" data-name="Path 8284" class="cls-7" d="M102.35,177a11.73,11.73,0,1,0-11.73,11.74A11.72,11.72,0,0,0,102.35,177Z"/><path id="Path_8285" data-name="Path 8285" class="cls-7" d="M108.73,157.24A10,10,0,1,0,98.47,167h.25A9.9,9.9,0,0,0,108.73,157.24Z"/><path id="Path_8286" data-name="Path 8286" class="cls-7" d="M128.12,164.28a9.86,9.86,0,1,0-9.86,9.86,9.85,9.85,0,0,0,9.86-9.86Z"/><path id="Path_8287" data-name="Path 8287" class="cls-7" d="M145.39,177a9.82,9.82,0,1,0-9.81,9.81,9.82,9.82,0,0,0,9.81-9.81Z"/><path id="Path_8288" data-name="Path 8288" class="cls-8" d="M101.41,176.7a10.75,10.75,0,1,0-10.75,10.75A10.75,10.75,0,0,0,101.41,176.7Z"/><path id="Path_8289" data-name="Path 8289" class="cls-8" d="M107.9,156.89a9.18,9.18,0,1,0-9.17,9.18,9.18,9.18,0,0,0,9.17-9.18Z"/><path id="Path_8290" data-name="Path 8290" class="cls-8" d="M127.35,164.16a9.18,9.18,0,1,0-9.18,9.18h0a9.18,9.18,0,0,0,9.17-9.18Z"/><path id="Path_8291" data-name="Path 8291" class="cls-8" d="M144.53,176.8a9.18,9.18,0,1,0-9.17,9.18h0a9.17,9.17,0,0,0,9.17-9.17Z"/><path id="Path_8292" data-name="Path 8292" class="cls-9" d="M93.65,176.7a3,3,0,1,0-3,3h0A3,3,0,0,0,93.65,176.7Z"/><path id="Path_8293" data-name="Path 8293" class="cls-9" d="M101.28,156.89a2.55,2.55,0,1,0-2.55,2.55h0A2.56,2.56,0,0,0,101.28,156.89Z"/><path id="Path_8294" data-name="Path 8294" class="cls-9" d="M120.72,164.16a2.55,2.55,0,1,0-2.55,2.55h0a2.54,2.54,0,0,0,2.54-2.54Z"/><path id="Path_8295" data-name="Path 8295" class="cls-9" d="M137.91,176.8a2.55,2.55,0,1,0-2.55,2.55h0a2.55,2.55,0,0,0,2.55-2.54Z"/><path id="Path_8296" data-name="Path 8296" class="cls-2" d="M60,207.28c-2.92-2.35-16,3.83-26.05,8.11-3.71,1.6-7.4,20-2.92,21.51C48.38,242.76,70.8,216,60,207.28Z"/><path id="Path_8297" data-name="Path 8297" class="cls-5" d="M60.6,193.83s-14.74-.4-11.15-29.27c0,0,5.28-1.29,5.47-3.29s-3.48-.3-3.48-.3,2.39-6.07,1.3-6.27c-.91-.16-4,4.68-4,4.68s.79-5.77-.7-5.67-1.6,6-1.6,6-3-4.08-3.48-2.49,2.19,5.38,2.19,5.38S39.1,192.83,60,197.21C60,197.21,63.37,195.9,60.6,193.83Z"/><g id="Group_6162" data-name="Group 6162"><path id="Path_8298" data-name="Path 8298" class="cls-2" d="M106.22,140.71s1-.15,2.58-.52c.81-.18,1.79-.45,2.89-.79a22.51,22.51,0,0,0,3.5-1.42,10.39,10.39,0,0,0,3.35-2.57,6.06,6.06,0,0,0,1.34-4.3,4.94,4.94,0,0,0-.63-2.22,4.32,4.32,0,0,0-1.72-1.59,5.87,5.87,0,0,0-2.43-.66,4.91,4.91,0,0,0-2.39.42c-.31.17-.44.37-.45.47a.91.91,0,0,0,.38.66,2.09,2.09,0,0,0,.94.34,5.47,5.47,0,0,0,1.28,0,10.39,10.39,0,0,0,4.82-2.18,7.84,7.84,0,0,0,1.67-1.87,4.52,4.52,0,0,0,.7-2.13,4.77,4.77,0,0,0-1.58-3.54,10.13,10.13,0,0,0-.77-.7,5.35,5.35,0,0,0-.7-.47,3.81,3.81,0,0,0-1.5-.5,4.61,4.61,0,0,0-2.59.41,7.3,7.3,0,0,0-1.57.93c-.35.26-.5.4-.5.4h0a.53.53,0,0,1-.74,0,.53.53,0,0,1,0-.66,7.15,7.15,0,0,1,.53-.57,8.21,8.21,0,0,1,1.71-1.28,6.1,6.1,0,0,1,3.37-.75,5.52,5.52,0,0,1,2.09.64,7.22,7.22,0,0,1,1,.65c.29.23.56.47.83.73a6.8,6.8,0,0,1,1.49,2.11,5.14,5.14,0,0,1,.39,2.79,6,6,0,0,1-1.13,2.65,10,10,0,0,1-2,2.06,13,13,0,0,1-5.3,2.57,4.28,4.28,0,0,1-3.37-.45,2.06,2.06,0,0,1,.2-3.62,6,6,0,0,1,3.28-.71,7.62,7.62,0,0,1,3.14.78,6.08,6.08,0,0,1,2.45,2.21,6.83,6.83,0,0,1,.93,3.07,9.06,9.06,0,0,1-.26,3,8.59,8.59,0,0,1-1.27,2.64,10.71,10.71,0,0,1-4,3.23,17.58,17.58,0,0,1-4,1.36,25.73,25.73,0,0,1-3.15.47,19.68,19.68,0,0,1-2.77,0h0a.53.53,0,0,1-.48-.57.52.52,0,0,1,.44-.47Z"/><path id="Path_8299" data-name="Path 8299" class="cls-2" d="M115.07,119.94a2.19,2.19,0,1,0-3,.86A2.2,2.2,0,0,0,115.07,119.94Z"/></g></g><path id="Path_8300" data-name="Path 8300" class="cls-8" d="M76.48,199.05c-2.32,0-5.09-.66-6.34-2.08a2.82,2.82,0,0,1,0-3.68.42.42,0,1,1,.72.42l0,0a2,2,0,0,0,0,2.68c1.59,1.81,6.51,2.2,8.24,1.38a.42.42,0,0,1,.36.76A7.3,7.3,0,0,1,76.48,199.05Z"/><path id="Path_8301" data-name="Path 8301" class="cls-8" d="M79.11,213.05a6.82,6.82,0,0,1-2.14-.32,4.85,4.85,0,0,1-2.48-1.61,3,3,0,0,1-.43-3,.42.42,0,0,1,.55-.21.43.43,0,0,1,.21.56h0a2.21,2.21,0,0,0,.34,2.17,4.18,4.18,0,0,0,2.06,1.32,6.55,6.55,0,0,0,4.65-.33.42.42,0,0,1,.36.76h0A7.31,7.31,0,0,1,79.11,213.05Z"/><path id="Path_8302" data-name="Path 8302" class="cls-8" d="M72.63,229.87a7.12,7.12,0,0,1-2.14-.32A4.85,4.85,0,0,1,68,227.94a3,3,0,0,1-.43-3,.42.42,0,0,1,.55-.21.42.42,0,0,1,.21.56,2.19,2.19,0,0,0,.34,2.16,4,4,0,0,0,2.06,1.32,6.55,6.55,0,0,0,4.65-.32.42.42,0,0,1,.36.76A7.46,7.46,0,0,1,72.63,229.87Z"/><path id="Path_8303" data-name="Path 8303" class="cls-8" d="M84.06,225.51a7.45,7.45,0,0,1-2.14-.32,4.85,4.85,0,0,1-2.48-1.61,3,3,0,0,1-.43-3,.42.42,0,0,1,.55-.21.42.42,0,0,1,.21.56h0a2.19,2.19,0,0,0,.34,2.16,4,4,0,0,0,2.06,1.32,6.55,6.55,0,0,0,4.65-.32.42.42,0,0,1,.56.2.44.44,0,0,1-.2.56h0A7.46,7.46,0,0,1,84.06,225.51Z"/><path id="Path_8304" data-name="Path 8304" class="cls-8" d="M92.53,235.81a7.34,7.34,0,0,1-2.14-.31,4.91,4.91,0,0,1-2.49-1.62,3,3,0,0,1-.43-3,.43.43,0,0,1,.56-.21.42.42,0,0,1,.2.56,2.24,2.24,0,0,0,.34,2.16,4.07,4.07,0,0,0,2.06,1.32,6.58,6.58,0,0,0,4.66-.32.41.41,0,0,1,.55.2.42.42,0,0,1-.2.56A7.26,7.26,0,0,1,92.53,235.81Z"/><path id="Path_8305" data-name="Path 8305" class="cls-8" d="M92,219.66a5.73,5.73,0,0,1-2.45-.47,2.93,2.93,0,0,1-1.6-3.62.42.42,0,0,1,.76.35,2.1,2.1,0,0,0,1.21,2.51,6.68,6.68,0,0,0,3.46.32,6.38,6.38,0,0,0,3.29-.89.41.41,0,0,1,.58.08.43.43,0,0,1-.08.59,7,7,0,0,1-3.72,1.05C93,219.62,92.48,219.66,92,219.66Z"/></g></g></g></svg>